<?xml version="1.0" encoding="UTF-8"?>
<svg xmlns="http://www.w3.org/2000/svg" xmlns:xlink="http://www.w3.org/1999/xlink" version="1.2" >
<font id="Flaco Medium">
<font-face  font-family="Flaco" units-per-em="1000" ascent="780" descent="-220" font-style="normal" font-weight="500" font-stretch="normal" cap-height="712" x-height="496" underline-position="-75" underline-thickness="50" />
<missing-glyph  horiz-adv-x="576" d="M90 0 L486 0 L486 712 L90 712 L90 0 Z M173 646 L403 646 L403 66 L173 66 L173 646 Z " />
<glyph glyph-name="NULL" d="" />
<glyph glyph-name="CR" unicode="&#xd;" horiz-adv-x="250" d="" />
<glyph glyph-name="space" unicode="&#x20;" horiz-adv-x="256" d="" />
<glyph glyph-name="exclam" unicode="&#x21;" horiz-adv-x="337" d="M240 226 C240 226 250 413 250 555 L250 711 L136 711 L136 555 C136 413 146 226 146 226 L240 226 Z M129 0 L257 0 L257 121 L129 121 L129 0 Z " />
<glyph glyph-name="quotedbl" unicode="&#x22;" horiz-adv-x="399" d="M163 717 L65 717 L65 625 C65 558 81 483 81 483 L149 483 C149 483 163 559 163 625 L163 717 Z M334 717 L236 717 L236 625 C236 558 253 483 253 483 L321 483 C321 483 334 559 334 625 L334 717 Z " />
<glyph glyph-name="numbersign" unicode="&#x23;" horiz-adv-x="606" d="M288 -1 L380 -1 L417 195 L520 195 L520 272 L432 272 L460 420 L559 420 L559 498 L475 498 L511 686 L420 686 L384 498 L288 498 L324 686 L233 686 L197 498 L85 498 L85 420 L182 420 L153 272 L46 272 L46 195 L138 195 L101 -1 L193 -1 L230 195 L325 195 L288 -1 Z M273 420 L369 420 L340 272 L245 272 L273 420 Z " />
<glyph glyph-name="dollar" unicode="&#x24;" horiz-adv-x="606" d="M60 220 C60 106 120 2 280 -13 L280 -168 L343 -168 L343 -14 C489 -7 550 78 550 193 C550 318 441 359 343 395 L343 619 C403 601 425 547 427 494 L529 494 C528 606 468 693 343 709 L343 839 L280 839 L280 711 C151 704 83 626 83 519 C83 391 184 348 280 314 L280 76 C203 91 166 147 164 220 L60 220 Z M447 185 C447 113 411 79 343 74 L343 291 C401 268 447 241 447 185 L447 185 Z M186 524 C186 584 219 618 280 624 L280 419 C226 443 186 471 186 524 L186 524 Z " />
<glyph glyph-name="percent" unicode="&#x25;" horiz-adv-x="824" d="M213 420 C173 420 142 446 142 536 C142 622 175 645 213 645 C251 645 284 622 284 536 C284 446 252 420 213 420 L213 420 Z M244 -17 L663 712 L576 712 L154 -17 L244 -17 Z M53 535 C53 397 134 353 213 353 C288 353 373 398 373 535 C373 667 289 712 213 712 C139 712 53 666 53 535 L53 535 Z M539 165 C539 251 572 274 610 274 C648 274 681 251 681 165 C681 75 649 50 610 50 C570 50 539 75 539 165 L539 165 Z M450 165 C450 26 531 -17 610 -17 C685 -17 770 27 770 165 C770 296 686 341 610 341 C536 341 450 295 450 165 L450 165 Z " />
<glyph glyph-name="ampersand" unicode="&#x26;" horiz-adv-x="850" d="M610 145 C629 193 639 251 639 318 L697 318 C697 330 696 383 696 395 L551 395 C554 333 554 271 542 219 L408 366 C484 417 543 469 543 558 C543 670 457 714 367 714 C265 714 190 646 190 551 C190 473 233 423 276 376 C196 326 130 264 130 167 C130 47 227 -17 355 -17 C444 -17 513 12 561 66 L622 0 L743 0 L610 145 Z M235 174 C235 231 275 276 332 316 L504 129 C475 91 431 69 365 69 C289 69 235 107 235 174 L235 174 Z M447 556 C447 500 412 464 354 426 C315 469 286 501 286 552 C286 594 310 634 369 634 C411 634 447 611 447 556 L447 556 Z " />
<glyph glyph-name="quotesingle" unicode="&#x27;" horiz-adv-x="229" d="M164 717 L65 717 L65 625 C65 558 81 483 81 483 L151 483 C151 483 164 559 164 625 L164 717 Z " />
<glyph glyph-name="parenleft" unicode="&#x28;" horiz-adv-x="352" d="M294 -127 C294 -127 191 78 191 311 C191 552 288 738 288 738 L190 738 C190 738 84 556 84 311 C84 73 192 -127 192 -127 L294 -127 Z " />
<glyph glyph-name="parenright" unicode="&#x29;" horiz-adv-x="352" d="M160 -127 C160 -127 267 73 267 311 C267 556 162 738 162 738 L62 738 C62 738 161 552 161 311 C161 78 57 -127 57 -127 L160 -127 Z " />
<glyph glyph-name="asterisk" unicode="&#x2a;" horiz-adv-x="403" d="M361 637 L337 705 L233 663 L240 776 L163 776 L171 663 L66 705 L42 635 L155 610 L81 520 L140 477 L201 574 L259 480 L320 522 L249 610 L361 637 Z " />
<glyph glyph-name="plus" unicode="&#x2b;" horiz-adv-x="606" d="M82 217 L258 217 L258 43 L348 43 L348 217 L524 217 L524 300 L348 300 L348 470 L258 470 L258 300 L82 300 L82 217 Z " />
<glyph glyph-name="comma" unicode="&#x2c;" horiz-adv-x="240" d="M56 0 L113 0 C113 -24 110 -55 59 -72 L59 -146 C154 -126 184 -64 184 28 L184 120 L56 120 L56 0 Z " />
<glyph glyph-name="hyphen" unicode="&#x2d;" horiz-adv-x="337" d="M40 211 L305 211 L305 297 L40 297 L40 211 Z " />
<glyph glyph-name="period" unicode="&#x2e;" horiz-adv-x="240" d="M56 0 L184 0 L184 121 L56 121 L56 0 Z " />
<glyph glyph-name="slash" unicode="&#x2f;" horiz-adv-x="431" d="M13 -125 L112 -125 L396 741 L298 741 L13 -125 Z " />
<glyph glyph-name="zero" unicode="0" horiz-adv-x="606" d="M51 350 C51 53 169 -17 303 -17 C437 -17 555 60 555 350 C555 627 437 712 303 712 C169 712 51 624 51 350 L51 350 Z M156 350 C156 567 222 625 303 625 C384 625 450 564 450 350 C450 122 384 70 303 70 C222 70 156 122 156 350 L156 350 Z " />
<glyph glyph-name="one" unicode="1" horiz-adv-x="606" d="M400 0 L400 697 L310 697 C286 655 183 595 135 578 L135 477 C175 490 274 541 299 569 L299 0 L400 0 Z " />
<glyph glyph-name="two" unicode="2" horiz-adv-x="606" d="M72 0 L534 0 L534 92 L198 92 C406 258 530 359 530 519 C530 640 456 712 321 712 C79 712 80 469 80 469 L178 469 C178 469 179 625 318 625 C406 625 425 564 425 516 C425 363 254 252 72 84 L72 0 Z " />
<glyph glyph-name="three" unicode="3" horiz-adv-x="606" d="M63 219 C63 189 62 -17 312 -17 C463 -17 545 65 545 198 C545 358 401 371 393 372 C404 374 520 398 520 538 C520 645 447 712 316 712 C124 712 90 558 88 498 L184 498 C188 531 200 625 311 625 C383 625 415 589 415 527 C415 443 361 410 274 410 L238 410 L238 323 L275 323 C378 323 440 294 440 197 C440 114 399 70 311 70 C171 70 160 188 160 219 L63 219 Z " />
<glyph glyph-name="four" unicode="4" horiz-adv-x="606" d="M54 148 L372 148 L372 0 L475 0 L475 148 L552 148 L552 234 L475 234 L475 697 L361 697 L54 227 L54 148 Z M151 234 L372 577 L372 234 L151 234 Z " />
<glyph glyph-name="five" unicode="5" horiz-adv-x="606" d="M71 187 C71 187 72 -17 302 -17 C480 -17 534 114 534 239 C534 353 478 461 335 461 C234 461 192 404 192 404 L225 610 L492 610 L492 697 L152 697 L92 309 L186 296 C186 296 215 376 312 376 C404 376 429 299 429 235 C429 150 404 70 301 70 C172 70 168 187 168 187 L71 187 Z " />
<glyph glyph-name="six" unicode="6" horiz-adv-x="606" d="M524 532 C513 601 467 712 323 712 C105 712 63 478 63 305 C63 141 112 -17 309 -17 C459 -17 542 91 542 226 C542 359 458 454 328 454 C206 454 164 367 164 367 C171 481 198 625 318 625 C415 625 424 532 424 532 L524 532 Z M308 70 C224 70 177 128 177 223 C177 329 242 369 308 369 C385 369 437 319 437 219 C437 125 394 70 308 70 L308 70 Z " />
<glyph glyph-name="seven" unicode="7" horiz-adv-x="606" d="M255 0 C316 352 528 611 528 611 L528 697 L77 697 L77 608 L425 608 C406 588 227 371 138 0 L255 0 Z " />
<glyph glyph-name="eight" unicode="8" horiz-adv-x="606" d="M58 190 C58 34 178 -17 302 -17 C430 -17 547 43 547 190 C547 334 415 368 402 371 C412 374 515 407 515 528 C515 651 417 712 302 712 C190 712 90 651 90 528 C90 403 191 372 196 371 C187 369 58 333 58 190 L58 190 Z M163 196 C163 282 226 323 302 323 C378 323 442 282 442 196 C442 110 392 69 302 69 C217 69 163 112 163 196 L163 196 Z M195 525 C195 597 243 628 302 628 C361 628 410 597 410 525 C410 450 361 417 302 417 C243 417 195 450 195 525 L195 525 Z " />
<glyph glyph-name="nine" unicode="9" horiz-adv-x="606" d="M77 163 C77 163 82 -17 298 -17 C520 -17 543 220 543 399 C543 562 485 712 298 712 C157 712 64 611 64 463 C64 326 145 239 278 239 C397 239 439 320 439 320 C435 207 423 69 297 69 C184 69 176 163 176 163 L77 163 Z M169 470 C169 569 218 625 300 625 C378 625 428 570 428 473 C428 364 360 323 294 323 C222 323 169 371 169 470 L169 470 Z " />
<glyph glyph-name="colon" unicode="&#x3a;" horiz-adv-x="247" d="M87 0 L215 0 L215 121 L87 121 L87 0 Z M87 357 L215 357 L215 477 L87 477 L87 357 Z " />
<glyph glyph-name="semicolon" unicode="&#x3b;" horiz-adv-x="247" d="M87 0 L143 0 C144 -24 141 -55 90 -72 L90 -146 C185 -126 215 -64 215 29 L215 120 L87 120 L87 0 Z M87 357 L215 357 L215 477 L87 477 L87 357 Z " />
<glyph glyph-name="less" unicode="&#x3c;" horiz-adv-x="606" d="M82 303 L82 214 L524 29 L524 125 L181 259 L524 394 L524 488 L82 303 Z " />
<glyph glyph-name="equal" unicode="&#x3d;" horiz-adv-x="606" d="M82 304 L524 304 L524 390 L82 390 L82 304 Z M82 127 L524 127 L524 213 L82 213 L82 127 Z " />
<glyph glyph-name="greater" unicode="&#x3e;" horiz-adv-x="606" d="M82 488 L82 393 L424 258 L82 125 L82 29 L524 214 L524 303 L82 488 Z " />
<glyph glyph-name="question" unicode="&#x3f;" horiz-adv-x="517" d="M218 204 L316 204 L316 267 C316 375 488 409 488 561 C488 681 397 730 292 730 C76 730 74 535 74 530 L173 530 C173 533 175 640 289 640 C345 640 379 614 379 558 C379 443 218 405 218 272 L218 204 Z M203 0 L330 0 L330 121 L203 121 L203 0 Z " />
<glyph glyph-name="at" unicode="&#x40;" horiz-adv-x="1083" d="M761 473 L661 473 L651 417 C651 417 620 483 525 483 C389 483 307 350 307 191 C307 82 354 4 469 4 C545 4 584 46 597 66 L589 12 L680 12 C925 12 985 191 985 330 C985 555 801 668 586 668 C306 668 101 483 101 197 C101 -97 330 -176 526 -176 C649 -176 731 -144 731 -144 L727 -66 C727 -66 645 -98 518 -98 C376 -98 195 -39 195 202 C195 434 360 588 589 588 C763 588 889 494 889 327 C889 180 834 88 700 91 L761 473 Z M497 81 C429 81 407 120 407 195 C407 283 441 406 537 406 C605 406 629 352 629 295 C629 215 603 81 497 81 L497 81 Z " />
<glyph glyph-name="A" unicode="A" horiz-adv-x="695" d="M556 0 L675 0 L393 712 L300 712 L19 0 L130 0 L194 174 L492 174 L556 0 Z M283 412 C313 494 341 575 343 579 C345 572 373 493 404 413 L460 259 L226 259 L283 412 Z " />
<glyph glyph-name="B" unicode="B" horiz-adv-x="648" d="M90 0 L363 0 C500 0 606 48 606 206 C606 349 476 369 463 371 C473 374 577 405 577 536 C577 689 459 712 324 712 L90 712 L90 0 Z M196 90 L196 318 L364 318 C450 318 497 285 497 209 C497 119 446 90 364 90 L196 90 Z M196 408 L196 622 L315 622 C406 622 468 611 468 525 C468 452 432 408 343 408 L196 408 Z " />
<glyph glyph-name="C" unicode="C" horiz-adv-x="677" d="M529 250 C526 218 516 73 354 73 C183 73 160 227 160 358 C160 579 250 640 350 640 C502 640 518 498 519 474 L629 474 C629 513 596 730 351 730 C158 730 51 587 51 355 C51 130 128 -17 355 -17 C605 -17 637 199 638 250 L529 250 Z " />
<glyph glyph-name="D" unicode="D" horiz-adv-x="703" d="M90 0 L274 0 C552 0 651 144 651 371 C651 585 552 712 270 712 L90 712 L90 0 Z M196 90 L196 622 L280 622 C482 622 542 524 542 370 C542 169 457 90 276 90 L196 90 Z " />
<glyph glyph-name="E" unicode="E" horiz-adv-x="594" d="M90 0 L534 0 L534 90 L196 90 L196 320 L496 320 L496 410 L196 410 L196 622 L530 622 L530 712 L90 712 L90 0 Z " />
<glyph glyph-name="F" unicode="F" horiz-adv-x="578" d="M90 0 L196 0 L196 312 L496 312 L496 402 L196 402 L196 622 L530 622 L530 712 L90 712 L90 0 Z " />
<glyph glyph-name="G" unicode="G" horiz-adv-x="698" d="M542 0 L632 0 L632 382 L368 382 L368 293 L534 293 L534 288 C534 175 482 81 356 81 C194 81 160 218 160 357 C160 527 220 640 354 640 C496 640 514 508 514 508 L622 508 C622 508 599 730 356 730 C137 730 51 551 51 355 C51 76 184 -10 339 -10 C494 -10 539 99 539 99 L542 0 Z " />
<glyph glyph-name="H" unicode="H" horiz-adv-x="730" d="M90 0 L196 0 L196 320 L535 320 L535 0 L641 0 L641 712 L535 712 L535 410 L196 410 L196 712 L90 712 L90 0 Z " />
<glyph glyph-name="I" unicode="I" horiz-adv-x="286" d="M90 0 L196 0 L196 712 L90 712 L90 0 Z " />
<glyph glyph-name="J" unicode="J" horiz-adv-x="520" d="M32 227 C28 94 67 -17 230 -17 C397 -17 434 92 434 229 L434 712 L328 712 L328 244 C328 139 317 73 235 73 C141 73 134 149 132 227 L32 227 Z " />
<glyph glyph-name="K" unicode="K" horiz-adv-x="659" d="M509 0 L642 0 L346 413 L603 712 L478 712 L196 378 L196 712 L90 712 L90 0 L196 0 L196 242 L274 336 L509 0 Z " />
<glyph glyph-name="L" unicode="L" horiz-adv-x="518" d="M90 0 L488 0 L488 90 L196 90 L196 712 L90 712 L90 0 Z " />
<glyph glyph-name="M" unicode="M" horiz-adv-x="806" d="M90 0 L193 0 L193 344 C193 452 191 526 191 527 C194 520 222 450 256 377 L370 124 L433 124 L550 378 C583 450 613 524 615 527 C615 526 613 447 613 343 L613 0 L717 0 L717 712 L602 712 L484 456 C444 368 403 271 403 271 C403 271 363 369 323 456 L207 712 L90 712 L90 0 Z " />
<glyph glyph-name="N" unicode="N" horiz-adv-x="731" d="M90 0 L193 0 L193 341 C193 471 190 556 190 556 C190 556 235 474 297 375 L532 0 L642 0 L642 712 L538 712 L538 380 C538 256 541 162 541 162 C541 162 492 250 436 339 L203 712 L90 712 L90 0 Z " />
<glyph glyph-name="O" unicode="O" horiz-adv-x="727" d="M51 357 C51 81 191 -17 363 -17 C536 -17 676 90 676 357 C676 611 543 730 363 730 C191 730 51 611 51 357 L51 357 Z M160 357 C160 557 245 640 363 640 C481 640 567 557 567 357 C567 147 482 73 363 73 C249 73 160 147 160 357 L160 357 Z " />
<glyph glyph-name="P" unicode="P" horiz-adv-x="610" d="M90 0 L196 0 L196 284 L312 284 C466 284 576 347 576 509 C576 677 451 712 317 712 L90 712 L90 0 Z M196 374 L196 622 L317 622 C418 622 467 596 467 504 C467 393 398 374 308 374 L196 374 Z " />
<glyph glyph-name="Q" unicode="Q" horiz-adv-x="727" d="M51 357 C51 81 191 -17 363 -17 C398 -17 431 -12 462 -3 L532 -100 L608 -46 L548 38 C625 94 676 197 676 357 C676 611 543 730 363 730 C191 730 51 611 51 357 L51 357 Z M340 168 L405 76 C392 74 377 73 363 73 C249 73 160 147 160 357 C160 557 245 640 363 640 C481 640 567 557 567 357 C567 235 538 159 491 117 L416 222 L340 168 Z " />
<glyph glyph-name="R" unicode="R" horiz-adv-x="633" d="M90 0 L196 0 L196 294 L309 294 L456 0 L578 0 L416 306 C511 327 576 392 576 515 C576 677 453 712 320 712 L90 712 L90 0 Z M196 384 L196 622 L287 622 C408 622 467 612 467 512 C467 402 398 384 320 384 L196 384 Z " />
<glyph glyph-name="S" unicode="S" horiz-adv-x="598" d="M50 224 C50 97 123 -17 321 -17 C486 -17 554 73 554 196 C554 433 180 374 180 537 C180 606 221 640 297 640 C394 640 425 572 427 506 L532 506 C531 633 456 730 297 730 C151 730 74 648 74 531 C74 282 448 351 448 188 C448 107 404 73 320 73 C211 73 160 137 157 224 L50 224 Z " />
<glyph glyph-name="T" unicode="T" horiz-adv-x="556" d="M225 0 L330 0 L330 623 L538 623 L538 712 L18 712 L18 623 L225 623 L225 0 Z " />
<glyph glyph-name="U" unicode="U" horiz-adv-x="718" d="M83 249 C83 64 187 -17 359 -17 C524 -17 635 64 635 249 L635 712 L529 712 L529 249 C529 105 439 73 359 73 C279 73 190 109 190 253 L190 712 L83 712 L83 249 Z " />
<glyph glyph-name="V" unicode="V" horiz-adv-x="650" d="M372 0 L634 712 L524 712 L410 387 C362 248 323 127 323 127 C323 127 285 246 240 385 L133 712 L16 712 L266 0 L372 0 Z " />
<glyph glyph-name="W" unicode="W" horiz-adv-x="994" d="M337 0 L433 341 C469 471 495 583 497 589 C499 578 524 468 558 340 L645 0 L763 0 L974 712 L860 712 L771 386 C736 257 707 135 706 129 C703 140 676 260 644 387 L561 712 L441 712 L349 385 C313 254 282 136 281 130 C278 141 252 258 220 385 L137 712 L20 712 L221 0 L337 0 Z " />
<glyph glyph-name="X" unicode="X" horiz-adv-x="660" d="M606 712 L487 712 L331 467 L177 712 L50 712 L272 376 L23 0 L145 0 L327 290 L509 0 L637 0 L386 379 L606 712 Z " />
<glyph glyph-name="Y" unicode="Y" horiz-adv-x="596" d="M242 0 L348 0 L348 293 L588 712 L475 712 L387 552 C340 466 298 386 298 386 C298 386 257 467 211 553 L126 712 L7 712 L242 294 L242 0 Z " />
<glyph glyph-name="Z" unicode="Z" horiz-adv-x="619" d="M46 0 L562 0 L562 90 L169 90 L569 631 L569 712 L89 712 L89 622 L449 622 L46 79 L46 0 Z " />
<glyph glyph-name="bracketleft" unicode="&#x5b;" horiz-adv-x="352" d="M92 -132 L305 -132 L305 -50 L197 -50 L197 664 L305 664 L305 746 L92 746 L92 -132 Z " />
<glyph glyph-name="backslash" unicode="&#x5c;" horiz-adv-x="431" d="M128 741 L29 741 L315 -125 L414 -125 L128 741 Z " />
<glyph glyph-name="bracketright" unicode="&#x5d;" horiz-adv-x="352" d="M260 746 L47 746 L47 664 L154 664 L154 -50 L47 -50 L47 -132 L260 -132 L260 746 Z " />
<glyph glyph-name="asciicircum" unicode="&#x5e;" horiz-adv-x="606" d="M255 712 L85 464 L196 464 L301 633 L404 464 L521 464 L354 712 L255 712 Z " />
<glyph glyph-name="underscore" unicode="&#x5f;" horiz-adv-x="466" d="M0 -209 L466 -209 L466 -136 L0 -136 L0 -209 Z " />
<glyph glyph-name="grave" unicode="&#x60;" horiz-adv-x="214" d="M0 704 L112 576 L214 576 L144 704 L0 704 Z " />
<glyph glyph-name="a" unicode="a" horiz-adv-x="531" d="M349 301 C349 301 298 305 257 305 C105 305 40 249 40 146 C40 38 107 -10 210 -10 C292 -10 353 35 371 71 L372 65 C376 38 392 -6 454 -6 C479 -6 502 0 502 0 L502 75 L481 75 C454 75 446 91 446 127 L446 345 C446 454 392 513 264 513 C77 513 67 356 67 356 L162 356 C162 356 166 433 259 433 C325 433 349 406 349 341 L349 301 Z M348 198 C348 115 307 70 233 70 C173 70 142 95 142 152 C142 206 170 238 269 238 C311 238 348 234 348 234 L348 198 Z " />
<glyph glyph-name="b" unicode="b" horiz-adv-x="565" d="M77 0 L176 0 L179 72 C179 72 214 -10 324 -10 C459 -10 521 105 521 260 C521 398 465 513 331 513 C221 513 179 432 179 432 L179 712 L77 712 L77 0 Z M179 259 C179 347 211 431 304 431 C385 431 419 359 419 259 C419 105 360 71 303 71 C197 71 179 172 179 259 L179 259 Z " />
<glyph glyph-name="c" unicode="c" horiz-adv-x="494" d="M368 174 C366 130 348 65 266 65 C161 65 146 156 146 248 C146 340 166 431 258 431 C345 431 358 354 360 327 L457 327 C457 353 443 513 258 513 C96 513 44 377 44 248 C44 77 114 -17 265 -17 C443 -17 462 131 462 174 L368 174 Z " />
<glyph glyph-name="d" unicode="d" horiz-adv-x="565" d="M488 712 L386 712 L386 435 C386 435 351 513 247 513 C115 513 44 406 44 249 C44 101 96 -10 242 -10 C350 -10 386 73 386 73 L389 0 L488 0 L488 712 Z M386 259 C386 171 364 71 264 71 C205 71 146 101 146 248 C146 340 175 431 264 431 C355 431 386 346 386 259 L386 259 Z " />
<glyph glyph-name="e" unicode="e" horiz-adv-x="520" d="M479 220 C493 372 437 513 268 513 C106 513 44 388 44 242 C44 69 121 -17 273 -17 C448 -17 473 122 474 150 L381 150 C379 137 367 65 274 65 C166 65 146 158 146 220 L479 220 Z M148 295 C154 373 186 431 267 431 C344 431 380 372 380 295 L148 295 Z " />
<glyph glyph-name="f" unicode="f" horiz-adv-x="340" d="M104 0 L206 0 L206 422 L317 422 L317 496 L206 496 L206 576 C206 622 213 645 274 645 C291 645 328 643 328 643 L328 719 C328 719 288 726 247 726 C141 726 104 679 104 564 L104 496 L29 496 L29 422 L104 422 L104 0 Z " />
<glyph glyph-name="g" unicode="g" horiz-adv-x="565" d="M488 496 L387 496 L386 435 C386 435 350 507 247 507 C102 507 44 382 44 251 C44 116 101 7 242 7 C351 7 386 83 386 83 L386 18 C386 -104 341 -132 272 -132 C165 -132 161 -47 161 -47 L65 -47 C65 -47 60 -214 272 -214 C427 -214 488 -124 488 12 L488 496 Z M386 266 C386 169 358 87 264 87 C208 87 146 118 146 253 C146 357 182 425 264 425 C352 425 386 350 386 266 L386 266 Z " />
<glyph glyph-name="h" unicode="h" horiz-adv-x="563" d="M77 0 L179 0 L179 296 C179 397 246 425 291 425 C367 425 386 375 386 296 L386 0 L488 0 L488 328 C488 444 437 509 325 509 C218 509 179 429 179 429 L179 712 L77 712 L77 0 Z " />
<glyph glyph-name="i" unicode="i" horiz-adv-x="256" d="M70 604 L186 604 L186 719 L70 719 L70 604 Z M77 0 L179 0 L179 496 L77 496 L77 0 Z " />
<glyph glyph-name="j" unicode="j" horiz-adv-x="257" d="M-14 -196 C-14 -196 12 -200 43 -200 C175 -200 181 -111 181 -7 L181 496 L78 496 L78 -22 C78 -88 77 -112 3 -112 L-14 -112 L-14 -196 Z M72 604 L188 604 L188 719 L72 719 L72 604 Z " />
<glyph glyph-name="k" unicode="k" horiz-adv-x="520" d="M385 0 L505 0 L312 318 L483 496 L361 496 L179 304 L179 712 L77 712 L77 0 L179 0 L179 186 L241 251 L385 0 Z " />
<glyph glyph-name="l" unicode="l" horiz-adv-x="256" d="M77 0 L179 0 L179 712 L77 712 L77 0 Z " />
<glyph glyph-name="m" unicode="m" horiz-adv-x="843" d="M77 0 L179 0 L179 294 C179 395 238 423 283 423 C358 423 371 375 371 294 L371 0 L473 0 L473 296 C473 394 532 423 578 423 C653 423 666 375 666 294 L666 0 L768 0 L768 326 C768 448 716 507 611 507 C502 507 455 424 455 424 C455 424 427 507 317 507 C212 507 178 427 178 427 L175 496 L77 496 L77 0 Z " />
<glyph glyph-name="n" unicode="n" horiz-adv-x="563" d="M77 0 L179 0 L179 294 C179 395 246 423 291 423 C366 423 386 373 386 294 L386 0 L488 0 L488 326 C488 442 437 507 325 507 C218 507 178 427 178 427 L175 496 L77 496 L77 0 Z " />
<glyph glyph-name="o" unicode="o" horiz-adv-x="531" d="M44 248 C44 49 139 -17 265 -17 C388 -17 487 55 487 248 C487 438 389 513 265 513 C143 513 44 431 44 248 L44 248 Z M146 248 C146 383 195 431 265 431 C335 431 385 385 385 248 C385 107 337 65 265 65 C194 65 146 108 146 248 L146 248 Z " />
<glyph glyph-name="p" unicode="p" horiz-adv-x="566" d="M77 -196 L179 -196 L179 59 C179 59 215 -17 325 -17 C460 -17 522 98 522 253 C522 391 466 507 332 507 C222 507 180 424 180 424 L176 496 L77 496 L77 -196 Z M180 253 C180 340 212 424 305 424 C386 424 420 352 420 252 C420 98 361 63 304 63 C198 64 180 165 180 253 L180 253 Z " />
<glyph glyph-name="q" unicode="q" horiz-adv-x="566" d="M489 496 L388 496 L386 428 C386 428 351 506 247 506 C115 506 44 399 44 242 C44 94 96 -17 242 -17 C350 -17 387 63 387 63 L387 -196 L489 -196 L489 496 Z M386 252 C386 164 364 63 264 63 C205 63 146 94 146 241 C146 333 175 424 264 424 C355 424 386 339 386 252 L386 252 Z " />
<glyph glyph-name="r" unicode="r" horiz-adv-x="360" d="M77 0 L179 0 L179 284 C179 364 215 417 307 417 C318 417 332 415 332 415 L332 504 C332 504 315 507 299 507 C252 507 201 481 176 423 L171 496 L77 496 L77 0 Z " />
<glyph glyph-name="s" unicode="s" horiz-adv-x="455" d="M49 158 C49 87 83 -17 249 -17 C360 -17 421 38 421 135 C421 312 159 263 159 372 C159 415 185 435 229 435 C298 435 310 377 312 350 L408 350 C408 391 392 513 229 513 C122 513 62 453 62 367 C62 182 324 241 324 129 C324 78 297 61 247 61 C163 61 145 125 145 158 L49 158 Z " />
<glyph glyph-name="t" unicode="t" horiz-adv-x="353" d="M106 154 C106 49 122 -11 228 -11 C272 -11 315 0 315 0 L315 74 C315 74 287 72 271 72 C212 72 208 100 208 168 L208 422 L315 422 L315 496 L208 496 L208 646 L106 621 L106 496 L20 496 L20 422 L106 422 L106 154 Z " />
<glyph glyph-name="u" unicode="u" horiz-adv-x="552" d="M475 496 L373 496 L373 202 C373 102 312 74 267 74 C188 74 177 124 177 202 L177 496 L75 496 L75 179 C75 60 122 -10 234 -10 C339 -10 373 69 373 69 L377 0 L475 0 L475 496 Z " />
<glyph glyph-name="v" unicode="v" horiz-adv-x="501" d="M193 0 L292 0 L484 496 L378 496 L296 257 C268 176 248 112 247 109 C245 115 227 178 201 259 L125 496 L17 496 L193 0 Z " />
<glyph glyph-name="w" unicode="w" horiz-adv-x="788" d="M282 0 L354 238 C378 319 391 367 392 372 C394 365 407 316 429 239 L497 0 L602 0 L764 496 L658 496 L590 258 C565 175 550 115 550 112 C549 117 536 177 513 259 L447 496 L348 496 L276 259 C250 176 234 117 233 113 C231 121 217 179 196 259 L133 496 L24 496 L176 0 L282 0 Z " />
<glyph glyph-name="x" unicode="x" horiz-adv-x="517" d="M39 496 L204 257 L23 0 L136 0 L259 191 L379 0 L496 0 L315 260 L476 496 L367 496 L262 328 L157 496 L39 496 Z " />
<glyph glyph-name="y" unicode="y" horiz-adv-x="513" d="M185 -50 C167 -100 141 -115 94 -115 L71 -115 L71 -196 C71 -196 99 -200 123 -200 C226 -200 251 -137 287 -43 L496 496 L389 496 L314 277 C285 194 262 126 261 122 C258 130 234 206 209 280 L135 496 L25 496 L210 14 L185 -50 Z " />
<glyph glyph-name="z" unicode="z" horiz-adv-x="456" d="M40 0 L422 0 L422 82 L160 82 L422 428 L422 496 L71 496 L71 414 L304 414 L40 67 L40 0 Z " />
<glyph glyph-name="braceleft" unicode="&#x7b;" horiz-adv-x="355" d="M110 6 C110 -116 169 -132 256 -132 C275 -132 312 -131 312 -131 L312 -57 L288 -57 C235 -57 215 -49 215 23 L215 198 C215 302 124 316 114 317 C127 318 215 334 215 438 L215 591 C215 661 227 673 288 673 L312 673 L312 747 C312 747 271 748 255 748 C158 748 110 723 110 605 L110 437 C110 381 84 358 29 358 L29 272 C84 272 110 250 110 196 L110 6 Z " />
<glyph glyph-name="bar" unicode="&#x7c;" horiz-adv-x="422" d="M163 -122 L258 -122 L258 744 L163 744 L163 -122 Z " />
<glyph glyph-name="braceright" unicode="&#x7d;" horiz-adv-x="356" d="M245 196 C245 250 271 272 326 272 L326 358 C272 358 245 381 245 437 L245 605 C245 723 198 748 100 748 C84 748 43 747 43 747 L43 673 L67 673 C128 673 141 661 141 591 L141 436 C141 329 232 317 241 316 C228 314 141 297 141 196 L141 23 C141 -49 120 -57 67 -57 L43 -57 L43 -131 C43 -131 80 -132 99 -132 C187 -132 245 -116 245 6 L245 196 Z " />
<glyph glyph-name="asciitilde" unicode="&#x7e;" horiz-adv-x="606" d="M157 184 C157 184 157 244 213 244 C269 244 320 177 406 177 C529 177 523 328 523 328 L452 328 C452 328 453 265 401 265 C332 265 288 332 205 332 C104 332 81 232 81 184 L157 184 Z " />
<glyph glyph-name="exclamdown" unicode="&#xa1;" horiz-adv-x="337" d="M97 485 C97 485 87 299 87 156 L87 0 L201 0 L201 156 C201 299 191 485 191 485 L97 485 Z M208 711 L80 711 L80 591 L208 591 L208 711 Z " />
<glyph glyph-name="cent" unicode="&#xa2;" horiz-adv-x="606" d="M427 174 C425 134 410 77 347 67 L347 427 C407 412 417 350 419 327 L516 327 C516 351 503 495 347 511 L347 619 L284 619 L284 511 C148 493 103 368 103 248 C103 93 160 1 284 -14 L284 -117 L347 -117 L347 -16 C503 -4 521 133 521 174 L427 174 Z M205 248 C205 327 220 407 284 426 L284 71 C216 92 205 169 205 248 L205 248 Z " />
<glyph glyph-name="sterling" unicode="&#xa3;" horiz-adv-x="606" d="M89 302 L184 302 C190 276 194 250 194 223 C194 125 95 97 78 95 L78 0 L524 0 L524 87 L206 87 C224 95 299 144 299 229 C299 254 296 278 291 302 L438 302 L438 377 L272 377 C258 426 244 473 244 527 C244 594 278 625 334 625 C430 625 429 508 429 508 L527 508 C527 508 532 712 333 712 C219 712 139 649 139 529 C139 473 151 424 164 377 L89 377 L89 302 Z " />
<glyph glyph-name="currency" unicode="&#xa4;" horiz-adv-x="594" d="M78 244 C78 196 93 151 119 116 L53 53 L106 -2 L170 65 C205 39 249 25 296 25 C343 25 387 39 423 65 L487 -2 L540 53 L474 116 C500 152 515 196 515 244 C515 291 500 335 474 371 L540 434 L487 489 L423 422 C387 447 343 462 296 462 C249 462 205 447 170 421 L106 489 L53 434 L118 370 C92 335 78 290 78 244 L78 244 Z M150 244 C150 325 215 393 296 393 C378 393 443 325 443 244 C443 162 378 94 296 94 C215 94 150 162 150 244 L150 244 Z " />
<glyph glyph-name="yen" unicode="&#xa5;" horiz-adv-x="606" d="M77 313 L247 313 L247 223 L77 223 L77 150 L247 150 L247 0 L354 0 L354 150 L525 150 L525 223 L354 223 L354 313 L525 313 L525 386 L376 386 L560 697 L444 697 L305 436 L168 697 L46 697 L225 386 L77 386 L77 313 Z " />
<glyph glyph-name="brokenbar" unicode="&#xa6;" horiz-adv-x="422" d="M163 -122 L258 -122 L258 215 L163 215 L163 -122 Z M163 407 L258 407 L258 744 L163 744 L163 407 Z " />
<glyph glyph-name="section" unicode="&#xa7;" horiz-adv-x="606" d="M88 256 C88 165 152 120 234 74 L275 52 C345 13 376 -20 376 -67 C376 -113 357 -142 293 -142 C202 -142 200 -59 200 -59 L101 -59 C101 -62 96 -227 294 -227 C409 -227 482 -166 482 -61 C482 8 444 49 413 73 C422 78 519 129 519 239 C519 330 456 369 374 418 L339 438 C278 474 237 504 237 554 C237 605 271 627 316 627 C394 627 400 550 400 550 L499 550 C499 550 495 712 315 712 C207 712 133 650 133 551 C133 478 178 435 203 415 C190 410 88 366 88 256 L88 256 Z M284 156 C220 193 190 218 190 269 C190 338 252 369 263 375 L335 333 C390 300 418 272 418 227 C418 178 391 136 353 115 L284 156 Z " />
<glyph glyph-name="dieresis" unicode="&#xa8;" horiz-adv-x="303" d="M0 586 L111 586 L111 699 L0 699 L0 586 Z M193 586 L303 586 L303 699 L193 699 L193 586 Z " />
<glyph glyph-name="copyright" unicode="&#xa9;" horiz-adv-x="839" d="M510 297 C510 297 506 218 417 218 C356 218 312 263 312 362 C312 467 359 499 414 499 C492 499 503 420 503 420 L590 420 C590 420 579 575 413 575 C299 575 220 488 220 362 C220 213 302 142 418 142 C584 142 595 297 595 297 L510 297 Z M44 356 C44 142 191 -17 419 -17 C632 -17 794 134 794 356 C794 581 633 730 419 730 C211 730 44 579 44 356 L44 356 Z M125 356 C125 531 244 660 419 660 C594 660 714 531 714 356 C714 181 594 52 419 52 C244 52 125 181 125 356 L125 356 Z " />
<glyph glyph-name="ordfeminine" unicode="&#xaa;" horiz-adv-x="376" d="M225 542 C225 542 195 544 175 544 C77 544 36 510 36 443 C36 377 80 347 146 347 C206 347 236 374 249 395 L250 389 C252 379 262 349 307 349 C326 349 347 353 347 353 L347 415 L335 415 C316 415 310 420 310 444 L310 567 C310 633 274 670 189 670 C57 670 53 570 53 570 L135 570 C136 577 138 608 182 608 C215 608 225 594 225 565 L225 542 Z M224 474 C224 430 204 409 166 409 C135 409 120 423 120 449 C120 476 134 493 183 493 C206 493 224 490 224 490 L224 474 Z " />
<glyph glyph-name="guillemotleft" unicode="&#xab;" horiz-adv-x="498" d="M154 442 L47 248 L154 53 L253 53 L158 248 L254 442 L154 442 Z M348 442 L241 248 L348 53 L448 53 L352 248 L448 442 L348 442 Z " />
<glyph glyph-name="logicalnot" unicode="&#xac;" horiz-adv-x="606" d="M82 215 L430 215 L430 57 L524 57 L524 301 L82 301 L82 215 Z " />
<glyph glyph-name="registered" unicode="&#xae;" horiz-adv-x="497" d="M242 569 L286 479 L349 479 L296 574 C330 585 347 609 347 642 C346 705 294 711 247 711 L164 711 L164 479 L222 479 L222 569 L242 569 Z M222 611 L222 669 L248 669 C271 669 288 666 288 642 C288 616 272 611 248 611 L222 611 Z M75 590 C75 703 151 766 249 766 C346 766 422 703 422 590 C422 478 346 415 249 415 C151 415 75 478 75 590 L75 590 Z M18 590 C18 446 123 367 249 367 C374 367 479 450 479 590 C479 731 378 814 249 814 C123 814 18 730 18 590 L18 590 Z " />
<glyph glyph-name="macron" unicode="&#xaf;" horiz-adv-x="282" d="M0 599 L282 599 L282 681 L0 681 L0 599 Z " />
<glyph glyph-name="degree" unicode="&#xb0;" horiz-adv-x="422" d="M211 785 C118 785 43 720 43 627 C43 535 112 468 211 468 C305 468 379 536 379 627 C379 720 309 785 211 785 L211 785 Z M211 719 C260 719 298 685 298 627 C298 570 261 534 211 534 C162 534 124 569 124 627 C124 686 163 719 211 719 L211 719 Z " />
<glyph glyph-name="plusminus" unicode="&#xb1;" horiz-adv-x="606" d="M82 288 L257 288 L257 156 L349 156 L349 288 L524 288 L524 371 L349 371 L349 502 L257 502 L257 371 L82 371 L82 288 Z M82 0 L524 0 L524 83 L82 83 L82 0 Z " />
<glyph glyph-name="twosuperior" unicode="&#xb2;" horiz-adv-x="420" d="M57 386 L365 386 L365 465 L167 465 C291 547 361 610 361 694 C361 772 307 814 218 814 C56 814 56 660 56 660 L142 660 C142 660 144 738 213 738 C258 738 267 711 267 688 C267 616 184 561 57 456 L57 386 Z " />
<glyph glyph-name="threesuperior" unicode="&#xb3;" horiz-adv-x="420" d="M49 523 C49 481 67 375 215 375 C325 375 375 428 375 508 C375 601 282 607 279 607 C287 608 361 625 361 705 C361 765 317 813 221 813 C96 813 65 722 64 679 L147 679 C150 697 158 739 214 739 C251 739 268 722 268 692 C268 652 243 635 185 635 L163 635 L163 569 L188 569 C251 569 281 555 281 510 C281 470 259 449 214 449 C138 449 134 510 134 523 L49 523 Z " />
<glyph glyph-name="acute" unicode="&#xb4;" horiz-adv-x="214" d="M71 704 L0 576 L103 576 L214 704 L71 704 Z " />
<glyph glyph-name="&amp;#xb5;" unicode="&#xb5;" horiz-adv-x="584" d="M91 -210 L194 -210 L194 37 C210 8 245 -6 281 -6 C362 -6 390 63 390 63 L394 0 L492 0 L492 496 L390 496 L390 202 C390 102 329 74 283 74 C203 74 194 132 194 202 L194 496 L91 496 L91 -210 Z " />
<glyph glyph-name="&amp;#x3bc;" unicode="&#x3bc;" horiz-adv-x="584" d="M91 -210 L194 -210 L194 37 C210 8 245 -6 281 -6 C362 -6 390 63 390 63 L394 0 L492 0 L492 496 L390 496 L390 202 C390 102 329 74 283 74 C203 74 194 132 194 202 L194 496 L91 496 L91 -210 Z " />
<glyph glyph-name="paragraph" unicode="&#xb6;" horiz-adv-x="606" d="M35 515 C35 403 116 323 222 319 L222 -100 L308 -100 L308 638 L408 638 L408 -100 L493 -100 L493 638 L571 638 L571 712 L236 712 C125 712 35 631 35 515 L35 515 Z " />
<glyph glyph-name="periodcentered" unicode="&#xb7;" horiz-adv-x="240" d="M56 197 L184 197 L184 318 L56 318 L56 197 Z " />
<glyph glyph-name="cedilla" unicode="&#xb8;" horiz-adv-x="207" d="M0 -219 C8 -221 32 -233 65 -233 C155 -233 206 -185 206 -132 C206 -103 191 -57 117 -57 C112 -57 107 -57 103 -58 L131 0 L73 0 L29 -86 L47 -105 C54 -103 65 -101 77 -101 C101 -101 121 -108 121 -135 C121 -170 89 -181 56 -181 C34 -181 19 -173 19 -173 L0 -219 Z " />
<glyph glyph-name="onesuperior" unicode="&#xb9;" horiz-adv-x="334" d="M251 386 L251 803 L174 803 C158 768 93 741 63 734 L63 648 C88 654 136 673 161 691 L161 386 L251 386 Z " />
<glyph glyph-name="ordmasculine" unicode="&#xba;" horiz-adv-x="376" d="M37 507 C37 381 104 342 188 342 C272 342 339 386 339 507 C339 620 275 670 188 670 C105 670 37 620 37 507 L37 507 Z M126 507 C126 582 153 602 188 602 C223 602 250 582 250 507 C250 428 223 410 188 410 C153 410 126 427 126 507 L126 507 Z " />
<glyph glyph-name="guillemotright" unicode="&#xbb;" horiz-adv-x="498" d="M244 442 L341 248 L245 53 L345 53 L452 248 L345 442 L244 442 Z M50 442 L146 248 L51 53 L151 53 L257 248 L151 442 L50 442 Z " />
<glyph glyph-name="onequarter" unicode="&#xbc;" horiz-adv-x="998" d="M622 87 L815 87 L815 0 L906 0 L906 87 L953 87 L953 157 L906 157 L906 417 L809 417 L622 149 L622 87 Z M698 157 L815 325 L815 157 L698 157 Z M288 285 L288 702 L211 702 C195 667 130 640 100 633 L100 547 C125 553 173 572 198 590 L198 285 L288 285 Z M225 -10 L317 -10 L768 703 L676 703 L225 -10 Z " />
<glyph glyph-name="onehalf" unicode="&#xbd;" horiz-adv-x="998" d="M635 0 L943 0 L943 79 L745 79 C869 161 939 224 939 308 C939 386 885 428 796 428 C634 428 634 274 634 274 L720 274 C720 274 722 352 791 352 C836 352 845 325 845 302 C845 230 762 175 635 70 L635 0 Z M288 285 L288 702 L211 702 C195 667 130 640 100 633 L100 547 C125 553 173 572 198 590 L198 285 L288 285 Z M225 -10 L317 -10 L768 703 L676 703 L225 -10 Z " />
<glyph glyph-name="threequarters" unicode="&#xbe;" horiz-adv-x="998" d="M622 87 L815 87 L815 0 L906 0 L906 87 L953 87 L953 157 L906 157 L906 417 L809 417 L622 149 L622 87 Z M49 422 C49 380 67 274 215 274 C325 274 375 327 375 407 C375 500 282 506 279 506 C287 507 361 524 361 604 C361 664 317 712 221 712 C96 712 65 621 64 578 L147 578 C150 596 158 638 214 638 C251 638 268 621 268 591 C268 551 243 534 185 534 L163 534 L163 468 L188 468 C251 468 281 454 281 409 C281 369 259 348 214 348 C138 348 134 409 134 422 L49 422 Z M225 -10 L317 -10 L768 703 L676 703 L225 -10 Z M698 157 L815 325 L815 157 L698 157 Z " />
<glyph glyph-name="questiondown" unicode="&#xbf;" horiz-adv-x="516" d="M298 509 L199 509 L199 445 C199 337 33 304 33 151 C33 26 126 -17 236 -17 C452 -17 446 177 446 182 L348 182 C348 179 352 73 239 73 C178 73 141 98 141 154 C141 270 298 307 298 440 L298 509 Z M313 712 L185 712 L185 591 L313 591 L313 712 Z " />
<glyph glyph-name="Agrave" unicode="&#xc0;" horiz-adv-x="695" d="M556 0 L675 0 L393 712 L300 712 L19 0 L130 0 L194 174 L492 174 L556 0 Z M283 412 C313 494 341 575 343 579 C345 572 373 493 404 413 L460 259 L226 259 L283 412 Z M174 907 L287 778 L391 778 L320 907 L174 907 Z " />
<glyph glyph-name="Aacute" unicode="&#xc1;" horiz-adv-x="695" d="M556 0 L675 0 L393 712 L300 712 L19 0 L130 0 L194 174 L492 174 L556 0 Z M283 412 C313 494 341 575 343 579 C345 572 373 493 404 413 L460 259 L226 259 L283 412 Z M370 907 L298 778 L403 778 L516 907 L370 907 Z " />
<glyph glyph-name="Acircumflex" unicode="&#xc2;" horiz-adv-x="695" d="M556 0 L675 0 L393 712 L300 712 L19 0 L130 0 L194 174 L492 174 L556 0 Z M283 412 C313 494 341 575 343 579 C345 572 373 493 404 413 L460 259 L226 259 L283 412 Z M277 907 L186 778 L295 778 L344 857 L392 778 L507 778 L416 907 L277 907 Z " />
<glyph glyph-name="Atilde" unicode="&#xc3;" horiz-adv-x="695" d="M556 0 L675 0 L393 712 L300 712 L19 0 L130 0 L194 174 L492 174 L556 0 Z M283 412 C313 494 341 575 343 579 C345 572 373 493 404 413 L460 259 L226 259 L283 412 Z M259 782 C259 792 260 824 288 824 C323 824 355 776 419 776 C498 776 502 864 501 901 L436 901 C436 893 436 854 407 854 C367 854 341 905 282 905 C201 905 190 820 191 782 L259 782 Z " />
<glyph glyph-name="Adieresis" unicode="&#xc4;" horiz-adv-x="695" d="M556 0 L675 0 L393 712 L300 712 L19 0 L130 0 L194 174 L492 174 L556 0 Z M283 412 C313 494 341 575 343 579 C345 572 373 493 404 413 L460 259 L226 259 L283 412 Z M195 792 L307 792 L307 905 L195 905 L195 792 Z M388 792 L498 792 L498 905 L388 905 L388 792 Z " />
<glyph glyph-name="Aring" unicode="&#xc5;" horiz-adv-x="695" d="M556 0 L675 0 L393 712 L300 712 L19 0 L130 0 L194 174 L492 174 L556 0 Z M229 842 C229 773 284 734 347 734 C411 734 466 773 466 842 C466 910 411 950 347 950 C284 950 229 910 229 842 L229 842 Z M283 412 C313 494 341 575 343 579 C345 572 373 493 404 413 L460 259 L226 259 L283 412 Z M296 842 C296 871 316 892 347 892 C378 892 398 871 398 842 C398 813 378 791 347 791 C316 791 296 813 296 842 L296 842 Z " />
<glyph glyph-name="AE" unicode="&#xc6;" horiz-adv-x="896" d="M836 0 L836 90 L558 90 L558 325 L799 325 L799 414 L558 414 L558 622 L835 622 L835 712 L375 712 L13 0 L127 0 L213 180 L451 180 L451 0 L836 0 Z M429 622 L451 622 L451 267 L255 267 L429 622 Z " />
<glyph glyph-name="Ccedilla" unicode="&#xc7;" horiz-adv-x="677" d="M244 -219 C252 -221 276 -233 309 -233 C399 -233 450 -185 450 -132 C450 -103 435 -57 361 -57 C356 -57 351 -57 347 -58 L367 -16 C606 -9 637 200 638 250 L529 250 C526 218 516 73 354 73 C183 73 160 227 160 358 C160 579 250 640 350 640 C502 640 518 498 519 474 L629 474 C629 513 596 730 351 730 C158 730 51 587 51 355 C51 146 117 4 309 -15 L273 -86 L291 -105 C298 -103 309 -101 321 -101 C345 -101 365 -108 365 -135 C365 -170 333 -181 300 -181 C278 -181 263 -173 263 -173 L244 -219 Z " />
<glyph glyph-name="Egrave" unicode="&#xc8;" horiz-adv-x="594" d="M90 0 L534 0 L534 90 L196 90 L196 320 L496 320 L496 410 L196 410 L196 622 L530 622 L530 712 L90 712 L90 0 Z M161 907 L274 778 L378 778 L307 907 L161 907 Z " />
<glyph glyph-name="Eacute" unicode="&#xc9;" horiz-adv-x="594" d="M325 907 L253 778 L358 778 L471 907 L325 907 Z M90 0 L534 0 L534 90 L196 90 L196 320 L496 320 L496 410 L196 410 L196 622 L530 622 L530 712 L90 712 L90 0 Z " />
<glyph glyph-name="Ecircumflex" unicode="&#xca;" horiz-adv-x="594" d="M244 907 L153 778 L262 778 L311 857 L359 778 L474 778 L383 907 L244 907 Z M90 0 L534 0 L534 90 L196 90 L196 320 L496 320 L496 410 L196 410 L196 622 L530 622 L530 712 L90 712 L90 0 Z " />
<glyph glyph-name="Edieresis" unicode="&#xcb;" horiz-adv-x="594" d="M157 792 L269 792 L269 905 L157 905 L157 792 Z M350 792 L460 792 L460 905 L350 905 L350 792 Z M90 0 L534 0 L534 90 L196 90 L196 320 L496 320 L496 410 L196 410 L196 622 L530 622 L530 712 L90 712 L90 0 Z " />
<glyph glyph-name="Igrave" unicode="&#xcc;" horiz-adv-x="286" d="M90 0 L196 0 L196 712 L90 712 L90 0 Z M-2 907 L111 778 L215 778 L144 907 L-2 907 Z " />
<glyph glyph-name="Iacute" unicode="&#xcd;" horiz-adv-x="286" d="M90 0 L196 0 L196 712 L90 712 L90 0 Z M150 907 L78 778 L183 778 L296 907 L150 907 Z " />
<glyph glyph-name="Icircumflex" unicode="&#xce;" horiz-adv-x="286" d="M90 0 L196 0 L196 712 L90 712 L90 0 Z M75 907 L-16 778 L93 778 L142 857 L190 778 L305 778 L214 907 L75 907 Z " />
<glyph glyph-name="Idieresis" unicode="&#xcf;" horiz-adv-x="286" d="M90 0 L196 0 L196 712 L90 712 L90 0 Z M-8 792 L104 792 L104 905 L-8 905 L-8 792 Z M185 792 L295 792 L295 905 L185 905 L185 792 Z " />
<glyph glyph-name="Eth" unicode="&#xd0;" horiz-adv-x="709" d="M10 323 L96 323 L96 0 L280 0 C558 0 657 144 657 371 C657 585 558 712 276 712 L96 712 L96 407 L10 407 L10 323 Z M202 90 L202 323 L367 323 L367 407 L202 407 L202 622 L286 622 C488 622 548 524 548 370 C548 169 463 90 282 90 L202 90 Z " />
<glyph glyph-name="Ntilde" unicode="&#xd1;" horiz-adv-x="731" d="M90 0 L193 0 L193 341 C193 471 190 556 190 556 C190 556 235 474 297 375 L532 0 L642 0 L642 712 L538 712 L538 380 C538 256 541 162 541 162 C541 162 492 250 436 339 L203 712 L90 712 L90 0 Z M277 782 C277 792 278 824 306 824 C341 824 373 776 437 776 C516 776 520 864 519 901 L454 901 C454 893 454 854 425 854 C385 854 359 905 300 905 C219 905 208 820 209 782 L277 782 Z " />
<glyph glyph-name="Ograve" unicode="&#xd2;" horiz-adv-x="727" d="M51 357 C51 81 191 -17 363 -17 C536 -17 676 90 676 357 C676 611 543 730 363 730 C191 730 51 611 51 357 L51 357 Z M160 357 C160 557 245 640 363 640 C481 640 567 557 567 357 C567 147 482 73 363 73 C249 73 160 147 160 357 L160 357 Z M214 907 L327 778 L431 778 L360 907 L214 907 Z " />
<glyph glyph-name="Oacute" unicode="&#xd3;" horiz-adv-x="727" d="M367 907 L295 778 L400 778 L513 907 L367 907 Z M51 357 C51 81 191 -17 363 -17 C536 -17 676 90 676 357 C676 611 543 730 363 730 C191 730 51 611 51 357 L51 357 Z M160 357 C160 557 245 640 363 640 C481 640 567 557 567 357 C567 147 482 73 363 73 C249 73 160 147 160 357 L160 357 Z " />
<glyph glyph-name="Ocircumflex" unicode="&#xd4;" horiz-adv-x="727" d="M293 907 L202 778 L311 778 L360 857 L408 778 L523 778 L432 907 L293 907 Z M51 357 C51 81 191 -17 363 -17 C536 -17 676 90 676 357 C676 611 543 730 363 730 C191 730 51 611 51 357 L51 357 Z M160 357 C160 557 245 640 363 640 C481 640 567 557 567 357 C567 147 482 73 363 73 C249 73 160 147 160 357 L160 357 Z " />
<glyph glyph-name="Otilde" unicode="&#xd5;" horiz-adv-x="727" d="M51 357 C51 81 191 -17 363 -17 C536 -17 676 90 676 357 C676 611 543 730 363 730 C191 730 51 611 51 357 L51 357 Z M160 357 C160 557 245 640 363 640 C481 640 567 557 567 357 C567 147 482 73 363 73 C249 73 160 147 160 357 L160 357 Z M275 782 C275 792 276 824 304 824 C339 824 371 776 435 776 C514 776 518 864 517 901 L452 901 C452 893 452 854 423 854 C383 854 357 905 298 905 C217 905 206 820 207 782 L275 782 Z " />
<glyph glyph-name="Odieresis" unicode="&#xd6;" horiz-adv-x="727" d="M211 792 L323 792 L323 905 L211 905 L211 792 Z M404 792 L514 792 L514 905 L404 905 L404 792 Z M51 357 C51 81 191 -17 363 -17 C536 -17 676 90 676 357 C676 611 543 730 363 730 C191 730 51 611 51 357 L51 357 Z M160 357 C160 557 245 640 363 640 C481 640 567 557 567 357 C567 147 482 73 363 73 C249 73 160 147 160 357 L160 357 Z " />
<glyph glyph-name="multiply" unicode="&#xd7;" horiz-adv-x="606" d="M167 61 L302 195 L441 55 L505 118 L364 258 L497 391 L436 453 L303 319 L164 459 L101 395 L240 256 L106 122 L167 61 Z " />
<glyph glyph-name="Oslash" unicode="&#xd8;" horiz-adv-x="727" d="M51 357 C51 235 78 148 123 89 L35 -36 L133 -36 L182 33 C233 -2 295 -17 363 -17 C536 -17 676 90 676 357 C676 474 647 562 599 624 L687 748 L589 748 L540 679 C491 713 430 730 363 730 C191 730 51 611 51 357 L51 357 Z M567 357 C567 147 482 73 363 73 C316 73 274 86 240 115 L534 532 C555 488 567 430 567 357 L567 357 Z M160 357 C160 557 245 640 363 640 C409 640 451 627 484 599 L190 184 C171 227 160 283 160 357 L160 357 Z " />
<glyph glyph-name="Ugrave" unicode="&#xd9;" horiz-adv-x="718" d="M83 249 C83 64 187 -17 359 -17 C524 -17 635 64 635 249 L635 712 L529 712 L529 249 C529 105 439 73 359 73 C279 73 190 109 190 253 L190 712 L83 712 L83 249 Z M215 907 L328 778 L432 778 L361 907 L215 907 Z " />
<glyph glyph-name="Uacute" unicode="&#xda;" horiz-adv-x="718" d="M365 907 L293 778 L398 778 L511 907 L365 907 Z M83 249 C83 64 187 -17 359 -17 C524 -17 635 64 635 249 L635 712 L529 712 L529 249 C529 105 439 73 359 73 C279 73 190 109 190 253 L190 712 L83 712 L83 249 Z " />
<glyph glyph-name="Ucircumflex" unicode="&#xdb;" horiz-adv-x="718" d="M289 907 L198 778 L307 778 L356 857 L404 778 L519 778 L428 907 L289 907 Z M83 249 C83 64 187 -17 359 -17 C524 -17 635 64 635 249 L635 712 L529 712 L529 249 C529 105 439 73 359 73 C279 73 190 109 190 253 L190 712 L83 712 L83 249 Z " />
<glyph glyph-name="Udieresis" unicode="&#xdc;" horiz-adv-x="718" d="M207 792 L319 792 L319 905 L207 905 L207 792 Z M400 792 L510 792 L510 905 L400 905 L400 792 Z M83 249 C83 64 187 -17 359 -17 C524 -17 635 64 635 249 L635 712 L529 712 L529 249 C529 105 439 73 359 73 C279 73 190 109 190 253 L190 712 L83 712 L83 249 Z " />
<glyph glyph-name="Yacute" unicode="&#xdd;" horiz-adv-x="596" d="M242 0 L348 0 L348 293 L588 712 L475 712 L387 552 C340 466 298 386 298 386 C298 386 257 467 211 553 L126 712 L7 712 L242 294 L242 0 Z M312 907 L240 778 L345 778 L458 907 L312 907 Z " />
<glyph glyph-name="Thorn" unicode="&#xde;" horiz-adv-x="610" d="M90 0 L196 0 L196 153 L312 153 C466 153 576 216 576 378 C576 546 451 581 317 581 L196 581 L196 712 L90 712 L90 0 Z M196 243 L196 491 L317 491 C418 491 467 465 467 373 C467 262 398 243 308 243 L196 243 Z " />
<glyph glyph-name="germandbls" unicode="&#xdf;" horiz-adv-x="566" d="M191 514 C191 569 203 643 288 643 C347 643 379 605 379 547 C379 478 342 442 275 442 L265 442 L265 356 L275 356 C381 356 430 308 430 214 C430 97 370 76 304 76 C289 76 263 78 263 78 L263 1 C263 1 292 -5 328 -5 C416 -5 532 27 532 214 C532 354 434 400 368 405 C410 410 482 459 482 557 C482 665 399 725 290 725 C144 725 89 632 89 517 L89 496 L25 496 L25 413 L89 413 L89 0 L191 0 L191 514 Z " />
<glyph glyph-name="agrave" unicode="&#xe0;" horiz-adv-x="531" d="M349 301 C349 301 298 305 257 305 C105 305 40 249 40 146 C40 38 107 -10 210 -10 C292 -10 353 35 371 71 L372 65 C376 38 392 -6 454 -6 C479 -6 502 0 502 0 L502 75 L481 75 C454 75 446 91 446 127 L446 345 C446 454 392 513 264 513 C77 513 67 356 67 356 L162 356 C162 356 166 433 259 433 C325 433 349 406 349 341 L349 301 Z M348 198 C348 115 307 70 233 70 C173 70 142 95 142 152 C142 206 170 238 269 238 C311 238 348 234 348 234 L348 198 Z M114 704 L226 576 L328 576 L258 704 L114 704 Z " />
<glyph glyph-name="aacute" unicode="&#xe1;" horiz-adv-x="531" d="M349 301 C349 301 298 305 257 305 C105 305 40 249 40 146 C40 38 107 -10 210 -10 C292 -10 353 35 371 71 L372 65 C376 38 392 -6 454 -6 C479 -6 502 0 502 0 L502 75 L481 75 C454 75 446 91 446 127 L446 345 C446 454 392 513 264 513 C77 513 67 356 67 356 L162 356 C162 356 166 433 259 433 C325 433 349 406 349 341 L349 301 Z M348 198 C348 115 307 70 233 70 C173 70 142 95 142 152 C142 206 170 238 269 238 C311 238 348 234 348 234 L348 198 Z M287 704 L216 576 L319 576 L430 704 L287 704 Z " />
<glyph glyph-name="acircumflex" unicode="&#xe2;" horiz-adv-x="531" d="M349 301 C349 301 298 305 257 305 C105 305 40 249 40 146 C40 38 107 -10 210 -10 C292 -10 353 35 371 71 L372 65 C376 38 392 -6 454 -6 C479 -6 502 0 502 0 L502 75 L481 75 C454 75 446 91 446 127 L446 345 C446 454 392 513 264 513 C77 513 67 356 67 356 L162 356 C162 356 166 433 259 433 C325 433 349 406 349 341 L349 301 Z M348 198 C348 115 307 70 233 70 C173 70 142 95 142 152 C142 206 170 238 269 238 C311 238 348 234 348 234 L348 198 Z M197 704 L106 576 L213 576 L262 656 L312 576 L425 576 L334 704 L197 704 Z " />
<glyph glyph-name="atilde" unicode="&#xe3;" horiz-adv-x="531" d="M349 301 C349 301 298 305 257 305 C105 305 40 249 40 146 C40 38 107 -10 210 -10 C292 -10 353 35 371 71 L372 65 C376 38 392 -6 454 -6 C479 -6 502 0 502 0 L502 75 L481 75 C454 75 446 91 446 127 L446 345 C446 454 392 513 264 513 C77 513 67 356 67 356 L162 356 C162 356 166 433 259 433 C325 433 349 406 349 341 L349 301 Z M348 198 C348 115 307 70 233 70 C173 70 142 95 142 152 C142 206 170 238 269 238 C311 238 348 234 348 234 L348 198 Z M177 579 C177 589 178 621 206 621 C241 621 273 573 337 573 C416 573 420 661 419 698 L356 698 C356 690 356 651 327 651 C287 651 259 702 200 702 C119 702 108 617 109 579 L177 579 Z " />
<glyph glyph-name="adieresis" unicode="&#xe4;" horiz-adv-x="531" d="M349 301 C349 301 298 305 257 305 C105 305 40 249 40 146 C40 38 107 -10 210 -10 C292 -10 353 35 371 71 L372 65 C376 38 392 -6 454 -6 C479 -6 502 0 502 0 L502 75 L481 75 C454 75 446 91 446 127 L446 345 C446 454 392 513 264 513 C77 513 67 356 67 356 L162 356 C162 356 166 433 259 433 C325 433 349 406 349 341 L349 301 Z M348 198 C348 115 307 70 233 70 C173 70 142 95 142 152 C142 206 170 238 269 238 C311 238 348 234 348 234 L348 198 Z M111 586 L222 586 L222 699 L111 699 L111 586 Z M304 586 L414 586 L414 699 L304 699 L304 586 Z " />
<glyph glyph-name="aring" unicode="&#xe5;" horiz-adv-x="531" d="M349 301 C349 301 298 305 257 305 C105 305 40 249 40 146 C40 38 107 -10 210 -10 C292 -10 353 35 371 71 L372 65 C376 38 392 -6 454 -6 C479 -6 502 0 502 0 L502 75 L481 75 C454 75 446 91 446 127 L446 345 C446 454 392 513 264 513 C77 513 67 356 67 356 L162 356 C162 356 166 433 259 433 C325 433 349 406 349 341 L349 301 Z M348 198 C348 115 307 70 233 70 C173 70 142 95 142 152 C142 206 170 238 269 238 C311 238 348 234 348 234 L348 198 Z M147 662 C147 594 202 554 265 554 C327 554 383 594 383 662 C383 730 327 770 265 770 C202 770 147 730 147 662 L147 662 Z M213 662 C213 692 233 714 265 714 C296 714 316 692 316 662 C316 632 296 610 265 610 C233 610 213 632 213 662 L213 662 Z " />
<glyph glyph-name="ae" unicode="&#xe6;" horiz-adv-x="801" d="M762 224 C763 236 763 247 763 259 C763 403 706 513 563 513 C450 513 404 431 404 431 C404 431 372 513 255 513 C74 513 65 356 65 356 L160 356 C160 356 162 432 250 432 C319 432 341 388 341 327 L341 296 L253 296 C135 296 40 261 40 139 C40 37 101 -17 217 -17 C352 -17 390 85 390 85 C390 85 424 -17 568 -17 C746 -17 757 149 757 149 L664 149 C664 149 661 64 568 64 C469 64 448 165 448 224 L762 224 Z M340 198 C340 104 296 63 228 63 C167 63 142 95 142 143 C142 212 190 227 265 227 L340 227 L340 198 Z M449 293 C452 351 476 432 561 432 C639 432 663 357 663 293 L449 293 Z " />
<glyph glyph-name="ccedilla" unicode="&#xe7;" horiz-adv-x="494" d="M157 -219 C165 -221 189 -233 222 -233 C312 -233 363 -185 363 -132 C363 -103 348 -57 274 -57 C269 -57 264 -57 260 -58 L280 -16 C444 -8 462 132 462 174 L368 174 C366 130 348 65 266 65 C161 65 146 156 146 248 C146 340 166 431 258 431 C345 431 358 354 360 327 L457 327 C457 353 443 513 258 513 C96 513 44 377 44 248 C44 93 101 2 223 -14 L186 -86 L204 -105 C211 -103 222 -101 234 -101 C258 -101 278 -108 278 -135 C278 -170 246 -181 213 -181 C191 -181 176 -173 176 -173 L157 -219 Z " />
<glyph glyph-name="egrave" unicode="&#xe8;" horiz-adv-x="520" d="M479 220 C493 372 437 513 268 513 C106 513 44 388 44 242 C44 69 121 -17 273 -17 C448 -17 473 122 474 150 L381 150 C379 137 367 65 274 65 C166 65 146 158 146 220 L479 220 Z M148 295 C154 373 186 431 267 431 C344 431 380 372 380 295 L148 295 Z M116 704 L228 576 L330 576 L260 704 L116 704 Z " />
<glyph glyph-name="eacute" unicode="&#xe9;" horiz-adv-x="520" d="M276 704 L205 576 L308 576 L419 704 L276 704 Z M479 220 C493 372 437 513 268 513 C106 513 44 388 44 242 C44 69 121 -17 273 -17 C448 -17 473 122 474 150 L381 150 C379 137 367 65 274 65 C166 65 146 158 146 220 L479 220 Z M148 295 C154 373 186 431 267 431 C344 431 380 372 380 295 L148 295 Z " />
<glyph glyph-name="ecircumflex" unicode="&#xea;" horiz-adv-x="520" d="M199 704 L108 576 L215 576 L264 656 L314 576 L427 576 L336 704 L199 704 Z M479 220 C493 372 437 513 268 513 C106 513 44 388 44 242 C44 69 121 -17 273 -17 C448 -17 473 122 474 150 L381 150 C379 137 367 65 274 65 C166 65 146 158 146 220 L479 220 Z M148 295 C154 373 186 431 267 431 C344 431 380 372 380 295 L148 295 Z " />
<glyph glyph-name="edieresis" unicode="&#xeb;" horiz-adv-x="520" d="M115 586 L226 586 L226 699 L115 699 L115 586 Z M308 586 L418 586 L418 699 L308 699 L308 586 Z M479 220 C493 372 437 513 268 513 C106 513 44 388 44 242 C44 69 121 -17 273 -17 C448 -17 473 122 474 150 L381 150 C379 137 367 65 274 65 C166 65 146 158 146 220 L479 220 Z M148 295 C154 373 186 431 267 431 C344 431 380 372 380 295 L148 295 Z " />
<glyph glyph-name="igrave" unicode="&#xec;" horiz-adv-x="256" d="M77 0 L179 0 L179 496 L77 496 L77 0 Z M-26 704 L86 576 L188 576 L118 704 L-26 704 Z " />
<glyph glyph-name="iacute" unicode="&#xed;" horiz-adv-x="256" d="M138 704 L67 576 L170 576 L281 704 L138 704 Z M77 0 L179 0 L179 496 L77 496 L77 0 Z " />
<glyph glyph-name="icircumflex" unicode="&#xee;" horiz-adv-x="256" d="M60 704 L-31 576 L76 576 L125 656 L175 576 L288 576 L197 704 L60 704 Z M77 0 L179 0 L179 496 L77 496 L77 0 Z " />
<glyph glyph-name="idieresis" unicode="&#xef;" horiz-adv-x="256" d="M-23 586 L88 586 L88 699 L-23 699 L-23 586 Z M170 586 L280 586 L280 699 L170 699 L170 586 Z M77 0 L179 0 L179 496 L77 496 L77 0 Z " />
<glyph glyph-name="eth" unicode="&#xf0;" horiz-adv-x="531" d="M117 567 L274 567 L281 556 C300 522 329 472 329 472 C305 493 274 499 245 499 C131 499 44 403 44 244 C44 50 139 -17 266 -17 C391 -17 487 57 487 244 C487 346 456 422 399 530 L379 567 L445 567 L445 629 L345 629 L301 712 L191 712 L239 629 L117 629 L117 567 Z M146 244 C146 370 196 418 266 418 C336 418 385 371 385 244 C385 109 337 65 266 65 C194 65 146 110 146 244 L146 244 Z " />
<glyph glyph-name="ntilde" unicode="&#xf1;" horiz-adv-x="563" d="M77 0 L179 0 L179 294 C179 395 246 423 291 423 C366 423 386 373 386 294 L386 0 L488 0 L488 326 C488 442 437 507 325 507 C218 507 178 427 178 427 L175 496 L77 496 L77 0 Z M199 579 C199 589 200 621 228 621 C263 621 295 573 359 573 C438 573 442 661 441 698 L378 698 C378 690 378 651 349 651 C309 651 281 702 222 702 C141 702 130 617 131 579 L199 579 Z " />
<glyph glyph-name="ograve" unicode="&#xf2;" horiz-adv-x="531" d="M44 248 C44 49 139 -17 265 -17 C388 -17 487 55 487 248 C487 438 389 513 265 513 C143 513 44 431 44 248 L44 248 Z M146 248 C146 383 195 431 265 431 C335 431 385 385 385 248 C385 107 337 65 265 65 C194 65 146 108 146 248 L146 248 Z M103 704 L215 576 L317 576 L247 704 L103 704 Z " />
<glyph glyph-name="oacute" unicode="&#xf3;" horiz-adv-x="531" d="M274 704 L203 576 L306 576 L417 704 L274 704 Z M44 248 C44 49 139 -17 265 -17 C388 -17 487 55 487 248 C487 438 389 513 265 513 C143 513 44 431 44 248 L44 248 Z M146 248 C146 383 195 431 265 431 C335 431 385 385 385 248 C385 107 337 65 265 65 C194 65 146 108 146 248 L146 248 Z " />
<glyph glyph-name="ocircumflex" unicode="&#xf4;" horiz-adv-x="531" d="M197 704 L106 576 L213 576 L262 656 L312 576 L425 576 L334 704 L197 704 Z M44 248 C44 49 139 -17 265 -17 C388 -17 487 55 487 248 C487 438 389 513 265 513 C143 513 44 431 44 248 L44 248 Z M146 248 C146 383 195 431 265 431 C335 431 385 385 385 248 C385 107 337 65 265 65 C194 65 146 108 146 248 L146 248 Z " />
<glyph glyph-name="otilde" unicode="&#xf5;" horiz-adv-x="531" d="M44 248 C44 49 139 -17 265 -17 C388 -17 487 55 487 248 C487 438 389 513 265 513 C143 513 44 431 44 248 L44 248 Z M146 248 C146 383 195 431 265 431 C335 431 385 385 385 248 C385 107 337 65 265 65 C194 65 146 108 146 248 L146 248 Z M177 579 C177 589 178 621 206 621 C241 621 273 573 337 573 C416 573 420 661 419 698 L356 698 C356 690 356 651 327 651 C287 651 259 702 200 702 C119 702 108 617 109 579 L177 579 Z " />
<glyph glyph-name="odieresis" unicode="&#xf6;" horiz-adv-x="531" d="M114 586 L225 586 L225 699 L114 699 L114 586 Z M307 586 L417 586 L417 699 L307 699 L307 586 Z M44 248 C44 49 139 -17 265 -17 C388 -17 487 55 487 248 C487 438 389 513 265 513 C143 513 44 431 44 248 L44 248 Z M146 248 C146 383 195 431 265 431 C335 431 385 385 385 248 C385 107 337 65 265 65 C194 65 146 108 146 248 L146 248 Z " />
<glyph glyph-name="divide" unicode="&#xf7;" horiz-adv-x="606" d="M245 39 L365 39 L365 156 L245 156 L245 39 Z M245 361 L365 361 L365 478 L245 478 L245 361 Z M82 215 L524 215 L524 301 L82 301 L82 215 Z " />
<glyph glyph-name="oslash" unicode="&#xf8;" horiz-adv-x="531" d="M44 248 C44 158 63 96 96 54 L34 -37 L106 -37 L140 14 C175 -7 218 -17 265 -17 C388 -17 487 55 487 248 C487 336 466 399 431 442 L493 533 L421 533 L386 481 C351 503 310 513 265 513 C143 513 44 431 44 248 L44 248 Z M385 248 C385 107 337 65 265 65 C236 65 211 72 192 89 L370 353 C380 326 385 292 385 248 L385 248 Z M146 248 C146 383 195 431 265 431 C292 431 316 424 336 407 L158 146 C150 172 146 205 146 248 L146 248 Z " />
<glyph glyph-name="ugrave" unicode="&#xf9;" horiz-adv-x="552" d="M475 496 L373 496 L373 202 C373 102 312 74 267 74 C188 74 177 124 177 202 L177 496 L75 496 L75 179 C75 60 122 -10 234 -10 C339 -10 373 69 373 69 L377 0 L475 0 L475 496 Z M120 704 L232 576 L334 576 L264 704 L120 704 Z " />
<glyph glyph-name="uacute" unicode="&#xfa;" horiz-adv-x="552" d="M287 704 L216 576 L319 576 L430 704 L287 704 Z M475 496 L373 496 L373 202 C373 102 312 74 267 74 C188 74 177 124 177 202 L177 496 L75 496 L75 179 C75 60 122 -10 234 -10 C339 -10 373 69 373 69 L377 0 L475 0 L475 496 Z " />
<glyph glyph-name="ucircumflex" unicode="&#xfb;" horiz-adv-x="552" d="M207 704 L116 576 L223 576 L272 656 L322 576 L435 576 L344 704 L207 704 Z M475 496 L373 496 L373 202 C373 102 312 74 267 74 C188 74 177 124 177 202 L177 496 L75 496 L75 179 C75 60 122 -10 234 -10 C339 -10 373 69 373 69 L377 0 L475 0 L475 496 Z " />
<glyph glyph-name="udieresis" unicode="&#xfc;" horiz-adv-x="552" d="M121 586 L232 586 L232 699 L121 699 L121 586 Z M314 586 L424 586 L424 699 L314 699 L314 586 Z M475 496 L373 496 L373 202 C373 102 312 74 267 74 C188 74 177 124 177 202 L177 496 L75 496 L75 179 C75 60 122 -10 234 -10 C339 -10 373 69 373 69 L377 0 L475 0 L475 496 Z " />
<glyph glyph-name="yacute" unicode="&#xfd;" horiz-adv-x="513" d="M185 -50 C167 -100 141 -115 94 -115 L71 -115 L71 -196 C71 -196 99 -200 123 -200 C226 -200 251 -137 287 -43 L496 496 L389 496 L314 277 C284 192 261 122 261 122 C261 122 236 202 209 280 L135 496 L25 496 L210 14 L185 -50 Z M270 704 L199 576 L302 576 L413 704 L270 704 Z " />
<glyph glyph-name="thorn" unicode="&#xfe;" horiz-adv-x="566" d="M77 -196 L179 -196 L179 66 C179 66 215 -16 325 -16 C460 -16 522 101 522 256 C522 394 466 512 332 512 C222 512 180 429 180 429 L180 712 L77 712 L77 -196 Z M180 256 C180 343 212 430 305 430 C386 430 420 355 420 255 C420 101 361 64 304 64 C198 65 180 168 180 256 L180 256 Z " />
<glyph glyph-name="ydieresis" unicode="&#xff;" horiz-adv-x="513" d="M185 -50 C167 -100 141 -115 94 -115 L71 -115 L71 -196 C71 -196 99 -200 123 -200 C226 -200 251 -137 287 -43 L496 496 L389 496 L314 277 C284 192 261 122 261 122 C261 122 236 202 209 280 L135 496 L25 496 L210 14 L185 -50 Z M111 586 L222 586 L222 699 L111 699 L111 586 Z M304 586 L414 586 L414 699 L304 699 L304 586 Z " />
<glyph glyph-name="Amacron" unicode="&#x100;" horiz-adv-x="695" d="M556 0 L675 0 L393 712 L300 712 L19 0 L130 0 L194 174 L492 174 L556 0 Z M283 412 C313 494 341 575 343 579 C345 572 373 493 404 413 L460 259 L226 259 L283 412 Z M205 801 L488 801 L488 885 L205 885 L205 801 Z " />
<glyph glyph-name="amacron" unicode="&#x101;" horiz-adv-x="531" d="M349 301 C349 301 298 305 257 305 C105 305 40 249 40 146 C40 38 107 -10 210 -10 C292 -10 353 35 371 71 L372 65 C376 38 392 -6 454 -6 C479 -6 502 0 502 0 L502 75 L481 75 C454 75 446 91 446 127 L446 345 C446 454 392 513 264 513 C77 513 67 356 67 356 L162 356 C162 356 166 433 259 433 C325 433 349 406 349 341 L349 301 Z M348 198 C348 115 307 70 233 70 C173 70 142 95 142 152 C142 206 170 238 269 238 C311 238 348 234 348 234 L348 198 Z M124 599 L406 599 L406 681 L124 681 L124 599 Z " />
<glyph glyph-name="Abreve" unicode="&#x102;" horiz-adv-x="695" d="M556 0 L675 0 L393 712 L300 712 L19 0 L130 0 L194 174 L492 174 L556 0 Z M283 412 C313 494 341 575 343 579 C345 572 373 493 404 413 L460 259 L226 259 L283 412 Z M200 907 C200 883 203 776 349 776 C491 776 494 891 494 907 L399 907 C399 890 398 841 348 841 C298 841 297 890 297 907 L200 907 Z " />
<glyph glyph-name="abreve" unicode="&#x103;" horiz-adv-x="531" d="M349 301 C349 301 298 305 257 305 C105 305 40 249 40 146 C40 38 107 -10 210 -10 C292 -10 353 35 371 71 L372 65 C376 38 392 -6 454 -6 C479 -6 502 0 502 0 L502 75 L481 75 C454 75 446 91 446 127 L446 345 C446 454 392 513 264 513 C77 513 67 356 67 356 L162 356 C162 356 166 433 259 433 C325 433 349 406 349 341 L349 301 Z M348 198 C348 115 307 70 233 70 C173 70 142 95 142 152 C142 206 170 238 269 238 C311 238 348 234 348 234 L348 198 Z M118 704 C118 680 121 572 267 572 C409 572 412 687 412 704 L317 704 C317 687 316 637 266 637 C216 637 215 687 215 704 L118 704 Z " />
<glyph glyph-name="Aogonek" unicode="&#x104;" horiz-adv-x="695" d="M700 -133 C700 -133 684 -139 664 -139 C638 -139 611 -129 611 -93 C611 -57 639 -25 675 0 L393 712 L300 712 L19 0 L130 0 L194 174 L492 174 L556 0 L611 0 C560 -30 514 -63 514 -121 C514 -180 571 -202 619 -202 C658 -202 690 -190 700 -182 L700 -133 Z M283 412 C313 494 341 575 343 579 C345 572 373 493 404 413 L460 259 L226 259 L283 412 Z " />
<glyph glyph-name="aogonek" unicode="&#x105;" horiz-adv-x="531" d="M527 -133 C527 -133 511 -139 491 -139 C465 -139 438 -129 438 -93 C438 -57 466 -25 502 0 L502 75 L481 75 C454 75 446 91 446 127 L446 345 C446 454 392 513 264 513 C77 513 67 356 67 356 L162 356 C162 356 166 433 259 433 C325 433 349 406 349 341 L349 301 C349 301 298 305 257 305 C105 305 40 249 40 146 C40 38 107 -10 210 -10 C292 -10 353 35 371 71 L372 65 C375 41 388 6 431 -3 C383 -32 341 -65 341 -121 C341 -180 398 -202 446 -202 C485 -202 517 -190 527 -182 L527 -133 Z M348 198 C348 115 307 70 233 70 C173 70 142 95 142 152 C142 206 170 238 269 238 C311 238 348 234 348 234 L348 198 Z " />
<glyph glyph-name="Cacute" unicode="&#x106;" horiz-adv-x="677" d="M356 907 L284 778 L389 778 L502 907 L356 907 Z M529 250 C526 218 516 73 354 73 C183 73 160 227 160 358 C160 579 250 640 350 640 C502 640 518 498 519 474 L629 474 C629 513 596 730 351 730 C158 730 51 587 51 355 C51 130 128 -17 355 -17 C605 -17 637 199 638 250 L529 250 Z " />
<glyph glyph-name="cacute" unicode="&#x107;" horiz-adv-x="494" d="M271 704 L200 576 L303 576 L414 704 L271 704 Z M368 174 C366 130 348 65 266 65 C161 65 146 156 146 248 C146 340 166 431 258 431 C345 431 358 354 360 327 L457 327 C457 353 443 513 258 513 C96 513 44 377 44 248 C44 77 114 -17 265 -17 C443 -17 462 131 462 174 L368 174 Z " />
<glyph glyph-name="Ccircumflex" unicode="&#x108;" horiz-adv-x="677" d="M283 907 L192 778 L301 778 L350 857 L398 778 L513 778 L422 907 L283 907 Z M529 250 C526 218 516 73 354 73 C183 73 160 227 160 358 C160 579 250 640 350 640 C502 640 518 498 519 474 L629 474 C629 513 596 730 351 730 C158 730 51 587 51 355 C51 130 128 -17 355 -17 C605 -17 637 199 638 250 L529 250 Z " />
<glyph glyph-name="ccircumflex" unicode="&#x109;" horiz-adv-x="494" d="M193 704 L102 576 L209 576 L258 656 L308 576 L421 576 L330 704 L193 704 Z M368 174 C366 130 348 65 266 65 C161 65 146 156 146 248 C146 340 166 431 258 431 C345 431 358 354 360 327 L457 327 C457 353 443 513 258 513 C96 513 44 377 44 248 C44 77 114 -17 265 -17 C443 -17 462 131 462 174 L368 174 Z " />
<glyph glyph-name="Cdotaccent" unicode="&#x10a;" horiz-adv-x="677" d="M529 250 C526 218 516 73 354 73 C183 73 160 227 160 358 C160 579 250 640 350 640 C502 640 518 498 519 474 L629 474 C629 513 596 730 351 730 C158 730 51 587 51 355 C51 130 128 -17 355 -17 C605 -17 637 199 638 250 L529 250 Z M285 792 L402 792 L402 909 L285 909 L285 792 Z " />
<glyph glyph-name="cdotaccent" unicode="&#x10b;" horiz-adv-x="494" d="M368 174 C366 130 348 65 266 65 C161 65 146 156 146 248 C146 340 166 431 258 431 C345 431 358 354 360 327 L457 327 C457 353 443 513 258 513 C96 513 44 377 44 248 C44 77 114 -17 265 -17 C443 -17 462 131 462 174 L368 174 Z M195 589 L311 589 L311 705 L195 705 L195 589 Z " />
<glyph glyph-name="Ccaron" unicode="&#x10c;" horiz-adv-x="677" d="M416 778 L507 906 L395 906 L347 828 L298 906 L186 906 L277 778 L416 778 Z M529 250 C526 218 516 73 354 73 C183 73 160 227 160 358 C160 579 250 640 350 640 C502 640 518 498 519 474 L629 474 C629 513 596 730 351 730 C158 730 51 587 51 355 C51 130 128 -17 355 -17 C605 -17 637 199 638 250 L529 250 Z " />
<glyph glyph-name="ccaron" unicode="&#x10d;" horiz-adv-x="494" d="M321 576 L412 704 L300 704 L251 623 L202 704 L93 704 L184 576 L321 576 Z M368 174 C366 130 348 65 266 65 C161 65 146 156 146 248 C146 340 166 431 258 431 C345 431 358 354 360 327 L457 327 C457 353 443 513 258 513 C96 513 44 377 44 248 C44 77 114 -17 265 -17 C443 -17 462 131 462 174 L368 174 Z " />
<glyph glyph-name="Dcaron" unicode="&#x10e;" horiz-adv-x="703" d="M372 778 L463 906 L351 906 L303 828 L254 906 L142 906 L233 778 L372 778 Z M90 0 L274 0 C552 0 651 144 651 371 C651 585 552 712 270 712 L90 712 L90 0 Z M196 90 L196 622 L280 622 C482 622 542 524 542 370 C542 169 457 90 276 90 L196 90 Z " />
<glyph glyph-name="dcaron" unicode="&#x10f;" horiz-adv-x="667" d="M543 605 L599 605 C600 585 589 559 546 553 L546 482 C640 496 668 542 668 635 L668 712 L543 712 L543 605 Z M488 712 L386 712 L386 435 C386 435 351 513 247 513 C115 513 44 406 44 249 C44 101 96 -10 242 -10 C350 -10 386 73 386 73 L389 0 L488 0 L488 712 Z M386 259 C386 171 364 71 264 71 C205 71 146 101 146 248 C146 340 175 431 264 431 C355 431 386 346 386 259 L386 259 Z " />
<glyph glyph-name="Dcroat" unicode="&#x110;" horiz-adv-x="709" d="M10 323 L96 323 L96 0 L280 0 C558 0 657 144 657 371 C657 585 558 712 276 712 L96 712 L96 407 L10 407 L10 323 Z M202 90 L202 323 L367 323 L367 407 L202 407 L202 622 L286 622 C488 622 548 524 548 370 C548 169 463 90 282 90 L202 90 Z " />
<glyph glyph-name="dcroat" unicode="&#x111;" horiz-adv-x="565" d="M488 712 L386 712 L386 652 L168 652 L168 585 L386 585 L386 435 C386 435 351 513 247 513 C115 513 44 406 44 249 C44 101 96 -10 242 -10 C350 -10 386 73 386 73 L389 0 L488 0 L488 585 L571 585 L571 652 L488 652 L488 712 Z M386 259 C386 171 364 71 264 71 C205 71 146 101 146 248 C146 340 175 431 264 431 C355 431 386 346 386 259 L386 259 Z " />
<glyph glyph-name="Emacron" unicode="&#x112;" horiz-adv-x="594" d="M90 0 L534 0 L534 90 L196 90 L196 320 L496 320 L496 410 L196 410 L196 622 L530 622 L530 712 L90 712 L90 0 Z M170 801 L453 801 L453 885 L170 885 L170 801 Z " />
<glyph glyph-name="emacron" unicode="&#x113;" horiz-adv-x="520" d="M479 220 C493 372 437 513 268 513 C106 513 44 388 44 242 C44 69 121 -17 273 -17 C448 -17 473 122 474 150 L381 150 C379 137 367 65 274 65 C166 65 146 158 146 220 L479 220 Z M148 295 C154 373 186 431 267 431 C344 431 380 372 380 295 L148 295 Z M123 599 L405 599 L405 681 L123 681 L123 599 Z " />
<glyph glyph-name="Ebreve" unicode="&#x114;" horiz-adv-x="594" d="M90 0 L534 0 L534 90 L196 90 L196 320 L496 320 L496 410 L196 410 L196 622 L530 622 L530 712 L90 712 L90 0 Z M165 907 C165 883 168 776 314 776 C456 776 459 891 459 907 L364 907 C364 890 363 841 313 841 C263 841 262 890 262 907 L165 907 Z " />
<glyph glyph-name="ebreve" unicode="&#x115;" horiz-adv-x="520" d="M479 220 C493 372 437 513 268 513 C106 513 44 388 44 242 C44 69 121 -17 273 -17 C448 -17 473 122 474 150 L381 150 C379 137 367 65 274 65 C166 65 146 158 146 220 L479 220 Z M148 295 C154 373 186 431 267 431 C344 431 380 372 380 295 L148 295 Z M117 704 C117 680 120 572 266 572 C408 572 411 687 411 704 L316 704 C316 687 315 637 265 637 C215 637 214 687 214 704 L117 704 Z " />
<glyph glyph-name="Edotaccent" unicode="&#x116;" horiz-adv-x="594" d="M90 0 L534 0 L534 90 L196 90 L196 320 L496 320 L496 410 L196 410 L196 622 L530 622 L530 712 L90 712 L90 0 Z M260 792 L377 792 L377 909 L260 909 L260 792 Z " />
<glyph glyph-name="edotaccent" unicode="&#x117;" horiz-adv-x="520" d="M479 220 C493 372 437 513 268 513 C106 513 44 388 44 242 C44 69 121 -17 273 -17 C448 -17 473 122 474 150 L381 150 C379 137 367 65 274 65 C166 65 146 158 146 220 L479 220 Z M148 295 C154 373 186 431 267 431 C344 431 380 372 380 295 L148 295 Z M207 589 L323 589 L323 705 L207 705 L207 589 Z " />
<glyph glyph-name="Eogonek" unicode="&#x118;" horiz-adv-x="594" d="M90 0 L470 0 C419 -30 373 -63 373 -121 C373 -180 430 -202 478 -202 C517 -202 549 -190 559 -182 L559 -133 C559 -133 543 -139 523 -139 C497 -139 470 -129 470 -93 C470 -57 498 -25 534 0 L534 90 L196 90 L196 320 L496 320 L496 410 L196 410 L196 622 L530 622 L530 712 L90 712 L90 0 Z " />
<glyph glyph-name="eogonek" unicode="&#x119;" horiz-adv-x="520" d="M479 220 C493 372 437 513 268 513 C106 513 44 388 44 242 C44 69 121 -17 273 -17 L274 -17 C235 -43 205 -74 205 -121 C205 -180 262 -202 310 -202 C349 -202 381 -190 391 -182 L391 -133 C391 -133 375 -139 355 -139 C329 -139 302 -129 302 -93 C302 -57 329 -26 365 -1 C457 36 473 128 474 150 L381 150 C379 137 367 65 274 65 C166 65 146 158 146 220 L479 220 Z M148 295 C154 373 186 431 267 431 C344 431 380 372 380 295 L148 295 Z " />
<glyph glyph-name="Ecaron" unicode="&#x11a;" horiz-adv-x="594" d="M382 778 L473 906 L361 906 L313 828 L264 906 L152 906 L243 778 L382 778 Z M90 0 L534 0 L534 90 L196 90 L196 320 L496 320 L496 410 L196 410 L196 622 L530 622 L530 712 L90 712 L90 0 Z " />
<glyph glyph-name="ecaron" unicode="&#x11b;" horiz-adv-x="520" d="M331 576 L422 704 L310 704 L261 623 L212 704 L103 704 L194 576 L331 576 Z M479 220 C493 372 437 513 268 513 C106 513 44 388 44 242 C44 69 121 -17 273 -17 C448 -17 473 122 474 150 L381 150 C379 137 367 65 274 65 C166 65 146 158 146 220 L479 220 Z M148 295 C154 373 186 431 267 431 C344 431 380 372 380 295 L148 295 Z " />
<glyph glyph-name="Gcircumflex" unicode="&#x11c;" horiz-adv-x="698" d="M279 907 L188 778 L297 778 L346 857 L394 778 L509 778 L418 907 L279 907 Z M542 0 L632 0 L632 382 L368 382 L368 293 L534 293 L534 288 C534 175 482 81 356 81 C194 81 160 218 160 357 C160 527 220 640 354 640 C496 640 514 508 514 508 L622 508 C622 508 599 730 356 730 C137 730 51 551 51 355 C51 76 184 -10 339 -10 C494 -10 539 99 539 99 L542 0 Z " />
<glyph glyph-name="gcircumflex" unicode="&#x11d;" horiz-adv-x="565" d="M214 704 L123 576 L230 576 L279 656 L329 576 L442 576 L351 704 L214 704 Z M488 496 L387 496 L386 435 C386 435 350 507 247 507 C102 507 44 382 44 251 C44 116 101 7 242 7 C351 7 386 83 386 83 L386 18 C386 -104 341 -132 272 -132 C165 -132 161 -47 161 -47 L65 -47 C65 -47 60 -214 272 -214 C427 -214 488 -124 488 12 L488 496 Z M386 266 C386 169 358 87 264 87 C208 87 146 118 146 253 C146 357 182 425 264 425 C352 425 386 350 386 266 L386 266 Z " />
<glyph glyph-name="Gbreve" unicode="&#x11e;" horiz-adv-x="698" d="M542 0 L632 0 L632 382 L368 382 L368 293 L534 293 L534 288 C534 175 482 81 356 81 C194 81 160 218 160 357 C160 527 220 640 354 640 C496 640 514 508 514 508 L622 508 C622 508 599 730 356 730 C137 730 51 551 51 355 C51 76 184 -10 339 -10 C494 -10 539 99 539 99 L542 0 Z M201 907 C201 883 204 776 350 776 C492 776 495 891 495 907 L400 907 C400 890 399 841 349 841 C299 841 298 890 298 907 L201 907 Z " />
<glyph glyph-name="gbreve" unicode="&#x11f;" horiz-adv-x="565" d="M488 496 L387 496 L386 435 C386 435 350 507 247 507 C102 507 44 382 44 251 C44 116 101 7 242 7 C351 7 386 83 386 83 L386 18 C386 -104 341 -132 272 -132 C165 -132 161 -47 161 -47 L65 -47 C65 -47 60 -214 272 -214 C427 -214 488 -124 488 12 L488 496 Z M386 266 C386 169 358 87 264 87 C208 87 146 118 146 253 C146 357 182 425 264 425 C352 425 386 350 386 266 L386 266 Z M125 704 C125 680 128 572 274 572 C416 572 419 687 419 704 L324 704 C324 687 323 637 273 637 C223 637 222 687 222 704 L125 704 Z " />
<glyph glyph-name="Gdotaccent" unicode="&#x120;" horiz-adv-x="698" d="M542 0 L632 0 L632 382 L368 382 L368 293 L534 293 L534 288 C534 175 482 81 356 81 C194 81 160 218 160 357 C160 527 220 640 354 640 C496 640 514 508 514 508 L622 508 C622 508 599 730 356 730 C137 730 51 551 51 355 C51 76 184 -10 339 -10 C494 -10 539 99 539 99 L542 0 Z M290 792 L407 792 L407 909 L290 909 L290 792 Z " />
<glyph glyph-name="gdotaccent" unicode="&#x121;" horiz-adv-x="565" d="M488 496 L387 496 L386 435 C386 435 350 507 247 507 C102 507 44 382 44 251 C44 116 101 7 242 7 C351 7 386 83 386 83 L386 18 C386 -104 341 -132 272 -132 C165 -132 161 -47 161 -47 L65 -47 C65 -47 60 -214 272 -214 C427 -214 488 -124 488 12 L488 496 Z M386 266 C386 169 358 87 264 87 C208 87 146 118 146 253 C146 357 182 425 264 425 C352 425 386 350 386 266 L386 266 Z M217 589 L333 589 L333 705 L217 705 L217 589 Z " />
<glyph glyph-name="Gcommaaccent" unicode="&#x122;" horiz-adv-x="698" d="M282 -160 L338 -160 C339 -180 328 -205 285 -212 L285 -283 C379 -269 407 -222 407 -130 L407 -53 L282 -53 L282 -160 Z M542 0 L632 0 L632 382 L368 382 L368 293 L534 293 L534 288 C534 175 482 81 356 81 C194 81 160 218 160 357 C160 527 220 640 354 640 C496 640 514 508 514 508 L622 508 C622 508 599 730 356 730 C137 730 51 551 51 355 C51 76 184 -10 339 -10 C494 -10 539 99 539 99 L542 0 Z " />
<glyph glyph-name="gcommaaccent" unicode="&#x123;" horiz-adv-x="565" d="M334 688 L278 688 C277 708 288 733 331 740 L331 811 C237 797 209 750 209 658 L209 581 L334 581 L334 688 Z M488 496 L387 496 L386 435 C386 435 350 507 247 507 C102 507 44 382 44 251 C44 116 101 7 242 7 C351 7 386 83 386 83 L386 18 C386 -104 341 -132 272 -132 C165 -132 161 -47 161 -47 L65 -47 C65 -47 60 -214 272 -214 C427 -214 488 -124 488 12 L488 496 Z M386 266 C386 169 358 87 264 87 C208 87 146 118 146 253 C146 357 182 425 264 425 C352 425 386 350 386 266 L386 266 Z " />
<glyph glyph-name="Hcircumflex" unicode="&#x124;" horiz-adv-x="730" d="M295 907 L204 778 L313 778 L362 857 L410 778 L525 778 L434 907 L295 907 Z M90 0 L196 0 L196 320 L535 320 L535 0 L641 0 L641 712 L535 712 L535 410 L196 410 L196 712 L90 712 L90 0 Z " />
<glyph glyph-name="hcircumflex" unicode="&#x125;" horiz-adv-x="563" d="M58 881 L-33 753 L74 753 L123 833 L173 753 L286 753 L195 881 L58 881 Z M77 0 L179 0 L179 296 C179 397 246 425 291 425 C367 425 386 375 386 296 L386 0 L488 0 L488 328 C488 444 437 509 325 509 C218 509 179 429 179 429 L179 712 L77 712 L77 0 Z " />
<glyph glyph-name="Hbar" unicode="&#x126;" horiz-adv-x="730" d="M-8 533 L90 533 L90 0 L196 0 L196 320 L535 320 L535 0 L641 0 L641 533 L739 533 L739 607 L641 607 L641 712 L535 712 L535 607 L196 607 L196 712 L90 712 L90 607 L-8 607 L-8 533 Z M196 410 L196 533 L535 533 L535 410 L196 410 Z " />
<glyph glyph-name="hbar" unicode="&#x127;" horiz-adv-x="563" d="M-5 585 L77 585 L77 0 L179 0 L179 296 C179 397 246 425 291 425 C367 425 386 375 386 296 L386 0 L488 0 L488 328 C488 444 437 509 325 509 C218 509 179 429 179 429 L179 585 L398 585 L398 652 L179 652 L179 712 L77 712 L77 652 L-5 652 L-5 585 Z " />
<glyph glyph-name="Itilde" unicode="&#x128;" horiz-adv-x="286" d="M90 0 L196 0 L196 712 L90 712 L90 0 Z M55 782 C55 792 56 824 84 824 C119 824 151 776 215 776 C294 776 298 864 297 901 L232 901 C232 893 232 854 203 854 C163 854 137 905 78 905 C-3 905 -14 820 -13 782 L55 782 Z " />
<glyph glyph-name="itilde" unicode="&#x129;" horiz-adv-x="256" d="M77 0 L179 0 L179 496 L77 496 L77 0 Z M40 579 C40 589 41 621 69 621 C104 621 136 573 200 573 C279 573 283 661 282 698 L219 698 C219 690 219 651 190 651 C150 651 122 702 63 702 C-18 702 -29 617 -28 579 L40 579 Z " />
<glyph glyph-name="Imacron" unicode="&#x12a;" horiz-adv-x="286" d="M90 0 L196 0 L196 712 L90 712 L90 0 Z M0 801 L283 801 L283 885 L0 885 L0 801 Z " />
<glyph glyph-name="imacron" unicode="&#x12b;" horiz-adv-x="256" d="M77 0 L179 0 L179 496 L77 496 L77 0 Z M-13 599 L269 599 L269 681 L-13 681 L-13 599 Z " />
<glyph glyph-name="Ibreve" unicode="&#x12c;" horiz-adv-x="286" d="M90 0 L196 0 L196 712 L90 712 L90 0 Z M-4 907 C-4 883 -1 776 145 776 C287 776 290 891 290 907 L195 907 C195 890 194 841 144 841 C94 841 93 890 93 907 L-4 907 Z " />
<glyph glyph-name="ibreve" unicode="&#x12d;" horiz-adv-x="256" d="M77 0 L179 0 L179 496 L77 496 L77 0 Z M-19 704 C-19 680 -16 572 130 572 C272 572 275 687 275 704 L180 704 C180 687 179 637 129 637 C79 637 78 687 78 704 L-19 704 Z " />
<glyph glyph-name="Iogonek" unicode="&#x12e;" horiz-adv-x="286" d="M90 0 L132 0 C81 -30 35 -63 35 -121 C35 -180 92 -202 140 -202 C179 -202 211 -190 221 -182 L221 -133 C221 -133 205 -139 185 -139 C159 -139 132 -129 132 -93 C132 -57 160 -25 196 0 L196 712 L90 712 L90 0 Z " />
<glyph glyph-name="iogonek" unicode="&#x12f;" horiz-adv-x="256" d="M77 0 L115 0 C64 -30 18 -63 18 -121 C18 -180 75 -202 123 -202 C162 -202 194 -190 204 -182 L204 -133 C204 -133 188 -139 168 -139 C142 -139 115 -129 115 -93 C115 -57 143 -25 179 0 L179 496 L77 496 L77 0 Z M70 604 L186 604 L186 719 L70 719 L70 604 Z " />
<glyph glyph-name="Idotaccent" unicode="&#x130;" horiz-adv-x="286" d="M90 0 L196 0 L196 712 L90 712 L90 0 Z M84 792 L201 792 L201 909 L84 909 L84 792 Z " />
<glyph glyph-name="dotlessi" unicode="&#x131;" horiz-adv-x="256" d="M77 0 L179 0 L179 496 L77 496 L77 0 Z " />
<glyph glyph-name="IJ" unicode="&#x132;" horiz-adv-x="805" d="M90 0 L196 0 L196 712 L90 712 L90 0 Z M317 227 C313 94 352 -17 515 -17 C682 -17 719 92 719 229 L719 712 L613 712 L613 244 C613 139 602 73 520 73 C426 73 419 149 417 227 L317 227 Z " />
<glyph glyph-name="ij" unicode="&#x133;" horiz-adv-x="513" d="M70 604 L186 604 L186 719 L70 719 L70 604 Z M77 0 L179 0 L179 496 L77 496 L77 0 Z M241 -196 C241 -196 267 -200 298 -200 C430 -200 436 -111 436 -7 L436 496 L333 496 L333 -22 C333 -88 332 -112 258 -112 L241 -112 L241 -196 Z M327 604 L443 604 L443 719 L327 719 L327 604 Z " />
<glyph glyph-name="Jcircumflex" unicode="&#x134;" horiz-adv-x="520" d="M307 907 L216 778 L325 778 L374 857 L422 778 L537 778 L446 907 L307 907 Z M32 227 C28 94 67 -17 230 -17 C397 -17 434 92 434 229 L434 712 L328 712 L328 244 C328 139 317 73 235 73 C141 73 134 149 132 227 L32 227 Z " />
<glyph glyph-name="jcircumflex" unicode="&#x135;" horiz-adv-x="257" d="M-14 -196 C-14 -196 12 -200 43 -200 C175 -200 181 -111 181 -7 L181 496 L79 496 L79 -22 C79 -88 77 -112 3 -112 L-14 -112 L-14 -196 Z M61 704 L-30 576 L77 576 L126 656 L176 576 L289 576 L198 704 L61 704 Z " />
<glyph glyph-name="Kcommaaccent" unicode="&#x136;" horiz-adv-x="659" d="M287 -160 L343 -160 C344 -180 333 -205 290 -212 L290 -283 C384 -269 412 -222 412 -130 L412 -53 L287 -53 L287 -160 Z M509 0 L642 0 L346 413 L603 712 L478 712 L196 378 L196 712 L90 712 L90 0 L196 0 L196 242 L274 336 L509 0 Z " />
<glyph glyph-name="kcommaaccent" unicode="&#x137;" horiz-adv-x="520" d="M213 -160 L269 -160 C270 -180 259 -205 216 -212 L216 -283 C310 -269 338 -222 338 -130 L338 -53 L213 -53 L213 -160 Z M385 0 L505 0 L312 318 L483 496 L361 496 L179 304 L179 712 L77 712 L77 0 L179 0 L179 186 L241 251 L385 0 Z " />
<glyph glyph-name="kgreenlandic" unicode="&#x138;" horiz-adv-x="520" d="M483 496 L361 496 L179 291 L179 496 L77 496 L77 0 L179 0 L179 173 L245 243 L385 0 L505 0 L313 315 L483 496 Z " />
<glyph glyph-name="Lacute" unicode="&#x139;" horiz-adv-x="518" d="M169 907 L97 778 L202 778 L315 907 L169 907 Z M90 0 L488 0 L488 90 L196 90 L196 712 L90 712 L90 0 Z " />
<glyph glyph-name="lacute" unicode="&#x13a;" horiz-adv-x="256" d="M149 890 L78 762 L181 762 L292 890 L149 890 Z M77 0 L179 0 L179 712 L77 712 L77 0 Z " />
<glyph glyph-name="Lcommaaccent" unicode="&#x13b;" horiz-adv-x="518" d="M226 -160 L282 -160 C283 -180 272 -205 229 -212 L229 -283 C323 -269 351 -222 351 -130 L351 -53 L226 -53 L226 -160 Z M90 0 L488 0 L488 90 L196 90 L196 712 L90 712 L90 0 Z " />
<glyph glyph-name="lcommaaccent" unicode="&#x13c;" horiz-adv-x="256" d="M64 -160 L120 -160 C121 -180 110 -205 67 -212 L67 -283 C161 -269 189 -222 189 -130 L189 -53 L64 -53 L64 -160 Z M77 0 L179 0 L179 712 L77 712 L77 0 Z " />
<glyph glyph-name="Lcaron" unicode="&#x13d;" horiz-adv-x="518" d="M260 605 L316 605 C317 585 306 559 263 553 L263 482 C357 496 385 542 385 635 L385 712 L260 712 L260 605 Z M90 0 L488 0 L488 90 L196 90 L196 712 L90 712 L90 0 Z " />
<glyph glyph-name="lcaron" unicode="&#x13e;" horiz-adv-x="361" d="M237 605 L293 605 C294 585 283 559 240 553 L240 482 C334 496 362 542 362 635 L362 712 L237 712 L237 605 Z M79 0 L181 0 L181 712 L79 712 L79 0 Z " />
<glyph glyph-name="Ldot" unicode="&#x13f;" horiz-adv-x="518" d="M90 0 L488 0 L488 90 L196 90 L196 712 L90 712 L90 0 Z M341 327 L469 327 L469 448 L341 448 L341 327 Z " />
<glyph glyph-name="ldot" unicode="&#x140;" horiz-adv-x="417" d="M77 0 L179 0 L179 712 L77 712 L77 0 Z M275 310 L403 310 L403 431 L275 431 L275 310 Z " />
<glyph glyph-name="Lslash" unicode="&#x141;" horiz-adv-x="518" d="M90 0 L488 0 L488 90 L196 90 L196 311 L359 441 L359 547 L196 417 L196 712 L90 712 L90 348 L6 282 L6 176 L90 242 L90 0 Z " />
<glyph glyph-name="lslash" unicode="&#x142;" horiz-adv-x="256" d="M77 0 L179 0 L179 332 L254 391 L254 497 L179 438 L179 712 L77 712 L77 369 L4 312 L4 207 L77 264 L77 0 Z " />
<glyph glyph-name="Nacute" unicode="&#x143;" horiz-adv-x="731" d="M383 907 L311 778 L416 778 L529 907 L383 907 Z M90 0 L193 0 L193 341 C193 471 190 556 190 556 C190 556 235 474 297 375 L532 0 L642 0 L642 712 L538 712 L538 380 C538 256 541 162 541 162 C541 162 492 250 436 339 L203 712 L90 712 L90 0 Z " />
<glyph glyph-name="nacute" unicode="&#x144;" horiz-adv-x="563" d="M290 704 L219 576 L322 576 L433 704 L290 704 Z M77 0 L179 0 L179 294 C179 395 246 423 291 423 C366 423 386 373 386 294 L386 0 L488 0 L488 326 C488 442 437 507 325 507 C218 507 178 427 178 427 L175 496 L77 496 L77 0 Z " />
<glyph glyph-name="Ncommaaccent" unicode="&#x145;" horiz-adv-x="731" d="M303 -160 L359 -160 C360 -180 349 -205 306 -212 L306 -283 C400 -269 428 -222 428 -130 L428 -53 L303 -53 L303 -160 Z M90 0 L193 0 L193 341 C193 471 190 556 190 556 C190 556 235 474 297 375 L532 0 L642 0 L642 712 L538 712 L538 380 C538 256 541 162 541 162 C541 162 492 250 436 339 L203 712 L90 712 L90 0 Z " />
<glyph glyph-name="ncommaaccent" unicode="&#x146;" horiz-adv-x="563" d="M218 -160 L274 -160 C275 -180 264 -205 221 -212 L221 -283 C315 -269 343 -222 343 -130 L343 -53 L218 -53 L218 -160 Z M77 0 L179 0 L179 294 C179 395 246 423 291 423 C366 423 386 373 386 294 L386 0 L488 0 L488 326 C488 442 437 507 325 507 C218 507 178 427 178 427 L175 496 L77 496 L77 0 Z " />
<glyph glyph-name="Ncaron" unicode="&#x147;" horiz-adv-x="731" d="M435 778 L526 906 L414 906 L366 828 L317 906 L205 906 L296 778 L435 778 Z M90 0 L193 0 L193 341 C193 471 190 556 190 556 C190 556 235 474 297 375 L532 0 L642 0 L642 712 L538 712 L538 380 C538 256 541 162 541 162 C541 162 492 250 436 339 L203 712 L90 712 L90 0 Z " />
<glyph glyph-name="ncaron" unicode="&#x148;" horiz-adv-x="563" d="M354 576 L445 704 L333 704 L284 623 L235 704 L126 704 L217 576 L354 576 Z M77 0 L179 0 L179 294 C179 395 246 423 291 423 C366 423 386 373 386 294 L386 0 L488 0 L488 326 C488 442 437 507 325 507 C218 507 178 427 178 427 L175 496 L77 496 L77 0 Z " />
<glyph glyph-name="napostrophe" unicode="&#x149;" horiz-adv-x="581" d="M7 633 L63 633 C64 613 53 587 10 581 L10 510 C104 524 132 570 132 663 L132 740 L7 740 L7 633 Z M95 0 L197 0 L197 294 C197 395 264 423 309 423 C384 423 404 373 404 294 L404 0 L506 0 L506 326 C506 442 455 507 343 507 C236 507 196 427 196 427 L193 496 L95 496 L95 0 Z " />
<glyph glyph-name="Eng" unicode="&#x14a;" horiz-adv-x="731" d="M90 0 L193 0 L193 341 C193 471 191 552 191 552 C191 552 235 477 306 374 L538 36 L538 -10 C538 -88 525 -130 462 -130 C404 -130 379 -96 378 -50 L281 -50 C281 -140 332 -214 459 -214 C613 -214 642 -122 642 13 L642 712 L538 712 L538 380 C538 256 541 203 541 203 C541 203 487 289 425 381 L203 712 L90 712 L90 0 Z " />
<glyph glyph-name="eng" unicode="&#x14b;" horiz-adv-x="563" d="M294 -196 C294 -196 320 -200 350 -200 C477 -200 488 -117 488 -19 L488 326 C488 442 437 507 325 507 C218 507 178 427 178 427 L175 496 L77 496 L77 0 L179 0 L179 294 C179 395 246 423 291 423 C366 423 386 373 386 294 L386 -22 C386 -88 384 -112 310 -112 L294 -112 L294 -196 Z " />
<glyph glyph-name="Omacron" unicode="&#x14c;" horiz-adv-x="727" d="M221 801 L504 801 L504 885 L221 885 L221 801 Z M51 357 C51 81 191 -17 363 -17 C536 -17 676 90 676 357 C676 611 543 730 363 730 C191 730 51 611 51 357 L51 357 Z M160 357 C160 557 245 640 363 640 C481 640 567 557 567 357 C567 147 482 73 363 73 C249 73 160 147 160 357 L160 357 Z " />
<glyph glyph-name="omacron" unicode="&#x14d;" horiz-adv-x="531" d="M124 599 L406 599 L406 681 L124 681 L124 599 Z M44 248 C44 49 139 -17 265 -17 C388 -17 487 55 487 248 C487 438 389 513 265 513 C143 513 44 431 44 248 L44 248 Z M146 248 C146 383 195 431 265 431 C335 431 385 385 385 248 C385 107 337 65 265 65 C194 65 146 108 146 248 L146 248 Z " />
<glyph glyph-name="Obreve" unicode="&#x14e;" horiz-adv-x="727" d="M51 357 C51 81 191 -17 363 -17 C536 -17 676 90 676 357 C676 611 543 730 363 730 C191 730 51 611 51 357 L51 357 Z M160 357 C160 557 245 640 363 640 C481 640 567 557 567 357 C567 147 482 73 363 73 C249 73 160 147 160 357 L160 357 Z M216 907 C216 883 219 776 365 776 C507 776 510 891 510 907 L415 907 C415 890 414 841 364 841 C314 841 313 890 313 907 L216 907 Z " />
<glyph glyph-name="obreve" unicode="&#x14f;" horiz-adv-x="531" d="M44 248 C44 49 139 -17 265 -17 C388 -17 487 55 487 248 C487 438 389 513 265 513 C143 513 44 431 44 248 L44 248 Z M146 248 C146 383 195 431 265 431 C335 431 385 385 385 248 C385 107 337 65 265 65 C194 65 146 108 146 248 L146 248 Z M118 704 C118 680 121 572 267 572 C409 572 412 687 412 704 L317 704 C317 687 316 637 266 637 C216 637 215 687 215 704 L118 704 Z " />
<glyph glyph-name="Ohungarumlaut" unicode="&#x150;" horiz-adv-x="727" d="M286 907 L214 778 L312 778 L425 907 L286 907 Z M477 907 L405 778 L502 778 L615 907 L477 907 Z M51 357 C51 81 191 -17 363 -17 C536 -17 676 90 676 357 C676 611 543 730 363 730 C191 730 51 611 51 357 L51 357 Z M160 357 C160 557 245 640 363 640 C481 640 567 557 567 357 C567 147 482 73 363 73 C249 73 160 147 160 357 L160 357 Z " />
<glyph glyph-name="ohungarumlaut" unicode="&#x151;" horiz-adv-x="531" d="M196 704 L125 576 L221 576 L333 704 L196 704 Z M386 704 L316 576 L412 576 L523 704 L386 704 Z M44 248 C44 49 139 -17 265 -17 C388 -17 487 55 487 248 C487 438 389 513 265 513 C143 513 44 431 44 248 L44 248 Z M146 248 C146 383 195 431 265 431 C335 431 385 385 385 248 C385 107 337 65 265 65 C194 65 146 108 146 248 L146 248 Z " />
<glyph glyph-name="OE" unicode="&#x152;" horiz-adv-x="987" d="M927 0 L927 90 L625 90 L625 322 L888 322 L888 412 L625 412 L625 622 L923 622 L923 712 L518 712 L518 711 C518 711 457 730 378 730 C202 730 51 623 51 354 C51 64 193 -17 379 -17 C463 -17 518 1 518 1 L518 0 L927 0 Z M160 359 C160 568 261 639 385 639 C460 639 518 619 518 619 L518 93 C518 93 474 74 391 74 C244 74 160 142 160 359 L160 359 Z " />
<glyph glyph-name="oe" unicode="&#x153;" horiz-adv-x="828" d="M44 251 C44 61 131 -17 255 -17 C376 -17 417 86 417 86 C417 86 455 -17 595 -17 C769 -17 782 143 782 143 L689 143 C689 143 679 65 596 65 C493 65 472 159 472 221 L788 221 C798 370 752 513 588 513 C466 513 421 410 421 410 C421 410 388 513 256 513 C134 513 44 422 44 251 L44 251 Z M146 251 C146 379 192 431 257 431 C322 431 369 377 369 251 C369 119 324 65 257 65 C191 65 146 119 146 251 L146 251 Z M473 293 C476 371 510 431 584 431 C656 431 688 373 689 293 L473 293 Z " />
<glyph glyph-name="Racute" unicode="&#x154;" horiz-adv-x="633" d="M315 907 L243 778 L348 778 L461 907 L315 907 Z M90 0 L196 0 L196 294 L309 294 L456 0 L578 0 L416 306 C511 327 576 392 576 515 C576 677 453 712 320 712 L90 712 L90 0 Z M196 384 L196 622 L287 622 C408 622 467 612 467 512 C467 402 398 384 320 384 L196 384 Z " />
<glyph glyph-name="racute" unicode="&#x155;" horiz-adv-x="360" d="M207 704 L136 576 L239 576 L350 704 L207 704 Z M77 0 L179 0 L179 284 C179 364 215 417 307 417 C318 417 332 415 332 415 L332 504 C332 504 315 507 299 507 C252 507 201 481 176 423 L171 496 L77 496 L77 0 Z " />
<glyph glyph-name="Rcommaaccent" unicode="&#x156;" horiz-adv-x="633" d="M257 -160 L313 -160 C314 -180 303 -205 260 -212 L260 -283 C354 -269 382 -222 382 -130 L382 -53 L257 -53 L257 -160 Z M90 0 L196 0 L196 294 L309 294 L456 0 L578 0 L416 306 C511 327 576 392 576 515 C576 677 453 712 320 712 L90 712 L90 0 Z M196 384 L196 622 L287 622 C408 622 467 612 467 512 C467 402 398 384 320 384 L196 384 Z " />
<glyph glyph-name="rcommaaccent" unicode="&#x157;" horiz-adv-x="360" d="M65 -160 L121 -160 C122 -180 111 -205 68 -212 L68 -283 C162 -269 190 -222 190 -130 L190 -53 L65 -53 L65 -160 Z M77 0 L179 0 L179 284 C179 364 215 417 307 417 C318 417 332 415 332 415 L332 504 C332 504 315 507 299 507 C252 507 201 481 176 423 L171 496 L77 496 L77 0 Z " />
<glyph glyph-name="Rcaron" unicode="&#x158;" horiz-adv-x="633" d="M369 778 L460 906 L348 906 L300 828 L251 906 L139 906 L230 778 L369 778 Z M90 0 L196 0 L196 294 L309 294 L456 0 L578 0 L416 306 C511 327 576 392 576 515 C576 677 453 712 320 712 L90 712 L90 0 Z M196 384 L196 622 L287 622 C408 622 467 612 467 512 C467 402 398 384 320 384 L196 384 Z " />
<glyph glyph-name="rcaron" unicode="&#x159;" horiz-adv-x="360" d="M257 576 L348 704 L236 704 L187 623 L138 704 L29 704 L120 576 L257 576 Z M77 0 L179 0 L179 284 C179 364 215 417 307 417 C318 417 332 415 332 415 L332 504 C332 504 315 507 299 507 C252 507 201 481 176 423 L171 496 L77 496 L77 0 Z " />
<glyph glyph-name="Sacute" unicode="&#x15a;" horiz-adv-x="598" d="M312 907 L240 778 L345 778 L458 907 L312 907 Z M50 224 C50 97 123 -17 321 -17 C486 -17 554 73 554 196 C554 433 180 374 180 537 C180 606 221 640 297 640 C394 640 425 572 427 506 L532 506 C531 633 456 730 297 730 C151 730 74 648 74 531 C74 282 448 351 448 188 C448 107 404 73 320 73 C211 73 160 137 157 224 L50 224 Z " />
<glyph glyph-name="sacute" unicode="&#x15b;" horiz-adv-x="455" d="M231 704 L160 576 L263 576 L374 704 L231 704 Z M43 158 C43 87 77 -17 243 -17 C354 -17 415 38 415 135 C415 312 153 263 153 372 C153 415 179 435 223 435 C292 435 304 377 306 350 L402 350 C402 391 386 513 223 513 C116 513 56 453 56 367 C56 182 318 241 318 129 C318 78 291 61 241 61 C157 61 139 125 139 158 L43 158 Z " />
<glyph glyph-name="Scircumflex" unicode="&#x15c;" horiz-adv-x="598" d="M240 907 L149 778 L258 778 L307 857 L355 778 L470 778 L379 907 L240 907 Z M50 224 C50 97 123 -17 321 -17 C486 -17 554 73 554 196 C554 433 180 374 180 537 C180 606 221 640 297 640 C394 640 425 572 427 506 L532 506 C531 633 456 730 297 730 C151 730 74 648 74 531 C74 282 448 351 448 188 C448 107 404 73 320 73 C211 73 160 137 157 224 L50 224 Z " />
<glyph glyph-name="scircumflex" unicode="&#x15d;" horiz-adv-x="455" d="M161 704 L70 576 L177 576 L226 656 L276 576 L389 576 L298 704 L161 704 Z M43 158 C43 87 77 -17 243 -17 C354 -17 415 38 415 135 C415 312 153 263 153 372 C153 415 179 435 223 435 C292 435 304 377 306 350 L402 350 C402 391 386 513 223 513 C116 513 56 453 56 367 C56 182 318 241 318 129 C318 78 291 61 241 61 C157 61 139 125 139 158 L43 158 Z " />
<glyph glyph-name="Scedilla" unicode="&#x15e;" horiz-adv-x="598" d="M213 -219 C221 -221 245 -233 278 -233 C368 -233 419 -185 419 -132 C419 -103 404 -57 330 -57 C325 -57 320 -57 316 -58 L336 -17 C490 -11 554 77 554 196 C554 433 180 374 180 537 C180 606 221 640 297 640 C394 640 425 572 427 506 L532 506 C531 633 456 730 297 730 C151 730 74 648 74 531 C74 282 448 351 448 188 C448 107 404 73 320 73 C211 73 160 137 157 224 L50 224 C50 106 112 0 278 -15 L242 -86 L260 -105 C267 -103 278 -101 290 -101 C314 -101 334 -108 334 -135 C334 -170 302 -181 269 -181 C247 -181 232 -173 232 -173 L213 -219 Z " />
<glyph glyph-name="scedilla" unicode="&#x15f;" horiz-adv-x="455" d="M136 -219 C144 -221 168 -233 201 -233 C291 -233 342 -185 342 -132 C342 -103 327 -57 253 -57 C248 -57 243 -57 239 -58 L259 -16 C360 -11 415 42 415 135 C415 312 153 263 153 372 C153 415 179 435 223 435 C292 435 304 377 306 350 L402 350 C402 391 386 513 223 513 C116 513 56 453 56 367 C56 182 318 241 318 129 C318 78 291 61 241 61 C157 61 139 125 139 158 L43 158 C43 93 71 1 201 -14 L165 -86 L183 -105 C190 -103 201 -101 213 -101 C237 -101 257 -108 257 -135 C257 -170 225 -181 192 -181 C170 -181 155 -173 155 -173 L136 -219 Z " />
<glyph glyph-name="Scaron" unicode="&#x160;" horiz-adv-x="598" d="M376 778 L467 906 L355 906 L307 828 L258 906 L146 906 L237 778 L376 778 Z M50 224 C50 97 123 -17 321 -17 C486 -17 554 73 554 196 C554 433 180 374 180 537 C180 606 221 640 297 640 C394 640 425 572 427 506 L532 506 C531 633 456 730 297 730 C151 730 74 648 74 531 C74 282 448 351 448 188 C448 107 404 73 320 73 C211 73 160 137 157 224 L50 224 Z " />
<glyph glyph-name="scaron" unicode="&#x161;" horiz-adv-x="455" d="M296 576 L387 704 L275 704 L226 623 L177 704 L68 704 L159 576 L296 576 Z M43 158 C43 87 77 -17 243 -17 C354 -17 415 38 415 135 C415 312 153 263 153 372 C153 415 179 435 223 435 C292 435 304 377 306 350 L402 350 C402 391 386 513 223 513 C116 513 56 453 56 367 C56 182 318 241 318 129 C318 78 291 61 241 61 C157 61 139 125 139 158 L43 158 Z " />
<glyph glyph-name="Tcedilla" unicode="&#x162;" horiz-adv-x="556" d="M225 0 L250 0 L206 -86 L224 -105 C231 -103 242 -101 254 -101 C278 -101 298 -108 298 -135 C298 -170 266 -181 233 -181 C211 -181 196 -173 196 -173 L177 -219 C185 -221 209 -233 242 -233 C332 -233 383 -185 383 -132 C383 -103 368 -57 294 -57 C289 -57 284 -57 280 -58 L308 0 L330 0 L330 623 L538 623 L538 712 L18 712 L18 623 L225 623 L225 0 Z " />
<glyph glyph-name="tcommaaccent" unicode="&#x163;" horiz-adv-x="353" d="M140 -160 L196 -160 C197 -180 186 -205 143 -212 L143 -283 C237 -269 265 -222 265 -130 L265 -53 L140 -53 L140 -160 Z M106 154 C106 49 122 -11 228 -11 C272 -11 315 0 315 0 L315 74 C315 74 287 72 271 72 C212 72 208 100 208 168 L208 422 L315 422 L315 496 L208 496 L208 646 L106 621 L106 496 L20 496 L20 422 L106 422 L106 154 Z " />
<glyph glyph-name="Tcaron" unicode="&#x164;" horiz-adv-x="556" d="M347 778 L438 906 L326 906 L278 828 L229 906 L117 906 L208 778 L347 778 Z M225 0 L330 0 L330 623 L538 623 L538 712 L18 712 L18 623 L225 623 L225 0 Z " />
<glyph glyph-name="tcaron" unicode="&#x165;" horiz-adv-x="372" d="M254 659 L310 659 C311 639 300 613 257 607 L257 536 C351 550 379 596 379 689 L379 766 L254 766 L254 659 Z M106 154 C106 49 122 -11 228 -11 C272 -11 315 0 315 0 L315 74 C315 74 287 72 271 72 C212 72 208 100 208 168 L208 422 L315 422 L315 496 L208 496 L208 646 L106 621 L106 496 L20 496 L20 422 L106 422 L106 154 Z " />
<glyph glyph-name="Tbar" unicode="&#x166;" horiz-adv-x="556" d="M76 306 L225 306 L225 0 L330 0 L330 306 L479 306 L479 391 L330 391 L330 623 L538 623 L538 712 L18 712 L18 623 L225 623 L225 391 L76 391 L76 306 Z " />
<glyph glyph-name="tbar" unicode="&#x167;" horiz-adv-x="353" d="M20 238 L106 238 L106 154 C106 49 122 -11 228 -11 C272 -11 315 0 315 0 L315 74 C315 74 287 72 271 72 C212 72 208 100 208 168 L208 238 L315 238 L315 312 L208 312 L208 422 L315 422 L315 496 L208 496 L208 646 L106 621 L106 496 L20 496 L20 422 L106 422 L106 312 L20 312 L20 238 Z " />
<glyph glyph-name="Utilde" unicode="&#x168;" horiz-adv-x="718" d="M83 249 C83 64 187 -17 359 -17 C524 -17 635 64 635 249 L635 712 L529 712 L529 249 C529 105 439 73 359 73 C279 73 190 109 190 253 L190 712 L83 712 L83 249 Z M270 782 C270 792 271 824 299 824 C334 824 366 776 430 776 C509 776 513 864 512 901 L447 901 C447 893 447 854 418 854 C378 854 352 905 293 905 C212 905 201 820 202 782 L270 782 Z " />
<glyph glyph-name="utilde" unicode="&#x169;" horiz-adv-x="552" d="M475 496 L373 496 L373 202 C373 102 312 74 267 74 C188 74 177 124 177 202 L177 496 L75 496 L75 179 C75 60 122 -10 234 -10 C339 -10 373 69 373 69 L377 0 L475 0 L475 496 Z M187 579 C187 589 188 621 216 621 C251 621 283 573 347 573 C426 573 430 661 429 698 L366 698 C366 690 366 651 337 651 C297 651 269 702 210 702 C129 702 118 617 119 579 L187 579 Z " />
<glyph glyph-name="Umacron" unicode="&#x16a;" horiz-adv-x="718" d="M83 249 C83 64 187 -17 359 -17 C524 -17 635 64 635 249 L635 712 L529 712 L529 249 C529 105 439 73 359 73 C279 73 190 109 190 253 L190 712 L83 712 L83 249 Z M217 801 L500 801 L500 885 L217 885 L217 801 Z " />
<glyph glyph-name="umacron" unicode="&#x16b;" horiz-adv-x="552" d="M475 496 L373 496 L373 202 C373 102 312 74 267 74 C188 74 177 124 177 202 L177 496 L75 496 L75 179 C75 60 122 -10 234 -10 C339 -10 373 69 373 69 L377 0 L475 0 L475 496 Z M134 599 L416 599 L416 681 L134 681 L134 599 Z " />
<glyph glyph-name="Ubreve" unicode="&#x16c;" horiz-adv-x="718" d="M83 249 C83 64 187 -17 359 -17 C524 -17 635 64 635 249 L635 712 L529 712 L529 249 C529 105 439 73 359 73 C279 73 190 109 190 253 L190 712 L83 712 L83 249 Z M211 907 C211 883 214 776 360 776 C502 776 505 891 505 907 L410 907 C410 890 409 841 359 841 C309 841 308 890 308 907 L211 907 Z " />
<glyph glyph-name="ubreve" unicode="&#x16d;" horiz-adv-x="552" d="M475 496 L373 496 L373 202 C373 102 312 74 267 74 C188 74 177 124 177 202 L177 496 L75 496 L75 179 C75 60 122 -10 234 -10 C339 -10 373 69 373 69 L377 0 L475 0 L475 496 Z M128 704 C128 680 131 572 277 572 C419 572 422 687 422 704 L327 704 C327 687 326 637 276 637 C226 637 225 687 225 704 L128 704 Z " />
<glyph glyph-name="Uring" unicode="&#x16e;" horiz-adv-x="718" d="M240 842 C240 773 295 734 358 734 C422 734 477 773 477 842 C477 910 422 950 358 950 C295 950 240 910 240 842 L240 842 Z M307 842 C307 871 327 892 358 892 C389 892 409 871 409 842 C409 813 389 791 358 791 C327 791 307 813 307 842 L307 842 Z M83 249 C83 64 187 -17 359 -17 C524 -17 635 64 635 249 L635 712 L529 712 L529 249 C529 105 439 73 359 73 C279 73 190 109 190 253 L190 712 L83 712 L83 249 Z " />
<glyph glyph-name="uring" unicode="&#x16f;" horiz-adv-x="552" d="M157 662 C157 594 212 554 275 554 C337 554 393 594 393 662 C393 730 337 770 275 770 C212 770 157 730 157 662 L157 662 Z M223 662 C223 692 243 714 275 714 C306 714 326 692 326 662 C326 632 306 610 275 610 C243 610 223 632 223 662 L223 662 Z M475 496 L373 496 L373 202 C373 102 312 74 267 74 C188 74 177 124 177 202 L177 496 L75 496 L75 179 C75 60 122 -10 234 -10 C339 -10 373 69 373 69 L377 0 L475 0 L475 496 Z " />
<glyph glyph-name="Uhungarumlaut" unicode="&#x170;" horiz-adv-x="718" d="M83 249 C83 64 187 -17 359 -17 C524 -17 635 64 635 249 L635 712 L529 712 L529 249 C529 105 439 73 359 73 C279 73 190 109 190 253 L190 712 L83 712 L83 249 Z M277 907 L205 778 L303 778 L416 907 L277 907 Z M468 907 L396 778 L493 778 L606 907 L468 907 Z " />
<glyph glyph-name="uhungarumlaut" unicode="&#x171;" horiz-adv-x="552" d="M475 496 L373 496 L373 202 C373 102 312 74 267 74 C188 74 177 124 177 202 L177 496 L75 496 L75 179 C75 60 122 -10 234 -10 C339 -10 373 69 373 69 L377 0 L475 0 L475 496 Z M194 704 L123 576 L219 576 L331 704 L194 704 Z M384 704 L314 576 L410 576 L521 704 L384 704 Z " />
<glyph glyph-name="Uogonek" unicode="&#x172;" horiz-adv-x="718" d="M83 249 C83 64 187 -17 359 -17 C367 -17 375 -17 383 -16 C344 -42 313 -73 313 -121 C313 -180 370 -202 418 -202 C457 -202 489 -190 499 -182 L499 -133 C499 -133 483 -139 463 -139 C437 -139 410 -129 410 -93 C410 -57 437 -26 472 -1 C572 30 635 110 635 249 L635 712 L529 712 L529 249 C529 105 439 73 359 73 C279 73 190 109 190 253 L190 712 L83 712 L83 249 Z " />
<glyph glyph-name="uogonek" unicode="&#x173;" horiz-adv-x="552" d="M475 496 L373 496 L373 202 C373 102 312 74 267 74 C188 74 177 124 177 202 L177 496 L75 496 L75 179 C75 60 122 -10 234 -10 C339 -10 373 69 373 69 L377 0 L411 0 C360 -30 314 -63 314 -121 C314 -180 371 -202 419 -202 C458 -202 490 -190 500 -182 L500 -133 C500 -133 484 -139 464 -139 C438 -139 411 -129 411 -93 C411 -57 439 -25 475 0 L475 496 Z " />
<glyph glyph-name="Wcircumflex" unicode="&#x174;" horiz-adv-x="994" d="M337 0 L433 341 C469 471 495 583 497 589 C499 578 524 468 558 340 L645 0 L763 0 L974 712 L860 712 L771 386 C736 257 707 135 706 129 C703 140 676 260 644 387 L561 712 L441 712 L349 385 C313 254 282 136 281 130 C278 141 252 258 220 385 L137 712 L20 712 L221 0 L337 0 Z M427 907 L336 778 L445 778 L494 857 L542 778 L657 778 L566 907 L427 907 Z " />
<glyph glyph-name="wcircumflex" unicode="&#x175;" horiz-adv-x="788" d="M282 0 L354 238 C378 319 391 367 392 372 C394 365 407 316 429 239 L497 0 L602 0 L764 496 L658 496 L590 258 C566 176 551 117 550 113 C548 121 535 180 513 259 L447 496 L348 496 L276 259 C250 176 234 117 233 113 C231 121 217 179 196 259 L133 496 L24 496 L176 0 L282 0 Z M325 704 L234 576 L341 576 L390 656 L440 576 L553 576 L462 704 L325 704 Z " />
<glyph glyph-name="Ycircumflex" unicode="&#x176;" horiz-adv-x="596" d="M242 0 L348 0 L348 293 L588 712 L475 712 L387 552 C340 466 298 386 298 386 C298 386 257 467 211 553 L126 712 L7 712 L242 294 L242 0 Z M228 907 L137 778 L246 778 L295 857 L343 778 L458 778 L367 907 L228 907 Z " />
<glyph glyph-name="ycircumflex" unicode="&#x177;" horiz-adv-x="513" d="M185 -50 C167 -100 141 -115 94 -115 L71 -115 L71 -196 C71 -196 99 -200 123 -200 C226 -200 251 -137 287 -43 L496 496 L389 496 L314 277 C285 194 262 126 261 122 C258 130 234 206 209 280 L135 496 L25 496 L210 14 L185 -50 Z M195 704 L104 576 L211 576 L260 656 L310 576 L423 576 L332 704 L195 704 Z " />
<glyph glyph-name="Ydieresis" unicode="&#x178;" horiz-adv-x="596" d="M242 0 L348 0 L348 293 L588 712 L475 712 L387 552 C340 466 298 386 298 386 C298 386 257 467 211 553 L126 712 L7 712 L242 294 L242 0 Z M146 792 L258 792 L258 905 L146 905 L146 792 Z M339 792 L449 792 L449 905 L339 905 L339 792 Z " />
<glyph glyph-name="Zacute" unicode="&#x179;" horiz-adv-x="619" d="M326 907 L254 778 L359 778 L472 907 L326 907 Z M46 0 L562 0 L562 90 L169 90 L569 631 L569 712 L89 712 L89 622 L449 622 L46 79 L46 0 Z " />
<glyph glyph-name="zacute" unicode="&#x17a;" horiz-adv-x="456" d="M260 704 L189 576 L292 576 L403 704 L260 704 Z M40 0 L422 0 L422 82 L160 82 L422 428 L422 496 L71 496 L71 414 L304 414 L40 67 L40 0 Z " />
<glyph glyph-name="Zdotaccent" unicode="&#x17b;" horiz-adv-x="619" d="M46 0 L562 0 L562 90 L169 90 L569 631 L569 712 L89 712 L89 622 L449 622 L46 79 L46 0 Z M275 792 L392 792 L392 909 L275 909 L275 792 Z " />
<glyph glyph-name="zdotaccent" unicode="&#x17c;" horiz-adv-x="456" d="M40 0 L422 0 L422 82 L160 82 L422 428 L422 496 L71 496 L71 414 L304 414 L40 67 L40 0 Z M188 589 L304 589 L304 705 L188 705 L188 589 Z " />
<glyph glyph-name="Zcaron" unicode="&#x17d;" horiz-adv-x="619" d="M396 778 L487 906 L375 906 L327 828 L278 906 L166 906 L257 778 L396 778 Z M46 0 L562 0 L562 90 L169 90 L569 631 L569 712 L89 712 L89 622 L449 622 L46 79 L46 0 Z " />
<glyph glyph-name="zcaron" unicode="&#x17e;" horiz-adv-x="456" d="M315 576 L406 704 L294 704 L245 623 L196 704 L87 704 L178 576 L315 576 Z M40 0 L422 0 L422 82 L160 82 L422 428 L422 496 L71 496 L71 414 L304 414 L40 67 L40 0 Z " />
<glyph glyph-name="florin" unicode="&#x192;" horiz-adv-x="606" d="M557 714 C557 714 532 721 495 721 C369 721 332 646 305 532 L280 423 L159 423 L159 340 L262 340 L199 58 C182 -16 179 -63 99 -63 C83 -63 67 -61 57 -59 L49 -140 C49 -140 84 -148 126 -148 C239 -148 278 -73 299 25 L368 340 L506 340 L506 423 L386 423 L408 518 C423 584 429 634 510 634 C530 634 549 631 549 631 L557 714 Z " />
<glyph glyph-name="Acaron" unicode="&#x1cd;" horiz-adv-x="695" d="M556 0 L675 0 L393 712 L300 712 L19 0 L130 0 L194 174 L492 174 L556 0 Z M283 412 C313 494 341 575 343 579 C345 572 373 493 404 413 L460 259 L226 259 L283 412 Z M416 778 L507 906 L395 906 L347 828 L298 906 L186 906 L277 778 L416 778 Z " />
<glyph glyph-name="acaron" unicode="&#x1ce;" horiz-adv-x="531" d="M349 301 C349 301 298 305 257 305 C105 305 40 249 40 146 C40 38 107 -10 210 -10 C292 -10 353 35 371 71 L372 65 C376 38 392 -6 454 -6 C479 -6 502 0 502 0 L502 75 L481 75 C454 75 446 91 446 127 L446 345 C446 454 392 513 264 513 C77 513 67 356 67 356 L162 356 C162 356 166 433 259 433 C325 433 349 406 349 341 L349 301 Z M348 198 C348 115 307 70 233 70 C173 70 142 95 142 152 C142 206 170 238 269 238 C311 238 348 234 348 234 L348 198 Z M334 576 L425 704 L313 704 L264 623 L215 704 L106 704 L197 576 L334 576 Z " />
<glyph glyph-name="Scommaaccent" unicode="&#x218;" horiz-adv-x="598" d="M244 -160 L300 -160 C301 -180 290 -205 247 -212 L247 -283 C341 -269 369 -222 369 -130 L369 -53 L244 -53 L244 -160 Z M50 224 C50 97 123 -17 321 -17 C486 -17 554 73 554 196 C554 433 180 374 180 537 C180 606 221 640 297 640 C394 640 425 572 427 506 L532 506 C531 633 456 730 297 730 C151 730 74 648 74 531 C74 282 448 351 448 188 C448 107 404 73 320 73 C211 73 160 137 157 224 L50 224 Z " />
<glyph glyph-name="scommaaccent" unicode="&#x219;" horiz-adv-x="455" d="M168 -160 L224 -160 C225 -180 214 -205 171 -212 L171 -283 C265 -269 293 -222 293 -130 L293 -53 L168 -53 L168 -160 Z M43 158 C43 87 77 -17 243 -17 C354 -17 415 38 415 135 C415 312 153 263 153 372 C153 415 179 435 223 435 C292 435 304 377 306 350 L402 350 C402 391 386 513 223 513 C116 513 56 453 56 367 C56 182 318 241 318 129 C318 78 291 61 241 61 C157 61 139 125 139 158 L43 158 Z " />
<glyph glyph-name="Tcommaaccent" unicode="&#x21a;" horiz-adv-x="556" d="M215 -160 L271 -160 C272 -180 261 -205 218 -212 L218 -283 C312 -269 340 -222 340 -130 L340 -53 L215 -53 L215 -160 Z M225 0 L330 0 L330 623 L538 623 L538 712 L18 712 L18 623 L225 623 L225 0 Z " />
<glyph glyph-name="tcedilla" unicode="&#x21b;" horiz-adv-x="353" d="M99 -219 C107 -221 131 -233 164 -233 C254 -233 305 -185 305 -132 C305 -103 290 -57 216 -57 C211 -57 206 -57 202 -58 L224 -11 L228 -11 C272 -11 315 0 315 0 L315 74 C315 74 287 72 271 72 C212 72 208 100 208 168 L208 422 L315 422 L315 496 L208 496 L208 646 L106 621 L106 496 L20 496 L20 422 L106 422 L106 154 C106 72 115 17 170 -2 L128 -86 L146 -105 C153 -103 164 -101 176 -101 C200 -101 220 -108 220 -135 C220 -170 188 -181 155 -181 C133 -181 118 -173 118 -173 L99 -219 Z " />
<glyph glyph-name="Adotaccent" unicode="&#x226;" horiz-adv-x="695" d="M556 0 L675 0 L393 712 L300 712 L19 0 L130 0 L194 174 L492 174 L556 0 Z M283 412 C313 494 341 575 343 579 C345 572 373 493 404 413 L460 259 L226 259 L283 412 Z M288 792 L405 792 L405 909 L288 909 L288 792 Z " />
<glyph glyph-name="adotaccent" unicode="&#x227;" horiz-adv-x="531" d="M349 301 C349 301 298 305 257 305 C105 305 40 249 40 146 C40 38 107 -10 210 -10 C292 -10 353 35 371 71 L372 65 C376 38 392 -6 454 -6 C479 -6 502 0 502 0 L502 75 L481 75 C454 75 446 91 446 127 L446 345 C446 454 392 513 264 513 C77 513 67 356 67 356 L162 356 C162 356 166 433 259 433 C325 433 349 406 349 341 L349 301 Z M348 198 C348 115 307 70 233 70 C173 70 142 95 142 152 C142 206 170 238 269 238 C311 238 348 234 348 234 L348 198 Z M207 589 L323 589 L323 705 L207 705 L207 589 Z " />
<glyph glyph-name="Odotaccent" unicode="&#x22e;" horiz-adv-x="727" d="M51 357 C51 81 191 -17 363 -17 C536 -17 676 90 676 357 C676 611 543 730 363 730 C191 730 51 611 51 357 L51 357 Z M160 357 C160 557 245 640 363 640 C481 640 567 557 567 357 C567 147 482 73 363 73 C249 73 160 147 160 357 L160 357 Z M304 792 L421 792 L421 909 L304 909 L304 792 Z " />
<glyph glyph-name="odotaccent" unicode="&#x22f;" horiz-adv-x="531" d="M44 248 C44 49 139 -17 265 -17 C388 -17 487 55 487 248 C487 438 389 513 265 513 C143 513 44 431 44 248 L44 248 Z M146 248 C146 383 195 431 265 431 C335 431 385 385 385 248 C385 107 337 65 265 65 C194 65 146 108 146 248 L146 248 Z M207 589 L323 589 L323 705 L207 705 L207 589 Z " />
<glyph glyph-name="Ymacron" unicode="&#x232;" horiz-adv-x="596" d="M242 0 L348 0 L348 293 L588 712 L475 712 L387 552 C340 466 298 386 298 386 C298 386 257 467 211 553 L126 712 L7 712 L242 294 L242 0 Z M156 801 L439 801 L439 885 L156 885 L156 801 Z " />
<glyph glyph-name="ymacron" unicode="&#x233;" horiz-adv-x="513" d="M185 -50 C167 -100 141 -115 94 -115 L71 -115 L71 -196 C71 -196 99 -200 123 -200 C226 -200 251 -137 287 -43 L496 496 L389 496 L314 277 C284 192 261 122 261 122 C261 122 236 202 209 280 L135 496 L25 496 L210 14 L185 -50 Z M116 599 L398 599 L398 681 L116 681 L116 599 Z " />
<glyph glyph-name="dotlessj" unicode="&#x237;" horiz-adv-x="257" d="M-14 -196 C-14 -196 12 -200 43 -200 C175 -200 181 -111 181 -7 L181 496 L79 496 L79 -22 C79 -88 77 -112 3 -112 L-14 -112 L-14 -196 Z " />
<glyph glyph-name="circumflex" unicode="&#x2c6;" horiz-adv-x="319" d="M91 704 L0 576 L107 576 L156 656 L206 576 L319 576 L228 704 L91 704 Z " />
<glyph glyph-name="caron" unicode="&#x2c7;" horiz-adv-x="319" d="M228 576 L319 704 L207 704 L158 623 L109 704 L0 704 L91 576 L228 576 Z " />
<glyph glyph-name="breve" unicode="&#x2d8;" horiz-adv-x="294" d="M0 704 C0 680 3 572 149 572 C291 572 294 687 294 704 L199 704 C199 687 198 637 148 637 C98 637 97 687 97 704 L0 704 Z " />
<glyph glyph-name="dotaccent" unicode="&#x2d9;" horiz-adv-x="116" d="M0 589 L116 589 L116 705 L0 705 L0 589 Z " />
<glyph glyph-name="ring" unicode="&#x2da;" horiz-adv-x="237" d="M1 662 C1 594 56 554 119 554 C181 554 237 594 237 662 C237 730 181 770 119 770 C56 770 1 730 1 662 L1 662 Z M67 662 C67 692 87 714 119 714 C150 714 170 692 170 662 C170 632 150 610 119 610 C87 610 67 632 67 662 L67 662 Z " />
<glyph glyph-name="ogonek" unicode="&#x2db;" horiz-adv-x="186" d="M186 -133 C186 -133 170 -139 150 -139 C124 -139 97 -129 97 -93 C97 -57 125 -25 161 0 L97 0 C46 -30 0 -63 0 -121 C0 -180 57 -202 105 -202 C144 -202 176 -190 186 -182 L186 -133 Z " />
<glyph glyph-name="tilde" unicode="&#x2dc;" horiz-adv-x="312" d="M69 579 C69 589 70 621 98 621 C133 621 165 573 229 573 C308 573 312 661 311 698 L248 698 C248 690 248 651 219 651 C179 651 151 702 92 702 C11 702 0 617 1 579 L69 579 Z " />
<glyph glyph-name="hungarumlaut" unicode="&#x2dd;" horiz-adv-x="429" d="M71 704 L0 576 L96 576 L208 704 L71 704 Z M261 704 L191 576 L287 576 L398 704 L261 704 Z " />
<glyph glyph-name="&amp;#x394;" unicode="&#x394;" horiz-adv-x="606" d="M9 0 L596 0 L596 77 L348 712 L252 712 L9 75 L9 0 Z M114 88 L300 583 L486 88 L114 88 Z " />
<glyph glyph-name="&amp;#x2206;" unicode="&#x2206;" horiz-adv-x="606" d="M9 0 L596 0 L596 77 L348 712 L252 712 L9 75 L9 0 Z M114 88 L300 583 L486 88 L114 88 Z " />
<glyph glyph-name="&amp;#x3a9;" unicode="&#x3a9;" horiz-adv-x="606" d="M-15 85 L-15 0 L244 0 L244 74 C173 115 90 222 90 363 C90 533 184 627 306 627 C440 627 517 514 517 367 C517 214 435 117 363 74 L363 0 L622 0 L622 85 L491 85 C533 125 623 210 623 376 C623 569 494 718 307 718 C130 718 -16 583 -16 371 C-16 210 67 128 113 85 L-15 85 Z " />
<glyph glyph-name="&amp;#x2126;" unicode="&#x2126;" horiz-adv-x="606" d="M-15 85 L-15 0 L244 0 L244 74 C173 115 90 222 90 363 C90 533 184 627 306 627 C440 627 517 514 517 367 C517 214 435 117 363 74 L363 0 L622 0 L622 85 L491 85 C533 125 623 210 623 376 C623 569 494 718 307 718 C130 718 -16 583 -16 371 C-16 210 67 128 113 85 L-15 85 Z " />
<glyph glyph-name="pi" unicode="&#x3c0;" horiz-adv-x="606" d="M561 81 C561 81 539 79 523 79 C476 79 470 100 470 150 L470 410 L548 410 L548 496 L44 496 L44 410 L122 410 L122 -1 L225 -1 L225 410 L367 410 L367 124 C367 53 391 -5 490 -5 C533 -5 561 4 561 4 L561 81 Z " />
<glyph glyph-name="Wgrave" unicode="&#x1e80;" horiz-adv-x="994" d="M337 0 L433 341 C469 471 495 583 497 589 C499 578 524 468 558 340 L645 0 L763 0 L974 712 L860 712 L771 386 C736 257 707 135 706 129 C703 140 676 260 644 387 L561 712 L441 712 L349 385 C312 251 281 129 281 129 C281 129 254 252 220 385 L137 712 L20 712 L221 0 L337 0 Z M336 907 L449 778 L553 778 L482 907 L336 907 Z " />
<glyph glyph-name="wgrave" unicode="&#x1e81;" horiz-adv-x="788" d="M282 0 L354 238 C378 319 391 367 392 372 C394 365 407 316 429 239 L497 0 L602 0 L764 496 L658 496 L590 258 C566 176 551 117 550 113 C548 121 535 180 513 259 L447 496 L348 496 L276 259 C249 175 234 115 233 112 C232 117 218 176 196 259 L133 496 L24 496 L176 0 L282 0 Z M229 704 L341 576 L443 576 L373 704 L229 704 Z " />
<glyph glyph-name="Wacute" unicode="&#x1e82;" horiz-adv-x="994" d="M337 0 L433 341 C469 471 495 583 497 589 C499 578 524 468 558 340 L645 0 L763 0 L974 712 L860 712 L771 386 C735 254 706 128 706 128 C706 128 678 254 644 387 L561 712 L441 712 L349 385 C313 254 282 136 281 130 C278 141 252 258 220 385 L137 712 L20 712 L221 0 L337 0 Z M525 907 L453 778 L558 778 L671 907 L525 907 Z " />
<glyph glyph-name="wacute" unicode="&#x1e83;" horiz-adv-x="788" d="M282 0 L354 238 C378 319 391 367 392 372 C394 365 407 316 429 239 L497 0 L602 0 L764 496 L658 496 L590 258 C565 175 550 115 550 112 C549 117 536 177 513 259 L447 496 L348 496 L276 259 C250 176 234 117 233 113 C231 121 217 179 196 259 L133 496 L24 496 L176 0 L282 0 Z M428 704 L357 576 L460 576 L571 704 L428 704 Z " />
<glyph glyph-name="Wdieresis" unicode="&#x1e84;" horiz-adv-x="994" d="M337 0 L433 341 C469 471 495 583 497 589 C499 578 524 468 558 340 L645 0 L763 0 L974 712 L860 712 L771 386 C735 254 706 128 706 128 C706 128 678 254 644 387 L561 712 L441 712 L349 385 C312 251 281 129 281 129 C281 129 254 252 220 385 L137 712 L20 712 L221 0 L337 0 Z M345 792 L457 792 L457 905 L345 905 L345 792 Z M538 792 L648 792 L648 905 L538 905 L538 792 Z " />
<glyph glyph-name="wdieresis" unicode="&#x1e85;" horiz-adv-x="788" d="M282 0 L354 238 C378 319 391 367 392 372 C394 365 407 316 429 239 L497 0 L602 0 L764 496 L658 496 L590 258 C565 175 550 115 550 112 C549 117 536 177 513 259 L447 496 L348 496 L276 259 C250 176 234 117 233 113 C231 121 217 179 196 259 L133 496 L24 496 L176 0 L282 0 Z M242 586 L353 586 L353 699 L242 699 L242 586 Z M435 586 L545 586 L545 699 L435 699 L435 586 Z " />
<glyph glyph-name="Ygrave" unicode="&#x1ef2;" horiz-adv-x="596" d="M242 0 L348 0 L348 293 L588 712 L475 712 L387 552 C340 466 298 386 298 386 C298 386 257 467 211 553 L126 712 L7 712 L242 294 L242 0 Z M144 907 L257 778 L361 778 L290 907 L144 907 Z " />
<glyph glyph-name="ygrave" unicode="&#x1ef3;" horiz-adv-x="513" d="M185 -50 C167 -100 141 -115 94 -115 L71 -115 L71 -196 C71 -196 99 -200 123 -200 C226 -200 251 -137 287 -43 L496 496 L389 496 L314 277 C284 192 261 122 261 122 C261 122 236 202 209 280 L135 496 L25 496 L210 14 L185 -50 Z M100 704 L212 576 L314 576 L244 704 L100 704 Z " />
<glyph glyph-name="endash" unicode="&#x2013;" horiz-adv-x="411" d="M0 211 L411 211 L411 297 L0 297 L0 211 Z " />
<glyph glyph-name="emdash" unicode="&#x2014;" horiz-adv-x="669" d="M0 211 L669 211 L669 297 L0 297 L0 211 Z " />
<glyph glyph-name="quoteleft" unicode="&#x2018;" horiz-adv-x="245" d="M185 565 L128 565 C128 601 141 635 182 642 L182 712 C99 706 57 642 57 553 L57 446 L185 446 L185 565 Z " />
<glyph glyph-name="quoteright" unicode="&#x2019;" horiz-adv-x="245" d="M67 593 L124 593 C124 557 110 523 70 516 L70 446 C152 452 195 516 195 605 L195 712 L67 712 L67 593 Z " />
<glyph glyph-name="quotesinglbase" unicode="&#x201a;" horiz-adv-x="245" d="M60 0 L117 0 C117 -36 103 -70 63 -76 L63 -147 C152 -140 188 -73 188 29 L188 120 L60 120 L60 0 Z " />
<glyph glyph-name="quotedblleft" unicode="&#x201c;" horiz-adv-x="427" d="M369 565 L312 565 C312 601 325 635 366 641 L366 712 C284 706 241 642 241 553 L241 445 L369 445 L369 565 Z M186 565 L129 565 C129 601 143 635 183 641 L183 712 C101 706 58 642 58 553 L58 445 L186 445 L186 565 Z " />
<glyph glyph-name="quotedblright" unicode="&#x201d;" horiz-adv-x="427" d="M63 592 L120 592 C120 556 106 523 66 516 L66 445 C148 452 191 515 191 605 L191 712 L63 712 L63 592 Z M245 592 L302 592 C302 556 289 523 248 516 L248 445 C331 452 373 515 373 605 L373 712 L245 712 L245 592 Z " />
<glyph glyph-name="quotedblbase" unicode="&#x201e;" horiz-adv-x="427" d="M60 0 L117 0 C117 -36 103 -70 63 -76 L63 -147 C152 -140 188 -73 188 29 L188 120 L60 120 L60 0 Z M242 0 L299 0 C299 -36 286 -70 245 -76 L245 -147 C328 -141 370 -77 370 12 L370 120 L242 120 L242 0 Z " />
<glyph glyph-name="dagger" unicode="&#x2020;" horiz-adv-x="606" d="M93 402 L252 402 L252 0 L353 0 L353 402 L512 402 L512 488 L353 488 L353 698 L252 698 L252 488 L93 488 L93 402 Z " />
<glyph glyph-name="daggerdbl" unicode="&#x2021;" horiz-adv-x="606" d="M252 268 L93 268 L93 182 L252 182 L252 0 L353 0 L353 182 L512 182 L512 268 L353 268 L353 429 L512 429 L512 515 L353 515 L353 698 L252 698 L252 515 L93 515 L93 429 L252 429 L252 268 Z " />
<glyph glyph-name="bullet" unicode="&#x2022;" horiz-adv-x="365" d="M30 353 C30 263 98 202 182 202 C267 202 335 263 335 353 C335 444 267 504 182 504 C98 504 30 444 30 353 L30 353 Z " />
<glyph glyph-name="ellipsis" unicode="&#x2026;" horiz-adv-x="719" d="M56 0 L184 0 L184 121 L56 121 L56 0 Z M295 0 L423 0 L423 121 L295 121 L295 0 Z M535 0 L662 0 L662 121 L535 121 L535 0 Z " />
<glyph glyph-name="perthousand" unicode="&#x2030;" horiz-adv-x="1183" d="M213 420 C173 420 142 446 142 536 C142 622 175 645 213 645 C251 645 284 622 284 536 C284 446 252 420 213 420 L213 420 Z M244 -17 L663 712 L576 712 L154 -17 L244 -17 Z M53 535 C53 397 134 353 213 353 C288 353 373 398 373 535 C373 667 289 712 213 712 C139 712 53 666 53 535 L53 535 Z M539 165 C539 251 572 274 610 274 C648 274 681 251 681 165 C681 75 649 50 610 50 C570 50 539 75 539 165 L539 165 Z M450 165 C450 26 531 -17 610 -17 C685 -17 770 27 770 165 C770 296 686 341 610 341 C536 341 450 295 450 165 L450 165 Z M899 165 C899 251 931 274 969 274 C1007 274 1041 251 1041 165 C1041 75 1009 50 969 50 C929 50 899 75 899 165 L899 165 Z M810 165 C810 26 890 -17 969 -17 C1045 -17 1130 27 1130 165 C1130 296 1045 341 969 341 C896 341 810 295 810 165 L810 165 Z " />
<glyph glyph-name="guilsinglleft" unicode="&#x2039;" horiz-adv-x="311" d="M157 442 L49 248 L157 53 L256 53 L160 248 L257 442 L157 442 Z " />
<glyph glyph-name="guilsinglright" unicode="&#x203a;" horiz-adv-x="311" d="M50 442 L146 248 L51 53 L151 53 L257 248 L151 442 L50 442 Z " />
<glyph glyph-name="fraction" unicode="&#x2044;" horiz-adv-x="159" d="M-194 -10 L-102 -10 L349 703 L257 703 L-194 -10 Z " />
<glyph glyph-name="zero.superior" unicode="&#x2070;" horiz-adv-x="420" d="M37 594 C37 413 123 375 210 375 C297 375 383 418 383 594 C383 764 297 813 210 813 C123 813 37 764 37 594 L37 594 Z M131 594 C131 708 165 737 210 737 C254 737 289 704 289 594 C289 477 254 451 210 451 C165 451 131 477 131 594 L131 594 Z " />
<glyph glyph-name="four.superior" unicode="&#x2074;" horiz-adv-x="420" d="M44 473 L237 473 L237 386 L328 386 L328 473 L375 473 L375 543 L328 543 L328 803 L231 803 L44 535 L44 473 Z M120 543 L237 711 L237 543 L120 543 Z " />
<glyph glyph-name="five.superior" unicode="&#x2075;" horiz-adv-x="420" d="M64 503 C64 490 69 375 214 375 C333 375 368 456 368 531 C368 599 334 662 242 662 C181 662 157 635 157 635 L174 732 L339 732 L339 803 L113 803 L75 567 L150 558 C150 558 165 596 214 596 C260 596 274 560 274 528 C274 488 261 448 210 448 C153 448 146 498 145 503 L64 503 Z " />
<glyph glyph-name="six.superior" unicode="&#x2076;" horiz-adv-x="420" d="M361 697 C358 719 339 813 226 813 C79 813 50 673 50 567 C50 459 90 375 217 375 C315 375 373 433 373 526 C373 613 320 661 237 661 C170 661 141 624 140 622 C145 676 159 742 220 742 C270 742 275 697 275 697 L361 697 Z M215 445 C173 445 149 472 149 521 C149 573 181 592 215 592 C254 592 280 569 280 519 C280 470 257 445 215 445 L215 445 Z " />
<glyph glyph-name="seven.superior" unicode="&#x2077;" horiz-adv-x="376" d="M174 386 C200 558 337 737 337 737 L337 803 L41 803 L41 729 L249 729 C219 694 116 560 75 386 L174 386 Z " />
<glyph glyph-name="eight.superior" unicode="&#x2078;" horiz-adv-x="420" d="M47 501 C47 405 128 376 210 376 C295 376 373 408 373 501 C373 589 289 607 284 608 C291 610 355 631 355 701 C355 780 286 813 210 813 C134 813 65 780 65 701 C65 628 129 609 132 608 C124 606 47 583 47 501 L47 501 Z M139 507 C139 550 172 569 210 569 C249 569 282 550 282 507 C282 464 254 445 210 445 C168 445 139 465 139 507 L139 507 Z M156 696 C156 732 180 747 210 747 C241 747 266 732 266 696 C266 660 241 644 210 644 C180 644 156 660 156 696 L156 696 Z " />
<glyph glyph-name="nine.superior" unicode="&#x2079;" horiz-adv-x="420" d="M58 493 C58 493 58 375 208 375 C354 375 373 514 373 623 C373 735 325 813 206 813 C110 813 47 757 47 662 C47 576 103 528 187 528 C250 528 279 564 281 566 C280 504 273 445 208 445 C146 445 142 493 142 493 L58 493 Z M141 669 C141 720 167 744 207 744 C245 744 272 721 272 670 C272 616 239 596 205 596 C169 596 141 616 141 669 L141 669 Z " />
<glyph glyph-name="n.superior" unicode="&#x207f;" horiz-adv-x="390" d="M56 353 L145 353 L145 533 C145 581 175 596 200 596 C236 596 245 573 245 533 L245 353 L335 353 L335 552 C335 636 299 667 236 667 C172 667 144 618 144 618 L142 660 L56 660 L56 353 Z " />
<glyph glyph-name="zero.inferior" unicode="&#x2080;" horiz-adv-x="420" d="M37 53 C37 -128 123 -166 210 -166 C297 -166 383 -123 383 53 C383 223 297 272 210 272 C123 272 37 223 37 53 L37 53 Z M131 53 C131 167 165 196 210 196 C254 196 289 163 289 53 C289 -64 254 -90 210 -90 C165 -90 131 -64 131 53 L131 53 Z " />
<glyph glyph-name="one.inferior" unicode="&#x2081;" horiz-adv-x="334" d="M251 -155 L251 262 L174 262 C158 227 93 200 63 193 L63 107 C88 113 136 132 161 150 L161 -155 L251 -155 Z " />
<glyph glyph-name="two.inferior" unicode="&#x2082;" horiz-adv-x="420" d="M57 -155 L365 -155 L365 -76 L167 -76 C291 6 361 69 361 153 C361 231 307 273 218 273 C56 273 56 119 56 119 L142 119 C142 119 144 197 213 197 C258 197 267 170 267 147 C267 75 184 20 57 -85 L57 -155 Z " />
<glyph glyph-name="three.inferior" unicode="&#x2083;" horiz-adv-x="420" d="M49 -18 C49 -60 67 -166 215 -166 C325 -166 375 -113 375 -33 C375 60 282 66 279 66 C287 67 361 84 361 164 C361 224 317 272 221 272 C96 272 65 181 64 138 L147 138 C150 156 158 198 214 198 C251 198 268 181 268 151 C268 111 243 94 185 94 L163 94 L163 28 L188 28 C251 28 281 14 281 -31 C281 -71 259 -92 214 -92 C138 -92 134 -31 134 -18 L49 -18 Z " />
<glyph glyph-name="four.inferior" unicode="&#x2084;" horiz-adv-x="420" d="M44 -68 L237 -68 L237 -155 L328 -155 L328 -68 L375 -68 L375 2 L328 2 L328 262 L231 262 L44 -6 L44 -68 Z M120 2 L237 170 L237 2 L120 2 Z " />
<glyph glyph-name="five.inferior" unicode="&#x2085;" horiz-adv-x="420" d="M64 -38 C64 -51 69 -166 214 -166 C333 -166 368 -85 368 -10 C368 58 334 121 242 121 C181 121 157 94 157 94 L174 191 L339 191 L339 262 L113 262 L75 26 L150 17 C150 17 165 55 214 55 C260 55 274 19 274 -13 C274 -53 261 -93 210 -93 C153 -93 146 -43 145 -38 L64 -38 Z " />
<glyph glyph-name="six.inferior" unicode="&#x2086;" horiz-adv-x="420" d="M361 156 C358 178 339 272 226 272 C79 272 50 132 50 26 C50 -82 90 -166 217 -166 C315 -166 373 -108 373 -15 C373 72 320 120 237 120 C170 120 141 83 140 81 C145 135 159 201 220 201 C270 201 275 156 275 156 L361 156 Z M215 -96 C173 -96 149 -69 149 -20 C149 32 181 51 215 51 C254 51 280 28 280 -22 C280 -71 257 -96 215 -96 L215 -96 Z " />
<glyph glyph-name="seven.inferior" unicode="&#x2087;" horiz-adv-x="376" d="M174 -155 C200 17 337 196 337 196 L337 262 L41 262 L41 188 L249 188 C219 153 116 19 75 -155 L174 -155 Z " />
<glyph glyph-name="eight.inferior" unicode="&#x2088;" horiz-adv-x="420" d="M47 -40 C47 -136 128 -165 210 -165 C295 -165 373 -133 373 -40 C373 48 289 66 284 67 C291 69 355 90 355 160 C355 239 286 272 210 272 C134 272 65 239 65 160 C65 87 129 68 132 67 C124 65 47 42 47 -40 L47 -40 Z M139 -34 C139 9 172 28 210 28 C249 28 282 9 282 -34 C282 -77 254 -96 210 -96 C168 -96 139 -76 139 -34 L139 -34 Z M156 155 C156 191 180 206 210 206 C241 206 266 191 266 155 C266 119 241 103 210 103 C180 103 156 119 156 155 L156 155 Z " />
<glyph glyph-name="nine.inferior" unicode="&#x2089;" horiz-adv-x="420" d="M58 -48 C58 -48 58 -166 208 -166 C354 -166 373 -27 373 82 C373 194 325 272 206 272 C110 272 47 216 47 121 C47 35 103 -13 187 -13 C250 -13 279 23 281 25 C280 -36 273 -96 208 -96 C146 -96 142 -48 142 -48 L58 -48 Z M141 128 C141 179 167 203 207 203 C245 203 272 180 272 129 C272 75 239 55 205 55 C169 55 141 75 141 128 L141 128 Z " />
<glyph glyph-name="Euro" unicode="&#x20ac;" horiz-adv-x="606" d="M40 244 L108 244 C127 57 205 -17 344 -17 C560 -17 564 203 564 215 L464 215 C464 206 462 70 344 70 C261 70 224 130 212 244 L380 244 L380 311 L208 311 L208 346 L208 390 L380 390 L380 457 L214 457 C226 551 260 625 345 625 C454 625 457 491 457 483 L557 483 C557 497 553 712 346 712 C209 712 133 610 110 457 L40 457 L40 390 L104 390 C104 375 103 361 103 346 L103 311 L40 311 L40 244 Z " />
<glyph glyph-name="trademark" unicode="&#x2122;" horiz-adv-x="513" d="M253 469 L312 469 L312 555 C312 585 310 619 310 620 C311 617 322 588 333 565 L356 514 L392 514 L415 565 C426 589 437 620 438 621 C438 620 435 588 435 555 L435 469 L493 469 L493 712 L429 712 L394 629 C383 605 374 581 374 581 C373 582 363 606 353 629 L316 712 L253 712 L253 469 Z M95 469 L156 469 L156 660 L222 660 L222 712 L28 712 L28 660 L95 660 L95 469 Z " />
<glyph glyph-name="onethird" unicode="&#x2153;" horiz-adv-x="998" d="M627 137 C627 95 645 -11 793 -11 C903 -11 953 42 953 122 C953 215 860 221 857 221 C865 222 939 239 939 319 C939 379 895 427 799 427 C674 427 643 336 642 293 L725 293 C728 311 736 353 792 353 C829 353 846 336 846 306 C846 266 821 249 763 249 L741 249 L741 183 L766 183 C829 183 859 169 859 124 C859 84 837 63 792 63 C716 63 712 124 712 137 L627 137 Z M225 -10 L317 -10 L768 703 L676 703 L225 -10 Z M288 285 L288 702 L211 702 C195 667 130 640 100 633 L100 547 C125 553 173 572 198 590 L198 285 L288 285 Z " />
<glyph glyph-name="twothirds" unicode="&#x2154;" horiz-adv-x="998" d="M627 137 C627 95 645 -11 793 -11 C903 -11 953 42 953 122 C953 215 860 221 857 221 C865 222 939 239 939 319 C939 379 895 427 799 427 C674 427 643 336 642 293 L725 293 C728 311 736 353 792 353 C829 353 846 336 846 306 C846 266 821 249 763 249 L741 249 L741 183 L766 183 C829 183 859 169 859 124 C859 84 837 63 792 63 C716 63 712 124 712 137 L627 137 Z M57 285 L365 285 L365 364 L167 364 C291 446 361 509 361 593 C361 671 307 713 218 713 C56 713 56 559 56 559 L142 559 C142 559 144 637 213 637 C258 637 267 610 267 587 C267 515 184 460 57 355 L57 285 Z M225 -10 L317 -10 L768 703 L676 703 L225 -10 Z " />
<glyph glyph-name="onefifth" unicode="&#x2155;" horiz-adv-x="998" d="M225 -10 L317 -10 L768 703 L676 703 L225 -10 Z M288 285 L288 702 L211 702 C195 667 130 640 100 633 L100 547 C125 553 173 572 198 590 L198 285 L288 285 Z M636 117 C636 104 641 -11 786 -11 C905 -11 940 70 940 145 C940 213 906 276 814 276 C753 276 729 249 729 249 L746 346 L911 346 L911 417 L685 417 L647 181 L722 172 C722 172 737 210 786 210 C832 210 846 174 846 142 C846 102 833 62 782 62 C725 62 718 112 717 117 L636 117 Z " />
<glyph glyph-name="twofifths" unicode="&#x2156;" horiz-adv-x="998" d="M57 285 L365 285 L365 364 L167 364 C291 446 361 509 361 593 C361 671 307 713 218 713 C56 713 56 559 56 559 L142 559 C142 559 144 637 213 637 C258 637 267 610 267 587 C267 515 184 460 57 355 L57 285 Z M225 -10 L317 -10 L768 703 L676 703 L225 -10 Z M636 117 C636 104 641 -11 786 -11 C905 -11 940 70 940 145 C940 213 906 276 814 276 C753 276 729 249 729 249 L746 346 L911 346 L911 417 L685 417 L647 181 L722 172 C722 172 737 210 786 210 C832 210 846 174 846 142 C846 102 833 62 782 62 C725 62 718 112 717 117 L636 117 Z " />
<glyph glyph-name="threefifths" unicode="&#x2157;" horiz-adv-x="998" d="M49 422 C49 380 67 274 215 274 C325 274 375 327 375 407 C375 500 282 506 279 506 C287 507 361 524 361 604 C361 664 317 712 221 712 C96 712 65 621 64 578 L147 578 C150 596 158 638 214 638 C251 638 268 621 268 591 C268 551 243 534 185 534 L163 534 L163 468 L188 468 C251 468 281 454 281 409 C281 369 259 348 214 348 C138 348 134 409 134 422 L49 422 Z M636 117 C636 104 641 -11 786 -11 C905 -11 940 70 940 145 C940 213 906 276 814 276 C753 276 729 249 729 249 L746 346 L911 346 L911 417 L685 417 L647 181 L722 172 C722 172 737 210 786 210 C832 210 846 174 846 142 C846 102 833 62 782 62 C725 62 718 112 717 117 L636 117 Z M225 -10 L317 -10 L768 703 L676 703 L225 -10 Z " />
<glyph glyph-name="fourfifths" unicode="&#x2158;" horiz-adv-x="998" d="M44 372 L237 372 L237 285 L328 285 L328 372 L375 372 L375 442 L328 442 L328 702 L231 702 L44 434 L44 372 Z M120 442 L237 610 L237 442 L120 442 Z M225 -10 L317 -10 L768 703 L676 703 L225 -10 Z M636 117 C636 104 641 -11 786 -11 C905 -11 940 70 940 145 C940 213 906 276 814 276 C753 276 729 249 729 249 L746 346 L911 346 L911 417 L685 417 L647 181 L722 172 C722 172 737 210 786 210 C832 210 846 174 846 142 C846 102 833 62 782 62 C725 62 718 112 717 117 L636 117 Z " />
<glyph glyph-name="onesixth" unicode="&#x2159;" horiz-adv-x="998" d="M937 311 C934 333 915 427 802 427 C655 427 626 287 626 181 C626 73 666 -11 793 -11 C891 -11 949 47 949 140 C949 227 896 275 813 275 C746 275 717 238 716 236 C721 290 735 356 796 356 C846 356 851 311 851 311 L937 311 Z M225 -10 L317 -10 L768 703 L676 703 L225 -10 Z M288 285 L288 702 L211 702 C195 667 130 640 100 633 L100 547 C125 553 173 572 198 590 L198 285 L288 285 Z M791 59 C749 59 725 86 725 135 C725 187 757 206 791 206 C830 206 856 183 856 133 C856 84 833 59 791 59 L791 59 Z " />
<glyph glyph-name="fivesixths" unicode="&#x215a;" horiz-adv-x="998" d="M937 311 C934 333 915 427 802 427 C655 427 626 287 626 181 C626 73 666 -11 793 -11 C891 -11 949 47 949 140 C949 227 896 275 813 275 C746 275 717 238 716 236 C721 290 735 356 796 356 C846 356 851 311 851 311 L937 311 Z M58 402 C58 389 63 274 208 274 C327 274 362 355 362 430 C362 498 328 561 236 561 C175 561 151 534 151 534 L168 631 L333 631 L333 702 L107 702 L69 466 L144 457 C144 457 159 495 208 495 C254 495 268 459 268 427 C268 387 255 347 204 347 C147 347 140 397 139 402 L58 402 Z M225 -10 L317 -10 L768 703 L676 703 L225 -10 Z M791 59 C749 59 725 86 725 135 C725 187 757 206 791 206 C830 206 856 183 856 133 C856 84 833 59 791 59 L791 59 Z " />
<glyph glyph-name="oneeighth" unicode="&#x215b;" horiz-adv-x="998" d="M624 115 C624 19 705 -10 787 -10 C872 -10 950 22 950 115 C950 203 866 221 861 222 C868 224 932 245 932 315 C932 394 863 427 787 427 C711 427 642 394 642 315 C642 242 706 223 709 222 C701 220 624 197 624 115 L624 115 Z M225 -10 L317 -10 L768 703 L676 703 L225 -10 Z M288 285 L288 702 L211 702 C195 667 130 640 100 633 L100 547 C125 553 173 572 198 590 L198 285 L288 285 Z M716 121 C716 164 749 183 787 183 C826 183 859 164 859 121 C859 78 831 59 787 59 C745 59 716 79 716 121 L716 121 Z M733 310 C733 346 757 361 787 361 C818 361 843 346 843 310 C843 274 818 258 787 258 C757 258 733 274 733 310 L733 310 Z " />
<glyph glyph-name="threeeighths" unicode="&#x215c;" horiz-adv-x="998" d="M624 115 C624 19 705 -10 787 -10 C872 -10 950 22 950 115 C950 203 866 221 861 222 C868 224 932 245 932 315 C932 394 863 427 787 427 C711 427 642 394 642 315 C642 242 706 223 709 222 C701 220 624 197 624 115 L624 115 Z M49 422 C49 380 67 274 215 274 C325 274 375 327 375 407 C375 500 282 506 279 506 C287 507 361 524 361 604 C361 664 317 712 221 712 C96 712 65 621 64 578 L147 578 C150 596 158 638 214 638 C251 638 268 621 268 591 C268 551 243 534 185 534 L163 534 L163 468 L188 468 C251 468 281 454 281 409 C281 369 259 348 214 348 C138 348 134 409 134 422 L49 422 Z M225 -10 L317 -10 L768 703 L676 703 L225 -10 Z M716 121 C716 164 749 183 787 183 C826 183 859 164 859 121 C859 78 831 59 787 59 C745 59 716 79 716 121 L716 121 Z M733 310 C733 346 757 361 787 361 C818 361 843 346 843 310 C843 274 818 258 787 258 C757 258 733 274 733 310 L733 310 Z " />
<glyph glyph-name="fiveeighths" unicode="&#x215d;" horiz-adv-x="998" d="M624 115 C624 19 705 -10 787 -10 C872 -10 950 22 950 115 C950 203 866 221 861 222 C868 224 932 245 932 315 C932 394 863 427 787 427 C711 427 642 394 642 315 C642 242 706 223 709 222 C701 220 624 197 624 115 L624 115 Z M58 402 C58 389 63 274 208 274 C327 274 362 355 362 430 C362 498 328 561 236 561 C175 561 151 534 151 534 L168 631 L333 631 L333 702 L107 702 L69 466 L144 457 C144 457 159 495 208 495 C254 495 268 459 268 427 C268 387 255 347 204 347 C147 347 140 397 139 402 L58 402 Z M225 -10 L317 -10 L768 703 L676 703 L225 -10 Z M716 121 C716 164 749 183 787 183 C826 183 859 164 859 121 C859 78 831 59 787 59 C745 59 716 79 716 121 L716 121 Z M733 310 C733 346 757 361 787 361 C818 361 843 346 843 310 C843 274 818 258 787 258 C757 258 733 274 733 310 L733 310 Z " />
<glyph glyph-name="seveneighths" unicode="&#x215e;" horiz-adv-x="998" d="M624 115 C624 19 705 -10 787 -10 C872 -10 950 22 950 115 C950 203 866 221 861 222 C868 224 932 245 932 315 C932 394 863 427 787 427 C711 427 642 394 642 315 C642 242 706 223 709 222 C701 220 624 197 624 115 L624 115 Z M225 -10 L317 -10 L768 703 L676 703 L225 -10 Z M195 285 C221 457 358 636 358 636 L358 702 L62 702 L62 628 L270 628 C240 593 137 459 96 285 L195 285 Z M716 121 C716 164 749 183 787 183 C826 183 859 164 859 121 C859 78 831 59 787 59 C745 59 716 79 716 121 L716 121 Z M733 310 C733 346 757 361 787 361 C818 361 843 346 843 310 C843 274 818 258 787 258 C757 258 733 274 733 310 L733 310 Z " />
<glyph glyph-name="onefraction" unicode="&#x215f;" horiz-adv-x="579" d="M288 285 L288 702 L211 702 C195 667 130 640 100 633 L100 547 C125 553 173 572 198 590 L198 285 L288 285 Z M225 -10 L317 -10 L768 703 L676 703 L225 -10 Z " />
<glyph glyph-name="partialdiff" unicode="&#x2202;" horiz-adv-x="606" d="M133 639 C133 639 184 683 260 683 C396 683 441 545 445 425 C446 415 445 405 445 394 C445 394 394 478 283 478 C161 478 67 379 67 221 C67 84 134 -8 275 -8 C454 -8 539 163 539 395 C539 651 426 767 266 767 C169 767 97 716 97 716 L133 639 Z M278 77 C201 77 169 138 169 222 C169 318 210 393 295 393 C361 393 415 337 429 300 C423 153 360 77 278 77 L278 77 Z " />
<glyph glyph-name="product" unicode="&#x220f;" horiz-adv-x="606" d="M631 611 L631 697 L-24 697 L-24 611 L85 611 L85 0 L187 0 L187 611 L423 611 L423 0 L525 0 L525 611 L631 611 Z " />
<glyph glyph-name="summation" unicode="&#x2211;" horiz-adv-x="606" d="M562 -98 L562 -12 L165 -12 L397 302 L176 611 L547 611 L547 697 L54 697 L54 612 L275 300 L43 -20 L43 -98 L562 -98 Z " />
<glyph glyph-name="minus" unicode="&#x2212;" horiz-adv-x="606" d="M82 211 L524 211 L524 297 L82 297 L82 211 Z " />
<glyph glyph-name="radical" unicode="&#x221a;" horiz-adv-x="606" d="M623 743 L623 828 L438 828 L213 139 L95 504 L-16 504 L167 -8 L260 -8 L513 743 L623 743 Z " />
<glyph glyph-name="infinity" unicode="&#x221e;" horiz-adv-x="606" d="M644 286 C644 381 580 448 483 448 C393 448 339 377 307 342 C273 383 219 448 129 448 C34 448 -38 382 -38 281 C-38 172 39 118 127 118 C217 118 272 184 305 223 C347 171 401 118 479 118 C570 118 644 183 644 286 L644 286 Z M134 196 C86 196 52 230 52 284 C52 339 86 370 132 370 C186 370 222 326 257 280 C220 237 186 196 134 196 L134 196 Z M477 196 C436 196 401 223 354 284 C394 331 431 370 478 370 C525 370 555 336 555 281 C555 238 526 196 477 196 L477 196 Z " />
<glyph glyph-name="integral" unicode="&#x222b;" horiz-adv-x="606" d="M353 670 C353 719 363 765 425 765 C449 765 475 759 475 759 L475 841 C475 841 443 849 404 849 C286 849 252 767 252 651 L252 23 C252 -29 242 -77 178 -77 C154 -77 131 -72 131 -72 L131 -154 C131 -154 164 -162 202 -162 C319 -162 353 -80 353 37 L353 670 Z " />
<glyph glyph-name="approxequal" unicode="&#x2248;" horiz-adv-x="606" d="M157 274 C157 274 157 334 213 334 C269 334 320 267 406 267 C529 267 523 418 523 418 L452 418 C452 418 453 355 401 355 C332 355 288 422 205 422 C104 422 81 322 81 274 L157 274 Z M157 81 C157 81 157 141 213 141 C269 141 320 74 406 74 C529 74 523 225 523 225 L452 225 C452 225 453 162 401 162 C332 162 288 229 205 229 C104 229 81 129 81 81 L157 81 Z " />
<glyph glyph-name="notequal" unicode="&#x2260;" horiz-adv-x="606" d="M82 304 L272 304 L242 213 L82 213 L82 127 L214 127 L178 16 L270 16 L306 127 L524 127 L524 213 L334 213 L363 304 L524 304 L524 390 L391 390 L427 498 L336 498 L300 390 L82 390 L82 304 Z " />
<glyph glyph-name="lessequal" unicode="&#x2264;" horiz-adv-x="606" d="M82 361 L82 274 L524 138 L524 227 L192 319 L524 411 L524 500 L82 361 Z M82 0 L524 0 L524 83 L82 83 L82 0 Z " />
<glyph glyph-name="greaterequal" unicode="&#x2265;" horiz-adv-x="606" d="M523 83 L82 83 L82 0 L523 0 L523 83 Z M82 500 L82 410 L414 318 L82 227 L82 138 L524 274 L524 361 L82 500 Z " />
<glyph glyph-name="lozenge" unicode="&#x25ca;" horiz-adv-x="606" d="M544 346 L347 739 L262 739 L62 346 L259 -46 L344 -46 L544 346 Z M443 344 L304 60 L164 348 L304 631 L443 344 Z " />
<glyph glyph-name="Dotaccent" unicode="&#xefed;" horiz-adv-x="117" d="M0 792 L117 792 L117 909 L0 909 L0 792 Z " />
<glyph glyph-name="Breve" unicode="&#xefee;" horiz-adv-x="294" d="M0 907 C0 883 3 776 149 776 C291 776 294 891 294 907 L199 907 C199 890 198 841 148 841 C98 841 97 890 97 907 L0 907 Z " />
<glyph glyph-name="Ogonek" unicode="&#xeff1;" horiz-adv-x="186" d="M186 -133 C186 -133 170 -139 150 -139 C124 -139 97 -129 97 -93 C97 -57 125 -25 161 0 L97 0 C46 -30 0 -63 0 -121 C0 -180 57 -202 105 -202 C144 -202 176 -190 186 -182 L186 -133 Z " />
<glyph glyph-name="Cedilla" unicode="&#xeff2;" horiz-adv-x="207" d="M0 -219 C8 -221 32 -233 65 -233 C155 -233 206 -185 206 -132 C206 -103 191 -57 117 -57 C112 -57 107 -57 103 -58 L131 0 L73 0 L29 -86 L47 -105 C54 -103 65 -101 77 -101 C101 -101 121 -108 121 -135 C121 -170 89 -181 56 -181 C34 -181 19 -173 19 -173 L0 -219 Z " />
<glyph glyph-name="Ring" unicode="&#xeff3;" horiz-adv-x="239" d="M1 842 C1 773 56 734 119 734 C183 734 238 773 238 842 C238 910 183 950 119 950 C56 950 1 910 1 842 L1 842 Z M68 842 C68 871 88 892 119 892 C150 892 170 871 170 842 C170 813 150 791 119 791 C88 791 68 813 68 842 L68 842 Z " />
<glyph glyph-name="Tilde" unicode="&#xeff5;" horiz-adv-x="312" d="M69 782 C69 792 70 824 98 824 C133 824 165 776 229 776 C308 776 312 864 311 901 L246 901 C246 893 246 854 217 854 C177 854 151 905 92 905 C11 905 0 820 1 782 L69 782 Z " />
<glyph glyph-name="Circumflex" unicode="&#xeff7;" horiz-adv-x="321" d="M91 907 L0 778 L109 778 L158 857 L206 778 L321 778 L230 907 L91 907 Z " />
<glyph glyph-name="one.superior" unicode="&#xf06d;" horiz-adv-x="334" d="M251 386 L251 803 L174 803 C158 768 93 741 63 734 L63 648 C88 654 136 673 161 691 L161 386 L251 386 Z " />
<glyph glyph-name="two.superior" unicode="&#xf06e;" horiz-adv-x="420" d="M57 386 L365 386 L365 465 L167 465 C291 547 361 610 361 694 C361 772 307 814 218 814 C56 814 56 660 56 660 L142 660 C142 660 144 738 213 738 C258 738 267 711 267 688 C267 616 184 561 57 456 L57 386 Z " />
<glyph glyph-name="three.superior" unicode="&#xf06f;" horiz-adv-x="420" d="M49 523 C49 481 67 375 215 375 C325 375 375 428 375 508 C375 601 282 607 279 607 C287 608 361 625 361 705 C361 765 317 813 221 813 C96 813 65 722 64 679 L147 679 C150 697 158 739 214 739 C251 739 268 722 268 692 C268 652 243 635 185 635 L163 635 L163 569 L188 569 C251 569 281 555 281 510 C281 470 259 449 214 449 C138 449 134 510 134 523 L49 523 Z " />
<glyph glyph-name="Mcircumflex" unicode="&#xf116;" horiz-adv-x="806" d="M90 0 L193 0 L193 344 C193 452 191 526 191 527 C194 520 222 450 256 377 L370 124 L433 124 L550 378 C583 450 613 524 615 527 C615 526 613 447 613 343 L613 0 L717 0 L717 712 L602 712 L484 456 C444 368 403 271 403 271 C403 271 363 369 323 456 L207 712 L90 712 L90 0 Z M333 907 L242 778 L351 778 L400 857 L448 778 L563 778 L472 907 L333 907 Z " />
<glyph glyph-name="mcircumflex" unicode="&#xf117;" horiz-adv-x="843" d="M353 704 L262 576 L369 576 L418 656 L468 576 L581 576 L490 704 L353 704 Z M77 0 L179 0 L179 294 C179 395 238 423 283 423 C358 423 371 375 371 294 L371 0 L473 0 L473 296 C473 394 532 423 578 423 C653 423 666 375 666 294 L666 0 L768 0 L768 326 C768 448 716 507 611 507 C502 507 455 424 455 424 C455 424 427 507 317 507 C212 507 178 427 178 427 L175 496 L77 496 L77 0 Z " />
<glyph glyph-name="Gtilde" unicode="&#xf11b;" horiz-adv-x="698" d="M542 0 L632 0 L632 382 L368 382 L368 293 L534 293 L534 288 C534 175 482 81 356 81 C194 81 160 218 160 357 C160 527 220 640 354 640 C496 640 514 508 514 508 L622 508 C622 508 599 730 356 730 C137 730 51 551 51 355 C51 76 184 -10 339 -10 C494 -10 539 99 539 99 L542 0 Z M260 782 C260 792 261 824 289 824 C324 824 356 776 420 776 C499 776 503 864 502 901 L437 901 C437 893 437 854 408 854 C368 854 342 905 283 905 C202 905 191 820 192 782 L260 782 Z " />
<glyph glyph-name="gtilde" unicode="&#xf11c;" horiz-adv-x="565" d="M488 496 L387 496 L386 435 C386 435 350 507 247 507 C102 507 44 382 44 251 C44 116 101 7 242 7 C351 7 386 83 386 83 L386 18 C386 -104 341 -132 272 -132 C165 -132 161 -47 161 -47 L65 -47 C65 -47 60 -214 272 -214 C427 -214 488 -124 488 12 L488 496 Z M386 266 C386 169 358 87 264 87 C208 87 146 118 146 253 C146 357 182 425 264 425 C352 425 386 350 386 266 L386 266 Z M187 579 C187 589 188 621 216 621 C251 621 283 573 347 573 C426 573 430 661 429 698 L366 698 C366 690 366 651 337 651 C297 651 269 702 210 702 C129 702 118 617 119 579 L187 579 Z " />
<glyph glyph-name="Ncircumflex" unicode="&#xf127;" horiz-adv-x="731" d="M305 907 L214 778 L323 778 L372 857 L420 778 L535 778 L444 907 L305 907 Z M90 0 L193 0 L193 341 C193 471 190 556 190 556 C190 556 235 474 297 375 L532 0 L642 0 L642 712 L538 712 L538 380 C538 256 541 162 541 162 C541 162 492 250 436 339 L203 712 L90 712 L90 0 Z " />
<glyph glyph-name="ncircumflex" unicode="&#xf128;" horiz-adv-x="563" d="M219 704 L128 576 L235 576 L284 656 L334 576 L447 576 L356 704 L219 704 Z M77 0 L179 0 L179 294 C179 395 246 423 291 423 C366 423 386 373 386 294 L386 0 L488 0 L488 326 C488 442 437 507 325 507 C218 507 178 427 178 427 L175 496 L77 496 L77 0 Z " />
<glyph glyph-name="Commaaccent" unicode="&#xf12a;" horiz-adv-x="125" d="M0 -160 L56 -160 C57 -180 46 -205 3 -212 L3 -283 C97 -269 125 -222 125 -130 L125 -53 L0 -53 L0 -160 Z " />
<glyph glyph-name="Ndieresis" unicode="&#xf12c;" horiz-adv-x="731" d="M223 792 L335 792 L335 905 L223 905 L223 792 Z M416 792 L526 792 L526 905 L416 905 L416 792 Z M90 0 L193 0 L193 341 C193 471 190 556 190 556 C190 556 235 474 297 375 L532 0 L642 0 L642 712 L538 712 L538 380 C538 256 541 162 541 162 C541 162 492 250 436 339 L203 712 L90 712 L90 0 Z " />
<glyph glyph-name="ndieresis" unicode="&#xf12d;" horiz-adv-x="563" d="M128 586 L239 586 L239 699 L128 699 L128 586 Z M321 586 L431 586 L431 699 L321 699 L321 586 Z M77 0 L179 0 L179 294 C179 395 246 423 291 423 C366 423 386 373 386 294 L386 0 L488 0 L488 326 C488 442 437 507 325 507 C218 507 178 427 178 427 L175 496 L77 496 L77 0 Z " />
<glyph glyph-name="zeroone" unicode="&#xf150;" horiz-adv-x="998" d="M37 493 C37 312 123 274 210 274 C297 274 383 317 383 493 C383 663 297 712 210 712 C123 712 37 663 37 493 L37 493 Z M131 493 C131 607 165 636 210 636 C254 636 289 603 289 493 C289 376 254 350 210 350 C165 350 131 376 131 493 L131 493 Z M866 0 L866 417 L789 417 C773 382 708 355 678 348 L678 262 C703 268 751 287 776 305 L776 0 L866 0 Z M225 -10 L317 -10 L768 703 L676 703 L225 -10 Z " />
<glyph glyph-name="oneone" unicode="&#xf151;" horiz-adv-x="998" d="M288 285 L288 702 L211 702 C195 667 130 640 100 633 L100 547 C125 553 173 572 198 590 L198 285 L288 285 Z M866 0 L866 417 L789 417 C773 382 708 355 678 348 L678 262 C703 268 751 287 776 305 L776 0 L866 0 Z M225 -10 L317 -10 L768 703 L676 703 L225 -10 Z " />
<glyph glyph-name="Euro.fitted" unicode="&#xf176;" horiz-adv-x="739" d="M57 384 L144 384 C143 372 143 359 143 347 C143 332 143 317 144 303 L57 303 L57 236 L151 236 C176 82 261 -17 438 -17 C703 -17 710 244 710 244 L609 244 C609 244 607 70 438 70 C321 70 275 146 257 236 L497 236 L497 303 L249 303 C248 318 248 334 248 349 C248 361 248 372 249 384 L497 384 L497 451 L256 451 C281 584 358 624 439 624 C593 624 601 463 601 463 L703 463 C703 463 694 711 439 711 C282 711 180 614 151 451 L57 451 L57 384 Z " />
<glyph glyph-name="commaascender" unicode="&#xf206;" horiz-adv-x="125" d="M0 605 L56 605 C57 585 46 559 3 553 L3 482 C97 496 125 542 125 635 L125 712 L0 712 L0 605 Z " />
<glyph glyph-name="Germandbls" unicode="&#xf211;" horiz-adv-x="1195" d="M50 224 C50 97 123 -17 321 -17 C486 -17 554 73 554 196 C554 433 180 374 180 537 C180 606 221 640 297 640 C394 640 425 572 427 506 L532 506 C531 633 456 730 297 730 C151 730 74 648 74 531 C74 282 448 351 448 188 C448 107 404 73 320 73 C211 73 160 137 157 224 L50 224 Z M647 224 C647 97 720 -17 918 -17 C1083 -17 1151 73 1151 196 C1151 433 777 374 777 537 C777 606 818 640 894 640 C991 640 1022 572 1024 506 L1129 506 C1128 633 1053 730 894 730 C748 730 671 648 671 531 C671 282 1045 351 1045 188 C1045 107 1001 73 917 73 C808 73 757 137 754 224 L647 224 Z " />
<glyph glyph-name="Commaascender" unicode="&#xf237;" horiz-adv-x="125" d="M0 605 L56 605 C57 585 46 559 3 553 L3 482 C97 496 125 542 125 635 L125 712 L0 712 L0 605 Z " />
<glyph glyph-name="zerozero" unicode="&#xf303;" horiz-adv-x="998" d="M37 493 C37 312 123 274 210 274 C297 274 383 317 383 493 C383 663 297 712 210 712 C123 712 37 663 37 493 L37 493 Z M131 493 C131 607 165 636 210 636 C254 636 289 603 289 493 C289 376 254 350 210 350 C165 350 131 376 131 493 L131 493 Z M615 208 C615 27 701 -11 788 -11 C875 -11 961 32 961 208 C961 378 875 427 788 427 C701 427 615 378 615 208 L615 208 Z M709 208 C709 322 743 351 788 351 C832 351 867 318 867 208 C867 91 832 65 788 65 C743 65 709 91 709 208 L709 208 Z M225 -10 L317 -10 L768 703 L676 703 L225 -10 Z " />
<glyph glyph-name="cedillatog" unicode="&#xf30f;" horiz-adv-x="125" d="M124 688 L68 688 C67 708 78 733 121 740 L121 811 C27 797 -1 750 -1 658 L-1 581 L124 581 L124 688 Z " />
<glyph glyph-name="h.superior" unicode="&#xf637;" horiz-adv-x="390" d="M56 353 L145 353 L145 536 C145 585 175 600 200 600 C236 600 245 576 245 536 L245 353 L335 353 L335 555 C335 639 299 670 236 670 C173 670 146 625 145 622 L145 780 L56 780 L56 353 Z " />
<glyph glyph-name="zero.fitted" unicode="&#xf639;" horiz-adv-x="609" d="M52 350 C52 53 170 -17 304 -17 C438 -17 556 60 556 350 C556 627 438 712 304 712 C170 712 52 624 52 350 L52 350 Z M157 350 C157 567 223 625 304 625 C385 625 451 564 451 350 C451 122 385 70 304 70 C223 70 157 122 157 350 L157 350 Z " />
<glyph glyph-name="two.fitted" unicode="&#xf63a;" horiz-adv-x="561" d="M53 0 L515 0 L515 92 L179 92 C387 258 511 359 511 519 C511 640 437 712 302 712 C60 712 61 469 61 469 L159 469 C159 469 160 625 299 625 C387 625 406 564 406 516 C406 363 235 252 53 84 L53 0 Z " />
<glyph glyph-name="three.fitted" unicode="&#xf63b;" horiz-adv-x="566" d="M46 219 C46 189 45 -17 295 -17 C446 -17 528 65 528 198 C528 358 384 371 376 372 C387 374 503 398 503 538 C503 645 430 712 299 712 C107 712 73 558 71 498 L167 498 C171 531 183 625 294 625 C366 625 398 589 398 527 C398 443 344 410 257 410 L221 410 L221 323 L258 323 C361 323 423 294 423 197 C423 114 382 70 294 70 C154 70 143 188 143 219 L46 219 Z " />
<glyph glyph-name="four.fitted" unicode="&#xf63c;" horiz-adv-x="575" d="M41 148 L359 148 L359 0 L462 0 L462 148 L539 148 L539 234 L462 234 L462 697 L348 697 L41 227 L41 148 Z M138 234 L359 577 L359 234 L138 234 Z " />
<glyph glyph-name="five.fitted" unicode="&#xf63d;" horiz-adv-x="543" d="M43 187 C43 187 44 -17 274 -17 C452 -17 506 114 506 239 C506 353 450 461 307 461 C206 461 164 404 164 404 L197 610 L464 610 L464 697 L124 697 L64 309 L158 296 C158 296 187 376 284 376 C376 376 401 299 401 235 C401 150 376 70 273 70 C144 70 140 187 140 187 L43 187 Z " />
<glyph glyph-name="six.fitted" unicode="&#xf63e;" horiz-adv-x="575" d="M516 532 C505 601 459 712 315 712 C97 712 55 478 55 305 C55 141 104 -17 301 -17 C451 -17 534 91 534 226 C534 359 450 454 320 454 C198 454 156 367 156 367 C163 481 190 625 310 625 C407 625 416 532 416 532 L516 532 Z M300 70 C216 70 169 128 169 223 C169 329 234 369 300 369 C377 369 429 319 429 219 C429 125 386 70 300 70 L300 70 Z " />
<glyph glyph-name="seven.fitted" unicode="&#xf63f;" horiz-adv-x="492" d="M200 0 C261 352 473 611 473 611 L473 697 L22 697 L22 608 L370 608 C351 588 172 371 83 0 L200 0 Z " />
<glyph glyph-name="eight.fitted" unicode="&#xf640;" horiz-adv-x="578" d="M45 190 C45 34 165 -17 289 -17 C417 -17 534 43 534 190 C534 334 402 368 389 371 C399 374 502 407 502 528 C502 651 404 712 289 712 C177 712 77 651 77 528 C77 403 178 372 183 371 C174 369 45 333 45 190 L45 190 Z M150 196 C150 282 213 323 289 323 C365 323 429 282 429 196 C429 110 379 69 289 69 C204 69 150 112 150 196 L150 196 Z M182 525 C182 597 230 628 289 628 C348 628 397 597 397 525 C397 450 348 417 289 417 C230 417 182 450 182 525 L182 525 Z " />
<glyph glyph-name="nine.fitted" unicode="&#xf641;" horiz-adv-x="583" d="M63 163 C63 163 68 -17 284 -17 C506 -17 529 220 529 399 C529 562 471 712 284 712 C143 712 50 611 50 463 C50 326 131 239 264 239 C383 239 425 320 425 320 C421 207 409 69 283 69 C170 69 162 163 162 163 L63 163 Z M155 470 C155 569 204 625 286 625 C364 625 414 570 414 473 C414 364 346 323 280 323 C208 323 155 371 155 470 L155 470 Z " />
<glyph glyph-name="zero.numerator" unicode="&#xf655;" horiz-adv-x="420" d="M37 493 C37 312 123 274 210 274 C297 274 383 317 383 493 C383 663 297 712 210 712 C123 712 37 663 37 493 L37 493 Z M131 493 C131 607 165 636 210 636 C254 636 289 603 289 493 C289 376 254 350 210 350 C165 350 131 376 131 493 L131 493 Z " />
<glyph glyph-name="one.numerator" unicode="&#xf656;" horiz-adv-x="420" d="M288 285 L288 702 L211 702 C195 667 130 640 100 633 L100 547 C125 553 173 572 198 590 L198 285 L288 285 Z " />
<glyph glyph-name="two.numerator" unicode="&#xf657;" horiz-adv-x="420" d="M57 285 L365 285 L365 364 L167 364 C291 446 361 509 361 593 C361 671 307 713 218 713 C56 713 56 559 56 559 L142 559 C142 559 144 637 213 637 C258 637 267 610 267 587 C267 515 184 460 57 355 L57 285 Z " />
<glyph glyph-name="three.numerator" unicode="&#xf658;" horiz-adv-x="420" d="M49 422 C49 380 67 274 215 274 C325 274 375 327 375 407 C375 500 282 506 279 506 C287 507 361 524 361 604 C361 664 317 712 221 712 C96 712 65 621 64 578 L147 578 C150 596 158 638 214 638 C251 638 268 621 268 591 C268 551 243 534 185 534 L163 534 L163 468 L188 468 C251 468 281 454 281 409 C281 369 259 348 214 348 C138 348 134 409 134 422 L49 422 Z " />
<glyph glyph-name="four.numerator" unicode="&#xf659;" horiz-adv-x="420" d="M44 372 L237 372 L237 285 L328 285 L328 372 L375 372 L375 442 L328 442 L328 702 L231 702 L44 434 L44 372 Z M120 442 L237 610 L237 442 L120 442 Z " />
<glyph glyph-name="five.numerator" unicode="&#xf65a;" horiz-adv-x="420" d="M58 402 C58 389 63 274 208 274 C327 274 362 355 362 430 C362 498 328 561 236 561 C175 561 151 534 151 534 L168 631 L333 631 L333 702 L107 702 L69 466 L144 457 C144 457 159 495 208 495 C254 495 268 459 268 427 C268 387 255 347 204 347 C147 347 140 397 139 402 L58 402 Z " />
<glyph glyph-name="six.numerator" unicode="&#xf65b;" horiz-adv-x="420" d="M359 596 C356 618 337 712 224 712 C77 712 48 572 48 466 C48 358 88 274 215 274 C313 274 371 332 371 425 C371 512 318 560 235 560 C168 560 139 523 138 521 C143 575 157 641 218 641 C268 641 273 596 273 596 L359 596 Z M213 344 C171 344 147 371 147 420 C147 472 179 491 213 491 C252 491 278 468 278 418 C278 369 255 344 213 344 L213 344 Z " />
<glyph glyph-name="seven.numerator" unicode="&#xf65c;" horiz-adv-x="420" d="M195 285 C221 457 358 636 358 636 L358 702 L62 702 L62 628 L270 628 C240 593 137 459 96 285 L195 285 Z " />
<glyph glyph-name="eight.numerator" unicode="&#xf65d;" horiz-adv-x="420" d="M46 400 C46 304 127 275 209 275 C294 275 372 307 372 400 C372 488 288 506 283 507 C290 509 354 530 354 600 C354 679 285 712 209 712 C133 712 64 679 64 600 C64 527 128 508 131 507 C123 505 46 482 46 400 L46 400 Z M138 406 C138 449 171 468 209 468 C248 468 281 449 281 406 C281 363 253 344 209 344 C167 344 138 364 138 406 L138 406 Z M155 595 C155 631 179 646 209 646 C240 646 265 631 265 595 C265 559 240 543 209 543 C179 543 155 559 155 595 L155 595 Z " />
<glyph glyph-name="nine.numerator" unicode="&#xf65e;" horiz-adv-x="420" d="M58 392 C58 392 58 274 208 274 C354 274 373 413 373 522 C373 634 325 712 206 712 C110 712 47 656 47 561 C47 475 103 427 187 427 C250 427 279 463 281 465 C280 403 273 344 208 344 C146 344 142 392 142 392 L58 392 Z M141 568 C141 619 167 643 207 643 C245 643 272 620 272 569 C272 515 239 495 205 495 C169 495 141 515 141 568 L141 568 Z " />
<glyph glyph-name="zero.denominator" unicode="&#xf661;" horiz-adv-x="420" d="M37 208 C37 27 123 -11 210 -11 C297 -11 383 32 383 208 C383 378 297 427 210 427 C123 427 37 378 37 208 L37 208 Z M131 208 C131 322 165 351 210 351 C254 351 289 318 289 208 C289 91 254 65 210 65 C165 65 131 91 131 208 L131 208 Z " />
<glyph glyph-name="one.denominator" unicode="&#xf662;" horiz-adv-x="420" d="M288 0 L288 417 L211 417 C195 382 130 355 100 348 L100 262 C125 268 173 287 198 305 L198 0 L288 0 Z " />
<glyph glyph-name="two.denominator" unicode="&#xf663;" horiz-adv-x="420" d="M57 0 L365 0 L365 79 L167 79 C291 161 361 224 361 308 C361 386 307 428 218 428 C56 428 56 274 56 274 L142 274 C142 274 144 352 213 352 C258 352 267 325 267 302 C267 230 184 175 57 70 L57 0 Z " />
<glyph glyph-name="three.denominator" unicode="&#xf664;" horiz-adv-x="420" d="M49 137 C49 95 67 -11 215 -11 C325 -11 375 42 375 122 C375 215 282 221 279 221 C287 222 361 239 361 319 C361 379 317 427 221 427 C96 427 65 336 64 293 L147 293 C150 311 158 353 214 353 C251 353 268 336 268 306 C268 266 243 249 185 249 L163 249 L163 183 L188 183 C251 183 281 169 281 124 C281 84 259 63 214 63 C138 63 134 124 134 137 L49 137 Z " />
<glyph glyph-name="four.denominator" unicode="&#xf665;" horiz-adv-x="420" d="M44 87 L237 87 L237 0 L328 0 L328 87 L375 87 L375 157 L328 157 L328 417 L231 417 L44 149 L44 87 Z M120 157 L237 325 L237 157 L120 157 Z " />
<glyph glyph-name="five.denominator" unicode="&#xf666;" horiz-adv-x="420" d="M58 117 C58 104 63 -11 208 -11 C327 -11 362 70 362 145 C362 213 328 276 236 276 C175 276 151 249 151 249 L168 346 L333 346 L333 417 L107 417 L69 181 L144 172 C144 172 159 210 208 210 C254 210 268 174 268 142 C268 102 255 62 204 62 C147 62 140 112 139 117 L58 117 Z " />
<glyph glyph-name="six.denominator" unicode="&#xf667;" horiz-adv-x="420" d="M359 311 C356 333 337 427 224 427 C77 427 48 287 48 181 C48 73 88 -11 215 -11 C313 -11 371 47 371 140 C371 227 318 275 235 275 C168 275 139 238 138 236 C143 290 157 356 218 356 C268 356 273 311 273 311 L359 311 Z M213 59 C171 59 147 86 147 135 C147 187 179 206 213 206 C252 206 278 183 278 133 C278 84 255 59 213 59 L213 59 Z " />
<glyph glyph-name="seven.denominator" unicode="&#xf668;" horiz-adv-x="420" d="M195 0 C221 172 358 351 358 351 L358 417 L62 417 L62 343 L270 343 C240 308 137 174 96 0 L195 0 Z " />
<glyph glyph-name="eight.denominator" unicode="&#xf669;" horiz-adv-x="420" d="M46 115 C46 19 127 -10 209 -10 C294 -10 372 22 372 115 C372 203 288 221 283 222 C290 224 354 245 354 315 C354 394 285 427 209 427 C133 427 64 394 64 315 C64 242 128 223 131 222 C123 220 46 197 46 115 L46 115 Z M138 121 C138 164 171 183 209 183 C248 183 281 164 281 121 C281 78 253 59 209 59 C167 59 138 79 138 121 L138 121 Z M155 310 C155 346 179 361 209 361 C240 361 265 346 265 310 C265 274 240 258 209 258 C179 258 155 274 155 310 L155 310 Z " />
<glyph glyph-name="nine.denominator" unicode="&#xf66a;" horiz-adv-x="420" d="M58 107 C58 107 58 -11 208 -11 C354 -11 373 128 373 237 C373 349 325 427 206 427 C110 427 47 371 47 276 C47 190 103 142 187 142 C250 142 279 178 281 180 C280 118 273 59 208 59 C146 59 142 107 142 107 L58 107 Z M141 283 C141 334 167 358 207 358 C245 358 272 335 272 284 C272 230 239 210 205 210 C169 210 141 230 141 283 L141 283 Z " />
<glyph glyph-name="commaaccent" unicode="&#xf6c3;" horiz-adv-x="125" d="M0 -160 L56 -160 C57 -180 46 -205 3 -212 L3 -283 C97 -269 125 -222 125 -130 L125 -53 L0 -53 L0 -160 Z " />
<glyph glyph-name="Acute" unicode="&#xf6c9;" horiz-adv-x="218" d="M92 907 L20 778 L125 778 L238 907 L92 907 Z " />
<glyph glyph-name="Caron" unicode="&#xf6ca;" horiz-adv-x="321" d="M230 778 L321 906 L209 906 L161 828 L112 906 L0 906 L91 778 L230 778 Z " />
<glyph glyph-name="Dieresis" unicode="&#xf6cb;" horiz-adv-x="303" d="M0 792 L112 792 L112 905 L0 905 L0 792 Z M193 792 L303 792 L303 905 L193 905 L193 792 Z " />
<glyph glyph-name="Grave" unicode="&#xf6ce;" horiz-adv-x="218" d="M0 907 L113 778 L217 778 L146 907 L0 907 Z " />
<glyph glyph-name="Hungarumlaut" unicode="&#xf6cf;" horiz-adv-x="431" d="M72 907 L0 778 L98 778 L211 907 L72 907 Z M263 907 L191 778 L288 778 L401 907 L263 907 Z " />
<glyph glyph-name="Macron" unicode="&#xf6d0;" horiz-adv-x="283" d="M0 801 L283 801 L283 885 L0 885 L0 801 Z " />
<glyph glyph-name="one.fitted" unicode="&#xf6dc;" horiz-adv-x="410" d="M316 0 L316 697 L226 697 C202 655 99 595 51 578 L51 477 C91 490 190 541 215 569 L215 0 L316 0 Z " />
<glyph glyph-name="b.superior" unicode="&#xf6ea;" horiz-adv-x="395" d="M56 353 L143 353 L145 391 C147 387 170 347 233 347 C325 347 359 418 359 511 C359 601 328 670 241 670 C176 670 146 628 145 626 L145 780 L56 780 L56 353 Z M145 509 C145 557 160 602 210 602 C249 602 269 572 269 510 C269 442 247 412 210 412 C153 412 145 466 145 509 L145 509 Z " />
<glyph glyph-name="d.superior" unicode="&#xf6eb;" horiz-adv-x="395" d="M340 780 L250 780 L250 627 C250 627 229 670 164 670 C77 670 36 598 36 507 C36 418 66 347 159 347 C225 347 250 391 250 391 L252 353 L340 353 L340 780 Z M250 509 C250 466 241 412 188 412 C151 412 126 438 126 506 C126 569 148 602 188 602 C237 602 250 557 250 509 L250 509 Z " />
<glyph glyph-name="e.superior" unicode="&#xf6ec;" horiz-adv-x="367" d="M329 481 C340 583 301 670 187 670 C83 670 36 599 36 504 C36 391 92 342 190 342 C315 342 327 439 327 448 L246 448 C246 443 239 410 191 410 C134 410 126 458 126 481 L329 481 Z M127 538 C130 577 145 605 186 605 C228 605 244 575 245 538 L127 538 Z " />
<glyph glyph-name="i.superior" unicode="&#xf6ed;" horiz-adv-x="201" d="M54 708 L149 708 L149 792 L54 792 L54 708 Z M56 353 L145 353 L145 660 L56 660 L56 353 Z " />
<glyph glyph-name="l.superior" unicode="&#xf6ee;" horiz-adv-x="201" d="M56 353 L145 353 L145 780 L56 780 L56 353 Z " />
<glyph glyph-name="m.superior" unicode="&#xf6ef;" horiz-adv-x="572" d="M56 353 L145 353 L145 533 C145 581 172 596 197 596 C233 596 242 574 242 533 L242 353 L332 353 L332 536 C332 582 359 596 383 596 C420 596 428 574 428 533 L428 353 L518 353 L518 552 C518 636 481 667 417 667 C350 667 319 612 319 612 C319 612 305 667 233 667 C169 667 144 619 144 619 L142 660 L56 660 L56 353 Z " />
<glyph glyph-name="r.superior" unicode="&#xf6f1;" horiz-adv-x="264" d="M56 353 L146 353 L146 523 C146 571 176 589 225 589 C232 589 239 588 239 588 L239 666 C239 666 229 667 222 667 C200 667 164 657 143 612 L140 660 L56 660 L56 353 Z " />
<glyph glyph-name="s.superior" unicode="&#xf6f2;" horiz-adv-x="317" d="M35 451 C35 417 48 342 167 342 C240 342 283 376 283 442 C283 554 123 524 123 581 C123 599 135 609 158 609 C193 609 198 580 199 568 L276 568 C276 592 267 670 157 670 C90 670 41 639 41 575 C41 461 203 494 203 436 C203 414 191 404 166 404 C121 404 113 435 113 451 L35 451 Z " />
<glyph glyph-name="t.superior" unicode="&#xf6f3;" horiz-adv-x="261" d="M73 460 C73 392 81 346 164 346 C191 346 227 354 227 354 L227 414 L202 414 C166 414 163 423 163 460 L163 600 L228 600 L228 660 L163 660 L163 750 L73 729 L73 660 L20 660 L20 600 L73 600 L73 460 Z " />
<glyph glyph-name="fi" unicode="&#xfb01;" horiz-adv-x="596" d="M409 604 L525 604 L525 719 L409 719 L409 604 Z M416 0 L518 0 L518 496 L416 496 L416 0 Z M104 0 L206 0 L206 422 L317 422 L317 496 L206 496 L206 576 C206 622 213 645 274 645 C291 645 328 643 328 643 L328 719 C328 719 288 726 247 726 C141 726 104 679 104 564 L104 496 L29 496 L29 422 L104 422 L104 0 Z " />
<glyph glyph-name="fl" unicode="&#xfb02;" horiz-adv-x="596" d="M416 0 L518 0 L518 712 L416 712 L416 0 Z M104 0 L206 0 L206 422 L317 422 L317 496 L206 496 L206 576 C206 622 213 645 274 645 C291 645 328 643 328 643 L328 719 C328 719 288 726 247 726 C141 726 104 679 104 564 L104 496 L29 496 L29 422 L104 422 L104 0 Z " />
</font>
</svg>
