<?xml version="1.0" encoding="UTF-8"?>
<svg xmlns="http://www.w3.org/2000/svg" xmlns:xlink="http://www.w3.org/1999/xlink" version="1.2" >
<font id="Flaco Bold">
<font-face  font-family="Flaco" units-per-em="1000" ascent="780" descent="-220" font-style="normal" font-weight="700" font-stretch="normal" cap-height="712" x-height="504" underline-position="-75" underline-thickness="50" />
<missing-glyph  horiz-adv-x="556" d="M80 0 L476 0 L476 712 L80 712 L80 0 Z M170 643 L387 643 L387 69 L170 69 L170 643 Z " />
<glyph glyph-name="NULL" d="" />
<glyph glyph-name="CR" unicode="&#xd;" horiz-adv-x="250" d="" />
<glyph glyph-name="space" unicode="&#x20;" horiz-adv-x="265" d="" />
<glyph glyph-name="exclam" unicode="&#x21;" horiz-adv-x="343" d="M249 239 C249 239 260 422 260 558 L260 711 L121 711 L121 558 C121 422 131 239 131 239 L249 239 Z M117 0 L263 0 L263 136 L117 136 L117 0 Z " />
<glyph glyph-name="quotedbl" unicode="&#x22;" horiz-adv-x="426" d="M176 712 L62 712 L62 613 C62 548 80 467 80 467 L161 467 C161 467 176 550 176 613 L176 712 Z M364 712 L249 712 L249 613 C249 548 268 467 268 467 L349 467 C349 467 364 550 364 613 L364 712 Z " />
<glyph glyph-name="numbersign" unicode="&#x23;" horiz-adv-x="618" d="M290 0 L400 0 L436 189 L533 189 L533 280 L454 280 L480 417 L575 417 L575 510 L498 510 L533 692 L424 692 L389 510 L300 510 L335 692 L226 692 L191 510 L84 510 L84 417 L173 417 L146 280 L43 280 L43 189 L128 189 L92 0 L202 0 L238 189 L326 189 L290 0 Z M282 417 L371 417 L344 280 L256 280 L282 417 Z " />
<glyph glyph-name="dollar" unicode="&#x24;" horiz-adv-x="618" d="M62 221 C62 112 121 7 284 -9 L284 -168 L352 -168 L352 -10 C510 -2 560 93 560 201 C560 334 449 372 352 406 L352 599 C397 581 414 538 415 492 L540 492 C540 613 472 693 352 709 L352 839 L284 839 L284 711 C152 704 82 625 82 510 C82 375 188 336 284 304 L284 98 C221 114 191 164 190 221 L62 221 Z M436 188 C436 127 407 100 352 94 L352 280 C400 260 436 235 436 188 L436 188 Z M206 519 C206 571 233 600 284 606 L284 431 C238 451 206 475 206 519 L206 519 Z " />
<glyph glyph-name="percent" unicode="&#x25;" horiz-adv-x="829" d="M214 434 C176 434 153 460 153 536 C153 610 177 634 214 634 C251 634 276 610 276 536 C276 460 252 434 214 434 L214 434 Z M254 -17 L674 712 L574 712 L148 -17 L254 -17 Z M47 535 C47 405 127 356 214 356 C300 356 382 409 382 535 C382 659 304 712 214 712 C129 712 47 659 47 535 L47 535 Z M553 162 C553 236 577 260 614 260 C651 260 676 236 676 162 C676 85 652 61 614 61 C576 61 553 85 553 162 L553 162 Z M447 162 C447 31 527 -17 614 -17 C700 -17 782 35 782 162 C782 285 704 338 614 338 C529 338 447 284 447 162 L447 162 Z " />
<glyph glyph-name="ampersand" unicode="&#x26;" horiz-adv-x="854" d="M618 150 C637 193 648 243 650 300 L705 300 C705 324 703 367 703 391 L547 391 C550 337 548 284 538 238 L422 365 C494 411 555 461 555 552 C555 663 467 712 370 712 C266 712 186 648 186 547 C186 470 224 424 265 378 C188 331 123 275 123 170 C123 48 221 -17 355 -17 C439 -17 507 10 557 59 L611 0 L755 0 L618 150 Z M249 179 C249 234 282 271 331 306 L488 134 C461 104 422 87 369 87 C294 87 249 123 249 179 L249 179 Z M441 550 C441 499 408 467 358 435 C322 476 300 503 300 548 C300 582 318 618 371 618 C411 618 441 596 441 550 L441 550 Z " />
<glyph glyph-name="quotesingle" unicode="&#x27;" horiz-adv-x="241" d="M179 712 L62 712 L62 613 C62 548 80 467 80 467 L164 467 C164 467 179 550 179 613 L179 712 Z " />
<glyph glyph-name="parenleft" unicode="&#x28;" horiz-adv-x="345" d="M305 -121 C305 -121 196 84 196 314 C196 547 293 731 293 731 L170 731 C170 731 66 556 66 314 C66 75 176 -121 176 -121 L305 -121 Z " />
<glyph glyph-name="parenright" unicode="&#x29;" horiz-adv-x="345" d="M169 -121 C169 -121 278 75 278 314 C278 556 175 731 175 731 L48 731 C48 731 148 547 148 314 C148 84 39 -121 39 -121 L169 -121 Z " />
<glyph glyph-name="asterisk" unicode="&#x2a;" horiz-adv-x="397" d="M363 627 L336 704 L236 663 L243 771 L154 771 L162 663 L60 704 L34 625 L144 602 L71 514 L140 465 L198 557 L254 467 L324 516 L254 601 L363 627 Z " />
<glyph glyph-name="plus" unicode="&#x2b;" horiz-adv-x="618" d="M82 214 L256 214 L256 39 L362 39 L362 214 L535 214 L535 313 L362 313 L362 484 L256 484 L256 313 L82 313 L82 214 Z " />
<glyph glyph-name="comma" unicode="&#x2c;" horiz-adv-x="253" d="M54 0 L115 0 C115 -12 115 -54 57 -72 L57 -158 C172 -139 200 -59 200 29 L200 135 L54 135 L54 0 Z " />
<glyph glyph-name="hyphen" unicode="&#x2d;" horiz-adv-x="341" d="M35 209 L314 209 L314 312 L35 312 L35 209 Z " />
<glyph glyph-name="period" unicode="&#x2e;" horiz-adv-x="253" d="M53 0 L199 0 L199 136 L53 136 L53 0 Z " />
<glyph glyph-name="slash" unicode="&#x2f;" horiz-adv-x="434" d="M1 -120 L123 -120 L405 737 L284 737 L1 -120 Z " />
<glyph glyph-name="zero" unicode="0" horiz-adv-x="618" d="M44 349 C44 49 172 -17 309 -17 C445 -17 574 56 574 349 C574 628 445 712 309 712 C172 712 44 627 44 349 L44 349 Z M174 349 C174 551 234 604 309 604 C384 604 444 546 444 349 C444 138 384 90 309 90 C234 90 174 138 174 349 L174 349 Z " />
<glyph glyph-name="one" unicode="1" horiz-adv-x="618" d="M421 0 L421 696 L312 696 C287 645 184 594 137 579 L137 456 C191 472 263 513 296 542 L296 0 L421 0 Z " />
<glyph glyph-name="two" unicode="2" horiz-adv-x="618" d="M72 0 L549 0 L549 114 L225 114 C427 263 543 366 543 516 C543 638 467 712 325 712 C73 712 74 463 74 463 L194 463 C194 463 196 604 318 604 C397 604 413 552 413 510 C413 378 264 273 72 102 L72 0 Z " />
<glyph glyph-name="three" unicode="3" horiz-adv-x="618" d="M60 224 C60 209 50 -17 317 -17 C481 -17 563 67 563 200 C563 357 421 370 413 371 C424 373 539 400 539 534 C539 637 468 712 323 712 C102 712 86 523 85 493 L202 493 C204 509 209 604 315 604 C384 604 410 573 410 517 C410 440 360 412 270 412 L238 412 L238 314 L272 314 C375 314 433 289 433 203 C433 124 394 91 317 91 C184 91 179 208 179 224 L60 224 Z " />
<glyph glyph-name="four" unicode="4" horiz-adv-x="618" d="M52 147 L363 147 L363 0 L490 0 L490 147 L566 147 L566 248 L490 248 L490 696 L353 696 L52 238 L52 147 Z M164 248 L363 553 L363 248 L164 248 Z " />
<glyph glyph-name="five" unicode="5" horiz-adv-x="618" d="M72 191 C72 191 70 -17 306 -17 C490 -17 546 115 546 240 C546 354 489 462 343 462 C247 462 209 412 209 412 L238 593 L499 593 L499 696 L151 696 L91 306 L200 291 C200 291 225 359 311 359 C394 359 416 292 416 233 C416 159 395 90 303 90 C194 90 189 191 189 191 L72 191 Z " />
<glyph glyph-name="six" unicode="6" horiz-adv-x="618" d="M539 521 C538 556 506 712 330 712 C104 712 59 478 59 303 C59 131 116 -17 316 -17 C469 -17 558 84 558 230 C558 371 473 457 343 457 C229 457 185 381 185 381 C193 482 216 606 322 606 C411 606 418 521 418 521 L539 521 Z M314 89 C236 89 199 142 199 226 C199 315 253 352 314 352 C384 352 428 306 428 220 C428 138 392 89 314 89 L314 89 Z " />
<glyph glyph-name="seven" unicode="7" horiz-adv-x="618" d="M275 0 C325 317 539 597 539 597 L539 696 L77 696 L77 589 L416 589 C379 548 209 328 135 0 L275 0 Z " />
<glyph glyph-name="eight" unicode="8" horiz-adv-x="618" d="M56 191 C56 33 181 -17 308 -17 C438 -17 561 40 561 191 C561 337 431 368 418 371 C428 374 532 408 532 526 C532 654 424 712 308 712 C192 712 85 654 85 526 C85 403 186 372 192 371 C183 369 56 334 56 191 L56 191 Z M186 199 C186 276 243 311 308 311 C373 311 431 276 431 199 C431 123 386 88 308 88 C235 88 186 125 186 199 L186 199 Z M215 521 C215 582 256 610 308 610 C360 610 402 582 402 521 C402 458 360 427 308 427 C256 427 215 458 215 521 L215 521 Z " />
<glyph glyph-name="nine" unicode="9" horiz-adv-x="618" d="M74 172 C74 172 77 -17 305 -17 C533 -17 560 216 560 397 C560 565 496 712 305 712 C157 712 59 616 59 462 C59 321 145 238 278 238 C387 238 431 310 431 310 C429 202 417 86 304 86 C200 86 193 172 193 172 L74 172 Z M189 472 C189 563 236 607 304 607 C371 607 418 564 418 474 C418 376 361 340 301 340 C238 340 189 378 189 472 L189 472 Z " />
<glyph glyph-name="colon" unicode="&#x3a;" horiz-adv-x="266" d="M86 0 L233 0 L233 136 L86 136 L86 0 Z M86 350 L233 350 L233 484 L86 484 L86 350 Z " />
<glyph glyph-name="semicolon" unicode="&#x3b;" horiz-adv-x="266" d="M86 0 L147 0 C148 -12 147 -54 89 -72 L89 -158 C205 -139 233 -59 233 30 L233 135 L86 135 L86 0 Z M86 350 L233 350 L233 484 L86 484 L86 350 Z " />
<glyph glyph-name="less" unicode="&#x3c;" horiz-adv-x="618" d="M82 312 L82 214 L535 26 L535 142 L209 263 L535 386 L535 500 L82 312 Z " />
<glyph glyph-name="equal" unicode="&#x3d;" horiz-adv-x="618" d="M82 308 L535 308 L535 411 L82 411 L82 308 Z M82 121 L535 121 L535 224 L82 224 L82 121 Z " />
<glyph glyph-name="greater" unicode="&#x3e;" horiz-adv-x="618" d="M82 500 L82 385 L407 262 L82 142 L82 26 L535 214 L535 312 L82 500 Z " />
<glyph glyph-name="question" unicode="&#x3f;" horiz-adv-x="516" d="M204 219 L322 219 L322 272 C322 378 487 417 487 560 C487 685 394 730 286 730 C66 730 64 533 64 523 L184 523 C184 529 185 621 280 621 C327 621 355 599 355 554 C355 449 204 415 204 282 L204 219 Z M190 0 L335 0 L335 136 L190 136 L190 0 Z " />
<glyph glyph-name="at" unicode="&#x40;" horiz-adv-x="1099" d="M781 475 L658 475 L648 422 C645 428 615 485 527 485 C393 485 312 351 312 191 C312 82 356 4 471 4 C541 4 579 41 593 60 L586 12 L692 12 C932 12 1008 185 1008 334 C1008 576 808 676 593 676 C317 676 98 501 98 198 C98 -111 337 -179 529 -179 C656 -179 749 -148 749 -148 L745 -53 C745 -53 651 -85 525 -85 C396 -85 213 -38 213 203 C213 443 386 580 597 580 C750 580 891 508 891 332 C891 188 827 109 721 110 L781 475 Z M511 96 C460 96 435 122 435 194 C435 270 458 393 546 393 C606 393 625 340 625 292 C625 218 603 96 511 96 L511 96 Z " />
<glyph glyph-name="A" unicode="A" horiz-adv-x="702" d="M546 0 L692 0 L408 712 L294 712 L10 0 L145 0 L206 165 L486 165 L546 0 Z M291 396 C320 474 345 548 346 552 C348 545 373 475 402 397 L449 266 L243 266 L291 396 Z " />
<glyph glyph-name="B" unicode="B" horiz-adv-x="655" d="M82 0 L373 0 C512 0 619 45 619 210 C619 349 489 369 476 371 C486 373 591 404 591 535 C591 685 480 712 342 712 L82 712 L82 0 Z M214 110 L214 308 L369 308 C444 308 484 280 484 213 C484 132 438 110 369 110 L214 110 Z M214 418 L214 602 L331 602 C403 602 456 590 456 519 C456 455 426 418 348 418 L214 418 Z " />
<glyph glyph-name="C" unicode="C" horiz-adv-x="676" d="M509 255 C507 239 502 93 353 93 C198 93 179 230 179 359 C179 559 251 620 350 620 C489 620 500 480 500 468 L636 468 C636 487 618 730 351 730 C152 730 44 588 44 354 C44 133 116 -17 353 -17 C628 -17 643 229 644 255 L509 255 Z " />
<glyph glyph-name="D" unicode="D" horiz-adv-x="703" d="M82 0 L277 0 C573 0 658 158 658 372 C658 574 566 712 270 712 L82 712 L82 0 Z M214 110 L214 602 L283 602 C483 602 523 488 523 372 C523 196 459 110 279 110 L214 110 Z " />
<glyph glyph-name="E" unicode="E" horiz-adv-x="595" d="M82 0 L543 0 L543 110 L214 110 L214 309 L506 309 L506 419 L214 419 L214 602 L538 602 L538 712 L82 712 L82 0 Z " />
<glyph glyph-name="F" unicode="F" horiz-adv-x="580" d="M82 0 L214 0 L214 299 L506 299 L506 409 L214 409 L214 602 L539 602 L539 712 L82 712 L82 0 Z " />
<glyph glyph-name="G" unicode="G" horiz-adv-x="698" d="M530 0 L639 0 L639 384 L370 384 L370 281 L518 281 L518 276 C518 181 469 99 357 99 C207 99 179 228 179 357 C179 534 242 620 352 620 C482 620 497 495 497 495 L631 495 C631 495 612 730 355 730 C134 730 44 555 44 354 C44 73 181 -10 331 -10 C482 -10 527 89 527 89 L530 0 Z " />
<glyph glyph-name="H" unicode="H" horiz-adv-x="729" d="M82 0 L214 0 L214 310 L515 310 L515 0 L647 0 L647 712 L515 712 L515 420 L214 420 L214 712 L82 712 L82 0 Z " />
<glyph glyph-name="I" unicode="I" horiz-adv-x="295" d="M82 0 L214 0 L214 712 L82 712 L82 0 Z " />
<glyph glyph-name="J" unicode="J" horiz-adv-x="533" d="M28 229 C26 102 60 -17 238 -17 C418 -17 455 91 455 235 L455 712 L323 712 L323 249 C323 151 313 93 239 93 C156 93 152 173 151 229 L28 229 Z " />
<glyph glyph-name="K" unicode="K" horiz-adv-x="668" d="M497 0 L657 0 L366 417 L622 712 L468 712 L214 411 L214 712 L82 712 L82 0 L214 0 L214 246 L278 325 L497 0 Z " />
<glyph glyph-name="L" unicode="L" horiz-adv-x="522" d="M82 0 L498 0 L498 110 L214 110 L214 712 L82 712 L82 0 Z " />
<glyph glyph-name="M" unicode="M" horiz-adv-x="809" d="M82 0 L209 0 L209 311 C209 417 205 487 205 488 C207 482 234 415 262 353 L365 120 L442 120 L547 353 C575 416 602 485 604 488 C604 487 601 414 601 310 L601 0 L728 0 L728 712 L589 712 L478 464 C440 380 405 295 405 295 C405 295 371 379 333 464 L222 712 L82 712 L82 0 Z " />
<glyph glyph-name="N" unicode="N" horiz-adv-x="730" d="M82 0 L209 0 L209 331 C209 445 206 520 206 520 C206 520 245 442 299 353 L510 0 L648 0 L648 712 L521 712 L521 411 C521 291 525 196 525 196 C525 196 478 284 427 370 L224 712 L82 712 L82 0 Z " />
<glyph glyph-name="O" unicode="O" horiz-adv-x="729" d="M44 357 C44 79 188 -17 364 -17 C542 -17 685 90 685 357 C685 611 550 730 364 730 C188 730 44 611 44 357 L44 357 Z M179 357 C179 550 259 620 364 620 C470 620 550 550 550 357 C550 154 470 93 364 93 C261 93 179 154 179 357 L179 357 Z " />
<glyph glyph-name="P" unicode="P" horiz-adv-x="612" d="M82 0 L214 0 L214 272 L316 272 C473 272 584 338 584 503 C584 674 454 712 314 712 L82 712 L82 0 Z M214 382 L214 602 L313 602 C403 602 450 581 450 498 C450 397 387 382 308 382 L214 382 Z " />
<glyph glyph-name="Q" unicode="Q" horiz-adv-x="729" d="M44 357 C44 79 188 -17 364 -17 C396 -17 428 -13 457 -6 L528 -105 L616 -43 L557 40 C635 97 685 199 685 357 C685 611 550 730 364 730 C188 730 44 611 44 357 L44 357 Z M330 172 L386 94 C379 93 371 93 364 93 C261 93 179 154 179 357 C179 550 259 620 364 620 C470 620 550 550 550 357 C550 246 526 177 487 138 L418 234 L330 172 Z " />
<glyph glyph-name="R" unicode="R" horiz-adv-x="637" d="M82 0 L214 0 L214 282 L305 282 L444 0 L593 0 L434 298 C525 323 584 389 584 508 C584 676 455 712 315 712 L82 712 L82 0 Z M214 392 L214 602 L298 602 C398 602 449 590 449 505 C449 405 387 392 315 392 L214 392 Z " />
<glyph glyph-name="S" unicode="S" horiz-adv-x="598" d="M44 223 C44 101 117 -17 319 -17 C502 -17 559 86 559 202 C559 448 193 382 193 531 C193 592 229 622 294 622 C378 622 408 565 409 503 L538 503 C538 643 450 730 296 730 C146 730 65 648 65 522 C65 268 431 342 431 189 C431 118 392 91 320 91 C223 91 179 152 177 223 L44 223 Z " />
<glyph glyph-name="T" unicode="T" horiz-adv-x="564" d="M216 0 L347 0 L347 602 L550 602 L550 712 L14 712 L14 602 L216 602 L216 0 Z " />
<glyph glyph-name="U" unicode="U" horiz-adv-x="720" d="M77 251 C77 64 182 -17 360 -17 C531 -17 643 64 643 251 L643 712 L511 712 L511 252 C511 121 431 92 360 92 C289 92 209 123 209 254 L209 712 L77 712 L77 251 Z " />
<glyph glyph-name="V" unicode="V" horiz-adv-x="664" d="M387 0 L653 712 L516 712 L414 420 C366 282 329 165 329 165 C329 165 295 280 251 418 L156 712 L11 712 L263 0 L387 0 Z " />
<glyph glyph-name="W" unicode="W" horiz-adv-x="989" d="M357 0 L434 294 C468 425 493 543 494 549 C496 537 521 421 553 294 L625 0 L768 0 L973 712 L830 712 L755 420 C725 299 699 178 698 172 C695 183 671 303 643 420 L571 712 L426 712 L349 419 C317 294 290 179 289 173 C287 184 263 299 234 419 L162 712 L17 712 L217 0 L357 0 Z " />
<glyph glyph-name="X" unicode="X" horiz-adv-x="687" d="M639 712 L491 712 L344 480 L199 712 L42 712 L271 375 L17 0 L169 0 L340 274 L511 0 L670 0 L413 377 L639 712 Z " />
<glyph glyph-name="Y" unicode="Y" horiz-adv-x="618" d="M241 0 L373 0 L373 293 L614 712 L474 712 L399 572 C357 492 310 404 310 404 C310 404 264 493 222 573 L150 712 L4 712 L241 294 L241 0 Z " />
<glyph glyph-name="Z" unicode="Z" horiz-adv-x="616" d="M43 0 L568 0 L568 110 L200 110 L570 619 L570 712 L76 712 L76 602 L416 602 L43 90 L43 0 Z " />
<glyph glyph-name="bracketleft" unicode="&#x5b;" horiz-adv-x="345" d="M74 -132 L307 -132 L307 -34 L203 -34 L203 647 L307 647 L307 746 L74 746 L74 -132 Z " />
<glyph glyph-name="backslash" unicode="&#x5c;" horiz-adv-x="434" d="M143 737 L22 737 L306 -120 L428 -120 L143 737 Z " />
<glyph glyph-name="bracketright" unicode="&#x5d;" horiz-adv-x="345" d="M270 746 L38 746 L38 647 L141 647 L141 -34 L38 -34 L38 -132 L270 -132 L270 746 Z " />
<glyph glyph-name="asciicircum" unicode="&#x5e;" horiz-adv-x="618" d="M255 712 L76 453 L211 453 L306 611 L400 453 L542 453 L366 712 L255 712 Z " />
<glyph glyph-name="underscore" unicode="&#x5f;" horiz-adv-x="467" d="M-5 -215 L471 -215 L471 -125 L-5 -125 L-5 -215 Z " />
<glyph glyph-name="grave" unicode="&#x60;" horiz-adv-x="240" d="M0 719 L121 580 L240 580 L165 719 L0 719 Z " />
<glyph glyph-name="a" unicode="a" horiz-adv-x="541" d="M340 308 C340 308 291 312 256 312 C101 312 36 255 36 148 C36 39 102 -10 210 -10 C307 -10 364 51 373 70 L374 64 C377 41 392 -7 459 -7 C488 -7 516 0 516 0 L516 90 L497 90 C468 90 459 101 459 138 L459 351 C459 461 403 521 271 521 C71 521 63 358 63 358 L178 358 C180 366 183 427 263 427 C320 427 340 402 340 346 L340 308 Z M338 202 C338 133 311 88 234 88 C188 88 163 109 163 155 C163 196 181 231 268 231 C307 231 338 227 338 227 L338 202 Z " />
<glyph glyph-name="b" unicode="b" horiz-adv-x="574" d="M70 0 L192 0 L195 68 C195 68 230 -10 337 -10 C478 -10 536 106 536 261 C536 406 484 521 347 521 C240 521 196 444 196 444 L196 712 L70 712 L70 0 Z M195 259 C195 344 222 422 307 422 C377 422 410 362 410 259 C410 128 364 86 307 86 C210 86 195 180 195 259 L195 259 Z " />
<glyph glyph-name="c" unicode="c" horiz-adv-x="503" d="M361 185 C360 163 351 81 269 81 C176 81 164 164 164 252 C164 341 182 423 263 423 C345 423 353 339 354 326 L471 326 C471 342 463 521 263 521 C95 521 38 385 38 252 C38 69 118 -17 268 -17 C471 -17 476 164 476 185 L361 185 Z " />
<glyph glyph-name="d" unicode="d" horiz-adv-x="574" d="M504 712 L378 712 L378 446 C378 446 345 521 241 521 C105 521 38 406 38 252 C38 104 87 -10 234 -10 C340 -10 379 68 379 68 L382 0 L504 0 L504 712 Z M379 259 C379 180 362 86 270 86 C211 86 164 122 164 251 C164 350 197 422 271 422 C354 422 379 343 379 259 L379 259 Z " />
<glyph glyph-name="e" unicode="e" horiz-adv-x="529" d="M491 215 C508 372 450 521 273 521 C108 521 38 401 38 249 C38 65 121 -17 274 -17 C468 -17 486 141 487 155 L373 155 C372 148 363 81 277 81 C171 81 165 176 165 215 L491 215 Z M167 304 C172 373 200 423 269 423 C341 423 369 369 370 304 L167 304 Z " />
<glyph glyph-name="f" unicode="f" horiz-adv-x="348" d="M95 0 L221 0 L221 416 L329 416 L329 504 L221 504 L221 563 C221 604 227 626 285 626 C304 626 340 625 340 625 L340 716 C340 716 293 723 248 723 C134 723 95 675 95 555 L95 504 L21 504 L21 416 L95 416 L95 0 Z " />
<glyph glyph-name="g" unicode="g" horiz-adv-x="574" d="M504 504 L380 504 L378 448 C378 448 343 516 241 516 C99 516 38 396 38 260 C38 123 90 13 234 13 C340 13 378 84 378 84 L378 24 C378 -83 343 -111 276 -111 C182 -111 178 -39 178 -39 L60 -39 C60 -39 57 -209 277 -209 C438 -209 504 -121 504 20 L504 504 Z M379 269 C379 189 358 109 270 109 C212 109 164 141 164 260 C164 361 200 416 271 416 C352 416 379 347 379 269 L379 269 Z " />
<glyph glyph-name="h" unicode="h" horiz-adv-x="567" d="M70 0 L196 0 L196 301 C196 391 250 417 292 417 C358 417 374 374 374 301 L374 0 L500 0 L500 332 C500 461 445 519 340 519 C236 519 196 439 196 439 L196 712 L70 712 L70 0 Z " />
<glyph glyph-name="i" unicode="i" horiz-adv-x="265" d="M65 598 L202 598 L202 726 L65 726 L65 598 Z M70 0 L196 0 L196 504 L70 504 L70 0 Z " />
<glyph glyph-name="j" unicode="j" horiz-adv-x="268" d="M-19 -191 C-19 -191 10 -196 48 -196 C191 -196 199 -102 199 14 L199 504 L73 504 L73 -4 C73 -61 70 -88 2 -88 L-19 -88 L-19 -191 Z M68 598 L205 598 L205 726 L68 726 L68 598 Z " />
<glyph glyph-name="k" unicode="k" horiz-adv-x="540" d="M385 0 L530 0 L340 327 L514 504 L366 504 L196 326 L196 712 L70 712 L70 0 L196 0 L196 187 L253 248 L385 0 Z " />
<glyph glyph-name="l" unicode="l" horiz-adv-x="265" d="M70 0 L196 0 L196 712 L70 712 L70 0 Z " />
<glyph glyph-name="m" unicode="m" horiz-adv-x="853" d="M70 0 L196 0 L196 297 C196 387 244 413 286 413 C351 413 364 371 364 297 L364 0 L490 0 L490 300 C490 387 540 413 582 413 C647 413 660 371 660 297 L660 0 L786 0 L786 328 C786 460 730 515 627 515 C520 515 471 428 471 428 C471 428 446 515 334 515 C231 515 194 435 194 435 L191 504 L70 504 L70 0 Z " />
<glyph glyph-name="n" unicode="n" horiz-adv-x="567" d="M70 0 L196 0 L196 297 C196 387 250 413 292 413 C357 413 374 370 374 297 L374 0 L500 0 L500 328 C500 457 445 515 340 515 C236 515 194 435 194 435 L191 504 L70 504 L70 0 Z " />
<glyph glyph-name="o" unicode="o" horiz-adv-x="541" d="M38 252 C38 48 140 -17 270 -17 C399 -17 503 55 503 252 C503 441 402 521 270 521 C142 521 38 438 38 252 L38 252 Z M164 252 C164 382 209 423 270 423 C332 423 377 383 377 252 C377 116 333 81 270 81 C209 81 164 116 164 252 L164 252 Z " />
<glyph glyph-name="p" unicode="p" horiz-adv-x="574" d="M70 -191 L196 -191 L196 55 C196 55 231 -17 338 -17 C479 -17 536 100 536 255 C536 399 484 515 348 515 C241 515 196 435 196 435 L192 504 L70 504 L70 -191 Z M196 253 C196 337 222 415 308 415 C377 415 410 355 410 253 C410 122 365 79 307 79 C211 79 196 174 196 253 L196 253 Z " />
<glyph glyph-name="q" unicode="q" horiz-adv-x="574" d="M505 504 L381 504 L379 439 C379 439 345 514 241 514 C105 514 38 399 38 245 C38 97 87 -17 234 -17 C340 -17 379 59 379 59 L379 -191 L505 -191 L505 504 Z M379 252 C379 173 362 78 270 78 C211 78 164 115 164 244 C164 343 197 415 271 415 C354 415 379 336 379 252 L379 252 Z " />
<glyph glyph-name="r" unicode="r" horiz-adv-x="366" d="M70 0 L196 0 L196 284 C196 363 239 404 322 404 C333 404 346 402 346 402 L346 513 C346 513 330 515 316 515 C277 515 222 495 192 428 L187 504 L70 504 L70 0 Z " />
<glyph glyph-name="s" unicode="s" horiz-adv-x="455" d="M40 160 C40 101 61 -17 244 -17 C360 -17 424 38 424 142 C424 323 168 277 168 374 C168 411 188 429 228 429 C293 429 299 368 300 354 L412 354 C412 395 397 521 227 521 C121 521 51 465 51 367 C51 182 307 236 307 135 C307 93 287 75 242 75 C161 75 152 144 152 160 L40 160 Z " />
<glyph glyph-name="t" unicode="t" horiz-adv-x="361" d="M98 167 C98 57 112 -11 233 -11 C276 -11 327 0 327 0 L327 88 C327 88 300 87 292 87 C227 87 224 109 224 173 L224 416 L329 416 L329 504 L224 504 L224 654 L98 623 L98 504 L13 504 L13 416 L98 416 L98 167 Z " />
<glyph glyph-name="u" unicode="u" horiz-adv-x="558" d="M489 504 L363 504 L363 207 C363 119 313 93 271 93 C206 93 194 135 194 207 L194 504 L68 504 L68 181 C68 51 123 -10 225 -10 C325 -10 364 68 364 68 L367 0 L489 0 L489 504 Z " />
<glyph glyph-name="v" unicode="v" horiz-adv-x="513" d="M193 0 L307 0 L502 504 L372 504 L296 267 C274 200 256 136 255 132 C253 138 237 201 216 268 L143 504 L11 504 L193 0 Z " />
<glyph glyph-name="w" unicode="w" horiz-adv-x="795" d="M303 0 L368 241 C384 300 394 346 395 351 C396 344 407 298 423 242 L490 0 L614 0 L779 504 L649 504 L583 263 C565 198 551 138 551 138 C551 138 539 200 522 264 L458 504 L339 504 L274 265 C255 197 242 138 242 138 C242 138 229 198 212 265 L150 504 L16 504 L174 0 L303 0 Z " />
<glyph glyph-name="x" unicode="x" horiz-adv-x="531" d="M33 504 L199 262 L16 0 L153 0 L266 182 L376 0 L517 0 L336 264 L498 504 L365 504 L270 348 L176 504 L33 504 Z " />
<glyph glyph-name="y" unicode="y" horiz-adv-x="520" d="M185 -21 C166 -77 140 -96 91 -96 C83 -96 68 -95 68 -95 L68 -191 C68 -191 99 -197 130 -197 C233 -197 263 -131 298 -41 L512 504 L381 504 L309 288 C285 218 266 154 265 151 C263 158 244 227 223 289 L152 504 L18 504 L202 26 L185 -21 Z " />
<glyph glyph-name="z" unicode="z" horiz-adv-x="471" d="M35 0 L437 0 L437 98 L182 98 L435 425 L435 504 L68 504 L68 406 L286 406 L35 77 L35 0 Z " />
<glyph glyph-name="braceleft" unicode="&#x7b;" horiz-adv-x="352" d="M97 13 C97 -115 157 -132 250 -132 C303 -132 320 -131 320 -131 L320 -38 L300 -38 C248 -38 226 -34 226 36 L226 195 C226 299 130 315 120 317 C134 319 226 337 226 445 L226 578 C226 647 244 654 300 654 L320 654 L320 747 C320 747 256 748 248 748 C151 748 97 725 97 596 L97 441 C97 386 72 367 19 367 L19 262 C72 262 97 244 97 192 L97 13 Z " />
<glyph glyph-name="bar" unicode="&#x7c;" horiz-adv-x="433" d="M157 -113 L276 -113 L276 743 L157 743 L157 -113 Z " />
<glyph glyph-name="braceright" unicode="&#x7d;" horiz-adv-x="353" d="M254 192 C254 244 280 262 332 262 L332 367 C280 367 254 386 254 441 L254 596 C254 725 201 748 103 748 C95 748 32 747 32 747 L32 654 L51 654 C108 654 126 647 126 578 L126 444 C126 331 225 318 232 317 C222 315 126 298 126 194 L126 36 C126 -34 103 -38 51 -38 L32 -38 L32 -131 C32 -131 92 -132 102 -132 C195 -132 254 -115 254 13 L254 192 Z " />
<glyph glyph-name="asciitilde" unicode="&#x7e;" horiz-adv-x="618" d="M174 183 C174 183 173 240 225 240 C281 240 330 176 415 176 C546 176 535 342 535 342 L449 342 C449 342 450 282 401 282 C335 282 289 346 208 346 C88 346 81 207 81 183 L174 183 Z " />
<glyph glyph-name="exclamdown" unicode="&#xa1;" horiz-adv-x="343" d="M94 473 C94 473 84 290 84 153 L84 0 L222 0 L222 153 C222 290 212 473 212 473 L94 473 Z M226 711 L80 711 L80 576 L226 576 L226 711 Z " />
<glyph glyph-name="cent" unicode="&#xa2;" horiz-adv-x="618" d="M432 185 C431 165 424 97 363 83 L363 419 C418 402 424 337 425 326 L542 326 C542 341 534 503 363 519 L363 625 L301 625 L301 519 C158 503 109 376 109 252 C109 85 175 -1 301 -15 L301 -118 L363 -118 L363 -16 C542 -2 547 165 547 185 L432 185 Z M235 252 C235 327 248 397 301 417 L301 87 C243 108 235 178 235 252 L235 252 Z " />
<glyph glyph-name="sterling" unicode="&#xa3;" horiz-adv-x="618" d="M87 296 L179 296 C185 271 189 248 189 225 C189 145 114 118 79 113 L79 0 L533 0 L533 106 L232 106 C267 122 315 169 315 235 C315 256 313 276 310 296 L451 296 L451 383 L289 383 C277 429 265 474 265 523 C265 576 290 604 339 604 C420 604 420 506 420 506 L537 506 C537 506 544 712 337 712 C219 712 135 649 135 526 C135 474 145 427 157 383 L87 383 L87 296 Z " />
<glyph glyph-name="currency" unicode="&#xa4;" horiz-adv-x="594" d="M78 244 C78 196 93 151 119 116 L53 53 L106 -2 L170 65 C205 39 249 25 296 25 C343 25 387 39 423 65 L487 -2 L540 53 L474 116 C500 152 515 196 515 244 C515 291 500 335 474 371 L540 434 L487 489 L423 422 C387 447 343 462 296 462 C249 462 205 447 170 421 L106 489 L53 434 L118 370 C92 335 78 290 78 244 L78 244 Z M150 244 C150 325 215 393 296 393 C378 393 443 325 443 244 C443 162 378 94 296 94 C215 94 150 162 150 244 L150 244 Z " />
<glyph glyph-name="yen" unicode="&#xa5;" horiz-adv-x="618" d="M68 311 L239 311 L239 224 L68 224 L68 143 L239 143 L239 0 L369 0 L369 143 L541 143 L541 224 L369 224 L369 311 L541 311 L541 392 L397 392 L585 696 L444 696 L310 451 L180 696 L32 696 L212 392 L68 392 L68 311 Z " />
<glyph glyph-name="brokenbar" unicode="&#xa6;" horiz-adv-x="433" d="M157 -113 L276 -113 L276 215 L157 215 L157 -113 Z M157 415 L276 415 L276 743 L157 743 L157 415 Z " />
<glyph glyph-name="section" unicode="&#xa7;" horiz-adv-x="618" d="M86 259 C86 162 155 118 232 75 L275 51 C331 20 364 -10 364 -52 C364 -89 347 -114 296 -114 C221 -114 219 -39 219 -39 L102 -39 C102 -39 96 -215 302 -215 C422 -215 493 -152 493 -45 C493 29 444 70 429 82 C429 82 535 137 535 245 C535 334 470 379 396 423 L358 445 C302 478 260 506 260 552 C260 591 282 610 319 610 C391 610 394 539 394 539 L512 539 C512 539 511 712 319 712 C206 712 133 650 133 550 C133 471 188 426 201 415 C194 413 86 366 86 259 L86 259 Z M293 172 C238 205 209 228 209 276 C209 338 262 367 268 370 L333 331 C390 297 414 270 414 228 C414 178 381 141 362 131 L293 172 Z " />
<glyph glyph-name="dieresis" unicode="&#xa8;" horiz-adv-x="331" d="M0 586 L127 586 L127 710 L0 710 L0 586 Z M205 586 L331 586 L331 710 L205 710 L205 586 Z " />
<glyph glyph-name="copyright" unicode="&#xa9;" horiz-adv-x="826" d="M493 301 C493 301 489 231 412 231 C356 231 321 276 321 362 C321 452 357 486 409 486 C480 486 487 415 487 415 L590 415 C590 415 580 576 408 576 C292 576 212 489 212 362 C212 212 295 141 414 141 C586 141 594 301 594 301 L493 301 Z M39 356 C39 133 194 -17 413 -17 C622 -17 787 132 787 356 C787 583 623 730 413 730 C206 730 39 580 39 356 L39 356 Z M131 356 C131 530 247 649 413 649 C578 649 694 530 694 356 C694 182 578 63 413 63 C247 63 131 182 131 356 L131 356 Z " />
<glyph glyph-name="ordfeminine" unicode="&#xaa;" horiz-adv-x="382" d="M220 539 C220 539 191 541 175 541 C75 541 33 507 33 437 C33 370 75 339 145 339 C206 339 236 370 249 387 L250 380 C252 372 262 341 310 341 C331 341 355 346 355 346 L355 416 L345 416 C325 416 318 420 318 445 L318 563 C318 630 280 668 193 668 C55 668 51 564 51 564 L144 564 C146 573 149 598 184 598 C212 598 220 586 220 562 L220 539 Z M218 467 C218 427 202 408 168 408 C140 408 128 421 128 445 C128 469 140 485 182 485 C204 485 218 482 218 482 L218 467 Z " />
<glyph glyph-name="guillemotleft" unicode="&#xab;" horiz-adv-x="527" d="M149 447 L40 250 L149 53 L274 53 L173 251 L275 447 L149 447 Z M359 447 L250 250 L359 53 L485 53 L384 251 L485 447 L359 447 Z " />
<glyph glyph-name="logicalnot" unicode="&#xac;" horiz-adv-x="618" d="M82 211 L424 211 L424 46 L535 46 L535 314 L82 314 L82 211 Z " />
<glyph glyph-name="registered" unicode="&#xae;" horiz-adv-x="498" d="M241 564 L282 477 L351 477 L298 570 C331 581 347 608 347 638 C346 699 295 707 250 707 L164 707 L164 477 L227 477 L227 564 L241 564 Z M227 609 L227 663 L249 663 C269 663 283 659 283 638 C283 615 270 609 249 609 L227 609 Z M79 588 C79 699 153 761 249 761 C345 761 420 699 420 588 C420 477 345 415 249 415 C153 415 79 477 79 588 L79 588 Z M17 588 C17 441 123 361 249 361 C376 361 482 446 482 588 C482 730 382 815 249 815 C123 815 17 729 17 588 L17 588 Z " />
<glyph glyph-name="macron" unicode="&#xaf;" horiz-adv-x="294" d="M0 603 L294 603 L294 697 L0 697 L0 603 Z " />
<glyph glyph-name="degree" unicode="&#xb0;" horiz-adv-x="419" d="M210 785 C117 785 37 723 37 627 C37 532 111 468 210 468 C304 468 382 533 382 627 C382 723 308 785 210 785 L210 785 Z M210 710 C255 710 287 679 287 627 C287 576 256 543 210 543 C163 543 132 575 132 627 C132 680 164 710 210 710 L210 710 Z " />
<glyph glyph-name="plusminus" unicode="&#xb1;" horiz-adv-x="618" d="M82 295 L256 295 L256 171 L362 171 L362 295 L535 295 L535 394 L362 394 L362 516 L256 516 L256 394 L82 394 L82 295 Z M82 0 L535 0 L535 99 L82 99 L82 0 Z " />
<glyph glyph-name="twosuperior" unicode="&#xb2;" horiz-adv-x="428" d="M58 386 L375 386 L375 477 L184 477 C305 548 370 614 370 693 C370 774 312 814 224 814 C56 814 54 657 54 657 L153 657 C153 657 155 727 215 727 C254 727 262 704 262 684 C262 620 192 573 58 466 L58 386 Z " />
<glyph glyph-name="threesuperior" unicode="&#xb3;" horiz-adv-x="428" d="M48 526 C48 452 87 375 218 375 C338 375 386 430 386 509 C386 598 299 606 291 607 C302 609 373 626 373 704 C373 762 331 813 228 813 C112 813 63 741 63 676 L158 676 C161 700 173 729 217 729 C251 729 265 713 265 688 C265 654 247 636 187 636 L163 636 L163 564 L191 564 C253 564 277 550 277 512 C277 478 259 459 217 459 C151 459 146 511 146 526 L48 526 Z " />
<glyph glyph-name="acute" unicode="&#xb4;" horiz-adv-x="240" d="M76 719 L0 580 L120 580 L240 719 L76 719 Z " />
<glyph glyph-name="&amp;#xb5;" unicode="&#xb5;" horiz-adv-x="575" d="M76 -198 L202 -198 L202 37 C216 9 252 -3 281 -3 C349 -3 372 56 372 56 L376 0 L497 0 L497 504 L372 504 L372 207 C372 119 322 93 280 93 C213 93 202 139 202 207 L202 504 L76 504 L76 -198 Z " />
<glyph glyph-name="&amp;#x3bc;" unicode="&#x3bc;" horiz-adv-x="575" d="M76 -198 L202 -198 L202 37 C216 9 252 -3 281 -3 C349 -3 372 56 372 56 L376 0 L497 0 L497 504 L372 504 L372 207 C372 119 322 93 280 93 C213 93 202 139 202 207 L202 504 L76 504 L76 -198 Z " />
<glyph glyph-name="paragraph" unicode="&#xb6;" horiz-adv-x="618" d="M32 513 C32 398 107 323 212 316 L212 -100 L317 -100 L317 625 L407 625 L407 -100 L511 -100 L511 625 L586 625 L586 712 L239 712 C125 712 32 636 32 513 L32 513 Z " />
<glyph glyph-name="periodcentered" unicode="&#xb7;" horiz-adv-x="253" d="M53 195 L199 195 L199 331 L53 331 L53 195 Z " />
<glyph glyph-name="cedilla" unicode="&#xb8;" horiz-adv-x="225" d="M0 -214 C4 -215 36 -237 88 -237 C197 -237 224 -167 224 -135 C224 -106 209 -55 132 -55 C124 -55 116 -56 116 -56 L148 0 L81 0 L35 -83 L57 -105 C57 -105 66 -101 84 -101 C107 -101 129 -108 129 -135 C129 -165 103 -174 77 -174 C48 -174 26 -158 26 -158 L0 -214 Z " />
<glyph glyph-name="onesuperior" unicode="&#xb9;" horiz-adv-x="342" d="M260 386 L260 803 L172 803 C155 762 90 741 61 734 L61 636 C86 639 126 653 156 672 L156 386 L260 386 Z " />
<glyph glyph-name="ordmasculine" unicode="&#xba;" horiz-adv-x="383" d="M34 502 C34 373 105 335 191 335 C279 335 349 378 349 502 C349 615 283 668 191 668 C105 668 34 617 34 502 L34 502 Z M138 502 C138 574 162 590 191 590 C221 590 246 573 246 502 C246 426 221 412 191 412 C162 412 138 425 138 502 L138 502 Z " />
<glyph glyph-name="guillemotright" unicode="&#xbb;" horiz-adv-x="527" d="M252 447 L354 251 L253 53 L379 53 L488 250 L379 447 L252 447 Z M42 447 L144 251 L43 53 L168 53 L277 250 L168 447 L42 447 Z " />
<glyph glyph-name="onequarter" unicode="&#xbc;" horiz-adv-x="1007" d="M622 86 L811 86 L811 0 L916 0 L916 86 L962 86 L962 165 L916 165 L916 417 L805 417 L622 156 L622 86 Z M705 165 L811 317 L811 165 L705 165 Z M301 285 L301 702 L213 702 C196 661 131 640 102 633 L102 535 C127 538 167 552 197 571 L197 285 L301 285 Z M218 -10 L332 -10 L782 699 L668 699 L218 -10 Z " />
<glyph glyph-name="onehalf" unicode="&#xbd;" horiz-adv-x="1007" d="M635 0 L952 0 L952 91 L761 91 C882 162 947 228 947 307 C947 388 889 428 801 428 C633 428 631 271 631 271 L730 271 C730 271 732 341 792 341 C831 341 839 318 839 298 C839 234 769 187 635 80 L635 0 Z M301 285 L301 702 L213 702 C196 661 131 640 102 633 L102 535 C127 538 167 552 197 571 L197 285 L301 285 Z M218 -10 L332 -10 L782 699 L668 699 L218 -10 Z " />
<glyph glyph-name="threequarters" unicode="&#xbe;" horiz-adv-x="1007" d="M48 425 C48 351 87 274 218 274 C338 274 386 329 386 408 C386 497 299 505 291 506 C302 508 373 525 373 603 C373 661 331 712 228 712 C112 712 63 640 63 575 L158 575 C161 599 173 628 217 628 C251 628 265 612 265 587 C265 553 247 535 187 535 L163 535 L163 463 L191 463 C253 463 277 449 277 411 C277 377 259 358 217 358 C151 358 146 410 146 425 L48 425 Z M622 86 L811 86 L811 0 L916 0 L916 86 L962 86 L962 165 L916 165 L916 417 L805 417 L622 156 L622 86 Z M218 -10 L332 -10 L782 699 L668 699 L218 -10 Z M705 165 L811 317 L811 165 L705 165 Z " />
<glyph glyph-name="questiondown" unicode="&#xbf;" horiz-adv-x="514" d="M309 493 L191 493 L191 439 C191 333 30 295 30 152 C30 19 134 -17 236 -17 C456 -17 452 178 452 188 L333 188 C333 182 335 91 242 91 C191 91 162 112 162 158 C162 263 309 296 309 430 L309 493 Z M324 712 L178 712 L178 576 L324 576 L324 712 Z " />
<glyph glyph-name="Agrave" unicode="&#xc0;" horiz-adv-x="702" d="M546 0 L692 0 L408 712 L294 712 L10 0 L145 0 L206 165 L486 165 L546 0 Z M291 396 C320 474 345 548 346 552 C348 545 373 475 402 397 L449 266 L243 266 L291 396 Z M161 916 L282 777 L402 777 L326 916 L161 916 Z " />
<glyph glyph-name="Aacute" unicode="&#xc1;" horiz-adv-x="702" d="M546 0 L692 0 L408 712 L294 712 L10 0 L145 0 L206 165 L486 165 L546 0 Z M291 396 C320 474 345 548 346 552 C348 545 373 475 402 397 L449 266 L243 266 L291 396 Z M375 916 L298 777 L419 777 L540 916 L375 916 Z " />
<glyph glyph-name="Acircumflex" unicode="&#xc2;" horiz-adv-x="702" d="M546 0 L692 0 L408 712 L294 712 L10 0 L145 0 L206 165 L486 165 L546 0 Z M268 915 L174 776 L302 776 L347 860 L392 776 L526 776 L432 915 L268 915 Z M291 396 C320 474 345 548 346 552 C348 545 373 475 402 397 L449 266 L243 266 L291 396 Z " />
<glyph glyph-name="Atilde" unicode="&#xc3;" horiz-adv-x="702" d="M546 0 L692 0 L408 712 L294 712 L10 0 L145 0 L206 165 L486 165 L546 0 Z M260 780 C260 785 260 821 289 821 C325 821 360 774 427 774 C522 774 517 891 516 909 L440 909 C440 905 440 863 412 863 C372 863 341 913 279 913 C181 913 179 799 180 780 L260 780 Z M291 396 C320 474 345 548 346 552 C348 545 373 475 402 397 L449 266 L243 266 L291 396 Z " />
<glyph glyph-name="Adieresis" unicode="&#xc4;" horiz-adv-x="702" d="M546 0 L692 0 L408 712 L294 712 L10 0 L145 0 L206 165 L486 165 L546 0 Z M291 396 C320 474 345 548 346 552 C348 545 373 475 402 397 L449 266 L243 266 L291 396 Z M184 788 L311 788 L311 912 L184 912 L184 788 Z M389 788 L515 788 L515 912 L389 912 L389 788 Z " />
<glyph glyph-name="Aring" unicode="&#xc5;" horiz-adv-x="702" d="M546 0 L692 0 L408 712 L294 712 L10 0 L145 0 L206 165 L486 165 L546 0 Z M225 845 C225 769 286 733 350 733 C415 733 476 769 476 845 C476 920 415 957 350 957 C286 957 225 920 225 845 L225 845 Z M291 396 C320 474 345 548 346 552 C348 545 373 475 402 397 L449 266 L243 266 L291 396 Z M302 845 C302 874 322 892 350 892 C378 892 398 874 398 845 C398 815 378 797 350 797 C322 797 302 815 302 845 L302 845 Z " />
<glyph glyph-name="AE" unicode="&#xc6;" horiz-adv-x="895" d="M843 0 L843 110 L580 110 L580 315 L807 315 L807 425 L580 425 L580 602 L842 602 L842 712 L357 712 L7 0 L150 0 L229 174 L448 174 L448 0 L843 0 Z M428 602 L448 602 L448 282 L279 282 L428 602 Z " />
<glyph glyph-name="Ccedilla" unicode="&#xc7;" horiz-adv-x="676" d="M234 -214 C238 -215 270 -237 322 -237 C431 -237 458 -167 458 -135 C458 -106 443 -55 366 -55 C358 -55 350 -56 350 -56 L372 -16 C628 -5 643 229 644 255 L509 255 C507 239 502 93 353 93 C198 93 179 230 179 359 C179 559 251 620 350 620 C489 620 500 480 500 468 L636 468 C636 487 618 730 351 730 C152 730 44 588 44 354 C44 148 106 4 306 -15 L269 -83 L291 -105 C291 -105 300 -101 318 -101 C341 -101 363 -108 363 -135 C363 -165 337 -174 311 -174 C282 -174 260 -158 260 -158 L234 -214 Z " />
<glyph glyph-name="Egrave" unicode="&#xc8;" horiz-adv-x="595" d="M82 0 L543 0 L543 110 L214 110 L214 309 L506 309 L506 419 L214 419 L214 602 L538 602 L538 712 L82 712 L82 0 Z M151 916 L272 777 L392 777 L316 916 L151 916 Z " />
<glyph glyph-name="Eacute" unicode="&#xc9;" horiz-adv-x="595" d="M322 916 L245 777 L366 777 L487 916 L322 916 Z M82 0 L543 0 L543 110 L214 110 L214 309 L506 309 L506 419 L214 419 L214 602 L538 602 L538 712 L82 712 L82 0 Z " />
<glyph glyph-name="Ecircumflex" unicode="&#xca;" horiz-adv-x="595" d="M231 915 L137 776 L265 776 L310 860 L355 776 L489 776 L395 915 L231 915 Z M82 0 L543 0 L543 110 L214 110 L214 309 L506 309 L506 419 L214 419 L214 602 L538 602 L538 712 L82 712 L82 0 Z " />
<glyph glyph-name="Edieresis" unicode="&#xcb;" horiz-adv-x="595" d="M144 788 L271 788 L271 912 L144 912 L144 788 Z M349 788 L475 788 L475 912 L349 912 L349 788 Z M82 0 L543 0 L543 110 L214 110 L214 309 L506 309 L506 419 L214 419 L214 602 L538 602 L538 712 L82 712 L82 0 Z " />
<glyph glyph-name="Igrave" unicode="&#xcc;" horiz-adv-x="295" d="M82 0 L214 0 L214 712 L82 712 L82 0 Z M-15 916 L106 777 L226 777 L150 916 L-15 916 Z " />
<glyph glyph-name="Iacute" unicode="&#xcd;" horiz-adv-x="295" d="M82 0 L214 0 L214 712 L82 712 L82 0 Z M155 916 L78 777 L199 777 L320 916 L155 916 Z " />
<glyph glyph-name="Icircumflex" unicode="&#xce;" horiz-adv-x="295" d="M82 0 L214 0 L214 712 L82 712 L82 0 Z M67 915 L-27 776 L101 776 L146 860 L191 776 L325 776 L231 915 L67 915 Z " />
<glyph glyph-name="Idieresis" unicode="&#xcf;" horiz-adv-x="295" d="M82 0 L214 0 L214 712 L82 712 L82 0 Z M-17 788 L110 788 L110 912 L-17 912 L-17 788 Z M188 788 L314 788 L314 912 L188 912 L188 788 Z " />
<glyph glyph-name="Eth" unicode="&#xd0;" horiz-adv-x="710" d="M6 314 L89 314 L89 0 L284 0 C580 0 665 158 665 372 C665 574 573 712 277 712 L89 712 L89 415 L6 415 L6 314 Z M221 110 L221 314 L371 314 L371 415 L221 415 L221 602 L290 602 C490 602 530 488 530 372 C530 196 466 110 286 110 L221 110 Z " />
<glyph glyph-name="Ntilde" unicode="&#xd1;" horiz-adv-x="730" d="M82 0 L209 0 L209 331 C209 445 206 520 206 520 C206 520 245 442 299 353 L510 0 L648 0 L648 712 L521 712 L521 411 C521 291 525 196 525 196 C525 196 478 284 427 370 L224 712 L82 712 L82 0 Z M283 780 C283 785 283 821 312 821 C348 821 383 774 450 774 C545 774 540 891 539 909 L463 909 C463 905 463 863 435 863 C395 863 364 913 302 913 C204 913 202 799 203 780 L283 780 Z " />
<glyph glyph-name="Ograve" unicode="&#xd2;" horiz-adv-x="729" d="M44 357 C44 79 188 -17 364 -17 C542 -17 685 90 685 357 C685 611 550 730 364 730 C188 730 44 611 44 357 L44 357 Z M179 357 C179 550 259 620 364 620 C470 620 550 550 550 357 C550 154 470 93 364 93 C261 93 179 154 179 357 L179 357 Z M203 916 L324 777 L444 777 L368 916 L203 916 Z " />
<glyph glyph-name="Oacute" unicode="&#xd3;" horiz-adv-x="729" d="M371 916 L294 777 L415 777 L536 916 L371 916 Z M44 357 C44 79 188 -17 364 -17 C542 -17 685 90 685 357 C685 611 550 730 364 730 C188 730 44 611 44 357 L44 357 Z M179 357 C179 550 259 620 364 620 C470 620 550 550 550 357 C550 154 470 93 364 93 C261 93 179 154 179 357 L179 357 Z " />
<glyph glyph-name="Ocircumflex" unicode="&#xd4;" horiz-adv-x="729" d="M282 915 L188 776 L316 776 L361 860 L406 776 L540 776 L446 915 L282 915 Z M44 357 C44 79 188 -17 364 -17 C542 -17 685 90 685 357 C685 611 550 730 364 730 C188 730 44 611 44 357 L44 357 Z M179 357 C179 550 259 620 364 620 C470 620 550 550 550 357 C550 154 470 93 364 93 C261 93 179 154 179 357 L179 357 Z " />
<glyph glyph-name="Otilde" unicode="&#xd5;" horiz-adv-x="729" d="M44 357 C44 79 188 -17 364 -17 C542 -17 685 90 685 357 C685 611 550 730 364 730 C188 730 44 611 44 357 L44 357 Z M179 357 C179 550 259 620 364 620 C470 620 550 550 550 357 C550 154 470 93 364 93 C261 93 179 154 179 357 L179 357 Z M274 780 C274 785 274 821 303 821 C339 821 374 774 441 774 C536 774 531 891 530 909 L454 909 C454 905 454 863 426 863 C386 863 355 913 293 913 C195 913 193 799 194 780 L274 780 Z " />
<glyph glyph-name="Odieresis" unicode="&#xd6;" horiz-adv-x="729" d="M198 788 L325 788 L325 912 L198 912 L198 788 Z M403 788 L529 788 L529 912 L403 912 L403 788 Z M44 357 C44 79 188 -17 364 -17 C542 -17 685 90 685 357 C685 611 550 730 364 730 C188 730 44 611 44 357 L44 357 Z M179 357 C179 550 259 620 364 620 C470 620 550 550 550 357 C550 154 470 93 364 93 C261 93 179 154 179 357 L179 357 Z " />
<glyph glyph-name="multiply" unicode="&#xd7;" horiz-adv-x="618" d="M172 54 L307 189 L445 51 L520 125 L381 263 L515 397 L443 469 L309 335 L172 473 L98 398 L235 260 L101 126 L172 54 Z " />
<glyph glyph-name="Oslash" unicode="&#xd8;" horiz-adv-x="729" d="M44 357 C44 236 71 149 116 90 L25 -39 L139 -39 L186 27 C237 -4 298 -17 364 -17 C542 -17 685 90 685 357 C685 474 656 562 607 623 L696 749 L581 749 L536 686 C487 715 429 730 364 730 C188 730 44 611 44 357 L44 357 Z M550 357 C550 154 470 93 364 93 C323 93 286 102 256 126 L526 509 C541 470 550 420 550 357 L550 357 Z M179 357 C179 550 259 620 364 620 C403 620 438 610 468 588 L200 209 C186 246 179 295 179 357 L179 357 Z " />
<glyph glyph-name="Ugrave" unicode="&#xd9;" horiz-adv-x="720" d="M77 251 C77 64 182 -17 360 -17 C531 -17 643 64 643 251 L643 712 L511 712 L511 252 C511 121 431 92 360 92 C289 92 209 123 209 254 L209 712 L77 712 L77 251 Z M200 916 L321 777 L441 777 L365 916 L200 916 Z " />
<glyph glyph-name="Uacute" unicode="&#xda;" horiz-adv-x="720" d="M362 916 L285 777 L406 777 L527 916 L362 916 Z M77 251 C77 64 182 -17 360 -17 C531 -17 643 64 643 251 L643 712 L511 712 L511 252 C511 121 431 92 360 92 C289 92 209 123 209 254 L209 712 L77 712 L77 251 Z " />
<glyph glyph-name="Ucircumflex" unicode="&#xdb;" horiz-adv-x="720" d="M277 915 L183 776 L311 776 L356 860 L401 776 L535 776 L441 915 L277 915 Z M77 251 C77 64 182 -17 360 -17 C531 -17 643 64 643 251 L643 712 L511 712 L511 252 C511 121 431 92 360 92 C289 92 209 123 209 254 L209 712 L77 712 L77 251 Z " />
<glyph glyph-name="Udieresis" unicode="&#xdc;" horiz-adv-x="720" d="M194 788 L321 788 L321 912 L194 912 L194 788 Z M399 788 L525 788 L525 912 L399 912 L399 788 Z M77 251 C77 64 182 -17 360 -17 C531 -17 643 64 643 251 L643 712 L511 712 L511 252 C511 121 431 92 360 92 C289 92 209 123 209 254 L209 712 L77 712 L77 251 Z " />
<glyph glyph-name="Yacute" unicode="&#xdd;" horiz-adv-x="618" d="M241 0 L373 0 L373 293 L614 712 L474 712 L399 572 C357 492 310 404 310 404 C310 404 264 493 222 573 L150 712 L4 712 L241 294 L241 0 Z M319 916 L242 777 L363 777 L484 916 L319 916 Z " />
<glyph glyph-name="Thorn" unicode="&#xde;" horiz-adv-x="612" d="M82 0 L214 0 L214 147 L316 147 C473 147 584 214 584 378 C584 549 454 587 314 587 L214 587 L214 712 L82 712 L82 0 Z M214 257 L214 477 L313 477 C403 477 449 456 449 373 C449 273 387 257 308 257 L214 257 Z " />
<glyph glyph-name="germandbls" unicode="&#xdf;" horiz-adv-x="576" d="M206 519 C206 572 221 629 290 629 C346 629 371 592 371 543 C371 482 344 446 285 446 L279 446 L279 343 L285 343 C381 343 420 298 420 216 C420 111 368 94 311 94 C303 94 275 95 275 95 L275 1 C275 1 306 -5 343 -5 C430 -5 546 24 546 215 C546 373 421 400 387 403 C409 405 497 440 497 557 C497 669 403 727 292 727 C147 727 80 645 80 526 L80 504 L19 504 L19 407 L80 407 L80 0 L206 0 L206 519 Z " />
<glyph glyph-name="agrave" unicode="&#xe0;" horiz-adv-x="541" d="M340 308 C340 308 291 312 256 312 C101 312 36 255 36 148 C36 39 102 -10 210 -10 C307 -10 364 51 373 70 L374 64 C377 41 392 -7 459 -7 C488 -7 516 0 516 0 L516 90 L497 90 C468 90 459 101 459 138 L459 351 C459 461 403 521 271 521 C71 521 63 358 63 358 L178 358 C180 366 183 427 263 427 C320 427 340 402 340 346 L340 308 Z M338 202 C338 133 311 88 234 88 C188 88 163 109 163 155 C163 196 181 231 268 231 C307 231 338 227 338 227 L338 202 Z M103 719 L224 580 L343 580 L268 719 L103 719 Z " />
<glyph glyph-name="aacute" unicode="&#xe1;" horiz-adv-x="541" d="M340 308 C340 308 291 312 256 312 C101 312 36 255 36 148 C36 39 102 -10 210 -10 C307 -10 364 51 373 70 L374 64 C377 41 392 -7 459 -7 C488 -7 516 0 516 0 L516 90 L497 90 C468 90 459 101 459 138 L459 351 C459 461 403 521 271 521 C71 521 63 358 63 358 L178 358 C180 366 183 427 263 427 C320 427 340 402 340 346 L340 308 Z M338 202 C338 133 311 88 234 88 C188 88 163 109 163 155 C163 196 181 231 268 231 C307 231 338 227 338 227 L338 202 Z M288 719 L212 580 L332 580 L452 719 L288 719 Z " />
<glyph glyph-name="acircumflex" unicode="&#xe2;" horiz-adv-x="541" d="M340 308 C340 308 291 312 256 312 C101 312 36 255 36 148 C36 39 102 -10 210 -10 C307 -10 364 51 373 70 L374 64 C377 41 392 -7 459 -7 C488 -7 516 0 516 0 L516 90 L497 90 C468 90 459 101 459 138 L459 351 C459 461 403 521 271 521 C71 521 63 358 63 358 L178 358 C180 366 183 427 263 427 C320 427 340 402 340 346 L340 308 Z M338 202 C338 133 311 88 234 88 C188 88 163 109 163 155 C163 196 181 231 268 231 C307 231 338 227 338 227 L338 202 Z M189 719 L95 580 L222 580 L267 665 L313 580 L446 580 L352 719 L189 719 Z " />
<glyph glyph-name="atilde" unicode="&#xe3;" horiz-adv-x="541" d="M340 308 C340 308 291 312 256 312 C101 312 36 255 36 148 C36 39 102 -10 210 -10 C307 -10 364 51 373 70 L374 64 C377 41 392 -7 459 -7 C488 -7 516 0 516 0 L516 90 L497 90 C468 90 459 101 459 138 L459 351 C459 461 403 521 271 521 C71 521 63 358 63 358 L178 358 C180 366 183 427 263 427 C320 427 340 402 340 346 L340 308 Z M338 202 C338 133 311 88 234 88 C188 88 163 109 163 155 C163 196 181 231 268 231 C307 231 338 227 338 227 L338 202 Z M180 583 C180 589 180 624 209 624 C245 624 280 577 347 577 C442 577 437 695 436 713 L361 713 C361 709 361 667 333 667 C293 667 261 717 199 717 C101 717 99 603 100 583 L180 583 Z " />
<glyph glyph-name="adieresis" unicode="&#xe4;" horiz-adv-x="541" d="M340 308 C340 308 291 312 256 312 C101 312 36 255 36 148 C36 39 102 -10 210 -10 C307 -10 364 51 373 70 L374 64 C377 41 392 -7 459 -7 C488 -7 516 0 516 0 L516 90 L497 90 C468 90 459 101 459 138 L459 351 C459 461 403 521 271 521 C71 521 63 358 63 358 L178 358 C180 366 183 427 263 427 C320 427 340 402 340 346 L340 308 Z M338 202 C338 133 311 88 234 88 C188 88 163 109 163 155 C163 196 181 231 268 231 C307 231 338 227 338 227 L338 202 Z M100 586 L227 586 L227 710 L100 710 L100 586 Z M305 586 L431 586 L431 710 L305 710 L305 586 Z " />
<glyph glyph-name="aring" unicode="&#xe5;" horiz-adv-x="541" d="M340 308 C340 308 291 312 256 312 C101 312 36 255 36 148 C36 39 102 -10 210 -10 C307 -10 364 51 373 70 L374 64 C377 41 392 -7 459 -7 C488 -7 516 0 516 0 L516 90 L497 90 C468 90 459 101 459 138 L459 351 C459 461 403 521 271 521 C71 521 63 358 63 358 L178 358 C180 366 183 427 263 427 C320 427 340 402 340 346 L340 308 Z M338 202 C338 133 311 88 234 88 C188 88 163 109 163 155 C163 196 181 231 268 231 C307 231 338 227 338 227 L338 202 Z M145 671 C145 595 206 558 270 558 C334 558 395 595 395 671 C395 746 334 783 270 783 C206 783 145 746 145 671 L145 671 Z M222 671 C222 701 242 719 270 719 C298 719 318 701 318 671 C318 641 298 622 270 622 C242 622 222 641 222 671 L222 671 Z " />
<glyph glyph-name="ae" unicode="&#xe6;" horiz-adv-x="821" d="M785 221 C786 234 786 246 786 259 C786 408 726 521 574 521 C455 521 413 439 413 439 C413 439 385 521 261 521 C72 521 62 356 62 356 L177 356 C177 356 178 424 256 424 C318 424 336 385 336 328 L336 303 L255 303 C122 303 36 260 36 142 C36 46 91 -17 217 -17 C360 -17 396 85 396 85 C396 85 431 -17 580 -17 C771 -17 780 154 780 154 L666 154 C666 154 662 80 579 80 C479 80 471 191 471 221 L785 221 Z M334 202 C334 118 298 77 235 77 C178 77 159 109 159 147 C159 202 191 223 265 223 L334 223 L334 202 Z M472 300 C473 330 485 424 570 424 C652 424 663 339 663 300 L472 300 Z " />
<glyph glyph-name="ccedilla" unicode="&#xe7;" horiz-adv-x="503" d="M145 -214 C149 -215 181 -237 233 -237 C342 -237 369 -167 369 -135 C369 -106 354 -55 277 -55 C269 -55 261 -56 261 -56 L283 -16 C471 -7 476 164 476 185 L361 185 C360 163 351 81 269 81 C176 81 164 164 164 252 C164 341 182 423 263 423 C345 423 353 339 354 326 L471 326 C471 342 463 521 263 521 C95 521 38 385 38 252 C38 90 100 4 218 -13 L180 -83 L202 -105 C202 -105 211 -101 229 -101 C252 -101 274 -108 274 -135 C274 -165 248 -174 222 -174 C193 -174 171 -158 171 -158 L145 -214 Z " />
<glyph glyph-name="egrave" unicode="&#xe8;" horiz-adv-x="529" d="M491 215 C508 372 450 521 273 521 C108 521 38 401 38 249 C38 65 121 -17 274 -17 C468 -17 486 141 487 155 L373 155 C372 148 363 81 277 81 C171 81 165 176 165 215 L491 215 Z M167 304 C172 373 200 423 269 423 C341 423 369 369 370 304 L167 304 Z M105 719 L226 580 L345 580 L270 719 L105 719 Z " />
<glyph glyph-name="eacute" unicode="&#xe9;" horiz-adv-x="529" d="M271 719 L195 580 L315 580 L435 719 L271 719 Z M491 215 C508 372 450 521 273 521 C108 521 38 401 38 249 C38 65 121 -17 274 -17 C468 -17 486 141 487 155 L373 155 C372 148 363 81 277 81 C171 81 165 176 165 215 L491 215 Z M167 304 C172 373 200 423 269 423 C341 423 369 369 370 304 L167 304 Z " />
<glyph glyph-name="ecircumflex" unicode="&#xea;" horiz-adv-x="529" d="M189 719 L95 580 L222 580 L267 665 L313 580 L446 580 L352 719 L189 719 Z M491 215 C508 372 450 521 273 521 C108 521 38 401 38 249 C38 65 121 -17 274 -17 C468 -17 486 141 487 155 L373 155 C372 148 363 81 277 81 C171 81 165 176 165 215 L491 215 Z M167 304 C172 373 200 423 269 423 C341 423 369 369 370 304 L167 304 Z " />
<glyph glyph-name="edieresis" unicode="&#xeb;" horiz-adv-x="529" d="M104 586 L231 586 L231 710 L104 710 L104 586 Z M309 586 L435 586 L435 710 L309 710 L309 586 Z M491 215 C508 372 450 521 273 521 C108 521 38 401 38 249 C38 65 121 -17 274 -17 C468 -17 486 141 487 155 L373 155 C372 148 363 81 277 81 C171 81 165 176 165 215 L491 215 Z M167 304 C172 373 200 423 269 423 C341 423 369 369 370 304 L167 304 Z " />
<glyph glyph-name="igrave" unicode="&#xec;" horiz-adv-x="265" d="M70 0 L196 0 L196 504 L70 504 L70 0 Z M-41 719 L80 580 L199 580 L124 719 L-41 719 Z " />
<glyph glyph-name="iacute" unicode="&#xed;" horiz-adv-x="265" d="M142 719 L66 580 L186 580 L306 719 L142 719 Z M70 0 L196 0 L196 504 L70 504 L70 0 Z " />
<glyph glyph-name="icircumflex" unicode="&#xee;" horiz-adv-x="265" d="M52 719 L-42 580 L85 580 L130 665 L176 580 L309 580 L215 719 L52 719 Z M70 0 L196 0 L196 504 L70 504 L70 0 Z " />
<glyph glyph-name="idieresis" unicode="&#xef;" horiz-adv-x="265" d="M-32 586 L95 586 L95 710 L-32 710 L-32 586 Z M173 586 L299 586 L299 710 L173 710 L173 586 Z M70 0 L196 0 L196 504 L70 504 L70 0 Z " />
<glyph glyph-name="eth" unicode="&#xf0;" horiz-adv-x="541" d="M121 566 L261 566 L266 558 L306 488 C294 499 272 502 250 502 C131 502 38 410 38 245 C38 47 139 -17 270 -17 C400 -17 503 54 503 245 C503 339 480 406 428 501 L392 566 L447 566 L447 630 L357 630 L313 712 L176 712 L224 630 L121 630 L121 566 Z M164 245 C164 365 209 405 270 405 C332 405 377 365 377 245 C377 116 332 81 270 81 C208 81 164 117 164 245 L164 245 Z " />
<glyph glyph-name="ntilde" unicode="&#xf1;" horiz-adv-x="567" d="M70 0 L196 0 L196 297 C196 387 250 413 292 413 C357 413 374 370 374 297 L374 0 L500 0 L500 328 C500 457 445 515 340 515 C236 515 194 435 194 435 L191 504 L70 504 L70 0 Z M196 583 C196 589 196 624 225 624 C261 624 296 577 363 577 C458 577 453 695 452 713 L377 713 C377 709 377 667 349 667 C309 667 277 717 215 717 C117 717 115 603 116 583 L196 583 Z " />
<glyph glyph-name="ograve" unicode="&#xf2;" horiz-adv-x="541" d="M38 252 C38 48 140 -17 270 -17 C399 -17 503 55 503 252 C503 441 402 521 270 521 C142 521 38 438 38 252 L38 252 Z M164 252 C164 382 209 423 270 423 C332 423 377 383 377 252 C377 116 333 81 270 81 C209 81 164 116 164 252 L164 252 Z M90 719 L211 580 L330 580 L255 719 L90 719 Z " />
<glyph glyph-name="oacute" unicode="&#xf3;" horiz-adv-x="541" d="M276 719 L200 580 L320 580 L440 719 L276 719 Z M38 252 C38 48 140 -17 270 -17 C399 -17 503 55 503 252 C503 441 402 521 270 521 C142 521 38 438 38 252 L38 252 Z M164 252 C164 382 209 423 270 423 C332 423 377 383 377 252 C377 116 333 81 270 81 C209 81 164 116 164 252 L164 252 Z " />
<glyph glyph-name="ocircumflex" unicode="&#xf4;" horiz-adv-x="541" d="M189 719 L95 580 L222 580 L267 665 L313 580 L446 580 L352 719 L189 719 Z M38 252 C38 48 140 -17 270 -17 C399 -17 503 55 503 252 C503 441 402 521 270 521 C142 521 38 438 38 252 L38 252 Z M164 252 C164 382 209 423 270 423 C332 423 377 383 377 252 C377 116 333 81 270 81 C209 81 164 116 164 252 L164 252 Z " />
<glyph glyph-name="otilde" unicode="&#xf5;" horiz-adv-x="541" d="M38 252 C38 48 140 -17 270 -17 C399 -17 503 55 503 252 C503 441 402 521 270 521 C142 521 38 438 38 252 L38 252 Z M164 252 C164 382 209 423 270 423 C332 423 377 383 377 252 C377 116 333 81 270 81 C209 81 164 116 164 252 L164 252 Z M180 583 C180 589 180 624 209 624 C245 624 280 577 347 577 C442 577 437 695 436 713 L361 713 C361 709 361 667 333 667 C293 667 261 717 199 717 C101 717 99 603 100 583 L180 583 Z " />
<glyph glyph-name="odieresis" unicode="&#xf6;" horiz-adv-x="541" d="M105 586 L232 586 L232 710 L105 710 L105 586 Z M310 586 L436 586 L436 710 L310 710 L310 586 Z M38 252 C38 48 140 -17 270 -17 C399 -17 503 55 503 252 C503 441 402 521 270 521 C142 521 38 438 38 252 L38 252 Z M164 252 C164 382 209 423 270 423 C332 423 377 383 377 252 C377 116 333 81 270 81 C209 81 164 116 164 252 L164 252 Z " />
<glyph glyph-name="divide" unicode="&#xf7;" horiz-adv-x="618" d="M246 20 L381 20 L381 152 L246 152 L246 20 Z M246 373 L380 373 L380 504 L246 504 L246 373 Z M82 211 L535 211 L535 314 L82 314 L82 211 Z " />
<glyph glyph-name="oslash" unicode="&#xf8;" horiz-adv-x="541" d="M38 252 C38 158 60 93 96 51 L29 -47 L101 -47 L142 13 C178 -8 222 -17 270 -17 C399 -17 503 55 503 252 C503 343 479 409 440 452 L506 549 L434 549 L394 490 C358 511 316 521 270 521 C142 521 38 438 38 252 L38 252 Z M377 252 C377 116 333 81 270 81 C244 81 222 87 204 104 L366 343 C373 319 377 289 377 252 L377 252 Z M164 252 C164 382 209 423 270 423 C294 423 316 416 333 401 L173 164 C167 187 164 216 164 252 L164 252 Z " />
<glyph glyph-name="ugrave" unicode="&#xf9;" horiz-adv-x="558" d="M489 504 L363 504 L363 207 C363 119 313 93 271 93 C206 93 194 135 194 207 L194 504 L68 504 L68 181 C68 51 123 -10 225 -10 C325 -10 364 68 364 68 L367 0 L489 0 L489 504 Z M109 719 L230 580 L349 580 L274 719 L109 719 Z " />
<glyph glyph-name="uacute" unicode="&#xfa;" horiz-adv-x="558" d="M283 719 L207 580 L327 580 L447 719 L283 719 Z M489 504 L363 504 L363 207 C363 119 313 93 271 93 C206 93 194 135 194 207 L194 504 L68 504 L68 181 C68 51 123 -10 225 -10 C325 -10 364 68 364 68 L367 0 L489 0 L489 504 Z " />
<glyph glyph-name="ucircumflex" unicode="&#xfb;" horiz-adv-x="558" d="M197 719 L103 580 L230 580 L275 665 L321 580 L454 580 L360 719 L197 719 Z M489 504 L363 504 L363 207 C363 119 313 93 271 93 C206 93 194 135 194 207 L194 504 L68 504 L68 181 C68 51 123 -10 225 -10 C325 -10 364 68 364 68 L367 0 L489 0 L489 504 Z " />
<glyph glyph-name="udieresis" unicode="&#xfc;" horiz-adv-x="558" d="M110 586 L237 586 L237 710 L110 710 L110 586 Z M315 586 L441 586 L441 710 L315 710 L315 586 Z M489 504 L363 504 L363 207 C363 119 313 93 271 93 C206 93 194 135 194 207 L194 504 L68 504 L68 181 C68 51 123 -10 225 -10 C325 -10 364 68 364 68 L367 0 L489 0 L489 504 Z " />
<glyph glyph-name="yacute" unicode="&#xfd;" horiz-adv-x="520" d="M185 -21 C166 -77 140 -96 91 -96 C83 -96 68 -95 68 -95 L68 -191 C68 -191 99 -197 130 -197 C233 -197 263 -131 298 -41 L512 504 L381 504 L309 288 C285 218 266 154 265 151 C263 158 244 227 223 289 L152 504 L18 504 L202 26 L185 -21 Z M267 719 L191 580 L311 580 L431 719 L267 719 Z " />
<glyph glyph-name="thorn" unicode="&#xfe;" horiz-adv-x="574" d="M70 -191 L196 -191 L196 61 C196 61 231 -15 338 -15 C479 -15 536 103 536 258 C536 402 484 519 348 519 C241 519 196 439 196 439 L196 712 L70 712 L70 -191 Z M196 256 C196 340 222 420 308 420 C377 420 410 358 410 256 C410 125 365 81 307 81 C211 81 196 177 196 256 L196 256 Z " />
<glyph glyph-name="ydieresis" unicode="&#xff;" horiz-adv-x="520" d="M185 -21 C166 -77 140 -96 91 -96 C83 -96 68 -95 68 -95 L68 -191 C68 -191 99 -197 130 -197 C233 -197 263 -131 298 -41 L512 504 L381 504 L309 288 C285 218 266 154 265 151 C263 158 244 227 223 289 L152 504 L18 504 L202 26 L185 -21 Z M97 586 L224 586 L224 710 L97 710 L97 586 Z M302 586 L428 586 L428 710 L302 710 L302 586 Z " />
<glyph glyph-name="Amacron" unicode="&#x100;" horiz-adv-x="702" d="M546 0 L692 0 L408 712 L294 712 L10 0 L145 0 L206 165 L486 165 L546 0 Z M291 396 C320 474 345 548 346 552 C348 545 373 475 402 397 L449 266 L243 266 L291 396 Z M203 799 L498 799 L498 893 L203 893 L203 799 Z " />
<glyph glyph-name="amacron" unicode="&#x101;" horiz-adv-x="541" d="M340 308 C340 308 291 312 256 312 C101 312 36 255 36 148 C36 39 102 -10 210 -10 C307 -10 364 51 373 70 L374 64 C377 41 392 -7 459 -7 C488 -7 516 0 516 0 L516 90 L497 90 C468 90 459 101 459 138 L459 351 C459 461 403 521 271 521 C71 521 63 358 63 358 L178 358 C180 366 183 427 263 427 C320 427 340 402 340 346 L340 308 Z M338 202 C338 133 311 88 234 88 C188 88 163 109 163 155 C163 196 181 231 268 231 C307 231 338 227 338 227 L338 202 Z M123 603 L417 603 L417 697 L123 697 L123 603 Z " />
<glyph glyph-name="Abreve" unicode="&#x102;" horiz-adv-x="702" d="M546 0 L692 0 L408 712 L294 712 L10 0 L145 0 L206 165 L486 165 L546 0 Z M189 916 C189 881 194 774 352 774 C506 774 511 893 511 916 L398 916 C398 895 396 847 351 847 C306 847 303 895 303 916 L189 916 Z M291 396 C320 474 345 548 346 552 C348 545 373 475 402 397 L449 266 L243 266 L291 396 Z " />
<glyph glyph-name="abreve" unicode="&#x103;" horiz-adv-x="541" d="M340 308 C340 308 291 312 256 312 C101 312 36 255 36 148 C36 39 102 -10 210 -10 C307 -10 364 51 373 70 L374 64 C377 41 392 -7 459 -7 C488 -7 516 0 516 0 L516 90 L497 90 C468 90 459 101 459 138 L459 351 C459 461 403 521 271 521 C71 521 63 358 63 358 L178 358 C180 366 183 427 263 427 C320 427 340 402 340 346 L340 308 Z M338 202 C338 133 311 88 234 88 C188 88 163 109 163 155 C163 196 181 231 268 231 C307 231 338 227 338 227 L338 202 Z M109 719 C109 693 114 576 272 576 C426 576 431 696 431 719 L318 719 C318 698 316 650 271 650 C226 650 223 699 223 719 L109 719 Z " />
<glyph glyph-name="Aogonek" unicode="&#x104;" horiz-adv-x="702" d="M716 -132 C716 -132 699 -137 680 -137 C656 -137 628 -129 628 -92 C628 -61 650 -29 692 0 L408 712 L294 712 L10 0 L145 0 L206 165 L486 165 L546 0 L615 0 C563 -30 514 -65 514 -124 C514 -187 575 -210 626 -210 C675 -210 711 -194 716 -190 L716 -132 Z M291 396 C320 474 345 548 346 552 C348 545 373 475 402 397 L449 266 L243 266 L291 396 Z " />
<glyph glyph-name="aogonek" unicode="&#x105;" horiz-adv-x="541" d="M540 -132 C540 -132 523 -137 504 -137 C480 -137 452 -129 452 -92 C452 -61 474 -29 516 0 L516 90 L497 90 C468 90 459 101 459 138 L459 351 C459 461 403 521 271 521 C71 521 63 358 63 358 L178 358 C180 366 183 427 263 427 C320 427 340 402 340 346 L340 308 C340 308 291 312 256 312 C101 312 36 255 36 148 C36 39 102 -10 210 -10 C307 -10 364 51 373 70 L374 64 C376 44 387 7 432 -4 C382 -33 338 -67 338 -124 C338 -187 399 -210 450 -210 C499 -210 535 -194 540 -190 L540 -132 Z M338 202 C338 133 311 88 234 88 C188 88 163 109 163 155 C163 196 181 231 268 231 C307 231 338 227 338 227 L338 202 Z " />
<glyph glyph-name="Cacute" unicode="&#x106;" horiz-adv-x="676" d="M353 916 L276 777 L397 777 L518 916 L353 916 Z M509 255 C507 239 502 93 353 93 C198 93 179 230 179 359 C179 559 251 620 350 620 C489 620 500 480 500 468 L636 468 C636 487 618 730 351 730 C152 730 44 588 44 354 C44 133 116 -17 353 -17 C628 -17 643 229 644 255 L509 255 Z " />
<glyph glyph-name="cacute" unicode="&#x107;" horiz-adv-x="503" d="M268 719 L192 580 L312 580 L432 719 L268 719 Z M361 185 C360 163 351 81 269 81 C176 81 164 164 164 252 C164 341 182 423 263 423 C345 423 353 339 354 326 L471 326 C471 342 463 521 263 521 C95 521 38 385 38 252 C38 69 118 -17 268 -17 C471 -17 476 164 476 185 L361 185 Z " />
<glyph glyph-name="Ccircumflex" unicode="&#x108;" horiz-adv-x="676" d="M267 915 L173 776 L301 776 L346 860 L391 776 L525 776 L431 915 L267 915 Z M509 255 C507 239 502 93 353 93 C198 93 179 230 179 359 C179 559 251 620 350 620 C489 620 500 480 500 468 L636 468 C636 487 618 730 351 730 C152 730 44 588 44 354 C44 133 116 -17 353 -17 C628 -17 643 229 644 255 L509 255 Z " />
<glyph glyph-name="ccircumflex" unicode="&#x109;" horiz-adv-x="503" d="M182 719 L88 580 L215 580 L260 665 L306 580 L439 580 L345 719 L182 719 Z M361 185 C360 163 351 81 269 81 C176 81 164 164 164 252 C164 341 182 423 263 423 C345 423 353 339 354 326 L471 326 C471 342 463 521 263 521 C95 521 38 385 38 252 C38 69 118 -17 268 -17 C471 -17 476 164 476 185 L361 185 Z " />
<glyph glyph-name="Cdotaccent" unicode="&#x10a;" horiz-adv-x="676" d="M509 255 C507 239 502 93 353 93 C198 93 179 230 179 359 C179 559 251 620 350 620 C489 620 500 480 500 468 L636 468 C636 487 618 730 351 730 C152 730 44 588 44 354 C44 133 116 -17 353 -17 C628 -17 643 229 644 255 L509 255 Z M274 790 L407 790 L407 917 L274 917 L274 790 Z " />
<glyph glyph-name="cdotaccent" unicode="&#x10b;" horiz-adv-x="503" d="M361 185 C360 163 351 81 269 81 C176 81 164 164 164 252 C164 341 182 423 263 423 C345 423 353 339 354 326 L471 326 C471 342 463 521 263 521 C95 521 38 385 38 252 C38 69 118 -17 268 -17 C471 -17 476 164 476 185 L361 185 Z M188 593 L320 593 L320 720 L188 720 L188 593 Z " />
<glyph glyph-name="Ccaron" unicode="&#x10c;" horiz-adv-x="676" d="M427 776 L521 914 L391 914 L347 831 L301 914 L169 914 L263 776 L427 776 Z M509 255 C507 239 502 93 353 93 C198 93 179 230 179 359 C179 559 251 620 350 620 C489 620 500 480 500 468 L636 468 C636 487 618 730 351 730 C152 730 44 588 44 354 C44 133 116 -17 353 -17 C628 -17 643 229 644 255 L509 255 Z " />
<glyph glyph-name="ccaron" unicode="&#x10d;" horiz-adv-x="503" d="M335 580 L429 719 L299 719 L254 634 L209 719 L78 719 L172 580 L335 580 Z M361 185 C360 163 351 81 269 81 C176 81 164 164 164 252 C164 341 182 423 263 423 C345 423 353 339 354 326 L471 326 C471 342 463 521 263 521 C95 521 38 385 38 252 C38 69 118 -17 268 -17 C471 -17 476 164 476 185 L361 185 Z " />
<glyph glyph-name="Dcaron" unicode="&#x10e;" horiz-adv-x="703" d="M384 776 L478 914 L348 914 L304 831 L258 914 L126 914 L220 776 L384 776 Z M82 0 L277 0 C573 0 658 158 658 372 C658 574 566 712 270 712 L82 712 L82 0 Z M214 110 L214 602 L283 602 C483 602 523 488 523 372 C523 196 459 110 279 110 L214 110 Z " />
<glyph glyph-name="dcaron" unicode="&#x10f;" horiz-adv-x="696" d="M555 594 L616 594 C617 584 612 551 558 542 L558 462 C673 478 696 541 696 629 L696 712 L555 712 L555 594 Z M504 712 L378 712 L378 446 C378 446 345 521 241 521 C105 521 38 406 38 252 C38 104 87 -10 234 -10 C340 -10 379 68 379 68 L382 0 L504 0 L504 712 Z M379 259 C379 180 362 86 270 86 C211 86 164 122 164 251 C164 350 197 422 271 422 C354 422 379 343 379 259 L379 259 Z " />
<glyph glyph-name="Dcroat" unicode="&#x110;" horiz-adv-x="710" d="M6 314 L89 314 L89 0 L284 0 C580 0 665 158 665 372 C665 574 573 712 277 712 L89 712 L89 415 L6 415 L6 314 Z M221 110 L221 314 L371 314 L371 415 L221 415 L221 602 L290 602 C490 602 530 488 530 372 C530 196 466 110 286 110 L221 110 Z " />
<glyph glyph-name="dcroat" unicode="&#x111;" horiz-adv-x="574" d="M504 712 L378 712 L378 653 L167 653 L167 582 L378 582 L378 446 C378 446 345 521 241 521 C105 521 38 406 38 252 C38 104 87 -10 234 -10 C340 -10 379 68 379 68 L382 0 L504 0 L504 582 L583 582 L583 653 L504 653 L504 712 Z M379 259 C379 180 362 86 270 86 C211 86 164 122 164 251 C164 350 197 422 271 422 C354 422 379 343 379 259 L379 259 Z " />
<glyph glyph-name="Emacron" unicode="&#x112;" horiz-adv-x="595" d="M82 0 L543 0 L543 110 L214 110 L214 309 L506 309 L506 419 L214 419 L214 602 L538 602 L538 712 L82 712 L82 0 Z M162 799 L457 799 L457 893 L162 893 L162 799 Z " />
<glyph glyph-name="emacron" unicode="&#x113;" horiz-adv-x="529" d="M491 215 C508 372 450 521 273 521 C108 521 38 401 38 249 C38 65 121 -17 274 -17 C468 -17 486 141 487 155 L373 155 C372 148 363 81 277 81 C171 81 165 176 165 215 L491 215 Z M167 304 C172 373 200 423 269 423 C341 423 369 369 370 304 L167 304 Z M119 603 L413 603 L413 697 L119 697 L119 603 Z " />
<glyph glyph-name="Ebreve" unicode="&#x114;" horiz-adv-x="595" d="M82 0 L543 0 L543 110 L214 110 L214 309 L506 309 L506 419 L214 419 L214 602 L538 602 L538 712 L82 712 L82 0 Z M149 916 C149 881 154 774 312 774 C466 774 471 893 471 916 L358 916 C358 895 356 847 311 847 C266 847 263 895 263 916 L149 916 Z " />
<glyph glyph-name="ebreve" unicode="&#x115;" horiz-adv-x="529" d="M491 215 C508 372 450 521 273 521 C108 521 38 401 38 249 C38 65 121 -17 274 -17 C468 -17 486 141 487 155 L373 155 C372 148 363 81 277 81 C171 81 165 176 165 215 L491 215 Z M167 304 C172 373 200 423 269 423 C341 423 369 369 370 304 L167 304 Z M105 719 C105 693 110 576 268 576 C422 576 427 696 427 719 L314 719 C314 698 312 650 267 650 C222 650 219 699 219 719 L105 719 Z " />
<glyph glyph-name="Edotaccent" unicode="&#x116;" horiz-adv-x="595" d="M82 0 L543 0 L543 110 L214 110 L214 309 L506 309 L506 419 L214 419 L214 602 L538 602 L538 712 L82 712 L82 0 Z M252 790 L385 790 L385 917 L252 917 L252 790 Z " />
<glyph glyph-name="edotaccent" unicode="&#x117;" horiz-adv-x="529" d="M491 215 C508 372 450 521 273 521 C108 521 38 401 38 249 C38 65 121 -17 274 -17 C468 -17 486 141 487 155 L373 155 C372 148 363 81 277 81 C171 81 165 176 165 215 L491 215 Z M167 304 C172 373 200 423 269 423 C341 423 369 369 370 304 L167 304 Z M200 593 L332 593 L332 720 L200 720 L200 593 Z " />
<glyph glyph-name="Eogonek" unicode="&#x118;" horiz-adv-x="595" d="M82 0 L466 0 C414 -30 365 -65 365 -124 C365 -187 426 -210 477 -210 C526 -210 562 -194 567 -190 L567 -132 C567 -132 550 -137 531 -137 C507 -137 479 -129 479 -92 C479 -61 501 -29 543 0 L543 110 L214 110 L214 309 L506 309 L506 419 L214 419 L214 602 L538 602 L538 712 L82 712 L82 0 Z " />
<glyph glyph-name="eogonek" unicode="&#x119;" horiz-adv-x="529" d="M491 215 C508 372 450 521 273 521 C108 521 38 401 38 249 C38 68 118 -14 267 -17 C226 -43 194 -75 194 -124 C194 -187 255 -210 306 -210 C355 -210 391 -194 396 -190 L396 -132 C396 -132 379 -137 360 -137 C336 -137 308 -129 308 -92 C308 -61 330 -29 372 0 L371 0 C474 41 486 144 487 155 L373 155 C372 148 363 81 277 81 C171 81 165 176 165 215 L491 215 Z M167 304 C172 373 200 423 269 423 C341 423 369 369 370 304 L167 304 Z " />
<glyph glyph-name="Ecaron" unicode="&#x11a;" horiz-adv-x="595" d="M396 776 L490 914 L360 914 L316 831 L270 914 L138 914 L232 776 L396 776 Z M82 0 L543 0 L543 110 L214 110 L214 309 L506 309 L506 419 L214 419 L214 602 L538 602 L538 712 L82 712 L82 0 Z " />
<glyph glyph-name="ecaron" unicode="&#x11b;" horiz-adv-x="529" d="M347 580 L441 719 L311 719 L266 634 L221 719 L90 719 L184 580 L347 580 Z M491 215 C508 372 450 521 273 521 C108 521 38 401 38 249 C38 65 121 -17 274 -17 C468 -17 486 141 487 155 L373 155 C372 148 363 81 277 81 C171 81 165 176 165 215 L491 215 Z M167 304 C172 373 200 423 269 423 C341 423 369 369 370 304 L167 304 Z " />
<glyph glyph-name="Gcircumflex" unicode="&#x11c;" horiz-adv-x="698" d="M266 915 L172 776 L300 776 L345 860 L390 776 L524 776 L430 915 L266 915 Z M530 0 L639 0 L639 384 L370 384 L370 281 L518 281 L518 276 C518 181 469 99 357 99 C207 99 179 228 179 357 C179 534 242 620 352 620 C482 620 497 495 497 495 L631 495 C631 495 612 730 355 730 C134 730 44 555 44 354 C44 73 181 -10 331 -10 C482 -10 527 89 527 89 L530 0 Z " />
<glyph glyph-name="gcircumflex" unicode="&#x11d;" horiz-adv-x="574" d="M205 719 L111 580 L238 580 L283 665 L329 580 L462 580 L368 719 L205 719 Z M504 504 L380 504 L378 448 C378 448 343 516 241 516 C99 516 38 396 38 260 C38 123 90 13 234 13 C340 13 378 84 378 84 L378 24 C378 -83 343 -111 276 -111 C182 -111 178 -39 178 -39 L60 -39 C60 -39 57 -209 277 -209 C438 -209 504 -121 504 20 L504 504 Z M379 269 C379 189 358 109 270 109 C212 109 164 141 164 260 C164 361 200 416 271 416 C352 416 379 347 379 269 L379 269 Z " />
<glyph glyph-name="Gbreve" unicode="&#x11e;" horiz-adv-x="698" d="M530 0 L639 0 L639 384 L370 384 L370 281 L518 281 L518 276 C518 181 469 99 357 99 C207 99 179 228 179 357 C179 534 242 620 352 620 C482 620 497 495 497 495 L631 495 C631 495 612 730 355 730 C134 730 44 555 44 354 C44 73 181 -10 331 -10 C482 -10 527 89 527 89 L530 0 Z M187 916 C187 881 192 774 350 774 C504 774 509 893 509 916 L396 916 C396 895 394 847 349 847 C304 847 301 895 301 916 L187 916 Z " />
<glyph glyph-name="gbreve" unicode="&#x11f;" horiz-adv-x="574" d="M504 504 L380 504 L378 448 C378 448 343 516 241 516 C99 516 38 396 38 260 C38 123 90 13 234 13 C340 13 378 84 378 84 L378 24 C378 -83 343 -111 276 -111 C182 -111 178 -39 178 -39 L60 -39 C60 -39 57 -209 277 -209 C438 -209 504 -121 504 20 L504 504 Z M379 269 C379 189 358 109 270 109 C212 109 164 141 164 260 C164 361 200 416 271 416 C352 416 379 347 379 269 L379 269 Z M115 719 C115 693 120 576 278 576 C432 576 437 696 437 719 L324 719 C324 698 322 650 277 650 C232 650 229 699 229 719 L115 719 Z " />
<glyph glyph-name="Gdotaccent" unicode="&#x120;" horiz-adv-x="698" d="M530 0 L639 0 L639 384 L370 384 L370 281 L518 281 L518 276 C518 181 469 99 357 99 C207 99 179 228 179 357 C179 534 242 620 352 620 C482 620 497 495 497 495 L631 495 C631 495 612 730 355 730 C134 730 44 555 44 354 C44 73 181 -10 331 -10 C482 -10 527 89 527 89 L530 0 Z M282 790 L415 790 L415 917 L282 917 L282 790 Z " />
<glyph glyph-name="gdotaccent" unicode="&#x121;" horiz-adv-x="574" d="M504 504 L380 504 L378 448 C378 448 343 516 241 516 C99 516 38 396 38 260 C38 123 90 13 234 13 C340 13 378 84 378 84 L378 24 C378 -83 343 -111 276 -111 C182 -111 178 -39 178 -39 L60 -39 C60 -39 57 -209 277 -209 C438 -209 504 -121 504 20 L504 504 Z M379 269 C379 189 358 109 270 109 C212 109 164 141 164 260 C164 361 200 416 271 416 C352 416 379 347 379 269 L379 269 Z M217 593 L349 593 L349 720 L217 720 L217 593 Z " />
<glyph glyph-name="Gcommaaccent" unicode="&#x122;" horiz-adv-x="698" d="M276 -171 L337 -171 C338 -181 333 -213 279 -222 L279 -303 C394 -287 417 -223 417 -135 L417 -53 L276 -53 L276 -171 Z M530 0 L639 0 L639 384 L370 384 L370 281 L518 281 L518 276 C518 181 469 99 357 99 C207 99 179 228 179 357 C179 534 242 620 352 620 C482 620 497 495 497 495 L631 495 C631 495 612 730 355 730 C134 730 44 555 44 354 C44 73 181 -10 331 -10 C482 -10 527 89 527 89 L530 0 Z " />
<glyph glyph-name="gcommaaccent" unicode="&#x123;" horiz-adv-x="574" d="M350 704 L289 704 C288 714 293 746 347 755 L347 836 C232 820 209 756 209 668 L209 586 L350 586 L350 704 Z M504 504 L380 504 L378 448 C378 448 343 516 241 516 C99 516 38 396 38 260 C38 123 90 13 234 13 C340 13 378 84 378 84 L378 24 C378 -83 343 -111 276 -111 C182 -111 178 -39 178 -39 L60 -39 C60 -39 57 -209 277 -209 C438 -209 504 -121 504 20 L504 504 Z M379 269 C379 189 358 109 270 109 C212 109 164 141 164 260 C164 361 200 416 271 416 C352 416 379 347 379 269 L379 269 Z " />
<glyph glyph-name="Hcircumflex" unicode="&#x124;" horiz-adv-x="729" d="M281 915 L187 776 L315 776 L360 860 L405 776 L539 776 L445 915 L281 915 Z M82 0 L214 0 L214 310 L515 310 L515 0 L647 0 L647 712 L515 712 L515 420 L214 420 L214 712 L82 712 L82 0 Z " />
<glyph glyph-name="hcircumflex" unicode="&#x125;" horiz-adv-x="567" d="M48 890 L-46 751 L81 751 L126 836 L172 751 L305 751 L211 890 L48 890 Z M70 0 L196 0 L196 301 C196 391 250 417 292 417 C358 417 374 374 374 301 L374 0 L500 0 L500 332 C500 461 445 519 340 519 C236 519 196 439 196 439 L196 712 L70 712 L70 0 Z " />
<glyph glyph-name="Hbar" unicode="&#x126;" horiz-adv-x="729" d="M-7 530 L82 530 L82 0 L214 0 L214 310 L515 310 L515 0 L647 0 L647 530 L737 530 L737 611 L647 611 L647 712 L515 712 L515 611 L214 611 L214 712 L82 712 L82 611 L-7 611 L-7 530 Z M214 420 L214 530 L515 530 L515 420 L214 420 Z " />
<glyph glyph-name="hbar" unicode="&#x127;" horiz-adv-x="567" d="M-8 582 L70 582 L70 0 L196 0 L196 301 C196 391 250 417 292 417 C358 417 374 374 374 301 L374 0 L500 0 L500 332 C500 461 445 519 340 519 C236 519 196 439 196 439 L196 582 L408 582 L408 653 L196 653 L196 712 L70 712 L70 653 L-8 653 L-8 582 Z " />
<glyph glyph-name="Itilde" unicode="&#x128;" horiz-adv-x="295" d="M82 0 L214 0 L214 712 L82 712 L82 0 Z M58 780 C58 785 58 821 87 821 C123 821 158 774 225 774 C320 774 315 891 314 909 L238 909 C238 905 238 863 210 863 C170 863 139 913 77 913 C-21 913 -23 799 -22 780 L58 780 Z " />
<glyph glyph-name="itilde" unicode="&#x129;" horiz-adv-x="265" d="M70 0 L196 0 L196 504 L70 504 L70 0 Z M43 583 C43 589 43 624 72 624 C108 624 143 577 210 577 C305 577 300 695 299 713 L224 713 C224 709 224 667 196 667 C156 667 124 717 62 717 C-36 717 -38 603 -37 583 L43 583 Z " />
<glyph glyph-name="Imacron" unicode="&#x12a;" horiz-adv-x="295" d="M82 0 L214 0 L214 712 L82 712 L82 0 Z M0 799 L295 799 L295 893 L0 893 L0 799 Z " />
<glyph glyph-name="imacron" unicode="&#x12b;" horiz-adv-x="265" d="M70 0 L196 0 L196 504 L70 504 L70 0 Z M-14 603 L280 603 L280 697 L-14 697 L-14 603 Z " />
<glyph glyph-name="Ibreve" unicode="&#x12c;" horiz-adv-x="295" d="M82 0 L214 0 L214 712 L82 712 L82 0 Z M-13 916 C-13 881 -8 774 150 774 C304 774 309 893 309 916 L196 916 C196 895 194 847 149 847 C104 847 101 895 101 916 L-13 916 Z " />
<glyph glyph-name="ibreve" unicode="&#x12d;" horiz-adv-x="265" d="M70 0 L196 0 L196 504 L70 504 L70 0 Z M-28 719 C-28 693 -23 576 135 576 C289 576 294 696 294 719 L181 719 C181 698 179 650 134 650 C89 650 86 699 86 719 L-28 719 Z " />
<glyph glyph-name="Iogonek" unicode="&#x12e;" horiz-adv-x="295" d="M82 0 L136 0 C84 -30 35 -65 35 -124 C35 -187 96 -210 147 -210 C196 -210 232 -194 237 -190 L237 -132 C237 -132 220 -137 201 -137 C177 -137 149 -129 149 -92 C149 -61 171 -29 213 0 L214 0 L214 712 L82 712 L82 0 Z " />
<glyph glyph-name="iogonek" unicode="&#x12f;" horiz-adv-x="265" d="M70 0 L118 0 C66 -30 17 -65 17 -124 C17 -187 78 -210 129 -210 C178 -210 214 -194 219 -190 L219 -132 C219 -132 202 -137 183 -137 C159 -137 131 -129 131 -92 C131 -61 153 -29 195 0 L196 0 L196 504 L70 504 L70 0 Z M65 598 L202 598 L202 726 L65 726 L65 598 Z " />
<glyph glyph-name="Idotaccent" unicode="&#x130;" horiz-adv-x="295" d="M82 0 L214 0 L214 712 L82 712 L82 0 Z M81 790 L214 790 L214 917 L81 917 L81 790 Z " />
<glyph glyph-name="dotlessi" unicode="&#x131;" horiz-adv-x="265" d="M70 0 L196 0 L196 504 L70 504 L70 0 Z " />
<glyph glyph-name="IJ" unicode="&#x132;" horiz-adv-x="828" d="M82 0 L214 0 L214 712 L82 712 L82 0 Z M322 229 C320 102 354 -17 532 -17 C712 -17 749 91 749 235 L749 712 L617 712 L617 249 C617 151 607 93 533 93 C450 93 446 173 445 229 L322 229 Z " />
<glyph glyph-name="ij" unicode="&#x133;" horiz-adv-x="534" d="M65 598 L202 598 L202 726 L65 726 L65 598 Z M70 0 L196 0 L196 504 L70 504 L70 0 Z M245 -191 C245 -191 274 -196 312 -196 C455 -196 463 -102 463 14 L463 504 L337 504 L337 -4 C337 -61 334 -88 266 -88 L245 -88 L245 -191 Z M332 598 L469 598 L469 726 L332 726 L332 598 Z " />
<glyph glyph-name="Jcircumflex" unicode="&#x134;" horiz-adv-x="533" d="M301 915 L207 776 L335 776 L380 860 L425 776 L559 776 L465 915 L301 915 Z M28 229 C26 102 60 -17 238 -17 C418 -17 455 91 455 235 L455 712 L323 712 L323 249 C323 151 313 93 239 93 C156 93 152 173 151 229 L28 229 Z " />
<glyph glyph-name="jcircumflex" unicode="&#x135;" horiz-adv-x="268" d="M-19 -191 C-19 -191 10 -196 48 -196 C191 -196 199 -102 199 14 L199 504 L73 504 L73 -4 C73 -61 70 -88 2 -88 L-19 -88 L-19 -191 Z M54 719 L-40 580 L87 580 L132 665 L178 580 L311 580 L217 719 L54 719 Z " />
<glyph glyph-name="Kcommaaccent" unicode="&#x136;" horiz-adv-x="668" d="M278 -171 L339 -171 C340 -181 335 -213 281 -222 L281 -303 C396 -287 419 -223 419 -135 L419 -53 L278 -53 L278 -171 Z M497 0 L657 0 L366 417 L622 712 L468 712 L214 411 L214 712 L82 712 L82 0 L214 0 L214 246 L278 325 L497 0 Z " />
<glyph glyph-name="kcommaaccent" unicode="&#x137;" horiz-adv-x="540" d="M212 -171 L273 -171 C274 -181 269 -213 215 -222 L215 -303 C330 -287 353 -223 353 -135 L353 -53 L212 -53 L212 -171 Z M385 0 L530 0 L340 327 L514 504 L366 504 L196 326 L196 712 L70 712 L70 0 L196 0 L196 187 L253 248 L385 0 Z " />
<glyph glyph-name="kgreenlandic" unicode="&#x138;" horiz-adv-x="540" d="M514 504 L366 504 L196 314 L196 504 L70 504 L70 0 L196 0 L196 175 L257 239 L385 0 L530 0 L340 324 L514 504 Z " />
<glyph glyph-name="Lacute" unicode="&#x139;" horiz-adv-x="522" d="M169 916 L92 777 L213 777 L334 916 L169 916 Z M82 0 L498 0 L498 110 L214 110 L214 712 L82 712 L82 0 Z " />
<glyph glyph-name="lacute" unicode="&#x13a;" horiz-adv-x="265" d="M150 905 L74 766 L194 766 L314 905 L150 905 Z M70 0 L196 0 L196 712 L70 712 L70 0 Z " />
<glyph glyph-name="Lcommaaccent" unicode="&#x13b;" horiz-adv-x="522" d="M216 -171 L277 -171 C278 -181 273 -213 219 -222 L219 -303 C334 -287 357 -223 357 -135 L357 -53 L216 -53 L216 -171 Z M82 0 L498 0 L498 110 L214 110 L214 712 L82 712 L82 0 Z " />
<glyph glyph-name="lcommaaccent" unicode="&#x13c;" horiz-adv-x="265" d="M61 -171 L122 -171 C123 -181 118 -213 64 -222 L64 -303 C179 -287 202 -223 202 -135 L202 -53 L61 -53 L61 -171 Z M70 0 L196 0 L196 712 L70 712 L70 0 Z " />
<glyph glyph-name="Lcaron" unicode="&#x13d;" horiz-adv-x="522" d="M277 594 L338 594 C339 584 334 551 280 542 L280 462 C395 478 418 541 418 629 L418 712 L277 712 L277 594 Z M82 0 L498 0 L498 110 L214 110 L214 712 L82 712 L82 0 Z " />
<glyph glyph-name="lcaron" unicode="&#x13e;" horiz-adv-x="393" d="M252 594 L313 594 C314 584 309 551 255 542 L255 462 C370 478 393 541 393 629 L393 712 L252 712 L252 594 Z M74 0 L200 0 L200 712 L74 712 L74 0 Z " />
<glyph glyph-name="Ldot" unicode="&#x13f;" horiz-adv-x="522" d="M82 0 L498 0 L498 110 L214 110 L214 712 L82 712 L82 0 Z M337 327 L483 327 L483 463 L337 463 L337 327 Z " />
<glyph glyph-name="ldot" unicode="&#x140;" horiz-adv-x="429" d="M70 0 L196 0 L196 712 L70 712 L70 0 Z M276 304 L422 304 L422 440 L276 440 L276 304 Z " />
<glyph glyph-name="Lslash" unicode="&#x141;" horiz-adv-x="522" d="M82 0 L498 0 L498 110 L214 110 L214 320 L378 450 L378 577 L214 446 L214 712 L82 712 L82 361 L1 298 L1 172 L82 235 L82 0 Z " />
<glyph glyph-name="lslash" unicode="&#x142;" horiz-adv-x="265" d="M70 0 L196 0 L196 331 L268 388 L268 515 L196 458 L196 712 L70 712 L70 375 L-4 318 L-4 194 L70 251 L70 0 Z " />
<glyph glyph-name="Nacute" unicode="&#x143;" horiz-adv-x="730" d="M375 916 L298 777 L419 777 L540 916 L375 916 Z M82 0 L209 0 L209 331 C209 445 206 520 206 520 C206 520 245 442 299 353 L510 0 L648 0 L648 712 L521 712 L521 411 C521 291 525 196 525 196 C525 196 478 284 427 370 L224 712 L82 712 L82 0 Z " />
<glyph glyph-name="nacute" unicode="&#x144;" horiz-adv-x="567" d="M281 719 L205 580 L325 580 L445 719 L281 719 Z M70 0 L196 0 L196 297 C196 387 250 413 292 413 C357 413 374 370 374 297 L374 0 L500 0 L500 328 C500 457 445 515 340 515 C236 515 194 435 194 435 L191 504 L70 504 L70 0 Z " />
<glyph glyph-name="Ncommaaccent" unicode="&#x145;" horiz-adv-x="730" d="M299 -171 L360 -171 C361 -181 356 -213 302 -222 L302 -303 C417 -287 440 -223 440 -135 L440 -53 L299 -53 L299 -171 Z M82 0 L209 0 L209 331 C209 445 206 520 206 520 C206 520 245 442 299 353 L510 0 L648 0 L648 712 L521 712 L521 411 C521 291 525 196 525 196 C525 196 478 284 427 370 L224 712 L82 712 L82 0 Z " />
<glyph glyph-name="ncommaaccent" unicode="&#x146;" horiz-adv-x="567" d="M212 -171 L273 -171 C274 -181 269 -213 215 -222 L215 -303 C330 -287 353 -223 353 -135 L353 -53 L212 -53 L212 -171 Z M70 0 L196 0 L196 297 C196 387 250 413 292 413 C357 413 374 370 374 297 L374 0 L500 0 L500 328 C500 457 445 515 340 515 C236 515 194 435 194 435 L191 504 L70 504 L70 0 Z " />
<glyph glyph-name="Ncaron" unicode="&#x147;" horiz-adv-x="730" d="M453 776 L547 914 L417 914 L373 831 L327 914 L195 914 L289 776 L453 776 Z M82 0 L209 0 L209 331 C209 445 206 520 206 520 C206 520 245 442 299 353 L510 0 L648 0 L648 712 L521 712 L521 411 C521 291 525 196 525 196 C525 196 478 284 427 370 L224 712 L82 712 L82 0 Z " />
<glyph glyph-name="ncaron" unicode="&#x148;" horiz-adv-x="567" d="M367 580 L461 719 L331 719 L286 634 L241 719 L110 719 L204 580 L367 580 Z M70 0 L196 0 L196 297 C196 387 250 413 292 413 C357 413 374 370 374 297 L374 0 L500 0 L500 328 C500 457 445 515 340 515 C236 515 194 435 194 435 L191 504 L70 504 L70 0 Z " />
<glyph glyph-name="napostrophe" unicode="&#x149;" horiz-adv-x="604" d="M7 641 L68 641 C69 631 64 598 10 589 L10 509 C125 525 148 588 148 676 L148 759 L7 759 L7 641 Z M106 0 L232 0 L232 297 C232 387 286 413 328 413 C393 413 410 370 410 297 L410 0 L536 0 L536 328 C536 457 481 515 376 515 C272 515 230 435 230 435 L227 504 L106 504 L106 0 Z " />
<glyph glyph-name="Eng" unicode="&#x14a;" horiz-adv-x="730" d="M82 0 L208 0 L208 331 C208 445 205 520 205 520 C205 520 246 445 314 345 L521 42 L521 -2 C521 -72 512 -110 457 -110 C407 -110 387 -81 387 -43 L269 -43 C269 -155 337 -209 458 -209 C615 -209 648 -119 648 26 L648 712 L521 712 L521 411 C521 291 525 246 525 246 C525 246 474 333 417 419 L224 712 L82 712 L82 0 Z " />
<glyph glyph-name="eng" unicode="&#x14b;" horiz-adv-x="567" d="M282 -191 C282 -191 311 -196 349 -196 C481 -196 500 -114 500 -10 L500 328 C500 457 445 515 340 515 C236 515 194 435 194 435 L191 504 L70 504 L70 0 L196 0 L196 297 C196 387 250 413 292 413 C357 413 374 370 374 297 L374 -4 C374 -61 371 -88 302 -88 L282 -88 L282 -191 Z " />
<glyph glyph-name="Omacron" unicode="&#x14c;" horiz-adv-x="729" d="M216 799 L511 799 L511 893 L216 893 L216 799 Z M44 357 C44 79 188 -17 364 -17 C542 -17 685 90 685 357 C685 611 550 730 364 730 C188 730 44 611 44 357 L44 357 Z M179 357 C179 550 259 620 364 620 C470 620 550 550 550 357 C550 154 470 93 364 93 C261 93 179 154 179 357 L179 357 Z " />
<glyph glyph-name="omacron" unicode="&#x14d;" horiz-adv-x="541" d="M123 603 L417 603 L417 697 L123 697 L123 603 Z M38 252 C38 48 140 -17 270 -17 C399 -17 503 55 503 252 C503 441 402 521 270 521 C142 521 38 438 38 252 L38 252 Z M164 252 C164 382 209 423 270 423 C332 423 377 383 377 252 C377 116 333 81 270 81 C209 81 164 116 164 252 L164 252 Z " />
<glyph glyph-name="Obreve" unicode="&#x14e;" horiz-adv-x="729" d="M44 357 C44 79 188 -17 364 -17 C542 -17 685 90 685 357 C685 611 550 730 364 730 C188 730 44 611 44 357 L44 357 Z M179 357 C179 550 259 620 364 620 C470 620 550 550 550 357 C550 154 470 93 364 93 C261 93 179 154 179 357 L179 357 Z M203 916 C203 881 208 774 366 774 C520 774 525 893 525 916 L412 916 C412 895 410 847 365 847 C320 847 317 895 317 916 L203 916 Z " />
<glyph glyph-name="obreve" unicode="&#x14f;" horiz-adv-x="541" d="M38 252 C38 48 140 -17 270 -17 C399 -17 503 55 503 252 C503 441 402 521 270 521 C142 521 38 438 38 252 L38 252 Z M164 252 C164 382 209 423 270 423 C332 423 377 383 377 252 C377 116 333 81 270 81 C209 81 164 116 164 252 L164 252 Z M109 719 C109 693 114 576 272 576 C426 576 431 696 431 719 L318 719 C318 698 316 650 271 650 C226 650 223 699 223 719 L109 719 Z " />
<glyph glyph-name="Ohungarumlaut" unicode="&#x150;" horiz-adv-x="729" d="M283 916 L206 777 L313 777 L435 916 L283 916 Z M476 916 L399 777 L506 777 L628 916 L476 916 Z M44 357 C44 79 188 -17 364 -17 C542 -17 685 90 685 357 C685 611 550 730 364 730 C188 730 44 611 44 357 L44 357 Z M179 357 C179 550 259 620 364 620 C470 620 550 550 550 357 C550 154 470 93 364 93 C261 93 179 154 179 357 L179 357 Z " />
<glyph glyph-name="ohungarumlaut" unicode="&#x151;" horiz-adv-x="541" d="M193 719 L117 580 L223 580 L344 719 L193 719 Z M386 719 L310 580 L417 580 L537 719 L386 719 Z M38 252 C38 48 140 -17 270 -17 C399 -17 503 55 503 252 C503 441 402 521 270 521 C142 521 38 438 38 252 L38 252 Z M164 252 C164 382 209 423 270 423 C332 423 377 383 377 252 C377 116 333 81 270 81 C209 81 164 116 164 252 L164 252 Z " />
<glyph glyph-name="OE" unicode="&#x152;" horiz-adv-x="985" d="M933 0 L933 110 L636 110 L636 313 L895 313 L895 423 L636 423 L636 602 L928 602 L928 712 L504 712 L504 711 C504 711 448 730 370 730 C183 730 44 607 44 353 C44 73 179 -17 368 -17 C454 -17 504 1 504 1 L504 0 L933 0 Z M179 361 C179 557 271 620 382 620 C449 620 504 601 504 601 L504 114 C504 114 466 94 391 94 C240 94 179 175 179 361 L179 361 Z " />
<glyph glyph-name="oe" unicode="&#x153;" horiz-adv-x="841" d="M38 253 C38 56 135 -17 259 -17 C386 -17 426 77 426 77 C426 77 468 -17 602 -17 C788 -17 800 151 800 151 L687 151 C687 151 677 81 601 81 C499 81 492 188 492 219 L804 219 C814 378 768 521 597 521 C477 521 431 427 431 427 C431 427 394 521 262 521 C138 521 38 432 38 253 L38 253 Z M164 253 C164 379 207 423 264 423 C322 423 365 378 365 253 C365 122 323 81 264 81 C206 81 164 122 164 253 L164 253 Z M493 300 C495 370 524 423 589 423 C657 423 681 370 682 300 L493 300 Z " />
<glyph glyph-name="Racute" unicode="&#x154;" horiz-adv-x="637" d="M306 916 L229 777 L350 777 L471 916 L306 916 Z M82 0 L214 0 L214 282 L305 282 L444 0 L593 0 L434 298 C525 323 584 389 584 508 C584 676 455 712 315 712 L82 712 L82 0 Z M214 392 L214 602 L298 602 C398 602 449 590 449 505 C449 405 387 392 315 392 L214 392 Z " />
<glyph glyph-name="racute" unicode="&#x155;" horiz-adv-x="366" d="M208 719 L132 580 L252 580 L372 719 L208 719 Z M70 0 L196 0 L196 284 C196 363 239 404 322 404 C333 404 346 402 346 402 L346 513 C346 513 330 515 316 515 C277 515 222 495 192 428 L187 504 L70 504 L70 0 Z " />
<glyph glyph-name="Rcommaaccent" unicode="&#x156;" horiz-adv-x="637" d="M254 -171 L315 -171 C316 -181 311 -213 257 -222 L257 -303 C372 -287 395 -223 395 -135 L395 -53 L254 -53 L254 -171 Z M82 0 L214 0 L214 282 L305 282 L444 0 L593 0 L434 298 C525 323 584 389 584 508 C584 676 455 712 315 712 L82 712 L82 0 Z M214 392 L214 602 L298 602 C398 602 449 590 449 505 C449 405 387 392 315 392 L214 392 Z " />
<glyph glyph-name="rcommaaccent" unicode="&#x157;" horiz-adv-x="366" d="M62 -171 L123 -171 C124 -181 119 -213 65 -222 L65 -303 C180 -287 203 -223 203 -135 L203 -53 L62 -53 L62 -171 Z M70 0 L196 0 L196 284 C196 363 239 404 322 404 C333 404 346 402 346 402 L346 513 C346 513 330 515 316 515 C277 515 222 495 192 428 L187 504 L70 504 L70 0 Z " />
<glyph glyph-name="Rcaron" unicode="&#x158;" horiz-adv-x="637" d="M381 776 L475 914 L345 914 L301 831 L255 914 L123 914 L217 776 L381 776 Z M82 0 L214 0 L214 282 L305 282 L444 0 L593 0 L434 298 C525 323 584 389 584 508 C584 676 455 712 315 712 L82 712 L82 0 Z M214 392 L214 602 L298 602 C398 602 449 590 449 505 C449 405 387 392 315 392 L214 392 Z " />
<glyph glyph-name="rcaron" unicode="&#x159;" horiz-adv-x="366" d="M278 580 L372 719 L242 719 L197 634 L152 719 L21 719 L115 580 L278 580 Z M70 0 L196 0 L196 284 C196 363 239 404 322 404 C333 404 346 402 346 402 L346 513 C346 513 330 515 316 515 C277 515 222 495 192 428 L187 504 L70 504 L70 0 Z " />
<glyph glyph-name="Sacute" unicode="&#x15a;" horiz-adv-x="598" d="M305 916 L228 777 L349 777 L470 916 L305 916 Z M44 223 C44 101 117 -17 319 -17 C502 -17 559 86 559 202 C559 448 193 382 193 531 C193 592 229 622 294 622 C378 622 408 565 409 503 L538 503 C538 643 450 730 296 730 C146 730 65 648 65 522 C65 268 431 342 431 189 C431 118 392 91 320 91 C223 91 179 152 177 223 L44 223 Z " />
<glyph glyph-name="sacute" unicode="&#x15b;" horiz-adv-x="455" d="M223 719 L147 580 L267 580 L387 719 L223 719 Z M37 160 C37 101 58 -17 241 -17 C357 -17 421 38 421 142 C421 323 165 277 165 374 C165 411 185 429 225 429 C290 429 296 368 297 354 L409 354 C409 395 394 521 224 521 C118 521 48 465 48 367 C48 182 304 236 304 135 C304 93 284 75 239 75 C158 75 149 144 149 160 L37 160 Z " />
<glyph glyph-name="Scircumflex" unicode="&#x15c;" horiz-adv-x="598" d="M226 915 L132 776 L260 776 L305 860 L350 776 L484 776 L390 915 L226 915 Z M44 223 C44 101 117 -17 319 -17 C502 -17 559 86 559 202 C559 448 193 382 193 531 C193 592 229 622 294 622 C378 622 408 565 409 503 L538 503 C538 643 450 730 296 730 C146 730 65 648 65 522 C65 268 431 342 431 189 C431 118 392 91 320 91 C223 91 179 152 177 223 L44 223 Z " />
<glyph glyph-name="scircumflex" unicode="&#x15d;" horiz-adv-x="455" d="M147 719 L53 580 L180 580 L225 665 L271 580 L404 580 L310 719 L147 719 Z M37 160 C37 101 58 -17 241 -17 C357 -17 421 38 421 142 C421 323 165 277 165 374 C165 411 185 429 225 429 C290 429 296 368 297 354 L409 354 C409 395 394 521 224 521 C118 521 48 465 48 367 C48 182 304 236 304 135 C304 93 284 75 239 75 C158 75 149 144 149 160 L37 160 Z " />
<glyph glyph-name="Scedilla" unicode="&#x15e;" horiz-adv-x="598" d="M199 -214 C203 -215 235 -237 287 -237 C396 -237 423 -167 423 -135 C423 -106 408 -55 331 -55 C323 -55 315 -56 315 -56 L337 -16 C505 -9 559 90 559 202 C559 448 193 382 193 531 C193 592 229 622 294 622 C378 622 408 565 409 503 L538 503 C538 643 450 730 296 730 C146 730 65 648 65 522 C65 268 431 342 431 189 C431 118 392 91 320 91 C223 91 179 152 177 223 L44 223 C44 111 105 2 272 -14 L234 -83 L256 -105 C256 -105 265 -101 283 -101 C306 -101 328 -108 328 -135 C328 -165 302 -174 276 -174 C247 -174 225 -158 225 -158 L199 -214 Z " />
<glyph glyph-name="scedilla" unicode="&#x15f;" horiz-adv-x="455" d="M121 -214 C125 -215 157 -237 209 -237 C318 -237 345 -167 345 -135 C345 -106 330 -55 253 -55 C245 -55 237 -56 237 -56 L259 -16 C363 -11 421 43 421 142 C421 323 165 277 165 374 C165 411 185 429 225 429 C290 429 296 368 297 354 L409 354 C409 395 394 521 224 521 C118 521 48 465 48 367 C48 182 304 236 304 135 C304 93 284 75 239 75 C158 75 149 144 149 160 L37 160 C37 106 54 4 194 -14 L156 -83 L178 -105 C178 -105 187 -101 205 -101 C228 -101 250 -108 250 -135 C250 -165 224 -174 198 -174 C169 -174 147 -158 147 -158 L121 -214 Z " />
<glyph glyph-name="Scaron" unicode="&#x160;" horiz-adv-x="598" d="M384 776 L478 914 L348 914 L304 831 L258 914 L126 914 L220 776 L384 776 Z M44 223 C44 101 117 -17 319 -17 C502 -17 559 86 559 202 C559 448 193 382 193 531 C193 592 229 622 294 622 C378 622 408 565 409 503 L538 503 C538 643 450 730 296 730 C146 730 65 648 65 522 C65 268 431 342 431 189 C431 118 392 91 320 91 C223 91 179 152 177 223 L44 223 Z " />
<glyph glyph-name="scaron" unicode="&#x161;" horiz-adv-x="455" d="M309 580 L403 719 L273 719 L228 634 L183 719 L52 719 L146 580 L309 580 Z M37 160 C37 101 58 -17 241 -17 C357 -17 421 38 421 142 C421 323 165 277 165 374 C165 411 185 429 225 429 C290 429 296 368 297 354 L409 354 C409 395 394 521 224 521 C118 521 48 465 48 367 C48 182 304 236 304 135 C304 93 284 75 239 75 C158 75 149 144 149 160 L37 160 Z " />
<glyph glyph-name="Tcedilla" unicode="&#x162;" horiz-adv-x="564" d="M216 0 L250 0 L204 -83 L226 -105 C226 -105 235 -101 253 -101 C276 -101 298 -108 298 -135 C298 -165 272 -174 246 -174 C217 -174 195 -158 195 -158 L169 -214 C173 -215 205 -237 257 -237 C366 -237 393 -167 393 -135 C393 -106 378 -55 301 -55 C293 -55 285 -56 285 -56 L317 0 L347 0 L347 602 L550 602 L550 712 L14 712 L14 602 L216 602 L216 0 Z " />
<glyph glyph-name="tcommaaccent" unicode="&#x163;" horiz-adv-x="361" d="M133 -171 L194 -171 C195 -181 190 -213 136 -222 L136 -303 C251 -287 274 -223 274 -135 L274 -53 L133 -53 L133 -171 Z M98 167 C98 57 112 -11 233 -11 C276 -11 327 0 327 0 L327 88 C327 88 300 87 292 87 C227 87 224 109 224 173 L224 416 L329 416 L329 504 L224 504 L224 654 L98 623 L98 504 L13 504 L13 416 L98 416 L98 167 Z " />
<glyph glyph-name="Tcaron" unicode="&#x164;" horiz-adv-x="564" d="M363 776 L457 914 L327 914 L283 831 L237 914 L105 914 L199 776 L363 776 Z M216 0 L347 0 L347 602 L550 602 L550 712 L14 712 L14 602 L216 602 L216 0 Z " />
<glyph glyph-name="tcaron" unicode="&#x165;" horiz-adv-x="398" d="M265 672 L326 672 C327 662 322 629 268 620 L268 540 C383 556 406 619 406 707 L406 790 L265 790 L265 672 Z M98 167 C98 57 112 -11 233 -11 C276 -11 327 0 327 0 L327 88 C327 88 300 87 292 87 C227 87 224 109 224 173 L224 416 L329 416 L329 504 L224 504 L224 654 L98 623 L98 504 L13 504 L13 416 L98 416 L98 167 Z " />
<glyph glyph-name="Tbar" unicode="&#x166;" horiz-adv-x="564" d="M74 287 L216 287 L216 0 L347 0 L347 287 L489 287 L489 391 L347 391 L347 602 L550 602 L550 712 L14 712 L14 602 L216 602 L216 391 L74 391 L74 287 Z " />
<glyph glyph-name="tbar" unicode="&#x167;" horiz-adv-x="361" d="M13 229 L98 229 L98 167 C98 57 112 -11 233 -11 C276 -11 327 0 327 0 L327 88 C327 88 300 87 292 87 C227 87 224 109 224 173 L224 229 L329 229 L329 317 L224 317 L224 416 L329 416 L329 504 L224 504 L224 654 L98 623 L98 504 L13 504 L13 416 L98 416 L98 317 L13 317 L13 229 Z " />
<glyph glyph-name="Utilde" unicode="&#x168;" horiz-adv-x="720" d="M77 251 C77 64 182 -17 360 -17 C531 -17 643 64 643 251 L643 712 L511 712 L511 252 C511 121 431 92 360 92 C289 92 209 123 209 254 L209 712 L77 712 L77 251 Z M269 780 C269 785 269 821 298 821 C334 821 369 774 436 774 C531 774 526 891 525 909 L449 909 C449 905 449 863 421 863 C381 863 350 913 288 913 C190 913 188 799 189 780 L269 780 Z " />
<glyph glyph-name="utilde" unicode="&#x169;" horiz-adv-x="558" d="M489 504 L363 504 L363 207 C363 119 313 93 271 93 C206 93 194 135 194 207 L194 504 L68 504 L68 181 C68 51 123 -10 225 -10 C325 -10 364 68 364 68 L367 0 L489 0 L489 504 Z M188 583 C188 589 188 624 217 624 C253 624 288 577 355 577 C450 577 445 695 444 713 L369 713 C369 709 369 667 341 667 C301 667 269 717 207 717 C109 717 107 603 108 583 L188 583 Z " />
<glyph glyph-name="Umacron" unicode="&#x16a;" horiz-adv-x="720" d="M77 251 C77 64 182 -17 360 -17 C531 -17 643 64 643 251 L643 712 L511 712 L511 252 C511 121 431 92 360 92 C289 92 209 123 209 254 L209 712 L77 712 L77 251 Z M212 799 L507 799 L507 893 L212 893 L212 799 Z " />
<glyph glyph-name="umacron" unicode="&#x16b;" horiz-adv-x="558" d="M489 504 L363 504 L363 207 C363 119 313 93 271 93 C206 93 194 135 194 207 L194 504 L68 504 L68 181 C68 51 123 -10 225 -10 C325 -10 364 68 364 68 L367 0 L489 0 L489 504 Z M131 603 L425 603 L425 697 L131 697 L131 603 Z " />
<glyph glyph-name="Ubreve" unicode="&#x16c;" horiz-adv-x="720" d="M77 251 C77 64 182 -17 360 -17 C531 -17 643 64 643 251 L643 712 L511 712 L511 252 C511 121 431 92 360 92 C289 92 209 123 209 254 L209 712 L77 712 L77 251 Z M198 916 C198 881 203 774 361 774 C515 774 520 893 520 916 L407 916 C407 895 405 847 360 847 C315 847 312 895 312 916 L198 916 Z " />
<glyph glyph-name="ubreve" unicode="&#x16d;" horiz-adv-x="558" d="M489 504 L363 504 L363 207 C363 119 313 93 271 93 C206 93 194 135 194 207 L194 504 L68 504 L68 181 C68 51 123 -10 225 -10 C325 -10 364 68 364 68 L367 0 L489 0 L489 504 Z M117 719 C117 693 122 576 280 576 C434 576 439 696 439 719 L326 719 C326 698 324 650 279 650 C234 650 231 699 231 719 L117 719 Z " />
<glyph glyph-name="Uring" unicode="&#x16e;" horiz-adv-x="720" d="M234 845 C234 769 295 733 359 733 C424 733 485 769 485 845 C485 920 424 957 359 957 C295 957 234 920 234 845 L234 845 Z M311 845 C311 874 331 892 359 892 C387 892 407 874 407 845 C407 815 387 797 359 797 C331 797 311 815 311 845 L311 845 Z M77 251 C77 64 182 -17 360 -17 C531 -17 643 64 643 251 L643 712 L511 712 L511 252 C511 121 431 92 360 92 C289 92 209 123 209 254 L209 712 L77 712 L77 251 Z " />
<glyph glyph-name="uring" unicode="&#x16f;" horiz-adv-x="558" d="M153 671 C153 595 214 558 278 558 C342 558 403 595 403 671 C403 746 342 783 278 783 C214 783 153 746 153 671 L153 671 Z M230 671 C230 701 250 719 278 719 C306 719 326 701 326 671 C326 641 306 622 278 622 C250 622 230 641 230 671 L230 671 Z M489 504 L363 504 L363 207 C363 119 313 93 271 93 C206 93 194 135 194 207 L194 504 L68 504 L68 181 C68 51 123 -10 225 -10 C325 -10 364 68 364 68 L367 0 L489 0 L489 504 Z " />
<glyph glyph-name="Uhungarumlaut" unicode="&#x170;" horiz-adv-x="720" d="M77 251 C77 64 182 -17 360 -17 C531 -17 643 64 643 251 L643 712 L511 712 L511 252 C511 121 431 92 360 92 C289 92 209 123 209 254 L209 712 L77 712 L77 251 Z M273 916 L196 777 L303 777 L425 916 L273 916 Z M466 916 L389 777 L496 777 L618 916 L466 916 Z " />
<glyph glyph-name="uhungarumlaut" unicode="&#x171;" horiz-adv-x="558" d="M489 504 L363 504 L363 207 C363 119 313 93 271 93 C206 93 194 135 194 207 L194 504 L68 504 L68 181 C68 51 123 -10 225 -10 C325 -10 364 68 364 68 L367 0 L489 0 L489 504 Z M193 719 L117 580 L223 580 L344 719 L193 719 Z M386 719 L310 580 L417 580 L537 719 L386 719 Z " />
<glyph glyph-name="Uogonek" unicode="&#x172;" horiz-adv-x="720" d="M77 251 C77 64 182 -17 360 -17 L373 -17 C333 -43 300 -75 300 -124 C300 -187 361 -210 412 -210 C461 -210 497 -194 502 -190 L502 -132 C502 -132 485 -137 466 -137 C442 -137 414 -129 414 -92 C414 -62 435 -30 475 -2 C579 29 643 110 643 251 L643 712 L511 712 L511 252 C511 121 431 92 360 92 C289 92 209 123 209 254 L209 712 L77 712 L77 251 Z " />
<glyph glyph-name="uogonek" unicode="&#x173;" horiz-adv-x="558" d="M489 504 L363 504 L363 207 C363 119 313 93 271 93 C206 93 194 135 194 207 L194 504 L68 504 L68 181 C68 51 123 -10 225 -10 C325 -10 364 68 364 68 L367 0 L412 0 C360 -30 311 -65 311 -124 C311 -187 372 -210 423 -210 C472 -210 508 -194 513 -190 L513 -132 C513 -132 496 -137 477 -137 C453 -137 425 -129 425 -92 C425 -61 447 -29 489 0 L489 504 Z " />
<glyph glyph-name="Wcircumflex" unicode="&#x174;" horiz-adv-x="989" d="M357 0 L434 294 C468 425 493 543 494 549 C496 537 521 421 553 294 L625 0 L768 0 L973 712 L830 712 L755 420 C724 296 698 171 698 171 C698 171 673 297 643 420 L571 712 L426 712 L349 419 C316 291 289 172 289 172 C289 172 265 293 234 419 L162 712 L17 712 L217 0 L357 0 Z M412 915 L318 776 L446 776 L491 860 L536 776 L670 776 L576 915 L412 915 Z " />
<glyph glyph-name="wcircumflex" unicode="&#x175;" horiz-adv-x="795" d="M303 0 L368 241 C384 300 394 346 395 351 C396 344 407 298 423 242 L490 0 L614 0 L779 504 L649 504 L583 263 C565 198 551 138 551 138 C551 138 539 200 522 264 L458 504 L339 504 L274 265 C255 197 242 138 242 138 C242 138 229 198 212 265 L150 504 L16 504 L174 0 L303 0 Z M315 719 L221 580 L348 580 L393 665 L439 580 L572 580 L478 719 L315 719 Z " />
<glyph glyph-name="Ycircumflex" unicode="&#x176;" horiz-adv-x="618" d="M241 0 L373 0 L373 293 L614 712 L474 712 L399 572 C357 492 310 404 310 404 C310 404 264 493 222 573 L150 712 L4 712 L241 294 L241 0 Z M226 915 L132 776 L260 776 L305 860 L350 776 L484 776 L390 915 L226 915 Z " />
<glyph glyph-name="ycircumflex" unicode="&#x177;" horiz-adv-x="520" d="M185 -21 C166 -77 140 -96 91 -96 C83 -96 68 -95 68 -95 L68 -191 C68 -191 99 -197 130 -197 C233 -197 263 -131 298 -41 L512 504 L381 504 L309 288 C285 216 265 151 265 151 C265 151 245 224 223 289 L152 504 L18 504 L202 26 L185 -21 Z M182 719 L88 580 L215 580 L260 665 L306 580 L439 580 L345 719 L182 719 Z " />
<glyph glyph-name="Ydieresis" unicode="&#x178;" horiz-adv-x="618" d="M241 0 L373 0 L373 293 L614 712 L474 712 L399 572 C357 492 310 404 310 404 C310 404 264 493 222 573 L150 712 L4 712 L241 294 L241 0 Z M143 788 L270 788 L270 912 L143 912 L143 788 Z M348 788 L474 788 L474 912 L348 912 L348 788 Z " />
<glyph glyph-name="Zacute" unicode="&#x179;" horiz-adv-x="616" d="M324 916 L247 777 L368 777 L489 916 L324 916 Z M43 0 L568 0 L568 110 L200 110 L570 619 L570 712 L76 712 L76 602 L416 602 L43 90 L43 0 Z " />
<glyph glyph-name="zacute" unicode="&#x17a;" horiz-adv-x="471" d="M258 719 L182 580 L302 580 L422 719 L258 719 Z M35 0 L437 0 L437 98 L182 98 L435 425 L435 504 L68 504 L68 406 L286 406 L35 77 L35 0 Z " />
<glyph glyph-name="Zdotaccent" unicode="&#x17b;" horiz-adv-x="616" d="M43 0 L568 0 L568 110 L200 110 L570 619 L570 712 L76 712 L76 602 L416 602 L43 90 L43 0 Z M253 790 L386 790 L386 917 L253 917 L253 790 Z " />
<glyph glyph-name="zdotaccent" unicode="&#x17c;" horiz-adv-x="471" d="M35 0 L437 0 L437 98 L182 98 L435 425 L435 504 L68 504 L68 406 L286 406 L35 77 L35 0 Z M183 593 L315 593 L315 720 L183 720 L183 593 Z " />
<glyph glyph-name="Zcaron" unicode="&#x17d;" horiz-adv-x="616" d="M402 776 L496 914 L366 914 L322 831 L276 914 L144 914 L238 776 L402 776 Z M43 0 L568 0 L568 110 L200 110 L570 619 L570 712 L76 712 L76 602 L416 602 L43 90 L43 0 Z " />
<glyph glyph-name="zcaron" unicode="&#x17e;" horiz-adv-x="471" d="M326 580 L420 719 L290 719 L245 634 L200 719 L69 719 L163 580 L326 580 Z M35 0 L437 0 L437 98 L182 98 L435 425 L435 504 L68 504 L68 406 L286 406 L35 77 L35 0 Z " />
<glyph glyph-name="florin" unicode="&#x192;" horiz-adv-x="618" d="M567 702 C567 702 539 710 495 710 C369 710 325 639 300 532 L274 423 L155 423 L155 324 L253 324 L193 59 C178 -5 168 -38 99 -38 C78 -38 60 -35 55 -34 L50 -132 C50 -132 93 -141 142 -141 C263 -141 300 -57 319 33 L383 324 L518 324 L518 423 L405 423 L423 502 C439 572 450 605 519 605 C540 605 563 602 563 602 L567 702 Z " />
<glyph glyph-name="Acaron" unicode="&#x1cd;" horiz-adv-x="702" d="M546 0 L692 0 L408 712 L294 712 L10 0 L145 0 L206 165 L486 165 L546 0 Z M432 776 L526 914 L396 914 L352 831 L306 914 L174 914 L268 776 L432 776 Z M291 396 C320 474 345 548 346 552 C348 545 373 475 402 397 L449 266 L243 266 L291 396 Z " />
<glyph glyph-name="acaron" unicode="&#x1ce;" horiz-adv-x="541" d="M340 308 C340 308 291 312 256 312 C101 312 36 255 36 148 C36 39 102 -10 210 -10 C307 -10 364 51 373 70 L374 64 C377 41 392 -7 459 -7 C488 -7 516 0 516 0 L516 90 L497 90 C468 90 459 101 459 138 L459 351 C459 461 403 521 271 521 C71 521 63 358 63 358 L178 358 C180 366 183 427 263 427 C320 427 340 402 340 346 L340 308 Z M338 202 C338 133 311 88 234 88 C188 88 163 109 163 155 C163 196 181 231 268 231 C307 231 338 227 338 227 L338 202 Z M352 580 L446 719 L316 719 L271 634 L226 719 L95 719 L189 580 L352 580 Z " />
<glyph glyph-name="Scommaaccent" unicode="&#x218;" horiz-adv-x="598" d="M232 -171 L293 -171 C294 -181 289 -213 235 -222 L235 -303 C350 -287 373 -223 373 -135 L373 -53 L232 -53 L232 -171 Z M44 223 C44 101 117 -17 319 -17 C502 -17 559 86 559 202 C559 448 193 382 193 531 C193 592 229 622 294 622 C378 622 408 565 409 503 L538 503 C538 643 450 730 296 730 C146 730 65 648 65 522 C65 268 431 342 431 189 C431 118 392 91 320 91 C223 91 179 152 177 223 L44 223 Z " />
<glyph glyph-name="scommaaccent" unicode="&#x219;" horiz-adv-x="455" d="M158 -171 L219 -171 C220 -181 215 -213 161 -222 L161 -303 C276 -287 299 -223 299 -135 L299 -53 L158 -53 L158 -171 Z M37 160 C37 101 58 -17 241 -17 C357 -17 421 38 421 142 C421 323 165 277 165 374 C165 411 185 429 225 429 C290 429 296 368 297 354 L409 354 C409 395 394 521 224 521 C118 521 48 465 48 367 C48 182 304 236 304 135 C304 93 284 75 239 75 C158 75 149 144 149 160 L37 160 Z " />
<glyph glyph-name="Tcommaaccent" unicode="&#x21a;" horiz-adv-x="564" d="M211 -171 L272 -171 C273 -181 268 -213 214 -222 L214 -303 C329 -287 352 -223 352 -135 L352 -53 L211 -53 L211 -171 Z M216 0 L347 0 L347 602 L550 602 L550 712 L14 712 L14 602 L216 602 L216 0 Z " />
<glyph glyph-name="tcedilla" unicode="&#x21b;" horiz-adv-x="361" d="M90 -214 C94 -215 126 -237 178 -237 C287 -237 314 -167 314 -135 C314 -106 299 -55 222 -55 C214 -55 206 -56 206 -56 L231 -11 L233 -11 C276 -11 327 0 327 0 L327 88 C327 88 300 87 292 87 C227 87 224 109 224 173 L224 416 L329 416 L329 504 L224 504 L224 654 L98 623 L98 504 L13 504 L13 416 L98 416 L98 167 C98 80 107 19 170 -2 L125 -83 L147 -105 C147 -105 156 -101 174 -101 C197 -101 219 -108 219 -135 C219 -165 193 -174 167 -174 C138 -174 116 -158 116 -158 L90 -214 Z " />
<glyph glyph-name="Adotaccent" unicode="&#x226;" horiz-adv-x="702" d="M546 0 L692 0 L408 712 L294 712 L10 0 L145 0 L206 165 L486 165 L546 0 Z M291 396 C320 474 345 548 346 552 C348 545 373 475 402 397 L449 266 L243 266 L291 396 Z M284 790 L417 790 L417 917 L284 917 L284 790 Z " />
<glyph glyph-name="adotaccent" unicode="&#x227;" horiz-adv-x="541" d="M340 308 C340 308 291 312 256 312 C101 312 36 255 36 148 C36 39 102 -10 210 -10 C307 -10 364 51 373 70 L374 64 C377 41 392 -7 459 -7 C488 -7 516 0 516 0 L516 90 L497 90 C468 90 459 101 459 138 L459 351 C459 461 403 521 271 521 C71 521 63 358 63 358 L178 358 C180 366 183 427 263 427 C320 427 340 402 340 346 L340 308 Z M338 202 C338 133 311 88 234 88 C188 88 163 109 163 155 C163 196 181 231 268 231 C307 231 338 227 338 227 L338 202 Z M204 593 L336 593 L336 720 L204 720 L204 593 Z " />
<glyph glyph-name="Odotaccent" unicode="&#x22e;" horiz-adv-x="729" d="M44 357 C44 79 188 -17 364 -17 C542 -17 685 90 685 357 C685 611 550 730 364 730 C188 730 44 611 44 357 L44 357 Z M179 357 C179 550 259 620 364 620 C470 620 550 550 550 357 C550 154 470 93 364 93 C261 93 179 154 179 357 L179 357 Z M297 790 L430 790 L430 917 L297 917 L297 790 Z " />
<glyph glyph-name="odotaccent" unicode="&#x22f;" horiz-adv-x="541" d="M38 252 C38 48 140 -17 270 -17 C399 -17 503 55 503 252 C503 441 402 521 270 521 C142 521 38 438 38 252 L38 252 Z M164 252 C164 382 209 423 270 423 C332 423 377 383 377 252 C377 116 333 81 270 81 C209 81 164 116 164 252 L164 252 Z M204 593 L336 593 L336 720 L204 720 L204 593 Z " />
<glyph glyph-name="Ymacron" unicode="&#x232;" horiz-adv-x="618" d="M241 0 L373 0 L373 293 L614 712 L474 712 L399 572 C357 492 310 404 310 404 C310 404 264 493 222 573 L150 712 L4 712 L241 294 L241 0 Z M161 799 L456 799 L456 893 L161 893 L161 799 Z " />
<glyph glyph-name="ymacron" unicode="&#x233;" horiz-adv-x="520" d="M185 -21 C166 -77 140 -96 91 -96 C83 -96 68 -95 68 -95 L68 -191 C68 -191 99 -197 130 -197 C233 -197 263 -131 298 -41 L512 504 L381 504 L309 288 C285 216 265 151 265 151 C265 151 245 224 223 289 L152 504 L18 504 L202 26 L185 -21 Z M113 603 L407 603 L407 697 L113 697 L113 603 Z " />
<glyph glyph-name="dotlessj" unicode="&#x237;" horiz-adv-x="268" d="M-19 -191 C-19 -191 10 -196 48 -196 C191 -196 199 -102 199 14 L199 504 L73 504 L73 -4 C73 -61 70 -88 2 -88 L-19 -88 L-19 -191 Z " />
<glyph glyph-name="circumflex" unicode="&#x2c6;" horiz-adv-x="351" d="M94 719 L0 580 L127 580 L172 665 L218 580 L351 580 L257 719 L94 719 Z " />
<glyph glyph-name="caron" unicode="&#x2c7;" horiz-adv-x="351" d="M257 580 L351 719 L221 719 L176 634 L131 719 L0 719 L94 580 L257 580 Z " />
<glyph glyph-name="breve" unicode="&#x2d8;" horiz-adv-x="322" d="M0 719 C0 693 5 576 163 576 C317 576 322 696 322 719 L209 719 C209 698 207 650 162 650 C117 650 114 699 114 719 L0 719 Z " />
<glyph glyph-name="dotaccent" unicode="&#x2d9;" horiz-adv-x="132" d="M0 593 L132 593 L132 720 L0 720 L0 593 Z " />
<glyph glyph-name="ring" unicode="&#x2da;" horiz-adv-x="252" d="M1 671 C1 595 62 558 126 558 C190 558 251 595 251 671 C251 746 190 783 126 783 C62 783 1 746 1 671 L1 671 Z M78 671 C78 701 98 719 126 719 C154 719 174 701 174 671 C174 641 154 622 126 622 C98 622 78 641 78 671 L78 671 Z " />
<glyph glyph-name="ogonek" unicode="&#x2db;" horiz-adv-x="202" d="M202 -132 C202 -132 185 -137 166 -137 C142 -137 114 -129 114 -92 C114 -61 136 -29 178 0 L101 0 C49 -30 0 -65 0 -124 C0 -187 61 -210 112 -210 C161 -210 197 -194 202 -190 L202 -132 Z " />
<glyph glyph-name="tilde" unicode="&#x2dc;" horiz-adv-x="338" d="M81 583 C81 589 81 624 110 624 C146 624 181 577 248 577 C343 577 338 695 337 713 L262 713 C262 709 262 667 234 667 C194 667 162 717 100 717 C2 717 0 603 1 583 L81 583 Z " />
<glyph glyph-name="hungarumlaut" unicode="&#x2dd;" horiz-adv-x="481" d="M76 719 L0 580 L106 580 L227 719 L76 719 Z M269 719 L193 580 L300 580 L420 719 L269 719 Z " />
<glyph glyph-name="&amp;#x394;" unicode="&#x394;" horiz-adv-x="618" d="M8 0 L609 0 L609 86 L364 712 L249 712 L8 84 L8 0 Z M136 105 L305 552 L474 105 L136 105 Z " />
<glyph glyph-name="&amp;#x2206;" unicode="&#x2206;" horiz-adv-x="618" d="M8 0 L609 0 L609 86 L364 712 L249 712 L8 84 L8 0 Z M136 105 L305 552 L474 105 L136 105 Z " />
<glyph glyph-name="&amp;#x3a9;" unicode="&#x3a9;" horiz-adv-x="618" d="M-16 102 L-16 0 L256 0 L256 96 C186 132 112 230 112 366 C112 523 197 611 312 611 C437 611 506 506 506 370 C506 223 433 134 363 96 L363 0 L634 0 L634 102 L507 102 C529 123 639 202 639 382 C639 572 503 724 312 724 C132 724 -20 589 -20 377 C-20 202 85 124 109 102 L-16 102 Z " />
<glyph glyph-name="&amp;#x2126;" unicode="&#x2126;" horiz-adv-x="618" d="M-16 102 L-16 0 L256 0 L256 96 C186 132 112 230 112 366 C112 523 197 611 312 611 C437 611 506 506 506 370 C506 223 433 134 363 96 L363 0 L634 0 L634 102 L507 102 C529 123 639 202 639 382 C639 572 503 724 312 724 C132 724 -20 589 -20 377 C-20 202 85 124 109 102 L-16 102 Z " />
<glyph glyph-name="pi" unicode="&#x3c0;" horiz-adv-x="618" d="M573 99 C573 99 539 98 530 98 C492 98 485 114 485 171 L485 399 L561 399 L561 504 L44 504 L44 399 L120 399 L120 -1 L247 -1 L247 399 L358 399 L358 130 C358 57 384 -5 490 -5 C541 -5 573 7 573 7 L573 99 Z " />
<glyph glyph-name="Wgrave" unicode="&#x1e80;" horiz-adv-x="989" d="M357 0 L434 294 C468 425 493 543 494 549 C496 537 521 421 553 294 L625 0 L768 0 L973 712 L830 712 L755 420 C724 296 698 171 698 171 C698 171 673 297 643 420 L571 712 L426 712 L349 419 C316 291 289 172 289 172 C289 172 265 293 234 419 L162 712 L17 712 L217 0 L357 0 Z M316 916 L437 777 L557 777 L481 916 L316 916 Z " />
<glyph glyph-name="wgrave" unicode="&#x1e81;" horiz-adv-x="795" d="M303 0 L368 241 C384 300 394 346 395 351 C396 344 407 298 423 242 L490 0 L614 0 L779 504 L649 504 L583 263 C565 198 551 138 551 138 C551 138 539 200 522 264 L458 504 L339 504 L274 265 C256 200 243 144 242 139 L212 265 L150 504 L16 504 L174 0 L303 0 Z M213 719 L334 580 L453 580 L378 719 L213 719 Z " />
<glyph glyph-name="Wacute" unicode="&#x1e82;" horiz-adv-x="989" d="M357 0 L434 294 C468 425 493 543 494 549 C496 537 521 421 553 294 L625 0 L768 0 L973 712 L830 712 L755 420 C725 299 699 178 698 172 C695 183 671 303 643 420 L571 712 L426 712 L349 419 C316 291 289 172 289 172 C289 172 265 293 234 419 L162 712 L17 712 L217 0 L357 0 Z M517 916 L440 777 L561 777 L682 916 L517 916 Z " />
<glyph glyph-name="wacute" unicode="&#x1e83;" horiz-adv-x="795" d="M303 0 L368 241 C384 300 394 346 395 351 C396 344 407 298 423 242 L490 0 L614 0 L779 504 L649 504 L583 263 C566 201 552 144 551 139 C549 147 537 205 522 264 L458 504 L339 504 L274 265 C255 197 242 138 242 138 C242 138 229 198 212 265 L150 504 L16 504 L174 0 L303 0 Z M427 719 L351 580 L471 580 L591 719 L427 719 Z " />
<glyph glyph-name="Wdieresis" unicode="&#x1e84;" horiz-adv-x="989" d="M357 0 L434 294 C468 425 493 543 494 549 C496 537 521 421 553 294 L625 0 L768 0 L973 712 L830 712 L755 420 C724 296 698 171 698 171 C698 171 673 297 643 420 L571 712 L426 712 L349 419 C317 294 290 179 289 173 C287 184 263 299 234 419 L162 712 L17 712 L217 0 L357 0 Z M328 788 L455 788 L455 912 L328 912 L328 788 Z M533 788 L659 788 L659 912 L533 912 L533 788 Z " />
<glyph glyph-name="wdieresis" unicode="&#x1e85;" horiz-adv-x="795" d="M303 0 L368 241 C384 300 394 346 395 351 C396 344 407 298 423 242 L490 0 L614 0 L779 504 L649 504 L583 263 C565 198 551 138 551 138 C551 138 539 200 522 264 L458 504 L339 504 L274 265 C256 200 243 144 242 139 L212 265 L150 504 L16 504 L174 0 L303 0 Z M231 586 L358 586 L358 710 L231 710 L231 586 Z M436 586 L562 586 L562 710 L436 710 L436 586 Z " />
<glyph glyph-name="Ygrave" unicode="&#x1ef2;" horiz-adv-x="618" d="M241 0 L373 0 L373 293 L614 712 L474 712 L399 572 C357 492 310 404 310 404 C310 404 264 493 222 573 L150 712 L4 712 L241 294 L241 0 Z M142 916 L263 777 L383 777 L307 916 L142 916 Z " />
<glyph glyph-name="ygrave" unicode="&#x1ef3;" horiz-adv-x="520" d="M185 -21 C166 -77 140 -96 91 -96 C83 -96 68 -95 68 -95 L68 -191 C68 -191 99 -197 130 -197 C233 -197 263 -131 298 -41 L512 504 L381 504 L309 288 C285 218 266 154 265 151 C263 158 244 227 223 289 L152 504 L18 504 L202 26 L185 -21 Z M89 719 L210 580 L329 580 L254 719 L89 719 Z " />
<glyph glyph-name="endash" unicode="&#x2013;" horiz-adv-x="430" d="M0 209 L430 209 L430 312 L0 312 L0 209 Z " />
<glyph glyph-name="emdash" unicode="&#x2014;" horiz-adv-x="672" d="M0 209 L672 209 L672 312 L0 312 L0 209 Z " />
<glyph glyph-name="quoteleft" unicode="&#x2018;" horiz-adv-x="262" d="M204 552 L142 552 C142 570 148 619 201 629 L201 712 C92 705 57 617 57 530 L57 417 L204 417 L204 552 Z " />
<glyph glyph-name="quoteright" unicode="&#x2019;" horiz-adv-x="262" d="M64 578 L126 578 C126 559 120 510 67 501 L67 417 C176 424 211 513 211 599 L211 712 L64 712 L64 578 Z " />
<glyph glyph-name="quotesinglbase" unicode="&#x201a;" horiz-adv-x="262" d="M60 0 L122 0 C122 -18 116 -68 63 -76 L63 -161 C176 -153 207 -63 207 30 L207 135 L60 135 L60 0 Z " />
<glyph glyph-name="quotedblleft" unicode="&#x201c;" horiz-adv-x="458" d="M401 551 L339 551 C339 569 344 619 398 628 L398 712 C288 705 254 616 254 530 L254 416 L401 416 L401 551 Z M204 551 L142 551 C142 569 148 619 201 628 L201 712 C92 705 58 616 58 530 L58 416 L204 416 L204 551 Z " />
<glyph glyph-name="quotedblright" unicode="&#x201d;" horiz-adv-x="458" d="M65 577 L127 577 C127 558 121 510 68 500 L68 416 C177 424 212 512 212 599 L212 712 L65 712 L65 577 Z M261 577 L323 577 C323 558 317 510 264 500 L264 416 C374 424 408 512 408 599 L408 712 L261 712 L261 577 Z " />
<glyph glyph-name="quotedblbase" unicode="&#x201e;" horiz-adv-x="458" d="M60 0 L122 0 C122 -18 116 -68 63 -76 L63 -161 C176 -153 207 -63 207 30 L207 135 L60 135 L60 0 Z M256 0 L318 0 C318 -18 313 -68 259 -76 L259 -161 C369 -153 403 -65 403 21 L403 135 L256 135 L256 0 Z " />
<glyph glyph-name="dagger" unicode="&#x2020;" horiz-adv-x="618" d="M93 383 L246 383 L246 0 L371 0 L371 383 L524 383 L524 488 L371 488 L371 697 L246 697 L246 488 L93 488 L93 383 Z " />
<glyph glyph-name="daggerdbl" unicode="&#x2021;" horiz-adv-x="618" d="M246 272 L93 272 L93 167 L246 167 L246 0 L371 0 L371 167 L524 167 L524 272 L371 272 L371 418 L524 418 L524 523 L371 523 L371 697 L246 697 L246 523 L93 523 L93 418 L246 418 L246 272 Z " />
<glyph glyph-name="bullet" unicode="&#x2022;" horiz-adv-x="381" d="M30 349 C30 252 102 189 190 189 C279 189 351 252 351 349 C351 445 279 508 190 508 C102 508 30 445 30 349 L30 349 Z " />
<glyph glyph-name="ellipsis" unicode="&#x2026;" horiz-adv-x="758" d="M53 0 L199 0 L199 136 L53 136 L53 0 Z M305 0 L452 0 L452 136 L305 136 L305 0 Z M558 0 L704 0 L704 136 L558 136 L558 0 Z " />
<glyph glyph-name="perthousand" unicode="&#x2030;" horiz-adv-x="1196" d="M214 434 C176 434 153 460 153 536 C153 610 177 634 214 634 C251 634 276 610 276 536 C276 460 252 434 214 434 L214 434 Z M254 -17 L674 712 L574 712 L148 -17 L254 -17 Z M47 535 C47 405 127 356 214 356 C300 356 382 409 382 535 C382 659 304 712 214 712 C129 712 47 659 47 535 L47 535 Z M553 162 C553 236 577 260 614 260 C651 260 676 236 676 162 C676 85 652 61 614 61 C576 61 553 85 553 162 L553 162 Z M447 162 C447 31 527 -17 614 -17 C700 -17 782 35 782 162 C782 285 704 338 614 338 C529 338 447 284 447 162 L447 162 Z M921 162 C921 236 944 260 981 260 C1018 260 1043 236 1043 162 C1043 85 1019 61 981 61 C943 61 921 85 921 162 L921 162 Z M815 162 C815 31 893 -17 981 -17 C1068 -17 1149 35 1149 162 C1149 285 1071 338 981 338 C896 338 815 284 815 162 L815 162 Z " />
<glyph glyph-name="guilsinglleft" unicode="&#x2039;" horiz-adv-x="320" d="M151 447 L41 250 L151 53 L276 53 L174 251 L276 447 L151 447 Z " />
<glyph glyph-name="guilsinglright" unicode="&#x203a;" horiz-adv-x="320" d="M42 447 L144 251 L43 53 L168 53 L277 250 L168 447 L42 447 Z " />
<glyph glyph-name="fraction" unicode="&#x2044;" horiz-adv-x="151" d="M-209 -10 L-95 -10 L355 699 L241 699 L-209 -10 Z " />
<glyph glyph-name="zero.superior" unicode="&#x2070;" horiz-adv-x="428" d="M33 594 C33 410 126 375 214 375 C302 375 395 416 395 594 C395 765 302 813 214 813 C126 813 33 766 33 594 L33 594 Z M142 594 C142 699 173 725 214 725 C254 725 286 693 286 594 C286 486 254 463 214 463 C173 463 142 486 142 594 L142 594 Z " />
<glyph glyph-name="four.superior" unicode="&#x2074;" horiz-adv-x="428" d="M44 472 L233 472 L233 386 L338 386 L338 472 L384 472 L384 551 L338 551 L338 803 L227 803 L44 542 L44 472 Z M127 551 L233 703 L233 551 L127 551 Z " />
<glyph glyph-name="five.superior" unicode="&#x2075;" horiz-adv-x="428" d="M65 505 C65 479 75 375 218 375 C341 375 375 456 375 532 C375 600 343 662 251 662 C191 662 167 637 167 637 L182 722 L346 722 L346 803 L113 803 L75 566 L159 555 C159 555 172 589 214 589 C254 589 266 559 266 530 C266 495 255 459 211 459 C168 459 158 495 156 505 L65 505 Z " />
<glyph glyph-name="six.superior" unicode="&#x2076;" horiz-adv-x="428" d="M373 695 C371 716 354 813 233 813 C81 813 50 673 50 566 C50 453 95 375 224 375 C323 375 385 429 385 528 C385 618 332 663 249 663 C186 663 155 630 155 630 C159 677 172 733 225 733 C269 733 274 695 274 695 L373 695 Z M221 454 C187 454 165 475 165 521 C165 568 191 584 221 584 C254 584 278 566 278 519 C278 474 256 454 221 454 L221 454 Z " />
<glyph glyph-name="seven.superior" unicode="&#x2077;" horiz-adv-x="379" d="M186 386 C205 538 343 729 343 729 L343 803 L41 803 L41 718 L243 718 C202 671 105 535 73 386 L186 386 Z " />
<glyph glyph-name="eight.superior" unicode="&#x2078;" horiz-adv-x="428" d="M48 501 C48 405 130 376 215 376 C303 376 383 407 383 501 C383 589 300 607 295 608 C302 610 366 632 366 700 C366 781 294 813 215 813 C135 813 64 781 64 700 C64 628 128 609 131 608 C124 606 48 583 48 501 L48 501 Z M153 509 C153 548 181 564 215 564 C250 564 279 548 279 509 C279 470 253 454 215 454 C179 454 153 471 153 509 L153 509 Z M167 694 C167 726 189 739 215 739 C242 739 265 726 265 694 C265 661 242 647 215 647 C189 647 167 661 167 694 L167 694 Z " />
<glyph glyph-name="nine.superior" unicode="&#x2079;" horiz-adv-x="428" d="M57 496 C57 496 56 375 213 375 C363 375 384 512 384 622 C384 744 327 813 209 813 C110 813 45 759 45 662 C45 573 103 527 187 527 C248 527 277 561 277 561 C277 502 270 454 213 454 C156 454 153 496 153 496 L57 496 Z M154 669 C154 716 177 735 210 735 C243 735 267 716 267 670 C267 621 239 604 209 604 C178 604 154 621 154 669 L154 669 Z " />
<glyph glyph-name="n.superior" unicode="&#x207f;" horiz-adv-x="392" d="M52 346 L155 346 L155 527 C155 569 177 583 200 583 C231 583 238 564 238 527 L238 346 L342 346 L342 546 C342 637 304 665 245 665 C183 665 153 615 153 615 L152 657 L52 657 L52 346 Z " />
<glyph glyph-name="zero.inferior" unicode="&#x2080;" horiz-adv-x="428" d="M33 53 C33 -131 126 -166 214 -166 C302 -166 395 -125 395 53 C395 224 302 272 214 272 C126 272 33 225 33 53 L33 53 Z M142 53 C142 158 173 184 214 184 C254 184 286 152 286 53 C286 -55 254 -78 214 -78 C173 -78 142 -55 142 53 L142 53 Z " />
<glyph glyph-name="one.inferior" unicode="&#x2081;" horiz-adv-x="342" d="M260 -155 L260 262 L172 262 C155 221 90 200 61 193 L61 95 C86 98 126 112 156 131 L156 -155 L260 -155 Z " />
<glyph glyph-name="two.inferior" unicode="&#x2082;" horiz-adv-x="428" d="M58 -155 L375 -155 L375 -64 L184 -64 C305 7 370 73 370 152 C370 233 312 273 224 273 C56 273 54 116 54 116 L153 116 C153 116 155 186 215 186 C254 186 262 163 262 143 C262 79 192 32 58 -75 L58 -155 Z " />
<glyph glyph-name="three.inferior" unicode="&#x2083;" horiz-adv-x="428" d="M48 -15 C48 -89 87 -166 218 -166 C338 -166 386 -111 386 -32 C386 57 299 65 291 66 C302 68 373 85 373 163 C373 221 331 272 228 272 C112 272 63 200 63 135 L158 135 C161 159 173 188 217 188 C251 188 265 172 265 147 C265 113 247 95 187 95 L163 95 L163 23 L191 23 C253 23 277 9 277 -29 C277 -63 259 -82 217 -82 C151 -82 146 -30 146 -15 L48 -15 Z " />
<glyph glyph-name="four.inferior" unicode="&#x2084;" horiz-adv-x="428" d="M44 -69 L233 -69 L233 -155 L338 -155 L338 -69 L384 -69 L384 10 L338 10 L338 262 L227 262 L44 1 L44 -69 Z M127 10 L233 162 L233 10 L127 10 Z " />
<glyph glyph-name="five.inferior" unicode="&#x2085;" horiz-adv-x="428" d="M65 -36 C65 -62 75 -166 218 -166 C341 -166 375 -85 375 -9 C375 59 343 121 251 121 C191 121 167 96 167 96 L182 181 L346 181 L346 262 L113 262 L75 25 L159 14 C159 14 172 48 214 48 C254 48 266 18 266 -11 C266 -46 255 -82 211 -82 C168 -82 158 -46 156 -36 L65 -36 Z " />
<glyph glyph-name="six.inferior" unicode="&#x2086;" horiz-adv-x="428" d="M373 154 C371 175 354 272 233 272 C81 272 50 132 50 25 C50 -88 95 -166 224 -166 C323 -166 385 -112 385 -13 C385 77 332 122 249 122 C186 122 155 89 155 89 C159 136 172 192 225 192 C269 192 274 154 274 154 L373 154 Z M221 -87 C187 -87 165 -66 165 -20 C165 27 191 43 221 43 C254 43 278 25 278 -22 C278 -67 256 -87 221 -87 L221 -87 Z " />
<glyph glyph-name="seven.inferior" unicode="&#x2087;" horiz-adv-x="379" d="M186 -155 C205 -3 343 188 343 188 L343 262 L41 262 L41 177 L243 177 C202 130 105 -6 73 -155 L186 -155 Z " />
<glyph glyph-name="eight.inferior" unicode="&#x2088;" horiz-adv-x="428" d="M48 -40 C48 -136 130 -165 215 -165 C303 -165 383 -134 383 -40 C383 48 300 66 295 67 C302 69 366 91 366 159 C366 240 294 272 215 272 C135 272 64 240 64 159 C64 87 128 68 131 67 C124 65 48 42 48 -40 L48 -40 Z M153 -32 C153 7 181 23 215 23 C250 23 279 7 279 -32 C279 -71 253 -87 215 -87 C179 -87 153 -70 153 -32 L153 -32 Z M167 153 C167 185 189 198 215 198 C242 198 265 185 265 153 C265 120 242 106 215 106 C189 106 167 120 167 153 L167 153 Z " />
<glyph glyph-name="nine.inferior" unicode="&#x2089;" horiz-adv-x="428" d="M57 -45 C57 -45 56 -166 213 -166 C363 -166 384 -29 384 81 C384 203 327 272 209 272 C110 272 45 218 45 121 C45 32 103 -14 187 -14 C248 -14 277 20 277 20 C277 -39 270 -87 213 -87 C156 -87 153 -45 153 -45 L57 -45 Z M154 128 C154 175 177 194 210 194 C243 194 267 175 267 129 C267 80 239 63 209 63 C178 63 154 80 154 128 L154 128 Z " />
<glyph glyph-name="Euro" unicode="&#x20ac;" horiz-adv-x="618" d="M44 239 L113 239 C134 49 216 -17 352 -17 C567 -17 572 197 572 221 L450 221 C450 203 447 91 351 91 C279 91 251 149 241 239 L391 239 L391 313 L237 313 L237 348 L237 380 L391 380 L391 454 L242 454 C253 552 285 605 351 605 C442 605 446 491 446 475 L568 475 C568 502 560 712 353 712 C228 712 138 628 114 454 L44 454 L44 380 L107 380 L107 349 L107 313 L44 313 L44 239 Z " />
<glyph glyph-name="trademark" unicode="&#x2122;" horiz-adv-x="520" d="M251 466 L317 466 L317 541 C317 570 315 604 315 605 C316 602 327 577 337 556 L358 511 L394 511 L416 556 C426 578 436 605 437 606 C437 605 435 568 435 541 L435 466 L501 466 L501 712 L433 712 L397 632 C385 607 376 583 376 583 C375 585 365 609 354 632 L317 712 L251 712 L251 466 Z M86 466 L156 466 L156 654 L221 654 L221 712 L20 712 L20 654 L86 654 L86 466 Z " />
<glyph glyph-name="onethird" unicode="&#x2153;" horiz-adv-x="1007" d="M626 140 C626 66 665 -11 796 -11 C916 -11 964 44 964 123 C964 212 877 220 869 221 C880 223 951 240 951 318 C951 376 909 427 806 427 C690 427 641 355 641 290 L736 290 C739 314 751 343 795 343 C829 343 843 327 843 302 C843 268 825 250 765 250 L741 250 L741 178 L769 178 C831 178 855 164 855 126 C855 92 837 73 795 73 C729 73 724 125 724 140 L626 140 Z M218 -10 L332 -10 L782 699 L668 699 L218 -10 Z M301 285 L301 702 L213 702 C196 661 131 640 102 633 L102 535 C127 538 167 552 197 571 L197 285 L301 285 Z " />
<glyph glyph-name="twothirds" unicode="&#x2154;" horiz-adv-x="1007" d="M626 140 C626 66 665 -11 796 -11 C916 -11 964 44 964 123 C964 212 877 220 869 221 C880 223 951 240 951 318 C951 376 909 427 806 427 C690 427 641 355 641 290 L736 290 C739 314 751 343 795 343 C829 343 843 327 843 302 C843 268 825 250 765 250 L741 250 L741 178 L769 178 C831 178 855 164 855 126 C855 92 837 73 795 73 C729 73 724 125 724 140 L626 140 Z M57 285 L374 285 L374 376 L183 376 C304 447 369 513 369 592 C369 673 311 713 223 713 C55 713 53 556 53 556 L152 556 C152 556 154 626 214 626 C253 626 261 603 261 583 C261 519 191 472 57 365 L57 285 Z M218 -10 L332 -10 L782 699 L668 699 L218 -10 Z " />
<glyph glyph-name="onefifth" unicode="&#x2155;" horiz-adv-x="1007" d="M218 -10 L332 -10 L782 699 L668 699 L218 -10 Z M301 285 L301 702 L213 702 C196 661 131 640 102 633 L102 535 C127 538 167 552 197 571 L197 285 L301 285 Z M637 119 C637 93 647 -11 790 -11 C913 -11 947 70 947 146 C947 214 915 276 823 276 C763 276 739 251 739 251 L754 336 L918 336 L918 417 L685 417 L647 180 L731 169 C731 169 744 203 786 203 C826 203 838 173 838 144 C838 109 827 73 783 73 C740 73 730 109 728 119 L637 119 Z " />
<glyph glyph-name="twofifths" unicode="&#x2156;" horiz-adv-x="1007" d="M57 285 L374 285 L374 376 L183 376 C304 447 369 513 369 592 C369 673 311 713 223 713 C55 713 53 556 53 556 L152 556 C152 556 154 626 214 626 C253 626 261 603 261 583 C261 519 191 472 57 365 L57 285 Z M218 -10 L332 -10 L782 699 L668 699 L218 -10 Z M637 119 C637 93 647 -11 790 -11 C913 -11 947 70 947 146 C947 214 915 276 823 276 C763 276 739 251 739 251 L754 336 L918 336 L918 417 L685 417 L647 180 L731 169 C731 169 744 203 786 203 C826 203 838 173 838 144 C838 109 827 73 783 73 C740 73 730 109 728 119 L637 119 Z " />
<glyph glyph-name="threefifths" unicode="&#x2157;" horiz-adv-x="1007" d="M48 425 C48 351 87 274 218 274 C338 274 386 329 386 408 C386 497 299 505 291 506 C302 508 373 525 373 603 C373 661 331 712 228 712 C112 712 63 640 63 575 L158 575 C161 599 173 628 217 628 C251 628 265 612 265 587 C265 553 247 535 187 535 L163 535 L163 463 L191 463 C253 463 277 449 277 411 C277 377 259 358 217 358 C151 358 146 410 146 425 L48 425 Z M637 119 C637 93 647 -11 790 -11 C913 -11 947 70 947 146 C947 214 915 276 823 276 C763 276 739 251 739 251 L754 336 L918 336 L918 417 L685 417 L647 180 L731 169 C731 169 744 203 786 203 C826 203 838 173 838 144 C838 109 827 73 783 73 C740 73 730 109 728 119 L637 119 Z M218 -10 L332 -10 L782 699 L668 699 L218 -10 Z " />
<glyph glyph-name="fourfifths" unicode="&#x2158;" horiz-adv-x="1007" d="M44 371 L233 371 L233 285 L338 285 L338 371 L384 371 L384 450 L338 450 L338 702 L227 702 L44 441 L44 371 Z M127 450 L233 602 L233 450 L127 450 Z M218 -10 L332 -10 L782 699 L668 699 L218 -10 Z M637 119 C637 93 647 -11 790 -11 C913 -11 947 70 947 146 C947 214 915 276 823 276 C763 276 739 251 739 251 L754 336 L918 336 L918 417 L685 417 L647 180 L731 169 C731 169 744 203 786 203 C826 203 838 173 838 144 C838 109 827 73 783 73 C740 73 730 109 728 119 L637 119 Z " />
<glyph glyph-name="onesixth" unicode="&#x2159;" horiz-adv-x="1007" d="M947 309 C945 330 928 427 807 427 C655 427 624 287 624 180 C624 67 669 -11 798 -11 C897 -11 959 43 959 142 C959 232 906 277 823 277 C760 277 729 244 729 244 C733 291 746 347 799 347 C843 347 848 309 848 309 L947 309 Z M795 68 C761 68 739 89 739 135 C739 182 765 198 795 198 C828 198 852 180 852 133 C852 88 830 68 795 68 L795 68 Z M301 285 L301 702 L213 702 C196 661 131 640 102 633 L102 535 C127 538 167 552 197 571 L197 285 L301 285 Z M218 -10 L332 -10 L782 699 L668 699 L218 -10 Z " />
<glyph glyph-name="fivesixths" unicode="&#x215a;" horiz-adv-x="1007" d="M947 309 C945 330 928 427 807 427 C655 427 624 287 624 180 C624 67 669 -11 798 -11 C897 -11 959 43 959 142 C959 232 906 277 823 277 C760 277 729 244 729 244 C733 291 746 347 799 347 C843 347 848 309 848 309 L947 309 Z M795 68 C761 68 739 89 739 135 C739 182 765 198 795 198 C828 198 852 180 852 133 C852 88 830 68 795 68 L795 68 Z M59 404 C59 378 69 274 212 274 C335 274 369 355 369 431 C369 499 337 561 245 561 C185 561 161 536 161 536 L176 621 L340 621 L340 702 L107 702 L69 465 L153 454 C153 454 166 488 208 488 C248 488 260 458 260 429 C260 394 249 358 205 358 C162 358 152 394 150 404 L59 404 Z M218 -10 L332 -10 L782 699 L668 699 L218 -10 Z " />
<glyph glyph-name="oneeighth" unicode="&#x215b;" horiz-adv-x="1007" d="M624 115 C624 19 706 -10 791 -10 C879 -10 959 21 959 115 C959 203 876 221 871 222 C878 224 942 246 942 314 C942 395 870 427 791 427 C711 427 640 395 640 314 C640 242 704 223 707 222 C700 220 624 197 624 115 L624 115 Z M218 -10 L332 -10 L782 699 L668 699 L218 -10 Z M301 285 L301 702 L213 702 C196 661 131 640 102 633 L102 535 C127 538 167 552 197 571 L197 285 L301 285 Z M729 123 C729 162 757 178 791 178 C826 178 855 162 855 123 C855 84 829 68 791 68 C755 68 729 85 729 123 L729 123 Z M743 308 C743 340 765 353 791 353 C818 353 841 340 841 308 C841 275 818 261 791 261 C765 261 743 275 743 308 L743 308 Z " />
<glyph glyph-name="threeeighths" unicode="&#x215c;" horiz-adv-x="1007" d="M624 115 C624 19 706 -10 791 -10 C879 -10 959 21 959 115 C959 203 876 221 871 222 C878 224 942 246 942 314 C942 395 870 427 791 427 C711 427 640 395 640 314 C640 242 704 223 707 222 C700 220 624 197 624 115 L624 115 Z M48 425 C48 351 87 274 218 274 C338 274 386 329 386 408 C386 497 299 505 291 506 C302 508 373 525 373 603 C373 661 331 712 228 712 C112 712 63 640 63 575 L158 575 C161 599 173 628 217 628 C251 628 265 612 265 587 C265 553 247 535 187 535 L163 535 L163 463 L191 463 C253 463 277 449 277 411 C277 377 259 358 217 358 C151 358 146 410 146 425 L48 425 Z M218 -10 L332 -10 L782 699 L668 699 L218 -10 Z M729 123 C729 162 757 178 791 178 C826 178 855 162 855 123 C855 84 829 68 791 68 C755 68 729 85 729 123 L729 123 Z M743 308 C743 340 765 353 791 353 C818 353 841 340 841 308 C841 275 818 261 791 261 C765 261 743 275 743 308 L743 308 Z " />
<glyph glyph-name="fiveeighths" unicode="&#x215d;" horiz-adv-x="1007" d="M624 115 C624 19 706 -10 791 -10 C879 -10 959 21 959 115 C959 203 876 221 871 222 C878 224 942 246 942 314 C942 395 870 427 791 427 C711 427 640 395 640 314 C640 242 704 223 707 222 C700 220 624 197 624 115 L624 115 Z M59 404 C59 378 69 274 212 274 C335 274 369 355 369 431 C369 499 337 561 245 561 C185 561 161 536 161 536 L176 621 L340 621 L340 702 L107 702 L69 465 L153 454 C153 454 166 488 208 488 C248 488 260 458 260 429 C260 394 249 358 205 358 C162 358 152 394 150 404 L59 404 Z M218 -10 L332 -10 L782 699 L668 699 L218 -10 Z M729 123 C729 162 757 178 791 178 C826 178 855 162 855 123 C855 84 829 68 791 68 C755 68 729 85 729 123 L729 123 Z M743 308 C743 340 765 353 791 353 C818 353 841 340 841 308 C841 275 818 261 791 261 C765 261 743 275 743 308 L743 308 Z " />
<glyph glyph-name="seveneighths" unicode="&#x215e;" horiz-adv-x="1007" d="M624 115 C624 19 706 -10 791 -10 C879 -10 959 21 959 115 C959 203 876 221 871 222 C878 224 942 246 942 314 C942 395 870 427 791 427 C711 427 640 395 640 314 C640 242 704 223 707 222 C700 220 624 197 624 115 L624 115 Z M218 -10 L332 -10 L782 699 L668 699 L218 -10 Z M208 285 C227 437 365 628 365 628 L365 702 L63 702 L63 617 L265 617 C224 570 127 434 95 285 L208 285 Z M729 123 C729 162 757 178 791 178 C826 178 855 162 855 123 C855 84 829 68 791 68 C755 68 729 85 729 123 L729 123 Z M743 308 C743 340 765 353 791 353 C818 353 841 340 841 308 C841 275 818 261 791 261 C765 261 743 275 743 308 L743 308 Z " />
<glyph glyph-name="onefraction" unicode="&#x215f;" horiz-adv-x="579" d="M301 285 L301 702 L213 702 C196 661 131 640 102 633 L102 535 C127 538 167 552 197 571 L197 285 L301 285 Z M218 -10 L332 -10 L782 699 L668 699 L218 -10 Z " />
<glyph glyph-name="partialdiff" unicode="&#x2202;" horiz-adv-x="618" d="M138 617 C138 617 195 664 267 664 C381 664 428 557 436 437 C437 426 437 414 437 402 C437 402 389 479 284 479 C161 479 67 385 67 223 C67 84 140 -8 283 -8 C463 -8 550 161 550 389 C550 640 446 767 276 767 C176 767 94 710 94 710 L138 617 Z M286 96 C221 96 193 146 193 223 C193 314 230 376 302 376 C357 376 403 329 416 297 C410 162 359 96 286 96 L286 96 Z " />
<glyph glyph-name="product" unicode="&#x220f;" horiz-adv-x="618" d="M639 591 L639 696 L-21 696 L-21 591 L85 591 L85 0 L212 0 L212 591 L410 591 L410 0 L537 0 L537 591 L639 591 Z " />
<glyph glyph-name="summation" unicode="&#x2211;" horiz-adv-x="618" d="M573 -114 L573 -9 L194 -9 L416 293 L206 591 L558 591 L558 696 L55 696 L55 593 L268 291 L44 -22 L44 -114 L573 -114 Z " />
<glyph glyph-name="minus" unicode="&#x2212;" horiz-adv-x="618" d="M82 209 L535 209 L535 312 L82 312 L82 209 Z " />
<glyph glyph-name="radical" unicode="&#x221a;" horiz-adv-x="618" d="M635 720 L635 825 L432 825 L223 177 L120 504 L-16 504 L167 -8 L279 -8 L526 720 L635 720 Z " />
<glyph glyph-name="infinity" unicode="&#x221e;" horiz-adv-x="618" d="M651 285 C651 382 588 451 483 451 C387 451 330 373 313 355 C296 376 239 451 139 451 C40 451 -33 384 -33 280 C-33 166 47 113 139 113 C238 113 295 188 311 208 C333 182 388 113 482 113 C581 113 651 181 651 285 L651 285 Z M146 209 C107 209 78 237 78 282 C78 330 106 355 144 355 C189 355 221 319 250 279 C220 241 190 209 146 209 L146 209 Z M475 209 C440 209 407 235 371 282 C404 323 434 355 477 355 C519 355 542 324 542 281 C542 240 514 209 475 209 L475 209 Z " />
<glyph glyph-name="integral" unicode="&#x222b;" horiz-adv-x="618" d="M371 660 C371 705 380 745 433 745 C459 745 489 738 489 738 L489 840 C489 840 452 849 406 849 C282 849 245 766 245 649 L245 29 C245 -20 237 -57 179 -57 C154 -57 129 -50 129 -50 L129 -153 C129 -153 168 -162 211 -162 C335 -162 371 -79 371 39 L371 660 Z " />
<glyph glyph-name="approxequal" unicode="&#x2248;" horiz-adv-x="618" d="M174 275 C174 275 173 332 225 332 C281 332 330 268 415 268 C546 268 535 434 535 434 L449 434 C449 434 450 374 401 374 C335 374 289 438 208 438 C88 438 81 299 81 275 L174 275 Z M174 74 C174 74 173 131 225 131 C281 131 330 67 415 67 C546 67 535 233 535 233 L449 233 C449 233 450 173 401 173 C335 173 289 237 208 237 C88 237 81 98 81 74 L174 74 Z " />
<glyph glyph-name="notequal" unicode="&#x2260;" horiz-adv-x="618" d="M82 308 L268 308 L240 224 L82 224 L82 121 L206 121 L171 16 L283 16 L317 121 L535 121 L535 224 L351 224 L379 308 L535 308 L535 411 L413 411 L447 514 L336 514 L302 411 L82 411 L82 308 Z " />
<glyph glyph-name="lessequal" unicode="&#x2264;" horiz-adv-x="618" d="M82 374 L82 276 L535 138 L535 244 L222 326 L535 409 L535 513 L82 374 Z M82 0 L535 0 L535 99 L82 99 L82 0 Z " />
<glyph glyph-name="greaterequal" unicode="&#x2265;" horiz-adv-x="618" d="M534 99 L82 99 L82 0 L534 0 L534 99 Z M82 513 L82 409 L395 325 L82 244 L82 138 L535 276 L535 374 L82 513 Z " />
<glyph glyph-name="lozenge" unicode="&#x25ca;" horiz-adv-x="618" d="M557 346 L361 739 L260 739 L61 346 L257 -46 L358 -46 L557 346 Z M432 344 L310 90 L187 348 L310 601 L432 344 Z " />
<glyph glyph-name="Dotaccent" unicode="&#xefed;" horiz-adv-x="133" d="M0 790 L133 790 L133 917 L0 917 L0 790 Z " />
<glyph glyph-name="Breve" unicode="&#xefee;" horiz-adv-x="322" d="M0 916 C0 881 5 774 163 774 C317 774 322 893 322 916 L209 916 C209 895 207 847 162 847 C117 847 114 895 114 916 L0 916 Z " />
<glyph glyph-name="Ogonek" unicode="&#xeff1;" horiz-adv-x="202" d="M202 -132 C202 -132 185 -137 166 -137 C142 -137 114 -129 114 -92 C114 -61 136 -29 178 0 L101 0 C49 -30 0 -65 0 -124 C0 -187 61 -210 112 -210 C161 -210 197 -194 202 -190 L202 -132 Z " />
<glyph glyph-name="Cedilla" unicode="&#xeff2;" horiz-adv-x="225" d="M0 -214 C4 -215 36 -237 88 -237 C197 -237 224 -167 224 -135 C224 -106 209 -55 132 -55 C124 -55 116 -56 116 -56 L148 0 L81 0 L35 -83 L57 -105 C57 -105 66 -101 84 -101 C107 -101 129 -108 129 -135 C129 -165 103 -174 77 -174 C48 -174 26 -158 26 -158 L0 -214 Z " />
<glyph glyph-name="Ring" unicode="&#xeff3;" horiz-adv-x="253" d="M1 845 C1 769 62 733 126 733 C191 733 252 769 252 845 C252 920 191 957 126 957 C62 957 1 920 1 845 L1 845 Z M78 845 C78 874 98 892 126 892 C154 892 174 874 174 845 C174 815 154 797 126 797 C98 797 78 815 78 845 L78 845 Z " />
<glyph glyph-name="Tilde" unicode="&#xeff5;" horiz-adv-x="338" d="M81 780 C81 785 81 821 110 821 C146 821 181 774 248 774 C343 774 338 891 337 909 L261 909 C261 905 261 863 233 863 C193 863 162 913 100 913 C2 913 0 799 1 780 L81 780 Z " />
<glyph glyph-name="Circumflex" unicode="&#xeff7;" horiz-adv-x="352" d="M94 915 L0 776 L128 776 L173 860 L218 776 L352 776 L258 915 L94 915 Z " />
<glyph glyph-name="one.superior" unicode="&#xf06d;" horiz-adv-x="342" d="M260 386 L260 803 L172 803 C155 762 90 741 61 734 L61 636 C86 639 126 653 156 672 L156 386 L260 386 Z " />
<glyph glyph-name="two.superior" unicode="&#xf06e;" horiz-adv-x="428" d="M58 386 L375 386 L375 477 L184 477 C305 548 370 614 370 693 C370 774 312 814 224 814 C56 814 54 657 54 657 L153 657 C153 657 155 727 215 727 C254 727 262 704 262 684 C262 620 192 573 58 466 L58 386 Z " />
<glyph glyph-name="three.superior" unicode="&#xf06f;" horiz-adv-x="428" d="M48 526 C48 452 87 375 218 375 C338 375 386 430 386 509 C386 598 299 606 291 607 C302 609 373 626 373 704 C373 762 331 813 228 813 C112 813 63 741 63 676 L158 676 C161 700 173 729 217 729 C251 729 265 713 265 688 C265 654 247 636 187 636 L163 636 L163 564 L191 564 C253 564 277 550 277 512 C277 478 259 459 217 459 C151 459 146 511 146 526 L48 526 Z " />
<glyph glyph-name="Mcircumflex" unicode="&#xf116;" horiz-adv-x="809" d="M82 0 L209 0 L209 311 C209 417 205 487 205 488 C207 482 234 415 262 353 L365 120 L442 120 L547 353 C575 416 602 485 604 488 C604 487 601 414 601 310 L601 0 L728 0 L728 712 L589 712 L478 464 C440 380 405 295 405 295 C405 295 371 379 333 464 L222 712 L82 712 L82 0 Z M322 915 L228 776 L356 776 L401 860 L446 776 L580 776 L486 915 L322 915 Z " />
<glyph glyph-name="mcircumflex" unicode="&#xf117;" horiz-adv-x="853" d="M345 719 L251 580 L378 580 L423 665 L469 580 L602 580 L508 719 L345 719 Z M70 0 L196 0 L196 297 C196 387 244 413 286 413 C351 413 364 371 364 297 L364 0 L490 0 L490 300 C490 387 540 413 582 413 C647 413 660 371 660 297 L660 0 L786 0 L786 328 C786 460 730 515 627 515 C520 515 471 428 471 428 C471 428 446 515 334 515 C231 515 194 435 194 435 L191 504 L70 504 L70 0 Z " />
<glyph glyph-name="Gtilde" unicode="&#xf11b;" horiz-adv-x="698" d="M530 0 L639 0 L639 384 L370 384 L370 281 L518 281 L518 276 C518 181 469 99 357 99 C207 99 179 228 179 357 C179 534 242 620 352 620 C482 620 497 495 497 495 L631 495 C631 495 612 730 355 730 C134 730 44 555 44 354 C44 73 181 -10 331 -10 C482 -10 527 89 527 89 L530 0 Z M258 780 C258 785 258 821 287 821 C323 821 358 774 425 774 C520 774 515 891 514 909 L438 909 C438 905 438 863 410 863 C370 863 339 913 277 913 C179 913 177 799 178 780 L258 780 Z " />
<glyph glyph-name="gtilde" unicode="&#xf11c;" horiz-adv-x="574" d="M504 504 L380 504 L378 448 C378 448 343 516 241 516 C99 516 38 396 38 260 C38 123 90 13 234 13 C340 13 378 84 378 84 L378 24 C378 -83 343 -111 276 -111 C182 -111 178 -39 178 -39 L60 -39 C60 -39 57 -209 277 -209 C438 -209 504 -121 504 20 L504 504 Z M379 269 C379 189 358 109 270 109 C212 109 164 141 164 260 C164 361 200 416 271 416 C352 416 379 347 379 269 L379 269 Z M193 583 C193 589 193 624 222 624 C258 624 293 577 360 577 C455 577 450 695 449 713 L374 713 C374 709 374 667 346 667 C306 667 274 717 212 717 C114 717 112 603 113 583 L193 583 Z " />
<glyph glyph-name="Ncircumflex" unicode="&#xf127;" horiz-adv-x="730" d="M287 915 L193 776 L321 776 L366 860 L411 776 L545 776 L451 915 L287 915 Z M82 0 L209 0 L209 331 C209 445 206 520 206 520 C206 520 245 442 299 353 L510 0 L648 0 L648 712 L521 712 L521 411 C521 291 525 196 525 196 C525 196 478 284 427 370 L224 712 L82 712 L82 0 Z " />
<glyph glyph-name="ncircumflex" unicode="&#xf128;" horiz-adv-x="567" d="M205 719 L111 580 L238 580 L283 665 L329 580 L462 580 L368 719 L205 719 Z M70 0 L196 0 L196 297 C196 387 250 413 292 413 C357 413 374 370 374 297 L374 0 L500 0 L500 328 C500 457 445 515 340 515 C236 515 194 435 194 435 L191 504 L70 504 L70 0 Z " />
<glyph glyph-name="Commaaccent" unicode="&#xf12a;" horiz-adv-x="141" d="M0 -171 L61 -171 C62 -181 57 -213 3 -222 L3 -303 C118 -287 141 -223 141 -135 L141 -53 L0 -53 L0 -171 Z " />
<glyph glyph-name="Ndieresis" unicode="&#xf12c;" horiz-adv-x="730" d="M211 788 L338 788 L338 912 L211 912 L211 788 Z M416 788 L542 788 L542 912 L416 912 L416 788 Z M82 0 L209 0 L209 331 C209 445 206 520 206 520 C206 520 245 442 299 353 L510 0 L648 0 L648 712 L521 712 L521 411 C521 291 525 196 525 196 C525 196 478 284 427 370 L224 712 L82 712 L82 0 Z " />
<glyph glyph-name="ndieresis" unicode="&#xf12d;" horiz-adv-x="567" d="M111 586 L238 586 L238 710 L111 710 L111 586 Z M316 586 L442 586 L442 710 L316 710 L316 586 Z M70 0 L196 0 L196 297 C196 387 250 413 292 413 C357 413 374 370 374 297 L374 0 L500 0 L500 328 C500 457 445 515 340 515 C236 515 194 435 194 435 L191 504 L70 504 L70 0 Z " />
<glyph glyph-name="zeroone" unicode="&#xf150;" horiz-adv-x="1007" d="M33 493 C33 309 126 274 214 274 C302 274 395 315 395 493 C395 664 302 712 214 712 C126 712 33 665 33 493 L33 493 Z M142 493 C142 598 173 624 214 624 C254 624 286 592 286 493 C286 385 254 362 214 362 C173 362 142 385 142 493 L142 493 Z M879 0 L879 417 L791 417 C774 376 709 355 680 348 L680 250 C705 253 745 267 775 286 L775 0 L879 0 Z M218 -10 L332 -10 L782 699 L668 699 L218 -10 Z " />
<glyph glyph-name="oneone" unicode="&#xf151;" horiz-adv-x="1007" d="M301 285 L301 702 L213 702 C196 661 131 640 102 633 L102 535 C127 538 167 552 197 571 L197 285 L301 285 Z M879 0 L879 417 L791 417 C774 376 709 355 680 348 L680 250 C705 253 745 267 775 286 L775 0 L879 0 Z M218 -10 L332 -10 L782 699 L668 699 L218 -10 Z " />
<glyph glyph-name="Euro.fitted" unicode="&#xf176;" horiz-adv-x="746" d="M54 381 L133 381 C132 369 132 358 132 346 C132 333 132 321 133 309 L54 309 L54 235 L140 235 C166 82 252 -17 433 -17 C710 -17 712 249 712 249 L586 249 C586 249 585 91 434 91 C331 91 288 154 272 235 L491 235 L491 309 L263 309 C262 322 262 336 262 350 L262 381 L491 381 L491 455 L271 455 C294 567 357 603 434 603 C572 603 579 457 579 457 L705 457 C705 457 698 711 434 711 C273 711 171 617 141 455 L54 455 L54 381 Z " />
<glyph glyph-name="commaascender" unicode="&#xf206;" horiz-adv-x="141" d="M0 594 L61 594 C62 584 57 551 3 542 L3 462 C118 478 141 541 141 629 L141 712 L0 712 L0 594 Z " />
<glyph glyph-name="Germandbls" unicode="&#xf211;" horiz-adv-x="1195" d="M44 223 C44 101 117 -17 319 -17 C502 -17 559 86 559 202 C559 448 193 382 193 531 C193 592 229 622 294 622 C378 622 408 565 409 503 L538 503 C538 643 450 730 296 730 C146 730 65 648 65 522 C65 268 431 342 431 189 C431 118 392 91 320 91 C223 91 179 152 177 223 L44 223 Z M641 223 C641 101 714 -17 916 -17 C1099 -17 1156 86 1156 202 C1156 448 790 382 790 531 C790 592 826 622 891 622 C975 622 1005 565 1006 503 L1135 503 C1135 643 1047 730 893 730 C743 730 662 648 662 522 C662 268 1028 342 1028 189 C1028 118 989 91 917 91 C820 91 776 152 774 223 L641 223 Z " />
<glyph glyph-name="Commaascender" unicode="&#xf237;" horiz-adv-x="141" d="M0 594 L61 594 C62 584 57 551 3 542 L3 462 C118 478 141 541 141 629 L141 712 L0 712 L0 594 Z " />
<glyph glyph-name="zerozero" unicode="&#xf303;" horiz-adv-x="1007" d="M33 493 C33 309 126 274 214 274 C302 274 395 315 395 493 C395 664 302 712 214 712 C126 712 33 665 33 493 L33 493 Z M142 493 C142 598 173 624 214 624 C254 624 286 592 286 493 C286 385 254 362 214 362 C173 362 142 385 142 493 L142 493 Z M611 208 C611 24 704 -11 792 -11 C880 -11 973 30 973 208 C973 379 880 427 792 427 C704 427 611 380 611 208 L611 208 Z M720 208 C720 313 751 339 792 339 C832 339 864 307 864 208 C864 100 832 77 792 77 C751 77 720 100 720 208 L720 208 Z M218 -10 L332 -10 L782 699 L668 699 L218 -10 Z " />
<glyph glyph-name="cedillatog" unicode="&#xf30f;" horiz-adv-x="141" d="M140 704 L79 704 C78 714 83 746 137 755 L137 836 C22 820 -1 756 -1 668 L-1 586 L140 586 L140 704 Z " />
<glyph glyph-name="h.superior" unicode="&#xf637;" horiz-adv-x="392" d="M52 346 L155 346 L155 532 C155 574 177 588 200 588 C231 588 238 568 238 532 L238 346 L342 346 L342 550 C342 641 304 669 245 669 C184 669 156 623 155 620 L155 773 L52 773 L52 346 Z " />
<glyph glyph-name="zero.fitted" unicode="&#xf639;" horiz-adv-x="623" d="M46 349 C46 49 174 -17 311 -17 C447 -17 576 56 576 349 C576 628 447 712 311 712 C174 712 46 627 46 349 L46 349 Z M176 349 C176 551 236 604 311 604 C386 604 446 546 446 349 C446 138 386 90 311 90 C236 90 176 138 176 349 L176 349 Z " />
<glyph glyph-name="two.fitted" unicode="&#xf63a;" horiz-adv-x="568" d="M52 0 L529 0 L529 114 L205 114 C407 263 523 366 523 516 C523 638 447 712 305 712 C53 712 54 463 54 463 L174 463 C174 463 176 604 298 604 C377 604 393 552 393 510 C393 378 244 273 52 102 L52 0 Z " />
<glyph glyph-name="three.fitted" unicode="&#xf63b;" horiz-adv-x="574" d="M42 224 C42 209 32 -17 299 -17 C463 -17 545 67 545 200 C545 357 403 370 395 371 C406 373 521 400 521 534 C521 637 450 712 305 712 C84 712 68 523 67 493 L184 493 C186 509 191 604 297 604 C366 604 392 573 392 517 C392 440 342 412 252 412 L220 412 L220 314 L254 314 C357 314 415 289 415 203 C415 124 376 91 299 91 C166 91 161 208 161 224 L42 224 Z " />
<glyph glyph-name="four.fitted" unicode="&#xf63c;" horiz-adv-x="587" d="M39 147 L350 147 L350 0 L477 0 L477 147 L553 147 L553 248 L477 248 L477 696 L340 696 L39 238 L39 147 Z M151 248 L350 553 L350 248 L151 248 Z " />
<glyph glyph-name="five.fitted" unicode="&#xf63d;" horiz-adv-x="549" d="M39 191 C39 191 37 -17 273 -17 C457 -17 513 115 513 240 C513 354 456 462 310 462 C214 462 176 412 176 412 L205 593 L466 593 L466 696 L118 696 L58 306 L167 291 C167 291 192 359 278 359 C361 359 383 292 383 233 C383 159 362 90 270 90 C161 90 156 191 156 191 L39 191 Z " />
<glyph glyph-name="six.fitted" unicode="&#xf63e;" horiz-adv-x="588" d="M531 521 C530 556 498 712 322 712 C96 712 51 478 51 303 C51 131 108 -17 308 -17 C461 -17 550 84 550 230 C550 371 465 457 335 457 C221 457 177 381 177 381 C185 482 208 606 314 606 C403 606 410 521 410 521 L531 521 Z M306 89 C228 89 191 142 191 226 C191 315 245 352 306 352 C376 352 420 306 420 220 C420 138 384 89 306 89 L306 89 Z " />
<glyph glyph-name="seven.fitted" unicode="&#xf63f;" horiz-adv-x="503" d="M221 0 C271 317 485 597 485 597 L485 696 L23 696 L23 589 L362 589 C325 548 155 328 81 0 L221 0 Z " />
<glyph glyph-name="eight.fitted" unicode="&#xf640;" horiz-adv-x="584" d="M41 191 C41 33 166 -17 293 -17 C423 -17 546 40 546 191 C546 337 416 368 403 371 C413 374 517 408 517 526 C517 654 409 712 293 712 C177 712 70 654 70 526 C70 403 171 372 177 371 C168 369 41 334 41 191 L41 191 Z M171 199 C171 276 228 311 293 311 C358 311 416 276 416 199 C416 123 371 88 293 88 C220 88 171 125 171 199 L171 199 Z M200 521 C200 582 241 610 293 610 C345 610 387 582 387 521 C387 458 345 427 293 427 C241 427 200 458 200 521 L200 521 Z " />
<glyph glyph-name="nine.fitted" unicode="&#xf641;" horiz-adv-x="593" d="M59 172 C59 172 62 -17 290 -17 C518 -17 545 216 545 397 C545 565 481 712 290 712 C142 712 44 616 44 462 C44 321 130 238 263 238 C372 238 416 310 416 310 C414 202 402 86 289 86 C185 86 178 172 178 172 L59 172 Z M174 472 C174 563 221 607 289 607 C356 607 403 564 403 474 C403 376 346 340 286 340 C223 340 174 378 174 472 L174 472 Z " />
<glyph glyph-name="zero.numerator" unicode="&#xf655;" horiz-adv-x="428" d="M33 493 C33 309 126 274 214 274 C302 274 395 315 395 493 C395 664 302 712 214 712 C126 712 33 665 33 493 L33 493 Z M142 493 C142 598 173 624 214 624 C254 624 286 592 286 493 C286 385 254 362 214 362 C173 362 142 385 142 493 L142 493 Z " />
<glyph glyph-name="one.numerator" unicode="&#xf656;" horiz-adv-x="428" d="M301 285 L301 702 L213 702 C196 661 131 640 102 633 L102 535 C127 538 167 552 197 571 L197 285 L301 285 Z " />
<glyph glyph-name="two.numerator" unicode="&#xf657;" horiz-adv-x="428" d="M57 285 L374 285 L374 376 L183 376 C304 447 369 513 369 592 C369 673 311 713 223 713 C55 713 53 556 53 556 L152 556 C152 556 154 626 214 626 C253 626 261 603 261 583 C261 519 191 472 57 365 L57 285 Z " />
<glyph glyph-name="three.numerator" unicode="&#xf658;" horiz-adv-x="428" d="M48 425 C48 351 87 274 218 274 C338 274 386 329 386 408 C386 497 299 505 291 506 C302 508 373 525 373 603 C373 661 331 712 228 712 C112 712 63 640 63 575 L158 575 C161 599 173 628 217 628 C251 628 265 612 265 587 C265 553 247 535 187 535 L163 535 L163 463 L191 463 C253 463 277 449 277 411 C277 377 259 358 217 358 C151 358 146 410 146 425 L48 425 Z " />
<glyph glyph-name="four.numerator" unicode="&#xf659;" horiz-adv-x="428" d="M44 371 L233 371 L233 285 L338 285 L338 371 L384 371 L384 450 L338 450 L338 702 L227 702 L44 441 L44 371 Z M127 450 L233 602 L233 450 L127 450 Z " />
<glyph glyph-name="five.numerator" unicode="&#xf65a;" horiz-adv-x="428" d="M59 404 C59 378 69 274 212 274 C335 274 369 355 369 431 C369 499 337 561 245 561 C185 561 161 536 161 536 L176 621 L340 621 L340 702 L107 702 L69 465 L153 454 C153 454 166 488 208 488 C248 488 260 458 260 429 C260 394 249 358 205 358 C162 358 152 394 150 404 L59 404 Z " />
<glyph glyph-name="six.numerator" unicode="&#xf65b;" horiz-adv-x="428" d="M369 594 C367 615 350 712 229 712 C77 712 46 572 46 465 C46 352 91 274 220 274 C319 274 381 328 381 427 C381 517 328 562 245 562 C182 562 151 529 151 529 C155 576 168 632 221 632 C265 632 270 594 270 594 L369 594 Z M217 353 C183 353 161 374 161 420 C161 467 187 483 217 483 C250 483 274 465 274 418 C274 373 252 353 217 353 L217 353 Z " />
<glyph glyph-name="seven.numerator" unicode="&#xf65c;" horiz-adv-x="428" d="M208 285 C227 437 365 628 365 628 L365 702 L63 702 L63 617 L265 617 C224 570 127 434 95 285 L208 285 Z " />
<glyph glyph-name="eight.numerator" unicode="&#xf65d;" horiz-adv-x="428" d="M46 400 C46 304 128 275 213 275 C301 275 381 306 381 400 C381 488 298 506 293 507 C300 509 364 531 364 599 C364 680 292 712 213 712 C133 712 62 680 62 599 C62 527 126 508 129 507 C122 505 46 482 46 400 L46 400 Z M151 408 C151 447 179 463 213 463 C248 463 277 447 277 408 C277 369 251 353 213 353 C177 353 151 370 151 408 L151 408 Z M165 593 C165 625 187 638 213 638 C240 638 263 625 263 593 C263 560 240 546 213 546 C187 546 165 560 165 593 L165 593 Z " />
<glyph glyph-name="nine.numerator" unicode="&#xf65e;" horiz-adv-x="428" d="M57 395 C57 395 56 274 213 274 C363 274 384 411 384 521 C384 643 327 712 209 712 C110 712 45 658 45 561 C45 472 103 426 187 426 C248 426 277 460 277 460 C277 401 270 353 213 353 C156 353 153 395 153 395 L57 395 Z M154 568 C154 615 177 634 210 634 C243 634 267 615 267 569 C267 520 239 503 209 503 C178 503 154 520 154 568 L154 568 Z " />
<glyph glyph-name="zero.denominator" unicode="&#xf661;" horiz-adv-x="428" d="M33 208 C33 24 126 -11 214 -11 C302 -11 395 30 395 208 C395 379 302 427 214 427 C126 427 33 380 33 208 L33 208 Z M142 208 C142 313 173 339 214 339 C254 339 286 307 286 208 C286 100 254 77 214 77 C173 77 142 100 142 208 L142 208 Z " />
<glyph glyph-name="one.denominator" unicode="&#xf662;" horiz-adv-x="428" d="M301 0 L301 417 L213 417 C196 376 131 355 102 348 L102 250 C127 253 167 267 197 286 L197 0 L301 0 Z " />
<glyph glyph-name="two.denominator" unicode="&#xf663;" horiz-adv-x="428" d="M57 0 L374 0 L374 91 L183 91 C304 162 369 228 369 307 C369 388 311 428 223 428 C55 428 53 271 53 271 L152 271 C152 271 154 341 214 341 C253 341 261 318 261 298 C261 234 191 187 57 80 L57 0 Z " />
<glyph glyph-name="three.denominator" unicode="&#xf664;" horiz-adv-x="428" d="M48 140 C48 66 87 -11 218 -11 C338 -11 386 44 386 123 C386 212 299 220 291 221 C302 223 373 240 373 318 C373 376 331 427 228 427 C112 427 63 355 63 290 L158 290 C161 314 173 343 217 343 C251 343 265 327 265 302 C265 268 247 250 187 250 L163 250 L163 178 L191 178 C253 178 277 164 277 126 C277 92 259 73 217 73 C151 73 146 125 146 140 L48 140 Z " />
<glyph glyph-name="four.denominator" unicode="&#xf665;" horiz-adv-x="428" d="M44 86 L233 86 L233 0 L338 0 L338 86 L384 86 L384 165 L338 165 L338 417 L227 417 L44 156 L44 86 Z M127 165 L233 317 L233 165 L127 165 Z " />
<glyph glyph-name="five.denominator" unicode="&#xf666;" horiz-adv-x="428" d="M59 119 C59 93 69 -11 212 -11 C335 -11 369 70 369 146 C369 214 337 276 245 276 C185 276 161 251 161 251 L176 336 L340 336 L340 417 L107 417 L69 180 L153 169 C153 169 166 203 208 203 C248 203 260 173 260 144 C260 109 249 73 205 73 C162 73 152 109 150 119 L59 119 Z " />
<glyph glyph-name="six.denominator" unicode="&#xf667;" horiz-adv-x="428" d="M369 309 C367 330 350 427 229 427 C77 427 46 287 46 180 C46 67 91 -11 220 -11 C319 -11 381 43 381 142 C381 232 328 277 245 277 C182 277 151 244 151 244 C155 291 168 347 221 347 C265 347 270 309 270 309 L369 309 Z M217 68 C183 68 161 89 161 135 C161 182 187 198 217 198 C250 198 274 180 274 133 C274 88 252 68 217 68 L217 68 Z " />
<glyph glyph-name="seven.denominator" unicode="&#xf668;" horiz-adv-x="428" d="M208 0 C227 152 365 343 365 343 L365 417 L63 417 L63 332 L265 332 C224 285 127 149 95 0 L208 0 Z " />
<glyph glyph-name="eight.denominator" unicode="&#xf669;" horiz-adv-x="428" d="M46 115 C46 19 128 -10 213 -10 C301 -10 381 21 381 115 C381 203 298 221 293 222 C300 224 364 246 364 314 C364 395 292 427 213 427 C133 427 62 395 62 314 C62 242 126 223 129 222 C122 220 46 197 46 115 L46 115 Z M151 123 C151 162 179 178 213 178 C248 178 277 162 277 123 C277 84 251 68 213 68 C177 68 151 85 151 123 L151 123 Z M165 308 C165 340 187 353 213 353 C240 353 263 340 263 308 C263 275 240 261 213 261 C187 261 165 275 165 308 L165 308 Z " />
<glyph glyph-name="nine.denominator" unicode="&#xf66a;" horiz-adv-x="428" d="M57 110 C57 110 56 -11 213 -11 C363 -11 384 126 384 236 C384 358 327 427 209 427 C110 427 45 373 45 276 C45 187 103 141 187 141 C248 141 277 175 277 175 C277 116 270 68 213 68 C156 68 153 110 153 110 L57 110 Z M154 283 C154 330 177 349 210 349 C243 349 267 330 267 284 C267 235 239 218 209 218 C178 218 154 235 154 283 L154 283 Z " />
<glyph glyph-name="commaaccent" unicode="&#xf6c3;" horiz-adv-x="141" d="M0 -171 L61 -171 C62 -181 57 -213 3 -222 L3 -303 C118 -287 141 -223 141 -135 L141 -53 L0 -53 L0 -171 Z " />
<glyph glyph-name="Acute" unicode="&#xf6c9;" horiz-adv-x="242" d="M117 916 L40 777 L161 777 L282 916 L117 916 Z " />
<glyph glyph-name="Caron" unicode="&#xf6ca;" horiz-adv-x="352" d="M258 776 L352 914 L222 914 L178 831 L132 914 L0 914 L94 776 L258 776 Z " />
<glyph glyph-name="Dieresis" unicode="&#xf6cb;" horiz-adv-x="331" d="M0 788 L127 788 L127 912 L0 912 L0 788 Z M205 788 L331 788 L331 912 L205 912 L205 788 Z " />
<glyph glyph-name="Grave" unicode="&#xf6ce;" horiz-adv-x="242" d="M0 916 L121 777 L241 777 L165 916 L0 916 Z " />
<glyph glyph-name="Hungarumlaut" unicode="&#xf6cf;" horiz-adv-x="482" d="M77 916 L0 777 L107 777 L229 916 L77 916 Z M270 916 L193 777 L300 777 L422 916 L270 916 Z " />
<glyph glyph-name="Macron" unicode="&#xf6d0;" horiz-adv-x="295" d="M0 799 L295 799 L295 893 L0 893 L0 799 Z " />
<glyph glyph-name="one.fitted" unicode="&#xf6dc;" horiz-adv-x="416" d="M332 0 L332 696 L223 696 C198 645 95 594 48 579 L48 456 C102 472 174 513 207 542 L207 0 L332 0 Z " />
<glyph glyph-name="b.superior" unicode="&#xf6ea;" horiz-adv-x="400" d="M52 346 L153 346 L155 381 C157 377 180 339 241 339 C337 339 368 412 368 505 C368 598 339 668 251 668 C184 668 156 628 155 626 L155 773 L52 773 L52 346 Z M155 503 C155 549 166 590 212 590 C244 590 264 567 264 504 C264 449 249 414 212 414 C161 414 155 465 155 503 L155 503 Z " />
<glyph glyph-name="d.superior" unicode="&#xf6eb;" horiz-adv-x="400" d="M350 773 L245 773 L245 626 C243 630 221 668 160 668 C71 668 33 591 33 502 C33 412 61 339 154 339 C219 339 246 383 246 383 L248 346 L350 346 L350 773 Z M246 504 C246 466 240 415 191 415 C154 415 137 444 137 503 C137 570 161 591 192 591 C236 591 246 550 246 504 L246 504 Z " />
<glyph glyph-name="e.superior" unicode="&#xf6ec;" horiz-adv-x="372" d="M336 472 C348 581 306 668 188 668 C83 668 33 597 33 499 C33 383 93 335 192 335 C323 335 335 434 335 442 L242 442 C241 437 234 410 193 410 C144 410 136 444 136 472 L336 472 Z M137 534 C139 569 151 595 188 595 C227 595 239 567 240 534 L137 534 Z " />
<glyph glyph-name="i.superior" unicode="&#xf6ed;" horiz-adv-x="207" d="M51 697 L159 697 L159 789 L51 789 L51 697 Z M52 346 L155 346 L155 657 L52 657 L52 346 Z " />
<glyph glyph-name="l.superior" unicode="&#xf6ee;" horiz-adv-x="207" d="M52 346 L155 346 L155 773 L52 773 L52 346 Z " />
<glyph glyph-name="m.superior" unicode="&#xf6ef;" horiz-adv-x="578" d="M52 346 L155 346 L155 527 C155 569 176 583 199 583 C229 583 238 564 238 527 L238 346 L343 346 L343 531 C343 570 364 583 385 583 C417 583 424 564 424 527 L424 346 L529 346 L529 546 C529 636 490 665 427 665 C362 665 330 610 329 607 C328 611 313 665 244 665 C181 665 153 616 153 616 L152 657 L52 657 L52 346 Z " />
<glyph glyph-name="r.superior" unicode="&#xf6f1;" horiz-adv-x="268" d="M52 346 L156 346 L156 515 C156 563 191 574 234 574 C241 574 248 573 248 573 L248 663 C248 663 243 665 232 665 C215 665 176 657 153 608 L149 657 L52 657 L52 346 Z " />
<glyph glyph-name="s.superior" unicode="&#xf6f2;" horiz-adv-x="317" d="M31 445 C31 414 43 335 167 335 C239 335 286 367 286 439 C286 552 129 523 129 575 C129 590 138 599 158 599 C187 599 192 577 193 563 L281 563 C281 587 271 667 157 668 C90 668 36 638 36 568 C36 452 196 485 196 430 C196 411 185 403 166 403 C129 403 120 426 120 445 L31 445 Z " />
<glyph glyph-name="t.superior" unicode="&#xf6f3;" horiz-adv-x="266" d="M68 460 C68 390 75 338 167 338 C194 338 234 347 234 347 L234 415 L209 415 C177 415 172 421 172 456 L172 589 L236 589 L236 657 L172 657 L172 747 L68 723 L68 657 L16 657 L16 589 L68 589 L68 460 Z " />
<glyph glyph-name="fi" unicode="&#xfb01;" horiz-adv-x="613" d="M412 598 L549 598 L549 726 L412 726 L412 598 Z M417 0 L543 0 L543 504 L417 504 L417 0 Z M95 0 L221 0 L221 416 L329 416 L329 504 L221 504 L221 563 C221 604 227 626 285 626 C304 626 340 625 340 625 L340 716 C340 716 293 723 248 723 C134 723 95 675 95 555 L95 504 L21 504 L21 416 L95 416 L95 0 Z " />
<glyph glyph-name="fl" unicode="&#xfb02;" horiz-adv-x="613" d="M417 0 L543 0 L543 712 L417 712 L417 0 Z M95 0 L221 0 L221 416 L329 416 L329 504 L221 504 L221 563 C221 604 227 626 285 626 C304 626 340 625 340 625 L340 716 C340 716 293 723 248 723 C134 723 95 675 95 555 L95 504 L21 504 L21 416 L95 416 L95 0 Z " />
</font>
</svg>
