<?xml version="1.0" encoding="UTF-8"?>
<svg xmlns="http://www.w3.org/2000/svg" xmlns:xlink="http://www.w3.org/1999/xlink" version="1.2" >
<font id="Flaco Mono Regular">
<font-face  font-family="Flaco Mono" units-per-em="1000" ascent="780" descent="-220" font-style="normal" font-weight="400" font-stretch="normal" cap-height="712" x-height="488" underline-position="-75" underline-thickness="50" />
<missing-glyph  horiz-adv-x="585" d="M94 0 L490 0 L490 712 L94 712 L94 0 Z M170 649 L414 649 L414 63 L170 63 L170 649 Z " />
<glyph glyph-name="NULL" d="" />
<glyph glyph-name="CR" unicode="&#xd;" horiz-adv-x="250" d="" />
<glyph glyph-name="space" unicode="&#x20;" horiz-adv-x="585" d="" />
<glyph glyph-name="exclam" unicode="&#x21;" horiz-adv-x="585" d="M331 228 C331 228 341 403 341 552 L341 711 L244 711 L244 552 C244 403 254 228 254 228 L331 228 Z M232 0 L353 0 L353 105 L232 105 L232 0 Z " />
<glyph glyph-name="quotedbl" unicode="&#x22;" horiz-adv-x="585" d="M255 712 L174 712 L174 627 C174 557 189 490 189 490 L243 490 C243 490 255 557 255 627 L255 712 Z M410 712 L329 712 L329 627 C329 557 344 490 344 490 L399 490 C399 490 410 557 410 627 L410 712 Z " />
<glyph glyph-name="numbersign" unicode="&#x23;" horiz-adv-x="585" d="M282 0 L356 0 L394 203 L503 203 L503 265 L406 265 L436 426 L539 426 L539 488 L448 488 L485 682 L412 682 L375 488 L272 488 L309 682 L236 682 L199 488 L82 488 L82 426 L187 426 L156 265 L46 265 L46 203 L144 203 L106 0 L180 0 L218 203 L320 203 L282 0 Z M260 426 L363 426 L332 265 L230 265 L260 426 Z " />
<glyph glyph-name="dollar" unicode="&#x24;" horiz-adv-x="585" d="M63 220 C63 101 121 1 269 -14 L269 -168 L327 -168 L327 -16 C454 -11 525 58 525 179 C525 305 422 345 327 383 L327 640 C395 624 419 565 424 497 L502 497 C500 599 450 694 327 710 L327 839 L269 839 L269 712 C149 705 86 632 86 529 C86 405 178 364 269 329 L269 55 C187 69 142 127 138 220 L63 220 Z M444 177 C444 98 408 57 327 52 L327 306 C391 279 444 247 444 177 L444 177 Z M167 531 C167 599 201 638 269 644 L269 408 C212 435 167 468 167 531 L167 531 Z " />
<glyph glyph-name="percent" unicode="&#x25;" horiz-adv-x="585" d="M146 407 C108 407 94 440 94 537 C94 627 110 656 146 656 C181 656 197 627 197 537 C197 440 183 407 146 407 L146 407 Z M72 -17 L450 712 L512 712 L135 -17 L72 -17 Z M27 536 C27 388 82 350 146 350 C204 350 266 386 266 536 C266 676 202 713 146 713 C89 713 27 674 27 536 L27 536 Z M440 39 C402 39 388 72 388 169 C388 259 404 288 440 288 C475 288 491 259 491 169 C491 72 477 39 440 39 L440 39 Z M321 168 C321 20 376 -18 440 -18 C498 -18 560 18 560 168 C560 308 496 345 440 345 C383 345 321 306 321 168 L321 168 Z " />
<glyph glyph-name="ampersand" unicode="&#x26;" horiz-adv-x="585" d="M450 132 C470 186 478 254 476 336 L538 336 L538 399 L404 399 C407 326 410 254 399 195 L261 363 C342 419 380 475 380 562 C380 674 315 712 233 712 C132 712 83 641 83 552 C83 474 112 420 156 371 C74 317 27 252 27 164 C27 45 102 -17 223 -17 C307 -17 369 9 411 61 L462 0 L559 0 L450 132 Z M110 169 C110 227 137 277 197 321 L369 113 C343 74 300 51 230 51 C153 51 110 91 110 169 L110 169 Z M302 560 C302 499 284 456 220 412 L220 413 C178 458 161 501 161 554 C161 603 175 647 233 647 C287 647 302 609 302 560 L302 560 Z " />
<glyph glyph-name="quotesingle" unicode="&#x27;" horiz-adv-x="585" d="M333 712 L252 712 L252 627 C252 557 267 490 267 490 L321 490 C321 490 333 557 333 627 L333 712 Z " />
<glyph glyph-name="parenleft" unicode="&#x28;" horiz-adv-x="585" d="M382 -133 C382 -133 284 72 284 308 C284 558 381 745 381 745 L309 745 C309 745 202 557 202 308 C202 71 307 -133 307 -133 L382 -133 Z " />
<glyph glyph-name="parenright" unicode="&#x29;" horiz-adv-x="585" d="M277 -133 C277 -133 382 71 382 308 C382 557 275 745 275 745 L203 745 C203 745 300 558 300 308 C300 72 202 -133 202 -133 L277 -133 Z " />
<glyph glyph-name="asterisk" unicode="&#x2a;" horiz-adv-x="585" d="M447 647 L426 706 L318 664 L325 781 L260 781 L268 664 L160 706 L138 646 L254 619 L179 527 L228 489 L292 591 L353 493 L404 529 L332 619 L447 647 Z " />
<glyph glyph-name="plus" unicode="&#x2b;" horiz-adv-x="585" d="M77 220 L255 220 L255 47 L329 47 L329 220 L507 220 L507 287 L329 287 L329 456 L255 456 L255 287 L77 287 L77 220 Z " />
<glyph glyph-name="comma" unicode="&#x2c;" horiz-adv-x="585" d="M228 0 L289 0 C290 -36 274 -57 231 -72 L231 -144 C322 -129 357 -69 357 27 L357 114 L228 114 L228 0 Z " />
<glyph glyph-name="hyphen" unicode="&#x2d;" horiz-adv-x="585" d="M147 214 L437 214 L437 281 L147 281 L147 214 Z " />
<glyph glyph-name="period" unicode="&#x2e;" horiz-adv-x="585" d="M228 0 L357 0 L357 114 L228 114 L228 0 Z " />
<glyph glyph-name="slash" unicode="&#x2f;" horiz-adv-x="585" d="M111 -131 L187 -131 L473 745 L398 745 L111 -131 Z " />
<glyph glyph-name="zero" unicode="0" horiz-adv-x="585" d="M53 351 C53 58 160 -17 292 -17 C424 -17 531 64 531 351 C531 625 424 712 292 712 C160 712 53 621 53 351 L53 351 Z M133 351 C133 583 204 647 292 647 C380 647 451 583 451 351 C451 106 380 48 292 48 C204 48 133 106 133 351 L133 351 Z " />
<glyph glyph-name="one" unicode="1" horiz-adv-x="585" d="M87 0 L520 0 L520 67 L347 67 L347 698 L276 698 C252 665 149 596 100 577 L100 499 C141 513 253 576 270 602 L270 67 L87 67 L87 0 Z " />
<glyph glyph-name="two" unicode="2" horiz-adv-x="585" d="M69 0 L516 0 L516 74 L170 74 C384 258 515 351 515 522 C515 642 442 712 314 712 C83 712 84 475 84 475 L161 475 C161 475 164 643 311 643 C410 643 434 576 434 522 C434 347 241 231 69 66 L69 0 Z " />
<glyph glyph-name="three" unicode="3" horiz-adv-x="585" d="M61 214 C61 169 69 -17 301 -17 C439 -17 524 62 524 195 C524 359 376 372 367 373 C379 375 497 396 497 542 C497 653 420 712 304 712 C141 712 89 594 87 503 L163 503 C168 553 186 644 301 644 C373 644 416 606 416 537 C416 446 358 407 273 407 L233 407 L233 333 L273 333 C376 333 442 300 442 191 C442 100 395 51 301 51 C154 51 137 167 137 214 L61 214 Z " />
<glyph glyph-name="four" unicode="4" horiz-adv-x="585" d="M51 150 L376 150 L376 0 L454 0 L454 150 L533 150 L533 219 L454 219 L454 698 L364 698 L51 215 L51 150 Z M132 219 L376 601 L376 219 L132 219 Z " />
<glyph glyph-name="five" unicode="5" horiz-adv-x="585" d="M65 183 C65 183 69 -17 293 -17 C465 -17 519 113 519 237 C519 351 461 458 321 458 C215 458 169 396 169 396 L207 630 L480 630 L480 698 L149 698 L89 312 L167 301 C167 301 199 393 309 393 C412 393 438 306 438 237 C438 141 409 51 293 51 C145 51 142 183 142 183 L65 183 Z " />
<glyph glyph-name="six" unicode="6" horiz-adv-x="585" d="M504 543 C487 647 422 712 311 712 C101 712 62 478 62 307 C62 152 103 -17 297 -17 C444 -17 522 98 522 222 C522 346 438 449 308 449 C178 449 138 353 138 353 C144 479 174 646 308 646 C415 646 425 543 425 543 L504 543 Z M297 49 C207 49 150 116 150 220 C150 340 226 384 297 384 C381 384 441 329 441 218 C441 115 391 49 297 49 L297 49 Z " />
<glyph glyph-name="seven" unicode="7" horiz-adv-x="585" d="M230 0 C303 387 513 625 513 625 L513 698 L72 698 L72 625 L430 625 C430 625 241 415 138 0 L230 0 Z " />
<glyph glyph-name="eight" unicode="8" horiz-adv-x="585" d="M55 189 C55 35 171 -17 292 -17 C417 -17 530 46 530 189 C530 335 395 368 382 371 C392 374 496 406 496 530 C496 648 406 712 292 712 C183 712 90 648 90 530 C90 403 191 372 196 371 C183 368 55 332 55 189 L55 189 Z M136 192 C136 287 205 335 292 335 C379 335 449 287 449 192 C449 99 395 50 292 50 C195 50 136 101 136 192 L136 192 Z M171 530 C171 610 225 647 292 647 C359 647 415 610 415 530 C415 445 359 406 292 406 C225 406 171 444 171 530 L171 530 Z " />
<glyph glyph-name="nine" unicode="9" horiz-adv-x="585" d="M76 154 C76 154 84 -16 286 -16 C502 -16 522 224 522 401 C522 558 469 712 287 712 C152 712 63 606 63 464 C63 331 141 240 274 240 C404 240 443 330 443 330 C438 212 426 50 286 50 C164 50 155 154 155 154 L76 154 Z M144 467 C144 574 195 646 291 646 C382 646 435 574 435 472 C435 354 354 305 283 305 C202 305 144 366 144 467 L144 467 Z " />
<glyph glyph-name="colon" unicode="&#x3a;" horiz-adv-x="585" d="M228 0 L357 0 L357 114 L228 114 L228 0 Z M228 356 L357 356 L357 470 L228 470 L228 356 Z " />
<glyph glyph-name="semicolon" unicode="&#x3b;" horiz-adv-x="585" d="M228 355 L357 355 L357 469 L228 469 L228 355 Z M228 0 L289 0 C290 -36 274 -57 231 -72 L231 -144 C322 -129 357 -69 357 27 L357 114 L228 114 L228 0 Z " />
<glyph glyph-name="less" unicode="&#x3c;" horiz-adv-x="585" d="M77 294 L77 215 L507 33 L507 108 L148 255 L507 403 L507 476 L77 294 Z " />
<glyph glyph-name="equal" unicode="&#x3d;" horiz-adv-x="585" d="M77 301 L507 301 L507 368 L77 368 L77 301 Z M77 134 L507 134 L507 201 L77 201 L77 134 Z " />
<glyph glyph-name="greater" unicode="&#x3e;" horiz-adv-x="585" d="M77 476 L77 401 L436 254 L77 107 L77 33 L507 215 L507 294 L77 476 Z " />
<glyph glyph-name="question" unicode="&#x3f;" horiz-adv-x="585" d="M239 228 L317 228 L317 312 C317 410 494 410 494 573 C494 680 416 730 306 730 C93 730 91 537 91 537 L168 537 C168 537 172 661 305 661 C373 661 414 630 414 573 C414 446 239 445 239 312 L239 228 Z M223 0 L332 0 L332 105 L223 105 L223 0 Z " />
<glyph glyph-name="at" unicode="&#x40;" horiz-adv-x="585" d="M437 472 L372 472 L365 428 C355 464 320 482 284 482 C195 482 139 380 139 192 C139 65 178 3 253 3 C312 3 336 52 337 54 L337 11 L384 11 C561 11 573 191 573 338 C573 539 476 650 323 650 C137 650 13 482 13 195 C13 -90 142 -164 280 -164 C360 -164 410 -136 410 -136 L399 -80 C399 -80 362 -102 279 -102 C176 -102 88 -41 88 201 C88 425 162 587 324 587 C448 587 498 487 498 336 C498 206 488 67 397 72 L437 472 Z M213 185 C213 254 215 419 291 419 C346 419 352 352 352 311 C352 239 350 66 268 66 C214 66 213 138 213 185 L213 185 Z " />
<glyph glyph-name="A" unicode="A" horiz-adv-x="585" d="M466 0 L557 0 L331 712 L252 712 L28 0 L113 0 L167 184 L411 184 L466 0 Z M289 597 L391 252 L187 252 L289 597 Z " />
<glyph glyph-name="B" unicode="B" horiz-adv-x="585" d="M75 0 L290 0 C425 0 520 51 520 201 C520 353 393 370 387 371 C396 374 490 406 490 537 C490 694 374 712 243 712 L75 712 L75 0 Z M155 69 L155 329 L296 329 C393 329 437 291 437 205 C437 106 391 69 296 69 L155 69 Z M155 398 L155 643 L236 643 C332 643 407 636 407 530 C407 448 374 398 275 398 L155 398 Z " />
<glyph glyph-name="C" unicode="C" horiz-adv-x="585" d="M460 245 C453 177 449 52 302 52 C130 52 123 225 123 356 C123 509 142 661 299 661 C447 661 452 516 454 481 L535 481 C535 538 513 730 301 730 C84 730 40 540 40 357 C40 127 92 -17 300 -17 C505 -17 540 148 541 245 L460 245 Z " />
<glyph glyph-name="D" unicode="D" horiz-adv-x="585" d="M68 0 L202 0 C462 0 546 130 546 370 C546 596 469 712 202 712 L68 712 L68 0 Z M148 69 L148 642 L209 642 C413 642 463 560 463 368 C463 142 387 69 204 69 L148 69 Z " />
<glyph glyph-name="E" unicode="E" horiz-adv-x="585" d="M79 0 L506 0 L506 69 L159 69 L159 332 L467 332 L467 401 L159 401 L159 643 L503 643 L503 712 L79 712 L79 0 Z " />
<glyph glyph-name="F" unicode="F" horiz-adv-x="585" d="M81 0 L161 0 L161 326 L469 326 L469 395 L161 395 L161 643 L504 643 L504 712 L81 712 L81 0 Z " />
<glyph glyph-name="G" unicode="G" horiz-adv-x="585" d="M465 0 L535 0 L535 376 L279 376 L279 305 L456 305 L456 300 C456 171 436 59 298 59 C135 59 122 210 122 356 C122 514 145 660 304 660 C445 660 449 521 449 521 L530 521 C530 521 526 729 305 729 C88 729 40 546 40 356 C40 79 136 -10 293 -10 C428 -10 462 81 462 81 L465 0 Z " />
<glyph glyph-name="H" unicode="H" horiz-adv-x="585" d="M68 0 L148 0 L148 331 L436 331 L436 0 L516 0 L516 712 L436 712 L436 400 L148 400 L148 712 L68 712 L68 0 Z " />
<glyph glyph-name="I" unicode="I" horiz-adv-x="585" d="M332 643 L482 643 L482 712 L332 712 L102 712 L102 643 L252 643 L252 69 L102 69 L102 0 L482 0 L482 69 L332 69 L332 643 Z " />
<glyph glyph-name="J" unicode="J" horiz-adv-x="585" d="M71 224 C64 86 108 -17 275 -17 C450 -17 480 94 480 223 L480 712 L400 712 L400 238 C400 122 385 51 276 51 C149 51 146 150 146 224 L71 224 Z " />
<glyph glyph-name="K" unicode="K" horiz-adv-x="585" d="M524 712 L433 712 L148 350 L148 712 L68 712 L68 0 L148 0 L148 238 L240 355 L458 0 L554 0 L291 418 L524 712 Z " />
<glyph glyph-name="L" unicode="L" horiz-adv-x="585" d="M102 0 L512 0 L512 69 L182 69 L182 712 L102 712 L102 0 Z " />
<glyph glyph-name="M" unicode="M" horiz-adv-x="585" d="M59 0 L139 0 L139 567 L266 208 L314 208 L446 567 L446 0 L526 0 L526 712 L427 712 L292 349 L164 712 L59 712 L59 0 Z " />
<glyph glyph-name="N" unicode="N" horiz-adv-x="585" d="M67 0 L147 0 L147 567 L432 0 L518 0 L518 712 L438 712 L438 161 L157 712 L67 712 L67 0 Z " />
<glyph glyph-name="O" unicode="O" horiz-adv-x="585" d="M40 356 C40 52 159 -17 293 -17 C427 -17 546 56 546 356 C546 639 432 729 293 729 C159 729 40 641 40 356 L40 356 Z M123 356 C123 588 187 660 293 660 C398 660 463 588 463 356 C463 113 399 52 293 52 C192 52 123 113 123 356 L123 356 Z " />
<glyph glyph-name="P" unicode="P" horiz-adv-x="585" d="M68 0 L148 0 L148 297 L271 297 C423 297 527 356 527 516 C527 681 408 712 281 712 L68 712 L68 0 Z M148 366 L148 643 L281 643 C394 643 445 612 445 510 C445 389 370 366 267 366 L148 366 Z " />
<glyph glyph-name="Q" unicode="Q" horiz-adv-x="585" d="M40 356 C40 52 159 -17 293 -17 C329 -17 365 -11 397 2 L468 -95 L531 -49 L461 48 C512 102 546 197 546 356 C546 639 432 729 293 729 C159 729 40 641 40 356 L40 356 Z M281 164 L355 61 C336 55 315 52 293 52 C192 52 123 113 123 356 C123 588 187 660 293 660 C398 660 463 588 463 356 C463 232 447 156 416 110 L345 210 L281 164 Z " />
<glyph glyph-name="R" unicode="R" horiz-adv-x="585" d="M81 0 L161 0 L161 307 L273 307 L428 0 L522 0 L355 315 C450 338 504 396 504 522 C504 678 401 712 275 712 L81 712 L81 0 Z M161 376 L161 643 L272 643 C352 643 421 634 421 519 C421 398 358 376 271 376 L161 376 Z " />
<glyph glyph-name="S" unicode="S" horiz-adv-x="585" d="M58 225 C58 93 129 -17 312 -17 C452 -17 531 54 531 183 C531 425 166 359 165 543 C165 619 206 660 288 660 C389 660 422 590 427 509 L507 509 C505 623 444 730 289 730 C153 730 82 653 82 541 C82 293 448 368 448 181 C448 95 407 53 312 53 C200 53 140 115 135 225 L58 225 Z " />
<glyph glyph-name="T" unicode="T" horiz-adv-x="585" d="M252 0 L331 0 L331 643 L544 643 L544 712 L40 712 L40 643 L252 643 L252 0 Z " />
<glyph glyph-name="U" unicode="U" horiz-adv-x="585" d="M64 246 C64 63 127 -16 292 -16 C450 -16 524 63 524 246 L524 712 L445 712 L445 246 C445 88 381 53 292 53 C203 53 144 94 144 252 L144 712 L64 712 L64 246 Z " />
<glyph glyph-name="V" unicode="V" horiz-adv-x="585" d="M332 0 L560 712 L481 712 L291 100 L112 712 L26 712 L244 0 L332 0 Z " />
<glyph glyph-name="W" unicode="W" horiz-adv-x="585" d="M172 0 L294 427 L406 0 L500 0 L568 712 L490 712 L444 150 L347 512 L246 512 L141 150 L99 712 L17 712 L79 0 L172 0 Z " />
<glyph glyph-name="X" unicode="X" horiz-adv-x="585" d="M441 712 L294 454 L148 712 L55 712 L252 379 L26 0 L114 0 L290 308 L465 0 L559 0 L332 384 L528 712 L441 712 Z " />
<glyph glyph-name="Y" unicode="Y" horiz-adv-x="585" d="M249 0 L329 0 L329 294 L548 712 L461 712 L292 373 L129 712 L37 712 L249 294 L249 0 Z " />
<glyph glyph-name="Z" unicode="Z" horiz-adv-x="585" d="M53 0 L520 0 L520 69 L141 69 L531 643 L531 712 L86 712 L86 642 L442 642 L53 67 L53 0 Z " />
<glyph glyph-name="bracketleft" unicode="&#x5b;" horiz-adv-x="585" d="M196 -131 L399 -131 L399 -71 L277 -71 L277 682 L399 682 L399 745 L196 745 L196 -131 Z " />
<glyph glyph-name="backslash" unicode="&#x5c;" horiz-adv-x="585" d="M187 745 L110 745 L398 -131 L474 -131 L187 745 Z " />
<glyph glyph-name="bracketright" unicode="&#x5d;" horiz-adv-x="585" d="M389 745 L186 745 L186 682 L308 682 L308 -71 L186 -71 L186 -131 L389 -131 L389 745 Z " />
<glyph glyph-name="asciicircum" unicode="&#x5e;" horiz-adv-x="585" d="M251 712 L90 475 L176 475 L291 655 L403 475 L494 475 L336 712 L251 712 Z " />
<glyph glyph-name="underscore" unicode="&#x5f;" horiz-adv-x="585" d="M65 -202 L520 -202 L520 -142 L65 -142 L65 -202 Z " />
<glyph glyph-name="grave" unicode="&#x60;" horiz-adv-x="585" d="M198 688 L300 571 L386 571 L321 688 L198 688 Z " />
<glyph glyph-name="a" unicode="a" horiz-adv-x="585" d="M385 294 C385 294 332 298 283 298 C131 298 67 242 67 144 C67 37 134 -10 235 -10 C302 -10 368 18 396 73 L397 66 C401 35 419 -5 478 -5 C499 -5 517 0 517 0 L517 60 L493 60 C467 60 461 81 461 116 L461 339 C461 447 408 505 282 505 C104 505 93 353 93 353 L169 353 C169 353 172 442 280 442 C356 442 385 410 385 336 L385 294 Z M385 194 C385 109 337 55 253 55 C184 55 145 82 145 148 C145 210 181 242 295 242 C342 242 385 239 385 239 L385 194 Z " />
<glyph glyph-name="b" unicode="b" horiz-adv-x="585" d="M70 0 L145 0 L148 76 C151 68 186 -10 309 -10 C443 -10 514 103 514 258 C514 390 451 505 312 505 C188 505 148 419 148 419 L148 712 L70 712 L70 0 Z M148 259 C148 350 192 440 297 440 C401 440 436 356 436 258 C436 81 360 54 296 54 C175 54 148 163 148 259 L148 259 Z " />
<glyph glyph-name="c" unicode="c" horiz-adv-x="585" d="M424 163 C419 97 392 48 306 48 C183 48 161 141 161 244 C161 339 184 440 296 440 C393 440 412 369 416 328 L492 328 C492 364 474 505 296 505 C132 505 83 369 83 244 C83 85 146 -17 306 -17 C465 -17 497 98 497 163 L424 163 Z " />
<glyph glyph-name="d" unicode="d" horiz-adv-x="585" d="M514 712 L436 712 L436 424 C436 424 398 505 284 505 C149 505 70 406 70 245 C70 98 126 -10 280 -10 C406 -10 436 81 436 81 L439 0 L514 0 L514 712 Z M436 259 C436 162 403 54 289 54 C220 54 148 80 148 245 C148 330 172 440 288 440 C392 440 436 349 436 259 L436 259 Z " />
<glyph glyph-name="e" unicode="e" horiz-adv-x="585" d="M507 225 C519 372 465 505 296 505 C129 505 75 374 75 235 C75 74 148 -17 304 -17 C468 -17 499 103 501 145 L428 145 C425 125 410 48 303 48 C191 48 153 132 153 225 L507 225 Z M155 286 C164 374 200 440 298 440 C385 440 430 376 430 286 L155 286 Z " />
<glyph glyph-name="f" unicode="f" horiz-adv-x="585" d="M223 0 L299 0 L299 422 L503 422 L503 488 L299 488 L299 563 C299 627 317 664 399 664 C433 664 515 649 515 649 L515 712 C515 712 439 729 382 729 C284 729 223 682 223 558 L223 488 L57 488 L57 422 L223 422 L223 0 Z " />
<glyph glyph-name="g" unicode="g" horiz-adv-x="585" d="M514 488 L436 488 L436 422 C436 422 396 498 284 498 C129 498 70 368 70 242 C70 108 137 0 280 0 C402 0 435 80 437 84 L437 12 C437 -126 374 -154 299 -154 C173 -154 168 -55 168 -55 L91 -55 C91 -55 85 -219 298 -219 C454 -219 514 -127 514 3 L514 488 Z M436 263 C436 144 393 65 289 65 C231 65 148 90 148 246 C148 357 190 433 288 433 C388 433 436 356 436 263 L436 263 Z " />
<glyph glyph-name="h" unicode="h" horiz-adv-x="585" d="M96 0 L174 0 L174 291 C174 403 253 433 302 433 C388 433 410 377 410 291 L410 0 L488 0 L488 324 C488 426 440 498 322 498 C211 498 174 419 174 419 L174 712 L96 712 L96 0 Z " />
<glyph glyph-name="i" unicode="i" horiz-adv-x="585" d="M532 66 L332 66 L332 488 L254 488 L94 488 L94 422 L254 422 L254 66 L74 66 L74 0 L532 0 L532 66 Z M236 611 L331 611 L331 712 L236 712 L236 611 Z " />
<glyph glyph-name="j" unicode="j" horiz-adv-x="585" d="M403 488 L115 488 L115 422 L325 422 L325 -34 C325 -109 312 -130 245 -130 C194 -130 144 -110 144 -110 L144 -183 C144 -183 192 -205 252 -205 C393 -205 403 -132 403 -28 L403 488 Z M311 611 L406 611 L406 712 L311 712 L311 611 Z " />
<glyph glyph-name="k" unicode="k" horiz-adv-x="585" d="M504 488 L406 488 L172 275 L172 712 L94 712 L94 0 L172 0 L172 184 L271 275 L441 0 L536 0 L328 327 L504 488 Z " />
<glyph glyph-name="l" unicode="l" horiz-adv-x="585" d="M511 66 L331 66 L331 712 L93 712 L93 646 L253 646 L253 0 L511 0 L511 66 Z M253 66 L73 66 L73 0 L253 0 L253 66 Z " />
<glyph glyph-name="m" unicode="m" horiz-adv-x="585" d="M50 0 L127 0 L127 291 C127 356 132 433 200 433 C249 433 256 388 256 291 L256 0 L330 0 L330 291 C330 402 359 433 405 433 C458 433 459 379 459 291 L459 0 L536 0 L536 324 C536 435 517 498 420 498 C346 498 313 435 312 432 C311 437 298 499 222 499 C151 499 127 439 127 438 L123 488 L50 488 L50 0 Z " />
<glyph glyph-name="n" unicode="n" horiz-adv-x="585" d="M96 0 L174 0 L174 291 C174 403 253 433 302 433 C387 433 410 377 410 291 L410 0 L488 0 L488 324 C488 426 440 498 322 498 C211 498 174 419 174 419 L171 488 L96 488 L96 0 Z " />
<glyph glyph-name="o" unicode="o" horiz-adv-x="585" d="M72 244 C72 50 165 -17 293 -17 C416 -17 513 56 513 244 C513 435 415 505 293 505 C171 505 72 424 72 244 L72 244 Z M150 244 C150 384 206 440 293 440 C380 440 435 387 435 244 C435 98 382 48 293 48 C204 48 150 100 150 244 L150 244 Z " />
<glyph glyph-name="p" unicode="p" horiz-adv-x="585" d="M70 -202 L148 -202 L148 67 C148 67 186 -17 309 -17 C443 -17 514 96 514 251 C514 383 451 498 312 498 C193 498 148 412 148 412 L144 488 L70 488 L70 -202 Z M148 252 C148 343 189 433 297 433 C396 433 436 355 436 251 C436 74 362 47 296 47 C175 47 148 156 148 252 L148 252 Z " />
<glyph glyph-name="q" unicode="q" horiz-adv-x="585" d="M514 488 L438 488 L436 417 C436 417 394 498 284 498 C149 498 70 399 70 238 C70 85 128 -17 280 -17 C396 -17 436 71 436 71 L436 -202 L514 -202 L514 488 Z M436 252 C436 147 403 47 289 47 C221 47 148 73 148 238 C148 330 179 433 288 433 C392 433 436 350 436 252 L436 252 Z " />
<glyph glyph-name="r" unicode="r" horiz-adv-x="585" d="M136 0 L214 0 L214 284 C214 362 240 430 333 430 C426 430 428 342 428 342 L512 342 C512 343 507 499 352 499 C290 499 235 473 211 418 L205 488 L136 488 L136 0 Z " />
<glyph glyph-name="s" unicode="s" horiz-adv-x="585" d="M92 152 C95 72 140 -13 304 -13 C421 -13 489 24 489 128 C489 316 191 239 191 370 C191 419 226 442 283 442 C376 442 393 386 395 345 L472 345 C472 387 459 505 284 505 C161 505 113 441 113 367 C113 173 410 252 410 123 C410 72 379 50 310 50 C203 50 170 103 168 152 L92 152 Z " />
<glyph glyph-name="t" unicode="t" horiz-adv-x="585" d="M204 151 C204 42 247 -11 352 -11 C440 -11 492 15 492 15 L492 83 C492 83 442 62 372 62 C299 62 281 94 281 173 L281 422 L477 422 L477 488 L281 488 L281 638 L204 618 L204 488 L47 488 L47 422 L204 422 L204 151 Z " />
<glyph glyph-name="u" unicode="u" horiz-adv-x="585" d="M482 488 L404 488 L404 197 C404 85 332 55 283 55 C191 55 181 113 181 197 L181 488 L103 488 L103 177 C103 70 142 -10 264 -10 C374 -10 404 70 404 70 L408 0 L482 0 L482 488 Z " />
<glyph glyph-name="v" unicode="v" horiz-adv-x="585" d="M241 0 L324 0 L539 488 L458 488 L358 246 C319 152 287 77 287 77 C287 77 259 151 221 250 L130 488 L46 488 L241 0 Z " />
<glyph glyph-name="w" unicode="w" horiz-adv-x="585" d="M185 0 L294 301 L386 0 L473 0 L561 488 L479 488 L423 108 L340 378 L256 378 L156 108 L110 488 L25 488 L101 0 L185 0 Z " />
<glyph glyph-name="x" unicode="x" horiz-adv-x="585" d="M519 488 L427 488 L292 310 L157 488 L65 488 L251 254 L49 0 L141 0 L292 200 L443 0 L535 0 L333 254 L519 488 Z " />
<glyph glyph-name="y" unicode="y" horiz-adv-x="585" d="M222 -79 C204 -122 178 -132 133 -132 C111 -132 81 -126 81 -126 L81 -196 C81 -196 111 -203 152 -203 C234 -203 260 -171 312 -46 L535 488 L452 488 L293 89 L135 488 L49 488 L253 -1 L222 -79 Z " />
<glyph glyph-name="z" unicode="z" horiz-adv-x="585" d="M81 0 L501 0 L501 66 L182 66 L503 431 L503 488 L109 488 L109 423 L401 423 L81 56 L81 0 Z " />
<glyph glyph-name="braceleft" unicode="&#x7b;" horiz-adv-x="585" d="M244 -1 C244 -118 302 -132 384 -132 C412 -132 435 -130 435 -130 L435 -76 L397 -76 C343 -76 324 -65 324 9 L324 201 C324 305 237 316 228 317 C241 318 324 332 324 431 L324 604 C324 675 331 692 397 692 L435 692 L435 747 C435 747 407 748 383 748 C286 748 244 721 244 614 L244 432 C244 375 217 349 160 349 L160 282 C218 282 244 256 244 200 L244 -1 Z " />
<glyph glyph-name="bar" unicode="&#x7c;" horiz-adv-x="585" d="M257 -131 L327 -131 L327 745 L257 745 L257 -131 Z " />
<glyph glyph-name="braceright" unicode="&#x7d;" horiz-adv-x="585" d="M341 200 C341 256 367 282 425 282 L425 349 C368 349 341 375 341 432 L341 614 C341 721 299 748 202 748 C178 748 150 747 150 747 L150 692 L188 692 C254 692 261 675 261 604 L261 428 C261 326 347 315 356 314 C344 312 261 300 261 198 L261 9 C261 -65 242 -76 188 -76 L150 -76 L150 -130 C150 -130 173 -132 201 -132 C283 -132 341 -118 341 -1 L341 200 Z " />
<glyph glyph-name="asciitilde" unicode="&#x7e;" horiz-adv-x="585" d="M136 186 C136 186 137 248 196 248 C253 248 306 178 393 178 C508 178 507 313 507 313 L451 313 C451 313 452 248 396 248 C324 248 283 318 197 318 C117 318 77 258 77 186 L136 186 Z " />
<glyph glyph-name="exclamdown" unicode="&#xa1;" horiz-adv-x="585" d="M258 484 C258 484 248 308 248 159 L248 0 L337 0 L337 159 C337 308 327 484 327 484 L258 484 Z M347 711 L238 711 L238 606 L347 606 L347 711 Z " />
<glyph glyph-name="cent" unicode="&#xa2;" horiz-adv-x="585" d="M424 163 C419 102 396 56 326 49 L326 437 C397 424 412 364 416 328 L492 328 C492 362 476 488 326 503 L326 612 L263 612 L263 503 C125 486 83 360 83 244 C83 100 134 2 263 -14 L263 -116 L326 -116 L326 -16 C467 -7 497 101 497 163 L424 163 Z M161 244 C161 329 179 418 263 436 L263 52 C177 72 161 154 161 244 L161 244 Z " />
<glyph glyph-name="sterling" unicode="&#xa3;" horiz-adv-x="585" d="M86 308 L185 308 C191 280 196 251 196 221 C196 105 71 76 71 76 L71 0 L510 0 L510 69 L175 69 C175 69 276 118 276 223 C276 253 272 281 266 308 L420 308 L420 370 L250 370 C235 422 220 473 220 532 C220 612 261 645 324 645 C435 645 434 510 434 510 L512 510 C512 510 515 712 324 712 C214 712 139 649 139 532 C139 472 154 421 169 370 L86 370 L86 308 Z " />
<glyph glyph-name="currency" unicode="&#xa4;" horiz-adv-x="585" d="M74 244 C74 196 89 151 115 116 L49 53 L102 -2 L166 65 C201 39 245 25 292 25 C339 25 383 39 419 65 L483 -2 L536 53 L470 116 C496 152 511 196 511 244 C511 291 496 335 470 371 L536 434 L483 489 L419 422 C383 447 339 462 292 462 C245 462 201 447 166 421 L102 489 L49 434 L114 370 C88 335 74 290 74 244 L74 244 Z M146 244 C146 325 211 393 292 393 C374 393 439 325 439 244 C439 162 374 94 292 94 C211 94 146 162 146 244 L146 244 Z " />
<glyph glyph-name="yen" unicode="&#xa5;" horiz-adv-x="585" d="M82 315 L252 315 L252 222 L82 222 L82 158 L252 158 L252 0 L333 0 L333 158 L503 158 L503 222 L333 222 L333 315 L503 315 L503 379 L349 379 L529 698 L443 698 L295 417 L147 698 L55 698 L235 379 L82 379 L82 315 Z " />
<glyph glyph-name="brokenbar" unicode="&#xa6;" horiz-adv-x="585" d="M257 -131 L327 -131 L327 215 L257 215 L257 -131 Z M257 399 L327 399 L327 745 L257 745 L257 399 Z " />
<glyph glyph-name="section" unicode="&#xa7;" horiz-adv-x="585" d="M86 252 C86 169 142 124 230 76 L272 53 C355 7 384 -31 384 -82 C384 -139 349 -170 281 -170 C179 -170 176 -80 176 -80 L96 -80 C96 -84 94 -239 282 -239 C392 -239 466 -180 466 -78 C466 -14 439 27 393 64 C407 71 499 117 499 233 C499 326 437 359 348 412 L316 431 C250 470 210 502 210 557 C210 619 252 644 306 644 C394 644 402 561 402 561 L481 561 C481 561 474 712 306 712 C204 712 130 651 130 553 C130 486 163 444 201 414 C182 407 87 366 86 252 L86 252 Z M269 141 C196 183 167 207 167 262 C167 338 237 372 254 380 L333 335 C388 304 418 275 418 225 C418 178 397 131 340 99 L269 141 Z " />
<glyph glyph-name="dieresis" unicode="&#xa8;" horiz-adv-x="585" d="M155 587 L250 587 L250 688 L155 688 L155 587 Z M336 587 L429 587 L429 688 L336 688 L336 587 Z " />
<glyph glyph-name="copyright" unicode="&#xa9;" horiz-adv-x="585" d="M352 293 C352 264 353 204 296 204 C230 204 230 250 230 362 C230 483 244 512 293 512 C348 512 347 456 347 425 L418 425 C418 462 417 573 293 573 C170 573 157 461 157 362 C157 238 165 143 293 143 C417 143 421 251 421 293 L352 293 Z M7 357 C7 161 55 -17 293 -17 C509 -17 579 146 579 357 C579 568 511 730 293 730 C83 730 7 568 7 357 L7 357 Z M75 356 C75 523 108 672 293 672 C478 672 511 523 511 356 C511 189 478 40 293 40 C108 40 75 189 75 356 L75 356 Z " />
<glyph glyph-name="ordfeminine" unicode="&#xaa;" horiz-adv-x="585" d="M335 546 C335 546 304 548 280 548 C183 548 143 514 143 450 C143 384 184 355 251 355 C310 355 341 379 354 403 L354 399 C356 386 366 357 408 357 C425 357 442 361 442 361 L442 414 L429 414 C411 414 406 421 406 443 L406 571 C406 637 371 673 289 673 C163 673 159 576 159 576 L229 576 C230 581 231 618 284 618 C322 618 335 602 335 568 L335 546 Z M334 482 C334 433 311 410 268 410 C233 410 216 425 216 454 C216 483 231 501 288 501 C313 501 334 499 334 499 L334 482 Z " />
<glyph glyph-name="guillemotleft" unicode="&#xab;" horiz-adv-x="585" d="M219 436 L114 245 L219 53 L292 53 L202 245 L293 436 L219 436 Z M397 436 L292 245 L397 53 L470 53 L380 245 L471 436 L397 436 Z " />
<glyph glyph-name="logicalnot" unicode="&#xac;" horiz-adv-x="585" d="M77 219 L432 219 L432 68 L507 68 L507 287 L77 287 L77 219 Z " />
<glyph glyph-name="registered" unicode="&#xae;" horiz-adv-x="585" d="M288 574 L334 481 L391 481 L337 579 C373 590 391 610 391 647 C391 711 336 715 287 715 L209 715 L209 481 L261 481 L261 574 L288 574 Z M261 614 L261 676 L291 676 C317 676 337 674 337 647 C337 618 318 614 291 614 L261 614 Z M115 593 C115 707 193 771 292 771 C391 771 469 707 469 593 C469 479 391 415 292 415 C193 415 115 479 115 593 L115 593 Z M64 593 C64 452 168 373 292 373 C416 373 520 454 520 593 C520 732 418 813 292 813 C168 813 64 732 64 593 L64 593 Z " />
<glyph glyph-name="macron" unicode="&#xaf;" horiz-adv-x="585" d="M157 595 L427 595 L427 665 L157 665 L157 595 Z " />
<glyph glyph-name="degree" unicode="&#xb0;" horiz-adv-x="585" d="M293 785 C200 785 130 717 130 627 C130 538 194 468 293 468 C387 468 455 539 455 627 C455 717 390 785 293 785 L293 785 Z M293 729 C345 729 389 691 389 627 C389 564 346 524 293 524 C240 524 196 563 196 627 C196 692 241 729 293 729 L293 729 Z " />
<glyph glyph-name="plusminus" unicode="&#xb1;" horiz-adv-x="585" d="M77 281 L254 281 L254 140 L330 140 L330 281 L507 281 L507 348 L330 348 L330 487 L254 487 L254 348 L77 348 L77 281 Z M77 0 L507 0 L507 67 L77 67 L77 0 Z " />
<glyph glyph-name="twosuperior" unicode="&#xb2;" horiz-adv-x="585" d="M143 386 L441 386 L441 453 L236 453 C364 545 438 605 438 696 C438 769 390 814 302 814 C145 814 146 664 146 664 L218 664 C218 664 220 750 298 750 C349 750 360 718 360 692 C360 612 263 548 143 446 L143 386 Z " />
<glyph glyph-name="threesuperior" unicode="&#xb3;" horiz-adv-x="585" d="M136 520 C136 510 132 375 297 375 C398 375 450 426 450 506 C450 601 357 608 354 608 C362 609 435 626 435 706 C435 769 389 813 300 813 C166 813 153 703 152 682 L222 682 C224 693 228 750 296 750 C337 750 357 731 357 697 C357 650 325 633 269 633 L248 633 L248 575 L270 575 C335 575 371 560 371 508 C371 462 345 439 296 439 C211 439 208 509 208 520 L136 520 Z " />
<glyph glyph-name="acute" unicode="&#xb4;" horiz-adv-x="585" d="M263 688 L198 571 L284 571 L386 688 L263 688 Z " />
<glyph glyph-name="&amp;#xb5;" unicode="&#xb5;" horiz-adv-x="585" d="M103 -222 L181 -222 L181 38 C199 7 234 -10 277 -10 C371 -10 404 70 404 70 L408 0 L482 0 L482 488 L404 488 L404 197 C404 85 332 55 283 55 C188 55 181 124 181 197 L181 488 L103 488 L103 -222 Z " />
<glyph glyph-name="&amp;#x3bc;" unicode="&#x3bc;" horiz-adv-x="585" d="M103 -222 L181 -222 L181 38 C199 7 234 -10 277 -10 C371 -10 404 70 404 70 L408 0 L482 0 L482 488 L404 488 L404 197 C404 85 332 55 283 55 C188 55 181 124 181 197 L181 488 L103 488 L103 -222 Z " />
<glyph glyph-name="paragraph" unicode="&#xb6;" horiz-adv-x="585" d="M33 517 C33 409 120 322 228 322 L228 -100 L293 -100 L293 652 L405 652 L405 -100 L470 -100 L470 652 L551 652 L551 712 L228 712 C120 712 33 625 33 517 L33 517 Z " />
<glyph glyph-name="periodcentered" unicode="&#xb7;" horiz-adv-x="585" d="M228 200 L357 200 L357 314 L228 314 L228 200 Z " />
<glyph glyph-name="cedilla" unicode="&#xb8;" horiz-adv-x="585" d="M198 -224 C211 -226 226 -227 240 -227 C311 -227 386 -203 386 -127 C386 -100 370 -59 304 -59 C299 -59 292 -59 286 -60 L312 0 L263 0 L220 -88 L235 -105 C245 -102 257 -100 268 -100 C292 -100 311 -108 311 -134 C311 -174 273 -188 233 -188 C218 -188 209 -187 209 -187 L198 -224 Z " />
<glyph glyph-name="onesuperior" unicode="&#xb9;" horiz-adv-x="585" d="M380 386 L380 804 L315 804 C299 774 234 742 204 733 L204 661 C229 669 285 693 305 710 L305 386 L380 386 Z " />
<glyph glyph-name="ordmasculine" unicode="&#xba;" horiz-adv-x="585" d="M148 512 C148 390 211 350 293 350 C373 350 437 394 437 512 C437 626 374 673 293 673 C213 673 148 623 148 512 L148 512 Z M223 512 C223 590 252 615 293 615 C333 615 362 591 362 512 C362 430 333 408 293 408 C252 408 223 430 223 512 L223 512 Z " />
<glyph glyph-name="guillemotright" unicode="&#xbb;" horiz-adv-x="585" d="M292 436 L383 245 L293 53 L367 53 L471 245 L367 436 L292 436 Z M114 436 L205 245 L115 53 L189 53 L293 245 L189 436 L114 436 Z " />
<glyph glyph-name="onequarter" unicode="&#xbc;" horiz-adv-x="585" d="M324 444 L324 712 L265 712 C251 685 192 657 165 649 L165 584 C188 591 238 613 256 628 L256 444 L324 444 Z M37 341 L537 341 L537 381 L37 381 L37 341 Z M136 52 L289 52 L289 0 L354 0 L354 52 L397 52 L397 106 L354 106 L354 270 L280 270 L136 100 L136 52 Z M208 106 L289 202 L289 106 L208 106 Z " />
<glyph glyph-name="onehalf" unicode="&#xbd;" horiz-adv-x="585" d="M326 444 L326 712 L268 712 C253 685 195 657 168 649 L168 584 C190 591 241 613 259 628 L259 444 L326 444 Z M166 0 L416 0 L416 60 L280 60 C328 76 410 119 410 183 C410 242 375 277 303 277 C175 277 169 166 169 166 L233 166 C233 166 239 219 295 219 C332 219 340 200 340 180 C340 117 217 78 166 54 L166 0 Z M37 341 L537 341 L537 381 L37 381 L37 341 Z " />
<glyph glyph-name="threequarters" unicode="&#xbe;" horiz-adv-x="585" d="M158 525 C158 519 155 432 293 432 C375 432 415 457 415 516 C415 576 354 579 350 579 C357 580 403 594 403 644 C403 689 370 712 294 712 C182 712 172 642 171 628 L245 628 C246 636 251 657 291 657 C305 657 331 655 331 634 C331 603 307 600 265 600 L249 600 L249 548 L268 548 C308 548 344 549 344 521 C344 499 331 489 291 489 C235 489 233 518 233 525 L158 525 Z M138 52 L291 52 L291 0 L356 0 L356 52 L399 52 L399 106 L356 106 L356 270 L282 270 L138 100 L138 52 Z M37 341 L537 341 L537 381 L37 381 L37 341 Z M210 106 L291 202 L291 106 L210 106 Z " />
<glyph glyph-name="questiondown" unicode="&#xbf;" horiz-adv-x="585" d="M355 712 L246 712 L246 607 L355 607 L355 712 Z M345 485 L267 485 L267 401 C267 303 90 303 90 140 C90 33 168 -17 278 -17 C491 -17 493 176 493 176 L416 176 C416 176 412 52 279 52 C211 52 170 83 170 140 C170 267 345 268 345 401 L345 485 Z " />
<glyph glyph-name="Agrave" unicode="&#xc0;" horiz-adv-x="585" d="M466 0 L557 0 L331 712 L252 712 L28 0 L113 0 L167 184 L411 184 L466 0 Z M289 597 L391 252 L187 252 L289 597 Z M136 898 L240 780 L329 780 L262 898 L136 898 Z " />
<glyph glyph-name="Aacute" unicode="&#xc1;" horiz-adv-x="585" d="M466 0 L557 0 L331 712 L252 712 L28 0 L113 0 L167 184 L411 184 L466 0 Z M289 597 L391 252 L187 252 L289 597 Z M316 898 L249 780 L338 780 L442 898 L316 898 Z " />
<glyph glyph-name="Acircumflex" unicode="&#xc2;" horiz-adv-x="585" d="M466 0 L557 0 L331 712 L252 712 L28 0 L113 0 L167 184 L411 184 L466 0 Z M289 597 L391 252 L187 252 L289 597 Z M235 898 L147 780 L237 780 L289 854 L341 780 L436 780 L349 898 L235 898 Z " />
<glyph glyph-name="Atilde" unicode="&#xc3;" horiz-adv-x="585" d="M466 0 L557 0 L331 712 L252 712 L28 0 L113 0 L167 184 L411 184 L466 0 Z M289 597 L391 252 L187 252 L289 597 Z M202 784 C202 800 205 828 232 828 C266 828 295 778 355 778 C419 778 432 837 431 892 L380 892 C380 880 380 844 350 844 C309 844 285 896 230 896 C167 896 146 841 147 784 L202 784 Z " />
<glyph glyph-name="Adieresis" unicode="&#xc4;" horiz-adv-x="585" d="M466 0 L557 0 L331 712 L252 712 L28 0 L113 0 L167 184 L411 184 L466 0 Z M289 597 L391 252 L187 252 L289 597 Z M152 796 L249 796 L249 898 L152 898 L152 796 Z M333 796 L427 796 L427 898 L333 898 L333 796 Z " />
<glyph glyph-name="Aring" unicode="&#xc5;" horiz-adv-x="585" d="M466 0 L557 0 L331 712 L252 712 L28 0 L113 0 L167 184 L411 184 L466 0 Z M177 839 C177 777 227 735 289 735 C351 735 401 777 401 839 C401 900 351 943 289 943 C227 943 177 900 177 839 L177 839 Z M289 597 L391 252 L187 252 L289 597 Z M235 839 C235 868 255 892 289 892 C323 892 343 868 343 839 C343 810 323 785 289 785 C255 785 235 810 235 839 L235 839 Z " />
<glyph glyph-name="AE" unicode="&#xc6;" horiz-adv-x="585" d="M567 0 L567 69 L395 69 L395 336 L542 336 L542 404 L395 404 L395 643 L566 643 L566 712 L240 712 L13 0 L97 0 L153 186 L315 186 L315 0 L567 0 Z M291 643 L315 643 L315 252 L173 252 L291 643 Z " />
<glyph glyph-name="Ccedilla" unicode="&#xc7;" horiz-adv-x="585" d="M202 -224 C215 -226 230 -227 244 -227 C315 -227 390 -203 390 -127 C390 -100 374 -59 308 -59 C303 -59 296 -59 290 -60 L309 -16 C506 -11 540 149 541 245 L460 245 C453 177 449 52 302 52 C130 52 123 225 123 356 C123 509 142 661 299 661 C447 661 452 516 454 481 L535 481 C535 538 513 730 301 730 C84 730 40 540 40 357 C40 143 85 3 259 -15 L224 -88 L239 -105 C249 -102 261 -100 272 -100 C296 -100 315 -108 315 -134 C315 -174 277 -188 237 -188 C222 -188 213 -187 213 -187 L202 -224 Z " />
<glyph glyph-name="Egrave" unicode="&#xc8;" horiz-adv-x="585" d="M79 0 L506 0 L506 69 L159 69 L159 332 L467 332 L467 401 L159 401 L159 643 L503 643 L503 712 L79 712 L79 0 Z M152 898 L256 780 L345 780 L278 898 L152 898 Z " />
<glyph glyph-name="Eacute" unicode="&#xc9;" horiz-adv-x="585" d="M79 0 L506 0 L506 69 L159 69 L159 332 L467 332 L467 401 L159 401 L159 643 L503 643 L503 712 L79 712 L79 0 Z M310 898 L243 780 L332 780 L436 898 L310 898 Z " />
<glyph glyph-name="Ecircumflex" unicode="&#xca;" horiz-adv-x="585" d="M79 0 L506 0 L506 69 L159 69 L159 332 L467 332 L467 401 L159 401 L159 643 L503 643 L503 712 L79 712 L79 0 Z M238 898 L150 780 L240 780 L292 854 L344 780 L439 780 L352 898 L238 898 Z " />
<glyph glyph-name="Edieresis" unicode="&#xcb;" horiz-adv-x="585" d="M79 0 L506 0 L506 69 L159 69 L159 332 L467 332 L467 401 L159 401 L159 643 L503 643 L503 712 L79 712 L79 0 Z M152 796 L249 796 L249 898 L152 898 L152 796 Z M333 796 L427 796 L427 898 L333 898 L333 796 Z " />
<glyph glyph-name="Igrave" unicode="&#xcc;" horiz-adv-x="585" d="M363 643 L513 643 L513 712 L363 712 L133 712 L133 643 L283 643 L283 69 L133 69 L133 0 L513 0 L513 69 L363 69 L363 643 Z M196 898 L300 780 L389 780 L322 898 L196 898 Z " />
<glyph glyph-name="Iacute" unicode="&#xcd;" horiz-adv-x="585" d="M296 643 L446 643 L446 712 L296 712 L66 712 L66 643 L216 643 L216 69 L66 69 L66 0 L446 0 L446 69 L296 69 L296 643 Z M263 898 L196 780 L285 780 L389 898 L263 898 Z " />
<glyph glyph-name="Icircumflex" unicode="&#xce;" horiz-adv-x="585" d="M332 643 L482 643 L482 712 L332 712 L102 712 L102 643 L252 643 L252 0 L482 0 L482 69 L332 69 L332 643 Z M236 898 L148 780 L238 780 L290 854 L342 780 L437 780 L350 898 L236 898 Z M102 0 L252 0 L252 69 L102 69 L102 0 Z " />
<glyph glyph-name="Idieresis" unicode="&#xcf;" horiz-adv-x="585" d="M333 643 L483 643 L483 712 L333 712 L103 712 L103 643 L253 643 L253 69 L103 69 L103 0 L483 0 L483 69 L333 69 L333 643 Z M155 796 L252 796 L252 898 L155 898 L155 796 Z M336 796 L430 796 L430 898 L336 898 L336 796 Z " />
<glyph glyph-name="Eth" unicode="&#xd0;" horiz-adv-x="585" d="M16 332 L104 332 L104 0 L208 0 C468 0 552 130 552 370 C552 596 475 712 208 712 L104 712 L104 398 L16 398 L16 332 Z M184 69 L184 332 L324 332 L324 398 L184 398 L184 642 L215 642 C419 642 469 560 469 368 C469 142 393 69 210 69 L184 69 Z " />
<glyph glyph-name="Ntilde" unicode="&#xd1;" horiz-adv-x="585" d="M67 0 L147 0 L147 567 L432 0 L518 0 L518 712 L438 712 L438 161 L157 712 L67 712 L67 0 Z M205 784 C205 800 208 828 235 828 C269 828 298 778 358 778 C422 778 435 837 434 892 L383 892 C383 880 383 844 353 844 C312 844 288 896 233 896 C170 896 149 841 150 784 L205 784 Z " />
<glyph glyph-name="Ograve" unicode="&#xd2;" horiz-adv-x="585" d="M40 356 C40 52 159 -17 293 -17 C427 -17 546 56 546 356 C546 639 432 729 293 729 C159 729 40 641 40 356 L40 356 Z M123 356 C123 588 187 660 293 660 C398 660 463 588 463 356 C463 113 399 52 293 52 C192 52 123 113 123 356 L123 356 Z M156 898 L260 780 L349 780 L282 898 L156 898 Z " />
<glyph glyph-name="Oacute" unicode="&#xd3;" horiz-adv-x="585" d="M40 356 C40 52 159 -17 293 -17 C427 -17 546 56 546 356 C546 639 432 729 293 729 C159 729 40 641 40 356 L40 356 Z M123 356 C123 588 187 660 293 660 C398 660 463 588 463 356 C463 113 399 52 293 52 C192 52 123 113 123 356 L123 356 Z M294 898 L227 780 L316 780 L420 898 L294 898 Z " />
<glyph glyph-name="Ocircumflex" unicode="&#xd4;" horiz-adv-x="585" d="M40 356 C40 52 159 -17 293 -17 C427 -17 546 56 546 356 C546 639 432 729 293 729 C159 729 40 641 40 356 L40 356 Z M123 356 C123 588 187 660 293 660 C398 660 463 588 463 356 C463 113 399 52 293 52 C192 52 123 113 123 356 L123 356 Z M236 898 L148 780 L238 780 L290 854 L342 780 L437 780 L350 898 L236 898 Z " />
<glyph glyph-name="Otilde" unicode="&#xd5;" horiz-adv-x="585" d="M40 356 C40 52 159 -17 293 -17 C427 -17 546 56 546 356 C546 639 432 729 293 729 C159 729 40 641 40 356 L40 356 Z M123 356 C123 588 187 660 293 660 C398 660 463 588 463 356 C463 113 399 52 293 52 C192 52 123 113 123 356 L123 356 Z M206 784 C206 800 209 828 236 828 C270 828 299 778 359 778 C423 778 436 837 435 892 L384 892 C384 880 384 844 354 844 C313 844 289 896 234 896 C171 896 150 841 151 784 L206 784 Z " />
<glyph glyph-name="Odieresis" unicode="&#xd6;" horiz-adv-x="585" d="M40 356 C40 52 159 -17 293 -17 C427 -17 546 56 546 356 C546 639 432 729 293 729 C159 729 40 641 40 356 L40 356 Z M123 356 C123 588 187 660 293 660 C398 660 463 588 463 356 C463 113 399 52 293 52 C192 52 123 113 123 356 L123 356 Z M155 796 L252 796 L252 898 L155 898 L155 796 Z M336 796 L430 796 L430 898 L336 898 L336 796 Z " />
<glyph glyph-name="multiply" unicode="&#xd7;" horiz-adv-x="585" d="M156 68 L291 201 L432 60 L484 111 L342 253 L474 385 L423 436 L292 303 L151 444 L100 392 L240 252 L106 118 L156 68 Z " />
<glyph glyph-name="Oslash" unicode="&#xd8;" horiz-adv-x="585" d="M39 356 C39 216 64 126 104 70 L50 -33 L125 -33 L153 20 C194 -7 242 -17 292 -17 C426 -17 545 56 545 356 C545 488 520 578 479 637 L537 746 L462 746 L431 687 C391 716 343 729 292 729 C158 729 39 641 39 356 L39 356 Z M122 356 C122 588 186 660 292 660 C333 660 368 649 396 621 L149 153 C131 200 122 265 122 356 L122 356 Z M462 356 C462 113 398 52 292 52 C252 52 217 62 189 88 L436 554 C453 508 462 443 462 356 L462 356 Z " />
<glyph glyph-name="Ugrave" unicode="&#xd9;" horiz-adv-x="585" d="M64 246 C64 63 127 -16 292 -16 C450 -16 524 63 524 246 L524 712 L445 712 L445 246 C445 88 381 53 292 53 C203 53 144 94 144 252 L144 712 L64 712 L64 246 Z M165 898 L269 780 L358 780 L291 898 L165 898 Z " />
<glyph glyph-name="Uacute" unicode="&#xda;" horiz-adv-x="585" d="M64 246 C64 63 127 -16 292 -16 C450 -16 524 63 524 246 L524 712 L445 712 L445 246 C445 88 381 53 292 53 C203 53 144 94 144 252 L144 712 L64 712 L64 246 Z M303 898 L236 780 L325 780 L429 898 L303 898 Z " />
<glyph glyph-name="Ucircumflex" unicode="&#xdb;" horiz-adv-x="585" d="M64 246 C64 63 127 -16 292 -16 C450 -16 524 63 524 246 L524 712 L445 712 L445 246 C445 88 381 53 292 53 C203 53 144 94 144 252 L144 712 L64 712 L64 246 Z M235 898 L147 780 L237 780 L289 854 L341 780 L436 780 L349 898 L235 898 Z " />
<glyph glyph-name="Udieresis" unicode="&#xdc;" horiz-adv-x="585" d="M64 246 C64 63 127 -16 292 -16 C450 -16 524 63 524 246 L524 712 L445 712 L445 246 C445 88 381 53 292 53 C203 53 144 94 144 252 L144 712 L64 712 L64 246 Z M154 796 L251 796 L251 898 L154 898 L154 796 Z M335 796 L429 796 L429 898 L335 898 L335 796 Z " />
<glyph glyph-name="Yacute" unicode="&#xdd;" horiz-adv-x="585" d="M249 0 L329 0 L329 294 L548 712 L461 712 L292 373 L129 712 L37 712 L249 294 L249 0 Z M299 898 L232 780 L321 780 L425 898 L299 898 Z " />
<glyph glyph-name="Thorn" unicode="&#xde;" horiz-adv-x="585" d="M73 0 L153 0 L153 159 L252 159 C404 159 512 218 512 378 C512 543 393 574 266 574 L153 574 L153 712 L73 712 L73 0 Z M153 228 L153 505 L266 505 C379 505 430 474 430 372 C430 251 355 228 252 228 L153 228 Z " />
<glyph glyph-name="germandbls" unicode="&#xdf;" horiz-adv-x="585" d="M192 509 C192 566 202 659 303 659 C365 659 405 621 405 553 C405 472 356 435 281 435 L268 435 L268 373 L281 373 C398 373 457 318 457 212 C457 82 389 57 314 57 C292 57 268 61 268 61 L268 1 C268 1 295 -5 330 -5 C419 -5 535 31 535 213 C535 335 464 400 366 408 C429 415 484 479 484 557 C484 660 411 723 305 723 C158 723 115 618 115 508 L115 488 L49 488 L49 419 L115 419 L115 0 L192 0 L192 509 Z " />
<glyph glyph-name="agrave" unicode="&#xe0;" horiz-adv-x="585" d="M385 294 C385 294 332 298 283 298 C131 298 67 242 67 144 C67 37 134 -10 235 -10 C302 -10 368 18 396 73 L397 66 C401 35 419 -5 478 -5 C499 -5 517 0 517 0 L517 60 L493 60 C467 60 461 81 461 116 L461 339 C461 447 408 505 282 505 C104 505 93 353 93 353 L169 353 C169 353 172 442 280 442 C356 442 385 410 385 336 L385 294 Z M385 194 C385 109 337 55 253 55 C184 55 145 82 145 148 C145 210 181 242 295 242 C342 242 385 239 385 239 L385 194 Z M151 688 L253 571 L339 571 L274 688 L151 688 Z " />
<glyph glyph-name="aacute" unicode="&#xe1;" horiz-adv-x="585" d="M385 294 C385 294 332 298 283 298 C131 298 67 242 67 144 C67 37 134 -10 235 -10 C302 -10 368 18 396 73 L397 66 C401 35 419 -5 478 -5 C499 -5 517 0 517 0 L517 60 L493 60 C467 60 461 81 461 116 L461 339 C461 447 408 505 282 505 C104 505 93 353 93 353 L169 353 C169 353 172 442 280 442 C356 442 385 410 385 336 L385 294 Z M385 194 C385 109 337 55 253 55 C184 55 145 82 145 148 C145 210 181 242 295 242 C342 242 385 239 385 239 L385 194 Z M301 688 L236 571 L322 571 L424 688 L301 688 Z " />
<glyph glyph-name="acircumflex" unicode="&#xe2;" horiz-adv-x="585" d="M385 294 C385 294 332 298 283 298 C131 298 67 242 67 144 C67 37 134 -10 235 -10 C302 -10 368 18 396 73 L397 66 C401 35 419 -5 478 -5 C499 -5 517 0 517 0 L517 60 L493 60 C467 60 461 81 461 116 L461 339 C461 447 408 505 282 505 C104 505 93 353 93 353 L169 353 C169 353 172 442 280 442 C356 442 385 410 385 336 L385 294 Z M385 194 C385 109 337 55 253 55 C184 55 145 82 145 148 C145 210 181 242 295 242 C342 242 385 239 385 239 L385 194 Z M229 688 L142 571 L229 571 L282 647 L335 571 L428 571 L341 688 L229 688 Z " />
<glyph glyph-name="atilde" unicode="&#xe3;" horiz-adv-x="585" d="M385 294 C385 294 332 298 283 298 C131 298 67 242 67 144 C67 37 134 -10 235 -10 C302 -10 368 18 396 73 L397 66 C401 35 419 -5 478 -5 C499 -5 517 0 517 0 L517 60 L493 60 C467 60 461 81 461 116 L461 339 C461 447 408 505 282 505 C104 505 93 353 93 353 L169 353 C169 353 172 442 280 442 C356 442 385 410 385 336 L385 294 Z M385 194 C385 109 337 55 253 55 C184 55 145 82 145 148 C145 210 181 242 295 242 C342 242 385 239 385 239 L385 194 Z M198 574 C198 590 201 618 228 618 C262 618 291 568 351 568 C415 568 428 627 427 682 L376 682 C376 670 376 634 346 634 C305 634 281 686 226 686 C163 686 142 631 143 574 L198 574 Z " />
<glyph glyph-name="adieresis" unicode="&#xe4;" horiz-adv-x="585" d="M385 294 C385 294 332 298 283 298 C131 298 67 242 67 144 C67 37 134 -10 235 -10 C302 -10 368 18 396 73 L397 66 C401 35 419 -5 478 -5 C499 -5 517 0 517 0 L517 60 L493 60 C467 60 461 81 461 116 L461 339 C461 447 408 505 282 505 C104 505 93 353 93 353 L169 353 C169 353 172 442 280 442 C356 442 385 410 385 336 L385 294 Z M385 194 C385 109 337 55 253 55 C184 55 145 82 145 148 C145 210 181 242 295 242 C342 242 385 239 385 239 L385 194 Z M147 587 L242 587 L242 688 L147 688 L147 587 Z M328 587 L421 587 L421 688 L328 688 L328 587 Z " />
<glyph glyph-name="aring" unicode="&#xe5;" horiz-adv-x="585" d="M385 294 C385 294 332 298 283 298 C131 298 67 242 67 144 C67 37 134 -10 235 -10 C302 -10 368 18 396 73 L397 66 C401 35 419 -5 478 -5 C499 -5 517 0 517 0 L517 60 L493 60 C467 60 461 81 461 116 L461 339 C461 447 408 505 282 505 C104 505 93 353 93 353 L169 353 C169 353 172 442 280 442 C356 442 385 410 385 336 L385 294 Z M385 194 C385 109 337 55 253 55 C184 55 145 82 145 148 C145 210 181 242 295 242 C342 242 385 239 385 239 L385 194 Z M174 653 C174 592 224 550 285 550 C346 550 396 592 396 653 C396 714 346 757 285 757 C224 757 174 714 174 653 L174 653 Z M230 653 C230 683 250 708 285 708 C320 708 340 683 340 653 C340 623 320 598 285 598 C250 598 230 623 230 653 L230 653 Z " />
<glyph glyph-name="ae" unicode="&#xe6;" horiz-adv-x="585" d="M569 227 C570 239 570 248 570 260 C570 398 556 505 422 505 C329 505 302 434 302 434 C302 434 279 505 189 505 C92 505 38 434 38 355 L112 355 C112 383 122 442 183 442 C239 442 254 407 254 342 L254 288 L190 288 C108 288 16 262 16 135 C16 30 63 -17 153 -17 C254 -17 286 67 288 71 C290 63 312 -17 420 -17 C564 -17 564 144 564 144 L493 144 C493 112 482 46 421 46 C334 46 332 133 332 227 L569 227 Z M254 194 C254 90 218 46 165 46 C113 46 95 80 95 139 C95 222 148 231 204 231 L254 231 L254 194 Z M334 285 C338 372 346 442 421 442 C492 442 493 375 493 285 L334 285 Z " />
<glyph glyph-name="ccedilla" unicode="&#xe7;" horiz-adv-x="585" d="M212 -224 C225 -226 240 -227 254 -227 C325 -227 400 -203 400 -127 C400 -100 384 -59 318 -59 C313 -59 306 -59 300 -60 L318 -17 C466 -11 497 100 497 163 L424 163 C419 97 392 48 306 48 C183 48 161 141 161 244 C161 339 184 440 296 440 C393 440 412 369 416 328 L492 328 C492 364 474 505 296 505 C132 505 83 369 83 244 C83 97 136 0 269 -15 L234 -88 L249 -105 C259 -102 271 -100 282 -100 C306 -100 325 -108 325 -134 C325 -174 287 -188 247 -188 C232 -188 223 -187 223 -187 L212 -224 Z " />
<glyph glyph-name="egrave" unicode="&#xe8;" horiz-adv-x="585" d="M507 225 C519 372 465 505 296 505 C129 505 75 374 75 235 C75 74 148 -17 304 -17 C468 -17 499 103 501 145 L428 145 C425 125 410 48 303 48 C191 48 153 132 153 225 L507 225 Z M155 286 C164 374 200 440 298 440 C385 440 430 376 430 286 L155 286 Z M160 688 L262 571 L348 571 L283 688 L160 688 Z " />
<glyph glyph-name="eacute" unicode="&#xe9;" horiz-adv-x="585" d="M507 225 C519 372 465 505 296 505 C129 505 75 374 75 235 C75 74 148 -17 304 -17 C468 -17 499 103 501 145 L428 145 C425 125 410 48 303 48 C191 48 153 132 153 225 L507 225 Z M155 286 C164 374 200 440 298 440 C385 440 430 376 430 286 L155 286 Z M313 688 L248 571 L334 571 L436 688 L313 688 Z " />
<glyph glyph-name="ecircumflex" unicode="&#xea;" horiz-adv-x="585" d="M507 225 C519 372 465 505 296 505 C129 505 75 374 75 235 C75 74 148 -17 304 -17 C468 -17 499 103 501 145 L428 145 C425 125 410 48 303 48 C191 48 153 132 153 225 L507 225 Z M155 286 C164 374 200 440 298 440 C385 440 430 376 430 286 L155 286 Z M241 688 L154 571 L241 571 L294 647 L347 571 L440 571 L353 688 L241 688 Z " />
<glyph glyph-name="edieresis" unicode="&#xeb;" horiz-adv-x="585" d="M507 225 C519 372 465 505 296 505 C129 505 75 374 75 235 C75 74 148 -17 304 -17 C468 -17 499 103 501 145 L428 145 C425 125 410 48 303 48 C191 48 153 132 153 225 L507 225 Z M155 286 C164 374 200 440 298 440 C385 440 430 376 430 286 L155 286 Z M160 587 L255 587 L255 688 L160 688 L160 587 Z M341 587 L434 587 L434 688 L341 688 L341 587 Z " />
<glyph glyph-name="igrave" unicode="&#xec;" horiz-adv-x="585" d="M571 66 L371 66 L371 488 L293 488 L133 488 L133 422 L293 422 L293 0 L571 0 L571 66 Z M178 688 L280 571 L366 571 L301 688 L178 688 Z M293 66 L113 66 L113 0 L293 0 L293 66 Z " />
<glyph glyph-name="iacute" unicode="&#xed;" horiz-adv-x="585" d="M492 66 L292 66 L292 488 L214 488 L54 488 L54 422 L214 422 L214 0 L492 0 L492 66 Z M263 688 L198 571 L284 571 L386 688 L263 688 Z M214 66 L34 66 L34 0 L214 0 L214 66 Z " />
<glyph glyph-name="icircumflex" unicode="&#xee;" horiz-adv-x="585" d="M531 66 L331 66 L331 488 L93 488 L93 422 L253 422 L253 66 L73 66 L73 0 L531 0 L531 66 Z M226 688 L139 571 L226 571 L279 647 L332 571 L425 571 L338 688 L226 688 Z " />
<glyph glyph-name="idieresis" unicode="&#xef;" horiz-adv-x="585" d="M531 66 L331 66 L331 488 L253 488 L93 488 L93 422 L253 422 L253 0 L531 0 L531 66 Z M253 66 L73 66 L73 0 L253 0 L253 66 Z M142 587 L237 587 L237 688 L142 688 L142 587 Z M323 587 L416 587 L416 688 L323 688 L323 587 Z " />
<glyph glyph-name="eth" unicode="&#xf0;" horiz-adv-x="585" d="M143 568 L319 568 L327 554 L382 457 C377 463 349 495 286 495 C166 495 82 404 82 243 C82 54 169 -17 292 -17 C412 -17 502 60 502 243 C502 354 464 440 401 559 L396 568 L473 568 L473 628 L364 628 L320 712 L238 712 L285 628 L143 628 L143 568 Z M160 243 C160 372 213 430 292 430 C371 430 424 373 424 243 C424 103 373 48 292 48 C211 48 160 105 160 243 L160 243 Z " />
<glyph glyph-name="ntilde" unicode="&#xf1;" horiz-adv-x="585" d="M96 0 L174 0 L174 291 C174 403 253 433 302 433 C387 433 410 377 410 291 L410 0 L488 0 L488 324 C488 426 440 498 322 498 C211 498 174 419 174 419 L171 488 L96 488 L96 0 Z M213 574 C213 590 216 618 243 618 C277 618 306 568 366 568 C430 568 443 627 442 682 L391 682 C391 670 391 634 361 634 C320 634 296 686 241 686 C178 686 157 631 158 574 L213 574 Z " />
<glyph glyph-name="ograve" unicode="&#xf2;" horiz-adv-x="585" d="M72 244 C72 50 165 -17 293 -17 C416 -17 513 56 513 244 C513 435 415 505 293 505 C171 505 72 424 72 244 L72 244 Z M150 244 C150 384 206 440 293 440 C380 440 435 387 435 244 C435 98 382 48 293 48 C204 48 150 100 150 244 L150 244 Z M149 688 L251 571 L337 571 L272 688 L149 688 Z " />
<glyph glyph-name="oacute" unicode="&#xf3;" horiz-adv-x="585" d="M72 244 C72 50 165 -17 293 -17 C416 -17 513 56 513 244 C513 435 415 505 293 505 C171 505 72 424 72 244 L72 244 Z M150 244 C150 384 206 440 293 440 C380 440 435 387 435 244 C435 98 382 48 293 48 C204 48 150 100 150 244 L150 244 Z M305 688 L240 571 L326 571 L428 688 L305 688 Z " />
<glyph glyph-name="ocircumflex" unicode="&#xf4;" horiz-adv-x="585" d="M72 244 C72 50 165 -17 293 -17 C416 -17 513 56 513 244 C513 435 415 505 293 505 C171 505 72 424 72 244 L72 244 Z M150 244 C150 384 206 440 293 440 C380 440 435 387 435 244 C435 98 382 48 293 48 C204 48 150 100 150 244 L150 244 Z M237 688 L150 571 L237 571 L290 647 L343 571 L436 571 L349 688 L237 688 Z " />
<glyph glyph-name="otilde" unicode="&#xf5;" horiz-adv-x="585" d="M72 244 C72 50 165 -17 293 -17 C416 -17 513 56 513 244 C513 435 415 505 293 505 C171 505 72 424 72 244 L72 244 Z M150 244 C150 384 206 440 293 440 C380 440 435 387 435 244 C435 98 382 48 293 48 C204 48 150 100 150 244 L150 244 Z M206 574 C206 590 209 618 236 618 C270 618 299 568 359 568 C423 568 436 627 435 682 L384 682 C384 670 384 634 354 634 C313 634 289 686 234 686 C171 686 150 631 151 574 L206 574 Z " />
<glyph glyph-name="odieresis" unicode="&#xf6;" horiz-adv-x="585" d="M72 244 C72 50 165 -17 293 -17 C416 -17 513 56 513 244 C513 435 415 505 293 505 C171 505 72 424 72 244 L72 244 Z M150 244 C150 384 206 440 293 440 C380 440 435 387 435 244 C435 98 382 48 293 48 C204 48 150 100 150 244 L150 244 Z M156 587 L251 587 L251 688 L156 688 L156 587 Z M337 587 L430 587 L430 688 L337 688 L337 587 Z " />
<glyph glyph-name="divide" unicode="&#xf7;" horiz-adv-x="585" d="M239 58 L344 58 L344 160 L239 160 L239 58 Z M239 349 L344 349 L344 451 L239 451 L239 349 Z M77 220 L507 220 L507 287 L77 287 L77 220 Z " />
<glyph glyph-name="oslash" unicode="&#xf8;" horiz-adv-x="585" d="M72 -27 L144 -27 L170 12 C205 -8 246 -17 293 -17 C416 -17 513 56 513 244 C513 331 492 394 458 435 L513 516 L441 516 L413 474 C378 495 337 505 293 505 C171 505 72 424 72 244 C72 154 91 92 125 51 L72 -27 Z M435 244 C435 98 382 48 293 48 C260 48 232 55 210 70 L413 369 C427 338 435 297 435 244 L435 244 Z M150 244 C150 384 206 440 293 440 C324 440 352 433 374 417 L171 119 C157 149 150 190 150 244 L150 244 Z " />
<glyph glyph-name="ugrave" unicode="&#xf9;" horiz-adv-x="585" d="M482 488 L404 488 L404 197 C404 85 332 55 283 55 C191 55 181 113 181 197 L181 488 L103 488 L103 177 C103 70 142 -10 264 -10 C374 -10 404 70 404 70 L408 0 L482 0 L482 488 Z M171 688 L273 571 L359 571 L294 688 L171 688 Z " />
<glyph glyph-name="uacute" unicode="&#xfa;" horiz-adv-x="585" d="M482 488 L404 488 L404 197 C404 85 332 55 283 55 C191 55 181 113 181 197 L181 488 L103 488 L103 177 C103 70 142 -10 264 -10 C374 -10 404 70 404 70 L408 0 L482 0 L482 488 Z M311 688 L246 571 L332 571 L434 688 L311 688 Z " />
<glyph glyph-name="ucircumflex" unicode="&#xfb;" horiz-adv-x="585" d="M482 488 L404 488 L404 197 C404 85 332 55 283 55 C191 55 181 113 181 197 L181 488 L103 488 L103 177 C103 70 142 -10 264 -10 C374 -10 404 70 404 70 L408 0 L482 0 L482 488 Z M237 688 L150 571 L237 571 L290 647 L343 571 L436 571 L349 688 L237 688 Z " />
<glyph glyph-name="udieresis" unicode="&#xfc;" horiz-adv-x="585" d="M482 488 L404 488 L404 197 C404 85 332 55 283 55 C191 55 181 113 181 197 L181 488 L103 488 L103 177 C103 70 142 -10 264 -10 C374 -10 404 70 404 70 L408 0 L482 0 L482 488 Z M153 587 L248 587 L248 688 L153 688 L153 587 Z M334 587 L427 587 L427 688 L334 688 L334 587 Z " />
<glyph glyph-name="yacute" unicode="&#xfd;" horiz-adv-x="585" d="M222 -79 C204 -122 178 -132 133 -132 C111 -132 81 -126 81 -126 L81 -196 C81 -196 111 -203 152 -203 C234 -203 260 -171 312 -46 L535 488 L452 488 L293 89 L135 488 L49 488 L253 -1 L222 -79 Z M299 688 L234 571 L320 571 L422 688 L299 688 Z " />
<glyph glyph-name="thorn" unicode="&#xfe;" horiz-adv-x="585" d="M81 -202 L159 -202 L159 67 C159 67 194 -17 318 -17 C454 -17 525 99 525 254 C525 386 461 505 321 505 C198 505 159 419 159 419 L159 712 L81 712 L81 -202 Z M159 255 C159 346 197 440 307 440 C409 440 447 352 447 254 C447 77 370 47 306 47 C181 47 159 159 159 255 L159 255 Z " />
<glyph glyph-name="ydieresis" unicode="&#xff;" horiz-adv-x="585" d="M222 -79 C204 -122 178 -132 133 -132 C111 -132 81 -126 81 -126 L81 -196 C81 -196 111 -203 152 -203 C234 -203 260 -171 312 -46 L535 488 L452 488 L293 89 L135 488 L49 488 L253 -1 L222 -79 Z M161 587 L256 587 L256 688 L161 688 L161 587 Z M342 587 L435 587 L435 688 L342 688 L342 587 Z " />
<glyph glyph-name="Amacron" unicode="&#x100;" horiz-adv-x="585" d="M466 0 L557 0 L331 712 L252 712 L28 0 L113 0 L167 184 L411 184 L466 0 Z M289 597 L391 252 L187 252 L289 597 Z M155 804 L426 804 L426 876 L155 876 L155 804 Z " />
<glyph glyph-name="amacron" unicode="&#x101;" horiz-adv-x="585" d="M385 294 C385 294 332 298 283 298 C131 298 67 242 67 144 C67 37 134 -10 235 -10 C302 -10 368 18 396 73 L397 66 C401 35 419 -5 478 -5 C499 -5 517 0 517 0 L517 60 L493 60 C467 60 461 81 461 116 L461 339 C461 447 408 505 282 505 C104 505 93 353 93 353 L169 353 C169 353 172 442 280 442 C356 442 385 410 385 336 L385 294 Z M385 194 C385 109 337 55 253 55 C184 55 145 82 145 148 C145 210 181 242 295 242 C342 242 385 239 385 239 L385 194 Z M150 595 L420 595 L420 665 L150 665 L150 595 Z " />
<glyph glyph-name="Abreve" unicode="&#x102;" horiz-adv-x="585" d="M466 0 L557 0 L331 712 L252 712 L28 0 L113 0 L167 184 L411 184 L466 0 Z M289 597 L391 252 L187 252 L289 597 Z M156 898 C156 877 157 778 290 778 C420 778 422 888 422 898 L344 898 C344 885 344 834 290 834 C235 834 235 885 235 898 L156 898 Z " />
<glyph glyph-name="abreve" unicode="&#x103;" horiz-adv-x="585" d="M385 294 C385 294 332 298 283 298 C131 298 67 242 67 144 C67 37 134 -10 235 -10 C302 -10 368 18 396 73 L397 66 C401 35 419 -5 478 -5 C499 -5 517 0 517 0 L517 60 L493 60 C467 60 461 81 461 116 L461 339 C461 447 408 505 282 505 C104 505 93 353 93 353 L169 353 C169 353 172 442 280 442 C356 442 385 410 385 336 L385 294 Z M385 194 C385 109 337 55 253 55 C184 55 145 82 145 148 C145 210 181 242 295 242 C342 242 385 239 385 239 L385 194 Z M152 688 C152 667 153 568 286 568 C416 568 418 678 418 688 L340 688 C340 675 340 624 286 624 C231 624 231 675 231 688 L152 688 Z " />
<glyph glyph-name="Aogonek" unicode="&#x104;" horiz-adv-x="585" d="M584 -135 C584 -135 568 -142 548 -142 C520 -142 494 -129 494 -94 C494 -52 528 -21 557 0 L331 712 L252 712 L28 0 L113 0 L167 184 L411 184 L466 0 L507 0 C457 -30 414 -61 414 -117 C414 -173 467 -193 512 -193 C541 -193 569 -185 584 -174 L584 -135 Z M289 597 L391 252 L187 252 L289 597 Z " />
<glyph glyph-name="aogonek" unicode="&#x105;" horiz-adv-x="585" d="M531 -135 C531 -135 515 -142 495 -142 C467 -142 441 -129 441 -94 C441 -52 475 -21 504 0 L504 60 L480 60 C454 60 448 81 448 116 L448 339 C448 447 395 505 269 505 C91 505 80 353 80 353 L156 353 C156 353 159 442 267 442 C343 442 372 410 372 336 L372 294 C372 294 319 298 270 298 C118 298 54 242 54 144 C54 37 121 -10 222 -10 C289 -10 355 18 383 73 L384 66 C387 38 402 3 447 -4 C400 -33 361 -63 361 -117 C361 -173 414 -193 459 -193 C488 -193 516 -185 531 -174 L531 -135 Z M372 194 C372 109 324 55 240 55 C171 55 132 82 132 148 C132 210 168 242 282 242 C329 242 372 239 372 239 L372 194 Z " />
<glyph glyph-name="Cacute" unicode="&#x106;" horiz-adv-x="585" d="M460 245 C453 177 449 52 302 52 C130 52 123 225 123 356 C123 509 142 661 299 661 C447 661 452 516 454 481 L535 481 C535 538 513 730 301 730 C84 730 40 540 40 357 C40 127 92 -17 300 -17 C505 -17 540 148 541 245 L460 245 Z M307 898 L240 780 L329 780 L433 898 L307 898 Z " />
<glyph glyph-name="cacute" unicode="&#x107;" horiz-adv-x="585" d="M424 163 C419 97 392 48 306 48 C183 48 161 141 161 244 C161 339 184 440 296 440 C393 440 412 369 416 328 L492 328 C492 364 474 505 296 505 C132 505 83 369 83 244 C83 85 146 -17 306 -17 C465 -17 497 98 497 163 L424 163 Z M317 688 L252 571 L338 571 L440 688 L317 688 Z " />
<glyph glyph-name="Ccircumflex" unicode="&#x108;" horiz-adv-x="585" d="M460 245 C453 177 449 52 302 52 C130 52 123 225 123 356 C123 509 142 661 299 661 C447 661 452 516 454 481 L535 481 C535 538 513 730 301 730 C84 730 40 540 40 357 C40 127 92 -17 300 -17 C505 -17 540 148 541 245 L460 245 Z M247 898 L159 780 L249 780 L301 854 L353 780 L448 780 L361 898 L247 898 Z " />
<glyph glyph-name="ccircumflex" unicode="&#x109;" horiz-adv-x="585" d="M424 163 C419 97 392 48 306 48 C183 48 161 141 161 244 C161 339 184 440 296 440 C393 440 412 369 416 328 L492 328 C492 364 474 505 296 505 C132 505 83 369 83 244 C83 85 146 -17 306 -17 C465 -17 497 98 497 163 L424 163 Z M247 688 L160 571 L247 571 L300 647 L353 571 L446 571 L359 688 L247 688 Z " />
<glyph glyph-name="Cdotaccent" unicode="&#x10a;" horiz-adv-x="585" d="M460 245 C453 177 449 52 302 52 C130 52 123 225 123 356 C123 509 142 661 299 661 C447 661 452 516 454 481 L535 481 C535 538 513 730 301 730 C84 730 40 540 40 357 C40 127 92 -17 300 -17 C505 -17 540 148 541 245 L460 245 Z M244 794 L345 794 L345 900 L244 900 L244 794 Z " />
<glyph glyph-name="cdotaccent" unicode="&#x10b;" horiz-adv-x="585" d="M424 163 C419 97 392 48 306 48 C183 48 161 141 161 244 C161 339 184 440 296 440 C393 440 412 369 416 328 L492 328 C492 364 474 505 296 505 C132 505 83 369 83 244 C83 85 146 -17 306 -17 C465 -17 497 98 497 163 L424 163 Z M245 585 L344 585 L344 690 L245 690 L245 585 Z " />
<glyph glyph-name="Ccaron" unicode="&#x10c;" horiz-adv-x="585" d="M460 245 C453 177 449 52 302 52 C130 52 123 225 123 356 C123 509 142 661 299 661 C447 661 452 516 454 481 L535 481 C535 538 513 730 301 730 C84 730 40 540 40 357 C40 127 92 -17 300 -17 C505 -17 540 148 541 245 L460 245 Z M352 780 L439 898 L346 898 L294 825 L242 898 L150 898 L238 780 L352 780 Z " />
<glyph glyph-name="ccaron" unicode="&#x10d;" horiz-adv-x="585" d="M424 163 C419 97 392 48 306 48 C183 48 161 141 161 244 C161 339 184 440 296 440 C393 440 412 369 416 328 L492 328 C492 364 474 505 296 505 C132 505 83 369 83 244 C83 85 146 -17 306 -17 C465 -17 497 98 497 163 L424 163 Z M350 571 L437 688 L344 688 L291 612 L238 688 L151 688 L238 571 L350 571 Z " />
<glyph glyph-name="Dcaron" unicode="&#x10e;" horiz-adv-x="585" d="M59 0 L193 0 C453 0 537 130 537 370 C537 596 460 712 193 712 L59 712 L59 0 Z M139 69 L139 642 L200 642 C404 642 454 560 454 368 C454 142 378 69 195 69 L139 69 Z M281 780 L368 898 L275 898 L223 825 L171 898 L79 898 L167 780 L281 780 Z " />
<glyph glyph-name="dcaron" unicode="&#x10f;" horiz-adv-x="585" d="M411 712 L333 712 L333 437 C333 437 297 505 199 505 C70 505 7 405 7 245 C7 96 50 -10 197 -10 C299 -10 333 67 333 67 L336 0 L411 0 L411 712 Z M333 259 C333 162 314 54 206 54 C142 54 85 80 85 245 C85 330 94 440 205 440 C304 440 333 349 333 259 L333 259 Z M468 616 L519 616 C520 586 503 568 471 564 L471 502 C543 514 577 544 577 641 L577 712 L468 712 L468 616 Z " />
<glyph glyph-name="Dcroat" unicode="&#x110;" horiz-adv-x="585" d="M16 332 L104 332 L104 0 L208 0 C468 0 552 130 552 370 C552 596 475 712 208 712 L104 712 L104 398 L16 398 L16 332 Z M184 69 L184 332 L324 332 L324 398 L184 398 L184 642 L215 642 C419 642 469 560 469 368 C469 142 393 69 210 69 L184 69 Z " />
<glyph glyph-name="dcroat" unicode="&#x111;" horiz-adv-x="585" d="M157 588 L393 588 L393 424 C393 424 355 505 241 505 C106 505 27 406 27 245 C27 98 83 -10 237 -10 C363 -10 393 81 393 81 L396 0 L471 0 L471 588 L547 588 L547 650 L471 650 L471 712 L393 712 L393 650 L157 650 L157 588 Z M393 259 C393 162 360 54 246 54 C177 54 105 80 105 245 C105 330 129 440 245 440 C349 440 393 349 393 259 L393 259 Z " />
<glyph glyph-name="Emacron" unicode="&#x112;" horiz-adv-x="585" d="M79 0 L506 0 L506 69 L159 69 L159 332 L467 332 L467 401 L159 401 L159 643 L503 643 L503 712 L79 712 L79 0 Z M159 804 L430 804 L430 876 L159 876 L159 804 Z " />
<glyph glyph-name="emacron" unicode="&#x113;" horiz-adv-x="585" d="M507 225 C519 372 465 505 296 505 C129 505 75 374 75 235 C75 74 148 -17 304 -17 C468 -17 499 103 501 145 L428 145 C425 125 410 48 303 48 C191 48 153 132 153 225 L507 225 Z M155 286 C164 374 200 440 298 440 C385 440 430 376 430 286 L155 286 Z M161 595 L431 595 L431 665 L161 665 L161 595 Z " />
<glyph glyph-name="Ebreve" unicode="&#x114;" horiz-adv-x="585" d="M79 0 L506 0 L506 69 L159 69 L159 332 L467 332 L467 401 L159 401 L159 643 L503 643 L503 712 L79 712 L79 0 Z M163 898 C163 877 164 778 297 778 C427 778 429 888 429 898 L351 898 C351 885 351 834 297 834 C242 834 242 885 242 898 L163 898 Z " />
<glyph glyph-name="ebreve" unicode="&#x115;" horiz-adv-x="585" d="M507 225 C519 372 465 505 296 505 C129 505 75 374 75 235 C75 74 148 -17 304 -17 C468 -17 499 103 501 145 L428 145 C425 125 410 48 303 48 C191 48 153 132 153 225 L507 225 Z M155 286 C164 374 200 440 298 440 C385 440 430 376 430 286 L155 286 Z M162 688 C162 667 163 568 296 568 C426 568 428 678 428 688 L350 688 C350 675 350 624 296 624 C241 624 241 675 241 688 L162 688 Z " />
<glyph glyph-name="Edotaccent" unicode="&#x116;" horiz-adv-x="585" d="M79 0 L506 0 L506 69 L159 69 L159 332 L467 332 L467 401 L159 401 L159 643 L503 643 L503 712 L79 712 L79 0 Z M249 794 L350 794 L350 900 L249 900 L249 794 Z " />
<glyph glyph-name="edotaccent" unicode="&#x117;" horiz-adv-x="585" d="M507 225 C519 372 465 505 296 505 C129 505 75 374 75 235 C75 74 148 -17 304 -17 C468 -17 499 103 501 145 L428 145 C425 125 410 48 303 48 C191 48 153 132 153 225 L507 225 Z M155 286 C164 374 200 440 298 440 C385 440 430 376 430 286 L155 286 Z M247 585 L346 585 L346 690 L247 690 L247 585 Z " />
<glyph glyph-name="Eogonek" unicode="&#x118;" horiz-adv-x="585" d="M65 0 L442 0 C392 -30 349 -61 349 -117 C349 -173 402 -193 447 -193 C476 -193 504 -185 519 -174 L519 -135 C519 -135 503 -142 483 -142 C455 -142 429 -129 429 -94 C429 -52 463 -21 492 0 L492 69 L145 69 L145 332 L453 332 L453 401 L145 401 L145 643 L489 643 L489 712 L65 712 L65 0 Z " />
<glyph glyph-name="eogonek" unicode="&#x119;" horiz-adv-x="585" d="M424 -135 C424 -135 408 -142 388 -142 C360 -142 334 -129 334 -94 C334 -52 367 -22 395 -1 C480 33 499 112 501 145 L428 145 C425 125 410 48 303 48 C191 48 153 132 153 225 L507 225 C519 372 465 505 296 505 C129 505 75 374 75 235 C75 74 148 -17 304 -17 C309 -17 315 -17 320 -16 C282 -42 254 -71 254 -117 C254 -173 307 -193 352 -193 C381 -193 409 -185 424 -174 L424 -135 Z M155 286 C164 374 200 440 298 440 C385 440 430 376 430 286 L155 286 Z " />
<glyph glyph-name="Ecaron" unicode="&#x11a;" horiz-adv-x="585" d="M79 0 L506 0 L506 69 L159 69 L159 332 L467 332 L467 401 L159 401 L159 643 L503 643 L503 712 L79 712 L79 0 Z M350 780 L437 898 L344 898 L292 825 L240 898 L148 898 L236 780 L350 780 Z " />
<glyph glyph-name="ecaron" unicode="&#x11b;" horiz-adv-x="585" d="M507 225 C519 372 465 505 296 505 C129 505 75 374 75 235 C75 74 148 -17 304 -17 C468 -17 499 103 501 145 L428 145 C425 125 410 48 303 48 C191 48 153 132 153 225 L507 225 Z M155 286 C164 374 200 440 298 440 C385 440 430 376 430 286 L155 286 Z M349 571 L436 688 L343 688 L290 612 L237 688 L150 688 L237 571 L349 571 Z " />
<glyph glyph-name="Gcircumflex" unicode="&#x11c;" horiz-adv-x="585" d="M465 0 L535 0 L535 376 L279 376 L279 305 L456 305 L456 300 C456 171 436 59 298 59 C135 59 122 210 122 356 C122 514 145 660 304 660 C445 660 449 521 449 521 L530 521 C530 521 526 729 305 729 C88 729 40 546 40 356 C40 79 136 -10 293 -10 C428 -10 462 81 462 81 L465 0 Z M244 898 L156 780 L246 780 L298 854 L350 780 L445 780 L358 898 L244 898 Z " />
<glyph glyph-name="gcircumflex" unicode="&#x11d;" horiz-adv-x="585" d="M514 488 L436 488 L436 422 C436 422 396 498 284 498 C129 498 70 368 70 242 C70 108 137 0 280 0 C402 0 435 80 437 84 L437 12 C437 -126 374 -154 299 -154 C173 -154 168 -55 168 -55 L91 -55 C91 -55 85 -219 298 -219 C454 -219 514 -127 514 3 L514 488 Z M436 263 C436 144 393 65 289 65 C231 65 148 90 148 246 C148 357 190 433 288 433 C388 433 436 356 436 263 L436 263 Z M253 688 L166 571 L253 571 L306 647 L359 571 L452 571 L365 688 L253 688 Z " />
<glyph glyph-name="Gbreve" unicode="&#x11e;" horiz-adv-x="585" d="M465 0 L535 0 L535 376 L279 376 L279 305 L456 305 L456 300 C456 171 436 59 298 59 C135 59 122 210 122 356 C122 514 145 660 304 660 C445 660 449 521 449 521 L530 521 C530 521 526 729 305 729 C88 729 40 546 40 356 C40 79 136 -10 293 -10 C428 -10 462 81 462 81 L465 0 Z M167 898 C167 877 168 778 301 778 C431 778 433 888 433 898 L355 898 C355 885 355 834 301 834 C246 834 246 885 246 898 L167 898 Z " />
<glyph glyph-name="gbreve" unicode="&#x11f;" horiz-adv-x="585" d="M514 488 L436 488 L436 422 C436 422 396 498 284 498 C129 498 70 368 70 242 C70 108 137 0 280 0 C402 0 435 80 437 84 L437 12 C437 -126 374 -154 299 -154 C173 -154 168 -55 168 -55 L91 -55 C91 -55 85 -219 298 -219 C454 -219 514 -127 514 3 L514 488 Z M436 263 C436 144 393 65 289 65 C231 65 148 90 148 246 C148 357 190 433 288 433 C388 433 436 356 436 263 L436 263 Z M166 688 C166 667 167 568 300 568 C430 568 432 678 432 688 L354 688 C354 675 354 624 300 624 C245 624 245 675 245 688 L166 688 Z " />
<glyph glyph-name="Gdotaccent" unicode="&#x120;" horiz-adv-x="585" d="M465 0 L535 0 L535 376 L279 376 L279 305 L456 305 L456 300 C456 171 436 59 298 59 C135 59 122 210 122 356 C122 514 145 660 304 660 C445 660 449 521 449 521 L530 521 C530 521 526 729 305 729 C88 729 40 546 40 356 C40 79 136 -10 293 -10 C428 -10 462 81 462 81 L465 0 Z M250 794 L351 794 L351 900 L250 900 L250 794 Z " />
<glyph glyph-name="gdotaccent" unicode="&#x121;" horiz-adv-x="585" d="M514 488 L436 488 L436 422 C436 422 396 498 284 498 C129 498 70 368 70 242 C70 108 137 0 280 0 C402 0 435 80 437 84 L437 12 C437 -126 374 -154 299 -154 C173 -154 168 -55 168 -55 L91 -55 C91 -55 85 -219 298 -219 C454 -219 514 -127 514 3 L514 488 Z M436 263 C436 144 393 65 289 65 C231 65 148 90 148 246 C148 357 190 433 288 433 C388 433 436 356 436 263 L436 263 Z M248 585 L347 585 L347 690 L248 690 L248 585 Z " />
<glyph glyph-name="Gcommaaccent" unicode="&#x122;" horiz-adv-x="585" d="M465 0 L535 0 L535 376 L279 376 L279 305 L456 305 L456 300 C456 171 436 59 298 59 C135 59 122 210 122 356 C122 514 145 660 304 660 C445 660 449 521 449 521 L530 521 C530 521 526 729 305 729 C88 729 40 546 40 356 C40 79 136 -10 293 -10 C428 -10 462 81 462 81 L465 0 Z M239 -149 L290 -149 C291 -179 274 -197 242 -201 L242 -263 C314 -251 348 -221 348 -124 L348 -53 L239 -53 L239 -149 Z " />
<glyph glyph-name="gcommaaccent" unicode="&#x123;" horiz-adv-x="585" d="M514 488 L436 488 L436 422 C436 422 396 498 284 498 C129 498 70 368 70 242 C70 108 137 0 280 0 C402 0 435 80 437 84 L437 12 C437 -126 374 -154 299 -154 C173 -154 168 -55 168 -55 L91 -55 C91 -55 85 -219 298 -219 C454 -219 514 -127 514 3 L514 488 Z M436 263 C436 144 393 65 289 65 C231 65 148 90 148 246 C148 357 190 433 288 433 C388 433 436 356 436 263 L436 263 Z M340 672 L289 672 C288 702 305 720 337 724 L337 786 C265 774 231 744 231 647 L231 576 L340 576 L340 672 Z " />
<glyph glyph-name="Hcircumflex" unicode="&#x124;" horiz-adv-x="585" d="M68 0 L148 0 L148 331 L436 331 L436 0 L516 0 L516 712 L436 712 L436 400 L148 400 L148 712 L68 712 L68 0 Z M235 898 L147 780 L237 780 L289 854 L341 780 L436 780 L349 898 L235 898 Z " />
<glyph glyph-name="hcircumflex" unicode="&#x125;" horiz-adv-x="585" d="M96 0 L174 0 L174 291 C174 403 253 433 302 433 C388 433 410 377 410 291 L410 0 L488 0 L488 324 C488 426 440 498 322 498 C211 498 174 419 174 419 L174 712 L96 712 L96 0 Z M79 872 L-8 755 L79 755 L132 831 L185 755 L278 755 L191 872 L79 872 Z " />
<glyph glyph-name="Hbar" unicode="&#x126;" horiz-adv-x="585" d="M8 536 L89 536 L89 0 L169 0 L169 331 L417 331 L417 0 L497 0 L497 536 L578 536 L578 602 L497 602 L497 712 L417 712 L417 602 L169 602 L169 712 L89 712 L89 602 L8 602 L8 536 Z M169 400 L169 536 L417 536 L417 400 L169 400 Z " />
<glyph glyph-name="hbar" unicode="&#x127;" horiz-adv-x="585" d="M10 588 L96 588 L96 0 L174 0 L174 291 C174 403 253 433 302 433 C388 433 410 377 410 291 L410 0 L488 0 L488 324 C488 426 440 498 322 498 C211 498 174 419 174 419 L174 588 L400 588 L400 650 L174 650 L174 712 L96 712 L96 650 L10 650 L10 588 Z " />
<glyph glyph-name="Itilde" unicode="&#x128;" horiz-adv-x="585" d="M332 643 L482 643 L482 712 L332 712 L252 712 L102 712 L102 643 L252 643 L252 0 L482 0 L482 69 L332 69 L332 643 Z M205 784 C205 800 208 828 235 828 C269 828 298 778 358 778 C422 778 435 837 434 892 L383 892 C383 880 383 844 353 844 C312 844 288 896 233 896 C170 896 149 841 150 784 L205 784 Z M102 0 L252 0 L252 69 L102 69 L102 0 Z " />
<glyph glyph-name="itilde" unicode="&#x129;" horiz-adv-x="585" d="M531 66 L331 66 L331 488 L93 488 L93 422 L253 422 L253 0 L531 0 L531 66 Z M176 574 C176 590 179 618 206 618 C240 618 269 568 329 568 C393 568 406 627 405 682 L354 682 C354 670 354 634 324 634 C283 634 259 686 204 686 C141 686 120 631 121 574 L176 574 Z M253 66 L73 66 L73 0 L253 0 L253 66 Z " />
<glyph glyph-name="Imacron" unicode="&#x12a;" horiz-adv-x="585" d="M335 643 L485 643 L485 712 L335 712 L105 712 L105 643 L255 643 L255 69 L105 69 L105 0 L485 0 L485 69 L335 69 L335 643 Z M157 804 L428 804 L428 876 L157 876 L157 804 Z " />
<glyph glyph-name="imacron" unicode="&#x12b;" horiz-adv-x="585" d="M531 66 L331 66 L331 488 L253 488 L93 488 L93 422 L253 422 L253 0 L531 0 L531 66 Z M129 595 L399 595 L399 665 L129 665 L129 595 Z M253 66 L73 66 L73 0 L253 0 L253 66 Z " />
<glyph glyph-name="Ibreve" unicode="&#x12c;" horiz-adv-x="585" d="M332 643 L482 643 L482 712 L332 712 L102 712 L102 643 L252 643 L252 69 L102 69 L102 0 L482 0 L482 69 L332 69 L332 643 Z M159 898 C159 877 160 778 293 778 C423 778 425 888 425 898 L347 898 C347 885 347 834 293 834 C238 834 238 885 238 898 L159 898 Z " />
<glyph glyph-name="ibreve" unicode="&#x12d;" horiz-adv-x="585" d="M531 66 L331 66 L331 488 L253 488 L93 488 L93 422 L253 422 L253 66 L73 66 L73 0 L531 0 L531 66 Z M138 688 C138 667 139 568 272 568 C402 568 404 678 404 688 L326 688 C326 675 326 624 272 624 C217 624 217 675 217 688 L138 688 Z " />
<glyph glyph-name="Iogonek" unicode="&#x12e;" horiz-adv-x="585" d="M527 -135 C527 -135 511 -142 491 -142 C463 -142 437 -129 437 -94 C437 -52 471 -21 500 0 L500 69 L350 69 L350 643 L500 643 L500 712 L350 712 L270 712 L120 712 L120 643 L270 643 L270 69 L120 69 L120 0 L450 0 C400 -30 357 -61 357 -117 C357 -173 410 -193 455 -193 C484 -193 512 -185 527 -174 L527 -135 Z " />
<glyph glyph-name="iogonek" unicode="&#x12f;" horiz-adv-x="585" d="M576 -135 C576 -135 560 -142 540 -142 C512 -142 486 -129 486 -94 C486 -52 520 -21 549 0 L550 0 L550 66 L350 66 L350 488 L272 488 L112 488 L112 422 L272 422 L272 66 L92 66 L92 0 L499 0 C449 -30 406 -61 406 -117 C406 -173 459 -193 504 -193 C533 -193 561 -185 576 -174 L576 -135 Z M254 611 L349 611 L349 712 L254 712 L254 611 Z " />
<glyph glyph-name="Idotaccent" unicode="&#x130;" horiz-adv-x="585" d="M333 643 L483 643 L483 712 L333 712 L103 712 L103 643 L253 643 L253 69 L103 69 L103 0 L483 0 L483 69 L333 69 L333 643 Z M242 794 L343 794 L343 900 L242 900 L242 794 Z " />
<glyph glyph-name="dotlessi" unicode="&#x131;" horiz-adv-x="585" d="M531 66 L331 66 L331 488 L93 488 L93 422 L253 422 L253 0 L531 0 L531 66 Z M253 66 L73 66 L73 0 L253 0 L253 66 Z " />
<glyph glyph-name="IJ" unicode="&#x132;" horiz-adv-x="585" d="M37 0 L117 0 L117 712 L37 712 L37 0 Z M208 224 C201 86 240 -17 379 -17 C522 -17 547 94 547 223 L547 712 L467 712 L467 238 C467 122 460 51 380 51 C282 51 283 150 283 224 L208 224 Z " />
<glyph glyph-name="ij" unicode="&#x133;" horiz-adv-x="585" d="M112 611 L207 611 L207 712 L112 712 L112 611 Z M130 0 L208 0 L208 488 L130 488 L130 0 Z M235 -200 C235 -200 263 -205 303 -205 C423 -205 454 -132 454 -28 L454 488 L376 488 L376 -34 C376 -109 348 -130 296 -130 C255 -130 235 -127 235 -127 L235 -200 Z M368 611 L463 611 L463 712 L368 712 L368 611 Z " />
<glyph glyph-name="Jcircumflex" unicode="&#x134;" horiz-adv-x="585" d="M20 224 C13 86 57 -17 224 -17 C399 -17 429 94 429 223 L429 712 L349 712 L349 238 C349 122 334 51 225 51 C98 51 95 150 95 224 L20 224 Z M330 898 L242 780 L332 780 L384 854 L436 780 L531 780 L444 898 L330 898 Z " />
<glyph glyph-name="jcircumflex" unicode="&#x135;" horiz-adv-x="585" d="M357 488 L69 488 L69 422 L279 422 L279 -34 C279 -109 266 -130 199 -130 C148 -130 98 -110 98 -110 L98 -183 C98 -183 146 -205 206 -205 C347 -205 357 -132 357 -28 L357 488 Z M227 688 L140 571 L227 571 L280 647 L333 571 L426 571 L339 688 L227 688 Z " />
<glyph glyph-name="Kcommaaccent" unicode="&#x136;" horiz-adv-x="585" d="M524 712 L433 712 L148 350 L148 712 L68 712 L68 0 L148 0 L148 238 L240 355 L458 0 L554 0 L291 418 L524 712 Z M226 -149 L277 -149 C278 -179 261 -197 229 -201 L229 -263 C301 -251 335 -221 335 -124 L335 -53 L226 -53 L226 -149 Z " />
<glyph glyph-name="kcommaaccent" unicode="&#x137;" horiz-adv-x="585" d="M504 488 L406 488 L172 275 L172 712 L94 712 L94 0 L172 0 L172 184 L271 275 L441 0 L536 0 L328 327 L504 488 Z M244 -149 L295 -149 C296 -179 279 -197 247 -201 L247 -263 C319 -251 353 -221 353 -124 L353 -53 L244 -53 L244 -149 Z " />
<glyph glyph-name="kgreenlandic" unicode="&#x138;" horiz-adv-x="585" d="M462 488 L366 488 L172 267 L172 487 L94 487 L94 0 L172 0 L172 170 L242 247 L395 0 L490 0 L295 305 L462 488 Z " />
<glyph glyph-name="Lacute" unicode="&#x139;" horiz-adv-x="585" d="M102 0 L512 0 L512 69 L182 69 L182 712 L102 712 L102 0 Z M172 898 L105 780 L194 780 L298 898 L172 898 Z " />
<glyph glyph-name="lacute" unicode="&#x13a;" horiz-adv-x="585" d="M511 66 L331 66 L331 712 L253 712 L93 712 L93 646 L253 646 L253 0 L511 0 L511 66 Z M319 874 L254 757 L340 757 L442 874 L319 874 Z M253 66 L73 66 L73 0 L253 0 L253 66 Z " />
<glyph glyph-name="Lcommaaccent" unicode="&#x13b;" horiz-adv-x="585" d="M102 0 L512 0 L512 69 L182 69 L182 712 L102 712 L102 0 Z M260 -149 L311 -149 C312 -179 295 -197 263 -201 L263 -263 C335 -251 369 -221 369 -124 L369 -53 L260 -53 L260 -149 Z " />
<glyph glyph-name="lcommaaccent" unicode="&#x13c;" horiz-adv-x="585" d="M511 66 L331 66 L331 712 L253 712 L93 712 L93 646 L253 646 L253 66 L73 66 L73 0 L511 0 L511 66 Z M236 -149 L287 -149 C288 -179 271 -197 239 -201 L239 -263 C311 -251 345 -221 345 -124 L345 -53 L236 -53 L236 -149 Z " />
<glyph glyph-name="Lcaron" unicode="&#x13d;" horiz-adv-x="585" d="M102 0 L512 0 L512 69 L182 69 L182 712 L102 712 L102 0 Z M278 616 L329 616 C330 586 313 568 281 564 L281 502 C353 514 387 544 387 641 L387 712 L278 712 L278 616 Z " />
<glyph glyph-name="lcaron" unicode="&#x13e;" horiz-adv-x="585" d="M511 66 L331 66 L331 712 L253 712 L93 712 L93 646 L253 646 L253 0 L511 0 L511 66 Z M391 616 L442 616 C443 586 426 568 394 564 L394 502 C466 514 500 544 500 641 L500 712 L391 712 L391 616 Z M253 66 L73 66 L73 0 L253 0 L253 66 Z " />
<glyph glyph-name="Ldot" unicode="&#x13f;" horiz-adv-x="585" d="M102 0 L512 0 L512 69 L182 69 L182 712 L102 712 L102 0 Z M349 328 L478 328 L478 442 L349 442 L349 328 Z " />
<glyph glyph-name="ldot" unicode="&#x140;" horiz-adv-x="585" d="M511 66 L331 66 L331 712 L253 712 L93 712 L93 646 L253 646 L253 0 L511 0 L511 66 Z M510 317 L639 317 L639 431 L510 431 L510 317 Z M253 66 L73 66 L73 0 L253 0 L253 66 Z " />
<glyph glyph-name="Lslash" unicode="&#x141;" horiz-adv-x="585" d="M146 0 L556 0 L556 69 L226 69 L226 303 L387 431 L387 517 L226 389 L226 712 L146 712 L146 334 L59 266 L59 180 L146 248 L146 0 Z " />
<glyph glyph-name="lslash" unicode="&#x142;" horiz-adv-x="585" d="M511 66 L331 66 L331 334 L447 427 L447 512 L331 419 L331 712 L253 712 L93 712 L93 646 L253 646 L253 362 L140 274 L140 188 L253 277 L253 0 L511 0 L511 66 Z M253 66 L73 66 L73 0 L253 0 L253 66 Z " />
<glyph glyph-name="Nacute" unicode="&#x143;" horiz-adv-x="585" d="M67 0 L147 0 L147 567 L432 0 L518 0 L518 712 L438 712 L438 161 L157 712 L67 712 L67 0 Z M318 898 L251 780 L340 780 L444 898 L318 898 Z " />
<glyph glyph-name="nacute" unicode="&#x144;" horiz-adv-x="585" d="M96 0 L174 0 L174 291 C174 403 253 433 302 433 C387 433 410 377 410 291 L410 0 L488 0 L488 324 C488 426 440 498 322 498 C211 498 174 419 174 419 L171 488 L96 488 L96 0 Z M310 688 L245 571 L331 571 L433 688 L310 688 Z " />
<glyph glyph-name="Ncommaaccent" unicode="&#x145;" horiz-adv-x="585" d="M67 0 L147 0 L147 567 L432 0 L518 0 L518 712 L438 712 L438 161 L157 712 L67 712 L67 0 Z M248 -149 L299 -149 C300 -179 283 -197 251 -201 L251 -263 C323 -251 357 -221 357 -124 L357 -53 L248 -53 L248 -149 Z " />
<glyph glyph-name="ncommaaccent" unicode="&#x146;" horiz-adv-x="585" d="M96 0 L174 0 L174 291 C174 403 253 433 302 433 C387 433 410 377 410 291 L410 0 L488 0 L488 324 C488 426 440 498 322 498 C211 498 174 419 174 419 L171 488 L96 488 L96 0 Z M236 -149 L287 -149 C288 -179 271 -197 239 -201 L239 -263 C311 -251 345 -221 345 -124 L345 -53 L236 -53 L236 -149 Z " />
<glyph glyph-name="Ncaron" unicode="&#x147;" horiz-adv-x="585" d="M67 0 L147 0 L147 567 L432 0 L518 0 L518 712 L438 712 L438 161 L157 712 L67 712 L67 0 Z M350 780 L437 898 L344 898 L292 825 L240 898 L148 898 L236 780 L350 780 Z " />
<glyph glyph-name="ncaron" unicode="&#x148;" horiz-adv-x="585" d="M96 0 L174 0 L174 291 C174 403 253 433 302 433 C387 433 410 377 410 291 L410 0 L488 0 L488 324 C488 426 440 498 322 498 C211 498 174 419 174 419 L171 488 L96 488 L96 0 Z M354 571 L441 688 L348 688 L295 612 L242 688 L155 688 L242 571 L354 571 Z " />
<glyph glyph-name="napostrophe" unicode="&#x149;" horiz-adv-x="585" d="M134 0 L212 0 L212 291 C212 403 291 433 340 433 C425 433 448 377 448 291 L448 0 L526 0 L526 324 C526 426 478 498 360 498 C249 498 212 419 212 419 L209 488 L134 488 L134 0 Z M58 626 L109 626 C110 596 93 578 61 574 L61 512 C133 524 167 554 167 651 L167 722 L58 722 L58 626 Z " />
<glyph glyph-name="Eng" unicode="&#x14a;" horiz-adv-x="585" d="M438 0 L438 -18 C438 -105 428 -150 365 -150 C302 -150 287 -112 282 -57 L207 -57 C207 -125 231 -219 360 -219 C504 -219 518 -125 518 0 L518 712 L438 712 L438 161 L157 712 L67 712 L67 0 L147 0 L147 567 L438 0 Z " />
<glyph glyph-name="eng" unicode="&#x14b;" horiz-adv-x="585" d="M318 -202 C318 -202 341 -205 364 -205 C485 -205 488 -120 488 -28 L488 324 C488 426 440 498 322 498 C211 498 174 419 174 419 L171 488 L96 488 L96 0 L174 0 L174 291 C174 403 253 433 302 433 C387 433 410 377 410 291 L410 -40 C410 -115 410 -136 330 -136 L318 -136 L318 -202 Z " />
<glyph glyph-name="Omacron" unicode="&#x14c;" horiz-adv-x="585" d="M40 356 C40 52 159 -17 293 -17 C427 -17 546 56 546 356 C546 639 432 729 293 729 C159 729 40 641 40 356 L40 356 Z M123 356 C123 588 187 660 293 660 C398 660 463 588 463 356 C463 113 399 52 293 52 C192 52 123 113 123 356 L123 356 Z M157 804 L428 804 L428 876 L157 876 L157 804 Z " />
<glyph glyph-name="omacron" unicode="&#x14d;" horiz-adv-x="585" d="M72 244 C72 50 165 -17 293 -17 C416 -17 513 56 513 244 C513 435 415 505 293 505 C171 505 72 424 72 244 L72 244 Z M150 244 C150 384 206 440 293 440 C380 440 435 387 435 244 C435 98 382 48 293 48 C204 48 150 100 150 244 L150 244 Z M158 595 L428 595 L428 665 L158 665 L158 595 Z " />
<glyph glyph-name="Obreve" unicode="&#x14e;" horiz-adv-x="585" d="M40 356 C40 52 159 -17 293 -17 C427 -17 546 56 546 356 C546 639 432 729 293 729 C159 729 40 641 40 356 L40 356 Z M123 356 C123 588 187 660 293 660 C398 660 463 588 463 356 C463 113 399 52 293 52 C192 52 123 113 123 356 L123 356 Z M160 898 C160 877 161 778 294 778 C424 778 426 888 426 898 L348 898 C348 885 348 834 294 834 C239 834 239 885 239 898 L160 898 Z " />
<glyph glyph-name="obreve" unicode="&#x14f;" horiz-adv-x="585" d="M72 244 C72 50 165 -17 293 -17 C416 -17 513 56 513 244 C513 435 415 505 293 505 C171 505 72 424 72 244 L72 244 Z M150 244 C150 384 206 440 293 440 C380 440 435 387 435 244 C435 98 382 48 293 48 C204 48 150 100 150 244 L150 244 Z M160 688 C160 667 161 568 294 568 C424 568 426 678 426 688 L348 688 C348 675 348 624 294 624 C239 624 239 675 239 688 L160 688 Z " />
<glyph glyph-name="Ohungarumlaut" unicode="&#x150;" horiz-adv-x="585" d="M40 356 C40 52 159 -17 293 -17 C427 -17 546 56 546 356 C546 639 432 729 293 729 C159 729 40 641 40 356 L40 356 Z M123 356 C123 588 187 660 293 660 C398 660 463 588 463 356 C463 113 399 52 293 52 C192 52 123 113 123 356 L123 356 Z M220 898 L153 780 L242 780 L346 898 L220 898 Z M408 898 L341 780 L429 780 L533 898 L408 898 Z " />
<glyph glyph-name="ohungarumlaut" unicode="&#x151;" horiz-adv-x="585" d="M57 244 C57 50 150 -17 278 -17 C401 -17 498 56 498 244 C498 435 400 505 278 505 C156 505 57 424 57 244 L57 244 Z M135 244 C135 384 191 440 278 440 C365 440 420 387 420 244 C420 98 367 48 278 48 C189 48 135 100 135 244 L135 244 Z M217 688 L152 571 L238 571 L340 688 L217 688 Z M405 688 L340 571 L426 571 L528 688 L405 688 Z " />
<glyph glyph-name="OE" unicode="&#x152;" horiz-adv-x="585" d="M562 0 L562 69 L418 69 L418 332 L545 332 L545 401 L418 401 L418 643 L559 643 L559 712 L337 712 C337 712 283 725 245 725 C113 725 42 619 42 356 C42 71 98 -10 243 -10 C291 -10 340 0 340 0 L562 0 Z M125 356 C125 554 155 656 262 656 C305 656 337 641 337 641 L337 69 C337 69 316 58 265 58 C152 58 125 135 125 356 L125 356 Z " />
<glyph glyph-name="oe" unicode="&#x153;" horiz-adv-x="585" d="M21 248 C21 66 49 -17 176 -17 C268 -17 293 67 294 71 C296 63 316 -17 424 -17 C555 -17 555 132 555 134 L488 134 C488 132 488 46 423 46 C339 46 332 133 332 225 L563 225 C564 247 565 270 565 292 C565 408 539 505 415 505 C318 505 295 427 294 421 C292 429 269 505 176 505 C56 505 21 410 21 248 L21 248 Z M99 248 C99 378 107 440 176 440 C245 440 254 375 254 248 C254 116 247 48 176 48 C105 48 99 116 99 248 L99 248 Z M334 286 C338 373 342 442 415 442 C483 442 487 377 487 286 L334 286 Z " />
<glyph glyph-name="Racute" unicode="&#x154;" horiz-adv-x="585" d="M81 0 L161 0 L161 307 L273 307 L428 0 L522 0 L355 315 C450 338 504 396 504 522 C504 678 401 712 275 712 L81 712 L81 0 Z M161 376 L161 643 L272 643 C352 643 421 634 421 519 C421 398 358 376 271 376 L161 376 Z M284 898 L217 780 L306 780 L410 898 L284 898 Z " />
<glyph glyph-name="racute" unicode="&#x155;" horiz-adv-x="585" d="M110 0 L188 0 L188 284 C188 362 214 430 307 430 C400 430 402 342 402 342 L486 342 C486 343 481 499 326 499 C264 499 209 473 185 418 L179 488 L110 488 L110 0 Z M291 688 L226 571 L312 571 L414 688 L291 688 Z " />
<glyph glyph-name="Rcommaaccent" unicode="&#x156;" horiz-adv-x="585" d="M81 0 L161 0 L161 307 L273 307 L428 0 L522 0 L355 315 C450 338 504 396 504 522 C504 678 401 712 275 712 L81 712 L81 0 Z M161 376 L161 643 L272 643 C352 643 421 634 421 519 C421 398 358 376 271 376 L161 376 Z M233 -149 L284 -149 C285 -179 268 -197 236 -201 L236 -263 C308 -251 342 -221 342 -124 L342 -53 L233 -53 L233 -149 Z " />
<glyph glyph-name="rcommaaccent" unicode="&#x157;" horiz-adv-x="585" d="M124 0 L202 0 L202 284 C202 362 228 430 321 430 C414 430 416 342 416 342 L500 342 C500 343 495 499 340 499 C278 499 223 473 199 418 L193 488 L124 488 L124 0 Z M108 -149 L159 -149 C160 -179 143 -197 111 -201 L111 -263 C183 -251 217 -221 217 -124 L217 -53 L108 -53 L108 -149 Z " />
<glyph glyph-name="Rcaron" unicode="&#x158;" horiz-adv-x="585" d="M81 0 L161 0 L161 307 L273 307 L428 0 L522 0 L355 315 C450 338 504 396 504 522 C504 678 401 712 275 712 L81 712 L81 0 Z M161 376 L161 643 L272 643 C352 643 421 634 421 519 C421 398 358 376 271 376 L161 376 Z M317 780 L404 898 L311 898 L259 825 L207 898 L115 898 L203 780 L317 780 Z " />
<glyph glyph-name="rcaron" unicode="&#x159;" horiz-adv-x="585" d="M130 0 L208 0 L208 284 C208 362 234 430 327 430 C420 430 422 342 422 342 L506 342 C506 343 501 499 346 499 C284 499 229 473 205 418 L199 488 L130 488 L130 0 Z M348 571 L435 688 L342 688 L289 612 L236 688 L149 688 L236 571 L348 571 Z " />
<glyph glyph-name="Sacute" unicode="&#x15a;" horiz-adv-x="585" d="M58 225 C58 93 129 -17 312 -17 C452 -17 531 54 531 183 C531 425 166 359 165 543 C165 619 206 660 288 660 C389 660 422 590 427 509 L507 509 C505 623 444 730 289 730 C153 730 82 653 82 541 C82 293 448 368 448 181 C448 95 407 53 312 53 C200 53 140 115 135 225 L58 225 Z M310 898 L243 780 L332 780 L436 898 L310 898 Z " />
<glyph glyph-name="sacute" unicode="&#x15b;" horiz-adv-x="585" d="M92 152 C95 72 140 -13 304 -13 C421 -13 489 24 489 128 C489 316 191 239 191 370 C191 419 226 442 283 442 C376 442 393 386 395 345 L472 345 C472 387 459 505 284 505 C161 505 113 441 113 367 C113 173 410 252 410 123 C410 72 379 50 310 50 C203 50 170 103 168 152 L92 152 Z M301 688 L236 571 L322 571 L424 688 L301 688 Z " />
<glyph glyph-name="Scircumflex" unicode="&#x15c;" horiz-adv-x="585" d="M58 225 C58 93 129 -17 312 -17 C452 -17 531 54 531 183 C531 425 166 359 165 543 C165 619 206 660 288 660 C389 660 422 590 427 509 L507 509 C505 623 444 730 289 730 C153 730 82 653 82 541 C82 293 448 368 448 181 C448 95 407 53 312 53 C200 53 140 115 135 225 L58 225 Z M245 898 L157 780 L247 780 L299 854 L351 780 L446 780 L359 898 L245 898 Z " />
<glyph glyph-name="scircumflex" unicode="&#x15d;" horiz-adv-x="585" d="M92 152 C95 72 140 -13 304 -13 C421 -13 489 24 489 128 C489 316 191 239 191 370 C191 419 226 442 283 442 C376 442 393 386 395 345 L472 345 C472 387 459 505 284 505 C161 505 113 441 113 367 C113 173 410 252 410 123 C410 72 379 50 310 50 C203 50 170 103 168 152 L92 152 Z M238 688 L151 571 L238 571 L291 647 L344 571 L437 571 L350 688 L238 688 Z " />
<glyph glyph-name="Scedilla" unicode="&#x15e;" horiz-adv-x="585" d="M208 -224 C221 -226 236 -227 250 -227 C321 -227 396 -203 396 -127 C396 -100 380 -59 314 -59 C309 -59 302 -59 296 -60 L314 -17 C453 -16 531 55 531 183 C531 425 166 359 165 543 C165 619 206 660 288 660 C389 660 422 590 427 509 L507 509 C505 623 444 730 289 730 C153 730 82 653 82 541 C82 293 448 368 448 181 C448 95 407 53 312 53 C200 53 140 115 135 225 L58 225 C58 104 117 2 266 -14 L230 -88 L245 -105 C255 -102 267 -100 278 -100 C302 -100 321 -108 321 -134 C321 -174 283 -188 243 -188 C228 -188 219 -187 219 -187 L208 -224 Z " />
<glyph glyph-name="scedilla" unicode="&#x15f;" horiz-adv-x="585" d="M215 -224 C228 -226 243 -227 257 -227 C328 -227 403 -203 403 -127 C403 -100 387 -59 321 -59 C316 -59 309 -59 303 -60 L323 -12 C428 -8 489 30 489 128 C489 316 191 239 191 370 C191 419 226 442 283 442 C376 442 393 386 395 345 L472 345 C472 387 459 505 284 505 C161 505 113 441 113 367 C113 173 410 252 410 123 C410 72 379 50 310 50 C203 50 170 103 168 152 L92 152 C95 77 134 -2 274 -12 L237 -88 L252 -105 C262 -102 274 -100 285 -100 C309 -100 328 -108 328 -134 C328 -174 290 -188 250 -188 C235 -188 226 -187 226 -187 L215 -224 Z " />
<glyph glyph-name="Scaron" unicode="&#x160;" horiz-adv-x="585" d="M58 225 C58 93 129 -17 312 -17 C452 -17 531 54 531 183 C531 425 166 359 165 543 C165 619 206 660 288 660 C389 660 422 590 427 509 L507 509 C505 623 444 730 289 730 C153 730 82 653 82 541 C82 293 448 368 448 181 C448 95 407 53 312 53 C200 53 140 115 135 225 L58 225 Z M350 780 L437 898 L344 898 L292 825 L240 898 L148 898 L236 780 L350 780 Z " />
<glyph glyph-name="scaron" unicode="&#x161;" horiz-adv-x="585" d="M92 152 C95 72 140 -13 304 -13 C421 -13 489 24 489 128 C489 316 191 239 191 370 C191 419 226 442 283 442 C376 442 393 386 395 345 L472 345 C472 387 459 505 284 505 C161 505 113 441 113 367 C113 173 410 252 410 123 C410 72 379 50 310 50 C203 50 170 103 168 152 L92 152 Z M346 571 L433 688 L340 688 L287 612 L234 688 L147 688 L234 571 L346 571 Z " />
<glyph glyph-name="Tcedilla" unicode="&#x162;" horiz-adv-x="585" d="M252 0 L269 0 L226 -88 L241 -105 C251 -102 263 -100 274 -100 C298 -100 317 -108 317 -134 C317 -174 279 -188 239 -188 C224 -188 215 -187 215 -187 L204 -224 C217 -226 232 -227 246 -227 C317 -227 392 -203 392 -127 C392 -100 376 -59 310 -59 C305 -59 298 -59 292 -60 L318 0 L331 0 L331 643 L544 643 L544 712 L40 712 L40 643 L252 643 L252 0 Z " />
<glyph glyph-name="tcommaaccent" unicode="&#x163;" horiz-adv-x="585" d="M204 151 C204 42 247 -11 352 -11 C440 -11 492 15 492 15 L492 83 C492 83 442 62 372 62 C299 62 281 94 281 173 L281 422 L477 422 L477 488 L281 488 L281 638 L204 618 L204 488 L47 488 L47 422 L204 422 L204 151 Z M287 -149 L338 -149 C339 -179 322 -197 290 -201 L290 -263 C362 -251 396 -221 396 -124 L396 -53 L287 -53 L287 -149 Z " />
<glyph glyph-name="Tcaron" unicode="&#x164;" horiz-adv-x="585" d="M252 0 L331 0 L331 643 L544 643 L544 712 L40 712 L40 643 L252 643 L252 0 Z M349 780 L436 898 L343 898 L291 825 L239 898 L147 898 L235 780 L349 780 Z " />
<glyph glyph-name="tcaron" unicode="&#x165;" horiz-adv-x="585" d="M204 151 C204 42 247 -11 352 -11 C440 -11 492 15 492 15 L492 83 C492 83 442 62 372 62 C299 62 281 94 281 173 L281 422 L477 422 L477 488 L281 488 L281 638 L204 618 L204 488 L47 488 L47 422 L204 422 L204 151 Z M356 656 L407 656 C408 626 391 608 359 604 L359 542 C431 554 465 584 465 681 L465 752 L356 752 L356 656 Z " />
<glyph glyph-name="Tbar" unicode="&#x166;" horiz-adv-x="585" d="M97 325 L252 325 L252 0 L331 0 L331 325 L487 325 L487 392 L331 392 L331 643 L544 643 L544 712 L40 712 L40 643 L252 643 L252 392 L97 392 L97 325 Z " />
<glyph glyph-name="tbar" unicode="&#x167;" horiz-adv-x="585" d="M77 241 L204 241 L204 151 C204 42 247 -11 352 -11 C440 -11 492 15 492 15 L492 83 C492 83 442 62 372 62 C299 62 281 94 281 173 L281 241 L431 241 L431 306 L281 306 L281 422 L477 422 L477 488 L281 488 L281 638 L204 618 L204 488 L47 488 L47 422 L204 422 L204 306 L77 306 L77 241 Z " />
<glyph glyph-name="Utilde" unicode="&#x168;" horiz-adv-x="585" d="M64 246 C64 63 127 -16 292 -16 C450 -16 524 63 524 246 L524 712 L445 712 L445 246 C445 88 381 53 292 53 C203 53 144 94 144 252 L144 712 L64 712 L64 246 Z M205 784 C205 800 208 828 235 828 C269 828 298 778 358 778 C422 778 435 837 434 892 L383 892 C383 880 383 844 353 844 C312 844 288 896 233 896 C170 896 149 841 150 784 L205 784 Z " />
<glyph glyph-name="utilde" unicode="&#x169;" horiz-adv-x="585" d="M482 488 L404 488 L404 197 C404 85 332 55 283 55 C191 55 181 113 181 197 L181 488 L103 488 L103 177 C103 70 142 -10 264 -10 C374 -10 404 70 404 70 L408 0 L482 0 L482 488 Z M206 574 C206 590 209 618 236 618 C270 618 299 568 359 568 C423 568 436 627 435 682 L384 682 C384 670 384 634 354 634 C313 634 289 686 234 686 C171 686 150 631 151 574 L206 574 Z " />
<glyph glyph-name="Umacron" unicode="&#x16a;" horiz-adv-x="585" d="M64 246 C64 63 127 -16 292 -16 C450 -16 524 63 524 246 L524 712 L445 712 L445 246 C445 88 381 53 292 53 C203 53 144 94 144 252 L144 712 L64 712 L64 246 Z M156 804 L427 804 L427 876 L156 876 L156 804 Z " />
<glyph glyph-name="umacron" unicode="&#x16b;" horiz-adv-x="585" d="M482 488 L404 488 L404 197 C404 85 332 55 283 55 C191 55 181 113 181 197 L181 488 L103 488 L103 177 C103 70 142 -10 264 -10 C374 -10 404 70 404 70 L408 0 L482 0 L482 488 Z M158 595 L428 595 L428 665 L158 665 L158 595 Z " />
<glyph glyph-name="Ubreve" unicode="&#x16c;" horiz-adv-x="585" d="M64 246 C64 63 127 -16 292 -16 C450 -16 524 63 524 246 L524 712 L445 712 L445 246 C445 88 381 53 292 53 C203 53 144 94 144 252 L144 712 L64 712 L64 246 Z M159 898 C159 877 160 778 293 778 C423 778 425 888 425 898 L347 898 C347 885 347 834 293 834 C238 834 238 885 238 898 L159 898 Z " />
<glyph glyph-name="ubreve" unicode="&#x16d;" horiz-adv-x="585" d="M482 488 L404 488 L404 197 C404 85 332 55 283 55 C191 55 181 113 181 197 L181 488 L103 488 L103 177 C103 70 142 -10 264 -10 C374 -10 404 70 404 70 L408 0 L482 0 L482 488 Z M160 688 C160 667 161 568 294 568 C424 568 426 678 426 688 L348 688 C348 675 348 624 294 624 C239 624 239 675 239 688 L160 688 Z " />
<glyph glyph-name="Uring" unicode="&#x16e;" horiz-adv-x="585" d="M64 246 C64 63 127 -16 292 -16 C450 -16 524 63 524 246 L524 712 L445 712 L445 246 C445 88 381 53 292 53 C203 53 144 94 144 252 L144 712 L64 712 L64 246 Z M180 839 C180 777 230 735 292 735 C354 735 404 777 404 839 C404 900 354 943 292 943 C230 943 180 900 180 839 L180 839 Z M238 839 C238 868 258 892 292 892 C326 892 346 868 346 839 C346 810 326 785 292 785 C258 785 238 810 238 839 L238 839 Z " />
<glyph glyph-name="uring" unicode="&#x16f;" horiz-adv-x="585" d="M482 488 L404 488 L404 197 C404 85 332 55 283 55 C191 55 181 113 181 197 L181 488 L103 488 L103 177 C103 70 142 -10 264 -10 C374 -10 404 70 404 70 L408 0 L482 0 L482 488 Z M182 653 C182 592 232 550 293 550 C354 550 404 592 404 653 C404 714 354 757 293 757 C232 757 182 714 182 653 L182 653 Z M238 653 C238 683 258 708 293 708 C328 708 348 683 348 653 C348 623 328 598 293 598 C258 598 238 623 238 653 L238 653 Z " />
<glyph glyph-name="Uhungarumlaut" unicode="&#x170;" horiz-adv-x="585" d="M64 246 C64 63 127 -16 292 -16 C450 -16 524 63 524 246 L524 712 L445 712 L445 246 C445 88 381 53 292 53 C203 53 144 94 144 252 L144 712 L64 712 L64 246 Z M216 898 L149 780 L238 780 L342 898 L216 898 Z M404 898 L337 780 L425 780 L529 898 L404 898 Z " />
<glyph glyph-name="uhungarumlaut" unicode="&#x171;" horiz-adv-x="585" d="M482 488 L404 488 L404 197 C404 85 332 55 283 55 C191 55 181 113 181 197 L181 488 L103 488 L103 177 C103 70 142 -10 264 -10 C374 -10 404 70 404 70 L408 0 L482 0 L482 488 Z M216 688 L151 571 L237 571 L339 688 L216 688 Z M404 688 L339 571 L425 571 L527 688 L404 688 Z " />
<glyph glyph-name="Uogonek" unicode="&#x172;" horiz-adv-x="585" d="M422 -135 C422 -135 406 -142 386 -142 C358 -142 332 -129 332 -94 C332 -53 363 -23 392 -2 C481 28 524 107 524 246 L524 712 L445 712 L445 246 C445 88 381 53 292 53 C203 53 144 94 144 252 L144 712 L64 712 L64 246 C64 63 127 -16 292 -16 C302 -16 311 -15 321 -15 C282 -41 252 -70 252 -117 C252 -173 305 -193 350 -193 C379 -193 407 -185 422 -174 L422 -135 Z " />
<glyph glyph-name="uogonek" unicode="&#x173;" horiz-adv-x="585" d="M509 -135 C509 -135 493 -142 473 -142 C445 -142 419 -129 419 -94 C419 -52 453 -21 482 0 L482 488 L404 488 L404 197 C404 85 332 55 283 55 C191 55 181 113 181 197 L181 488 L103 488 L103 177 C103 70 142 -10 264 -10 C374 -10 404 70 404 70 L408 0 L432 0 C382 -30 339 -61 339 -117 C339 -173 392 -193 437 -193 C466 -193 494 -185 509 -174 L509 -135 Z " />
<glyph glyph-name="Wcircumflex" unicode="&#x174;" horiz-adv-x="585" d="M172 0 L294 427 L406 0 L500 0 L568 712 L490 712 L444 150 L347 512 L246 512 L141 150 L99 712 L17 712 L79 0 L172 0 Z M236 898 L148 780 L238 780 L290 854 L342 780 L437 780 L350 898 L236 898 Z " />
<glyph glyph-name="wcircumflex" unicode="&#x175;" horiz-adv-x="585" d="M185 0 L294 301 L386 0 L473 0 L561 488 L479 488 L423 108 L340 378 L256 378 L156 108 L110 488 L25 488 L101 0 L185 0 Z M237 688 L150 571 L237 571 L290 647 L343 571 L436 571 L349 688 L237 688 Z " />
<glyph glyph-name="Ycircumflex" unicode="&#x176;" horiz-adv-x="585" d="M249 0 L329 0 L329 294 L548 712 L461 712 L292 373 L129 712 L37 712 L249 294 L249 0 Z M236 898 L148 780 L238 780 L290 854 L342 780 L437 780 L350 898 L236 898 Z " />
<glyph glyph-name="ycircumflex" unicode="&#x177;" horiz-adv-x="585" d="M222 -79 C204 -122 178 -132 133 -132 C111 -132 81 -126 81 -126 L81 -196 C81 -196 111 -203 152 -203 C234 -203 260 -171 312 -46 L535 488 L452 488 L293 89 L135 488 L49 488 L253 -1 L222 -79 Z M243 688 L156 571 L243 571 L296 647 L349 571 L442 571 L355 688 L243 688 Z " />
<glyph glyph-name="Ydieresis" unicode="&#x178;" horiz-adv-x="585" d="M249 0 L329 0 L329 294 L548 712 L461 712 L292 373 L129 712 L37 712 L249 294 L249 0 Z M155 796 L252 796 L252 898 L155 898 L155 796 Z M336 796 L430 796 L430 898 L336 898 L336 796 Z " />
<glyph glyph-name="Zacute" unicode="&#x179;" horiz-adv-x="585" d="M53 0 L520 0 L520 69 L141 69 L531 643 L531 712 L86 712 L86 642 L442 642 L53 67 L53 0 Z M327 898 L260 780 L349 780 L453 898 L327 898 Z " />
<glyph glyph-name="zacute" unicode="&#x17a;" horiz-adv-x="585" d="M81 0 L501 0 L501 66 L182 66 L503 431 L503 488 L109 488 L109 423 L401 423 L81 56 L81 0 Z M326 688 L261 571 L347 571 L449 688 L326 688 Z " />
<glyph glyph-name="Zdotaccent" unicode="&#x17b;" horiz-adv-x="585" d="M53 0 L520 0 L520 69 L141 69 L531 643 L531 712 L86 712 L86 642 L442 642 L53 67 L53 0 Z M266 794 L367 794 L367 900 L266 900 L266 794 Z " />
<glyph glyph-name="zdotaccent" unicode="&#x17c;" horiz-adv-x="585" d="M81 0 L501 0 L501 66 L182 66 L503 431 L503 488 L109 488 L109 423 L401 423 L81 56 L81 0 Z M259 585 L358 585 L358 690 L259 690 L259 585 Z " />
<glyph glyph-name="Zcaron" unicode="&#x17d;" horiz-adv-x="585" d="M53 0 L520 0 L520 69 L141 69 L531 643 L531 712 L86 712 L86 642 L442 642 L53 67 L53 0 Z M374 780 L461 898 L368 898 L316 825 L264 898 L172 898 L260 780 L374 780 Z " />
<glyph glyph-name="zcaron" unicode="&#x17e;" horiz-adv-x="585" d="M81 0 L501 0 L501 66 L182 66 L503 431 L503 488 L109 488 L109 423 L401 423 L81 56 L81 0 Z M369 571 L456 688 L363 688 L310 612 L257 688 L170 688 L257 571 L369 571 Z " />
<glyph glyph-name="florin" unicode="&#x192;" horiz-adv-x="585" d="M541 726 C541 726 520 732 489 732 C363 732 334 654 306 532 L281 422 L158 422 L158 356 L267 356 L199 48 C180 -36 179 -88 95 -88 C83 -88 70 -87 55 -85 L43 -148 C43 -148 69 -155 104 -155 C209 -155 251 -90 274 17 L348 356 L488 356 L488 422 L362 422 L387 534 C400 594 401 663 496 663 C514 663 529 661 529 661 L541 726 Z " />
<glyph glyph-name="Acaron" unicode="&#x1cd;" horiz-adv-x="585" d="M466 0 L557 0 L331 712 L252 712 L28 0 L113 0 L167 184 L411 184 L466 0 Z M289 597 L391 252 L187 252 L289 597 Z M347 780 L434 898 L341 898 L289 825 L237 898 L145 898 L233 780 L347 780 Z " />
<glyph glyph-name="acaron" unicode="&#x1ce;" horiz-adv-x="585" d="M385 294 C385 294 332 298 283 298 C131 298 67 242 67 144 C67 37 134 -10 235 -10 C302 -10 368 18 396 73 L397 66 C401 35 419 -5 478 -5 C499 -5 517 0 517 0 L517 60 L493 60 C467 60 461 81 461 116 L461 339 C461 447 408 505 282 505 C104 505 93 353 93 353 L169 353 C169 353 172 442 280 442 C356 442 385 410 385 336 L385 294 Z M385 194 C385 109 337 55 253 55 C184 55 145 82 145 148 C145 210 181 242 295 242 C342 242 385 239 385 239 L385 194 Z M341 571 L428 688 L335 688 L282 612 L229 688 L142 688 L229 571 L341 571 Z " />
<glyph glyph-name="Scommaaccent" unicode="&#x218;" horiz-adv-x="585" d="M58 225 C58 93 129 -17 312 -17 C452 -17 531 54 531 183 C531 425 166 359 165 543 C165 619 206 660 288 660 C389 660 422 590 427 509 L507 509 C505 623 444 730 289 730 C153 730 82 653 82 541 C82 293 448 368 448 181 C448 95 407 53 312 53 C200 53 140 115 135 225 L58 225 Z M247 -149 L298 -149 C299 -179 282 -197 250 -201 L250 -263 C322 -251 356 -221 356 -124 L356 -53 L247 -53 L247 -149 Z " />
<glyph glyph-name="scommaaccent" unicode="&#x219;" horiz-adv-x="585" d="M92 152 C95 72 140 -13 304 -13 C421 -13 489 24 489 128 C489 316 191 239 191 370 C191 419 226 442 283 442 C376 442 393 386 395 345 L472 345 C472 387 459 505 284 505 C161 505 113 441 113 367 C113 173 410 252 410 123 C410 72 379 50 310 50 C203 50 170 103 168 152 L92 152 Z M241 -149 L292 -149 C293 -179 276 -197 244 -201 L244 -263 C316 -251 350 -221 350 -124 L350 -53 L241 -53 L241 -149 Z " />
<glyph glyph-name="Tcommaaccent" unicode="&#x21a;" horiz-adv-x="585" d="M252 0 L331 0 L331 643 L544 643 L544 712 L40 712 L40 643 L252 643 L252 0 Z M237 -149 L288 -149 C289 -179 272 -197 240 -201 L240 -263 C312 -251 346 -221 346 -124 L346 -53 L237 -53 L237 -149 Z " />
<glyph glyph-name="tcedilla" unicode="&#x21b;" horiz-adv-x="585" d="M228 -224 C241 -226 256 -227 270 -227 C341 -227 416 -203 416 -127 C416 -100 400 -59 334 -59 C329 -59 322 -59 316 -60 L337 -10 C342 -10 347 -11 352 -11 C440 -11 492 15 492 15 L492 83 C492 83 442 62 372 62 C299 62 281 94 281 173 L281 422 L477 422 L477 488 L281 488 L281 638 L204 618 L204 488 L47 488 L47 422 L204 422 L204 151 C204 66 230 15 291 -3 L250 -88 L265 -105 C275 -102 287 -100 298 -100 C322 -100 341 -108 341 -134 C341 -174 303 -188 263 -188 C248 -188 239 -187 239 -187 L228 -224 Z " />
<glyph glyph-name="Adotaccent" unicode="&#x226;" horiz-adv-x="585" d="M466 0 L557 0 L331 712 L252 712 L28 0 L113 0 L167 184 L411 184 L466 0 Z M289 597 L391 252 L187 252 L289 597 Z M239 794 L340 794 L340 900 L239 900 L239 794 Z " />
<glyph glyph-name="adotaccent" unicode="&#x227;" horiz-adv-x="585" d="M385 294 C385 294 332 298 283 298 C131 298 67 242 67 144 C67 37 134 -10 235 -10 C302 -10 368 18 396 73 L397 66 C401 35 419 -5 478 -5 C499 -5 517 0 517 0 L517 60 L493 60 C467 60 461 81 461 116 L461 339 C461 447 408 505 282 505 C104 505 93 353 93 353 L169 353 C169 353 172 442 280 442 C356 442 385 410 385 336 L385 294 Z M385 194 C385 109 337 55 253 55 C184 55 145 82 145 148 C145 210 181 242 295 242 C342 242 385 239 385 239 L385 194 Z M235 585 L334 585 L334 690 L235 690 L235 585 Z " />
<glyph glyph-name="Odotaccent" unicode="&#x22e;" horiz-adv-x="585" d="M40 356 C40 52 159 -17 293 -17 C427 -17 546 56 546 356 C546 639 432 729 293 729 C159 729 40 641 40 356 L40 356 Z M123 356 C123 588 187 660 293 660 C398 660 463 588 463 356 C463 113 399 52 293 52 C192 52 123 113 123 356 L123 356 Z M242 794 L343 794 L343 900 L242 900 L242 794 Z " />
<glyph glyph-name="odotaccent" unicode="&#x22f;" horiz-adv-x="585" d="M72 244 C72 50 165 -17 293 -17 C416 -17 513 56 513 244 C513 435 415 505 293 505 C171 505 72 424 72 244 L72 244 Z M150 244 C150 384 206 440 293 440 C380 440 435 387 435 244 C435 98 382 48 293 48 C204 48 150 100 150 244 L150 244 Z M243 585 L342 585 L342 690 L243 690 L243 585 Z " />
<glyph glyph-name="Ymacron" unicode="&#x232;" horiz-adv-x="585" d="M249 0 L329 0 L329 294 L548 712 L461 712 L292 373 L129 712 L37 712 L249 294 L249 0 Z M157 804 L428 804 L428 876 L157 876 L157 804 Z " />
<glyph glyph-name="ymacron" unicode="&#x233;" horiz-adv-x="585" d="M222 -79 C204 -122 178 -132 133 -132 C111 -132 81 -126 81 -126 L81 -196 C81 -196 111 -203 152 -203 C234 -203 260 -171 312 -46 L535 488 L452 488 L293 89 L135 488 L49 488 L253 -1 L222 -79 Z M155 595 L425 595 L425 665 L155 665 L155 595 Z " />
<glyph glyph-name="dotlessj" unicode="&#x237;" horiz-adv-x="585" d="M403 488 L115 488 L115 422 L325 422 L325 -34 C325 -109 312 -130 245 -130 C194 -130 144 -110 144 -110 L144 -183 C144 -183 192 -205 252 -205 C393 -205 403 -132 403 -28 L403 488 Z " />
<glyph glyph-name="circumflex" unicode="&#x2c6;" horiz-adv-x="585" d="M236 688 L149 571 L236 571 L289 647 L342 571 L435 571 L348 688 L236 688 Z " />
<glyph glyph-name="caron" unicode="&#x2c7;" horiz-adv-x="585" d="M348 571 L435 688 L342 688 L289 612 L236 688 L149 688 L236 571 L348 571 Z " />
<glyph glyph-name="breve" unicode="&#x2d8;" horiz-adv-x="585" d="M159 688 C159 667 160 568 293 568 C423 568 425 678 425 688 L347 688 C347 675 347 624 293 624 C238 624 238 675 238 688 L159 688 Z " />
<glyph glyph-name="dotaccent" unicode="&#x2d9;" horiz-adv-x="585" d="M243 585 L342 585 L342 690 L243 690 L243 585 Z " />
<glyph glyph-name="ring" unicode="&#x2da;" horiz-adv-x="585" d="M181 653 C181 592 231 550 292 550 C353 550 403 592 403 653 C403 714 353 757 292 757 C231 757 181 714 181 653 L181 653 Z M237 653 C237 683 257 708 292 708 C327 708 347 683 347 653 C347 623 327 598 292 598 C257 598 237 623 237 653 L237 653 Z " />
<glyph glyph-name="ogonek" unicode="&#x2db;" horiz-adv-x="585" d="M377 -135 C377 -135 361 -142 341 -142 C313 -142 287 -129 287 -94 C287 -52 321 -21 350 0 L300 0 C250 -30 207 -61 207 -117 C207 -173 260 -193 305 -193 C334 -193 362 -185 377 -174 L377 -135 Z " />
<glyph glyph-name="tilde" unicode="&#x2dc;" horiz-adv-x="585" d="M205 574 C205 590 208 618 235 618 C269 618 298 568 358 568 C422 568 435 627 434 682 L383 682 C383 670 383 634 353 634 C312 634 288 686 233 686 C170 686 149 631 150 574 L205 574 Z " />
<glyph glyph-name="hungarumlaut" unicode="&#x2dd;" horiz-adv-x="585" d="M169 688 L104 571 L190 571 L292 688 L169 688 Z M357 688 L292 571 L378 571 L480 688 L357 688 Z " />
<glyph glyph-name="&amp;#x394;" unicode="&#x394;" horiz-adv-x="585" d="M6 0 L579 0 L579 68 L328 712 L252 712 L6 65 L6 0 Z M87 70 L290 614 L494 70 L87 70 Z " />
<glyph glyph-name="&amp;#x2206;" unicode="&#x2206;" horiz-adv-x="585" d="M6 0 L579 0 L579 68 L328 712 L252 712 L6 65 L6 0 Z M87 70 L290 614 L494 70 L87 70 Z " />
<glyph glyph-name="&amp;#x3a9;" unicode="&#x3a9;" horiz-adv-x="585" d="M11 68 L11 0 L257 0 L257 52 C184 98 93 213 93 360 C93 543 166 644 295 644 C438 644 493 522 493 364 C493 205 402 100 328 52 L328 0 L574 0 L574 68 L440 68 C503 127 572 219 572 370 C572 565 479 712 296 712 C123 712 14 576 14 365 C14 219 74 132 143 68 L11 68 Z " />
<glyph glyph-name="&amp;#x2126;" unicode="&#x2126;" horiz-adv-x="585" d="M11 68 L11 0 L257 0 L257 52 C184 98 93 213 93 360 C93 543 166 644 295 644 C438 644 493 522 493 364 C493 205 402 100 328 52 L328 0 L574 0 L574 68 L440 68 C503 127 572 219 572 370 C572 565 479 712 296 712 C123 712 14 576 14 365 C14 219 74 132 143 68 L11 68 Z " />
<glyph glyph-name="pi" unicode="&#x3c0;" horiz-adv-x="585" d="M545 62 C545 62 535 60 512 60 C456 60 450 86 450 128 L450 421 L531 421 L531 488 L40 488 L40 421 L121 421 L121 -1 L199 -1 L199 421 L373 421 L373 118 C373 49 395 -5 486 -5 C521 -5 545 1 545 1 L545 62 Z " />
<glyph glyph-name="Wgrave" unicode="&#x1e80;" horiz-adv-x="585" d="M172 0 L294 427 L406 0 L500 0 L568 712 L490 712 L444 150 L347 512 L246 512 L141 150 L99 712 L17 712 L79 0 L172 0 Z M149 898 L253 780 L342 780 L275 898 L149 898 Z " />
<glyph glyph-name="wgrave" unicode="&#x1e81;" horiz-adv-x="585" d="M185 0 L294 301 L386 0 L473 0 L561 488 L479 488 L423 108 L340 378 L256 378 L156 108 L110 488 L25 488 L101 0 L185 0 Z M149 688 L251 571 L337 571 L272 688 L149 688 Z " />
<glyph glyph-name="Wacute" unicode="&#x1e82;" horiz-adv-x="585" d="M172 0 L294 427 L406 0 L500 0 L568 712 L490 712 L444 150 L347 512 L246 512 L141 150 L99 712 L17 712 L79 0 L172 0 Z M326 898 L259 780 L348 780 L452 898 L326 898 Z " />
<glyph glyph-name="wacute" unicode="&#x1e83;" horiz-adv-x="585" d="M185 0 L294 301 L386 0 L473 0 L561 488 L479 488 L423 108 L340 378 L256 378 L156 108 L110 488 L25 488 L101 0 L185 0 Z M331 688 L266 571 L352 571 L454 688 L331 688 Z " />
<glyph glyph-name="Wdieresis" unicode="&#x1e84;" horiz-adv-x="585" d="M172 0 L294 427 L406 0 L500 0 L568 712 L490 712 L444 150 L347 512 L246 512 L141 150 L99 712 L17 712 L79 0 L172 0 Z M155 796 L252 796 L252 898 L155 898 L155 796 Z M336 796 L430 796 L430 898 L336 898 L336 796 Z " />
<glyph glyph-name="wdieresis" unicode="&#x1e85;" horiz-adv-x="585" d="M185 0 L294 301 L386 0 L473 0 L561 488 L479 488 L423 108 L340 378 L256 378 L156 108 L110 488 L25 488 L101 0 L185 0 Z M156 587 L251 587 L251 688 L156 688 L156 587 Z M337 587 L430 587 L430 688 L337 688 L337 587 Z " />
<glyph glyph-name="Ygrave" unicode="&#x1ef2;" horiz-adv-x="585" d="M249 0 L329 0 L329 294 L548 712 L461 712 L292 373 L129 712 L37 712 L249 294 L249 0 Z M152 898 L256 780 L345 780 L278 898 L152 898 Z " />
<glyph glyph-name="ygrave" unicode="&#x1ef3;" horiz-adv-x="585" d="M222 -79 C204 -122 178 -132 133 -132 C111 -132 81 -126 81 -126 L81 -196 C81 -196 111 -203 152 -203 C234 -203 260 -171 312 -46 L535 488 L452 488 L293 89 L135 488 L49 488 L253 -1 L222 -79 Z M147 688 L249 571 L335 571 L270 688 L147 688 Z " />
<glyph glyph-name="endash" unicode="&#x2013;" horiz-adv-x="585" d="M96 214 L488 214 L488 281 L96 281 L96 214 Z " />
<glyph glyph-name="emdash" unicode="&#x2014;" horiz-adv-x="585" d="M10 214 L576 214 L576 281 L10 281 L10 214 Z " />
<glyph glyph-name="quoteleft" unicode="&#x2018;" horiz-adv-x="585" d="M357 588 L296 588 C295 624 311 645 354 660 L354 732 C263 717 228 657 228 561 L228 474 L357 474 L357 588 Z " />
<glyph glyph-name="quoteright" unicode="&#x2019;" horiz-adv-x="585" d="M228 598 L289 598 C290 562 274 541 231 526 L231 454 C322 469 357 529 357 625 L357 712 L228 712 L228 598 Z " />
<glyph glyph-name="quotesinglbase" unicode="&#x201a;" horiz-adv-x="585" d="M238 0 L290 0 C290 -54 269 -72 241 -76 L241 -133 C307 -127 347 -83 347 28 L347 104 L238 104 L238 0 Z " />
<glyph glyph-name="quotedblleft" unicode="&#x201c;" horiz-adv-x="585" d="M452 588 L391 588 C390 624 406 645 449 660 L449 732 C358 717 323 657 323 561 L323 474 L452 474 L452 588 Z M262 588 L201 588 C200 624 216 645 259 660 L259 732 C168 717 133 657 133 561 L133 474 L262 474 L262 588 Z " />
<glyph glyph-name="quotedblright" unicode="&#x201d;" horiz-adv-x="585" d="M133 598 L194 598 C195 562 179 541 136 526 L136 454 C227 469 262 529 262 625 L262 712 L133 712 L133 598 Z M323 598 L384 598 C385 562 369 541 326 526 L326 454 C417 469 452 529 452 625 L452 712 L323 712 L323 598 Z " />
<glyph glyph-name="quotedblbase" unicode="&#x201e;" horiz-adv-x="585" d="M133 0 L194 0 C195 -36 179 -57 136 -72 L136 -144 C227 -129 262 -69 262 27 L262 114 L133 114 L133 0 Z M323 0 L384 0 C385 -36 369 -57 326 -72 L326 -144 C417 -129 452 -69 452 27 L452 114 L323 114 L323 0 Z " />
<glyph glyph-name="dagger" unicode="&#x2020;" horiz-adv-x="585" d="M89 421 L254 421 L254 0 L331 0 L331 421 L496 421 L496 488 L331 488 L331 699 L254 699 L254 488 L89 488 L89 421 Z " />
<glyph glyph-name="daggerdbl" unicode="&#x2021;" horiz-adv-x="585" d="M254 264 L89 264 L89 197 L254 197 L254 0 L331 0 L331 197 L496 197 L496 264 L331 264 L331 440 L496 440 L496 507 L331 507 L331 699 L254 699 L254 507 L89 507 L89 440 L254 440 L254 264 Z " />
<glyph glyph-name="bullet" unicode="&#x2022;" horiz-adv-x="585" d="M148 358 C148 274 212 216 292 216 C372 216 436 274 436 358 C436 442 372 500 292 500 C212 500 148 442 148 358 L148 358 Z " />
<glyph glyph-name="ellipsis" unicode="&#x2026;" horiz-adv-x="585" d="M12 0 L121 0 L121 105 L12 105 L12 0 Z M238 0 L347 0 L347 105 L238 105 L238 0 Z M464 0 L573 0 L573 105 L464 105 L464 0 Z " />
<glyph glyph-name="perthousand" unicode="&#x2030;" horiz-adv-x="585" d="M90 -17 L367 712 L321 712 L43 -17 L90 -17 Z M307 40 C281 40 281 73 281 170 C281 260 282 289 307 289 C331 289 332 260 332 170 C332 73 332 40 307 40 L307 40 Z M226 169 C226 21 244 -17 307 -17 C366 -17 388 19 388 169 C388 309 365 346 307 346 C248 346 226 307 226 169 L226 169 Z M487 40 C461 40 461 73 461 170 C461 260 462 289 487 289 C511 289 512 260 512 170 C512 73 512 40 487 40 L487 40 Z M406 169 C406 21 424 -17 487 -17 C546 -17 568 19 568 169 C568 309 545 346 487 346 C428 346 406 307 406 169 L406 169 Z M107 406 C81 406 81 439 81 536 C81 626 82 655 107 655 C131 655 132 626 132 536 C132 439 132 406 107 406 L107 406 Z M26 535 C26 387 44 349 107 349 C166 349 188 385 188 535 C188 675 165 712 107 712 C48 712 26 673 26 535 L26 535 Z " />
<glyph glyph-name="guilsinglleft" unicode="&#x2039;" horiz-adv-x="585" d="M308 436 L203 245 L308 53 L381 53 L291 245 L382 436 L308 436 Z " />
<glyph glyph-name="guilsinglright" unicode="&#x203a;" horiz-adv-x="585" d="M203 436 L294 245 L204 53 L278 53 L382 245 L278 436 L203 436 Z " />
<glyph glyph-name="fraction" unicode="&#x2044;" horiz-adv-x="585" d="M32 -10 L101 -10 L552 707 L483 707 L32 -10 Z " />
<glyph glyph-name="zero.superior" unicode="&#x2070;" horiz-adv-x="585" d="M128 595 C128 416 207 375 293 375 C378 375 457 420 457 595 C457 763 378 813 293 813 C207 813 128 762 128 595 L128 595 Z M206 595 C206 718 244 750 293 750 C341 750 379 715 379 595 C379 467 341 438 293 438 C244 438 206 467 206 595 L206 595 Z " />
<glyph glyph-name="four.superior" unicode="&#x2074;" horiz-adv-x="585" d="M132 474 L329 474 L329 386 L405 386 L405 474 L453 474 L453 534 L405 534 L405 804 L323 804 L132 528 L132 474 Z M200 534 L329 720 L329 534 L200 534 Z " />
<glyph glyph-name="five.superior" unicode="&#x2075;" horiz-adv-x="585" d="M144 501 C144 501 143 375 291 375 C406 375 441 455 441 530 C441 598 405 662 314 662 C252 662 228 633 228 633 L247 744 L412 744 L412 804 L194 804 L156 569 L222 561 C222 561 239 603 295 603 C347 603 363 561 363 526 C363 481 349 439 290 439 C218 439 215 501 215 501 L144 501 Z " />
<glyph glyph-name="six.superior" unicode="&#x2076;" horiz-adv-x="585" d="M436 699 C432 723 411 813 306 813 C164 813 137 673 137 568 C137 465 172 375 297 375 C393 375 448 437 448 524 C448 608 395 659 312 659 C241 659 213 616 212 614 C217 675 232 753 301 753 C359 753 363 699 363 699 L436 699 Z M296 435 C245 435 220 469 220 521 C220 578 257 600 296 600 C341 600 370 572 370 518 C370 466 346 435 296 435 L296 435 Z " />
<glyph glyph-name="seven.superior" unicode="&#x2077;" horiz-adv-x="585" d="M269 386 C302 579 437 745 437 745 L437 804 L148 804 L148 740 L362 740 C343 717 234 586 185 386 L269 386 Z " />
<glyph glyph-name="eight.superior" unicode="&#x2078;" horiz-adv-x="585" d="M134 501 C134 406 212 376 292 376 C374 376 450 410 450 501 C450 588 364 607 359 608 C366 610 431 630 431 702 C431 778 365 813 292 813 C220 813 153 778 153 702 C153 628 217 609 220 608 C212 606 134 583 134 501 L134 501 Z M212 505 C212 553 249 575 292 575 C335 575 372 553 372 505 C372 458 343 436 292 436 C244 436 212 459 212 505 L212 505 Z M231 699 C231 738 258 755 292 755 C326 755 354 738 354 699 C354 659 326 640 292 640 C258 640 231 659 231 699 L231 699 Z " />
<glyph glyph-name="nine.superior" unicode="&#x2079;" horiz-adv-x="585" d="M146 489 C146 489 148 376 290 376 C432 376 449 516 449 624 C449 725 410 813 290 813 C198 813 136 755 136 663 C136 579 190 529 274 529 C343 529 370 570 372 572 C370 507 363 436 290 436 C222 436 218 489 218 489 L146 489 Z M215 669 C215 725 244 754 290 754 C334 754 364 726 364 670 C364 610 326 587 288 587 C246 587 215 611 215 669 L215 669 Z " />
<glyph glyph-name="n.superior" unicode="&#x207f;" horiz-adv-x="585" d="M158 361 L233 361 L233 539 C233 594 270 610 297 610 C340 610 350 583 350 539 L350 361 L426 361 L426 558 C426 634 392 669 325 669 C258 669 232 621 232 621 L230 663 L158 663 L158 361 Z " />
<glyph glyph-name="zero.inferior" unicode="&#x2080;" horiz-adv-x="585" d="M128 54 C128 -125 207 -166 293 -166 C378 -166 457 -121 457 54 C457 222 378 272 293 272 C207 272 128 221 128 54 L128 54 Z M206 54 C206 177 244 209 293 209 C341 209 379 174 379 54 C379 -74 341 -103 293 -103 C244 -103 206 -74 206 54 L206 54 Z " />
<glyph glyph-name="one.inferior" unicode="&#x2081;" horiz-adv-x="585" d="M380 -155 L380 263 L315 263 C299 233 234 201 204 192 L204 120 C229 128 285 152 305 169 L305 -155 L380 -155 Z " />
<glyph glyph-name="two.inferior" unicode="&#x2082;" horiz-adv-x="585" d="M143 -155 L441 -155 L441 -88 L236 -88 C364 4 438 64 438 155 C438 228 390 273 302 273 C145 273 146 123 146 123 L218 123 C218 123 220 209 298 209 C349 209 360 177 360 151 C360 71 263 7 143 -95 L143 -155 Z " />
<glyph glyph-name="three.inferior" unicode="&#x2083;" horiz-adv-x="585" d="M136 -21 C136 -31 132 -166 297 -166 C398 -166 450 -115 450 -35 C450 60 357 67 354 67 C362 68 435 85 435 165 C435 228 389 272 300 272 C166 272 153 162 152 141 L222 141 C224 152 228 209 296 209 C337 209 357 190 357 156 C357 109 325 92 269 92 L248 92 L248 34 L270 34 C335 34 371 19 371 -33 C371 -79 345 -102 296 -102 C211 -102 208 -32 208 -21 L136 -21 Z " />
<glyph glyph-name="four.inferior" unicode="&#x2084;" horiz-adv-x="585" d="M132 -67 L329 -67 L329 -155 L405 -155 L405 -67 L453 -67 L453 -7 L405 -7 L405 263 L323 263 L132 -13 L132 -67 Z M200 -7 L329 179 L329 -7 L200 -7 Z " />
<glyph glyph-name="five.inferior" unicode="&#x2085;" horiz-adv-x="585" d="M144 -40 C144 -40 143 -166 291 -166 C406 -166 441 -86 441 -11 C441 57 405 121 314 121 C252 121 228 92 228 92 L247 203 L412 203 L412 263 L194 263 L156 28 L222 20 C222 20 239 62 295 62 C347 62 363 20 363 -15 C363 -60 349 -102 290 -102 C218 -102 215 -40 215 -40 L144 -40 Z " />
<glyph glyph-name="six.inferior" unicode="&#x2086;" horiz-adv-x="585" d="M436 158 C432 182 411 272 306 272 C164 272 137 132 137 27 C137 -76 172 -166 297 -166 C393 -166 448 -104 448 -17 C448 67 395 118 312 118 C241 118 213 75 212 73 C217 134 232 212 301 212 C359 212 363 158 363 158 L436 158 Z M296 -106 C245 -106 220 -72 220 -20 C220 37 257 59 296 59 C341 59 370 31 370 -23 C370 -75 346 -106 296 -106 L296 -106 Z " />
<glyph glyph-name="seven.inferior" unicode="&#x2087;" horiz-adv-x="585" d="M269 -155 C302 38 437 204 437 204 L437 263 L148 263 L148 199 L362 199 C343 176 234 45 185 -155 L269 -155 Z " />
<glyph glyph-name="eight.inferior" unicode="&#x2088;" horiz-adv-x="585" d="M134 -40 C134 -135 212 -165 292 -165 C374 -165 450 -131 450 -40 C450 47 364 66 359 67 C366 69 431 89 431 161 C431 237 365 272 292 272 C220 272 153 237 153 161 C153 87 217 68 220 67 C212 65 134 42 134 -40 L134 -40 Z M212 -36 C212 12 249 34 292 34 C335 34 372 12 372 -36 C372 -83 343 -105 292 -105 C244 -105 212 -82 212 -36 L212 -36 Z M231 158 C231 197 258 214 292 214 C326 214 354 197 354 158 C354 118 326 99 292 99 C258 99 231 118 231 158 L231 158 Z " />
<glyph glyph-name="nine.inferior" unicode="&#x2089;" horiz-adv-x="585" d="M146 -52 C146 -52 148 -165 290 -165 C432 -165 449 -25 449 83 C449 184 410 272 290 272 C198 272 136 214 136 122 C136 38 190 -12 274 -12 C343 -12 370 29 372 31 C370 -33 363 -105 290 -105 C222 -105 218 -52 218 -52 L146 -52 Z M215 128 C215 184 244 213 290 213 C334 213 364 185 364 129 C364 69 326 46 288 46 C246 46 215 70 215 128 L215 128 Z " />
<glyph glyph-name="Euro" unicode="&#x20ac;" horiz-adv-x="585" d="M32 249 L100 249 C117 65 189 -17 333 -17 C549 -17 553 209 553 209 L476 209 C476 209 475 48 334 48 C240 48 193 109 180 249 L366 249 L366 309 L176 309 L176 343 C176 360 176 380 177 400 L366 400 L366 460 L183 460 C196 554 233 647 336 647 C463 647 465 491 465 491 L543 491 C543 491 543 712 336 712 C188 712 124 597 104 460 L32 460 L32 400 L97 400 C96 381 96 362 96 343 L96 309 L32 309 L32 249 Z " />
<glyph glyph-name="trademark" unicode="&#x2122;" horiz-adv-x="585" d="M288 472 L339 472 L339 570 C339 600 338 632 338 633 C339 629 351 599 361 575 L385 518 L421 518 L446 575 L469 632 C469 629 467 603 467 570 L467 472 L517 472 L517 712 L457 712 L422 626 C412 603 403 579 403 579 C403 579 393 603 383 626 L347 712 L288 712 L288 472 Z M136 472 L188 472 L188 666 L255 666 L255 712 L68 712 L68 666 L136 666 L136 472 Z " />
<glyph glyph-name="onethird" unicode="&#x2153;" horiz-adv-x="585" d="M158 92 C158 86 155 -1 293 -1 C375 -1 415 24 415 83 C415 143 354 146 350 146 C357 147 403 161 403 211 C403 256 370 279 294 279 C182 279 172 209 171 195 L245 195 C246 203 251 224 291 224 C305 224 331 222 331 201 C331 170 307 167 265 167 L249 167 L249 115 L268 115 C308 115 344 116 344 88 C344 66 331 56 291 56 C235 56 233 85 233 92 L158 92 Z M326 444 L326 712 L268 712 C253 685 195 657 168 649 L168 584 C190 591 241 613 259 628 L259 444 L326 444 Z M37 341 L537 341 L537 381 L37 381 L37 341 Z " />
<glyph glyph-name="twothirds" unicode="&#x2154;" horiz-adv-x="585" d="M158 92 C158 86 155 -1 293 -1 C375 -1 415 24 415 83 C415 143 354 146 350 146 C357 147 403 161 403 211 C403 256 370 279 294 279 C182 279 172 209 171 195 L245 195 C246 203 251 224 291 224 C305 224 331 222 331 201 C331 170 307 167 265 167 L249 167 L249 115 L268 115 C308 115 344 116 344 88 C344 66 331 56 291 56 C235 56 233 85 233 92 L158 92 Z M162 435 L412 435 L412 495 L276 495 C324 511 406 554 406 618 C406 677 371 712 299 712 C171 712 165 601 165 601 L229 601 C229 601 235 654 291 654 C328 654 336 635 336 615 C336 552 213 513 162 489 L162 435 Z M37 341 L537 341 L537 381 L37 381 L37 341 Z " />
<glyph glyph-name="partialdiff" unicode="&#x2202;" horiz-adv-x="585" d="M123 662 C123 661 168 702 248 702 C406 702 450 533 450 413 C450 404 449 395 449 386 C449 386 394 476 277 476 C155 476 62 373 62 218 C62 84 123 -8 261 -8 C439 -8 522 166 522 401 C522 662 400 767 250 767 C157 767 95 722 95 722 L123 662 Z M265 57 C176 57 140 130 140 220 C140 322 185 411 283 411 C360 411 422 345 437 303 C431 143 357 57 265 57 L265 57 Z " />
<glyph glyph-name="product" unicode="&#x220f;" horiz-adv-x="585" d="M578 631 L578 698 L7 698 L7 631 L120 631 L120 0 L197 0 L197 631 L391 631 L391 0 L468 0 L468 631 L578 631 Z " />
<glyph glyph-name="summation" unicode="&#x2211;" horiz-adv-x="585" d="M547 -82 L547 -15 L131 -15 L374 311 L142 631 L531 631 L531 698 L49 698 L49 631 L278 310 L38 -17 L38 -82 L547 -82 Z " />
<glyph glyph-name="minus" unicode="&#x2212;" horiz-adv-x="585" d="M77 214 L507 214 L507 281 L77 281 L77 214 Z " />
<glyph glyph-name="radical" unicode="&#x221a;" horiz-adv-x="585" d="M575 766 L575 832 L409 832 L198 99 L95 504 L10 504 L161 -8 L236 -8 L465 766 L575 766 Z " />
<glyph glyph-name="infinity" unicode="&#x221e;" horiz-adv-x="585" d="M570 287 C570 394 517 436 445 436 C377 436 335 381 296 329 C254 390 212 436 147 436 C74 436 16 394 16 282 C16 165 76 132 144 132 C211 132 254 181 295 238 C345 161 389 132 439 132 C506 132 570 172 570 287 L570 287 Z M150 192 C104 192 82 223 82 286 C82 348 104 377 149 377 C200 377 226 333 259 281 C224 232 198 192 150 192 L150 192 Z M441 192 C403 192 380 211 332 286 C371 339 400 377 441 377 C484 377 505 348 505 282 C505 235 489 192 441 192 L441 192 Z " />
<glyph glyph-name="integral" unicode="&#x222b;" horiz-adv-x="585" d="M330 668 C330 722 341 785 412 785 C434 785 456 781 456 781 L456 842 C456 842 429 849 397 849 C286 849 254 768 254 653 L254 19 C254 -36 243 -98 172 -98 C149 -98 128 -94 128 -94 L128 -155 C128 -155 155 -162 187 -162 C298 -162 330 -81 330 34 L330 668 Z " />
<glyph glyph-name="approxequal" unicode="&#x2248;" horiz-adv-x="585" d="M136 274 C136 274 137 336 196 336 C253 336 306 266 393 266 C508 266 507 401 507 401 L451 401 C451 401 452 336 396 336 C324 336 283 406 197 406 C117 406 77 346 77 274 L136 274 Z M136 88 C136 88 137 150 196 150 C253 150 306 80 393 80 C508 80 507 215 507 215 L451 215 C451 215 452 150 396 150 C324 150 283 220 197 220 C117 220 77 160 77 88 L136 88 Z " />
<glyph glyph-name="notequal" unicode="&#x2260;" horiz-adv-x="585" d="M77 301 L271 301 L239 201 L77 201 L77 134 L217 134 L180 17 L252 17 L289 134 L507 134 L507 201 L311 201 L343 301 L507 301 L507 368 L365 368 L402 482 L330 482 L293 368 L77 368 L77 301 Z " />
<glyph glyph-name="lessequal" unicode="&#x2264;" horiz-adv-x="585" d="M77 348 L77 271 L507 137 L507 210 L156 312 L507 413 L507 487 L77 348 Z M77 0 L507 0 L507 67 L77 67 L77 0 Z " />
<glyph glyph-name="greaterequal" unicode="&#x2265;" horiz-adv-x="585" d="M507 67 L77 67 L77 0 L507 0 L507 67 Z M77 487 L77 412 L428 311 L77 209 L77 137 L507 271 L507 348 L77 487 Z " />
<glyph glyph-name="lozenge" unicode="&#x25ca;" horiz-adv-x="585" d="M526 346 L328 739 L259 739 L58 346 L256 -46 L325 -46 L526 346 Z M449 344 L293 29 L136 348 L293 662 L449 344 Z " />
<glyph glyph-name="Dotaccent" unicode="&#xefed;" horiz-adv-x="585" d="M242 794 L343 794 L343 900 L242 900 L242 794 Z " />
<glyph glyph-name="Breve" unicode="&#xefee;" horiz-adv-x="585" d="M159 898 C159 877 160 778 293 778 C423 778 425 888 425 898 L347 898 C347 885 347 834 293 834 C238 834 238 885 238 898 L159 898 Z " />
<glyph glyph-name="Ogonek" unicode="&#xeff1;" horiz-adv-x="585" d="M377 -135 C377 -135 361 -142 341 -142 C313 -142 287 -129 287 -94 C287 -52 321 -21 350 0 L300 0 C250 -30 207 -61 207 -117 C207 -173 260 -193 305 -193 C334 -193 362 -185 377 -174 L377 -135 Z " />
<glyph glyph-name="Cedilla" unicode="&#xeff2;" horiz-adv-x="585" d="M198 -224 C211 -226 226 -227 240 -227 C311 -227 386 -203 386 -127 C386 -100 370 -59 304 -59 C299 -59 292 -59 286 -60 L312 0 L263 0 L220 -88 L235 -105 C245 -102 257 -100 268 -100 C292 -100 311 -108 311 -134 C311 -174 273 -188 233 -188 C218 -188 209 -187 209 -187 L198 -224 Z " />
<glyph glyph-name="Ring" unicode="&#xeff3;" horiz-adv-x="585" d="M180 839 C180 777 230 735 292 735 C354 735 404 777 404 839 C404 900 354 943 292 943 C230 943 180 900 180 839 L180 839 Z M238 839 C238 868 258 892 292 892 C326 892 346 868 346 839 C346 810 326 785 292 785 C258 785 238 810 238 839 L238 839 Z " />
<glyph glyph-name="Tilde" unicode="&#xeff5;" horiz-adv-x="585" d="M205 784 C205 800 208 828 235 828 C269 828 298 778 358 778 C422 778 435 837 434 892 L383 892 C383 880 383 844 353 844 C312 844 288 896 233 896 C170 896 149 841 150 784 L205 784 Z " />
<glyph glyph-name="Circumflex" unicode="&#xeff7;" horiz-adv-x="585" d="M236 898 L148 780 L238 780 L290 854 L342 780 L437 780 L350 898 L236 898 Z " />
<glyph glyph-name="one.superior" unicode="&#xf06d;" horiz-adv-x="585" d="M380 386 L380 804 L315 804 C299 774 234 742 204 733 L204 661 C229 669 285 693 305 710 L305 386 L380 386 Z " />
<glyph glyph-name="two.superior" unicode="&#xf06e;" horiz-adv-x="585" d="M143 386 L441 386 L441 453 L236 453 C364 545 438 605 438 696 C438 769 390 814 302 814 C145 814 146 664 146 664 L218 664 C218 664 220 750 298 750 C349 750 360 718 360 692 C360 612 263 548 143 446 L143 386 Z " />
<glyph glyph-name="three.superior" unicode="&#xf06f;" horiz-adv-x="585" d="M136 520 C136 510 132 375 297 375 C398 375 450 426 450 506 C450 601 357 608 354 608 C362 609 435 626 435 706 C435 769 389 813 300 813 C166 813 153 703 152 682 L222 682 C224 693 228 750 296 750 C337 750 357 731 357 697 C357 650 325 633 269 633 L248 633 L248 575 L270 575 C335 575 371 560 371 508 C371 462 345 439 296 439 C211 439 208 509 208 520 L136 520 Z " />
<glyph glyph-name="Mcircumflex" unicode="&#xf116;" horiz-adv-x="585" d="M59 0 L139 0 L139 567 L266 208 L314 208 L446 567 L446 0 L526 0 L526 712 L427 712 L292 349 L164 712 L59 712 L59 0 Z M236 898 L148 780 L238 780 L290 854 L342 780 L437 780 L350 898 L236 898 Z " />
<glyph glyph-name="mcircumflex" unicode="&#xf117;" horiz-adv-x="585" d="M50 0 L127 0 L127 291 C127 356 132 433 200 433 C249 433 256 388 256 291 L256 0 L330 0 L330 291 C330 402 359 433 405 433 C458 433 459 379 459 291 L459 0 L536 0 L536 324 C536 435 517 498 420 498 C346 498 313 435 312 432 C311 437 298 499 222 499 C151 499 127 439 127 438 L123 488 L50 488 L50 0 Z M236 688 L149 571 L236 571 L289 647 L342 571 L435 571 L348 688 L236 688 Z " />
<glyph glyph-name="Gtilde" unicode="&#xf11b;" horiz-adv-x="585" d="M465 0 L535 0 L535 376 L279 376 L279 305 L456 305 L456 300 C456 171 436 59 298 59 C135 59 122 210 122 356 C122 514 145 660 304 660 C445 660 449 521 449 521 L530 521 C530 521 526 729 305 729 C88 729 40 546 40 356 C40 79 136 -10 293 -10 C428 -10 462 81 462 81 L465 0 Z M213 784 C213 800 216 828 243 828 C277 828 306 778 366 778 C430 778 443 837 442 892 L391 892 C391 880 391 844 361 844 C320 844 296 896 241 896 C178 896 157 841 158 784 L213 784 Z " />
<glyph glyph-name="gtilde" unicode="&#xf11c;" horiz-adv-x="585" d="M514 488 L436 488 L436 422 C436 422 396 498 284 498 C129 498 70 368 70 242 C70 108 137 0 280 0 C402 0 435 80 437 84 L437 12 C437 -126 374 -154 299 -154 C173 -154 168 -55 168 -55 L91 -55 C91 -55 85 -219 298 -219 C454 -219 514 -127 514 3 L514 488 Z M436 263 C436 144 393 65 289 65 C231 65 148 90 148 246 C148 357 190 433 288 433 C388 433 436 356 436 263 L436 263 Z M212 574 C212 590 215 618 242 618 C276 618 305 568 365 568 C429 568 442 627 441 682 L390 682 C390 670 390 634 360 634 C319 634 295 686 240 686 C177 686 156 631 157 574 L212 574 Z " />
<glyph glyph-name="Ncircumflex" unicode="&#xf127;" horiz-adv-x="585" d="M67 0 L147 0 L147 567 L432 0 L518 0 L518 712 L438 712 L438 161 L157 712 L67 712 L67 0 Z M236 898 L148 780 L238 780 L290 854 L342 780 L437 780 L350 898 L236 898 Z " />
<glyph glyph-name="ncircumflex" unicode="&#xf128;" horiz-adv-x="585" d="M96 0 L174 0 L174 291 C174 403 253 433 302 433 C387 433 410 377 410 291 L410 0 L488 0 L488 324 C488 426 440 498 322 498 C211 498 174 419 174 419 L171 488 L96 488 L96 0 Z M244 688 L157 571 L244 571 L297 647 L350 571 L443 571 L356 688 L244 688 Z " />
<glyph glyph-name="Commaaccent" unicode="&#xf12a;" horiz-adv-x="585" d="M238 -149 L289 -149 C290 -179 273 -197 241 -201 L241 -263 C313 -251 347 -221 347 -124 L347 -53 L238 -53 L238 -149 Z " />
<glyph glyph-name="Ndieresis" unicode="&#xf12c;" horiz-adv-x="585" d="M67 0 L147 0 L147 567 L432 0 L518 0 L518 712 L438 712 L438 161 L157 712 L67 712 L67 0 Z M155 796 L252 796 L252 898 L155 898 L155 796 Z M336 796 L430 796 L430 898 L336 898 L336 796 Z " />
<glyph glyph-name="ndieresis" unicode="&#xf12d;" horiz-adv-x="585" d="M96 0 L174 0 L174 291 C174 403 253 433 302 433 C387 433 410 377 410 291 L410 0 L488 0 L488 324 C488 426 440 498 322 498 C211 498 174 419 174 419 L171 488 L96 488 L96 0 Z M157 587 L252 587 L252 688 L157 688 L157 587 Z M338 587 L431 587 L431 688 L338 688 L338 587 Z " />
<glyph glyph-name="commaascender" unicode="&#xf206;" horiz-adv-x="585" d="M238 616 L289 616 C290 586 273 568 241 564 L241 502 C313 514 347 544 347 641 L347 712 L238 712 L238 616 Z " />
<glyph glyph-name="Commaascender" unicode="&#xf237;" horiz-adv-x="585" d="M238 616 L289 616 C290 586 273 568 241 564 L241 502 C313 514 347 544 347 641 L347 712 L238 712 L238 616 Z " />
<glyph glyph-name="cedillatog" unicode="&#xf30f;" horiz-adv-x="585" d="M347 672 L296 672 C295 702 312 720 344 724 L344 786 C272 774 238 744 238 647 L238 576 L347 576 L347 672 Z " />
<glyph glyph-name="h.superior" unicode="&#xf637;" horiz-adv-x="585" d="M158 361 L233 361 L233 541 C233 596 270 612 297 612 C340 612 350 585 350 541 L350 361 L426 361 L426 560 C426 636 392 672 325 672 C259 672 234 627 233 624 L233 788 L158 788 L158 361 Z " />
<glyph glyph-name="zero.numerator" unicode="&#xf655;" horiz-adv-x="585" d="M128 494 C128 315 207 274 293 274 C378 274 457 319 457 494 C457 662 378 712 293 712 C207 712 128 661 128 494 L128 494 Z M206 494 C206 617 244 649 293 649 C341 649 379 614 379 494 C379 366 341 337 293 337 C244 337 206 366 206 494 L206 494 Z " />
<glyph glyph-name="one.numerator" unicode="&#xf656;" horiz-adv-x="585" d="M380 285 L380 703 L315 703 C299 673 234 641 204 632 L204 560 C229 568 285 592 305 609 L305 285 L380 285 Z " />
<glyph glyph-name="two.numerator" unicode="&#xf657;" horiz-adv-x="585" d="M143 285 L441 285 L441 352 L236 352 C364 444 438 504 438 595 C438 668 390 713 302 713 C145 713 146 563 146 563 L218 563 C218 563 220 649 298 649 C349 649 360 617 360 591 C360 511 263 447 143 345 L143 285 Z " />
<glyph glyph-name="three.numerator" unicode="&#xf658;" horiz-adv-x="585" d="M136 419 C136 409 132 274 297 274 C398 274 450 325 450 405 C450 500 357 507 354 507 C362 508 435 525 435 605 C435 668 389 712 300 712 C166 712 153 602 152 581 L222 581 C224 592 228 649 296 649 C337 649 357 630 357 596 C357 549 325 532 269 532 L248 532 L248 474 L270 474 C335 474 371 459 371 407 C371 361 345 338 296 338 C211 338 208 408 208 419 L136 419 Z " />
<glyph glyph-name="four.numerator" unicode="&#xf659;" horiz-adv-x="585" d="M132 373 L329 373 L329 285 L405 285 L405 373 L453 373 L453 433 L405 433 L405 703 L323 703 L132 427 L132 373 Z M200 433 L329 619 L329 433 L200 433 Z " />
<glyph glyph-name="five.numerator" unicode="&#xf65a;" horiz-adv-x="585" d="M144 400 C144 400 143 274 291 274 C406 274 441 354 441 429 C441 497 405 561 314 561 C252 561 228 532 228 532 L247 643 L412 643 L412 703 L194 703 L156 468 L222 460 C222 460 239 502 295 502 C347 502 363 460 363 425 C363 380 349 338 290 338 C218 338 215 400 215 400 L144 400 Z " />
<glyph glyph-name="six.numerator" unicode="&#xf65b;" horiz-adv-x="585" d="M436 598 C432 622 411 712 306 712 C164 712 137 572 137 467 C137 364 172 274 297 274 C393 274 448 336 448 423 C448 507 395 558 312 558 C241 558 213 515 212 513 C217 574 232 652 301 652 C359 652 363 598 363 598 L436 598 Z M296 334 C245 334 220 368 220 420 C220 477 257 499 296 499 C341 499 370 471 370 417 C370 365 346 334 296 334 L296 334 Z " />
<glyph glyph-name="seven.numerator" unicode="&#xf65c;" horiz-adv-x="585" d="M269 285 C302 478 437 644 437 644 L437 703 L148 703 L148 639 L362 639 C343 616 234 485 185 285 L269 285 Z " />
<glyph glyph-name="eight.numerator" unicode="&#xf65d;" horiz-adv-x="585" d="M134 400 C134 305 212 275 292 275 C374 275 450 309 450 400 C450 487 364 506 359 507 C366 509 431 529 431 601 C431 677 365 712 292 712 C220 712 153 677 153 601 C153 527 217 508 220 507 C212 505 134 482 134 400 L134 400 Z M212 404 C212 452 249 474 292 474 C335 474 372 452 372 404 C372 357 343 335 292 335 C244 335 212 358 212 404 L212 404 Z M231 598 C231 637 258 654 292 654 C326 654 354 637 354 598 C354 558 326 539 292 539 C258 539 231 558 231 598 L231 598 Z " />
<glyph glyph-name="nine.numerator" unicode="&#xf65e;" horiz-adv-x="585" d="M146 388 C146 388 148 275 290 275 C432 275 449 415 449 523 C449 624 410 712 290 712 C198 712 136 654 136 562 C136 478 190 428 274 428 C343 428 370 469 372 471 C370 406 363 335 290 335 C222 335 218 388 218 388 L146 388 Z M215 568 C215 624 244 653 290 653 C334 653 364 625 364 569 C364 509 326 486 288 486 C246 486 215 510 215 568 L215 568 Z " />
<glyph glyph-name="zero.denominator" unicode="&#xf661;" horiz-adv-x="585" d="M128 209 C128 30 207 -11 293 -11 C378 -11 457 34 457 209 C457 377 378 427 293 427 C207 427 128 376 128 209 L128 209 Z M206 209 C206 332 244 364 293 364 C341 364 379 329 379 209 C379 81 341 52 293 52 C244 52 206 81 206 209 L206 209 Z " />
<glyph glyph-name="one.denominator" unicode="&#xf662;" horiz-adv-x="585" d="M380 0 L380 418 L315 418 C299 388 234 356 204 347 L204 275 C229 283 285 307 305 324 L305 0 L380 0 Z " />
<glyph glyph-name="two.denominator" unicode="&#xf663;" horiz-adv-x="585" d="M143 0 L441 0 L441 67 L236 67 C364 159 438 219 438 310 C438 383 390 428 302 428 C145 428 146 278 146 278 L218 278 C218 278 220 364 298 364 C349 364 360 332 360 306 C360 226 263 162 143 60 L143 0 Z " />
<glyph glyph-name="three.denominator" unicode="&#xf664;" horiz-adv-x="585" d="M136 134 C136 124 132 -11 297 -11 C398 -11 450 40 450 120 C450 215 357 222 354 222 C362 223 435 240 435 320 C435 383 389 427 300 427 C166 427 153 317 152 296 L222 296 C224 307 228 364 296 364 C337 364 357 345 357 311 C357 264 325 247 269 247 L248 247 L248 189 L270 189 C335 189 371 174 371 122 C371 76 345 53 296 53 C211 53 208 123 208 134 L136 134 Z " />
<glyph glyph-name="four.denominator" unicode="&#xf665;" horiz-adv-x="585" d="M132 88 L329 88 L329 0 L405 0 L405 88 L453 88 L453 148 L405 148 L405 418 L323 418 L132 142 L132 88 Z M200 148 L329 334 L329 148 L200 148 Z " />
<glyph glyph-name="five.denominator" unicode="&#xf666;" horiz-adv-x="585" d="M144 115 C144 115 143 -11 291 -11 C406 -11 441 69 441 144 C441 212 405 276 314 276 C252 276 228 247 228 247 L247 358 L412 358 L412 418 L194 418 L156 183 L222 175 C222 175 239 217 295 217 C347 217 363 175 363 140 C363 95 349 53 290 53 C218 53 215 115 215 115 L144 115 Z " />
<glyph glyph-name="six.denominator" unicode="&#xf667;" horiz-adv-x="585" d="M436 313 C432 337 411 427 306 427 C164 427 137 287 137 182 C137 79 172 -11 297 -11 C393 -11 448 51 448 138 C448 222 395 273 312 273 C241 273 213 230 212 228 C217 289 232 367 301 367 C359 367 363 313 363 313 L436 313 Z M296 49 C245 49 220 83 220 135 C220 192 257 214 296 214 C341 214 370 186 370 132 C370 80 346 49 296 49 L296 49 Z " />
<glyph glyph-name="seven.denominator" unicode="&#xf668;" horiz-adv-x="585" d="M269 0 C302 193 437 359 437 359 L437 418 L148 418 L148 354 L362 354 C343 331 234 200 185 0 L269 0 Z " />
<glyph glyph-name="eight.denominator" unicode="&#xf669;" horiz-adv-x="585" d="M134 115 C134 20 212 -10 292 -10 C374 -10 450 24 450 115 C450 202 364 221 359 222 C366 224 431 244 431 316 C431 392 365 427 292 427 C220 427 153 392 153 316 C153 242 217 223 220 222 C212 220 134 197 134 115 L134 115 Z M212 119 C212 167 249 189 292 189 C335 189 372 167 372 119 C372 72 343 50 292 50 C244 50 212 73 212 119 L212 119 Z M231 313 C231 352 258 369 292 369 C326 369 354 352 354 313 C354 273 326 254 292 254 C258 254 231 273 231 313 L231 313 Z " />
<glyph glyph-name="nine.denominator" unicode="&#xf66a;" horiz-adv-x="585" d="M146 103 C146 103 148 -10 290 -10 C432 -10 449 130 449 238 C449 339 410 427 290 427 C198 427 136 369 136 277 C136 193 190 143 274 143 C343 143 370 184 372 186 C370 121 363 50 290 50 C222 50 218 103 218 103 L146 103 Z M215 283 C215 339 244 368 290 368 C334 368 364 340 364 284 C364 224 326 201 288 201 C246 201 215 225 215 283 L215 283 Z " />
<glyph glyph-name="commaaccent" unicode="&#xf6c3;" horiz-adv-x="585" d="M238 -149 L289 -149 C290 -179 273 -197 241 -201 L241 -263 C313 -251 347 -221 347 -124 L347 -53 L238 -53 L238 -149 Z " />
<glyph glyph-name="Acute" unicode="&#xf6c9;" horiz-adv-x="585" d="M263 898 L196 780 L285 780 L389 898 L263 898 Z " />
<glyph glyph-name="Caron" unicode="&#xf6ca;" horiz-adv-x="585" d="M350 780 L437 898 L344 898 L292 825 L240 898 L148 898 L236 780 L350 780 Z " />
<glyph glyph-name="Dieresis" unicode="&#xf6cb;" horiz-adv-x="585" d="M155 796 L252 796 L252 898 L155 898 L155 796 Z M336 796 L430 796 L430 898 L336 898 L336 796 Z " />
<glyph glyph-name="Grave" unicode="&#xf6ce;" horiz-adv-x="585" d="M196 898 L300 780 L389 780 L322 898 L196 898 Z " />
<glyph glyph-name="Hungarumlaut" unicode="&#xf6cf;" horiz-adv-x="585" d="M169 898 L102 780 L191 780 L295 898 L169 898 Z M357 898 L290 780 L378 780 L482 898 L357 898 Z " />
<glyph glyph-name="Macron" unicode="&#xf6d0;" horiz-adv-x="585" d="M157 804 L428 804 L428 876 L157 876 L157 804 Z " />
<glyph glyph-name="b.superior" unicode="&#xf6ea;" horiz-adv-x="585" d="M147 361 L220 361 L222 401 C224 397 247 355 312 355 C400 355 437 425 437 518 C437 604 403 673 318 673 C251 673 223 629 222 626 L222 788 L147 788 L147 361 Z M222 517 C222 567 240 615 295 615 C341 615 362 578 362 517 C362 436 331 411 295 411 C232 411 222 468 222 517 L222 517 Z " />
<glyph glyph-name="d.superior" unicode="&#xf6eb;" horiz-adv-x="585" d="M437 788 L362 788 L362 628 C360 632 336 673 275 673 C190 673 147 605 147 512 C147 424 178 355 271 355 C338 355 362 402 362 402 L364 361 L437 361 L437 788 Z M362 517 C362 468 350 411 291 411 C254 411 222 433 222 512 C222 570 242 615 291 615 C345 615 362 567 362 517 L362 517 Z " />
<glyph glyph-name="e.superior" unicode="&#xf6ec;" horiz-adv-x="585" d="M432 490 C442 585 406 673 296 673 C193 673 150 601 150 510 C150 400 201 350 298 350 C416 350 429 444 429 454 L361 454 C361 449 354 410 299 410 C233 410 226 469 226 490 L432 490 Z M227 543 C231 585 249 616 294 616 C340 616 359 583 360 543 L227 543 Z " />
<glyph glyph-name="i.superior" unicode="&#xf6ed;" horiz-adv-x="585" d="M251 720 L333 720 L333 796 L251 796 L251 720 Z M254 361 L329 361 L329 663 L254 663 L254 361 Z " />
<glyph glyph-name="l.superior" unicode="&#xf6ee;" horiz-adv-x="585" d="M255 361 L330 361 L330 788 L255 788 L255 361 Z " />
<glyph glyph-name="m.superior" unicode="&#xf6ef;" horiz-adv-x="585" d="M69 361 L144 361 L144 539 C144 594 177 610 204 610 C246 610 255 584 255 539 L255 361 L330 361 L330 541 C330 594 363 610 390 610 C433 610 441 584 441 539 L441 361 L516 361 L516 558 C516 636 481 669 416 669 C349 669 319 620 318 617 C316 622 298 669 231 669 C166 669 143 622 143 622 L141 663 L69 663 L69 361 Z " />
<glyph glyph-name="r.superior" unicode="&#xf6f1;" horiz-adv-x="585" d="M207 361 L283 361 L283 531 C283 579 308 604 362 604 C369 604 377 603 377 603 L377 668 C377 668 367 669 358 669 C332 669 298 657 280 617 L277 663 L207 663 L207 361 Z " />
<glyph glyph-name="s.superior" unicode="&#xf6f2;" horiz-adv-x="585" d="M172 457 C172 421 186 350 300 350 C374 350 412 385 412 446 C412 556 249 525 249 587 C249 608 264 619 290 619 C333 619 337 583 338 573 L404 573 C404 598 396 673 290 673 C223 673 179 640 179 582 C179 470 343 503 343 442 C343 417 330 405 299 405 C245 405 239 445 239 457 L172 457 Z " />
<glyph glyph-name="t.superior" unicode="&#xf6f3;" horiz-adv-x="585" d="M248 460 C248 395 257 354 331 354 C358 354 389 361 389 361 L389 413 C389 413 372 412 365 412 C325 412 323 426 323 465 L323 611 L390 611 L390 663 L323 663 L323 753 L248 735 L248 663 L194 663 L194 611 L248 611 L248 460 Z " />
<glyph glyph-name="fi" unicode="&#xfb01;" horiz-adv-x="585" d="M136 0 L212 0 L212 422 L331 422 L331 488 L212 488 L212 553 C212 617 220 654 302 654 C336 654 378 647 378 647 L378 710 C378 710 342 719 285 719 C187 719 136 672 136 548 L136 488 L39 488 L39 422 L136 422 L136 0 Z M429 611 L524 611 L524 712 L429 712 L429 611 Z M438 0 L516 0 L516 488 L438 488 L438 0 Z " />
<glyph glyph-name="fl" unicode="&#xfb02;" horiz-adv-x="585" d="M442 0 L520 0 L520 712 L442 712 L442 0 Z M136 0 L212 0 L212 422 L331 422 L331 488 L212 488 L212 553 C212 617 220 654 302 654 C336 654 378 647 378 647 L378 710 C378 710 342 719 285 719 C187 719 136 672 136 548 L136 488 L39 488 L39 422 L136 422 L136 0 Z " />
</font>
</svg>
