<?xml version="1.0" encoding="UTF-8"?>
<svg xmlns="http://www.w3.org/2000/svg" xmlns:xlink="http://www.w3.org/1999/xlink" version="1.2" >
<font id="Flaco Regular">
<font-face  font-family="Flaco" units-per-em="1000" ascent="780" descent="-220" font-style="normal" font-weight="400" font-stretch="normal" cap-height="712" x-height="488" underline-position="-75" underline-thickness="50" />
<missing-glyph  horiz-adv-x="596" d="M100 0 L496 0 L496 712 L100 712 L100 0 Z M176 649 L420 649 L420 63 L176 63 L176 649 Z " />
<glyph glyph-name="NULL" d="" />
<glyph glyph-name="CR" unicode="&#xd;" horiz-adv-x="250" d="" />
<glyph glyph-name="space" unicode="&#x20;" horiz-adv-x="246" d="" />
<glyph glyph-name="exclam" unicode="&#x21;" horiz-adv-x="330" d="M230 213 C230 213 240 403 240 552 L240 711 L151 711 L151 552 C151 403 161 213 161 213 L230 213 Z M141 0 L250 0 L250 105 L141 105 L141 0 Z " />
<glyph glyph-name="quotedbl" unicode="&#x22;" horiz-adv-x="372" d="M149 712 L68 712 L68 627 C68 557 83 490 83 490 L137 490 C137 490 149 557 149 627 L149 712 Z M304 712 L223 712 L223 627 C223 557 238 490 238 490 L293 490 C293 490 304 557 304 627 L304 712 Z " />
<glyph glyph-name="numbersign" unicode="&#x23;" horiz-adv-x="594" d="M286 0 L360 0 L398 203 L507 203 L507 265 L410 265 L440 426 L543 426 L543 488 L452 488 L489 682 L416 682 L379 488 L276 488 L313 682 L240 682 L203 488 L86 488 L86 426 L191 426 L160 265 L50 265 L50 203 L148 203 L110 0 L184 0 L222 203 L324 203 L286 0 Z M264 426 L367 426 L336 265 L234 265 L264 426 Z " />
<glyph glyph-name="dollar" unicode="&#x24;" horiz-adv-x="594" d="M58 220 C58 101 119 0 276 -15 L276 -168 L334 -168 L334 -17 C468 -12 540 62 540 186 C540 304 433 345 334 384 L334 641 C412 625 435 557 439 497 L517 497 C515 599 465 695 334 711 L334 839 L276 839 L276 712 C149 705 86 628 86 529 C86 407 181 363 276 328 L276 55 C185 69 140 131 137 220 L58 220 Z M459 183 C459 99 418 57 334 52 L334 306 C402 279 459 248 459 183 L459 183 Z M166 531 C166 600 203 638 276 644 L276 408 C214 435 166 469 166 531 L166 531 Z " />
<glyph glyph-name="percent" unicode="&#x25;" horiz-adv-x="818" d="M211 407 C169 407 131 432 131 536 C131 634 172 655 211 655 C250 655 291 634 291 536 C291 432 252 407 211 407 L211 407 Z M234 -17 L651 712 L578 712 L160 -17 L234 -17 Z M60 535 C60 388 141 350 211 350 C276 350 364 386 364 535 C364 675 273 712 211 712 C149 712 60 673 60 535 L60 535 Z M525 169 C525 267 566 288 605 288 C644 288 685 267 685 169 C685 65 646 40 605 40 C563 40 525 65 525 169 L525 169 Z M454 168 C454 21 535 -17 605 -17 C670 -17 758 19 758 168 C758 308 667 345 605 345 C543 345 454 306 454 168 L454 168 Z " />
<glyph glyph-name="ampersand" unicode="&#x26;" horiz-adv-x="846" d="M601 140 C621 192 629 258 627 336 L689 336 L689 399 L555 399 C559 328 560 257 547 199 L395 365 C475 420 531 476 531 562 C531 674 446 712 364 712 C263 712 194 641 194 552 C194 474 242 420 287 371 C202 317 138 252 138 164 C138 45 233 -17 354 -17 C449 -17 519 13 565 73 L633 0 L730 0 L601 140 Z M221 169 C221 228 266 279 331 324 L517 124 C488 79 440 51 361 51 C284 51 221 91 221 169 L221 169 Z M453 560 C453 499 417 456 351 412 L351 413 C309 458 272 496 272 554 C272 604 302 647 366 647 C412 647 453 623 453 560 L453 560 Z " />
<glyph glyph-name="quotesingle" unicode="&#x27;" horiz-adv-x="217" d="M149 712 L68 712 L68 627 C68 557 83 490 83 490 L137 490 C137 490 149 557 149 627 L149 712 Z " />
<glyph glyph-name="parenleft" unicode="&#x28;" horiz-adv-x="359" d="M283 -133 C283 -133 185 72 185 308 C185 558 282 745 282 745 L210 745 C210 745 103 557 103 308 C103 71 208 -133 208 -133 L283 -133 Z " />
<glyph glyph-name="parenright" unicode="&#x29;" horiz-adv-x="359" d="M151 -133 C151 -133 256 71 256 308 C256 557 149 745 149 745 L77 745 C77 745 174 558 174 308 C174 72 76 -133 76 -133 L151 -133 Z " />
<glyph glyph-name="asterisk" unicode="&#x2a;" horiz-adv-x="409" d="M359 647 L338 706 L230 664 L237 781 L172 781 L180 664 L72 706 L50 646 L166 619 L91 527 L140 489 L204 591 L265 493 L316 529 L244 619 L359 647 Z " />
<glyph glyph-name="plus" unicode="&#x2b;" horiz-adv-x="594" d="M82 220 L260 220 L260 47 L334 47 L334 220 L512 220 L512 287 L334 287 L334 456 L260 456 L260 287 L82 287 L82 220 Z " />
<glyph glyph-name="comma" unicode="&#x2c;" horiz-adv-x="227" d="M59 0 L110 0 C111 -36 105 -57 62 -72 L62 -134 C136 -113 168 -69 168 27 L168 104 L59 104 L59 0 Z " />
<glyph glyph-name="hyphen" unicode="&#x2d;" horiz-adv-x="333" d="M46 214 L296 214 L296 281 L46 281 L46 214 Z " />
<glyph glyph-name="period" unicode="&#x2e;" horiz-adv-x="227" d="M59 0 L168 0 L168 105 L59 105 L59 0 Z " />
<glyph glyph-name="slash" unicode="&#x2f;" horiz-adv-x="428" d="M25 -131 L101 -131 L387 745 L312 745 L25 -131 Z " />
<glyph glyph-name="zero" unicode="0" horiz-adv-x="594" d="M58 351 C58 58 165 -17 297 -17 C429 -17 536 64 536 351 C536 625 429 712 297 712 C165 712 58 621 58 351 L58 351 Z M138 351 C138 583 209 647 297 647 C385 647 456 583 456 351 C456 106 385 48 297 48 C209 48 138 106 138 351 L138 351 Z " />
<glyph glyph-name="one" unicode="1" horiz-adv-x="594" d="M379 0 L379 698 L308 698 C284 665 181 596 132 577 L132 499 C173 513 285 576 302 602 L302 0 L379 0 Z " />
<glyph glyph-name="two" unicode="2" horiz-adv-x="594" d="M72 0 L519 0 L519 74 L173 74 C387 258 518 351 518 522 C518 642 445 712 317 712 C86 712 87 475 87 475 L164 475 C164 475 167 643 314 643 C413 643 437 576 437 522 C437 347 244 231 72 66 L72 0 Z " />
<glyph glyph-name="three" unicode="3" horiz-adv-x="594" d="M66 214 C66 169 74 -17 306 -17 C444 -17 529 62 529 195 C529 359 381 372 372 373 C384 375 502 396 502 542 C502 653 425 712 309 712 C146 712 94 594 92 503 L168 503 C173 553 191 644 306 644 C378 644 421 606 421 537 C421 446 363 407 278 407 L238 407 L238 333 L278 333 C381 333 447 300 447 191 C447 100 400 51 306 51 C159 51 142 167 142 214 L66 214 Z " />
<glyph glyph-name="four" unicode="4" horiz-adv-x="594" d="M56 150 L381 150 L381 0 L459 0 L459 150 L538 150 L538 219 L459 219 L459 698 L369 698 L56 215 L56 150 Z M137 219 L381 601 L381 219 L137 219 Z " />
<glyph glyph-name="five" unicode="5" horiz-adv-x="594" d="M70 183 C70 183 74 -17 298 -17 C470 -17 524 113 524 237 C524 351 466 458 326 458 C220 458 174 396 174 396 L212 630 L485 630 L485 698 L154 698 L94 312 L172 301 C172 301 204 393 314 393 C417 393 443 306 443 237 C443 141 414 51 298 51 C150 51 147 183 147 183 L70 183 Z " />
<glyph glyph-name="six" unicode="6" horiz-adv-x="594" d="M509 543 C492 647 427 712 316 712 C106 712 67 478 67 307 C67 152 108 -17 302 -17 C449 -17 527 98 527 222 C527 346 443 449 313 449 C183 449 143 353 143 353 C149 479 179 646 313 646 C420 646 430 543 430 543 L509 543 Z M302 49 C212 49 155 116 155 220 C155 340 231 384 302 384 C386 384 446 329 446 218 C446 115 396 49 302 49 L302 49 Z " />
<glyph glyph-name="seven" unicode="7" horiz-adv-x="594" d="M234 0 C307 387 517 625 517 625 L517 698 L76 698 L76 625 L434 625 C434 625 245 415 142 0 L234 0 Z " />
<glyph glyph-name="eight" unicode="8" horiz-adv-x="594" d="M59 189 C59 35 175 -17 296 -17 C421 -17 534 46 534 189 C534 335 399 368 386 371 C396 374 500 406 500 530 C500 648 410 712 296 712 C187 712 94 648 94 530 C94 403 195 372 200 371 C187 368 59 332 59 189 L59 189 Z M140 192 C140 287 209 335 296 335 C383 335 453 287 453 192 C453 99 399 50 296 50 C199 50 140 101 140 192 L140 192 Z M175 530 C175 610 229 647 296 647 C363 647 419 610 419 530 C419 445 363 406 296 406 C229 406 175 444 175 530 L175 530 Z " />
<glyph glyph-name="nine" unicode="9" horiz-adv-x="594" d="M80 154 C80 154 88 -16 290 -16 C506 -16 526 224 526 401 C526 558 473 712 291 712 C156 712 67 606 67 464 C67 331 145 240 278 240 C408 240 447 330 447 330 C442 212 430 50 290 50 C168 50 159 154 159 154 L80 154 Z M148 467 C148 574 199 646 295 646 C386 646 439 574 439 472 C439 354 358 305 287 305 C206 305 148 366 148 467 L148 467 Z " />
<glyph glyph-name="colon" unicode="&#x3a;" horiz-adv-x="227" d="M88 0 L197 0 L197 105 L88 105 L88 0 Z M88 365 L197 365 L197 469 L88 469 L88 365 Z " />
<glyph glyph-name="semicolon" unicode="&#x3b;" horiz-adv-x="227" d="M88 0 L139 0 C140 -36 134 -57 91 -72 L91 -134 C165 -113 197 -69 197 28 L197 105 L88 105 L88 0 Z M88 365 L197 365 L197 469 L88 469 L88 365 Z " />
<glyph glyph-name="less" unicode="&#x3c;" horiz-adv-x="594" d="M82 294 L82 215 L512 33 L512 108 L153 255 L512 403 L512 476 L82 294 Z " />
<glyph glyph-name="equal" unicode="&#x3d;" horiz-adv-x="594" d="M82 301 L512 301 L512 368 L82 368 L82 301 Z M82 134 L512 134 L512 201 L82 201 L82 134 Z " />
<glyph glyph-name="greater" unicode="&#x3e;" horiz-adv-x="594" d="M82 476 L82 401 L441 254 L82 107 L82 33 L512 215 L512 294 L82 476 Z " />
<glyph glyph-name="question" unicode="&#x3f;" horiz-adv-x="518" d="M232 188 L310 188 L310 262 C310 372 487 400 487 563 C487 676 409 730 299 730 C86 730 84 537 84 537 L161 537 C161 537 165 661 298 661 C364 661 407 629 407 563 C407 436 232 395 232 262 L232 188 Z M216 0 L325 0 L325 105 L216 105 L216 0 Z " />
<glyph glyph-name="at" unicode="&#x40;" horiz-adv-x="1066" d="M741 471 L664 471 L654 411 C654 411 621 481 523 481 C385 481 302 348 302 192 C302 83 352 4 467 4 C549 4 589 51 602 72 L592 12 L668 12 C918 12 961 197 961 326 C961 534 794 659 579 659 C294 659 105 465 105 195 C105 -83 323 -173 522 -173 C642 -173 712 -140 712 -140 L709 -80 C709 -80 639 -111 511 -111 C355 -111 177 -40 177 201 C177 425 333 596 580 596 C776 596 887 480 887 322 C887 172 841 67 679 72 L741 471 Z M482 66 C397 66 379 118 379 196 C379 296 423 419 528 419 C603 419 634 365 634 298 C634 212 603 66 482 66 L482 66 Z " />
<glyph glyph-name="A" unicode="A" horiz-adv-x="688" d="M567 0 L658 0 L378 712 L307 712 L29 0 L114 0 L182 184 L498 184 L567 0 Z M274 429 L340 606 C343 598 374 512 406 430 L472 252 L208 252 L274 429 Z " />
<glyph glyph-name="B" unicode="B" horiz-adv-x="641" d="M98 0 L353 0 C488 0 593 51 593 201 C593 349 462 369 449 371 C459 374 563 406 563 537 C563 694 437 712 306 712 L98 712 L98 0 Z M178 69 L178 329 L359 329 C456 329 510 291 510 205 C510 106 454 69 359 69 L178 69 Z M178 398 L178 643 L299 643 C409 643 480 632 480 531 C480 449 438 398 338 398 L178 398 Z " />
<glyph glyph-name="C" unicode="C" horiz-adv-x="678" d="M549 245 C545 197 530 52 355 52 C168 52 141 224 141 356 C141 599 249 661 351 661 C515 661 536 516 538 481 L622 481 C622 539 574 730 351 730 C165 730 58 586 58 357 C58 127 140 -17 358 -17 C582 -17 631 168 632 245 L549 245 Z " />
<glyph glyph-name="D" unicode="D" horiz-adv-x="703" d="M98 0 L270 0 C530 0 644 130 644 370 C644 596 537 712 270 712 L98 712 L98 0 Z M178 69 L178 642 L277 642 C481 642 561 560 561 368 C561 142 455 69 272 69 L178 69 Z " />
<glyph glyph-name="E" unicode="E" horiz-adv-x="593" d="M98 0 L525 0 L525 69 L178 69 L178 332 L486 332 L486 401 L178 401 L178 643 L522 643 L522 712 L98 712 L98 0 Z " />
<glyph glyph-name="F" unicode="F" horiz-adv-x="576" d="M98 0 L178 0 L178 326 L486 326 L486 395 L178 395 L178 643 L521 643 L521 712 L98 712 L98 0 Z " />
<glyph glyph-name="G" unicode="G" horiz-adv-x="699" d="M555 0 L625 0 L625 376 L365 376 L365 305 L550 305 L550 300 C550 168 495 59 355 59 C181 59 140 208 140 356 C140 520 197 660 356 660 C510 660 531 521 531 521 L613 521 C613 521 586 729 357 729 C140 729 58 546 58 356 C58 79 187 -10 347 -10 C507 -10 552 110 552 110 L555 0 Z " />
<glyph glyph-name="H" unicode="H" horiz-adv-x="732" d="M98 0 L178 0 L178 331 L554 331 L554 0 L634 0 L634 712 L554 712 L554 400 L178 400 L178 712 L98 712 L98 0 Z " />
<glyph glyph-name="I" unicode="I" horiz-adv-x="276" d="M98 0 L178 0 L178 712 L98 712 L98 0 Z " />
<glyph glyph-name="J" unicode="J" horiz-adv-x="506" d="M37 224 C30 86 77 -17 224 -17 C379 -17 412 94 412 223 L412 712 L332 712 L332 238 C332 122 314 51 225 51 C118 51 112 150 112 224 L37 224 Z " />
<glyph glyph-name="K" unicode="K" horiz-adv-x="650" d="M522 0 L626 0 L325 407 L584 712 L488 712 L178 345 L178 712 L98 712 L98 0 L178 0 L178 238 L270 347 L522 0 Z " />
<glyph glyph-name="L" unicode="L" horiz-adv-x="513" d="M98 0 L478 0 L478 69 L178 69 L178 712 L98 712 L98 0 Z " />
<glyph glyph-name="M" unicode="M" horiz-adv-x="803" d="M98 0 L178 0 L178 377 C178 487 176 565 176 566 C179 559 211 484 249 401 L375 128 L423 128 L554 403 C593 486 627 567 627 567 C627 567 625 481 625 376 L625 0 L705 0 L705 712 L620 712 L495 448 C452 356 401 241 401 241 C401 241 351 358 309 448 L187 712 L98 712 L98 0 Z " />
<glyph glyph-name="N" unicode="N" horiz-adv-x="733" d="M98 0 L178 0 L178 351 C178 498 175 590 175 590 C175 590 224 505 295 397 L555 0 L635 0 L635 712 L555 712 L555 349 C555 221 557 128 557 128 C557 128 506 215 445 308 L182 712 L98 712 L98 0 Z " />
<glyph glyph-name="O" unicode="O" horiz-adv-x="724" d="M58 356 C58 82 194 -17 362 -17 C530 -17 666 88 666 356 C666 611 536 730 362 730 C194 730 58 611 58 356 L58 356 Z M141 356 C141 564 230 661 362 661 C493 661 583 564 583 356 C583 138 494 52 362 52 C236 52 141 138 141 356 L141 356 Z " />
<glyph glyph-name="P" unicode="P" horiz-adv-x="607" d="M98 0 L178 0 L178 297 L307 297 C459 297 567 356 567 516 C567 681 448 712 321 712 L98 712 L98 0 Z M178 366 L178 643 L321 643 C434 643 485 612 485 510 C485 389 410 366 307 366 L178 366 Z " />
<glyph glyph-name="Q" unicode="Q" horiz-adv-x="724" d="M58 356 C58 82 194 -17 362 -17 C399 -17 435 -11 469 0 L537 -95 L600 -49 L539 35 C616 91 666 193 666 356 C666 611 536 730 362 730 C194 730 58 611 58 356 L58 356 Z M350 164 L425 59 C405 54 384 52 362 52 C236 52 141 138 141 356 C141 564 230 661 362 661 C493 661 583 564 583 356 C583 225 551 141 496 95 L414 210 L350 164 Z " />
<glyph glyph-name="R" unicode="R" horiz-adv-x="629" d="M98 0 L178 0 L178 307 L314 307 L469 0 L562 0 L397 315 C497 332 567 396 567 522 C567 678 451 712 325 712 L98 712 L98 0 Z M178 376 L178 643 L276 643 C419 643 485 634 485 519 C485 398 409 376 325 376 L178 376 Z " />
<glyph glyph-name="S" unicode="S" horiz-adv-x="598" d="M56 225 C56 93 130 -17 323 -17 C470 -17 549 59 549 190 C549 418 167 366 167 543 C167 620 212 660 301 660 C411 660 442 579 446 509 L526 509 C524 623 462 730 299 730 C156 730 85 648 85 541 C85 296 466 360 466 187 C466 96 419 53 320 53 C199 53 141 122 137 225 L56 225 Z " />
<glyph glyph-name="T" unicode="T" horiz-adv-x="548" d="M234 0 L313 0 L313 643 L526 643 L526 712 L22 712 L22 643 L234 643 L234 0 Z " />
<glyph glyph-name="U" unicode="U" horiz-adv-x="716" d="M90 246 C90 63 193 -16 358 -16 C516 -16 626 63 626 246 L626 712 L547 712 L547 246 C547 88 447 53 358 53 C269 53 170 94 170 252 L170 712 L90 712 L90 246 Z " />
<glyph glyph-name="V" unicode="V" horiz-adv-x="636" d="M357 0 L615 712 L530 712 L405 353 C356 213 316 88 316 88 C316 88 278 211 232 351 L113 712 L21 712 L269 0 L357 0 Z " />
<glyph glyph-name="W" unicode="W" horiz-adv-x="999" d="M319 0 L434 388 C473 518 499 618 501 623 C503 613 527 515 561 387 L664 0 L758 0 L975 712 L889 712 L785 351 C746 215 715 100 714 94 C711 105 684 218 648 353 L553 712 L454 712 L347 351 C306 214 274 100 273 94 C270 105 243 217 208 351 L114 712 L24 712 L226 0 L319 0 Z " />
<glyph glyph-name="X" unicode="X" horiz-adv-x="633" d="M573 712 L484 712 L317 444 L153 712 L58 712 L273 377 L29 0 L119 0 L314 314 L508 0 L604 0 L358 381 L573 712 Z " />
<glyph glyph-name="Y" unicode="Y" horiz-adv-x="573" d="M243 0 L323 0 L323 294 L562 712 L475 712 L376 531 C326 439 286 364 286 364 C286 364 247 440 198 533 L103 712 L11 712 L243 294 L243 0 Z " />
<glyph glyph-name="Z" unicode="Z" horiz-adv-x="622" d="M49 0 L556 0 L556 69 L140 69 L567 643 L567 712 L102 712 L102 642 L475 642 L49 67 L49 0 Z " />
<glyph glyph-name="bracketleft" unicode="&#x5b;" horiz-adv-x="359" d="M110 -131 L303 -131 L303 -71 L191 -71 L191 682 L303 682 L303 745 L110 745 L110 -131 Z " />
<glyph glyph-name="backslash" unicode="&#x5c;" horiz-adv-x="428" d="M113 745 L36 745 L324 -131 L400 -131 L113 745 Z " />
<glyph glyph-name="bracketright" unicode="&#x5d;" horiz-adv-x="359" d="M249 745 L56 745 L56 682 L168 682 L168 -71 L56 -71 L56 -131 L249 -131 L249 745 Z " />
<glyph glyph-name="asciicircum" unicode="&#x5e;" horiz-adv-x="594" d="M256 712 L95 475 L181 475 L296 655 L408 475 L499 475 L341 712 L256 712 Z " />
<glyph glyph-name="underscore" unicode="&#x5f;" horiz-adv-x="465" d="M5 -202 L460 -202 L460 -148 L5 -148 L5 -202 Z " />
<glyph glyph-name="grave" unicode="&#x60;" horiz-adv-x="188" d="M0 688 L102 571 L188 571 L123 688 L0 688 Z " />
<glyph glyph-name="a" unicode="a" horiz-adv-x="520" d="M358 294 C358 294 306 298 258 298 C109 298 46 242 46 144 C46 37 112 -10 211 -10 C277 -10 342 18 369 73 L370 66 C374 35 392 -5 449 -5 C470 -5 488 0 488 0 L488 60 L464 60 C439 60 433 81 433 116 L433 339 C433 447 381 505 257 505 C83 505 71 353 71 353 L146 353 C146 353 149 442 255 442 C330 442 358 410 358 336 L358 294 Z M358 194 C358 109 311 55 229 55 C161 55 125 82 125 148 C125 210 158 242 270 242 C316 242 358 239 358 239 L358 194 Z " />
<glyph glyph-name="b" unicode="b" horiz-adv-x="556" d="M84 0 L159 0 L162 77 C162 77 197 -10 311 -10 C439 -10 506 103 506 258 C506 390 446 505 314 505 C201 505 162 419 162 419 L162 712 L84 712 L84 0 Z M162 259 C162 350 200 440 300 440 C394 440 428 356 428 258 C428 81 355 54 299 54 C184 55 162 163 162 259 L162 259 Z " />
<glyph glyph-name="c" unicode="c" horiz-adv-x="484" d="M375 163 C372 97 344 48 262 48 C145 48 128 148 128 244 C128 339 149 440 253 440 C345 440 363 369 367 328 L443 328 C443 364 422 505 253 505 C97 505 50 369 50 244 C50 85 110 -17 262 -17 C414 -17 448 98 448 163 L375 163 Z " />
<glyph glyph-name="d" unicode="d" horiz-adv-x="556" d="M472 712 L394 712 L394 424 C394 424 358 505 253 505 C125 505 50 406 50 245 C50 98 105 -10 250 -10 C360 -10 394 78 394 78 L397 0 L472 0 L472 712 Z M394 259 C394 162 367 54 258 54 C199 54 128 80 128 245 C128 330 153 440 257 440 C356 440 394 349 394 259 L394 259 Z " />
<glyph glyph-name="e" unicode="e" horiz-adv-x="511" d="M467 225 C478 372 424 505 263 505 C104 505 50 374 50 235 C50 74 122 -17 271 -17 C427 -17 459 103 461 145 L389 145 C386 125 372 48 270 48 C163 48 128 132 128 225 L467 225 Z M130 286 C138 374 172 440 265 440 C348 440 391 376 391 286 L130 286 Z " />
<glyph glyph-name="f" unicode="f" horiz-adv-x="332" d="M114 0 L190 0 L190 428 L304 428 L304 488 L190 488 L190 589 C190 641 198 664 263 664 C277 664 316 662 316 662 L316 723 C316 723 283 729 246 729 C148 729 114 684 114 573 L114 488 L38 488 L38 428 L114 428 L114 0 Z " />
<glyph glyph-name="g" unicode="g" horiz-adv-x="556" d="M472 488 L394 488 L394 422 C394 422 357 498 253 498 C106 498 50 368 50 242 C50 108 113 0 250 0 C362 0 395 81 395 81 L395 12 C395 -126 339 -154 268 -154 C148 -154 143 -55 143 -55 L70 -55 C70 -55 64 -219 267 -219 C415 -219 472 -127 472 3 L472 488 Z M394 263 C394 149 357 65 258 65 C203 65 128 94 128 246 C128 352 164 433 257 433 C352 433 394 353 394 263 L394 263 Z " />
<glyph glyph-name="h" unicode="h" horiz-adv-x="558" d="M84 0 L162 0 L162 291 C162 403 241 433 290 433 C376 433 398 377 398 291 L398 0 L476 0 L476 324 C476 426 428 498 310 498 C199 498 162 419 162 419 L162 712 L84 712 L84 0 Z " />
<glyph glyph-name="i" unicode="i" horiz-adv-x="246" d="M75 611 L170 611 L170 712 L75 712 L75 611 Z M84 0 L162 0 L162 488 L84 488 L84 0 Z " />
<glyph glyph-name="j" unicode="j" horiz-adv-x="246" d="M-8 -202 C-8 -202 15 -205 38 -205 C159 -205 162 -120 162 -28 L162 488 L84 488 L84 -40 C84 -115 84 -136 4 -136 L-8 -136 L-8 -202 Z M76 611 L171 611 L171 712 L76 712 L76 611 Z " />
<glyph glyph-name="k" unicode="k" horiz-adv-x="500" d="M385 0 L480 0 L284 308 L452 488 L356 488 L162 281 L162 712 L84 712 L84 0 L162 0 L162 184 L229 255 L385 0 Z " />
<glyph glyph-name="l" unicode="l" horiz-adv-x="246" d="M84 0 L162 0 L162 712 L84 712 L84 0 Z " />
<glyph glyph-name="m" unicode="m" horiz-adv-x="832" d="M84 0 L162 0 L162 291 C162 403 231 433 280 433 C365 433 378 379 378 291 L378 0 L456 0 L456 291 C456 402 523 433 574 433 C659 433 672 379 672 291 L672 0 L750 0 L750 324 C750 435 701 498 594 498 C484 498 438 420 438 420 C438 420 408 498 299 498 C193 498 162 419 162 419 L159 488 L84 488 L84 0 Z " />
<glyph glyph-name="n" unicode="n" horiz-adv-x="558" d="M84 0 L162 0 L162 291 C162 403 241 433 290 433 C375 433 398 377 398 291 L398 0 L476 0 L476 324 C476 426 428 498 310 498 C199 498 162 419 162 419 L159 488 L84 488 L84 0 Z " />
<glyph glyph-name="o" unicode="o" horiz-adv-x="520" d="M50 244 C50 50 138 -17 260 -17 C377 -17 470 56 470 244 C470 435 376 505 260 505 C144 505 50 424 50 244 L50 244 Z M128 244 C128 384 181 440 260 440 C339 440 392 387 392 244 C392 98 341 48 260 48 C179 48 128 100 128 244 L128 244 Z " />
<glyph glyph-name="p" unicode="p" horiz-adv-x="556" d="M84 -202 L162 -202 L162 70 C162 70 197 -17 311 -17 C439 -17 506 96 506 251 C506 383 446 498 314 498 C201 498 162 412 162 412 L158 488 L84 488 L84 -202 Z M162 252 C162 343 200 433 300 433 C394 433 428 349 428 251 C428 74 355 47 299 47 C184 48 162 156 162 252 L162 252 Z " />
<glyph glyph-name="q" unicode="q" horiz-adv-x="556" d="M472 488 L396 488 L394 417 C394 417 358 498 253 498 C125 498 50 399 50 238 C50 91 105 -17 250 -17 C360 -17 394 71 394 71 L394 -202 L472 -202 L472 488 Z M394 252 C394 155 367 47 258 47 C199 47 128 73 128 238 C128 323 153 433 257 433 C356 433 394 342 394 252 L394 252 Z " />
<glyph glyph-name="r" unicode="r" horiz-adv-x="353" d="M84 0 L162 0 L162 284 C162 365 190 430 291 430 C302 430 317 428 317 428 L317 495 C317 495 300 498 281 498 C227 498 180 467 159 418 L155 488 L84 488 L84 0 Z " />
<glyph glyph-name="s" unicode="s" horiz-adv-x="454" d="M49 155 C49 73 96 -17 246 -17 C352 -17 409 38 409 128 C409 301 141 249 141 370 C141 419 174 442 221 442 C298 442 317 386 319 345 L394 345 C394 387 378 505 222 505 C115 505 65 441 65 367 C65 183 332 246 332 123 C332 71 302 46 244 46 C152 46 124 106 124 155 L49 155 Z " />
<glyph glyph-name="t" unicode="t" horiz-adv-x="345" d="M114 141 C114 41 132 -10 223 -10 C267 -10 302 0 302 0 L302 59 C302 59 273 56 249 56 C196 56 192 91 192 163 L192 428 L301 428 L301 488 L192 488 L192 638 L114 618 L114 488 L27 488 L27 428 L114 428 L114 141 Z " />
<glyph glyph-name="u" unicode="u" horiz-adv-x="545" d="M461 488 L383 488 L383 197 C383 85 311 55 262 55 C170 55 160 113 160 197 L160 488 L82 488 L82 177 C82 70 121 -10 243 -10 C353 -10 383 70 383 70 L387 0 L461 0 L461 488 Z " />
<glyph glyph-name="v" unicode="v" horiz-adv-x="489" d="M193 0 L276 0 L465 488 L384 488 L297 246 C264 152 240 81 239 77 C237 84 218 154 187 250 L108 488 L24 488 L193 0 Z " />
<glyph glyph-name="w" unicode="w" horiz-adv-x="780" d="M260 0 L339 235 C375 341 391 400 392 403 C393 399 407 338 437 236 L505 0 L590 0 L748 488 L668 488 L598 253 C568 150 550 81 549 77 C547 84 529 153 501 253 L433 488 L360 488 L281 253 C247 150 225 81 224 77 C222 84 206 152 179 253 L115 488 L32 488 L178 0 L260 0 Z " />
<glyph glyph-name="x" unicode="x" horiz-adv-x="503" d="M45 488 L210 251 L30 0 L119 0 L251 200 L382 0 L475 0 L294 256 L454 488 L370 488 L254 308 L138 488 L45 488 Z " />
<glyph glyph-name="y" unicode="y" horiz-adv-x="506" d="M186 -79 C169 -123 142 -135 97 -135 L75 -135 L75 -201 C75 -201 98 -203 116 -203 C219 -203 239 -144 276 -46 L479 488 L396 488 L317 265 L257 93 L196 270 L119 488 L33 488 L218 2 L186 -79 Z " />
<glyph glyph-name="z" unicode="z" horiz-adv-x="441" d="M46 0 L406 0 L406 66 L137 66 L408 431 L408 488 L74 488 L74 423 L316 423 L46 56 L46 0 Z " />
<glyph glyph-name="braceleft" unicode="&#x7b;" horiz-adv-x="359" d="M123 -1 C123 -118 181 -132 263 -132 C291 -132 304 -130 304 -130 L304 -76 L276 -76 C222 -76 203 -65 203 9 L203 201 C203 305 116 316 107 317 C120 318 203 332 203 431 L203 604 C203 675 210 692 276 692 L304 692 L304 747 C304 747 286 748 262 748 C165 748 123 721 123 614 L123 432 C123 375 96 349 39 349 L39 282 C97 282 123 256 123 200 L123 -1 Z " />
<glyph glyph-name="bar" unicode="&#x7c;" horiz-adv-x="410" d="M170 -131 L240 -131 L240 745 L170 745 L170 -131 Z " />
<glyph glyph-name="braceright" unicode="&#x7d;" horiz-adv-x="359" d="M236 200 C236 256 262 282 320 282 L320 349 C263 349 236 375 236 432 L236 614 C236 721 194 748 97 748 C73 748 55 747 55 747 L55 692 L83 692 C149 692 156 675 156 604 L156 428 C156 326 242 315 251 314 C239 312 156 300 156 198 L156 9 C156 -65 137 -76 83 -76 L55 -76 L55 -130 C55 -130 68 -132 96 -132 C178 -132 236 -118 236 -1 L236 200 Z " />
<glyph glyph-name="asciitilde" unicode="&#x7e;" horiz-adv-x="594" d="M140 186 C140 186 141 248 200 248 C257 248 310 178 397 178 C512 178 511 313 511 313 L455 313 C455 313 456 248 400 248 C328 248 287 318 201 318 C121 318 81 258 81 186 L140 186 Z " />
<glyph glyph-name="exclamdown" unicode="&#xa1;" horiz-adv-x="330" d="M100 498 C100 498 90 308 90 159 L90 0 L179 0 L179 159 C179 308 169 498 169 498 L100 498 Z M189 711 L80 711 L80 606 L189 606 L189 711 Z " />
<glyph glyph-name="cent" unicode="&#xa2;" horiz-adv-x="594" d="M422 163 C419 103 396 57 330 49 L330 437 C396 423 410 364 414 328 L490 328 C490 361 471 487 330 503 L330 612 L267 612 L267 503 C137 485 97 360 97 244 C97 100 146 3 267 -14 L267 -116 L330 -116 L330 -16 C464 -6 495 101 495 163 L422 163 Z M175 244 C175 328 191 416 267 436 L267 53 C188 75 175 161 175 244 L175 244 Z " />
<glyph glyph-name="sterling" unicode="&#xa3;" horiz-adv-x="594" d="M91 308 L190 308 C196 280 201 251 201 221 C201 105 76 76 76 76 L76 0 L515 0 L515 69 L180 69 C180 69 281 118 281 223 C281 253 277 281 271 308 L425 308 L425 370 L255 370 C240 422 225 473 225 532 C225 612 266 645 329 645 C440 645 439 510 439 510 L517 510 C517 510 520 712 329 712 C219 712 144 649 144 532 C144 472 159 421 174 370 L91 370 L91 308 Z " />
<glyph glyph-name="currency" unicode="&#xa4;" horiz-adv-x="594" d="M78 244 C78 196 93 151 119 116 L53 53 L106 -2 L170 65 C205 39 249 25 296 25 C343 25 387 39 423 65 L487 -2 L540 53 L474 116 C500 152 515 196 515 244 C515 291 500 335 474 371 L540 434 L487 489 L423 422 C387 447 343 462 296 462 C249 462 205 447 170 421 L106 489 L53 434 L118 370 C92 335 78 290 78 244 L78 244 Z M150 244 C150 325 215 393 296 393 C378 393 443 325 443 244 C443 162 378 94 296 94 C215 94 150 162 150 244 L150 244 Z " />
<glyph glyph-name="yen" unicode="&#xa5;" horiz-adv-x="594" d="M87 315 L257 315 L257 222 L87 222 L87 158 L257 158 L257 0 L338 0 L338 158 L508 158 L508 222 L338 222 L338 315 L508 315 L508 379 L354 379 L534 698 L448 698 L300 417 L152 698 L60 698 L240 379 L87 379 L87 315 Z " />
<glyph glyph-name="brokenbar" unicode="&#xa6;" horiz-adv-x="410" d="M170 -131 L240 -131 L240 215 L170 215 L170 -131 Z M170 399 L240 399 L240 745 L170 745 L170 399 Z " />
<glyph glyph-name="section" unicode="&#xa7;" horiz-adv-x="594" d="M90 252 C90 169 146 124 234 76 L276 53 C359 7 388 -31 388 -82 C388 -139 353 -170 285 -170 C183 -170 180 -80 180 -80 L100 -80 C100 -84 98 -239 286 -239 C396 -239 470 -180 470 -78 C470 -14 443 27 397 64 C411 71 503 117 503 233 C503 326 441 359 352 412 L320 431 C254 470 214 502 214 557 C214 619 256 644 310 644 C398 644 406 561 406 561 L485 561 C485 561 478 712 310 712 C208 712 134 651 134 553 C134 486 167 444 205 414 C186 407 91 366 90 252 L90 252 Z M273 141 C200 183 171 207 171 262 C171 338 241 372 258 380 L337 335 C392 304 422 275 422 225 C422 178 401 131 344 99 L273 141 Z " />
<glyph glyph-name="dieresis" unicode="&#xa8;" horiz-adv-x="274" d="M0 587 L95 587 L95 688 L0 688 L0 587 Z M181 587 L274 587 L274 688 L181 688 L181 587 Z " />
<glyph glyph-name="copyright" unicode="&#xa9;" horiz-adv-x="852" d="M527 293 C527 293 523 204 423 204 C357 204 302 250 302 362 C302 483 361 512 419 512 C504 512 519 425 519 425 L590 425 C590 425 578 573 418 573 C306 573 229 487 229 362 C229 215 309 143 422 143 C582 143 596 293 596 293 L527 293 Z M50 357 C50 151 188 -17 426 -17 C642 -17 802 136 802 357 C802 578 644 730 426 730 C216 730 50 578 50 357 L50 357 Z M118 356 C118 533 241 672 426 672 C611 672 734 533 734 356 C734 179 611 40 426 40 C241 40 118 179 118 356 L118 356 Z " />
<glyph glyph-name="ordfeminine" unicode="&#xaa;" horiz-adv-x="369" d="M231 546 C231 546 200 548 176 548 C79 548 39 514 39 450 C39 384 80 355 147 355 C206 355 237 379 250 403 L250 399 C252 386 262 357 304 357 C321 357 338 361 338 361 L338 414 L325 414 C307 414 302 421 302 443 L302 571 C302 637 267 673 185 673 C59 673 55 576 55 576 L125 576 C126 581 127 618 180 618 C218 618 231 602 231 568 L231 546 Z M230 482 C230 433 207 410 164 410 C129 410 112 425 112 454 C112 483 127 501 184 501 C209 501 230 499 230 499 L230 482 Z " />
<glyph glyph-name="guillemotleft" unicode="&#xab;" horiz-adv-x="469" d="M159 436 L54 245 L159 53 L232 53 L142 245 L233 436 L159 436 Z M337 436 L232 245 L337 53 L410 53 L320 245 L411 436 L337 436 Z " />
<glyph glyph-name="logicalnot" unicode="&#xac;" horiz-adv-x="594" d="M82 219 L437 219 L437 68 L512 68 L512 287 L82 287 L82 219 Z " />
<glyph glyph-name="registered" unicode="&#xae;" horiz-adv-x="496" d="M244 574 L290 481 L347 481 L293 579 C329 590 347 610 347 647 C347 711 292 715 243 715 L165 715 L165 481 L217 481 L217 574 L244 574 Z M217 614 L217 676 L247 676 C273 676 293 674 293 647 C293 618 274 614 247 614 L217 614 Z M71 593 C71 707 149 771 248 771 C347 771 425 707 425 593 C425 479 347 415 248 415 C149 415 71 479 71 593 L71 593 Z M20 593 C20 452 124 373 248 373 C372 373 476 454 476 593 C476 732 374 813 248 813 C124 813 20 732 20 593 L20 593 Z " />
<glyph glyph-name="macron" unicode="&#xaf;" horiz-adv-x="270" d="M0 595 L270 595 L270 665 L0 665 L0 595 Z " />
<glyph glyph-name="degree" unicode="&#xb0;" horiz-adv-x="425" d="M213 785 C120 785 50 717 50 627 C50 538 114 468 213 468 C307 468 375 539 375 627 C375 717 310 785 213 785 L213 785 Z M213 729 C265 729 309 691 309 627 C309 564 266 524 213 524 C160 524 116 563 116 627 C116 692 161 729 213 729 L213 729 Z " />
<glyph glyph-name="plusminus" unicode="&#xb1;" horiz-adv-x="594" d="M82 281 L259 281 L259 140 L335 140 L335 281 L512 281 L512 348 L335 348 L335 487 L259 487 L259 348 L82 348 L82 281 Z M82 0 L512 0 L512 67 L82 67 L82 0 Z " />
<glyph glyph-name="twosuperior" unicode="&#xb2;" horiz-adv-x="411" d="M57 386 L355 386 L355 453 L150 453 C278 545 352 605 352 696 C352 769 304 814 216 814 C59 814 60 664 60 664 L132 664 C132 664 134 750 212 750 C263 750 274 718 274 692 C274 612 177 548 57 446 L57 386 Z " />
<glyph glyph-name="threesuperior" unicode="&#xb3;" horiz-adv-x="411" d="M49 520 C49 510 45 375 210 375 C311 375 363 426 363 506 C363 601 270 608 267 608 C275 609 348 626 348 706 C348 769 302 813 213 813 C79 813 66 703 65 682 L135 682 C137 693 141 750 209 750 C250 750 270 731 270 697 C270 650 238 633 182 633 L161 633 L161 575 L183 575 C248 575 284 560 284 508 C284 462 258 439 209 439 C124 439 121 509 121 520 L49 520 Z " />
<glyph glyph-name="acute" unicode="&#xb4;" horiz-adv-x="188" d="M65 688 L0 571 L86 571 L188 688 L65 688 Z " />
<glyph glyph-name="&amp;#xb5;" unicode="&#xb5;" horiz-adv-x="594" d="M107 -222 L185 -222 L185 38 C203 7 238 -10 281 -10 C375 -10 408 70 408 70 L412 0 L486 0 L486 488 L408 488 L408 197 C408 85 336 55 287 55 C192 55 185 124 185 197 L185 488 L107 488 L107 -222 Z " />
<glyph glyph-name="&amp;#x3bc;" unicode="&#x3bc;" horiz-adv-x="594" d="M107 -222 L185 -222 L185 38 C203 7 238 -10 281 -10 C375 -10 408 70 408 70 L412 0 L486 0 L486 488 L408 488 L408 197 C408 85 336 55 287 55 C192 55 185 124 185 197 L185 488 L107 488 L107 -222 Z " />
<glyph glyph-name="paragraph" unicode="&#xb6;" horiz-adv-x="594" d="M38 517 C38 409 125 322 233 322 L233 -100 L298 -100 L298 652 L410 652 L410 -100 L475 -100 L475 652 L556 652 L556 712 L233 712 C125 712 38 625 38 517 L38 517 Z " />
<glyph glyph-name="periodcentered" unicode="&#xb7;" horiz-adv-x="227" d="M59 200 L168 200 L168 305 L59 305 L59 200 Z " />
<glyph glyph-name="cedilla" unicode="&#xb8;" horiz-adv-x="188" d="M0 -219 C13 -221 28 -222 42 -222 C113 -222 188 -198 188 -122 C188 -95 172 -54 106 -54 C101 -54 94 -54 88 -55 L114 5 L65 5 L22 -83 L37 -100 C47 -97 59 -95 70 -95 C94 -95 113 -103 113 -129 C113 -169 75 -183 35 -183 C20 -183 11 -182 11 -182 L0 -219 Z " />
<glyph glyph-name="onesuperior" unicode="&#xb9;" horiz-adv-x="325" d="M240 386 L240 804 L175 804 C159 774 94 742 64 733 L64 661 C89 669 145 693 165 710 L165 386 L240 386 Z " />
<glyph glyph-name="ordmasculine" unicode="&#xba;" horiz-adv-x="369" d="M40 512 C40 390 103 350 185 350 C265 350 329 394 329 512 C329 626 266 673 185 673 C105 673 40 623 40 512 L40 512 Z M115 512 C115 590 144 615 185 615 C225 615 254 591 254 512 C254 430 225 408 185 408 C144 408 115 430 115 512 L115 512 Z " />
<glyph glyph-name="guillemotright" unicode="&#xbb;" horiz-adv-x="469" d="M236 436 L327 245 L237 53 L311 53 L415 245 L311 436 L236 436 Z M58 436 L149 245 L59 53 L133 53 L237 245 L133 436 L58 436 Z " />
<glyph glyph-name="onequarter" unicode="&#xbc;" horiz-adv-x="989" d="M274 285 L274 703 L209 703 C193 673 128 641 98 632 L98 560 C123 568 179 592 199 609 L199 285 L274 285 Z M233 -10 L302 -10 L753 707 L684 707 L233 -10 Z M623 88 L820 88 L820 0 L896 0 L896 88 L944 88 L944 148 L896 148 L896 418 L814 418 L623 142 L623 88 Z M691 148 L820 334 L820 148 L691 148 Z " />
<glyph glyph-name="onehalf" unicode="&#xbd;" horiz-adv-x="989" d="M274 285 L274 703 L209 703 C193 673 128 641 98 632 L98 560 C123 568 179 592 199 609 L199 285 L274 285 Z M233 -10 L302 -10 L753 707 L684 707 L233 -10 Z M635 0 L933 0 L933 67 L728 67 C856 159 930 219 930 310 C930 383 882 428 794 428 C637 428 638 278 638 278 L710 278 C710 278 712 364 790 364 C841 364 852 332 852 306 C852 226 755 162 635 60 L635 0 Z " />
<glyph glyph-name="threequarters" unicode="&#xbe;" horiz-adv-x="989" d="M623 88 L820 88 L820 0 L896 0 L896 88 L944 88 L944 148 L896 148 L896 418 L814 418 L623 142 L623 88 Z M50 419 C50 409 46 274 211 274 C312 274 364 325 364 405 C364 500 271 507 268 507 C276 508 349 525 349 605 C349 668 303 712 214 712 C80 712 67 602 66 581 L136 581 C138 592 142 649 210 649 C251 649 271 630 271 596 C271 549 239 532 183 532 L162 532 L162 474 L184 474 C249 474 285 459 285 407 C285 361 259 338 210 338 C125 338 122 408 122 419 L50 419 Z M233 -10 L302 -10 L753 707 L684 707 L233 -10 Z M691 148 L820 334 L820 148 L691 148 Z " />
<glyph glyph-name="questiondown" unicode="&#xbf;" horiz-adv-x="518" d="M286 525 L208 525 L208 451 C208 341 37 313 37 150 C37 37 118 -17 235 -17 C448 -17 440 176 440 176 L363 176 C363 176 369 52 236 52 C165 52 117 84 117 150 C117 277 286 318 286 451 L286 525 Z M302 712 L193 712 L193 607 L302 607 L302 712 Z " />
<glyph glyph-name="Agrave" unicode="&#xc0;" horiz-adv-x="688" d="M567 0 L658 0 L378 712 L307 712 L29 0 L114 0 L182 184 L498 184 L567 0 Z M274 429 L340 606 C343 598 374 512 406 430 L472 252 L208 252 L274 429 Z M187 898 L291 780 L380 780 L313 898 L187 898 Z " />
<glyph glyph-name="Aacute" unicode="&#xc1;" horiz-adv-x="688" d="M567 0 L658 0 L378 712 L307 712 L29 0 L114 0 L182 184 L498 184 L567 0 Z M274 429 L340 606 C343 598 374 512 406 430 L472 252 L208 252 L274 429 Z M365 898 L298 780 L387 780 L491 898 L365 898 Z " />
<glyph glyph-name="Acircumflex" unicode="&#xc2;" horiz-adv-x="688" d="M567 0 L658 0 L378 712 L307 712 L29 0 L114 0 L182 184 L498 184 L567 0 Z M274 429 L340 606 C343 598 374 512 406 430 L472 252 L208 252 L274 429 Z M287 898 L199 780 L289 780 L341 854 L393 780 L488 780 L401 898 L287 898 Z " />
<glyph glyph-name="Atilde" unicode="&#xc3;" horiz-adv-x="688" d="M567 0 L658 0 L378 712 L307 712 L29 0 L114 0 L182 184 L498 184 L567 0 Z M274 429 L340 606 C343 598 374 512 406 430 L472 252 L208 252 L274 429 Z M257 784 C257 800 260 828 287 828 C321 828 350 778 410 778 C474 778 487 837 486 892 L435 892 C435 880 435 844 405 844 C364 844 340 896 285 896 C222 896 201 841 202 784 L257 784 Z " />
<glyph glyph-name="Adieresis" unicode="&#xc4;" horiz-adv-x="688" d="M567 0 L658 0 L378 712 L307 712 L29 0 L114 0 L182 184 L498 184 L567 0 Z M274 429 L340 606 C343 598 374 512 406 430 L472 252 L208 252 L274 429 Z M206 796 L303 796 L303 898 L206 898 L206 796 Z M387 796 L481 796 L481 898 L387 898 L387 796 Z " />
<glyph glyph-name="Aring" unicode="&#xc5;" horiz-adv-x="688" d="M567 0 L658 0 L378 712 L307 712 L29 0 L114 0 L182 184 L498 184 L567 0 Z M274 429 L340 606 C343 598 374 512 406 430 L472 252 L208 252 L274 429 Z M232 839 C232 777 282 735 344 735 C406 735 456 777 456 839 C456 900 406 943 344 943 C282 943 232 900 232 839 L232 839 Z M290 839 C290 868 310 892 344 892 C378 892 398 868 398 839 C398 810 378 785 344 785 C310 785 290 810 290 839 L290 839 Z " />
<glyph glyph-name="AE" unicode="&#xc6;" horiz-adv-x="896" d="M828 0 L828 69 L534 69 L534 335 L790 335 L790 404 L534 404 L534 643 L827 643 L827 712 L393 712 L19 0 L103 0 L196 186 L454 186 L454 0 L828 0 Z M430 643 L454 643 L454 252 L231 252 L430 643 Z " />
<glyph glyph-name="Ccedilla" unicode="&#xc7;" horiz-adv-x="678" d="M255 -219 C268 -221 283 -222 297 -222 C368 -222 443 -198 443 -122 C443 -95 427 -54 361 -54 C356 -54 349 -54 343 -55 L359 -17 C582 -16 631 168 632 245 L549 245 C545 197 530 52 355 52 C168 52 141 224 141 356 C141 599 249 661 351 661 C515 661 536 516 538 481 L622 481 C622 539 574 730 351 730 C165 730 58 586 58 357 C58 144 128 5 310 -14 L277 -83 L292 -100 C302 -97 314 -95 325 -95 C349 -95 368 -103 368 -129 C368 -169 330 -183 290 -183 C275 -183 266 -182 266 -182 L255 -219 Z " />
<glyph glyph-name="Egrave" unicode="&#xc8;" horiz-adv-x="593" d="M98 0 L525 0 L525 69 L178 69 L178 332 L486 332 L486 401 L178 401 L178 643 L522 643 L522 712 L98 712 L98 0 Z M171 898 L275 780 L364 780 L297 898 L171 898 Z " />
<glyph glyph-name="Eacute" unicode="&#xc9;" horiz-adv-x="593" d="M98 0 L525 0 L525 69 L178 69 L178 332 L486 332 L486 401 L178 401 L178 643 L522 643 L522 712 L98 712 L98 0 Z M329 898 L262 780 L351 780 L455 898 L329 898 Z " />
<glyph glyph-name="Ecircumflex" unicode="&#xca;" horiz-adv-x="593" d="M98 0 L525 0 L525 69 L178 69 L178 332 L486 332 L486 401 L178 401 L178 643 L522 643 L522 712 L98 712 L98 0 Z M257 898 L169 780 L259 780 L311 854 L363 780 L458 780 L371 898 L257 898 Z " />
<glyph glyph-name="Edieresis" unicode="&#xcb;" horiz-adv-x="593" d="M98 0 L525 0 L525 69 L178 69 L178 332 L486 332 L486 401 L178 401 L178 643 L522 643 L522 712 L98 712 L98 0 Z M171 796 L268 796 L268 898 L171 898 L171 796 Z M352 796 L446 796 L446 898 L352 898 L352 796 Z " />
<glyph glyph-name="Igrave" unicode="&#xcc;" horiz-adv-x="276" d="M98 0 L178 0 L178 712 L98 712 L98 0 Z M11 898 L115 780 L204 780 L137 898 L11 898 Z " />
<glyph glyph-name="Iacute" unicode="&#xcd;" horiz-adv-x="276" d="M98 0 L178 0 L178 712 L98 712 L98 0 Z M145 898 L78 780 L167 780 L271 898 L145 898 Z " />
<glyph glyph-name="Icircumflex" unicode="&#xce;" horiz-adv-x="276" d="M98 0 L178 0 L178 712 L98 712 L98 0 Z M82 898 L-6 780 L84 780 L136 854 L188 780 L283 780 L196 898 L82 898 Z " />
<glyph glyph-name="Idieresis" unicode="&#xcf;" horiz-adv-x="276" d="M98 0 L178 0 L178 712 L98 712 L98 0 Z M0 796 L97 796 L97 898 L0 898 L0 796 Z M181 796 L275 796 L275 898 L181 898 L181 796 Z " />
<glyph glyph-name="Eth" unicode="&#xd0;" horiz-adv-x="708" d="M15 332 L103 332 L103 0 L275 0 C535 0 649 130 649 370 C649 596 542 712 275 712 L103 712 L103 398 L15 398 L15 332 Z M183 69 L183 332 L363 332 L363 398 L183 398 L183 642 L282 642 C486 642 566 560 566 368 C566 142 460 69 277 69 L183 69 Z " />
<glyph glyph-name="Ntilde" unicode="&#xd1;" horiz-adv-x="733" d="M98 0 L178 0 L178 351 C178 498 175 590 175 590 C175 590 224 505 295 397 L555 0 L635 0 L635 712 L555 712 L555 349 C555 221 557 128 557 128 C557 128 506 215 445 308 L182 712 L98 712 L98 0 Z M279 784 C279 800 282 828 309 828 C343 828 372 778 432 778 C496 778 509 837 508 892 L457 892 C457 880 457 844 427 844 C386 844 362 896 307 896 C244 896 223 841 224 784 L279 784 Z " />
<glyph glyph-name="Ograve" unicode="&#xd2;" horiz-adv-x="724" d="M58 356 C58 82 194 -17 362 -17 C530 -17 666 88 666 356 C666 611 536 730 362 730 C194 730 58 611 58 356 L58 356 Z M141 356 C141 564 230 661 362 661 C493 661 583 564 583 356 C583 138 494 52 362 52 C236 52 141 138 141 356 L141 356 Z M225 898 L329 780 L418 780 L351 898 L225 898 Z " />
<glyph glyph-name="Oacute" unicode="&#xd3;" horiz-adv-x="724" d="M58 356 C58 82 194 -17 362 -17 C530 -17 666 88 666 356 C666 611 536 730 362 730 C194 730 58 611 58 356 L58 356 Z M141 356 C141 564 230 661 362 661 C493 661 583 564 583 356 C583 138 494 52 362 52 C236 52 141 138 141 356 L141 356 Z M363 898 L296 780 L385 780 L489 898 L363 898 Z " />
<glyph glyph-name="Ocircumflex" unicode="&#xd4;" horiz-adv-x="724" d="M58 356 C58 82 194 -17 362 -17 C530 -17 666 88 666 356 C666 611 536 730 362 730 C194 730 58 611 58 356 L58 356 Z M141 356 C141 564 230 661 362 661 C493 661 583 564 583 356 C583 138 494 52 362 52 C236 52 141 138 141 356 L141 356 Z M305 898 L217 780 L307 780 L359 854 L411 780 L506 780 L419 898 L305 898 Z " />
<glyph glyph-name="Otilde" unicode="&#xd5;" horiz-adv-x="724" d="M58 356 C58 82 194 -17 362 -17 C530 -17 666 88 666 356 C666 611 536 730 362 730 C194 730 58 611 58 356 L58 356 Z M141 356 C141 564 230 661 362 661 C493 661 583 564 583 356 C583 138 494 52 362 52 C236 52 141 138 141 356 L141 356 Z M275 784 C275 800 278 828 305 828 C339 828 368 778 428 778 C492 778 505 837 504 892 L453 892 C453 880 453 844 423 844 C382 844 358 896 303 896 C240 896 219 841 220 784 L275 784 Z " />
<glyph glyph-name="Odieresis" unicode="&#xd6;" horiz-adv-x="724" d="M58 356 C58 82 194 -17 362 -17 C530 -17 666 88 666 356 C666 611 536 730 362 730 C194 730 58 611 58 356 L58 356 Z M141 356 C141 564 230 661 362 661 C493 661 583 564 583 356 C583 138 494 52 362 52 C236 52 141 138 141 356 L141 356 Z M224 796 L321 796 L321 898 L224 898 L224 796 Z M405 796 L499 796 L499 898 L405 898 L405 796 Z " />
<glyph glyph-name="multiply" unicode="&#xd7;" horiz-adv-x="594" d="M161 68 L296 201 L437 60 L489 111 L347 253 L479 385 L428 436 L297 303 L156 444 L105 392 L245 252 L111 118 L161 68 Z " />
<glyph glyph-name="Oslash" unicode="&#xd8;" horiz-adv-x="724" d="M46 -33 L127 -33 L178 39 C229 0 293 -17 362 -17 C530 -17 666 88 666 356 C666 473 638 561 592 623 L679 746 L598 746 L545 671 C495 711 432 730 362 730 C194 730 58 611 58 356 C58 233 85 145 130 86 L46 -33 Z M583 356 C583 138 494 52 362 52 C308 52 260 67 223 102 L542 553 C568 505 583 439 583 356 L583 356 Z M141 356 C141 564 230 661 362 661 C416 661 464 644 501 609 L181 157 C155 205 141 270 141 356 L141 356 Z " />
<glyph glyph-name="Ugrave" unicode="&#xd9;" horiz-adv-x="716" d="M90 246 C90 63 193 -16 358 -16 C516 -16 626 63 626 246 L626 712 L547 712 L547 246 C547 88 447 53 358 53 C269 53 170 94 170 252 L170 712 L90 712 L90 246 Z M231 898 L335 780 L424 780 L357 898 L231 898 Z " />
<glyph glyph-name="Uacute" unicode="&#xda;" horiz-adv-x="716" d="M90 246 C90 63 193 -16 358 -16 C516 -16 626 63 626 246 L626 712 L547 712 L547 246 C547 88 447 53 358 53 C269 53 170 94 170 252 L170 712 L90 712 L90 246 Z M369 898 L302 780 L391 780 L495 898 L369 898 Z " />
<glyph glyph-name="Ucircumflex" unicode="&#xdb;" horiz-adv-x="716" d="M90 246 C90 63 193 -16 358 -16 C516 -16 626 63 626 246 L626 712 L547 712 L547 246 C547 88 447 53 358 53 C269 53 170 94 170 252 L170 712 L90 712 L90 246 Z M301 898 L213 780 L303 780 L355 854 L407 780 L502 780 L415 898 L301 898 Z " />
<glyph glyph-name="Udieresis" unicode="&#xdc;" horiz-adv-x="716" d="M90 246 C90 63 193 -16 358 -16 C516 -16 626 63 626 246 L626 712 L547 712 L547 246 C547 88 447 53 358 53 C269 53 170 94 170 252 L170 712 L90 712 L90 246 Z M220 796 L317 796 L317 898 L220 898 L220 796 Z M401 796 L495 796 L495 898 L401 898 L401 796 Z " />
<glyph glyph-name="Yacute" unicode="&#xdd;" horiz-adv-x="573" d="M243 0 L323 0 L323 294 L562 712 L475 712 L376 531 C326 439 286 364 286 364 C286 364 247 440 198 533 L103 712 L11 712 L243 294 L243 0 Z M305 898 L238 780 L327 780 L431 898 L305 898 Z " />
<glyph glyph-name="Thorn" unicode="&#xde;" horiz-adv-x="607" d="M98 0 L178 0 L178 159 L307 159 C459 159 567 218 567 378 C567 543 448 574 321 574 L178 574 L178 712 L98 712 L98 0 Z M178 228 L178 505 L321 505 C434 505 485 474 485 372 C485 251 410 228 307 228 L178 228 Z " />
<glyph glyph-name="germandbls" unicode="&#xdf;" horiz-adv-x="556" d="M175 509 C175 566 185 659 286 659 C348 659 388 621 388 553 C388 472 339 435 264 435 L251 435 L251 373 L264 373 C381 373 440 318 440 212 C440 82 372 57 297 57 C275 57 251 61 251 61 L251 1 C251 1 278 -5 313 -5 C402 -5 518 31 518 213 C518 335 447 400 349 408 C412 415 467 479 467 557 C467 660 394 723 288 723 C141 723 98 618 98 508 L98 488 L32 488 L32 419 L98 419 L98 0 L175 0 L175 509 Z " />
<glyph glyph-name="agrave" unicode="&#xe0;" horiz-adv-x="520" d="M358 294 C358 294 306 298 258 298 C109 298 46 242 46 144 C46 37 112 -10 211 -10 C277 -10 342 18 369 73 L370 66 C374 35 392 -5 449 -5 C470 -5 488 0 488 0 L488 60 L464 60 C439 60 433 81 433 116 L433 339 C433 447 381 505 257 505 C83 505 71 353 71 353 L146 353 C146 353 149 442 255 442 C330 442 358 410 358 336 L358 294 Z M358 194 C358 109 311 55 229 55 C161 55 125 82 125 148 C125 210 158 242 270 242 C316 242 358 239 358 239 L358 194 Z M126 688 L228 571 L314 571 L249 688 L126 688 Z " />
<glyph glyph-name="aacute" unicode="&#xe1;" horiz-adv-x="520" d="M358 294 C358 294 306 298 258 298 C109 298 46 242 46 144 C46 37 112 -10 211 -10 C277 -10 342 18 369 73 L370 66 C374 35 392 -5 449 -5 C470 -5 488 0 488 0 L488 60 L464 60 C439 60 433 81 433 116 L433 339 C433 447 381 505 257 505 C83 505 71 353 71 353 L146 353 C146 353 149 442 255 442 C330 442 358 410 358 336 L358 294 Z M358 194 C358 109 311 55 229 55 C161 55 125 82 125 148 C125 210 158 242 270 242 C316 242 358 239 358 239 L358 194 Z M285 688 L220 571 L306 571 L408 688 L285 688 Z " />
<glyph glyph-name="acircumflex" unicode="&#xe2;" horiz-adv-x="520" d="M358 294 C358 294 306 298 258 298 C109 298 46 242 46 144 C46 37 112 -10 211 -10 C277 -10 342 18 369 73 L370 66 C374 35 392 -5 449 -5 C470 -5 488 0 488 0 L488 60 L464 60 C439 60 433 81 433 116 L433 339 C433 447 381 505 257 505 C83 505 71 353 71 353 L146 353 C146 353 149 442 255 442 C330 442 358 410 358 336 L358 294 Z M358 194 C358 109 311 55 229 55 C161 55 125 82 125 148 C125 210 158 242 270 242 C316 242 358 239 358 239 L358 194 Z M204 688 L117 571 L204 571 L257 647 L310 571 L403 571 L316 688 L204 688 Z " />
<glyph glyph-name="atilde" unicode="&#xe3;" horiz-adv-x="520" d="M358 294 C358 294 306 298 258 298 C109 298 46 242 46 144 C46 37 112 -10 211 -10 C277 -10 342 18 369 73 L370 66 C374 35 392 -5 449 -5 C470 -5 488 0 488 0 L488 60 L464 60 C439 60 433 81 433 116 L433 339 C433 447 381 505 257 505 C83 505 71 353 71 353 L146 353 C146 353 149 442 255 442 C330 442 358 410 358 336 L358 294 Z M358 194 C358 109 311 55 229 55 C161 55 125 82 125 148 C125 210 158 242 270 242 C316 242 358 239 358 239 L358 194 Z M173 574 C173 590 176 618 203 618 C237 618 266 568 326 568 C390 568 403 627 402 682 L351 682 C351 670 351 634 321 634 C280 634 256 686 201 686 C138 686 117 631 118 574 L173 574 Z " />
<glyph glyph-name="adieresis" unicode="&#xe4;" horiz-adv-x="520" d="M358 294 C358 294 306 298 258 298 C109 298 46 242 46 144 C46 37 112 -10 211 -10 C277 -10 342 18 369 73 L370 66 C374 35 392 -5 449 -5 C470 -5 488 0 488 0 L488 60 L464 60 C439 60 433 81 433 116 L433 339 C433 447 381 505 257 505 C83 505 71 353 71 353 L146 353 C146 353 149 442 255 442 C330 442 358 410 358 336 L358 294 Z M358 194 C358 109 311 55 229 55 C161 55 125 82 125 148 C125 210 158 242 270 242 C316 242 358 239 358 239 L358 194 Z M122 587 L217 587 L217 688 L122 688 L122 587 Z M303 587 L396 587 L396 688 L303 688 L303 587 Z " />
<glyph glyph-name="aring" unicode="&#xe5;" horiz-adv-x="520" d="M358 294 C358 294 306 298 258 298 C109 298 46 242 46 144 C46 37 112 -10 211 -10 C277 -10 342 18 369 73 L370 66 C374 35 392 -5 449 -5 C470 -5 488 0 488 0 L488 60 L464 60 C439 60 433 81 433 116 L433 339 C433 447 381 505 257 505 C83 505 71 353 71 353 L146 353 C146 353 149 442 255 442 C330 442 358 410 358 336 L358 294 Z M358 194 C358 109 311 55 229 55 C161 55 125 82 125 148 C125 210 158 242 270 242 C316 242 358 239 358 239 L358 194 Z M149 653 C149 592 199 550 260 550 C321 550 371 592 371 653 C371 714 321 757 260 757 C199 757 149 714 149 653 L149 653 Z M205 653 C205 683 225 708 260 708 C295 708 315 683 315 653 C315 623 295 598 260 598 C225 598 205 623 205 653 L205 653 Z " />
<glyph glyph-name="ae" unicode="&#xe6;" horiz-adv-x="783" d="M739 227 C740 239 740 248 740 260 C740 398 686 505 552 505 C439 505 394 419 394 419 C394 419 365 505 248 505 C76 505 68 355 68 355 L143 355 C143 355 145 442 244 442 C320 442 346 391 346 326 L346 288 L251 288 C149 288 46 262 46 135 C46 27 111 -17 217 -17 C350 -17 384 88 384 88 C384 88 414 -17 556 -17 C721 -17 734 144 734 144 L662 144 C662 144 660 46 557 46 C459 46 424 139 424 227 L739 227 Z M426 285 C430 372 466 442 551 442 C626 442 663 375 663 285 L426 285 Z M346 194 C346 90 294 46 221 46 C156 46 125 80 125 139 C125 222 189 231 265 231 L346 231 L346 194 Z " />
<glyph glyph-name="ccedilla" unicode="&#xe7;" horiz-adv-x="484" d="M169 -219 C182 -221 197 -222 211 -222 C282 -222 357 -198 357 -122 C357 -95 341 -54 275 -54 C270 -54 263 -54 257 -55 L273 -17 C415 -11 448 99 448 163 L375 163 C372 97 344 48 262 48 C145 48 128 148 128 244 C128 339 149 440 253 440 C345 440 363 369 367 328 L443 328 C443 364 422 505 253 505 C97 505 50 369 50 244 C50 99 100 1 224 -15 L191 -83 L206 -100 C216 -97 228 -95 239 -95 C263 -95 282 -103 282 -129 C282 -169 244 -183 204 -183 C189 -183 180 -182 180 -182 L169 -219 Z " />
<glyph glyph-name="egrave" unicode="&#xe8;" horiz-adv-x="511" d="M467 225 C478 372 424 505 263 505 C104 505 50 374 50 235 C50 74 122 -17 271 -17 C427 -17 459 103 461 145 L389 145 C386 125 372 48 270 48 C163 48 128 132 128 225 L467 225 Z M130 286 C138 374 172 440 265 440 C348 440 391 376 391 286 L130 286 Z M127 688 L229 571 L315 571 L250 688 L127 688 Z " />
<glyph glyph-name="eacute" unicode="&#xe9;" horiz-adv-x="511" d="M467 225 C478 372 424 505 263 505 C104 505 50 374 50 235 C50 74 122 -17 271 -17 C427 -17 459 103 461 145 L389 145 C386 125 372 48 270 48 C163 48 128 132 128 225 L467 225 Z M130 286 C138 374 172 440 265 440 C348 440 391 376 391 286 L130 286 Z M280 688 L215 571 L301 571 L403 688 L280 688 Z " />
<glyph glyph-name="ecircumflex" unicode="&#xea;" horiz-adv-x="511" d="M467 225 C478 372 424 505 263 505 C104 505 50 374 50 235 C50 74 122 -17 271 -17 C427 -17 459 103 461 145 L389 145 C386 125 372 48 270 48 C163 48 128 132 128 225 L467 225 Z M130 286 C138 374 172 440 265 440 C348 440 391 376 391 286 L130 286 Z M208 688 L121 571 L208 571 L261 647 L314 571 L407 571 L320 688 L208 688 Z " />
<glyph glyph-name="edieresis" unicode="&#xeb;" horiz-adv-x="511" d="M467 225 C478 372 424 505 263 505 C104 505 50 374 50 235 C50 74 122 -17 271 -17 C427 -17 459 103 461 145 L389 145 C386 125 372 48 270 48 C163 48 128 132 128 225 L467 225 Z M130 286 C138 374 172 440 265 440 C348 440 391 376 391 286 L130 286 Z M127 587 L222 587 L222 688 L127 688 L127 587 Z M308 587 L401 587 L401 688 L308 688 L308 587 Z " />
<glyph glyph-name="igrave" unicode="&#xec;" horiz-adv-x="246" d="M84 0 L162 0 L162 488 L84 488 L84 0 Z M-11 688 L91 571 L177 571 L112 688 L-11 688 Z " />
<glyph glyph-name="iacute" unicode="&#xed;" horiz-adv-x="246" d="M84 0 L162 0 L162 488 L84 488 L84 0 Z M133 688 L68 571 L154 571 L256 688 L133 688 Z " />
<glyph glyph-name="icircumflex" unicode="&#xee;" horiz-adv-x="246" d="M84 0 L162 0 L162 488 L84 488 L84 0 Z M67 688 L-20 571 L67 571 L120 647 L173 571 L266 571 L179 688 L67 688 Z " />
<glyph glyph-name="idieresis" unicode="&#xef;" horiz-adv-x="246" d="M84 0 L162 0 L162 488 L84 488 L84 0 Z M-14 587 L81 587 L81 688 L-14 688 L-14 587 Z M167 587 L260 587 L260 688 L167 688 L167 587 Z " />
<glyph glyph-name="eth" unicode="&#xf0;" horiz-adv-x="520" d="M111 568 L287 568 L295 554 L350 457 C345 463 317 495 254 495 C134 495 50 404 50 243 C50 54 137 -17 260 -17 C380 -17 470 60 470 243 C470 354 432 440 369 559 L364 568 L441 568 L441 628 L332 628 L288 712 L206 712 L253 628 L111 628 L111 568 Z M128 243 C128 372 181 430 260 430 C339 430 392 373 392 243 C392 103 341 48 260 48 C179 48 128 105 128 243 L128 243 Z " />
<glyph glyph-name="ntilde" unicode="&#xf1;" horiz-adv-x="558" d="M84 0 L162 0 L162 291 C162 403 241 433 290 433 C375 433 398 377 398 291 L398 0 L476 0 L476 324 C476 426 428 498 310 498 C199 498 162 419 162 419 L159 488 L84 488 L84 0 Z M201 574 C201 590 204 618 231 618 C265 618 294 568 354 568 C418 568 431 627 430 682 L379 682 C379 670 379 634 349 634 C308 634 284 686 229 686 C166 686 145 631 146 574 L201 574 Z " />
<glyph glyph-name="ograve" unicode="&#xf2;" horiz-adv-x="520" d="M50 244 C50 50 138 -17 260 -17 C377 -17 470 56 470 244 C470 435 376 505 260 505 C144 505 50 424 50 244 L50 244 Z M128 244 C128 384 181 440 260 440 C339 440 392 387 392 244 C392 98 341 48 260 48 C179 48 128 100 128 244 L128 244 Z M116 688 L218 571 L304 571 L239 688 L116 688 Z " />
<glyph glyph-name="oacute" unicode="&#xf3;" horiz-adv-x="520" d="M50 244 C50 50 138 -17 260 -17 C377 -17 470 56 470 244 C470 435 376 505 260 505 C144 505 50 424 50 244 L50 244 Z M128 244 C128 384 181 440 260 440 C339 440 392 387 392 244 C392 98 341 48 260 48 C179 48 128 100 128 244 L128 244 Z M272 688 L207 571 L293 571 L395 688 L272 688 Z " />
<glyph glyph-name="ocircumflex" unicode="&#xf4;" horiz-adv-x="520" d="M50 244 C50 50 138 -17 260 -17 C377 -17 470 56 470 244 C470 435 376 505 260 505 C144 505 50 424 50 244 L50 244 Z M128 244 C128 384 181 440 260 440 C339 440 392 387 392 244 C392 98 341 48 260 48 C179 48 128 100 128 244 L128 244 Z M204 688 L117 571 L204 571 L257 647 L310 571 L403 571 L316 688 L204 688 Z " />
<glyph glyph-name="otilde" unicode="&#xf5;" horiz-adv-x="520" d="M50 244 C50 50 138 -17 260 -17 C377 -17 470 56 470 244 C470 435 376 505 260 505 C144 505 50 424 50 244 L50 244 Z M128 244 C128 384 181 440 260 440 C339 440 392 387 392 244 C392 98 341 48 260 48 C179 48 128 100 128 244 L128 244 Z M173 574 C173 590 176 618 203 618 C237 618 266 568 326 568 C390 568 403 627 402 682 L351 682 C351 670 351 634 321 634 C280 634 256 686 201 686 C138 686 117 631 118 574 L173 574 Z " />
<glyph glyph-name="odieresis" unicode="&#xf6;" horiz-adv-x="520" d="M50 244 C50 50 138 -17 260 -17 C377 -17 470 56 470 244 C470 435 376 505 260 505 C144 505 50 424 50 244 L50 244 Z M128 244 C128 384 181 440 260 440 C339 440 392 387 392 244 C392 98 341 48 260 48 C179 48 128 100 128 244 L128 244 Z M123 587 L218 587 L218 688 L123 688 L123 587 Z M304 587 L397 587 L397 688 L304 688 L304 587 Z " />
<glyph glyph-name="divide" unicode="&#xf7;" horiz-adv-x="594" d="M244 58 L349 58 L349 160 L244 160 L244 58 Z M244 349 L349 349 L349 451 L244 451 L244 349 Z M82 220 L512 220 L512 287 L82 287 L82 220 Z " />
<glyph glyph-name="oslash" unicode="&#xf8;" horiz-adv-x="520" d="M39 -27 L111 -27 L139 15 C173 -7 214 -17 260 -17 C377 -17 470 56 470 244 C470 328 451 388 421 430 L480 516 L408 516 L378 472 C345 495 304 505 260 505 C144 505 50 424 50 244 C50 159 66 98 96 57 L39 -27 Z M392 244 C392 98 341 48 260 48 C228 48 201 56 180 74 L374 360 C386 331 392 293 392 244 L392 244 Z M128 244 C128 384 181 440 260 440 C290 440 317 432 338 414 L144 128 C134 157 128 195 128 244 L128 244 Z " />
<glyph glyph-name="ugrave" unicode="&#xf9;" horiz-adv-x="545" d="M461 488 L383 488 L383 197 C383 85 311 55 262 55 C170 55 160 113 160 197 L160 488 L82 488 L82 177 C82 70 121 -10 243 -10 C353 -10 383 70 383 70 L387 0 L461 0 L461 488 Z M131 688 L233 571 L319 571 L254 688 L131 688 Z " />
<glyph glyph-name="uacute" unicode="&#xfa;" horiz-adv-x="545" d="M461 488 L383 488 L383 197 C383 85 311 55 262 55 C170 55 160 113 160 197 L160 488 L82 488 L82 177 C82 70 121 -10 243 -10 C353 -10 383 70 383 70 L387 0 L461 0 L461 488 Z M290 688 L225 571 L311 571 L413 688 L290 688 Z " />
<glyph glyph-name="ucircumflex" unicode="&#xfb;" horiz-adv-x="545" d="M461 488 L383 488 L383 197 C383 85 311 55 262 55 C170 55 160 113 160 197 L160 488 L82 488 L82 177 C82 70 121 -10 243 -10 C353 -10 383 70 383 70 L387 0 L461 0 L461 488 Z M216 688 L129 571 L216 571 L269 647 L322 571 L415 571 L328 688 L216 688 Z " />
<glyph glyph-name="udieresis" unicode="&#xfc;" horiz-adv-x="545" d="M461 488 L383 488 L383 197 C383 85 311 55 262 55 C170 55 160 113 160 197 L160 488 L82 488 L82 177 C82 70 121 -10 243 -10 C353 -10 383 70 383 70 L387 0 L461 0 L461 488 Z M132 587 L227 587 L227 688 L132 688 L132 587 Z M313 587 L406 587 L406 688 L313 688 L313 587 Z " />
<glyph glyph-name="yacute" unicode="&#xfd;" horiz-adv-x="506" d="M186 -79 C169 -123 142 -135 97 -135 L75 -135 L75 -201 C75 -201 98 -203 116 -203 C219 -203 239 -144 276 -46 L479 488 L396 488 L317 265 C283 168 257 93 257 93 C257 93 228 180 196 270 L119 488 L33 488 L218 2 L186 -79 Z M272 688 L207 571 L293 571 L395 688 L272 688 Z " />
<glyph glyph-name="thorn" unicode="&#xfe;" horiz-adv-x="556" d="M84 -202 L162 -202 L162 70 C162 70 197 -17 311 -17 C439 -17 506 99 506 254 C506 386 446 505 314 505 C201 505 162 419 162 419 L162 712 L84 712 L84 -202 Z M162 255 C162 346 200 440 300 440 C394 440 428 352 428 254 C428 77 355 47 299 47 C184 48 162 159 162 255 L162 255 Z " />
<glyph glyph-name="ydieresis" unicode="&#xff;" horiz-adv-x="506" d="M186 -79 C169 -123 142 -135 97 -135 L75 -135 L75 -201 C75 -201 98 -203 116 -203 C219 -203 239 -144 276 -46 L479 488 L396 488 L317 265 C283 168 257 93 257 93 C257 93 228 180 196 270 L119 488 L33 488 L218 2 L186 -79 Z M125 587 L220 587 L220 688 L125 688 L125 587 Z M306 587 L399 587 L399 688 L306 688 L306 587 Z " />
<glyph glyph-name="Amacron" unicode="&#x100;" horiz-adv-x="688" d="M567 0 L658 0 L378 712 L307 712 L29 0 L114 0 L182 184 L498 184 L567 0 Z M274 429 L340 606 C343 598 374 512 406 430 L472 252 L208 252 L274 429 Z M208 804 L479 804 L479 876 L208 876 L208 804 Z " />
<glyph glyph-name="amacron" unicode="&#x101;" horiz-adv-x="520" d="M358 294 C358 294 306 298 258 298 C109 298 46 242 46 144 C46 37 112 -10 211 -10 C277 -10 342 18 369 73 L370 66 C374 35 392 -5 449 -5 C470 -5 488 0 488 0 L488 60 L464 60 C439 60 433 81 433 116 L433 339 C433 447 381 505 257 505 C83 505 71 353 71 353 L146 353 C146 353 149 442 255 442 C330 442 358 410 358 336 L358 294 Z M358 194 C358 109 311 55 229 55 C161 55 125 82 125 148 C125 210 158 242 270 242 C316 242 358 239 358 239 L358 194 Z M125 595 L395 595 L395 665 L125 665 L125 595 Z " />
<glyph glyph-name="Abreve" unicode="&#x102;" horiz-adv-x="688" d="M567 0 L658 0 L378 712 L307 712 L29 0 L114 0 L182 184 L498 184 L567 0 Z M274 429 L340 606 C343 598 374 512 406 430 L472 252 L208 252 L274 429 Z M211 898 C211 877 212 778 345 778 C475 778 477 888 477 898 L399 898 C399 885 399 834 345 834 C290 834 290 885 290 898 L211 898 Z " />
<glyph glyph-name="abreve" unicode="&#x103;" horiz-adv-x="520" d="M358 294 C358 294 306 298 258 298 C109 298 46 242 46 144 C46 37 112 -10 211 -10 C277 -10 342 18 369 73 L370 66 C374 35 392 -5 449 -5 C470 -5 488 0 488 0 L488 60 L464 60 C439 60 433 81 433 116 L433 339 C433 447 381 505 257 505 C83 505 71 353 71 353 L146 353 C146 353 149 442 255 442 C330 442 358 410 358 336 L358 294 Z M358 194 C358 109 311 55 229 55 C161 55 125 82 125 148 C125 210 158 242 270 242 C316 242 358 239 358 239 L358 194 Z M127 688 C127 667 128 568 261 568 C391 568 393 678 393 688 L315 688 C315 675 315 624 261 624 C206 624 206 675 206 688 L127 688 Z " />
<glyph glyph-name="Aogonek" unicode="&#x104;" horiz-adv-x="688" d="M685 -135 C685 -135 669 -142 649 -142 C621 -142 595 -129 595 -94 C595 -52 629 -21 658 0 L378 712 L307 712 L29 0 L114 0 L182 184 L498 184 L567 0 L608 0 C558 -30 515 -61 515 -117 C515 -173 568 -193 613 -193 C642 -193 670 -185 685 -174 L685 -135 Z M274 429 L340 606 C343 598 374 512 406 430 L472 252 L208 252 L274 429 Z " />
<glyph glyph-name="aogonek" unicode="&#x105;" horiz-adv-x="520" d="M515 -135 C515 -135 499 -142 479 -142 C451 -142 425 -129 425 -94 C425 -52 459 -21 488 0 L488 60 L464 60 C439 60 433 81 433 116 L433 339 C433 447 381 505 257 505 C83 505 71 353 71 353 L146 353 C146 353 149 442 255 442 C330 442 358 410 358 336 L358 294 C358 294 306 298 258 298 C109 298 46 242 46 144 C46 37 112 -10 211 -10 C277 -10 342 18 369 73 L370 66 C373 38 388 3 432 -3 C384 -32 345 -63 345 -117 C345 -173 398 -193 443 -193 C472 -193 500 -185 515 -174 L515 -135 Z M358 194 C358 109 311 55 229 55 C161 55 125 82 125 148 C125 210 158 242 270 242 C316 242 358 239 358 239 L358 194 Z " />
<glyph glyph-name="Cacute" unicode="&#x106;" horiz-adv-x="678" d="M549 245 C545 197 530 52 355 52 C168 52 141 224 141 356 C141 599 249 661 351 661 C515 661 536 516 538 481 L622 481 C622 539 574 730 351 730 C165 730 58 586 58 357 C58 127 140 -17 358 -17 C582 -17 631 168 632 245 L549 245 Z M360 898 L293 780 L382 780 L486 898 L360 898 Z " />
<glyph glyph-name="cacute" unicode="&#x107;" horiz-adv-x="484" d="M375 163 C372 97 344 48 262 48 C145 48 128 148 128 244 C128 339 149 440 253 440 C345 440 363 369 367 328 L443 328 C443 364 422 505 253 505 C97 505 50 369 50 244 C50 85 110 -17 262 -17 C414 -17 448 98 448 163 L375 163 Z M274 688 L209 571 L295 571 L397 688 L274 688 Z " />
<glyph glyph-name="Ccircumflex" unicode="&#x108;" horiz-adv-x="678" d="M549 245 C545 197 530 52 355 52 C168 52 141 224 141 356 C141 599 249 661 351 661 C515 661 536 516 538 481 L622 481 C622 539 574 730 351 730 C165 730 58 586 58 357 C58 127 140 -17 358 -17 C582 -17 631 168 632 245 L549 245 Z M300 898 L212 780 L302 780 L354 854 L406 780 L501 780 L414 898 L300 898 Z " />
<glyph glyph-name="ccircumflex" unicode="&#x109;" horiz-adv-x="484" d="M375 163 C372 97 344 48 262 48 C145 48 128 148 128 244 C128 339 149 440 253 440 C345 440 363 369 367 328 L443 328 C443 364 422 505 253 505 C97 505 50 369 50 244 C50 85 110 -17 262 -17 C414 -17 448 98 448 163 L375 163 Z M204 688 L117 571 L204 571 L257 647 L310 571 L403 571 L316 688 L204 688 Z " />
<glyph glyph-name="Cdotaccent" unicode="&#x10a;" horiz-adv-x="678" d="M549 245 C545 197 530 52 355 52 C168 52 141 224 141 356 C141 599 249 661 351 661 C515 661 536 516 538 481 L622 481 C622 539 574 730 351 730 C165 730 58 586 58 357 C58 127 140 -17 358 -17 C582 -17 631 168 632 245 L549 245 Z M297 794 L398 794 L398 900 L297 900 L297 794 Z " />
<glyph glyph-name="cdotaccent" unicode="&#x10b;" horiz-adv-x="484" d="M375 163 C372 97 344 48 262 48 C145 48 128 148 128 244 C128 339 149 440 253 440 C345 440 363 369 367 328 L443 328 C443 364 422 505 253 505 C97 505 50 369 50 244 C50 85 110 -17 262 -17 C414 -17 448 98 448 163 L375 163 Z M202 585 L301 585 L301 690 L202 690 L202 585 Z " />
<glyph glyph-name="Ccaron" unicode="&#x10c;" horiz-adv-x="678" d="M549 245 C545 197 530 52 355 52 C168 52 141 224 141 356 C141 599 249 661 351 661 C515 661 536 516 538 481 L622 481 C622 539 574 730 351 730 C165 730 58 586 58 357 C58 127 140 -17 358 -17 C582 -17 631 168 632 245 L549 245 Z M405 780 L492 898 L399 898 L347 825 L295 898 L203 898 L291 780 L405 780 Z " />
<glyph glyph-name="ccaron" unicode="&#x10d;" horiz-adv-x="484" d="M375 163 C372 97 344 48 262 48 C145 48 128 148 128 244 C128 339 149 440 253 440 C345 440 363 369 367 328 L443 328 C443 364 422 505 253 505 C97 505 50 369 50 244 C50 85 110 -17 262 -17 C414 -17 448 98 448 163 L375 163 Z M307 571 L394 688 L301 688 L248 612 L195 688 L108 688 L195 571 L307 571 Z " />
<glyph glyph-name="Dcaron" unicode="&#x10e;" horiz-adv-x="703" d="M98 0 L270 0 C530 0 644 130 644 370 C644 596 537 712 270 712 L98 712 L98 0 Z M178 69 L178 642 L277 642 C481 642 561 560 561 368 C561 142 455 69 272 69 L178 69 Z M360 780 L447 898 L354 898 L302 825 L250 898 L158 898 L246 780 L360 780 Z " />
<glyph glyph-name="dcaron" unicode="&#x10f;" horiz-adv-x="637" d="M472 712 L394 712 L394 424 C394 424 358 505 253 505 C125 505 50 406 50 245 C50 98 105 -10 250 -10 C360 -10 394 78 394 78 L397 0 L472 0 L472 712 Z M394 259 C394 162 367 54 258 54 C199 54 128 80 128 245 C128 330 153 440 257 440 C356 440 394 349 394 259 L394 259 Z M531 616 L582 616 C583 586 566 568 534 564 L534 502 C606 514 640 544 640 641 L640 712 L531 712 L531 616 Z " />
<glyph glyph-name="Dcroat" unicode="&#x110;" horiz-adv-x="708" d="M15 332 L103 332 L103 0 L275 0 C535 0 649 130 649 370 C649 596 542 712 275 712 L103 712 L103 398 L15 398 L15 332 Z M183 69 L183 332 L363 332 L363 398 L183 398 L183 642 L282 642 C486 642 566 560 566 368 C566 142 460 69 277 69 L183 69 Z " />
<glyph glyph-name="dcroat" unicode="&#x111;" horiz-adv-x="556" d="M169 588 L394 588 L394 424 C394 424 358 505 253 505 C125 505 50 406 50 245 C50 98 105 -10 250 -10 C360 -10 394 78 394 78 L397 0 L472 0 L472 588 L559 588 L559 650 L472 650 L472 712 L394 712 L394 650 L169 650 L169 588 Z M394 259 C394 162 367 54 258 54 C199 54 128 80 128 245 C128 330 153 440 257 440 C356 440 394 349 394 259 L394 259 Z " />
<glyph glyph-name="Emacron" unicode="&#x112;" horiz-adv-x="593" d="M98 0 L525 0 L525 69 L178 69 L178 332 L486 332 L486 401 L178 401 L178 643 L522 643 L522 712 L98 712 L98 0 Z M178 804 L449 804 L449 876 L178 876 L178 804 Z " />
<glyph glyph-name="emacron" unicode="&#x113;" horiz-adv-x="511" d="M467 225 C478 372 424 505 263 505 C104 505 50 374 50 235 C50 74 122 -17 271 -17 C427 -17 459 103 461 145 L389 145 C386 125 372 48 270 48 C163 48 128 132 128 225 L467 225 Z M130 286 C138 374 172 440 265 440 C348 440 391 376 391 286 L130 286 Z M128 595 L398 595 L398 665 L128 665 L128 595 Z " />
<glyph glyph-name="Ebreve" unicode="&#x114;" horiz-adv-x="593" d="M98 0 L525 0 L525 69 L178 69 L178 332 L486 332 L486 401 L178 401 L178 643 L522 643 L522 712 L98 712 L98 0 Z M182 898 C182 877 183 778 316 778 C446 778 448 888 448 898 L370 898 C370 885 370 834 316 834 C261 834 261 885 261 898 L182 898 Z " />
<glyph glyph-name="ebreve" unicode="&#x115;" horiz-adv-x="511" d="M467 225 C478 372 424 505 263 505 C104 505 50 374 50 235 C50 74 122 -17 271 -17 C427 -17 459 103 461 145 L389 145 C386 125 372 48 270 48 C163 48 128 132 128 225 L467 225 Z M130 286 C138 374 172 440 265 440 C348 440 391 376 391 286 L130 286 Z M129 688 C129 667 130 568 263 568 C393 568 395 678 395 688 L317 688 C317 675 317 624 263 624 C208 624 208 675 208 688 L129 688 Z " />
<glyph glyph-name="Edotaccent" unicode="&#x116;" horiz-adv-x="593" d="M98 0 L525 0 L525 69 L178 69 L178 332 L486 332 L486 401 L178 401 L178 643 L522 643 L522 712 L98 712 L98 0 Z M268 794 L369 794 L369 900 L268 900 L268 794 Z " />
<glyph glyph-name="edotaccent" unicode="&#x117;" horiz-adv-x="511" d="M467 225 C478 372 424 505 263 505 C104 505 50 374 50 235 C50 74 122 -17 271 -17 C427 -17 459 103 461 145 L389 145 C386 125 372 48 270 48 C163 48 128 132 128 225 L467 225 Z M130 286 C138 374 172 440 265 440 C348 440 391 376 391 286 L130 286 Z M214 585 L313 585 L313 690 L214 690 L214 585 Z " />
<glyph glyph-name="Eogonek" unicode="&#x118;" horiz-adv-x="593" d="M98 0 L475 0 C425 -30 382 -61 382 -117 C382 -173 435 -193 480 -193 C509 -193 537 -185 552 -174 L552 -135 C552 -135 536 -142 516 -142 C488 -142 462 -129 462 -94 C462 -52 496 -21 525 0 L525 69 L178 69 L178 332 L486 332 L486 401 L178 401 L178 643 L522 643 L522 712 L98 712 L98 0 Z " />
<glyph glyph-name="eogonek" unicode="&#x119;" horiz-adv-x="511" d="M387 -135 C387 -135 371 -142 351 -142 C323 -142 297 -129 297 -94 C297 -52 330 -22 358 -1 C440 33 459 112 461 145 L389 145 C386 125 372 48 270 48 C163 48 128 132 128 225 L467 225 C478 372 424 505 263 505 C104 505 50 374 50 235 C50 74 122 -17 271 -17 L282 -17 C245 -42 217 -71 217 -117 C217 -173 270 -193 315 -193 C344 -193 372 -185 387 -174 L387 -135 Z M130 286 C138 374 172 440 265 440 C348 440 391 376 391 286 L130 286 Z " />
<glyph glyph-name="Ecaron" unicode="&#x11a;" horiz-adv-x="593" d="M98 0 L525 0 L525 69 L178 69 L178 332 L486 332 L486 401 L178 401 L178 643 L522 643 L522 712 L98 712 L98 0 Z M369 780 L456 898 L363 898 L311 825 L259 898 L167 898 L255 780 L369 780 Z " />
<glyph glyph-name="ecaron" unicode="&#x11b;" horiz-adv-x="511" d="M467 225 C478 372 424 505 263 505 C104 505 50 374 50 235 C50 74 122 -17 271 -17 C427 -17 459 103 461 145 L389 145 C386 125 372 48 270 48 C163 48 128 132 128 225 L467 225 Z M130 286 C138 374 172 440 265 440 C348 440 391 376 391 286 L130 286 Z M316 571 L403 688 L310 688 L257 612 L204 688 L117 688 L204 571 L316 571 Z " />
<glyph glyph-name="Gcircumflex" unicode="&#x11c;" horiz-adv-x="699" d="M555 0 L625 0 L625 376 L365 376 L365 305 L550 305 L550 300 C550 168 495 59 355 59 C181 59 140 208 140 356 C140 520 197 660 356 660 C510 660 531 521 531 521 L613 521 C613 521 586 729 357 729 C140 729 58 546 58 356 C58 79 187 -10 347 -10 C507 -10 552 110 552 110 L555 0 Z M293 898 L205 780 L295 780 L347 854 L399 780 L494 780 L407 898 L293 898 Z " />
<glyph glyph-name="gcircumflex" unicode="&#x11d;" horiz-adv-x="556" d="M472 488 L394 488 L394 422 C394 422 357 498 253 498 C106 498 50 368 50 242 C50 108 113 0 250 0 C362 0 395 81 395 81 L395 12 C395 -126 339 -154 268 -154 C148 -154 143 -55 143 -55 L70 -55 C70 -55 64 -219 267 -219 C415 -219 472 -127 472 3 L472 488 Z M394 263 C394 149 357 65 258 65 C203 65 128 94 128 246 C128 352 164 433 257 433 C352 433 394 353 394 263 L394 263 Z M222 688 L135 571 L222 571 L275 647 L328 571 L421 571 L334 688 L222 688 Z " />
<glyph glyph-name="Gbreve" unicode="&#x11e;" horiz-adv-x="699" d="M555 0 L625 0 L625 376 L365 376 L365 305 L550 305 L550 300 C550 168 495 59 355 59 C181 59 140 208 140 356 C140 520 197 660 356 660 C510 660 531 521 531 521 L613 521 C613 521 586 729 357 729 C140 729 58 546 58 356 C58 79 187 -10 347 -10 C507 -10 552 110 552 110 L555 0 Z M216 898 C216 877 217 778 350 778 C480 778 482 888 482 898 L404 898 C404 885 404 834 350 834 C295 834 295 885 295 898 L216 898 Z " />
<glyph glyph-name="gbreve" unicode="&#x11f;" horiz-adv-x="556" d="M472 488 L394 488 L394 422 C394 422 357 498 253 498 C106 498 50 368 50 242 C50 108 113 0 250 0 C362 0 395 81 395 81 L395 12 C395 -126 339 -154 268 -154 C148 -154 143 -55 143 -55 L70 -55 C70 -55 64 -219 267 -219 C415 -219 472 -127 472 3 L472 488 Z M394 263 C394 149 357 65 258 65 C203 65 128 94 128 246 C128 352 164 433 257 433 C352 433 394 353 394 263 L394 263 Z M135 688 C135 667 136 568 269 568 C399 568 401 678 401 688 L323 688 C323 675 323 624 269 624 C214 624 214 675 214 688 L135 688 Z " />
<glyph glyph-name="Gdotaccent" unicode="&#x120;" horiz-adv-x="699" d="M555 0 L625 0 L625 376 L365 376 L365 305 L550 305 L550 300 C550 168 495 59 355 59 C181 59 140 208 140 356 C140 520 197 660 356 660 C510 660 531 521 531 521 L613 521 C613 521 586 729 357 729 C140 729 58 546 58 356 C58 79 187 -10 347 -10 C507 -10 552 110 552 110 L555 0 Z M299 794 L400 794 L400 900 L299 900 L299 794 Z " />
<glyph glyph-name="gdotaccent" unicode="&#x121;" horiz-adv-x="556" d="M472 488 L394 488 L394 422 C394 422 357 498 253 498 C106 498 50 368 50 242 C50 108 113 0 250 0 C362 0 395 81 395 81 L395 12 C395 -126 339 -154 268 -154 C148 -154 143 -55 143 -55 L70 -55 C70 -55 64 -219 267 -219 C415 -219 472 -127 472 3 L472 488 Z M394 263 C394 149 357 65 258 65 C203 65 128 94 128 246 C128 352 164 433 257 433 C352 433 394 353 394 263 L394 263 Z M217 585 L316 585 L316 690 L217 690 L217 585 Z " />
<glyph glyph-name="Gcommaaccent" unicode="&#x122;" horiz-adv-x="699" d="M555 0 L625 0 L625 376 L365 376 L365 305 L550 305 L550 300 C550 168 495 59 355 59 C181 59 140 208 140 356 C140 520 197 660 356 660 C510 660 531 521 531 521 L613 521 C613 521 586 729 357 729 C140 729 58 546 58 356 C58 79 187 -10 347 -10 C507 -10 552 110 552 110 L555 0 Z M288 -149 L339 -149 C340 -179 323 -197 291 -201 L291 -263 C363 -251 397 -221 397 -124 L397 -53 L288 -53 L288 -149 Z " />
<glyph glyph-name="gcommaaccent" unicode="&#x123;" horiz-adv-x="556" d="M472 488 L394 488 L394 422 C394 422 357 498 253 498 C106 498 50 368 50 242 C50 108 113 0 250 0 C362 0 395 81 395 81 L395 12 C395 -126 339 -154 268 -154 C148 -154 143 -55 143 -55 L70 -55 C70 -55 64 -219 267 -219 C415 -219 472 -127 472 3 L472 488 Z M394 263 C394 149 357 65 258 65 C203 65 128 94 128 246 C128 352 164 433 257 433 C352 433 394 353 394 263 L394 263 Z M319 672 L268 672 C267 702 284 720 316 724 L316 786 C244 774 210 744 210 647 L210 576 L319 576 L319 672 Z " />
<glyph glyph-name="Hcircumflex" unicode="&#x124;" horiz-adv-x="732" d="M98 0 L178 0 L178 331 L554 331 L554 0 L634 0 L634 712 L554 712 L554 400 L178 400 L178 712 L98 712 L98 0 Z M309 898 L221 780 L311 780 L363 854 L415 780 L510 780 L423 898 L309 898 Z " />
<glyph glyph-name="hcircumflex" unicode="&#x125;" horiz-adv-x="558" d="M84 0 L162 0 L162 291 C162 403 241 433 290 433 C376 433 398 377 398 291 L398 0 L476 0 L476 324 C476 426 428 498 310 498 C199 498 162 419 162 419 L162 712 L84 712 L84 0 Z M67 872 L-20 755 L67 755 L120 831 L173 755 L266 755 L179 872 L67 872 Z " />
<glyph glyph-name="Hbar" unicode="&#x126;" horiz-adv-x="732" d="M-9 536 L98 536 L98 0 L178 0 L178 331 L554 331 L554 0 L634 0 L634 536 L741 536 L741 602 L634 602 L634 712 L554 712 L554 602 L178 602 L178 712 L98 712 L98 602 L-9 602 L-9 536 Z M178 400 L178 536 L554 536 L554 400 L178 400 Z " />
<glyph glyph-name="hbar" unicode="&#x127;" horiz-adv-x="558" d="M-2 588 L84 588 L84 0 L162 0 L162 291 C162 403 241 433 290 433 C376 433 398 377 398 291 L398 0 L476 0 L476 324 C476 426 428 498 310 498 C199 498 162 419 162 419 L162 588 L388 588 L388 650 L162 650 L162 712 L84 712 L84 650 L-2 650 L-2 588 Z " />
<glyph glyph-name="Itilde" unicode="&#x128;" horiz-adv-x="276" d="M98 0 L178 0 L178 712 L98 712 L98 0 Z M51 784 C51 800 54 828 81 828 C115 828 144 778 204 778 C268 778 281 837 280 892 L229 892 C229 880 229 844 199 844 C158 844 134 896 79 896 C16 896 -5 841 -4 784 L51 784 Z " />
<glyph glyph-name="itilde" unicode="&#x129;" horiz-adv-x="246" d="M84 0 L162 0 L162 488 L84 488 L84 0 Z M36 574 C36 590 39 618 66 618 C100 618 129 568 189 568 C253 568 266 627 265 682 L214 682 C214 670 214 634 184 634 C143 634 119 686 64 686 C1 686 -20 631 -19 574 L36 574 Z " />
<glyph glyph-name="Imacron" unicode="&#x12a;" horiz-adv-x="276" d="M98 0 L178 0 L178 712 L98 712 L98 0 Z M0 804 L271 804 L271 876 L0 876 L0 804 Z " />
<glyph glyph-name="imacron" unicode="&#x12b;" horiz-adv-x="246" d="M84 0 L162 0 L162 488 L84 488 L84 0 Z M-12 595 L258 595 L258 665 L-12 665 L-12 595 Z " />
<glyph glyph-name="Ibreve" unicode="&#x12c;" horiz-adv-x="276" d="M98 0 L178 0 L178 712 L98 712 L98 0 Z M5 898 C5 877 6 778 139 778 C269 778 271 888 271 898 L193 898 C193 885 193 834 139 834 C84 834 84 885 84 898 L5 898 Z " />
<glyph glyph-name="ibreve" unicode="&#x12d;" horiz-adv-x="246" d="M84 0 L162 0 L162 488 L84 488 L84 0 Z M-10 688 C-10 667 -9 568 124 568 C254 568 256 678 256 688 L178 688 C178 675 178 624 124 624 C69 624 69 675 69 688 L-10 688 Z " />
<glyph glyph-name="Iogonek" unicode="&#x12e;" horiz-adv-x="276" d="M98 0 L128 0 C78 -30 35 -61 35 -117 C35 -173 88 -193 133 -193 C162 -193 190 -185 205 -174 L205 -135 C205 -135 189 -142 169 -142 C141 -142 115 -129 115 -94 C115 -52 149 -21 178 0 L178 712 L98 712 L98 0 Z " />
<glyph glyph-name="iogonek" unicode="&#x12f;" horiz-adv-x="246" d="M84 0 L112 0 C62 -30 19 -61 19 -117 C19 -173 72 -193 117 -193 C146 -193 174 -185 189 -174 L189 -135 C189 -135 173 -142 153 -142 C125 -142 99 -129 99 -94 C99 -52 133 -21 162 0 L162 488 L84 488 L84 0 Z M75 611 L170 611 L170 712 L75 712 L75 611 Z " />
<glyph glyph-name="Idotaccent" unicode="&#x130;" horiz-adv-x="276" d="M98 0 L178 0 L178 712 L98 712 L98 0 Z M87 794 L188 794 L188 900 L87 900 L87 794 Z " />
<glyph glyph-name="dotlessi" unicode="&#x131;" horiz-adv-x="246" d="M84 0 L162 0 L162 488 L84 488 L84 0 Z " />
<glyph glyph-name="IJ" unicode="&#x132;" horiz-adv-x="782" d="M98 0 L178 0 L178 712 L98 712 L98 0 Z M313 224 C306 86 353 -17 500 -17 C655 -17 688 94 688 223 L688 712 L608 712 L608 238 C608 122 590 51 501 51 C394 51 388 150 388 224 L313 224 Z " />
<glyph glyph-name="ij" unicode="&#x133;" horiz-adv-x="492" d="M75 611 L170 611 L170 712 L75 712 L75 611 Z M84 0 L162 0 L162 488 L84 488 L84 0 Z M238 -202 C238 -202 261 -205 284 -205 C405 -205 408 -120 408 -28 L408 488 L330 488 L330 -40 C330 -115 330 -136 250 -136 L238 -136 L238 -202 Z M322 611 L417 611 L417 712 L322 712 L322 611 Z " />
<glyph glyph-name="Jcircumflex" unicode="&#x134;" horiz-adv-x="506" d="M37 224 C30 86 77 -17 224 -17 C379 -17 412 94 412 223 L412 712 L332 712 L332 238 C332 122 314 51 225 51 C118 51 112 150 112 224 L37 224 Z M313 898 L225 780 L315 780 L367 854 L419 780 L514 780 L427 898 L313 898 Z " />
<glyph glyph-name="jcircumflex" unicode="&#x135;" horiz-adv-x="246" d="M-8 -202 C-8 -202 15 -205 38 -205 C159 -205 162 -120 162 -28 L162 488 L84 488 L84 -40 C84 -115 84 -136 4 -136 L-8 -136 L-8 -202 Z M67 688 L-20 571 L67 571 L120 647 L173 571 L266 571 L179 688 L67 688 Z " />
<glyph glyph-name="Kcommaaccent" unicode="&#x136;" horiz-adv-x="650" d="M522 0 L626 0 L325 407 L584 712 L488 712 L178 345 L178 712 L98 712 L98 0 L178 0 L178 238 L270 347 L522 0 Z M296 -149 L347 -149 C348 -179 331 -197 299 -201 L299 -263 C371 -251 405 -221 405 -124 L405 -53 L296 -53 L296 -149 Z " />
<glyph glyph-name="kcommaaccent" unicode="&#x137;" horiz-adv-x="500" d="M385 0 L480 0 L284 308 L452 488 L356 488 L162 281 L162 712 L84 712 L84 0 L162 0 L162 184 L229 255 L385 0 Z M215 -149 L266 -149 C267 -179 250 -197 218 -201 L218 -263 C290 -251 324 -221 324 -124 L324 -53 L215 -53 L215 -149 Z " />
<glyph glyph-name="kgreenlandic" unicode="&#x138;" horiz-adv-x="500" d="M452 488 L356 488 L162 267 L162 487 L84 487 L84 0 L162 0 L162 170 L232 247 L385 0 L480 0 L285 305 L452 488 Z " />
<glyph glyph-name="Lacute" unicode="&#x139;" horiz-adv-x="513" d="M98 0 L478 0 L478 69 L178 69 L178 712 L98 712 L98 0 Z M168 898 L101 780 L190 780 L294 898 L168 898 Z " />
<glyph glyph-name="lacute" unicode="&#x13a;" horiz-adv-x="246" d="M84 0 L162 0 L162 712 L84 712 L84 0 Z M150 874 L85 757 L171 757 L273 874 L150 874 Z " />
<glyph glyph-name="Lcommaaccent" unicode="&#x13b;" horiz-adv-x="513" d="M98 0 L478 0 L478 69 L178 69 L178 712 L98 712 L98 0 Z M236 -149 L287 -149 C288 -179 271 -197 239 -201 L239 -263 C311 -251 345 -221 345 -124 L345 -53 L236 -53 L236 -149 Z " />
<glyph glyph-name="lcommaaccent" unicode="&#x13c;" horiz-adv-x="246" d="M84 0 L162 0 L162 712 L84 712 L84 0 Z M67 -149 L118 -149 C119 -179 102 -197 70 -201 L70 -263 C142 -251 176 -221 176 -124 L176 -53 L67 -53 L67 -149 Z " />
<glyph glyph-name="Lcaron" unicode="&#x13d;" horiz-adv-x="513" d="M98 0 L478 0 L478 69 L178 69 L178 712 L98 712 L98 0 Z M244 616 L295 616 C296 586 279 568 247 564 L247 502 C319 514 353 544 353 641 L353 712 L244 712 L244 616 Z " />
<glyph glyph-name="lcaron" unicode="&#x13e;" horiz-adv-x="328" d="M84 0 L162 0 L162 712 L84 712 L84 0 Z M222 616 L273 616 C274 586 257 568 225 564 L225 502 C297 514 331 544 331 641 L331 712 L222 712 L222 616 Z " />
<glyph glyph-name="Ldot" unicode="&#x13f;" horiz-adv-x="513" d="M98 0 L478 0 L478 69 L178 69 L178 712 L98 712 L98 0 Z M345 328 L454 328 L454 433 L345 433 L345 328 Z " />
<glyph glyph-name="ldot" unicode="&#x140;" horiz-adv-x="405" d="M84 0 L162 0 L162 712 L84 712 L84 0 Z M275 317 L384 317 L384 422 L275 422 L275 317 Z " />
<glyph glyph-name="Lslash" unicode="&#x141;" horiz-adv-x="513" d="M98 0 L478 0 L478 69 L178 69 L178 303 L339 431 L339 517 L178 389 L178 712 L98 712 L98 334 L11 266 L11 180 L98 248 L98 0 Z " />
<glyph glyph-name="lslash" unicode="&#x142;" horiz-adv-x="246" d="M84 0 L162 0 L162 334 L238 394 L238 479 L162 419 L162 712 L84 712 L84 362 L11 306 L11 220 L84 277 L84 0 Z " />
<glyph glyph-name="Nacute" unicode="&#x143;" horiz-adv-x="733" d="M98 0 L178 0 L178 351 C178 498 175 590 175 590 C175 590 224 505 295 397 L555 0 L635 0 L635 712 L555 712 L555 349 C555 221 557 128 557 128 C557 128 506 215 445 308 L182 712 L98 712 L98 0 Z M392 898 L325 780 L414 780 L518 898 L392 898 Z " />
<glyph glyph-name="nacute" unicode="&#x144;" horiz-adv-x="558" d="M84 0 L162 0 L162 291 C162 403 241 433 290 433 C375 433 398 377 398 291 L398 0 L476 0 L476 324 C476 426 428 498 310 498 C199 498 162 419 162 419 L159 488 L84 488 L84 0 Z M298 688 L233 571 L319 571 L421 688 L298 688 Z " />
<glyph glyph-name="Ncommaaccent" unicode="&#x145;" horiz-adv-x="733" d="M98 0 L178 0 L178 351 C178 498 175 590 175 590 C175 590 224 505 295 397 L555 0 L635 0 L635 712 L555 712 L555 349 C555 221 557 128 557 128 C557 128 506 215 445 308 L182 712 L98 712 L98 0 Z M322 -149 L373 -149 C374 -179 357 -197 325 -201 L325 -263 C397 -251 431 -221 431 -124 L431 -53 L322 -53 L322 -149 Z " />
<glyph glyph-name="ncommaaccent" unicode="&#x146;" horiz-adv-x="558" d="M84 0 L162 0 L162 291 C162 403 241 433 290 433 C375 433 398 377 398 291 L398 0 L476 0 L476 324 C476 426 428 498 310 498 C199 498 162 419 162 419 L159 488 L84 488 L84 0 Z M224 -149 L275 -149 C276 -179 259 -197 227 -201 L227 -263 C299 -251 333 -221 333 -124 L333 -53 L224 -53 L224 -149 Z " />
<glyph glyph-name="Ncaron" unicode="&#x147;" horiz-adv-x="733" d="M98 0 L178 0 L178 351 C178 498 175 590 175 590 C175 590 224 505 295 397 L555 0 L635 0 L635 712 L555 712 L555 349 C555 221 557 128 557 128 C557 128 506 215 445 308 L182 712 L98 712 L98 0 Z M424 780 L511 898 L418 898 L366 825 L314 898 L222 898 L310 780 L424 780 Z " />
<glyph glyph-name="ncaron" unicode="&#x148;" horiz-adv-x="558" d="M84 0 L162 0 L162 291 C162 403 241 433 290 433 C375 433 398 377 398 291 L398 0 L476 0 L476 324 C476 426 428 498 310 498 C199 498 162 419 162 419 L159 488 L84 488 L84 0 Z M342 571 L429 688 L336 688 L283 612 L230 688 L143 688 L230 571 L342 571 Z " />
<glyph glyph-name="napostrophe" unicode="&#x149;" horiz-adv-x="558" d="M84 0 L162 0 L162 291 C162 403 241 433 290 433 C375 433 398 377 398 291 L398 0 L476 0 L476 324 C476 426 428 498 310 498 C199 498 162 419 162 419 L159 488 L84 488 L84 0 Z M8 626 L59 626 C60 596 43 578 11 574 L11 512 C83 524 117 554 117 651 L117 722 L8 722 L8 626 Z " />
<glyph glyph-name="Eng" unicode="&#x14a;" horiz-adv-x="733" d="M98 0 L178 0 L178 351 C178 498 176 585 176 585 C176 585 225 510 298 403 L555 30 L555 -18 C555 -105 538 -150 467 -150 C401 -150 371 -111 369 -57 L294 -57 C294 -125 326 -219 460 -219 C610 -219 635 -125 635 0 L635 712 L555 712 L555 349 C555 221 557 159 557 159 C557 159 500 245 433 343 L182 712 L98 712 L98 0 Z " />
<glyph glyph-name="eng" unicode="&#x14b;" horiz-adv-x="558" d="M306 -202 C306 -202 329 -205 352 -205 C473 -205 476 -120 476 -28 L476 324 C476 426 428 498 310 498 C199 498 162 419 162 419 L159 488 L84 488 L84 0 L162 0 L162 291 C162 403 241 433 290 433 C375 433 398 377 398 291 L398 -40 C398 -115 398 -136 318 -136 L306 -136 L306 -202 Z " />
<glyph glyph-name="Omacron" unicode="&#x14c;" horiz-adv-x="724" d="M58 356 C58 82 194 -17 362 -17 C530 -17 666 88 666 356 C666 611 536 730 362 730 C194 730 58 611 58 356 L58 356 Z M141 356 C141 564 230 661 362 661 C493 661 583 564 583 356 C583 138 494 52 362 52 C236 52 141 138 141 356 L141 356 Z M226 804 L497 804 L497 876 L226 876 L226 804 Z " />
<glyph glyph-name="omacron" unicode="&#x14d;" horiz-adv-x="520" d="M50 244 C50 50 138 -17 260 -17 C377 -17 470 56 470 244 C470 435 376 505 260 505 C144 505 50 424 50 244 L50 244 Z M128 244 C128 384 181 440 260 440 C339 440 392 387 392 244 C392 98 341 48 260 48 C179 48 128 100 128 244 L128 244 Z M125 595 L395 595 L395 665 L125 665 L125 595 Z " />
<glyph glyph-name="Obreve" unicode="&#x14e;" horiz-adv-x="724" d="M58 356 C58 82 194 -17 362 -17 C530 -17 666 88 666 356 C666 611 536 730 362 730 C194 730 58 611 58 356 L58 356 Z M141 356 C141 564 230 661 362 661 C493 661 583 564 583 356 C583 138 494 52 362 52 C236 52 141 138 141 356 L141 356 Z M229 898 C229 877 230 778 363 778 C493 778 495 888 495 898 L417 898 C417 885 417 834 363 834 C308 834 308 885 308 898 L229 898 Z " />
<glyph glyph-name="obreve" unicode="&#x14f;" horiz-adv-x="520" d="M50 244 C50 50 138 -17 260 -17 C377 -17 470 56 470 244 C470 435 376 505 260 505 C144 505 50 424 50 244 L50 244 Z M128 244 C128 384 181 440 260 440 C339 440 392 387 392 244 C392 98 341 48 260 48 C179 48 128 100 128 244 L128 244 Z M127 688 C127 667 128 568 261 568 C391 568 393 678 393 688 L315 688 C315 675 315 624 261 624 C206 624 206 675 206 688 L127 688 Z " />
<glyph glyph-name="Ohungarumlaut" unicode="&#x150;" horiz-adv-x="724" d="M58 356 C58 82 194 -17 362 -17 C530 -17 666 88 666 356 C666 611 536 730 362 730 C194 730 58 611 58 356 L58 356 Z M141 356 C141 564 230 661 362 661 C493 661 583 564 583 356 C583 138 494 52 362 52 C236 52 141 138 141 356 L141 356 Z M289 898 L222 780 L311 780 L415 898 L289 898 Z M477 898 L410 780 L498 780 L602 898 L477 898 Z " />
<glyph glyph-name="ohungarumlaut" unicode="&#x151;" horiz-adv-x="520" d="M50 244 C50 50 138 -17 260 -17 C377 -17 470 56 470 244 C470 435 376 505 260 505 C144 505 50 424 50 244 L50 244 Z M128 244 C128 384 181 440 260 440 C339 440 392 387 392 244 C392 98 341 48 260 48 C179 48 128 100 128 244 L128 244 Z M199 688 L134 571 L220 571 L322 688 L199 688 Z M387 688 L322 571 L408 571 L510 688 L387 688 Z " />
<glyph glyph-name="OE" unicode="&#x152;" horiz-adv-x="988" d="M920 0 L920 69 L613 69 L613 332 L881 332 L881 401 L613 401 L613 643 L917 643 L917 712 L533 712 L533 711 C533 711 467 730 387 730 C221 730 58 639 58 356 C58 54 207 -16 390 -16 C472 -16 533 1 533 1 L533 0 L920 0 Z M140 356 C140 584 251 661 388 661 C471 661 533 641 533 641 L533 69 C533 69 482 52 391 52 C248 52 140 105 140 356 L140 356 Z " />
<glyph glyph-name="oe" unicode="&#x153;" horiz-adv-x="816" d="M50 248 C50 67 127 -17 250 -17 C366 -17 408 96 408 96 C408 96 446 -17 588 -17 C750 -17 764 134 764 134 L692 134 C692 134 681 46 590 46 C487 46 451 132 451 225 L772 225 C781 363 735 505 579 505 C455 505 411 392 411 392 C411 392 381 505 250 505 C130 505 50 411 50 248 L50 248 Z M128 248 C128 378 177 440 250 440 C323 440 373 375 373 248 C373 116 325 48 250 48 C175 48 128 116 128 248 L128 248 Z M453 286 C457 373 496 442 579 442 C654 442 696 377 696 286 L453 286 Z " />
<glyph glyph-name="Racute" unicode="&#x154;" horiz-adv-x="629" d="M98 0 L178 0 L178 307 L314 307 L469 0 L562 0 L397 315 C497 332 567 396 567 522 C567 678 451 712 325 712 L98 712 L98 0 Z M178 376 L178 643 L276 643 C419 643 485 634 485 519 C485 398 409 376 325 376 L178 376 Z M324 898 L257 780 L346 780 L450 898 L324 898 Z " />
<glyph glyph-name="racute" unicode="&#x155;" horiz-adv-x="353" d="M84 0 L162 0 L162 284 C162 365 190 430 291 430 C302 430 317 428 317 428 L317 495 C317 495 300 498 281 498 C227 498 180 467 159 418 L155 488 L84 488 L84 0 Z M205 688 L140 571 L226 571 L328 688 L205 688 Z " />
<glyph glyph-name="Rcommaaccent" unicode="&#x156;" horiz-adv-x="629" d="M98 0 L178 0 L178 307 L314 307 L469 0 L562 0 L397 315 C497 332 567 396 567 522 C567 678 451 712 325 712 L98 712 L98 0 Z M178 376 L178 643 L276 643 C419 643 485 634 485 519 C485 398 409 376 325 376 L178 376 Z M260 -149 L311 -149 C312 -179 295 -197 263 -201 L263 -263 C335 -251 369 -221 369 -124 L369 -53 L260 -53 L260 -149 Z " />
<glyph glyph-name="rcommaaccent" unicode="&#x157;" horiz-adv-x="353" d="M84 0 L162 0 L162 284 C162 365 190 430 291 430 C302 430 317 428 317 428 L317 495 C317 495 300 498 281 498 C227 498 180 467 159 418 L155 488 L84 488 L84 0 Z M68 -149 L119 -149 C120 -179 103 -197 71 -201 L71 -263 C143 -251 177 -221 177 -124 L177 -53 L68 -53 L68 -149 Z " />
<glyph glyph-name="Rcaron" unicode="&#x158;" horiz-adv-x="629" d="M98 0 L178 0 L178 307 L314 307 L469 0 L562 0 L397 315 C497 332 567 396 567 522 C567 678 451 712 325 712 L98 712 L98 0 Z M178 376 L178 643 L276 643 C419 643 485 634 485 519 C485 398 409 376 325 376 L178 376 Z M357 780 L444 898 L351 898 L299 825 L247 898 L155 898 L243 780 L357 780 Z " />
<glyph glyph-name="rcaron" unicode="&#x159;" horiz-adv-x="353" d="M84 0 L162 0 L162 284 C162 365 190 430 291 430 C302 430 317 428 317 428 L317 495 C317 495 300 498 281 498 C227 498 180 467 159 418 L155 488 L84 488 L84 0 Z M242 571 L329 688 L236 688 L183 612 L130 688 L43 688 L130 571 L242 571 Z " />
<glyph glyph-name="Sacute" unicode="&#x15a;" horiz-adv-x="598" d="M56 225 C56 93 130 -17 323 -17 C470 -17 549 59 549 190 C549 418 167 366 167 543 C167 620 212 660 301 660 C411 660 442 579 446 509 L526 509 C524 623 462 730 299 730 C156 730 85 648 85 541 C85 296 466 360 466 187 C466 96 419 53 320 53 C199 53 141 122 137 225 L56 225 Z M320 898 L253 780 L342 780 L446 898 L320 898 Z " />
<glyph glyph-name="sacute" unicode="&#x15b;" horiz-adv-x="454" d="M49 155 C49 73 96 -17 246 -17 C352 -17 409 38 409 128 C409 301 141 249 141 370 C141 419 174 442 221 442 C298 442 317 386 319 345 L394 345 C394 387 378 505 222 505 C115 505 65 441 65 367 C65 183 332 246 332 123 C332 71 302 46 244 46 C152 46 124 106 124 155 L49 155 Z M238 688 L173 571 L259 571 L361 688 L238 688 Z " />
<glyph glyph-name="Scircumflex" unicode="&#x15c;" horiz-adv-x="598" d="M56 225 C56 93 130 -17 323 -17 C470 -17 549 59 549 190 C549 418 167 366 167 543 C167 620 212 660 301 660 C411 660 442 579 446 509 L526 509 C524 623 462 730 299 730 C156 730 85 648 85 541 C85 296 466 360 466 187 C466 96 419 53 320 53 C199 53 141 122 137 225 L56 225 Z M255 898 L167 780 L257 780 L309 854 L361 780 L456 780 L369 898 L255 898 Z " />
<glyph glyph-name="scircumflex" unicode="&#x15d;" horiz-adv-x="454" d="M49 155 C49 73 96 -17 246 -17 C352 -17 409 38 409 128 C409 301 141 249 141 370 C141 419 174 442 221 442 C298 442 317 386 319 345 L394 345 C394 387 378 505 222 505 C115 505 65 441 65 367 C65 183 332 246 332 123 C332 71 302 46 244 46 C152 46 124 106 124 155 L49 155 Z M175 688 L88 571 L175 571 L228 647 L281 571 L374 571 L287 688 L175 688 Z " />
<glyph glyph-name="Scedilla" unicode="&#x15e;" horiz-adv-x="598" d="M227 -219 C240 -221 255 -222 269 -222 C340 -222 415 -198 415 -122 C415 -95 399 -54 333 -54 C328 -54 321 -54 315 -55 L331 -17 C473 -14 549 61 549 190 C549 418 167 366 167 543 C167 620 212 660 301 660 C411 660 442 579 446 509 L526 509 C524 623 462 730 299 730 C156 730 85 648 85 541 C85 296 466 360 466 187 C466 96 419 53 320 53 C199 53 141 122 137 225 L56 225 C56 103 119 0 282 -15 L249 -83 L264 -100 C274 -97 286 -95 297 -95 C321 -95 340 -103 340 -129 C340 -169 302 -183 262 -183 C247 -183 238 -182 238 -182 L227 -219 Z " />
<glyph glyph-name="scedilla" unicode="&#x15f;" horiz-adv-x="454" d="M152 -219 C165 -221 180 -222 194 -222 C265 -222 340 -198 340 -122 C340 -95 324 -54 258 -54 C253 -54 246 -54 240 -55 L256 -17 C356 -13 409 41 409 128 C409 301 141 249 141 370 C141 419 174 442 221 442 C298 442 317 386 319 345 L394 345 C394 387 378 505 222 505 C115 505 65 441 65 367 C65 183 332 246 332 123 C332 71 302 46 244 46 C152 46 124 106 124 155 L49 155 C49 80 88 -1 207 -15 L174 -83 L189 -100 C199 -97 211 -95 222 -95 C246 -95 265 -103 265 -129 C265 -169 227 -183 187 -183 C172 -183 163 -182 163 -182 L152 -219 Z " />
<glyph glyph-name="Scaron" unicode="&#x160;" horiz-adv-x="598" d="M56 225 C56 93 130 -17 323 -17 C470 -17 549 59 549 190 C549 418 167 366 167 543 C167 620 212 660 301 660 C411 660 442 579 446 509 L526 509 C524 623 462 730 299 730 C156 730 85 648 85 541 C85 296 466 360 466 187 C466 96 419 53 320 53 C199 53 141 122 137 225 L56 225 Z M369 780 L456 898 L363 898 L311 825 L259 898 L167 898 L255 780 L369 780 Z " />
<glyph glyph-name="scaron" unicode="&#x161;" horiz-adv-x="454" d="M49 155 C49 73 96 -17 246 -17 C352 -17 409 38 409 128 C409 301 141 249 141 370 C141 419 174 442 221 442 C298 442 317 386 319 345 L394 345 C394 387 378 505 222 505 C115 505 65 441 65 367 C65 183 332 246 332 123 C332 71 302 46 244 46 C152 46 124 106 124 155 L49 155 Z M283 571 L370 688 L277 688 L224 612 L171 688 L84 688 L171 571 L283 571 Z " />
<glyph glyph-name="Tcedilla" unicode="&#x162;" horiz-adv-x="548" d="M234 0 L248 0 L208 -83 L223 -100 C233 -97 245 -95 256 -95 C280 -95 299 -103 299 -129 C299 -169 261 -183 221 -183 C206 -183 197 -182 197 -182 L186 -219 C199 -221 214 -222 228 -222 C299 -222 374 -198 374 -122 C374 -95 358 -54 292 -54 C287 -54 280 -54 274 -55 L298 0 L313 0 L313 643 L526 643 L526 712 L22 712 L22 643 L234 643 L234 0 Z " />
<glyph glyph-name="tcommaaccent" unicode="&#x163;" horiz-adv-x="345" d="M114 141 C114 41 132 -10 223 -10 C267 -10 302 0 302 0 L302 59 C302 59 273 56 249 56 C196 56 192 91 192 163 L192 428 L301 428 L301 488 L192 488 L192 638 L114 618 L114 488 L27 488 L27 428 L114 428 L114 141 Z M147 -149 L198 -149 C199 -179 182 -197 150 -201 L150 -263 C222 -251 256 -221 256 -124 L256 -53 L147 -53 L147 -149 Z " />
<glyph glyph-name="Tcaron" unicode="&#x164;" horiz-adv-x="548" d="M234 0 L313 0 L313 643 L526 643 L526 712 L22 712 L22 643 L234 643 L234 0 Z M331 780 L418 898 L325 898 L273 825 L221 898 L129 898 L217 780 L331 780 Z " />
<glyph glyph-name="tcaron" unicode="&#x165;" horiz-adv-x="345" d="M114 141 C114 41 132 -10 223 -10 C267 -10 302 0 302 0 L302 59 C302 59 273 56 249 56 C196 56 192 91 192 163 L192 428 L301 428 L301 488 L192 488 L192 638 L114 618 L114 488 L27 488 L27 428 L114 428 L114 141 Z M243 646 L294 646 C295 616 278 598 246 594 L246 532 C318 544 352 574 352 671 L352 742 L243 742 L243 646 Z " />
<glyph glyph-name="Tbar" unicode="&#x166;" horiz-adv-x="548" d="M79 325 L234 325 L234 0 L313 0 L313 325 L469 325 L469 392 L313 392 L313 643 L526 643 L526 712 L22 712 L22 643 L234 643 L234 392 L79 392 L79 325 Z " />
<glyph glyph-name="tbar" unicode="&#x167;" horiz-adv-x="345" d="M27 247 L114 247 L114 141 C114 41 132 -10 223 -10 C267 -10 302 0 302 0 L302 59 C302 59 273 56 249 56 C196 56 192 91 192 163 L192 247 L301 247 L301 307 L192 307 L192 428 L301 428 L301 488 L192 488 L192 638 L114 618 L114 488 L27 488 L27 428 L114 428 L114 307 L27 307 L27 247 Z " />
<glyph glyph-name="Utilde" unicode="&#x168;" horiz-adv-x="716" d="M90 246 C90 63 193 -16 358 -16 C516 -16 626 63 626 246 L626 712 L547 712 L547 246 C547 88 447 53 358 53 C269 53 170 94 170 252 L170 712 L90 712 L90 246 Z M271 784 C271 800 274 828 301 828 C335 828 364 778 424 778 C488 778 501 837 500 892 L449 892 C449 880 449 844 419 844 C378 844 354 896 299 896 C236 896 215 841 216 784 L271 784 Z " />
<glyph glyph-name="utilde" unicode="&#x169;" horiz-adv-x="545" d="M461 488 L383 488 L383 197 C383 85 311 55 262 55 C170 55 160 113 160 197 L160 488 L82 488 L82 177 C82 70 121 -10 243 -10 C353 -10 383 70 383 70 L387 0 L461 0 L461 488 Z M185 574 C185 590 188 618 215 618 C249 618 278 568 338 568 C402 568 415 627 414 682 L363 682 C363 670 363 634 333 634 C292 634 268 686 213 686 C150 686 129 631 130 574 L185 574 Z " />
<glyph glyph-name="Umacron" unicode="&#x16a;" horiz-adv-x="716" d="M90 246 C90 63 193 -16 358 -16 C516 -16 626 63 626 246 L626 712 L547 712 L547 246 C547 88 447 53 358 53 C269 53 170 94 170 252 L170 712 L90 712 L90 246 Z M222 804 L493 804 L493 876 L222 876 L222 804 Z " />
<glyph glyph-name="umacron" unicode="&#x16b;" horiz-adv-x="545" d="M461 488 L383 488 L383 197 C383 85 311 55 262 55 C170 55 160 113 160 197 L160 488 L82 488 L82 177 C82 70 121 -10 243 -10 C353 -10 383 70 383 70 L387 0 L461 0 L461 488 Z M137 595 L407 595 L407 665 L137 665 L137 595 Z " />
<glyph glyph-name="Ubreve" unicode="&#x16c;" horiz-adv-x="716" d="M90 246 C90 63 193 -16 358 -16 C516 -16 626 63 626 246 L626 712 L547 712 L547 246 C547 88 447 53 358 53 C269 53 170 94 170 252 L170 712 L90 712 L90 246 Z M225 898 C225 877 226 778 359 778 C489 778 491 888 491 898 L413 898 C413 885 413 834 359 834 C304 834 304 885 304 898 L225 898 Z " />
<glyph glyph-name="ubreve" unicode="&#x16d;" horiz-adv-x="545" d="M461 488 L383 488 L383 197 C383 85 311 55 262 55 C170 55 160 113 160 197 L160 488 L82 488 L82 177 C82 70 121 -10 243 -10 C353 -10 383 70 383 70 L387 0 L461 0 L461 488 Z M139 688 C139 667 140 568 273 568 C403 568 405 678 405 688 L327 688 C327 675 327 624 273 624 C218 624 218 675 218 688 L139 688 Z " />
<glyph glyph-name="Uring" unicode="&#x16e;" horiz-adv-x="716" d="M90 246 C90 63 193 -16 358 -16 C516 -16 626 63 626 246 L626 712 L547 712 L547 246 C547 88 447 53 358 53 C269 53 170 94 170 252 L170 712 L90 712 L90 246 Z M246 839 C246 777 296 735 358 735 C420 735 470 777 470 839 C470 900 420 943 358 943 C296 943 246 900 246 839 L246 839 Z M304 839 C304 868 324 892 358 892 C392 892 412 868 412 839 C412 810 392 785 358 785 C324 785 304 810 304 839 L304 839 Z " />
<glyph glyph-name="uring" unicode="&#x16f;" horiz-adv-x="545" d="M461 488 L383 488 L383 197 C383 85 311 55 262 55 C170 55 160 113 160 197 L160 488 L82 488 L82 177 C82 70 121 -10 243 -10 C353 -10 383 70 383 70 L387 0 L461 0 L461 488 Z M161 653 C161 592 211 550 272 550 C333 550 383 592 383 653 C383 714 333 757 272 757 C211 757 161 714 161 653 L161 653 Z M217 653 C217 683 237 708 272 708 C307 708 327 683 327 653 C327 623 307 598 272 598 C237 598 217 623 217 653 L217 653 Z " />
<glyph glyph-name="Uhungarumlaut" unicode="&#x170;" horiz-adv-x="716" d="M90 246 C90 63 193 -16 358 -16 C516 -16 626 63 626 246 L626 712 L547 712 L547 246 C547 88 447 53 358 53 C269 53 170 94 170 252 L170 712 L90 712 L90 246 Z M282 898 L215 780 L304 780 L408 898 L282 898 Z M470 898 L403 780 L491 780 L595 898 L470 898 Z " />
<glyph glyph-name="uhungarumlaut" unicode="&#x171;" horiz-adv-x="545" d="M461 488 L383 488 L383 197 C383 85 311 55 262 55 C170 55 160 113 160 197 L160 488 L82 488 L82 177 C82 70 121 -10 243 -10 C353 -10 383 70 383 70 L387 0 L461 0 L461 488 Z M195 688 L130 571 L216 571 L318 688 L195 688 Z M383 688 L318 571 L404 571 L506 688 L383 688 Z " />
<glyph glyph-name="Uogonek" unicode="&#x172;" horiz-adv-x="716" d="M496 -135 C496 -135 480 -142 460 -142 C432 -142 406 -129 406 -94 C406 -52 440 -21 469 0 C565 31 626 110 626 246 L626 712 L547 712 L547 246 C547 88 447 53 358 53 C269 53 170 94 170 252 L170 712 L90 712 L90 246 C90 63 193 -16 358 -16 C371 -16 383 -15 396 -14 C356 -40 326 -70 326 -117 C326 -173 379 -193 424 -193 C453 -193 481 -185 496 -174 L496 -135 Z " />
<glyph glyph-name="uogonek" unicode="&#x173;" horiz-adv-x="545" d="M488 -135 C488 -135 472 -142 452 -142 C424 -142 398 -129 398 -94 C398 -52 432 -21 461 0 L461 488 L383 488 L383 197 C383 85 311 55 262 55 C170 55 160 113 160 197 L160 488 L82 488 L82 177 C82 70 121 -10 243 -10 C353 -10 383 70 383 70 L387 0 L411 0 C361 -30 318 -61 318 -117 C318 -173 371 -193 416 -193 C445 -193 473 -185 488 -174 L488 -135 Z " />
<glyph glyph-name="Wcircumflex" unicode="&#x174;" horiz-adv-x="999" d="M319 0 L434 388 C473 518 499 618 501 623 C503 613 527 515 561 387 L664 0 L758 0 L975 712 L889 712 L785 351 C745 212 714 93 714 93 C714 93 686 211 648 353 L553 712 L454 712 L347 351 C306 214 274 100 273 94 C270 105 243 217 208 351 L114 712 L24 712 L226 0 L319 0 Z M443 898 L355 780 L445 780 L497 854 L549 780 L644 780 L557 898 L443 898 Z " />
<glyph glyph-name="wcircumflex" unicode="&#x175;" horiz-adv-x="780" d="M260 0 L339 235 C375 341 391 400 392 403 C393 399 407 338 437 236 L505 0 L590 0 L748 488 L668 488 L598 253 C568 150 550 81 549 77 C547 84 529 153 501 253 L433 488 L360 488 L281 253 C247 150 225 81 224 77 C222 84 206 152 179 253 L115 488 L32 488 L178 0 L260 0 Z M334 688 L247 571 L334 571 L387 647 L440 571 L533 571 L446 688 L334 688 Z " />
<glyph glyph-name="Ycircumflex" unicode="&#x176;" horiz-adv-x="573" d="M243 0 L323 0 L323 294 L562 712 L475 712 L376 531 C326 439 286 364 286 364 C286 364 247 440 198 533 L103 712 L11 712 L243 294 L243 0 Z M230 898 L142 780 L232 780 L284 854 L336 780 L431 780 L344 898 L230 898 Z " />
<glyph glyph-name="ycircumflex" unicode="&#x177;" horiz-adv-x="506" d="M186 -79 C169 -123 142 -135 97 -135 L75 -135 L75 -201 C75 -201 98 -203 116 -203 C219 -203 239 -144 276 -46 L479 488 L396 488 L317 265 L257 93 L196 270 L119 488 L33 488 L218 2 L186 -79 Z M207 688 L120 571 L207 571 L260 647 L313 571 L406 571 L319 688 L207 688 Z " />
<glyph glyph-name="Ydieresis" unicode="&#x178;" horiz-adv-x="573" d="M243 0 L323 0 L323 294 L562 712 L475 712 L376 531 C326 439 286 364 286 364 C286 364 247 440 198 533 L103 712 L11 712 L243 294 L243 0 Z M149 796 L246 796 L246 898 L149 898 L149 796 Z M330 796 L424 796 L424 898 L330 898 L330 796 Z " />
<glyph glyph-name="Zacute" unicode="&#x179;" horiz-adv-x="622" d="M49 0 L556 0 L556 69 L140 69 L567 643 L567 712 L102 712 L102 642 L475 642 L49 67 L49 0 Z M352 898 L285 780 L374 780 L478 898 L352 898 Z " />
<glyph glyph-name="zacute" unicode="&#x17a;" horiz-adv-x="441" d="M46 0 L406 0 L406 66 L137 66 L408 431 L408 488 L74 488 L74 423 L316 423 L46 56 L46 0 Z M261 688 L196 571 L282 571 L384 688 L261 688 Z " />
<glyph glyph-name="Zdotaccent" unicode="&#x17b;" horiz-adv-x="622" d="M49 0 L556 0 L556 69 L140 69 L567 643 L567 712 L102 712 L102 642 L475 642 L49 67 L49 0 Z M282 794 L383 794 L383 900 L282 900 L282 794 Z " />
<glyph glyph-name="zdotaccent" unicode="&#x17c;" horiz-adv-x="441" d="M46 0 L406 0 L406 66 L137 66 L408 431 L408 488 L74 488 L74 423 L316 423 L46 56 L46 0 Z M194 585 L293 585 L293 690 L194 690 L194 585 Z " />
<glyph glyph-name="Zcaron" unicode="&#x17d;" horiz-adv-x="622" d="M49 0 L556 0 L556 69 L140 69 L567 643 L567 712 L102 712 L102 642 L475 642 L49 67 L49 0 Z M390 780 L477 898 L384 898 L332 825 L280 898 L188 898 L276 780 L390 780 Z " />
<glyph glyph-name="zcaron" unicode="&#x17e;" horiz-adv-x="441" d="M46 0 L406 0 L406 66 L137 66 L408 431 L408 488 L74 488 L74 423 L316 423 L46 56 L46 0 Z M304 571 L391 688 L298 688 L245 612 L192 688 L105 688 L192 571 L304 571 Z " />
<glyph glyph-name="florin" unicode="&#x192;" horiz-adv-x="594" d="M546 726 C546 726 525 732 494 732 C368 732 339 654 311 532 L286 422 L163 422 L163 356 L272 356 L204 48 C185 -36 184 -88 100 -88 C88 -88 75 -87 60 -85 L48 -148 C48 -148 74 -155 109 -155 C214 -155 256 -90 279 17 L353 356 L493 356 L493 422 L367 422 L392 534 C405 594 406 663 501 663 C519 663 534 661 534 661 L546 726 Z " />
<glyph glyph-name="Acaron" unicode="&#x1cd;" horiz-adv-x="688" d="M567 0 L658 0 L378 712 L307 712 L29 0 L114 0 L182 184 L498 184 L567 0 Z M274 429 L340 606 C343 598 374 512 406 430 L472 252 L208 252 L274 429 Z M401 780 L488 898 L395 898 L343 825 L291 898 L199 898 L287 780 L401 780 Z " />
<glyph glyph-name="acaron" unicode="&#x1ce;" horiz-adv-x="520" d="M358 294 C358 294 306 298 258 298 C109 298 46 242 46 144 C46 37 112 -10 211 -10 C277 -10 342 18 369 73 L370 66 C374 35 392 -5 449 -5 C470 -5 488 0 488 0 L488 60 L464 60 C439 60 433 81 433 116 L433 339 C433 447 381 505 257 505 C83 505 71 353 71 353 L146 353 C146 353 149 442 255 442 C330 442 358 410 358 336 L358 294 Z M358 194 C358 109 311 55 229 55 C161 55 125 82 125 148 C125 210 158 242 270 242 C316 242 358 239 358 239 L358 194 Z M316 571 L403 688 L310 688 L257 612 L204 688 L117 688 L204 571 L316 571 Z " />
<glyph glyph-name="Scommaaccent" unicode="&#x218;" horiz-adv-x="598" d="M56 225 C56 93 130 -17 323 -17 C470 -17 549 59 549 190 C549 418 167 366 167 543 C167 620 212 660 301 660 C411 660 442 579 446 509 L526 509 C524 623 462 730 299 730 C156 730 85 648 85 541 C85 296 466 360 466 187 C466 96 419 53 320 53 C199 53 141 122 137 225 L56 225 Z M257 -149 L308 -149 C309 -179 292 -197 260 -201 L260 -263 C332 -251 366 -221 366 -124 L366 -53 L257 -53 L257 -149 Z " />
<glyph glyph-name="scommaaccent" unicode="&#x219;" horiz-adv-x="454" d="M49 155 C49 73 96 -17 246 -17 C352 -17 409 38 409 128 C409 301 141 249 141 370 C141 419 174 442 221 442 C298 442 317 386 319 345 L394 345 C394 387 378 505 222 505 C115 505 65 441 65 367 C65 183 332 246 332 123 C332 71 302 46 244 46 C152 46 124 106 124 155 L49 155 Z M178 -149 L229 -149 C230 -179 213 -197 181 -201 L181 -263 C253 -251 287 -221 287 -124 L287 -53 L178 -53 L178 -149 Z " />
<glyph glyph-name="Tcommaaccent" unicode="&#x21a;" horiz-adv-x="548" d="M234 0 L313 0 L313 643 L526 643 L526 712 L22 712 L22 643 L234 643 L234 0 Z M219 -149 L270 -149 C271 -179 254 -197 222 -201 L222 -263 C294 -251 328 -221 328 -124 L328 -53 L219 -53 L219 -149 Z " />
<glyph glyph-name="tcedilla" unicode="&#x21b;" horiz-adv-x="345" d="M108 -219 C121 -221 136 -222 150 -222 C221 -222 296 -198 296 -122 C296 -95 280 -54 214 -54 C209 -54 202 -54 196 -55 L215 -10 L223 -10 C267 -10 302 0 302 0 L302 59 C302 59 273 56 249 56 C196 56 192 91 192 163 L192 428 L301 428 L301 488 L192 488 L192 638 L114 618 L114 488 L27 488 L27 428 L114 428 L114 141 C114 64 124 17 170 -1 L130 -83 L145 -100 C155 -97 167 -95 178 -95 C202 -95 221 -103 221 -129 C221 -169 183 -183 143 -183 C128 -183 119 -182 119 -182 L108 -219 Z " />
<glyph glyph-name="Adotaccent" unicode="&#x226;" horiz-adv-x="688" d="M567 0 L658 0 L378 712 L307 712 L29 0 L114 0 L182 184 L498 184 L567 0 Z M274 429 L340 606 C343 598 374 512 406 430 L472 252 L208 252 L274 429 Z M293 794 L394 794 L394 900 L293 900 L293 794 Z " />
<glyph glyph-name="adotaccent" unicode="&#x227;" horiz-adv-x="520" d="M358 294 C358 294 306 298 258 298 C109 298 46 242 46 144 C46 37 112 -10 211 -10 C277 -10 342 18 369 73 L370 66 C374 35 392 -5 449 -5 C470 -5 488 0 488 0 L488 60 L464 60 C439 60 433 81 433 116 L433 339 C433 447 381 505 257 505 C83 505 71 353 71 353 L146 353 C146 353 149 442 255 442 C330 442 358 410 358 336 L358 294 Z M358 194 C358 109 311 55 229 55 C161 55 125 82 125 148 C125 210 158 242 270 242 C316 242 358 239 358 239 L358 194 Z M210 585 L309 585 L309 690 L210 690 L210 585 Z " />
<glyph glyph-name="Odotaccent" unicode="&#x22e;" horiz-adv-x="724" d="M58 356 C58 82 194 -17 362 -17 C530 -17 666 88 666 356 C666 611 536 730 362 730 C194 730 58 611 58 356 L58 356 Z M141 356 C141 564 230 661 362 661 C493 661 583 564 583 356 C583 138 494 52 362 52 C236 52 141 138 141 356 L141 356 Z M311 794 L412 794 L412 900 L311 900 L311 794 Z " />
<glyph glyph-name="odotaccent" unicode="&#x22f;" horiz-adv-x="520" d="M50 244 C50 50 138 -17 260 -17 C377 -17 470 56 470 244 C470 435 376 505 260 505 C144 505 50 424 50 244 L50 244 Z M128 244 C128 384 181 440 260 440 C339 440 392 387 392 244 C392 98 341 48 260 48 C179 48 128 100 128 244 L128 244 Z M210 585 L309 585 L309 690 L210 690 L210 585 Z " />
<glyph glyph-name="Ymacron" unicode="&#x232;" horiz-adv-x="573" d="M243 0 L323 0 L323 294 L562 712 L475 712 L376 531 C326 439 286 364 286 364 C286 364 247 440 198 533 L103 712 L11 712 L243 294 L243 0 Z M151 804 L422 804 L422 876 L151 876 L151 804 Z " />
<glyph glyph-name="ymacron" unicode="&#x233;" horiz-adv-x="506" d="M186 -79 C169 -123 142 -135 97 -135 L75 -135 L75 -201 C75 -201 98 -203 116 -203 C219 -203 239 -144 276 -46 L479 488 L396 488 L317 265 L257 93 L196 270 L119 488 L33 488 L218 2 L186 -79 Z M119 595 L389 595 L389 665 L119 665 L119 595 Z " />
<glyph glyph-name="dotlessj" unicode="&#x237;" horiz-adv-x="246" d="M-8 -202 C-8 -202 15 -205 38 -205 C159 -205 162 -120 162 -28 L162 488 L84 488 L84 -40 C84 -115 84 -136 4 -136 L-8 -136 L-8 -202 Z " />
<glyph glyph-name="circumflex" unicode="&#x2c6;" horiz-adv-x="286" d="M87 688 L0 571 L87 571 L140 647 L193 571 L286 571 L199 688 L87 688 Z " />
<glyph glyph-name="caron" unicode="&#x2c7;" horiz-adv-x="286" d="M199 571 L286 688 L193 688 L140 612 L87 688 L0 688 L87 571 L199 571 Z " />
<glyph glyph-name="breve" unicode="&#x2d8;" horiz-adv-x="266" d="M0 688 C0 667 1 568 134 568 C264 568 266 678 266 688 L188 688 C188 675 188 624 134 624 C79 624 79 675 79 688 L0 688 Z " />
<glyph glyph-name="dotaccent" unicode="&#x2d9;" horiz-adv-x="99" d="M0 585 L99 585 L99 690 L0 690 L0 585 Z " />
<glyph glyph-name="ring" unicode="&#x2da;" horiz-adv-x="222" d="M0 653 C0 592 50 550 111 550 C172 550 222 592 222 653 C222 714 172 757 111 757 C50 757 0 714 0 653 L0 653 Z M56 653 C56 683 76 708 111 708 C146 708 166 683 166 653 C166 623 146 598 111 598 C76 598 56 623 56 653 L56 653 Z " />
<glyph glyph-name="ogonek" unicode="&#x2db;" horiz-adv-x="170" d="M170 -135 C170 -135 154 -142 134 -142 C106 -142 80 -129 80 -94 C80 -52 114 -21 143 0 L93 0 C43 -30 0 -61 0 -117 C0 -173 53 -193 98 -193 C127 -193 155 -185 170 -174 L170 -135 Z " />
<glyph glyph-name="tilde" unicode="&#x2dc;" horiz-adv-x="286" d="M56 574 C56 590 59 618 86 618 C120 618 149 568 209 568 C273 568 286 627 285 682 L234 682 C234 670 234 634 204 634 C163 634 139 686 84 686 C21 686 0 631 1 574 L56 574 Z " />
<glyph glyph-name="hungarumlaut" unicode="&#x2dd;" horiz-adv-x="376" d="M65 688 L0 571 L86 571 L188 688 L65 688 Z M253 688 L188 571 L274 571 L376 688 L253 688 Z " />
<glyph glyph-name="&amp;#x394;" unicode="&#x394;" horiz-adv-x="594" d="M10 0 L583 0 L583 68 L332 712 L256 712 L10 65 L10 0 Z M91 70 L294 614 L498 70 L91 70 Z " />
<glyph glyph-name="&amp;#x2206;" unicode="&#x2206;" horiz-adv-x="594" d="M10 0 L583 0 L583 68 L332 712 L256 712 L10 65 L10 0 Z M91 70 L294 614 L498 70 L91 70 Z " />
<glyph glyph-name="&amp;#x3a9;" unicode="&#x3a9;" horiz-adv-x="594" d="M-14 68 L-14 0 L232 0 L232 52 C159 98 68 213 68 360 C68 543 171 644 300 644 C443 644 528 522 528 364 C528 205 437 100 363 52 L363 0 L609 0 L609 68 L475 68 C538 127 607 219 607 370 C607 565 484 712 301 712 C128 712 -11 576 -11 365 C-11 219 49 132 118 68 L-14 68 Z " />
<glyph glyph-name="&amp;#x2126;" unicode="&#x2126;" horiz-adv-x="594" d="M-14 68 L-14 0 L232 0 L232 52 C159 98 68 213 68 360 C68 543 171 644 300 644 C443 644 528 522 528 364 C528 205 437 100 363 52 L363 0 L609 0 L609 68 L475 68 C538 127 607 219 607 370 C607 565 484 712 301 712 C128 712 -11 576 -11 365 C-11 219 49 132 118 68 L-14 68 Z " />
<glyph glyph-name="pi" unicode="&#x3c0;" horiz-adv-x="594" d="M549 62 C549 62 539 60 516 60 C460 60 454 86 454 128 L454 421 L535 421 L535 488 L44 488 L44 421 L125 421 L125 -1 L203 -1 L203 421 L377 421 L377 118 C377 49 399 -5 490 -5 C525 -5 549 1 549 1 L549 62 Z " />
<glyph glyph-name="Wgrave" unicode="&#x1e80;" horiz-adv-x="999" d="M319 0 L434 388 C473 518 499 618 501 623 C503 613 527 515 561 387 L664 0 L758 0 L975 712 L889 712 L785 351 C746 215 715 100 714 94 C711 105 684 218 648 353 L553 712 L454 712 L347 351 C306 214 274 100 273 94 C270 105 243 217 208 351 L114 712 L24 712 L226 0 L319 0 Z M356 898 L460 780 L549 780 L482 898 L356 898 Z " />
<glyph glyph-name="wgrave" unicode="&#x1e81;" horiz-adv-x="780" d="M260 0 L339 235 C375 341 391 400 392 403 C393 399 407 338 437 236 L505 0 L590 0 L748 488 L668 488 L598 253 C567 148 549 77 549 77 C549 77 531 148 501 253 L433 488 L360 488 L281 253 C247 150 225 81 224 77 C222 84 206 152 179 253 L115 488 L32 488 L178 0 L260 0 Z M246 688 L348 571 L434 571 L369 688 L246 688 Z " />
<glyph glyph-name="Wacute" unicode="&#x1e82;" horiz-adv-x="999" d="M319 0 L434 388 C473 518 499 618 501 623 C503 613 527 515 561 387 L664 0 L758 0 L975 712 L889 712 L785 351 C745 212 714 93 714 93 C714 93 686 211 648 353 L553 712 L454 712 L347 351 C306 214 274 100 273 94 C270 105 243 217 208 351 L114 712 L24 712 L226 0 L319 0 Z M533 898 L466 780 L555 780 L659 898 L533 898 Z " />
<glyph glyph-name="wacute" unicode="&#x1e83;" horiz-adv-x="780" d="M260 0 L339 235 C375 341 391 400 392 403 C393 399 407 338 437 236 L505 0 L590 0 L748 488 L668 488 L598 253 C568 150 550 81 549 77 C547 84 529 153 501 253 L433 488 L360 488 L281 253 C247 150 225 81 224 77 C222 84 206 152 179 253 L115 488 L32 488 L178 0 L260 0 Z M428 688 L363 571 L449 571 L551 688 L428 688 Z " />
<glyph glyph-name="Wdieresis" unicode="&#x1e84;" horiz-adv-x="999" d="M319 0 L434 388 C473 518 499 618 501 623 C503 613 527 515 561 387 L664 0 L758 0 L975 712 L889 712 L785 351 C746 215 715 100 714 94 C711 105 684 218 648 353 L553 712 L454 712 L347 351 C306 214 274 100 273 94 C270 105 243 217 208 351 L114 712 L24 712 L226 0 L319 0 Z M362 796 L459 796 L459 898 L362 898 L362 796 Z M543 796 L637 796 L637 898 L543 898 L543 796 Z " />
<glyph glyph-name="wdieresis" unicode="&#x1e85;" horiz-adv-x="780" d="M260 0 L339 235 C375 341 391 400 392 403 C393 399 407 338 437 236 L505 0 L590 0 L748 488 L668 488 L598 253 C567 148 549 77 549 77 C549 77 531 148 501 253 L433 488 L360 488 L281 253 C247 150 225 81 224 77 C222 84 206 152 179 253 L115 488 L32 488 L178 0 L260 0 Z M253 587 L348 587 L348 688 L253 688 L253 587 Z M434 587 L527 587 L527 688 L434 688 L434 587 Z " />
<glyph glyph-name="Ygrave" unicode="&#x1ef2;" horiz-adv-x="573" d="M243 0 L323 0 L323 294 L562 712 L475 712 L376 531 C326 439 286 364 286 364 C286 364 247 440 198 533 L103 712 L11 712 L243 294 L243 0 Z M146 898 L250 780 L339 780 L272 898 L146 898 Z " />
<glyph glyph-name="ygrave" unicode="&#x1ef3;" horiz-adv-x="506" d="M186 -79 C169 -123 142 -135 97 -135 L75 -135 L75 -201 C75 -201 98 -203 116 -203 C219 -203 239 -144 276 -46 L479 488 L396 488 L317 265 L257 93 L196 270 L119 488 L33 488 L218 2 L186 -79 Z M111 688 L213 571 L299 571 L234 688 L111 688 Z " />
<glyph glyph-name="endash" unicode="&#x2013;" horiz-adv-x="392" d="M0 214 L392 214 L392 281 L0 281 L0 214 Z " />
<glyph glyph-name="emdash" unicode="&#x2014;" horiz-adv-x="666" d="M0 214 L666 214 L666 281 L0 281 L0 214 Z " />
<glyph glyph-name="quoteleft" unicode="&#x2018;" horiz-adv-x="227" d="M168 579 L116 579 C116 633 137 651 165 655 L165 712 C110 707 59 668 59 576 L59 475 L168 475 L168 579 Z " />
<glyph glyph-name="quoteright" unicode="&#x2019;" horiz-adv-x="227" d="M59 608 L111 608 C111 554 90 536 62 532 L62 475 C117 480 168 519 168 611 L168 712 L59 712 L59 608 Z " />
<glyph glyph-name="quotesinglbase" unicode="&#x201a;" horiz-adv-x="227" d="M59 0 L111 0 C111 -54 90 -72 62 -76 L62 -133 C128 -127 168 -83 168 28 L168 104 L59 104 L59 0 Z " />
<glyph glyph-name="quotedblleft" unicode="&#x201c;" horiz-adv-x="396" d="M337 579 L285 579 C285 633 306 651 334 655 L334 712 C279 707 228 668 228 576 L228 475 L337 475 L337 579 Z M168 579 L116 579 C116 633 137 651 165 655 L165 712 C110 707 59 668 59 576 L59 475 L168 475 L168 579 Z " />
<glyph glyph-name="quotedblright" unicode="&#x201d;" horiz-adv-x="396" d="M59 608 L111 608 C111 554 90 536 62 532 L62 475 C117 480 168 519 168 611 L168 712 L59 712 L59 608 Z M228 608 L280 608 C280 554 259 536 231 532 L231 475 C286 480 337 519 337 611 L337 712 L228 712 L228 608 Z " />
<glyph glyph-name="quotedblbase" unicode="&#x201e;" horiz-adv-x="396" d="M59 0 L111 0 C111 -54 90 -72 62 -76 L62 -133 C128 -127 168 -83 168 28 L168 104 L59 104 L59 0 Z M228 0 L280 0 C280 -54 259 -72 231 -76 L231 -133 C286 -128 337 -89 337 3 L337 104 L228 104 L228 0 Z " />
<glyph glyph-name="dagger" unicode="&#x2020;" horiz-adv-x="594" d="M93 421 L258 421 L258 0 L335 0 L335 421 L500 421 L500 488 L335 488 L335 699 L258 699 L258 488 L93 488 L93 421 Z " />
<glyph glyph-name="daggerdbl" unicode="&#x2021;" horiz-adv-x="594" d="M258 264 L93 264 L93 197 L258 197 L258 0 L335 0 L335 197 L500 197 L500 264 L335 264 L335 440 L500 440 L500 507 L335 507 L335 699 L258 699 L258 507 L93 507 L93 440 L258 440 L258 264 Z " />
<glyph glyph-name="bullet" unicode="&#x2022;" horiz-adv-x="348" d="M30 358 C30 274 94 216 174 216 C254 216 318 274 318 358 C318 442 254 500 174 500 C94 500 30 442 30 358 L30 358 Z " />
<glyph glyph-name="ellipsis" unicode="&#x2026;" horiz-adv-x="679" d="M59 0 L168 0 L168 105 L59 105 L59 0 Z M285 0 L394 0 L394 105 L285 105 L285 0 Z M511 0 L620 0 L620 105 L511 105 L511 0 Z " />
<glyph glyph-name="perthousand" unicode="&#x2030;" horiz-adv-x="1170" d="M211 407 C169 407 131 432 131 536 C131 634 172 655 211 655 C250 655 291 634 291 536 C291 432 252 407 211 407 L211 407 Z M234 -17 L651 712 L578 712 L160 -17 L234 -17 Z M60 535 C60 388 141 350 211 350 C276 350 364 386 364 535 C364 675 273 712 211 712 C149 712 60 673 60 535 L60 535 Z M525 169 C525 267 566 288 605 288 C644 288 685 267 685 169 C685 65 646 40 605 40 C563 40 525 65 525 169 L525 169 Z M454 168 C454 21 535 -17 605 -17 C670 -17 758 19 758 168 C758 308 667 345 605 345 C543 345 454 306 454 168 L454 168 Z M877 169 C877 267 918 288 957 288 C996 288 1037 267 1037 169 C1037 65 998 40 957 40 C915 40 877 65 877 169 L877 169 Z M806 168 C806 21 887 -17 957 -17 C1022 -17 1110 19 1110 168 C1110 308 1019 345 957 345 C895 345 806 306 806 168 L806 168 Z " />
<glyph glyph-name="guilsinglleft" unicode="&#x2039;" horiz-adv-x="301" d="M163 436 L58 245 L163 53 L236 53 L146 245 L237 436 L163 436 Z " />
<glyph glyph-name="guilsinglright" unicode="&#x203a;" horiz-adv-x="301" d="M58 436 L149 245 L59 53 L133 53 L237 245 L133 436 L58 436 Z " />
<glyph glyph-name="fraction" unicode="&#x2044;" horiz-adv-x="167" d="M-178 -10 L-109 -10 L342 707 L273 707 L-178 -10 Z " />
<glyph glyph-name="zero.superior" unicode="&#x2070;" horiz-adv-x="411" d="M41 595 C41 416 120 375 206 375 C291 375 370 420 370 595 C370 763 291 813 206 813 C120 813 41 762 41 595 L41 595 Z M119 595 C119 718 157 750 206 750 C254 750 292 715 292 595 C292 467 254 438 206 438 C157 438 119 467 119 595 L119 595 Z " />
<glyph glyph-name="four.superior" unicode="&#x2074;" horiz-adv-x="411" d="M44 474 L241 474 L241 386 L317 386 L317 474 L365 474 L365 534 L317 534 L317 804 L235 804 L44 528 L44 474 Z M112 534 L241 720 L241 534 L112 534 Z " />
<glyph glyph-name="five.superior" unicode="&#x2075;" horiz-adv-x="411" d="M63 501 C63 501 62 375 210 375 C325 375 360 455 360 530 C360 598 324 662 233 662 C171 662 147 633 147 633 L166 744 L331 744 L331 804 L113 804 L75 569 L141 561 C141 561 158 603 214 603 C266 603 282 561 282 526 C282 481 268 439 209 439 C137 439 134 501 134 501 L63 501 Z " />
<glyph glyph-name="six.superior" unicode="&#x2076;" horiz-adv-x="411" d="M349 699 C345 723 324 813 219 813 C77 813 50 673 50 568 C50 465 85 375 210 375 C306 375 361 437 361 524 C361 608 308 659 225 659 C154 659 126 616 125 614 C130 675 145 753 214 753 C272 753 276 699 276 699 L349 699 Z M209 435 C158 435 133 469 133 521 C133 578 170 600 209 600 C254 600 283 572 283 518 C283 466 259 435 209 435 L209 435 Z " />
<glyph glyph-name="seven.superior" unicode="&#x2077;" horiz-adv-x="373" d="M162 386 C195 579 330 745 330 745 L330 804 L41 804 L41 740 L255 740 C236 717 127 586 78 386 L162 386 Z " />
<glyph glyph-name="eight.superior" unicode="&#x2078;" horiz-adv-x="411" d="M47 501 C47 406 125 376 205 376 C287 376 363 410 363 501 C363 588 277 607 272 608 C279 610 344 630 344 702 C344 778 278 813 205 813 C133 813 66 778 66 702 C66 628 130 609 133 608 C125 606 47 583 47 501 L47 501 Z M125 505 C125 553 162 575 205 575 C248 575 285 553 285 505 C285 458 256 436 205 436 C157 436 125 459 125 505 L125 505 Z M144 699 C144 738 171 755 205 755 C239 755 267 738 267 699 C267 659 239 640 205 640 C171 640 144 659 144 699 L144 699 Z " />
<glyph glyph-name="nine.superior" unicode="&#x2079;" horiz-adv-x="411" d="M59 489 C59 489 61 376 203 376 C345 376 362 516 362 624 C362 725 323 813 203 813 C111 813 49 755 49 663 C49 579 103 529 187 529 C256 529 283 570 285 572 C283 507 276 436 203 436 C135 436 131 489 131 489 L59 489 Z M128 669 C128 725 157 754 203 754 C247 754 277 726 277 670 C277 610 239 587 201 587 C159 587 128 611 128 669 L128 669 Z " />
<glyph glyph-name="n.superior" unicode="&#x207f;" horiz-adv-x="387" d="M60 361 L135 361 L135 539 C135 594 172 610 199 610 C242 610 252 583 252 539 L252 361 L328 361 L328 558 C328 634 294 669 227 669 C160 669 134 621 134 621 L132 663 L60 663 L60 361 Z " />
<glyph glyph-name="zero.inferior" unicode="&#x2080;" horiz-adv-x="411" d="M41 54 C41 -125 120 -166 206 -166 C291 -166 370 -121 370 54 C370 222 291 272 206 272 C120 272 41 221 41 54 L41 54 Z M119 54 C119 177 157 209 206 209 C254 209 292 174 292 54 C292 -74 254 -103 206 -103 C157 -103 119 -74 119 54 L119 54 Z " />
<glyph glyph-name="one.inferior" unicode="&#x2081;" horiz-adv-x="325" d="M240 -155 L240 263 L175 263 C159 233 94 201 64 192 L64 120 C89 128 145 152 165 169 L165 -155 L240 -155 Z " />
<glyph glyph-name="two.inferior" unicode="&#x2082;" horiz-adv-x="411" d="M57 -155 L355 -155 L355 -88 L150 -88 C278 4 352 64 352 155 C352 228 304 273 216 273 C59 273 60 123 60 123 L132 123 C132 123 134 209 212 209 C263 209 274 177 274 151 C274 71 177 7 57 -95 L57 -155 Z " />
<glyph glyph-name="three.inferior" unicode="&#x2083;" horiz-adv-x="411" d="M49 -21 C49 -31 45 -166 210 -166 C311 -166 363 -115 363 -35 C363 60 270 67 267 67 C275 68 348 85 348 165 C348 228 302 272 213 272 C79 272 66 162 65 141 L135 141 C137 152 141 209 209 209 C250 209 270 190 270 156 C270 109 238 92 182 92 L161 92 L161 34 L183 34 C248 34 284 19 284 -33 C284 -79 258 -102 209 -102 C124 -102 121 -32 121 -21 L49 -21 Z " />
<glyph glyph-name="four.inferior" unicode="&#x2084;" horiz-adv-x="411" d="M44 -67 L241 -67 L241 -155 L317 -155 L317 -67 L365 -67 L365 -7 L317 -7 L317 263 L235 263 L44 -13 L44 -67 Z M112 -7 L241 179 L241 -7 L112 -7 Z " />
<glyph glyph-name="five.inferior" unicode="&#x2085;" horiz-adv-x="411" d="M63 -40 C63 -40 62 -166 210 -166 C325 -166 360 -86 360 -11 C360 57 324 121 233 121 C171 121 147 92 147 92 L166 203 L331 203 L331 263 L113 263 L75 28 L141 20 C141 20 158 62 214 62 C266 62 282 20 282 -15 C282 -60 268 -102 209 -102 C137 -102 134 -40 134 -40 L63 -40 Z " />
<glyph glyph-name="six.inferior" unicode="&#x2086;" horiz-adv-x="411" d="M349 158 C345 182 324 272 219 272 C77 272 50 132 50 27 C50 -76 85 -166 210 -166 C306 -166 361 -104 361 -17 C361 67 308 118 225 118 C154 118 126 75 125 73 C130 134 145 212 214 212 C272 212 276 158 276 158 L349 158 Z M209 -106 C158 -106 133 -72 133 -20 C133 37 170 59 209 59 C254 59 283 31 283 -23 C283 -75 259 -106 209 -106 L209 -106 Z " />
<glyph glyph-name="seven.inferior" unicode="&#x2087;" horiz-adv-x="373" d="M162 -155 C195 38 330 204 330 204 L330 263 L41 263 L41 199 L255 199 C236 176 127 45 78 -155 L162 -155 Z " />
<glyph glyph-name="eight.inferior" unicode="&#x2088;" horiz-adv-x="411" d="M47 -40 C47 -135 125 -165 205 -165 C287 -165 363 -131 363 -40 C363 47 277 66 272 67 C279 69 344 89 344 161 C344 237 278 272 205 272 C133 272 66 237 66 161 C66 87 130 68 133 67 C125 65 47 42 47 -40 L47 -40 Z M125 -36 C125 12 162 34 205 34 C248 34 285 12 285 -36 C285 -83 256 -105 205 -105 C157 -105 125 -82 125 -36 L125 -36 Z M144 158 C144 197 171 214 205 214 C239 214 267 197 267 158 C267 118 239 99 205 99 C171 99 144 118 144 158 L144 158 Z " />
<glyph glyph-name="nine.inferior" unicode="&#x2089;" horiz-adv-x="411" d="M59 -52 C59 -52 61 -165 203 -165 C345 -165 362 -25 362 83 C362 184 323 272 203 272 C111 272 49 214 49 122 C49 38 103 -12 187 -12 C256 -12 283 29 285 31 C283 -33 276 -105 203 -105 C135 -105 131 -52 131 -52 L59 -52 Z M128 128 C128 184 157 213 203 213 C247 213 277 185 277 129 C277 69 239 46 201 46 C159 46 128 70 128 128 L128 128 Z " />
<glyph glyph-name="Euro" unicode="&#x20ac;" horiz-adv-x="594" d="M35 249 L103 249 C120 65 192 -17 336 -17 C552 -17 556 209 556 209 L479 209 C479 209 478 48 337 48 C243 48 196 109 183 249 L369 249 L369 309 L179 309 L179 343 C179 360 179 380 180 400 L369 400 L369 460 L186 460 C199 554 236 647 339 647 C466 647 468 491 468 491 L546 491 C546 491 546 712 339 712 C191 712 127 597 107 460 L35 460 L35 400 L100 400 C99 381 99 362 99 343 L99 309 L35 309 L35 249 Z " />
<glyph glyph-name="trademark" unicode="&#x2122;" horiz-adv-x="505" d="M256 472 L307 472 L307 570 C307 600 306 632 306 633 C307 629 319 599 329 575 L353 518 L389 518 L414 575 L437 632 C437 629 435 603 435 570 L435 472 L485 472 L485 712 L425 712 L390 626 C380 603 371 579 371 579 C371 579 361 603 351 626 L315 712 L256 712 L256 472 Z M104 472 L156 472 L156 666 L223 666 L223 712 L36 712 L36 666 L104 666 L104 472 Z " />
<glyph glyph-name="onethird" unicode="&#x2153;" horiz-adv-x="989" d="M628 134 C628 124 624 -11 789 -11 C890 -11 942 40 942 120 C942 215 849 222 846 222 C854 223 927 240 927 320 C927 383 881 427 792 427 C658 427 645 317 644 296 L714 296 C716 307 720 364 788 364 C829 364 849 345 849 311 C849 264 817 247 761 247 L740 247 L740 189 L762 189 C827 189 863 174 863 122 C863 76 837 53 788 53 C703 53 700 123 700 134 L628 134 Z M233 -10 L302 -10 L753 707 L684 707 L233 -10 Z M274 285 L274 703 L209 703 C193 673 128 641 98 632 L98 560 C123 568 179 592 199 609 L199 285 L274 285 Z " />
<glyph glyph-name="twothirds" unicode="&#x2154;" horiz-adv-x="989" d="M628 134 C628 124 624 -11 789 -11 C890 -11 942 40 942 120 C942 215 849 222 846 222 C854 223 927 240 927 320 C927 383 881 427 792 427 C658 427 645 317 644 296 L714 296 C716 307 720 364 788 364 C829 364 849 345 849 311 C849 264 817 247 761 247 L740 247 L740 189 L762 189 C827 189 863 174 863 122 C863 76 837 53 788 53 C703 53 700 123 700 134 L628 134 Z M57 285 L355 285 L355 352 L150 352 C278 444 352 504 352 595 C352 668 304 713 216 713 C59 713 60 563 60 563 L132 563 C132 563 134 649 212 649 C263 649 274 617 274 591 C274 511 177 447 57 345 L57 285 Z M233 -10 L302 -10 L753 707 L684 707 L233 -10 Z " />
<glyph glyph-name="onefifth" unicode="&#x2155;" horiz-adv-x="989" d="M274 285 L274 703 L209 703 C193 673 128 641 98 632 L98 560 C123 568 179 592 199 609 L199 285 L274 285 Z M233 -10 L302 -10 L753 707 L684 707 L233 -10 Z M635 115 C635 115 634 -11 782 -11 C897 -11 932 69 932 144 C932 212 896 276 805 276 C743 276 719 247 719 247 L738 358 L903 358 L903 418 L685 418 L647 183 L713 175 C713 175 730 217 786 217 C838 217 854 175 854 140 C854 95 840 53 781 53 C709 53 706 115 706 115 L635 115 Z " />
<glyph glyph-name="twofifths" unicode="&#x2156;" horiz-adv-x="989" d="M57 285 L355 285 L355 352 L150 352 C278 444 352 504 352 595 C352 668 304 713 216 713 C59 713 60 563 60 563 L132 563 C132 563 134 649 212 649 C263 649 274 617 274 591 C274 511 177 447 57 345 L57 285 Z M233 -10 L302 -10 L753 707 L684 707 L233 -10 Z M635 115 C635 115 634 -11 782 -11 C897 -11 932 69 932 144 C932 212 896 276 805 276 C743 276 719 247 719 247 L738 358 L903 358 L903 418 L685 418 L647 183 L713 175 C713 175 730 217 786 217 C838 217 854 175 854 140 C854 95 840 53 781 53 C709 53 706 115 706 115 L635 115 Z " />
<glyph glyph-name="threefifths" unicode="&#x2157;" horiz-adv-x="989" d="M50 419 C50 409 46 274 211 274 C312 274 364 325 364 405 C364 500 271 507 268 507 C276 508 349 525 349 605 C349 668 303 712 214 712 C80 712 67 602 66 581 L136 581 C138 592 142 649 210 649 C251 649 271 630 271 596 C271 549 239 532 183 532 L162 532 L162 474 L184 474 C249 474 285 459 285 407 C285 361 259 338 210 338 C125 338 122 408 122 419 L50 419 Z M635 115 C635 115 634 -11 782 -11 C897 -11 932 69 932 144 C932 212 896 276 805 276 C743 276 719 247 719 247 L738 358 L903 358 L903 418 L685 418 L647 183 L713 175 C713 175 730 217 786 217 C838 217 854 175 854 140 C854 95 840 53 781 53 C709 53 706 115 706 115 L635 115 Z M233 -10 L302 -10 L753 707 L684 707 L233 -10 Z " />
<glyph glyph-name="fourfifths" unicode="&#x2158;" horiz-adv-x="989" d="M45 373 L242 373 L242 285 L318 285 L318 373 L366 373 L366 433 L318 433 L318 703 L236 703 L45 427 L45 373 Z M113 433 L242 619 L242 433 L113 433 Z M233 -10 L302 -10 L753 707 L684 707 L233 -10 Z M635 115 C635 115 634 -11 782 -11 C897 -11 932 69 932 144 C932 212 896 276 805 276 C743 276 719 247 719 247 L738 358 L903 358 L903 418 L685 418 L647 183 L713 175 C713 175 730 217 786 217 C838 217 854 175 854 140 C854 95 840 53 781 53 C709 53 706 115 706 115 L635 115 Z " />
<glyph glyph-name="onesixth" unicode="&#x2159;" horiz-adv-x="989" d="M927 313 C923 337 902 427 797 427 C655 427 628 287 628 182 C628 79 663 -11 788 -11 C884 -11 939 51 939 138 C939 222 886 273 803 273 C732 273 704 230 703 228 C708 289 723 367 792 367 C850 367 854 313 854 313 L927 313 Z M233 -10 L302 -10 L753 707 L684 707 L233 -10 Z M274 285 L274 703 L209 703 C193 673 128 641 98 632 L98 560 C123 568 179 592 199 609 L199 285 L274 285 Z M787 49 C736 49 711 83 711 135 C711 192 748 214 787 214 C832 214 861 186 861 132 C861 80 837 49 787 49 L787 49 Z " />
<glyph glyph-name="fivesixths" unicode="&#x215a;" horiz-adv-x="989" d="M927 313 C923 337 902 427 797 427 C655 427 628 287 628 182 C628 79 663 -11 788 -11 C884 -11 939 51 939 138 C939 222 886 273 803 273 C732 273 704 230 703 228 C708 289 723 367 792 367 C850 367 854 313 854 313 L927 313 Z M57 400 C57 400 56 274 204 274 C319 274 354 354 354 429 C354 497 318 561 227 561 C165 561 141 532 141 532 L160 643 L325 643 L325 703 L107 703 L69 468 L135 460 C135 460 152 502 208 502 C260 502 276 460 276 425 C276 380 262 338 203 338 C131 338 128 400 128 400 L57 400 Z M233 -10 L302 -10 L753 707 L684 707 L233 -10 Z M787 49 C736 49 711 83 711 135 C711 192 748 214 787 214 C832 214 861 186 861 132 C861 80 837 49 787 49 L787 49 Z " />
<glyph glyph-name="oneeighth" unicode="&#x215b;" horiz-adv-x="989" d="M625 115 C625 20 703 -10 783 -10 C865 -10 941 24 941 115 C941 202 855 221 850 222 C857 224 922 244 922 316 C922 392 856 427 783 427 C711 427 644 392 644 316 C644 242 708 223 711 222 C703 220 625 197 625 115 L625 115 Z M233 -10 L302 -10 L753 707 L684 707 L233 -10 Z M274 285 L274 703 L209 703 C193 673 128 641 98 632 L98 560 C123 568 179 592 199 609 L199 285 L274 285 Z M703 119 C703 167 740 189 783 189 C826 189 863 167 863 119 C863 72 834 50 783 50 C735 50 703 73 703 119 L703 119 Z M722 313 C722 352 749 369 783 369 C817 369 845 352 845 313 C845 273 817 254 783 254 C749 254 722 273 722 313 L722 313 Z " />
<glyph glyph-name="threeeighths" unicode="&#x215c;" horiz-adv-x="989" d="M625 115 C625 20 703 -10 783 -10 C865 -10 941 24 941 115 C941 202 855 221 850 222 C857 224 922 244 922 316 C922 392 856 427 783 427 C711 427 644 392 644 316 C644 242 708 223 711 222 C703 220 625 197 625 115 L625 115 Z M50 419 C50 409 46 274 211 274 C312 274 364 325 364 405 C364 500 271 507 268 507 C276 508 349 525 349 605 C349 668 303 712 214 712 C80 712 67 602 66 581 L136 581 C138 592 142 649 210 649 C251 649 271 630 271 596 C271 549 239 532 183 532 L162 532 L162 474 L184 474 C249 474 285 459 285 407 C285 361 259 338 210 338 C125 338 122 408 122 419 L50 419 Z M233 -10 L302 -10 L753 707 L684 707 L233 -10 Z M703 119 C703 167 740 189 783 189 C826 189 863 167 863 119 C863 72 834 50 783 50 C735 50 703 73 703 119 L703 119 Z M722 313 C722 352 749 369 783 369 C817 369 845 352 845 313 C845 273 817 254 783 254 C749 254 722 273 722 313 L722 313 Z " />
<glyph glyph-name="fiveeighths" unicode="&#x215d;" horiz-adv-x="989" d="M625 115 C625 20 703 -10 783 -10 C865 -10 941 24 941 115 C941 202 855 221 850 222 C857 224 922 244 922 316 C922 392 856 427 783 427 C711 427 644 392 644 316 C644 242 708 223 711 222 C703 220 625 197 625 115 L625 115 Z M57 400 C57 400 56 274 204 274 C319 274 354 354 354 429 C354 497 318 561 227 561 C165 561 141 532 141 532 L160 643 L325 643 L325 703 L107 703 L69 468 L135 460 C135 460 152 502 208 502 C260 502 276 460 276 425 C276 380 262 338 203 338 C131 338 128 400 128 400 L57 400 Z M233 -10 L302 -10 L753 707 L684 707 L233 -10 Z M703 119 C703 167 740 189 783 189 C826 189 863 167 863 119 C863 72 834 50 783 50 C735 50 703 73 703 119 L703 119 Z M722 313 C722 352 749 369 783 369 C817 369 845 352 845 313 C845 273 817 254 783 254 C749 254 722 273 722 313 L722 313 Z " />
<glyph glyph-name="seveneighths" unicode="&#x215e;" horiz-adv-x="989" d="M625 115 C625 20 703 -10 783 -10 C865 -10 941 24 941 115 C941 202 855 221 850 222 C857 224 922 244 922 316 C922 392 856 427 783 427 C711 427 644 392 644 316 C644 242 708 223 711 222 C703 220 625 197 625 115 L625 115 Z M233 -10 L302 -10 L753 707 L684 707 L233 -10 Z M182 285 C215 478 350 644 350 644 L350 703 L61 703 L61 639 L275 639 C256 616 147 485 98 285 L182 285 Z M703 119 C703 167 740 189 783 189 C826 189 863 167 863 119 C863 72 834 50 783 50 C735 50 703 73 703 119 L703 119 Z M722 313 C722 352 749 369 783 369 C817 369 845 352 845 313 C845 273 817 254 783 254 C749 254 722 273 722 313 L722 313 Z " />
<glyph glyph-name="onefraction" unicode="&#x215f;" horiz-adv-x="578" d="M274 285 L274 703 L209 703 C193 673 128 641 98 632 L98 560 C123 568 179 592 199 609 L199 285 L274 285 Z M233 -10 L302 -10 L753 707 L684 707 L233 -10 Z " />
<glyph glyph-name="partialdiff" unicode="&#x2202;" horiz-adv-x="594" d="M128 662 C128 661 173 702 253 702 C411 702 455 533 455 413 C455 404 454 395 454 386 C454 386 399 476 282 476 C160 476 67 373 67 218 C67 84 128 -8 266 -8 C444 -8 527 166 527 401 C527 662 405 767 255 767 C162 767 100 722 100 722 L128 662 Z M270 57 C181 57 145 130 145 220 C145 322 190 411 288 411 C365 411 427 345 442 303 C436 143 362 57 270 57 L270 57 Z " />
<glyph glyph-name="product" unicode="&#x220f;" horiz-adv-x="594" d="M623 631 L623 698 L-28 698 L-28 631 L85 631 L85 0 L162 0 L162 631 L436 631 L436 0 L513 0 L513 631 L623 631 Z " />
<glyph glyph-name="summation" unicode="&#x2211;" horiz-adv-x="594" d="M551 -82 L551 -15 L135 -15 L378 311 L146 631 L535 631 L535 698 L53 698 L53 631 L282 310 L42 -17 L42 -82 L551 -82 Z " />
<glyph glyph-name="minus" unicode="&#x2212;" horiz-adv-x="594" d="M82 214 L512 214 L512 281 L82 281 L82 214 Z " />
<glyph glyph-name="radical" unicode="&#x221a;" horiz-adv-x="594" d="M610 766 L610 832 L444 832 L203 99 L70 504 L-15 504 L166 -8 L241 -8 L500 766 L610 766 Z " />
<glyph glyph-name="infinity" unicode="&#x221e;" horiz-adv-x="594" d="M637 287 C637 380 572 445 483 445 C400 445 348 382 301 329 C249 391 198 445 118 445 C28 445 -43 380 -43 282 C-43 179 31 123 114 123 C196 123 249 180 299 238 C361 160 415 123 476 123 C558 123 637 186 637 287 L637 287 Z M122 183 C65 183 26 223 26 286 C26 348 65 386 120 386 C183 386 223 333 264 281 C221 232 181 183 122 183 L122 183 Z M479 183 C432 183 395 211 336 286 C384 339 428 386 479 386 C532 386 569 348 569 282 C569 235 538 183 479 183 L479 183 Z " />
<glyph glyph-name="integral" unicode="&#x222b;" horiz-adv-x="594" d="M335 668 C335 722 346 785 417 785 C439 785 461 781 461 781 L461 842 C461 842 434 849 402 849 C291 849 259 768 259 653 L259 19 C259 -36 248 -98 177 -98 C154 -98 133 -94 133 -94 L133 -155 C133 -155 160 -162 192 -162 C303 -162 335 -81 335 34 L335 668 Z " />
<glyph glyph-name="approxequal" unicode="&#x2248;" horiz-adv-x="594" d="M140 274 C140 274 141 336 200 336 C257 336 310 266 397 266 C512 266 511 401 511 401 L455 401 C455 401 456 336 400 336 C328 336 287 406 201 406 C121 406 81 346 81 274 L140 274 Z M140 88 C140 88 141 150 200 150 C257 150 310 80 397 80 C512 80 511 215 511 215 L455 215 C455 215 456 150 400 150 C328 150 287 220 201 220 C121 220 81 160 81 88 L140 88 Z " />
<glyph glyph-name="notequal" unicode="&#x2260;" horiz-adv-x="594" d="M82 301 L276 301 L244 201 L82 201 L82 134 L222 134 L185 17 L257 17 L294 134 L512 134 L512 201 L316 201 L348 301 L512 301 L512 368 L370 368 L407 482 L335 482 L298 368 L82 368 L82 301 Z " />
<glyph glyph-name="lessequal" unicode="&#x2264;" horiz-adv-x="594" d="M82 348 L82 271 L512 137 L512 210 L161 312 L512 413 L512 487 L82 348 Z M82 0 L512 0 L512 67 L82 67 L82 0 Z " />
<glyph glyph-name="greaterequal" unicode="&#x2265;" horiz-adv-x="594" d="M512 67 L82 67 L82 0 L512 0 L512 67 Z M82 487 L82 412 L433 311 L82 209 L82 137 L512 271 L512 348 L82 487 Z " />
<glyph glyph-name="lozenge" unicode="&#x25ca;" horiz-adv-x="594" d="M531 346 L333 739 L264 739 L63 346 L261 -46 L330 -46 L531 346 Z M454 344 L298 29 L141 348 L298 662 L454 344 Z " />
<glyph glyph-name="Dotaccent" unicode="&#xefed;" horiz-adv-x="101" d="M0 794 L101 794 L101 900 L0 900 L0 794 Z " />
<glyph glyph-name="Breve" unicode="&#xefee;" horiz-adv-x="266" d="M0 898 C0 877 1 778 134 778 C264 778 266 888 266 898 L188 898 C188 885 188 834 134 834 C79 834 79 885 79 898 L0 898 Z " />
<glyph glyph-name="Ogonek" unicode="&#xeff1;" horiz-adv-x="170" d="M170 -135 C170 -135 154 -142 134 -142 C106 -142 80 -129 80 -94 C80 -52 114 -21 143 0 L93 0 C43 -30 0 -61 0 -117 C0 -173 53 -193 98 -193 C127 -193 155 -185 170 -174 L170 -135 Z " />
<glyph glyph-name="Cedilla" unicode="&#xeff2;" horiz-adv-x="188" d="M0 -219 C13 -221 28 -222 42 -222 C113 -222 188 -198 188 -122 C188 -95 172 -54 106 -54 C101 -54 94 -54 88 -55 L114 5 L65 5 L22 -83 L37 -100 C47 -97 59 -95 70 -95 C94 -95 113 -103 113 -129 C113 -169 75 -183 35 -183 C20 -183 11 -182 11 -182 L0 -219 Z " />
<glyph glyph-name="Ring" unicode="&#xeff3;" horiz-adv-x="224" d="M0 839 C0 777 50 735 112 735 C174 735 224 777 224 839 C224 900 174 943 112 943 C50 943 0 900 0 839 L0 839 Z M58 839 C58 868 78 892 112 892 C146 892 166 868 166 839 C166 810 146 785 112 785 C78 785 58 810 58 839 L58 839 Z " />
<glyph glyph-name="Tilde" unicode="&#xeff5;" horiz-adv-x="286" d="M56 784 C56 800 59 828 86 828 C120 828 149 778 209 778 C273 778 286 837 285 892 L234 892 C234 880 234 844 204 844 C163 844 139 896 84 896 C21 896 0 841 1 784 L56 784 Z " />
<glyph glyph-name="Circumflex" unicode="&#xeff7;" horiz-adv-x="289" d="M88 898 L0 780 L90 780 L142 854 L194 780 L289 780 L202 898 L88 898 Z " />
<glyph glyph-name="one.superior" unicode="&#xf06d;" horiz-adv-x="325" d="M240 386 L240 804 L175 804 C159 774 94 742 64 733 L64 661 C89 669 145 693 165 710 L165 386 L240 386 Z " />
<glyph glyph-name="two.superior" unicode="&#xf06e;" horiz-adv-x="411" d="M57 386 L355 386 L355 453 L150 453 C278 545 352 605 352 696 C352 769 304 814 216 814 C59 814 60 664 60 664 L132 664 C132 664 134 750 212 750 C263 750 274 718 274 692 C274 612 177 548 57 446 L57 386 Z " />
<glyph glyph-name="three.superior" unicode="&#xf06f;" horiz-adv-x="411" d="M49 520 C49 510 45 375 210 375 C311 375 363 426 363 506 C363 601 270 608 267 608 C275 609 348 626 348 706 C348 769 302 813 213 813 C79 813 66 703 65 682 L135 682 C137 693 141 750 209 750 C250 750 270 731 270 697 C270 650 238 633 182 633 L161 633 L161 575 L183 575 C248 575 284 560 284 508 C284 462 258 439 209 439 C124 439 121 509 121 520 L49 520 Z " />
<glyph glyph-name="Mcircumflex" unicode="&#xf116;" horiz-adv-x="803" d="M98 0 L178 0 L178 377 C178 487 176 565 176 566 C179 559 211 484 249 401 L375 128 L423 128 L554 403 C593 486 627 567 627 567 C627 567 625 481 625 376 L625 0 L705 0 L705 712 L620 712 L495 448 C452 356 401 241 401 241 C401 241 351 358 309 448 L187 712 L98 712 L98 0 Z M345 898 L257 780 L347 780 L399 854 L451 780 L546 780 L459 898 L345 898 Z " />
<glyph glyph-name="mcircumflex" unicode="&#xf117;" horiz-adv-x="832" d="M84 0 L162 0 L162 291 C162 403 231 433 280 433 C365 433 378 379 378 291 L378 0 L456 0 L456 291 C456 402 523 433 574 433 C659 433 672 379 672 291 L672 0 L750 0 L750 324 C750 435 701 498 594 498 C484 498 438 420 438 420 C438 420 408 498 299 498 C193 498 162 419 162 419 L159 488 L84 488 L84 0 Z M360 688 L273 571 L360 571 L413 647 L466 571 L559 571 L472 688 L360 688 Z " />
<glyph glyph-name="Gtilde" unicode="&#xf11b;" horiz-adv-x="699" d="M555 0 L625 0 L625 376 L365 376 L365 305 L550 305 L550 300 C550 168 495 59 355 59 C181 59 140 208 140 356 C140 520 197 660 356 660 C510 660 531 521 531 521 L613 521 C613 521 586 729 357 729 C140 729 58 546 58 356 C58 79 187 -10 347 -10 C507 -10 552 110 552 110 L555 0 Z M262 784 C262 800 265 828 292 828 C326 828 355 778 415 778 C479 778 492 837 491 892 L440 892 C440 880 440 844 410 844 C369 844 345 896 290 896 C227 896 206 841 207 784 L262 784 Z " />
<glyph glyph-name="gtilde" unicode="&#xf11c;" horiz-adv-x="556" d="M472 488 L394 488 L394 422 C394 422 357 498 253 498 C106 498 50 368 50 242 C50 108 113 0 250 0 C362 0 395 81 395 81 L395 12 C395 -126 339 -154 268 -154 C148 -154 143 -55 143 -55 L70 -55 C70 -55 64 -219 267 -219 C415 -219 472 -127 472 3 L472 488 Z M394 263 C394 149 357 65 258 65 C203 65 128 94 128 246 C128 352 164 433 257 433 C352 433 394 353 394 263 L394 263 Z M181 574 C181 590 184 618 211 618 C245 618 274 568 334 568 C398 568 411 627 410 682 L359 682 C359 670 359 634 329 634 C288 634 264 686 209 686 C146 686 125 631 126 574 L181 574 Z " />
<glyph glyph-name="Ncircumflex" unicode="&#xf127;" horiz-adv-x="733" d="M98 0 L178 0 L178 351 C178 498 175 590 175 590 C175 590 224 505 295 397 L555 0 L635 0 L635 712 L555 712 L555 349 C555 221 557 128 557 128 C557 128 506 215 445 308 L182 712 L98 712 L98 0 Z M310 898 L222 780 L312 780 L364 854 L416 780 L511 780 L424 898 L310 898 Z " />
<glyph glyph-name="ncircumflex" unicode="&#xf128;" horiz-adv-x="558" d="M84 0 L162 0 L162 291 C162 403 241 433 290 433 C375 433 398 377 398 291 L398 0 L476 0 L476 324 C476 426 428 498 310 498 C199 498 162 419 162 419 L159 488 L84 488 L84 0 Z M232 688 L145 571 L232 571 L285 647 L338 571 L431 571 L344 688 L232 688 Z " />
<glyph glyph-name="Commaaccent" unicode="&#xf12a;" horiz-adv-x="109" d="M0 -149 L51 -149 C52 -179 35 -197 3 -201 L3 -263 C75 -251 109 -221 109 -124 L109 -53 L0 -53 L0 -149 Z " />
<glyph glyph-name="Ndieresis" unicode="&#xf12c;" horiz-adv-x="733" d="M98 0 L178 0 L178 351 C178 498 175 590 175 590 C175 590 224 505 295 397 L555 0 L635 0 L635 712 L555 712 L555 349 C555 221 557 128 557 128 C557 128 506 215 445 308 L182 712 L98 712 L98 0 Z M229 796 L326 796 L326 898 L229 898 L229 796 Z M410 796 L504 796 L504 898 L410 898 L410 796 Z " />
<glyph glyph-name="ndieresis" unicode="&#xf12d;" horiz-adv-x="558" d="M84 0 L162 0 L162 291 C162 403 241 433 290 433 C375 433 398 377 398 291 L398 0 L476 0 L476 324 C476 426 428 498 310 498 C199 498 162 419 162 419 L159 488 L84 488 L84 0 Z M145 587 L240 587 L240 688 L145 688 L145 587 Z M326 587 L419 587 L419 688 L326 688 L326 587 Z " />
<glyph glyph-name="zeroone" unicode="&#xf150;" horiz-adv-x="989" d="M41 494 C41 315 120 274 206 274 C291 274 370 319 370 494 C370 662 291 712 206 712 C120 712 41 661 41 494 L41 494 Z M119 494 C119 617 157 649 206 649 C254 649 292 614 292 494 C292 366 254 337 206 337 C157 337 119 366 119 494 L119 494 Z M233 -10 L302 -10 L753 707 L684 707 L233 -10 Z M852 0 L852 418 L787 418 C771 388 706 356 676 347 L676 275 C701 283 757 307 777 324 L777 0 L852 0 Z " />
<glyph glyph-name="oneone" unicode="&#xf151;" horiz-adv-x="989" d="M274 285 L274 703 L209 703 C193 673 128 641 98 632 L98 560 C123 568 179 592 199 609 L199 285 L274 285 Z M233 -10 L302 -10 L753 707 L684 707 L233 -10 Z M852 0 L852 418 L787 418 C771 388 706 356 676 347 L676 275 C701 283 757 307 777 324 L777 0 L852 0 Z " />
<glyph glyph-name="Euro.fitted" unicode="&#xf176;" horiz-adv-x="732" d="M60 387 L155 387 C154 374 154 361 154 348 C154 330 154 313 155 297 L60 297 L60 237 L162 237 C187 82 271 -17 443 -17 C696 -17 708 239 708 239 L632 239 C632 239 630 47 442 47 C312 47 261 138 243 237 L504 237 L504 297 L235 297 C234 314 234 331 234 347 C234 361 235 374 235 387 L504 387 L504 447 L242 447 C269 603 360 647 444 647 C615 647 624 469 624 469 L701 469 C701 469 690 711 444 711 C291 711 190 612 162 447 L60 447 L60 387 Z " />
<glyph glyph-name="commaascender" unicode="&#xf206;" horiz-adv-x="109" d="M0 616 L51 616 C52 586 35 568 3 564 L3 502 C75 514 109 544 109 641 L109 712 L0 712 L0 616 Z " />
<glyph glyph-name="Germandbls" unicode="&#xf211;" horiz-adv-x="1196" d="M56 225 C56 93 130 -17 323 -17 C470 -17 549 59 549 190 C549 418 167 366 167 543 C167 620 212 660 301 660 C411 660 442 579 446 509 L526 509 C524 623 462 730 299 730 C156 730 85 648 85 541 C85 296 466 360 466 187 C466 96 419 53 320 53 C199 53 141 122 137 225 L56 225 Z M654 225 C654 93 728 -17 921 -17 C1068 -17 1147 59 1147 190 C1147 418 765 366 765 543 C765 620 810 660 899 660 C1009 660 1040 579 1044 509 L1124 509 C1122 623 1060 730 897 730 C754 730 683 648 683 541 C683 296 1064 360 1064 187 C1064 96 1017 53 918 53 C797 53 739 122 735 225 L654 225 Z " />
<glyph glyph-name="Commaascender" unicode="&#xf237;" horiz-adv-x="109" d="M0 616 L51 616 C52 586 35 568 3 564 L3 502 C75 514 109 544 109 641 L109 712 L0 712 L0 616 Z " />
<glyph glyph-name="zerozero" unicode="&#xf303;" horiz-adv-x="989" d="M41 494 C41 315 120 274 206 274 C291 274 370 319 370 494 C370 662 291 712 206 712 C120 712 41 661 41 494 L41 494 Z M119 494 C119 617 157 649 206 649 C254 649 292 614 292 494 C292 366 254 337 206 337 C157 337 119 366 119 494 L119 494 Z M233 -10 L302 -10 L753 707 L684 707 L233 -10 Z M619 209 C619 30 698 -11 784 -11 C869 -11 948 34 948 209 C948 377 869 427 784 427 C698 427 619 376 619 209 L619 209 Z M697 209 C697 332 735 364 784 364 C832 364 870 329 870 209 C870 81 832 52 784 52 C735 52 697 81 697 209 L697 209 Z " />
<glyph glyph-name="cedillatog" unicode="&#xf30f;" horiz-adv-x="109" d="M109 672 L58 672 C57 702 74 720 106 724 L106 786 C34 774 0 744 0 647 L0 576 L109 576 L109 672 Z " />
<glyph glyph-name="h.superior" unicode="&#xf637;" horiz-adv-x="387" d="M60 361 L135 361 L135 541 C135 596 172 612 199 612 C242 612 252 585 252 541 L252 361 L328 361 L328 560 C328 636 294 672 227 672 C161 672 136 627 135 624 L135 788 L60 788 L60 361 Z " />
<glyph glyph-name="zero.fitted" unicode="&#xf639;" horiz-adv-x="594" d="M58 351 C58 58 165 -17 297 -17 C429 -17 536 64 536 351 C536 625 429 712 297 712 C165 712 58 621 58 351 L58 351 Z M138 351 C138 583 209 647 297 647 C385 647 456 583 456 351 C456 106 385 48 297 48 C209 48 138 106 138 351 L138 351 Z " />
<glyph glyph-name="two.fitted" unicode="&#xf63a;" horiz-adv-x="554" d="M53 0 L500 0 L500 74 L154 74 C368 258 499 351 499 522 C499 642 426 712 298 712 C67 712 68 475 68 475 L145 475 C145 475 148 643 295 643 C394 643 418 576 418 522 C418 347 225 231 53 66 L53 0 Z " />
<glyph glyph-name="three.fitted" unicode="&#xf63b;" horiz-adv-x="557" d="M49 214 C49 169 57 -17 289 -17 C427 -17 512 62 512 195 C512 359 364 372 355 373 C367 375 485 396 485 542 C485 653 408 712 292 712 C129 712 77 594 75 503 L151 503 C156 553 174 644 289 644 C361 644 404 606 404 537 C404 446 346 407 261 407 L221 407 L221 333 L261 333 C364 333 430 300 430 191 C430 100 383 51 289 51 C142 51 125 167 125 214 L49 214 Z " />
<glyph glyph-name="four.fitted" unicode="&#xf63c;" horiz-adv-x="563" d="M43 150 L368 150 L368 0 L446 0 L446 150 L525 150 L525 219 L446 219 L446 698 L356 698 L43 215 L43 150 Z M124 219 L368 601 L368 219 L124 219 Z " />
<glyph glyph-name="five.fitted" unicode="&#xf63d;" horiz-adv-x="537" d="M47 183 C47 183 51 -17 275 -17 C447 -17 501 113 501 237 C501 351 443 458 303 458 C197 458 151 396 151 396 L189 630 L462 630 L462 698 L131 698 L71 312 L149 301 C149 301 181 393 291 393 C394 393 420 306 420 237 C420 141 391 51 275 51 C127 51 124 183 124 183 L47 183 Z " />
<glyph glyph-name="six.fitted" unicode="&#xf63e;" horiz-adv-x="562" d="M501 543 C484 647 419 712 308 712 C98 712 59 478 59 307 C59 152 100 -17 294 -17 C441 -17 519 98 519 222 C519 346 435 449 305 449 C175 449 135 353 135 353 C141 479 171 646 305 646 C412 646 422 543 422 543 L501 543 Z M294 49 C204 49 147 116 147 220 C147 340 223 384 294 384 C378 384 438 329 438 218 C438 115 388 49 294 49 L294 49 Z " />
<glyph glyph-name="seven.fitted" unicode="&#xf63f;" horiz-adv-x="480" d="M177 0 C250 387 460 625 460 625 L460 698 L19 698 L19 625 L377 625 C377 625 188 415 85 0 L177 0 Z " />
<glyph glyph-name="eight.fitted" unicode="&#xf640;" horiz-adv-x="571" d="M48 189 C48 35 164 -17 285 -17 C410 -17 523 46 523 189 C523 335 388 368 375 371 C385 374 489 406 489 530 C489 648 399 712 285 712 C176 712 83 648 83 530 C83 403 184 372 189 371 C176 368 48 332 48 189 L48 189 Z M129 192 C129 287 198 335 285 335 C372 335 442 287 442 192 C442 99 388 50 285 50 C188 50 129 101 129 192 L129 192 Z M164 530 C164 610 218 647 285 647 C352 647 408 610 408 530 C408 445 352 406 285 406 C218 406 164 444 164 530 L164 530 Z " />
<glyph glyph-name="nine.fitted" unicode="&#xf641;" horiz-adv-x="573" d="M67 154 C67 154 75 -16 277 -16 C493 -16 513 224 513 401 C513 558 460 712 278 712 C143 712 54 606 54 464 C54 331 132 240 265 240 C395 240 434 330 434 330 C429 212 417 50 277 50 C155 50 146 154 146 154 L67 154 Z M135 467 C135 574 186 646 282 646 C373 646 426 574 426 472 C426 354 345 305 274 305 C193 305 135 366 135 467 L135 467 Z " />
<glyph glyph-name="zero.numerator" unicode="&#xf655;" horiz-adv-x="411" d="M41 494 C41 315 120 274 206 274 C291 274 370 319 370 494 C370 662 291 712 206 712 C120 712 41 661 41 494 L41 494 Z M119 494 C119 617 157 649 206 649 C254 649 292 614 292 494 C292 366 254 337 206 337 C157 337 119 366 119 494 L119 494 Z " />
<glyph glyph-name="one.numerator" unicode="&#xf656;" horiz-adv-x="411" d="M274 285 L274 703 L209 703 C193 673 128 641 98 632 L98 560 C123 568 179 592 199 609 L199 285 L274 285 Z " />
<glyph glyph-name="two.numerator" unicode="&#xf657;" horiz-adv-x="411" d="M57 285 L355 285 L355 352 L150 352 C278 444 352 504 352 595 C352 668 304 713 216 713 C59 713 60 563 60 563 L132 563 C132 563 134 649 212 649 C263 649 274 617 274 591 C274 511 177 447 57 345 L57 285 Z " />
<glyph glyph-name="three.numerator" unicode="&#xf658;" horiz-adv-x="411" d="M50 419 C50 409 46 274 211 274 C312 274 364 325 364 405 C364 500 271 507 268 507 C276 508 349 525 349 605 C349 668 303 712 214 712 C80 712 67 602 66 581 L136 581 C138 592 142 649 210 649 C251 649 271 630 271 596 C271 549 239 532 183 532 L162 532 L162 474 L184 474 C249 474 285 459 285 407 C285 361 259 338 210 338 C125 338 122 408 122 419 L50 419 Z " />
<glyph glyph-name="four.numerator" unicode="&#xf659;" horiz-adv-x="411" d="M45 373 L242 373 L242 285 L318 285 L318 373 L366 373 L366 433 L318 433 L318 703 L236 703 L45 427 L45 373 Z M113 433 L242 619 L242 433 L113 433 Z " />
<glyph glyph-name="five.numerator" unicode="&#xf65a;" horiz-adv-x="411" d="M57 400 C57 400 56 274 204 274 C319 274 354 354 354 429 C354 497 318 561 227 561 C165 561 141 532 141 532 L160 643 L325 643 L325 703 L107 703 L69 468 L135 460 C135 460 152 502 208 502 C260 502 276 460 276 425 C276 380 262 338 203 338 C131 338 128 400 128 400 L57 400 Z " />
<glyph glyph-name="six.numerator" unicode="&#xf65b;" horiz-adv-x="411" d="M349 598 C345 622 324 712 219 712 C77 712 50 572 50 467 C50 364 85 274 210 274 C306 274 361 336 361 423 C361 507 308 558 225 558 C154 558 126 515 125 513 C130 574 145 652 214 652 C272 652 276 598 276 598 L349 598 Z M209 334 C158 334 133 368 133 420 C133 477 170 499 209 499 C254 499 283 471 283 417 C283 365 259 334 209 334 L209 334 Z " />
<glyph glyph-name="seven.numerator" unicode="&#xf65c;" horiz-adv-x="411" d="M182 285 C215 478 350 644 350 644 L350 703 L61 703 L61 639 L275 639 C256 616 147 485 98 285 L182 285 Z " />
<glyph glyph-name="eight.numerator" unicode="&#xf65d;" horiz-adv-x="411" d="M47 400 C47 305 125 275 205 275 C287 275 363 309 363 400 C363 487 277 506 272 507 C279 509 344 529 344 601 C344 677 278 712 205 712 C133 712 66 677 66 601 C66 527 130 508 133 507 C125 505 47 482 47 400 L47 400 Z M125 404 C125 452 162 474 205 474 C248 474 285 452 285 404 C285 357 256 335 205 335 C157 335 125 358 125 404 L125 404 Z M144 598 C144 637 171 654 205 654 C239 654 267 637 267 598 C267 558 239 539 205 539 C171 539 144 558 144 598 L144 598 Z " />
<glyph glyph-name="nine.numerator" unicode="&#xf65e;" horiz-adv-x="411" d="M59 388 C59 388 61 275 203 275 C345 275 362 415 362 523 C362 624 323 712 203 712 C111 712 49 654 49 562 C49 478 103 428 187 428 C256 428 283 469 285 471 C283 406 276 335 203 335 C135 335 131 388 131 388 L59 388 Z M128 568 C128 624 157 653 203 653 C247 653 277 625 277 569 C277 509 239 486 201 486 C159 486 128 510 128 568 L128 568 Z " />
<glyph glyph-name="zero.denominator" unicode="&#xf661;" horiz-adv-x="411" d="M41 209 C41 30 120 -11 206 -11 C291 -11 370 34 370 209 C370 377 291 427 206 427 C120 427 41 376 41 209 L41 209 Z M119 209 C119 332 157 364 206 364 C254 364 292 329 292 209 C292 81 254 52 206 52 C157 52 119 81 119 209 L119 209 Z " />
<glyph glyph-name="one.denominator" unicode="&#xf662;" horiz-adv-x="411" d="M274 0 L274 418 L209 418 C193 388 128 356 98 347 L98 275 C123 283 179 307 199 324 L199 0 L274 0 Z " />
<glyph glyph-name="two.denominator" unicode="&#xf663;" horiz-adv-x="411" d="M57 0 L355 0 L355 67 L150 67 C278 159 352 219 352 310 C352 383 304 428 216 428 C59 428 60 278 60 278 L132 278 C132 278 134 364 212 364 C263 364 274 332 274 306 C274 226 177 162 57 60 L57 0 Z " />
<glyph glyph-name="three.denominator" unicode="&#xf664;" horiz-adv-x="411" d="M50 134 C50 124 46 -11 211 -11 C312 -11 364 40 364 120 C364 215 271 222 268 222 C276 223 349 240 349 320 C349 383 303 427 214 427 C80 427 67 317 66 296 L136 296 C138 307 142 364 210 364 C251 364 271 345 271 311 C271 264 239 247 183 247 L162 247 L162 189 L184 189 C249 189 285 174 285 122 C285 76 259 53 210 53 C125 53 122 123 122 134 L50 134 Z " />
<glyph glyph-name="four.denominator" unicode="&#xf665;" horiz-adv-x="411" d="M45 88 L242 88 L242 0 L318 0 L318 88 L366 88 L366 148 L318 148 L318 418 L236 418 L45 142 L45 88 Z M113 148 L242 334 L242 148 L113 148 Z " />
<glyph glyph-name="five.denominator" unicode="&#xf666;" horiz-adv-x="411" d="M57 115 C57 115 56 -11 204 -11 C319 -11 354 69 354 144 C354 212 318 276 227 276 C165 276 141 247 141 247 L160 358 L325 358 L325 418 L107 418 L69 183 L135 175 C135 175 152 217 208 217 C260 217 276 175 276 140 C276 95 262 53 203 53 C131 53 128 115 128 115 L57 115 Z " />
<glyph glyph-name="six.denominator" unicode="&#xf667;" horiz-adv-x="411" d="M349 313 C345 337 324 427 219 427 C77 427 50 287 50 182 C50 79 85 -11 210 -11 C306 -11 361 51 361 138 C361 222 308 273 225 273 C154 273 126 230 125 228 C130 289 145 367 214 367 C272 367 276 313 276 313 L349 313 Z M209 49 C158 49 133 83 133 135 C133 192 170 214 209 214 C254 214 283 186 283 132 C283 80 259 49 209 49 L209 49 Z " />
<glyph glyph-name="seven.denominator" unicode="&#xf668;" horiz-adv-x="411" d="M182 0 C215 193 350 359 350 359 L350 418 L61 418 L61 354 L275 354 C256 331 147 200 98 0 L182 0 Z " />
<glyph glyph-name="eight.denominator" unicode="&#xf669;" horiz-adv-x="411" d="M47 115 C47 20 125 -10 205 -10 C287 -10 363 24 363 115 C363 202 277 221 272 222 C279 224 344 244 344 316 C344 392 278 427 205 427 C133 427 66 392 66 316 C66 242 130 223 133 222 C125 220 47 197 47 115 L47 115 Z M125 119 C125 167 162 189 205 189 C248 189 285 167 285 119 C285 72 256 50 205 50 C157 50 125 73 125 119 L125 119 Z M144 313 C144 352 171 369 205 369 C239 369 267 352 267 313 C267 273 239 254 205 254 C171 254 144 273 144 313 L144 313 Z " />
<glyph glyph-name="nine.denominator" unicode="&#xf66a;" horiz-adv-x="411" d="M59 103 C59 103 61 -10 203 -10 C345 -10 362 130 362 238 C362 339 323 427 203 427 C111 427 49 369 49 277 C49 193 103 143 187 143 C256 143 283 184 285 186 C283 121 276 50 203 50 C135 50 131 103 131 103 L59 103 Z M128 283 C128 339 157 368 203 368 C247 368 277 340 277 284 C277 224 239 201 201 201 C159 201 128 225 128 283 L128 283 Z " />
<glyph glyph-name="commaaccent" unicode="&#xf6c3;" horiz-adv-x="109" d="M0 -149 L51 -149 C52 -179 35 -197 3 -201 L3 -263 C75 -251 109 -221 109 -124 L109 -53 L0 -53 L0 -149 Z " />
<glyph glyph-name="Acute" unicode="&#xf6c9;" horiz-adv-x="193" d="M67 898 L0 780 L89 780 L193 898 L67 898 Z " />
<glyph glyph-name="Caron" unicode="&#xf6ca;" horiz-adv-x="289" d="M202 780 L289 898 L196 898 L144 825 L92 898 L0 898 L88 780 L202 780 Z " />
<glyph glyph-name="Dieresis" unicode="&#xf6cb;" horiz-adv-x="275" d="M0 796 L97 796 L97 898 L0 898 L0 796 Z M181 796 L275 796 L275 898 L181 898 L181 796 Z " />
<glyph glyph-name="Grave" unicode="&#xf6ce;" horiz-adv-x="193" d="M0 898 L104 780 L193 780 L126 898 L0 898 Z " />
<glyph glyph-name="Hungarumlaut" unicode="&#xf6cf;" horiz-adv-x="380" d="M67 898 L0 780 L89 780 L193 898 L67 898 Z M255 898 L188 780 L276 780 L380 898 L255 898 Z " />
<glyph glyph-name="Macron" unicode="&#xf6d0;" horiz-adv-x="271" d="M0 804 L271 804 L271 876 L0 876 L0 804 Z " />
<glyph glyph-name="one.fitted" unicode="&#xf6dc;" horiz-adv-x="404" d="M300 0 L300 698 L229 698 C205 665 102 596 53 577 L53 499 C94 513 206 576 223 602 L223 0 L300 0 Z " />
<glyph glyph-name="b.superior" unicode="&#xf6ea;" horiz-adv-x="390" d="M60 361 L133 361 L135 401 C137 397 160 355 225 355 C313 355 350 425 350 518 C350 604 316 673 231 673 C164 673 136 629 135 626 L135 788 L60 788 L60 361 Z M135 517 C135 567 153 615 208 615 C254 615 275 578 275 517 C275 436 244 411 208 411 C145 411 135 468 135 517 L135 517 Z " />
<glyph glyph-name="d.superior" unicode="&#xf6eb;" horiz-adv-x="390" d="M330 788 L255 788 L255 628 C253 632 229 673 168 673 C83 673 40 605 40 512 C40 424 71 355 164 355 C231 355 255 402 255 402 L257 361 L330 361 L330 788 Z M255 517 C255 468 243 411 184 411 C147 411 115 433 115 512 C115 570 135 615 184 615 C238 615 255 567 255 517 L255 517 Z " />
<glyph glyph-name="e.superior" unicode="&#xf6ec;" horiz-adv-x="362" d="M322 490 C332 585 296 673 186 673 C83 673 40 601 40 510 C40 400 91 350 188 350 C306 350 319 444 319 454 L251 454 C251 449 244 410 189 410 C123 410 116 469 116 490 L322 490 Z M117 543 C121 585 139 616 184 616 C230 616 249 583 250 543 L117 543 Z " />
<glyph glyph-name="i.superior" unicode="&#xf6ed;" horiz-adv-x="195" d="M57 720 L139 720 L139 796 L57 796 L57 720 Z M60 361 L135 361 L135 663 L60 663 L60 361 Z " />
<glyph glyph-name="l.superior" unicode="&#xf6ee;" horiz-adv-x="195" d="M60 361 L135 361 L135 788 L60 788 L60 361 Z " />
<glyph glyph-name="m.superior" unicode="&#xf6ef;" horiz-adv-x="566" d="M60 361 L135 361 L135 539 C135 594 168 610 195 610 C237 610 246 584 246 539 L246 361 L321 361 L321 541 C321 594 354 610 381 610 C424 610 432 584 432 539 L432 361 L507 361 L507 558 C507 636 472 669 407 669 C340 669 310 620 309 617 C307 622 289 669 222 669 C157 669 134 622 134 622 L132 663 L60 663 L60 361 Z " />
<glyph glyph-name="r.superior" unicode="&#xf6f1;" horiz-adv-x="260" d="M60 361 L136 361 L136 531 C136 579 161 604 215 604 C222 604 230 603 230 603 L230 668 C230 668 220 669 211 669 C185 669 151 657 133 617 L130 663 L60 663 L60 361 Z " />
<glyph glyph-name="s.superior" unicode="&#xf6f2;" horiz-adv-x="317" d="M39 457 C39 421 53 350 167 350 C241 350 279 385 279 446 C279 556 116 525 116 587 C116 608 131 619 157 619 C200 619 204 583 205 573 L271 573 C271 598 263 673 157 673 C90 673 46 640 46 582 C46 470 210 503 210 442 C210 417 197 405 166 405 C112 405 106 445 106 457 L39 457 Z " />
<glyph glyph-name="t.superior" unicode="&#xf6f3;" horiz-adv-x="256" d="M78 460 C78 395 87 354 161 354 C188 354 219 361 219 361 L219 413 C219 413 202 412 195 412 C155 412 153 426 153 465 L153 611 L220 611 L220 663 L153 663 L153 753 L78 735 L78 663 L24 663 L24 611 L78 611 L78 460 Z " />
<glyph glyph-name="fi" unicode="&#xfb01;" horiz-adv-x="578" d="M114 0 L190 0 L190 428 L304 428 L304 488 L190 488 L190 589 C190 641 198 664 263 664 C277 664 316 662 316 662 L316 723 C316 723 283 729 246 729 C148 729 114 684 114 573 L114 488 L38 488 L38 428 L114 428 L114 0 Z M407 611 L502 611 L502 712 L407 712 L407 611 Z M416 0 L494 0 L494 488 L416 488 L416 0 Z " />
<glyph glyph-name="fl" unicode="&#xfb02;" horiz-adv-x="578" d="M114 0 L190 0 L190 428 L304 428 L304 488 L190 488 L190 589 C190 641 198 664 263 664 C277 664 316 662 316 662 L316 723 C316 723 283 729 246 729 C148 729 114 684 114 573 L114 488 L38 488 L38 428 L114 428 L114 0 Z M416 0 L494 0 L494 712 L416 712 L416 0 Z " />
</font>
</svg>
