<?xml version="1.0" encoding="UTF-8"?>
<svg xmlns="http://www.w3.org/2000/svg" xmlns:xlink="http://www.w3.org/1999/xlink" version="1.2" >
<font id="Flaco Heavy">
<font-face  font-family="Flaco" units-per-em="1000" ascent="780" descent="-220" font-style="normal" font-weight="900" font-stretch="normal" cap-height="712" x-height="520" underline-position="-75" underline-thickness="50" />
<missing-glyph  horiz-adv-x="518" d="M61 0 L457 0 L457 712 L61 712 L61 0 Z M157 639 L361 639 L361 73 L157 73 L157 639 Z " />
<glyph glyph-name="NULL" d="" />
<glyph glyph-name="CR" unicode="&#xd;" horiz-adv-x="250" d="" />
<glyph glyph-name="space" unicode="&#x20;" horiz-adv-x="285" d="" />
<glyph glyph-name="exclam" unicode="&#x21;" horiz-adv-x="357" d="M269 266 C269 266 281 442 281 566 L281 712 L90 712 L90 566 C90 442 100 266 100 266 L269 266 Z M92 0 L277 0 L277 168 L92 168 L92 0 Z " />
<glyph glyph-name="quotedbl" unicode="&#x22;" horiz-adv-x="481" d="M204 734 L55 734 L55 619 C55 560 76 463 76 463 L186 463 C186 463 204 564 204 619 L204 734 Z M427 734 L277 734 L277 619 C277 560 299 463 299 463 L408 463 C408 463 427 564 427 619 L427 734 Z " />
<glyph glyph-name="numbersign" unicode="&#x23;" horiz-adv-x="643" d="M295 -5 L442 -5 L476 171 L561 171 L561 292 L500 292 L522 403 L608 403 L608 529 L547 529 L579 700 L432 700 L399 529 L325 529 L358 700 L210 700 L177 529 L82 529 L82 403 L153 403 L132 292 L35 292 L35 171 L108 171 L74 -5 L220 -5 L254 171 L329 171 L295 -5 Z M300 403 L375 403 L354 292 L279 292 L300 403 Z " />
<glyph glyph-name="dollar" unicode="&#x24;" horiz-adv-x="643" d="M65 224 C65 123 124 8 302 -4 L302 -168 L350 -168 L350 -5 C548 1 584 123 584 219 C584 379 449 406 350 436 L350 566 C376 553 389 525 391 488 L566 488 C566 636 472 700 350 709 L350 839 L302 839 L302 711 C164 706 79 630 79 494 C79 338 204 309 302 280 L302 139 C265 153 248 186 246 224 L65 224 Z M414 193 C414 145 383 133 350 132 L350 264 C388 249 414 229 414 193 L414 193 Z M248 515 C248 555 272 570 302 573 L302 452 C269 466 248 484 248 515 L248 515 Z " />
<glyph glyph-name="percent" unicode="&#x25;" horiz-adv-x="841" d="M218 462 C184 462 177 489 177 536 C177 585 183 613 218 613 C253 613 259 585 259 536 C259 489 252 462 218 462 L218 462 Z M276 -16 L698 712 L569 712 L136 -16 L276 -16 Z M33 536 C33 423 111 364 218 364 C326 364 402 433 402 536 C402 643 336 712 218 712 C109 712 33 643 33 536 L33 536 Z M583 154 C583 204 589 231 624 231 C659 231 665 204 665 154 C665 107 658 81 624 81 C590 81 583 107 583 154 L583 154 Z M439 155 C439 41 517 -18 624 -18 C732 -18 808 51 808 155 C808 261 743 330 624 330 C515 330 439 261 439 155 L439 155 Z " />
<glyph glyph-name="ampersand" unicode="&#x26;" horiz-adv-x="862" d="M640 158 C657 191 668 226 674 263 L721 263 L721 383 L539 383 C539 351 537 315 531 282 L452 370 C519 412 581 461 581 547 C581 656 507 719 382 719 C271 719 176 665 176 548 C176 487 206 433 238 391 C169 348 107 292 107 178 C107 55 191 -17 344 -17 C421 -17 490 7 545 47 L588 0 L781 0 L640 158 Z M278 197 C278 240 296 267 326 290 L455 147 C432 132 404 124 370 124 C297 124 278 163 278 197 L278 197 Z M428 545 C428 507 404 485 369 464 C338 499 327 517 327 547 C327 567 336 595 377 595 C412 595 428 573 428 545 L428 545 Z " />
<glyph glyph-name="quotesingle" unicode="&#x27;" horiz-adv-x="266" d="M211 734 L55 734 L55 619 C55 560 76 463 76 463 L192 463 C192 463 211 564 211 619 L211 734 Z " />
<glyph glyph-name="parenleft" unicode="&#x28;" horiz-adv-x="329" d="M319 -107 C319 -107 208 98 208 322 C208 535 295 715 295 715 L138 715 C138 715 27 554 27 322 C27 80 152 -107 152 -107 L319 -107 Z " />
<glyph glyph-name="parenright" unicode="&#x29;" horiz-adv-x="329" d="M177 -107 C177 -107 302 80 302 322 C302 554 192 715 192 715 L28 715 C28 715 121 535 121 322 C121 98 10 -107 10 -107 L177 -107 Z " />
<glyph glyph-name="asterisk" unicode="&#x2a;" horiz-adv-x="385" d="M367 605 L334 701 L244 661 L249 759 L134 759 L142 661 L46 701 L18 603 L121 584 L49 500 L140 439 L192 522 L242 439 L334 502 L264 583 L367 605 Z " />
<glyph glyph-name="plus" unicode="&#x2b;" horiz-adv-x="643" d="M83 207 L252 207 L252 31 L391 31 L391 207 L559 207 L559 340 L391 340 L391 514 L252 514 L252 340 L83 340 L83 207 Z " />
<glyph glyph-name="comma" unicode="&#x2c;" horiz-adv-x="280" d="M48 0 L121 0 C121 -5 117 -58 51 -73 L51 -184 C210 -167 234 -47 234 32 L234 167 L48 167 L48 0 Z " />
<glyph glyph-name="hyphen" unicode="&#x2d;" horiz-adv-x="351" d="M24 203 L327 203 L327 344 L24 344 L24 203 Z " />
<glyph glyph-name="period" unicode="&#x2e;" horiz-adv-x="280" d="M47 0 L231 0 L231 168 L47 168 L47 0 Z " />
<glyph glyph-name="slash" unicode="&#x2f;" horiz-adv-x="440" d="M-15 -108 L136 -108 L415 727 L265 727 L-15 -108 Z " />
<glyph glyph-name="zero" unicode="0" horiz-adv-x="643" d="M28 346 C28 39 180 -18 321 -18 C463 -18 614 48 614 346 C614 632 463 712 321 712 C180 712 28 635 28 346 L28 346 Z M212 346 C212 517 260 561 321 561 C382 561 430 507 430 346 C430 171 382 133 321 133 C260 133 212 171 212 346 L212 346 Z " />
<glyph glyph-name="one" unicode="1" horiz-adv-x="643" d="M465 0 L465 694 L317 694 C291 625 188 591 143 581 L143 411 C180 420 243 438 289 481 L289 0 L465 0 Z " />
<glyph glyph-name="two" unicode="2" horiz-adv-x="643" d="M71 0 L580 0 L580 158 L281 158 C471 272 571 382 571 510 C571 634 490 713 333 713 C59 713 60 449 60 449 L227 449 C227 449 230 563 321 563 C378 563 388 527 388 496 C388 410 286 317 71 139 L71 0 Z " />
<glyph glyph-name="three" unicode="3" horiz-adv-x="643" d="M54 234 C54 210 41 -18 329 -18 C520 -18 599 73 599 206 C599 355 464 367 456 368 C467 371 579 403 579 524 C579 621 513 712 337 712 C90 712 77 518 77 481 L238 481 C238 495 240 562 325 562 C376 562 397 539 397 497 C397 434 356 418 262 418 L238 418 L238 294 L265 294 C369 294 416 277 416 217 C416 158 389 132 326 132 C221 132 218 218 218 234 L54 234 Z " />
<glyph glyph-name="four" unicode="4" horiz-adv-x="643" d="M47 143 L345 143 L345 0 L522 0 L522 143 L595 143 L595 278 L522 278 L522 694 L335 694 L47 262 L47 143 Z M192 278 L345 502 L345 278 L192 278 Z " />
<glyph glyph-name="five" unicode="5" horiz-adv-x="643" d="M74 201 C74 188 72 -18 316 -18 C511 -18 570 117 570 244 C570 358 513 461 361 461 C275 461 246 430 246 430 L265 556 L525 556 L525 694 L147 694 L87 299 L233 281 C233 281 249 330 309 330 C364 330 386 287 386 238 C386 185 371 133 309 133 C232 133 233 201 233 201 L74 201 Z " />
<glyph glyph-name="six" unicode="6" horiz-adv-x="643" d="M571 503 C571 529 546 712 337 712 C100 712 49 479 49 299 C49 109 126 -18 332 -18 C490 -18 592 68 592 238 C592 397 505 464 374 464 C278 464 228 411 228 411 C232 482 248 572 328 572 C399 572 406 503 406 503 L571 503 Z M328 121 C262 121 244 166 244 232 C244 295 277 326 328 326 C382 326 408 287 408 223 C408 158 384 121 328 121 L328 121 Z " />
<glyph glyph-name="seven" unicode="7" horiz-adv-x="643" d="M318 0 C345 244 563 568 563 568 L563 694 L79 694 L79 549 L396 549 C322 466 172 238 127 0 L318 0 Z " />
<glyph glyph-name="eight" unicode="8" horiz-adv-x="643" d="M51 196 C51 34 187 -17 320 -17 C456 -17 591 37 591 196 C591 343 451 370 451 370 C451 370 565 405 565 522 C565 660 438 712 320 712 C198 712 75 660 75 522 C75 400 183 370 183 370 C183 370 51 335 51 196 L51 196 Z M230 207 C230 257 260 293 320 293 C380 293 410 257 410 207 C410 155 380 121 320 121 C260 121 230 155 230 207 L230 207 Z M252 511 C252 557 280 579 320 579 C360 579 388 557 388 511 C388 467 360 442 320 442 C280 442 252 467 252 511 L252 511 Z " />
<glyph glyph-name="nine" unicode="9" horiz-adv-x="643" d="M67 192 C67 192 65 -19 321 -19 C561 -19 595 208 595 392 C595 573 520 712 319 712 C159 712 48 626 48 459 C48 309 144 235 277 235 C365 235 415 288 415 288 C415 192 403 122 320 122 C234 122 229 192 229 192 L67 192 Z M233 475 C233 549 275 573 314 573 C355 573 396 550 396 473 C396 395 365 371 317 371 C272 371 233 386 233 475 L233 475 Z " />
<glyph glyph-name="colon" unicode="&#x3a;" horiz-adv-x="307" d="M84 0 L270 0 L270 168 L84 168 L84 0 Z M84 334 L270 334 L270 500 L84 500 L84 334 Z " />
<glyph glyph-name="semicolon" unicode="&#x3b;" horiz-adv-x="307" d="M84 0 L157 0 C157 -5 153 -58 87 -73 L87 -184 C246 -167 270 -47 270 32 L270 167 L84 167 L84 0 Z M84 334 L270 334 L270 500 L84 500 L84 334 Z " />
<glyph glyph-name="less" unicode="&#x3c;" horiz-adv-x="643" d="M82 330 L82 212 L559 18 L559 178 L268 273 L559 368 L559 525 L82 330 Z " />
<glyph glyph-name="equal" unicode="&#x3d;" horiz-adv-x="643" d="M83 315 L559 315 L559 456 L83 456 L83 315 Z M83 105 L559 105 L559 246 L83 246 L83 105 Z " />
<glyph glyph-name="greater" unicode="&#x3e;" horiz-adv-x="643" d="M82 525 L82 369 L372 272 L82 179 L82 18 L559 212 L559 330 L82 525 Z " />
<glyph glyph-name="question" unicode="&#x3f;" horiz-adv-x="513" d="M175 251 L336 251 L336 284 C336 393 486 428 486 568 C486 693 382 729 284 729 C46 729 44 530 44 509 L203 509 C207 550 216 590 266 590 C296 590 311 574 311 544 C311 463 175 440 175 303 L175 251 Z M162 0 L347 0 L347 168 L162 168 L162 0 Z " />
<glyph glyph-name="at" unicode="&#x40;" horiz-adv-x="1134" d="M812 479 L666 479 L655 428 C655 428 629 490 540 490 C407 490 324 353 324 190 C324 81 369 5 483 5 C547 5 583 36 598 54 L593 13 L715 13 C949 13 1042 178 1042 338 C1042 597 825 685 611 685 C339 685 104 519 104 200 C104 -126 354 -182 543 -182 C673 -182 778 -152 778 -152 L773 -39 C773 -39 668 -71 542 -71 C427 -71 241 -37 241 205 C241 452 423 572 616 572 C746 572 904 523 904 337 C904 196 829 131 753 129 L812 479 Z M543 143 C504 143 494 169 494 212 C494 265 506 356 563 356 C606 356 613 318 613 284 C613 241 604 143 543 143 L543 143 Z " />
<glyph glyph-name="A" unicode="A" horiz-adv-x="716" d="M524 0 L727 0 L439 712 L280 712 L-10 0 L177 0 L230 145 L473 145 L524 0 Z M309 362 C334 431 353 492 354 495 C355 490 371 435 397 363 L425 282 L280 282 L309 362 Z " />
<glyph glyph-name="B" unicode="B" horiz-adv-x="671" d="M64 0 L394 0 C538 0 647 39 647 220 C647 351 517 369 504 371 C514 373 620 401 620 533 C620 675 525 712 380 712 L64 712 L64 0 Z M248 150 L248 290 L383 290 C437 290 460 268 460 221 C460 160 427 150 383 150 L248 150 Z M248 436 L248 562 L368 562 C404 562 434 546 434 505 C434 463 421 436 364 436 L248 436 Z " />
<glyph glyph-name="C" unicode="C" horiz-adv-x="682" d="M471 265 C469 243 461 132 355 132 C234 132 223 238 223 363 C223 518 257 579 352 579 C453 579 463 474 465 454 L654 454 C653 486 640 729 355 729 C142 729 32 591 32 350 C32 139 94 -18 351 -18 C654 -18 660 244 660 265 L471 265 Z " />
<glyph glyph-name="D" unicode="D" horiz-adv-x="708" d="M64 0 L285 0 C618 0 674 188 674 375 C674 551 596 712 271 712 L64 712 L64 0 Z M251 150 L251 562 L291 562 C478 562 483 424 483 376 C483 263 463 150 287 150 L251 150 Z " />
<glyph glyph-name="E" unicode="E" horiz-adv-x="603" d="M64 0 L563 0 L563 151 L251 151 L251 285 L527 285 L527 436 L251 436 L251 561 L556 561 L556 712 L64 712 L64 0 Z " />
<glyph glyph-name="F" unicode="F" horiz-adv-x="587" d="M64 0 L251 0 L251 269 L528 269 L528 420 L251 420 L251 561 L559 561 L559 712 L64 712 L64 0 Z " />
<glyph glyph-name="G" unicode="G" horiz-adv-x="709" d="M508 0 L657 0 L657 391 L380 391 L380 256 L488 256 L488 251 C488 195 446 140 363 140 C250 140 224 250 224 359 C224 550 293 578 352 578 C459 578 465 467 465 467 L653 467 C653 467 643 729 357 729 C132 729 32 565 32 351 C32 66 178 -10 319 -10 C460 -10 505 67 505 67 L508 0 Z " />
<glyph glyph-name="H" unicode="H" horiz-adv-x="725" d="M64 0 L251 0 L251 289 L474 289 L474 0 L661 0 L661 712 L474 712 L474 440 L251 440 L251 712 L64 712 L64 0 Z " />
<glyph glyph-name="I" unicode="I" horiz-adv-x="315" d="M64 0 L251 0 L251 712 L64 712 L64 0 Z " />
<glyph glyph-name="J" unicode="J" horiz-adv-x="561" d="M18 234 C21 119 43 -18 255 -18 C460 -18 500 86 500 248 L500 712 L313 712 L313 250 C313 170 312 133 256 133 C198 133 195 186 192 234 L18 234 Z " />
<glyph glyph-name="K" unicode="K" horiz-adv-x="688" d="M471 0 L689 0 L411 431 L662 712 L448 712 L251 479 L251 712 L64 712 L64 0 L251 0 L251 254 L288 301 L471 0 Z " />
<glyph glyph-name="L" unicode="L" horiz-adv-x="539" d="M64 0 L520 0 L520 151 L251 151 L251 712 L64 712 L64 0 Z " />
<glyph glyph-name="M" unicode="M" horiz-adv-x="816" d="M64 0 L240 0 L240 243 C240 344 235 404 235 408 C237 401 259 344 276 302 L355 112 L462 112 L539 302 C557 346 578 403 580 408 C579 403 575 343 575 241 L575 0 L752 0 L752 712 L561 712 L463 480 C432 407 410 349 409 346 C407 351 387 405 355 480 L256 712 L64 712 L64 0 Z " />
<glyph glyph-name="N" unicode="N" horiz-adv-x="726" d="M64 0 L240 0 L240 311 C240 389 236 449 236 450 C239 443 268 373 303 307 L463 0 L662 0 L662 712 L486 712 L486 475 C486 364 491 266 491 266 C491 266 449 355 409 435 L268 712 L64 712 L64 0 Z " />
<glyph glyph-name="O" unicode="O" horiz-adv-x="747" d="M34 356 C34 75 187 -18 373 -18 C560 -18 713 91 713 356 C713 611 570 729 373 729 C187 729 34 611 34 356 L34 356 Z M226 356 C226 536 295 578 373 578 C452 578 521 536 521 356 C521 170 451 133 373 133 C293 133 226 170 226 356 L226 356 Z " />
<glyph glyph-name="P" unicode="P" horiz-adv-x="620" d="M64 0 L251 0 L251 246 L326 246 C487 246 602 320 602 489 C602 666 460 712 306 712 L64 712 L64 0 Z M251 397 L251 561 L305 561 C373 561 413 549 413 486 C413 407 366 397 310 397 L251 397 Z " />
<glyph glyph-name="Q" unicode="Q" horiz-adv-x="743" d="M32 356 C32 75 185 -18 371 -18 C403 -18 435 -14 465 -7 L529 -103 L632 -40 L577 41 C658 99 711 201 711 356 C711 611 568 729 371 729 C185 729 32 611 32 356 L32 356 Z M329 197 L371 133 C291 133 224 170 224 356 C224 536 293 578 371 578 C450 578 519 536 519 356 C519 272 504 218 481 184 L430 261 L329 197 Z " />
<glyph glyph-name="R" unicode="R" horiz-adv-x="645" d="M64 0 L251 0 L251 260 L295 260 L418 0 L625 0 L463 282 C554 315 602 381 602 494 C602 674 459 712 305 712 L64 712 L64 0 Z M251 408 L251 561 L321 561 C377 561 413 546 413 490 C413 414 363 408 303 408 L251 408 Z " />
<glyph glyph-name="S" unicode="S" horiz-adv-x="597" d="M28 221 C28 111 97 -18 308 -18 C530 -18 569 114 569 216 C569 480 219 397 219 524 C219 571 251 586 288 586 C341 586 366 549 368 496 L550 496 C550 665 434 729 290 729 C138 729 43 649 43 502 C43 238 392 324 392 189 C392 136 355 125 319 125 C249 125 220 169 217 221 L28 221 Z " />
<glyph glyph-name="T" unicode="T" horiz-adv-x="581" d="M196 0 L383 0 L383 561 L575 561 L575 712 L6 712 L6 561 L196 561 L196 0 Z " />
<glyph glyph-name="U" unicode="U" horiz-adv-x="724" d="M63 256 C63 65 170 -18 362 -18 C547 -18 661 65 661 256 L661 712 L474 712 L474 257 C474 155 413 133 362 133 C310 133 251 152 251 255 L251 712 L63 712 L63 256 Z " />
<glyph glyph-name="V" unicode="V" horiz-adv-x="694" d="M420 0 L694 712 L501 712 L424 489 C377 356 345 251 344 246 C341 256 315 358 274 487 L203 712 L0 712 L257 0 L420 0 Z " />
<glyph glyph-name="W" unicode="W" horiz-adv-x="979" d="M393 0 L430 198 C455 334 486 486 486 486 C486 486 521 333 548 198 L588 0 L780 0 L970 712 L773 712 L728 491 C706 382 682 236 682 236 C682 236 655 385 633 489 L585 712 L401 712 L356 490 C333 379 309 250 307 238 C304 251 280 384 257 490 L207 712 L9 712 L207 0 L393 0 Z " />
<glyph glyph-name="X" unicode="X" horiz-adv-x="742" d="M708 712 L499 712 L372 512 L246 712 L26 712 L268 372 L3 0 L220 0 L367 238 L515 0 L739 0 L470 373 L708 712 Z " />
<glyph glyph-name="Y" unicode="Y" horiz-adv-x="665" d="M238 0 L424 0 L424 291 L669 712 L462 712 L414 615 C380 546 336 452 336 452 C336 452 289 547 257 614 L210 712 L-4 712 L238 294 L238 0 Z " />
<glyph glyph-name="Z" unicode="Z" horiz-adv-x="610" d="M35 0 L579 0 L579 149 L258 149 L573 596 L573 712 L47 712 L47 564 L354 564 L35 114 L35 0 Z " />
<glyph glyph-name="bracketleft" unicode="&#x5b;" horiz-adv-x="329" d="M37 -134 L311 -134 L311 1 L217 1 L217 610 L311 610 L311 748 L37 748 L37 -134 Z " />
<glyph glyph-name="backslash" unicode="&#x5c;" horiz-adv-x="440" d="M165 727 L16 727 L296 -108 L447 -108 L165 727 Z " />
<glyph glyph-name="bracketright" unicode="&#x5d;" horiz-adv-x="329" d="M292 748 L18 748 L18 610 L113 610 L113 1 L18 1 L18 -134 L292 -134 L292 748 Z " />
<glyph glyph-name="asciicircum" unicode="&#x5e;" horiz-adv-x="643" d="M253 712 L56 429 L243 429 L318 565 L392 429 L587 429 L392 712 L253 712 Z " />
<glyph glyph-name="underscore" unicode="&#x5f;" horiz-adv-x="470" d="M-15 -229 L483 -229 L483 -101 L-15 -101 L-15 -229 Z " />
<glyph glyph-name="grave" unicode="&#x60;" horiz-adv-x="295" d="M7 737 L141 584 L288 584 L205 737 L7 737 Z " />
<glyph glyph-name="a" unicode="a" horiz-adv-x="563" d="M322 324 C322 324 275 326 253 326 C93 326 27 270 27 152 C27 41 92 -11 208 -11 C314 -11 361 49 377 66 L378 61 C380 49 392 -9 471 -9 C506 -9 546 0 546 0 L546 121 L532 121 C498 121 487 123 487 162 L487 363 C487 475 425 539 285 539 C57 539 55 364 55 364 L212 364 C216 385 217 417 273 417 C310 417 322 391 322 356 L322 324 Z M318 217 C318 139 294 108 245 108 C199 108 190 137 190 163 C190 195 200 229 265 229 C297 229 318 225 318 225 L318 217 Z " />
<glyph glyph-name="b" unicode="b" horiz-adv-x="595" d="M54 0 L227 0 L230 58 C230 58 265 -11 365 -11 C519 -11 567 110 567 265 C567 422 523 539 382 539 C281 539 231 470 231 470 L231 712 L54 712 L54 0 Z M230 260 C230 337 245 402 315 402 C359 402 390 368 390 261 C390 177 374 117 315 117 C238 117 230 198 230 260 L230 260 Z " />
<glyph glyph-name="c" unicode="c" horiz-adv-x="525" d="M347 209 C347 195 351 114 279 114 C210 114 203 182 203 262 C203 344 219 405 277 405 C335 405 341 351 342 323 L502 323 C502 334 502 539 275 539 C94 539 28 403 28 262 C28 51 130 -18 276 -18 C514 -18 508 192 508 209 L347 209 Z " />
<glyph glyph-name="d" unicode="d" horiz-adv-x="597" d="M543 712 L367 712 L367 470 C367 470 336 539 232 539 C90 539 31 407 31 260 C31 112 74 -11 221 -11 C323 -11 368 58 368 58 L371 0 L543 0 L543 712 Z M368 260 C368 198 361 117 287 117 C228 117 207 166 207 259 C207 372 247 402 290 402 C357 402 368 336 368 260 L368 260 Z " />
<glyph glyph-name="e" unicode="e" horiz-adv-x="549" d="M518 210 C538 377 479 539 285 539 C115 539 28 429 28 263 C28 55 129 -18 288 -18 C506 -18 516 155 516 165 L362 165 C361 157 351 116 287 116 C206 116 204 185 204 210 L518 210 Z M205 315 C207 365 220 411 279 411 C342 411 351 361 353 315 L205 315 Z " />
<glyph glyph-name="f" unicode="f" horiz-adv-x="364" d="M75 0 L249 0 L249 402 L355 402 L355 520 L249 520 L249 536 C249 565 257 587 308 587 C332 587 366 586 366 586 L366 708 C366 708 305 717 250 717 C120 717 75 665 75 537 L75 520 L3 520 L3 402 L75 402 L75 0 Z " />
<glyph glyph-name="g" unicode="g" horiz-adv-x="598" d="M544 520 L370 520 L368 475 C368 475 335 534 233 534 C97 534 32 425 32 278 C32 139 72 27 222 27 C323 27 366 88 366 88 L366 36 C366 -38 352 -68 289 -68 C223 -68 221 -21 221 -21 L54 -21 C54 -21 55 -197 293 -197 C476 -197 544 -106 544 38 L544 520 Z M369 277 C369 231 366 155 288 155 C228 155 208 190 208 276 C208 371 244 398 291 398 C359 398 369 341 369 277 L369 277 Z " />
<glyph glyph-name="h" unicode="h" horiz-adv-x="577" d="M54 0 L231 0 L231 311 C231 377 260 401 294 401 C338 401 348 370 348 311 L348 0 L525 0 L525 342 C525 498 463 541 372 541 C275 541 231 460 231 460 L231 712 L54 712 L54 0 Z " />
<glyph glyph-name="i" unicode="i" horiz-adv-x="285" d="M51 584 L233 584 L233 740 L51 740 L51 584 Z M54 0 L231 0 L231 520 L54 520 L54 0 Z " />
<glyph glyph-name="j" unicode="j" horiz-adv-x="292" d="M-31 -179 C-31 -179 4 -186 58 -186 C224 -186 238 -84 238 57 L238 520 L60 520 L60 33 C60 -4 56 -37 -1 -37 L-31 -37 L-31 -179 Z M58 584 L240 584 L240 740 L58 740 L58 584 Z " />
<glyph glyph-name="k" unicode="k" horiz-adv-x="581" d="M385 0 L581 0 L397 347 L579 520 L378 520 L231 373 L231 712 L54 712 L54 0 L231 0 L231 191 L278 240 L385 0 Z " />
<glyph glyph-name="l" unicode="l" horiz-adv-x="285" d="M54 0 L231 0 L231 712 L54 712 L54 0 Z " />
<glyph glyph-name="m" unicode="m" horiz-adv-x="875" d="M54 0 L231 0 L231 303 C231 369 258 393 294 393 C335 393 350 361 350 303 L350 0 L528 0 L528 310 C528 371 558 393 590 393 C635 393 646 361 646 303 L646 0 L823 0 L823 333 C823 486 760 533 662 533 C557 533 506 436 506 436 C506 436 486 533 371 533 C271 533 227 453 227 453 L224 520 L54 520 L54 0 Z " />
<glyph glyph-name="n" unicode="n" horiz-adv-x="577" d="M54 0 L231 0 L231 303 C231 369 260 393 294 393 C339 393 348 362 348 303 L348 0 L525 0 L525 333 C525 489 463 533 372 533 C275 533 227 451 227 451 L224 520 L54 520 L54 0 Z " />
<glyph glyph-name="o" unicode="o" horiz-adv-x="567" d="M27 260 C27 45 143 -18 283 -18 C424 -18 539 53 539 260 C539 449 431 539 283 539 C141 539 27 452 27 260 L27 260 Z M203 260 C203 379 240 405 283 405 C325 405 362 378 362 260 C362 134 324 116 283 116 C241 116 203 134 203 260 L203 260 Z " />
<glyph glyph-name="p" unicode="p" horiz-adv-x="597" d="M54 -179 L228 -179 L228 48 C228 48 265 -17 365 -17 C519 -17 567 104 567 259 C567 417 523 533 382 533 C281 533 231 459 231 459 L227 520 L54 520 L54 -179 Z M230 255 C230 331 245 397 315 397 C359 397 390 363 390 255 C390 171 374 112 314 112 C237 112 230 192 230 255 L230 255 Z " />
<glyph glyph-name="q" unicode="q" horiz-adv-x="598" d="M544 520 L371 520 L368 463 C368 463 337 532 233 532 C91 532 32 400 32 253 C32 105 75 -18 222 -18 C324 -18 373 55 373 55 L373 -179 L544 -179 L544 520 Z M369 253 C369 191 362 110 288 110 C229 110 208 159 208 252 C208 365 248 395 291 395 C358 395 369 329 369 253 L369 253 Z " />
<glyph glyph-name="r" unicode="r" horiz-adv-x="380" d="M54 0 L232 0 L232 283 C232 361 290 376 354 376 C365 376 376 375 376 375 L376 533 L365 533 C288 533 250 489 227 438 L220 520 L54 520 L54 0 Z " />
<glyph glyph-name="s" unicode="s" horiz-adv-x="460" d="M27 166 C27 127 29 -18 239 -18 C364 -18 437 34 437 156 C437 350 189 302 189 384 C189 404 199 421 232 421 C279 421 281 374 281 364 L429 364 C429 408 413 539 228 539 C123 539 34 488 34 368 C34 178 287 227 287 144 C287 119 275 99 237 99 C179 99 175 151 175 166 L27 166 Z " />
<glyph glyph-name="t" unicode="t" horiz-adv-x="377" d="M80 194 C80 75 90 -13 243 -13 C286 -13 353 1 353 1 L353 119 L335 119 C263 119 257 126 257 185 L257 402 L358 402 L358 520 L257 520 L257 670 L80 629 L80 520 L-1 520 L-1 402 L80 402 L80 194 Z " />
<glyph glyph-name="u" unicode="u" horiz-adv-x="572" d="M518 520 L343 520 L343 219 C343 154 315 132 281 132 C243 132 229 159 229 219 L229 520 L52 520 L52 169 C52 15 126 -10 207 -10 C295 -10 344 66 344 66 L347 0 L518 0 L518 520 Z " />
<glyph glyph-name="v" unicode="v" horiz-adv-x="538" d="M192 0 L339 0 L541 520 L358 520 L294 289 C283 249 274 189 273 183 C271 192 258 252 248 288 L180 520 L-3 520 L192 0 Z " />
<glyph glyph-name="w" unicode="w" horiz-adv-x="811" d="M342 0 L378 177 C389 232 401 320 402 323 C403 315 421 231 435 177 L479 0 L639 0 L811 520 L630 520 L587 350 C570 283 553 185 553 185 C553 185 534 287 519 349 L478 520 L324 520 L288 351 C274 286 262 185 262 185 C262 185 243 291 228 349 L185 520 L0 520 L169 0 L342 0 Z " />
<glyph glyph-name="x" unicode="x" horiz-adv-x="561" d="M21 520 L187 274 L0 0 L189 0 L282 162 L369 0 L560 0 L379 274 L543 520 L359 520 L288 390 L216 520 L21 520 Z " />
<glyph glyph-name="y" unicode="y" horiz-adv-x="536" d="M183 40 C162 -30 138 -55 85 -55 C69 -55 60 -54 60 -54 L60 -181 C60 -181 101 -191 144 -191 C249 -191 289 -117 322 -35 L547 520 L365 520 L299 312 C284 265 275 210 275 210 C275 210 263 270 251 309 L187 520 L2 520 L184 51 L183 40 Z " />
<glyph glyph-name="z" unicode="z" horiz-adv-x="502" d="M26 0 L472 0 L472 134 L233 134 L466 418 L466 520 L65 520 L65 388 L253 388 L26 99 L26 0 Z " />
<glyph glyph-name="braceleft" unicode="&#x7b;" horiz-adv-x="344" d="M70 29 C70 -111 131 -133 236 -133 L336 -133 L336 -4 L326 -4 C276 -4 250 -2 250 64 L250 188 C250 296 139 315 134 316 C144 318 250 339 250 461 L250 551 C250 610 270 615 317 615 L336 615 L336 747 L234 747 C135 747 70 729 70 578 L70 451 C70 398 46 385 -2 385 L-2 242 C46 242 70 232 70 182 L70 29 Z " />
<glyph glyph-name="bar" unicode="&#x7c;" horiz-adv-x="457" d="M153 -95 L304 -95 L304 741 L153 741 L153 -95 Z " />
<glyph glyph-name="braceright" unicode="&#x7d;" horiz-adv-x="346" d="M274 182 C274 232 298 242 346 242 L346 385 C298 385 274 398 274 451 L274 578 C274 729 209 747 110 747 L8 747 L8 615 L27 615 C74 615 94 610 94 551 L94 461 C94 336 204 321 210 321 C199 319 94 293 94 188 L94 64 C94 -2 68 -4 18 -4 L8 -4 L8 -133 L108 -133 C213 -133 274 -111 274 29 L274 182 Z " />
<glyph glyph-name="asciitilde" unicode="&#x7e;" horiz-adv-x="643" d="M209 179 C209 179 207 239 251 239 C307 239 352 181 433 181 C555 181 560 298 560 372 L443 372 C443 372 444 311 403 311 C343 311 291 369 216 369 C85 369 82 235 82 179 L209 179 Z " />
<glyph glyph-name="exclamdown" unicode="&#xa1;" horiz-adv-x="357" d="M88 447 C88 447 77 270 77 147 L77 0 L267 0 L267 147 C267 270 257 447 257 447 L88 447 Z M265 712 L80 712 L80 544 L265 544 L265 712 Z " />
<glyph glyph-name="cent" unicode="&#xa2;" horiz-adv-x="643" d="M441 209 C441 197 444 134 398 118 L398 400 C431 386 435 346 436 323 L596 323 C596 333 596 521 398 537 L398 639 L336 639 L336 537 C180 522 122 394 122 262 C122 68 208 -6 336 -17 L336 -121 L398 -121 L398 -17 C607 -1 602 192 602 209 L441 209 Z M297 262 C297 324 306 374 336 394 L336 123 C301 144 297 199 297 262 L297 262 Z " />
<glyph glyph-name="sterling" unicode="&#xa3;" horiz-adv-x="643" d="M74 282 L174 282 C176 272 178 263 178 255 C178 212 153 160 83 150 L83 0 L553 0 L553 143 L263 143 C313 170 349 216 350 282 L470 282 L470 377 L328 377 C311 417 291 457 291 513 C291 543 306 567 339 567 C390 567 390 501 390 501 L548 501 C548 501 560 712 335 712 C209 712 115 649 115 520 C115 464 128 417 142 377 L74 377 L74 282 Z " />
<glyph glyph-name="currency" unicode="&#xa4;" horiz-adv-x="594" d="M78 244 C78 196 93 151 119 116 L53 53 L106 -2 L170 65 C205 39 249 25 296 25 C343 25 387 39 423 65 L487 -2 L540 53 L474 116 C500 152 515 196 515 244 C515 291 500 335 474 371 L540 434 L487 489 L423 422 C387 447 343 462 296 462 C249 462 205 447 170 421 L106 489 L53 434 L118 370 C92 335 78 290 78 244 L78 244 Z M150 244 C150 325 215 393 296 393 C378 393 443 325 443 244 C443 162 378 94 296 94 C215 94 150 162 150 244 L150 244 Z " />
<glyph glyph-name="yen" unicode="&#xa5;" horiz-adv-x="643" d="M48 306 L218 306 L218 227 L48 227 L48 127 L218 127 L218 0 L404 0 L404 127 L576 127 L576 227 L404 227 L404 306 L576 306 L576 406 L447 406 L638 694 L430 694 L322 494 L217 694 L3 694 L178 406 L48 406 L48 306 Z " />
<glyph glyph-name="brokenbar" unicode="&#xa6;" horiz-adv-x="457" d="M153 -95 L304 -95 L304 215 L153 215 L153 -95 Z M153 431 L304 431 L304 741 L153 741 L153 431 Z " />
<glyph glyph-name="section" unicode="&#xa7;" horiz-adv-x="643" d="M81 267 C81 155 169 105 235 69 L273 48 C315 25 351 6 351 -28 C351 -57 336 -69 309 -69 C259 -69 256 -20 255 4 L104 4 C105 -52 119 -190 318 -190 C450 -190 517 -123 517 -11 C517 68 462 102 462 102 C462 102 569 162 569 257 C569 344 514 392 442 435 L398 461 C351 488 295 513 295 549 C295 572 305 588 334 588 C376 588 386 551 387 516 L540 516 C540 569 524 712 329 712 C204 712 131 648 131 546 C131 458 197 417 197 417 C197 417 81 368 81 267 L81 267 Z M319 202 C282 225 244 251 244 291 C244 334 278 358 278 358 L328 326 C385 289 409 263 409 232 C409 191 380 164 380 164 L319 202 Z " />
<glyph glyph-name="dieresis" unicode="&#xa8;" horiz-adv-x="390" d="M10 578 L162 578 L162 719 L10 719 L10 578 Z M228 578 L380 578 L380 719 L228 719 L228 578 Z " />
<glyph glyph-name="copyright" unicode="&#xa9;" horiz-adv-x="798" d="M457 309 C457 309 453 259 400 259 C354 259 341 304 341 362 C341 420 352 459 397 459 C454 459 454 405 454 405 L590 405 C590 405 582 580 398 580 C276 580 194 492 194 362 C194 208 281 139 404 139 C590 139 591 309 591 309 L457 309 Z M27 354 C27 115 200 -17 399 -17 C602 -17 771 127 771 354 C771 589 601 729 399 729 C194 729 27 582 27 354 L27 354 Z M145 356 C145 526 255 625 399 625 C544 625 653 526 653 356 C653 186 544 87 399 87 C255 87 145 186 145 356 L145 356 Z " />
<glyph glyph-name="ordfeminine" unicode="&#xaa;" horiz-adv-x="396" d="M208 531 C208 531 181 533 173 533 C70 533 27 499 27 423 C27 357 67 323 142 323 C205 323 234 360 247 371 L251 360 C253 358 262 323 316 323 C343 323 373 330 373 330 L373 418 L367 418 C343 418 334 418 334 447 L334 555 C334 623 292 662 198 662 C51 662 48 568 46 555 L160 555 C161 573 168 582 186 582 C208 582 208 565 208 553 L208 531 Z M206 451 C206 413 193 402 168 402 C151 402 138 412 138 435 C138 455 146 470 178 470 C196 470 206 467 206 467 L206 451 Z " />
<glyph glyph-name="guillemotleft" unicode="&#xab;" horiz-adv-x="588" d="M139 459 L24 256 L139 53 L318 53 L205 259 L318 459 L139 459 Z M383 459 L268 256 L383 53 L563 53 L450 259 L562 459 L383 459 Z " />
<glyph glyph-name="logicalnot" unicode="&#xac;" horiz-adv-x="643" d="M83 201 L410 201 L410 23 L559 23 L559 342 L83 342 L83 201 Z " />
<glyph glyph-name="registered" unicode="&#xae;" horiz-adv-x="501" d="M238 552 L272 472 L355 472 L301 558 C337 572 346 604 346 627 C346 684 299 697 258 697 L162 697 L162 472 L235 472 L235 552 L238 552 Z M235 597 L235 651 L248 651 C264 651 273 643 273 628 C273 606 265 597 248 597 L235 597 Z M87 582 C87 691 158 751 251 751 C343 751 414 691 414 582 C414 474 343 414 251 414 C158 414 87 474 87 582 L87 582 Z M13 582 C13 429 121 347 251 347 C380 347 488 438 488 582 C488 727 392 817 251 817 C121 817 13 725 13 582 L13 582 Z " />
<glyph glyph-name="macron" unicode="&#xaf;" horiz-adv-x="320" d="M8 604 L312 604 L312 717 L8 717 L8 604 Z " />
<glyph glyph-name="degree" unicode="&#xb0;" horiz-adv-x="412" d="M207 785 C114 785 29 727 29 627 C29 528 108 468 207 468 C301 468 384 529 384 627 C384 727 306 785 207 785 L207 785 Z M207 700 C249 700 274 673 274 627 C274 582 250 553 207 553 C164 553 139 581 139 627 C139 674 165 700 207 700 L207 700 Z " />
<glyph glyph-name="plusminus" unicode="&#xb1;" horiz-adv-x="643" d="M83 309 L252 309 L252 203 L390 203 L390 309 L559 309 L559 443 L390 443 L390 546 L252 546 L252 443 L83 443 L83 309 Z M83 0 L559 0 L559 133 L83 133 L83 0 Z " />
<glyph glyph-name="twosuperior" unicode="&#xb2;" horiz-adv-x="446" d="M62 386 L398 386 L398 503 L222 503 C336 552 391 620 391 685 C391 780 323 814 231 814 C53 814 49 654 49 649 L178 649 C178 649 179 703 221 703 C246 703 251 688 251 676 C251 628 209 599 62 488 L62 386 Z " />
<glyph glyph-name="threesuperior" unicode="&#xb3;" horiz-adv-x="446" d="M46 532 C47 403 136 375 236 375 C371 375 410 436 410 513 C410 598 316 604 308 605 C320 607 398 623 398 702 C398 754 360 813 242 813 C146 813 73 778 59 669 L182 669 C184 700 205 707 225 707 C252 707 259 691 259 676 C259 659 257 633 192 633 L165 633 L165 559 L199 559 C258 559 269 542 269 518 C269 498 261 481 225 481 C178 481 171 514 171 532 L46 532 Z " />
<glyph glyph-name="acute" unicode="&#xb4;" horiz-adv-x="295" d="M91 737 L7 584 L155 584 L288 737 L91 737 Z " />
<glyph glyph-name="&amp;#xb5;" unicode="&#xb5;" horiz-adv-x="555" d="M44 -173 L220 -173 L220 34 C221 30 234 5 275 5 C316 5 335 40 335 40 L338 0 L509 0 L509 520 L334 520 L334 219 C334 154 306 132 272 132 C235 132 220 155 220 219 L220 520 L44 520 L44 -173 Z " />
<glyph glyph-name="&amp;#x3bc;" unicode="&#x3bc;" horiz-adv-x="555" d="M44 -173 L220 -173 L220 34 C221 30 234 5 275 5 C316 5 335 40 335 40 L338 0 L509 0 L509 520 L334 520 L334 219 C334 154 306 132 272 132 C235 132 220 155 220 219 L220 520 L44 520 L44 -173 Z " />
<glyph glyph-name="paragraph" unicode="&#xb6;" horiz-adv-x="643" d="M26 508 C26 386 89 325 190 310 L190 -99 L337 -99 L337 597 L403 597 L403 -99 L549 -99 L549 597 L617 597 L617 712 L247 712 C125 712 26 648 26 508 L26 508 Z " />
<glyph glyph-name="periodcentered" unicode="&#xb7;" horiz-adv-x="280" d="M47 190 L231 190 L231 358 L47 358 L47 190 Z " />
<glyph glyph-name="cedilla" unicode="&#xb8;" horiz-adv-x="264" d="M-1 -204 C-1 -204 48 -249 130 -249 C223 -249 263 -206 263 -134 C263 -101 242 -53 170 -53 C151 -53 141 -55 141 -55 L178 0 L99 0 L47 -82 L76 -108 C76 -108 94 -102 113 -102 C139 -102 152 -113 152 -134 C152 -153 141 -166 114 -166 C73 -166 39 -138 39 -138 L-1 -204 Z " />
<glyph glyph-name="onesuperior" unicode="&#xb9;" horiz-adv-x="360" d="M279 386 L279 801 L167 801 C150 750 85 739 57 736 L57 610 C81 612 111 616 144 638 L144 386 L279 386 Z " />
<glyph glyph-name="ordmasculine" unicode="&#xba;" horiz-adv-x="397" d="M27 490 C27 355 107 319 199 319 C293 319 371 362 371 490 C371 603 301 662 199 662 C104 662 27 610 27 490 L27 490 Z M162 490 C162 556 182 564 199 564 C217 564 236 553 236 490 C236 421 216 417 199 417 C182 417 162 419 162 490 L162 490 Z " />
<glyph glyph-name="guillemotright" unicode="&#xbb;" horiz-adv-x="588" d="M270 459 L382 259 L269 53 L449 53 L564 256 L449 459 L270 459 Z M26 459 L138 259 L25 53 L205 53 L319 256 L205 459 L26 459 Z " />
<glyph glyph-name="onequarter" unicode="&#xbc;" horiz-adv-x="1027" d="M622 84 L803 84 L803 0 L940 0 L940 84 L984 84 L984 176 L940 176 L940 415 L797 415 L622 163 L622 84 Z M716 176 L803 299 L803 176 L716 176 Z M329 285 L329 700 L217 700 C200 649 135 638 107 635 L107 509 C131 511 161 515 194 537 L194 285 L329 285 Z M212 -10 L352 -10 L824 721 L683 721 L212 -10 Z " />
<glyph glyph-name="onehalf" unicode="&#xbd;" horiz-adv-x="1027" d="M638 0 L974 0 L974 117 L798 117 C912 166 967 234 967 299 C967 394 899 428 807 428 C629 428 625 268 625 263 L754 263 C754 263 755 317 797 317 C822 317 827 302 827 290 C827 242 785 213 638 102 L638 0 Z M329 285 L329 700 L217 700 C200 649 135 638 107 635 L107 509 C131 511 161 515 194 537 L194 285 L329 285 Z M212 -10 L352 -10 L824 721 L683 721 L212 -10 Z " />
<glyph glyph-name="threequarters" unicode="&#xbe;" horiz-adv-x="1027" d="M46 431 C47 302 136 274 236 274 C371 274 410 335 410 412 C410 497 316 503 308 504 C320 506 398 522 398 601 C398 653 360 712 242 712 C146 712 73 677 59 568 L182 568 C184 599 205 606 225 606 C252 606 259 590 259 575 C259 558 257 532 192 532 L165 532 L165 458 L199 458 C258 458 269 441 269 417 C269 397 261 380 225 380 C178 380 171 413 171 431 L46 431 Z M212 -10 L352 -10 L824 721 L683 721 L212 -10 Z M622 84 L803 84 L803 0 L940 0 L940 84 L984 84 L984 176 L940 176 L940 415 L797 415 L622 163 L622 84 Z M716 176 L803 299 L803 176 L716 176 Z " />
<glyph glyph-name="questiondown" unicode="&#xbf;" horiz-adv-x="509" d="M334 460 L173 460 L173 427 C173 318 23 283 23 143 C23 18 132 -18 238 -18 C471 -18 465 181 465 202 L306 202 C304 182 305 121 249 121 C221 121 199 136 199 167 C199 248 334 271 334 408 L334 460 Z M347 712 L162 712 L162 544 L347 544 L347 712 Z " />
<glyph glyph-name="Agrave" unicode="&#xc0;" horiz-adv-x="716" d="M524 0 L727 0 L439 712 L280 712 L-10 0 L177 0 L230 145 L473 145 L524 0 Z M134 934 L274 773 L427 773 L341 934 L134 934 Z M309 362 C334 431 353 492 354 495 C355 490 371 435 397 363 L425 282 L280 282 L309 362 Z " />
<glyph glyph-name="Aacute" unicode="&#xc1;" horiz-adv-x="716" d="M524 0 L727 0 L439 712 L280 712 L-10 0 L177 0 L230 145 L473 145 L524 0 Z M385 934 L298 773 L452 773 L591 934 L385 934 Z M309 362 C334 431 353 492 354 495 C355 490 371 435 397 363 L425 282 L280 282 L309 362 Z " />
<glyph glyph-name="Acircumflex" unicode="&#xc2;" horiz-adv-x="716" d="M524 0 L727 0 L439 712 L280 712 L-10 0 L177 0 L230 145 L473 145 L524 0 Z M251 933 L149 772 L317 772 L354 866 L393 772 L566 772 L464 933 L251 933 Z M309 362 C334 431 353 492 354 495 C355 490 371 435 397 363 L425 282 L280 282 L309 362 Z " />
<glyph glyph-name="Atilde" unicode="&#xc3;" horiz-adv-x="716" d="M524 0 L727 0 L439 712 L280 712 L-10 0 L177 0 L230 145 L473 145 L524 0 Z M264 775 C264 788 269 813 293 813 C331 813 372 769 446 769 C549 769 549 881 549 927 L449 927 C449 916 445 883 422 883 C383 883 343 931 273 931 C150 931 158 790 158 775 L264 775 Z M309 362 C334 431 353 492 354 495 C355 490 371 435 397 363 L425 282 L280 282 L309 362 Z " />
<glyph glyph-name="Adieresis" unicode="&#xc4;" horiz-adv-x="716" d="M524 0 L727 0 L439 712 L280 712 L-10 0 L177 0 L230 145 L473 145 L524 0 Z M392 778 L552 778 L552 926 L392 926 L392 778 Z M162 778 L321 778 L321 926 L162 926 L162 778 Z M309 362 C334 431 353 492 354 495 C355 490 371 435 397 363 L425 282 L280 282 L309 362 Z " />
<glyph glyph-name="Aring" unicode="&#xc5;" horiz-adv-x="716" d="M524 0 L727 0 L439 712 L280 712 L-10 0 L177 0 L230 145 L473 145 L524 0 Z M218 851 C218 761 289 730 357 730 C424 730 496 761 496 851 C496 942 424 973 357 973 C289 973 218 942 218 851 L218 851 Z M309 362 C334 431 353 492 354 495 C355 490 371 435 397 363 L425 282 L280 282 L309 362 Z M312 851 C312 885 335 896 357 896 C379 896 402 885 402 851 C402 819 379 806 357 806 C335 806 312 818 312 851 L312 851 Z " />
<glyph glyph-name="AE" unicode="&#xc6;" horiz-adv-x="895" d="M859 0 L859 151 L630 151 L630 293 L825 293 L825 444 L630 444 L630 561 L858 561 L858 712 L320 712 L-7 0 L199 0 L264 160 L441 160 L441 0 L859 0 Z M426 561 L441 561 L441 313 L328 313 L426 561 Z " />
<glyph glyph-name="Ccedilla" unicode="&#xc7;" horiz-adv-x="674" d="M212 -204 C212 -204 261 -249 343 -249 C436 -249 476 -206 476 -134 C476 -101 455 -53 383 -53 C364 -53 354 -55 354 -55 L379 -17 C650 1 656 245 656 265 L467 265 C465 243 457 132 351 132 C230 132 219 238 219 363 C219 518 253 579 348 579 C449 579 459 474 461 454 L650 454 C649 486 636 729 351 729 C138 729 28 591 28 350 C28 152 82 1 301 -16 L260 -82 L289 -108 C289 -108 307 -102 326 -102 C352 -102 365 -113 365 -134 C365 -153 354 -166 327 -166 C286 -166 252 -138 252 -138 L212 -204 Z " />
<glyph glyph-name="Egrave" unicode="&#xc8;" horiz-adv-x="598" d="M64 0 L563 0 L563 151 L251 151 L251 285 L527 285 L527 436 L251 436 L251 561 L556 561 L556 712 L64 712 L64 0 Z M118 934 L258 773 L411 773 L325 934 L118 934 Z " />
<glyph glyph-name="Eacute" unicode="&#xc9;" horiz-adv-x="598" d="M313 934 L226 773 L380 773 L519 934 L313 934 Z M64 0 L563 0 L563 151 L251 151 L251 285 L527 285 L527 436 L251 436 L251 561 L556 561 L556 712 L64 712 L64 0 Z " />
<glyph glyph-name="Ecircumflex" unicode="&#xca;" horiz-adv-x="598" d="M207 933 L105 772 L273 772 L310 866 L349 772 L522 772 L420 933 L207 933 Z M64 0 L563 0 L563 151 L251 151 L251 285 L527 285 L527 436 L251 436 L251 561 L556 561 L556 712 L64 712 L64 0 Z " />
<glyph glyph-name="Edieresis" unicode="&#xcb;" horiz-adv-x="598" d="M117 778 L276 778 L276 926 L117 926 L117 778 Z M347 778 L507 778 L507 926 L347 926 L347 778 Z M64 0 L563 0 L563 151 L251 151 L251 285 L527 285 L527 436 L251 436 L251 561 L556 561 L556 712 L64 712 L64 0 Z " />
<glyph glyph-name="Igrave" unicode="&#xcc;" horiz-adv-x="315" d="M64 0 L251 0 L251 712 L64 712 L64 0 Z M-45 934 L95 773 L248 773 L162 934 L-45 934 Z " />
<glyph glyph-name="Iacute" unicode="&#xcd;" horiz-adv-x="315" d="M64 0 L251 0 L251 712 L64 712 L64 0 Z M165 934 L78 773 L232 773 L371 934 L165 934 Z " />
<glyph glyph-name="Icircumflex" unicode="&#xce;" horiz-adv-x="315" d="M64 0 L251 0 L251 712 L64 712 L64 0 Z M52 933 L-50 772 L118 772 L155 866 L194 772 L367 772 L265 933 L52 933 Z " />
<glyph glyph-name="Idieresis" unicode="&#xcf;" horiz-adv-x="315" d="M64 0 L251 0 L251 712 L64 712 L64 0 Z M-36 778 L123 778 L123 926 L-36 926 L-36 778 Z M194 778 L354 778 L354 926 L194 926 L194 778 Z " />
<glyph glyph-name="Eth" unicode="&#xd0;" horiz-adv-x="713" d="M-2 294 L75 294 L75 0 L296 0 C629 0 685 188 685 375 C685 551 607 712 282 712 L75 712 L75 433 L-2 433 L-2 294 Z M262 150 L262 294 L381 294 L381 433 L262 433 L262 562 L302 562 C489 562 494 424 494 376 C494 263 474 150 298 150 L262 150 Z " />
<glyph glyph-name="Ntilde" unicode="&#xd1;" horiz-adv-x="726" d="M64 0 L240 0 L240 311 C240 389 236 449 236 450 C239 443 268 373 303 307 L463 0 L662 0 L662 712 L486 712 L486 475 C486 364 491 266 491 266 C491 266 449 355 409 435 L268 712 L64 712 L64 0 Z M269 775 C269 788 274 813 298 813 C336 813 377 769 451 769 C554 769 554 881 554 927 L454 927 C454 916 450 883 427 883 C388 883 348 931 278 931 C155 931 163 790 163 775 L269 775 Z " />
<glyph glyph-name="Ograve" unicode="&#xd2;" horiz-adv-x="735" d="M28 356 C28 75 181 -18 367 -18 C554 -18 707 91 707 356 C707 611 564 729 367 729 C181 729 28 611 28 356 L28 356 Z M220 356 C220 536 289 578 367 578 C446 578 515 536 515 356 C515 170 445 133 367 133 C287 133 220 170 220 356 L220 356 Z M161 934 L301 773 L454 773 L368 934 L161 934 Z " />
<glyph glyph-name="Oacute" unicode="&#xd3;" horiz-adv-x="735" d="M371 934 L284 773 L438 773 L577 934 L371 934 Z M28 356 C28 75 181 -18 367 -18 C554 -18 707 91 707 356 C707 611 564 729 367 729 C181 729 28 611 28 356 L28 356 Z M220 356 C220 536 289 578 367 578 C446 578 515 536 515 356 C515 170 445 133 367 133 C287 133 220 170 220 356 L220 356 Z " />
<glyph glyph-name="Ocircumflex" unicode="&#xd4;" horiz-adv-x="735" d="M260 933 L158 772 L326 772 L363 866 L402 772 L575 772 L473 933 L260 933 Z M28 356 C28 75 181 -18 367 -18 C554 -18 707 91 707 356 C707 611 564 729 367 729 C181 729 28 611 28 356 L28 356 Z M220 356 C220 536 289 578 367 578 C446 578 515 536 515 356 C515 170 445 133 367 133 C287 133 220 170 220 356 L220 356 Z " />
<glyph glyph-name="Otilde" unicode="&#xd5;" horiz-adv-x="735" d="M28 356 C28 75 181 -18 367 -18 C554 -18 707 91 707 356 C707 611 564 729 367 729 C181 729 28 611 28 356 L28 356 Z M220 356 C220 536 289 578 367 578 C446 578 515 536 515 356 C515 170 445 133 367 133 C287 133 220 170 220 356 L220 356 Z M273 775 C273 788 278 813 302 813 C340 813 381 769 455 769 C558 769 558 881 558 927 L458 927 C458 916 454 883 431 883 C392 883 352 931 282 931 C159 931 167 790 167 775 L273 775 Z " />
<glyph glyph-name="Odieresis" unicode="&#xd6;" horiz-adv-x="735" d="M172 778 L331 778 L331 926 L172 926 L172 778 Z M402 778 L562 778 L562 926 L402 926 L402 778 Z M28 356 C28 75 181 -18 367 -18 C554 -18 707 91 707 356 C707 611 564 729 367 729 C181 729 28 611 28 356 L28 356 Z M220 356 C220 536 289 578 367 578 C446 578 515 536 515 356 C515 170 445 133 367 133 C287 133 220 170 220 356 L220 356 Z " />
<glyph glyph-name="multiply" unicode="&#xd7;" horiz-adv-x="643" d="M184 40 L319 175 L455 41 L552 139 L417 273 L553 409 L459 504 L323 368 L188 503 L90 406 L225 270 L89 134 L184 40 Z " />
<glyph glyph-name="Oslash" unicode="&#xd8;" horiz-adv-x="735" d="M28 356 C28 236 55 151 101 92 L4 -47 L153 -47 L197 16 C247 -8 305 -18 367 -18 C554 -18 707 91 707 356 C707 474 676 563 623 624 L714 753 L565 753 L526 697 C479 719 425 729 367 729 C181 729 28 611 28 356 L28 356 Z M515 356 C515 170 445 133 367 133 C339 133 313 137 291 150 L505 455 C511 428 515 395 515 356 L515 356 Z M220 356 C220 536 289 578 367 578 C390 578 412 574 432 564 L226 270 C222 294 220 323 220 356 L220 356 Z " />
<glyph glyph-name="Ugrave" unicode="&#xd9;" horiz-adv-x="724" d="M63 256 C63 65 170 -18 362 -18 C547 -18 661 65 661 256 L661 712 L474 712 L474 257 C474 155 413 133 362 133 C310 133 251 152 251 255 L251 712 L63 712 L63 256 Z M169 934 L309 773 L462 773 L376 934 L169 934 Z " />
<glyph glyph-name="Uacute" unicode="&#xda;" horiz-adv-x="724" d="M355 934 L268 773 L422 773 L561 934 L355 934 Z M63 256 C63 65 170 -18 362 -18 C547 -18 661 65 661 256 L661 712 L474 712 L474 257 C474 155 413 133 362 133 C310 133 251 152 251 255 L251 712 L63 712 L63 256 Z " />
<glyph glyph-name="Ucircumflex" unicode="&#xdb;" horiz-adv-x="724" d="M255 933 L153 772 L321 772 L358 866 L397 772 L570 772 L468 933 L255 933 Z M63 256 C63 65 170 -18 362 -18 C547 -18 661 65 661 256 L661 712 L474 712 L474 257 C474 155 413 133 362 133 C310 133 251 152 251 255 L251 712 L63 712 L63 256 Z " />
<glyph glyph-name="Udieresis" unicode="&#xdc;" horiz-adv-x="724" d="M167 778 L326 778 L326 926 L167 926 L167 778 Z M397 778 L557 778 L557 926 L397 926 L397 778 Z M63 256 C63 65 170 -18 362 -18 C547 -18 661 65 661 256 L661 712 L474 712 L474 257 C474 155 413 133 362 133 C310 133 251 152 251 255 L251 712 L63 712 L63 256 Z " />
<glyph glyph-name="Yacute" unicode="&#xdd;" horiz-adv-x="665" d="M238 0 L424 0 L424 291 L669 712 L462 712 L414 615 C380 546 336 452 336 452 C336 452 289 547 257 614 L210 712 L-4 712 L238 294 L238 0 Z M334 934 L247 773 L401 773 L540 934 L334 934 Z " />
<glyph glyph-name="Thorn" unicode="&#xde;" horiz-adv-x="618" d="M64 0 L251 0 L251 135 L326 135 C487 135 602 209 602 378 C602 555 460 601 306 601 L251 601 L251 712 L64 712 L64 0 Z M251 287 L251 448 L305 448 C371 448 413 438 413 375 C413 296 363 287 310 287 L251 287 Z " />
<glyph glyph-name="germandbls" unicode="&#xdf;" horiz-adv-x="593" d="M238 531 C238 580 258 594 295 594 C342 594 353 562 353 518 C353 488 347 455 311 455 L309 455 L309 314 L313 314 C379 314 400 278 400 221 C400 141 372 131 326 131 L301 131 L301 0 C301 0 335 -5 374 -5 C459 -5 576 16 576 217 C576 378 454 397 427 397 C462 407 529 438 529 556 C529 679 427 731 297 731 C155 731 62 673 62 546 L62 520 L5 520 L5 393 L62 393 L62 0 L238 0 L238 531 Z " />
<glyph glyph-name="agrave" unicode="&#xe0;" horiz-adv-x="563" d="M322 324 C322 324 275 326 253 326 C93 326 27 270 27 152 C27 41 92 -11 208 -11 C314 -11 361 49 377 66 L378 61 C380 49 392 -9 471 -9 C506 -9 546 0 546 0 L546 121 L532 121 C498 121 487 123 487 162 L487 363 C487 475 425 539 285 539 C57 539 55 364 55 364 L212 364 C216 385 217 417 273 417 C310 417 322 391 322 356 L322 324 Z M318 217 C318 139 294 108 245 108 C199 108 190 137 190 163 C190 195 200 229 265 229 C297 229 318 225 318 225 L318 217 Z M87 737 L221 584 L368 584 L285 737 L87 737 Z " />
<glyph glyph-name="aacute" unicode="&#xe1;" horiz-adv-x="563" d="M322 324 C322 324 275 326 253 326 C93 326 27 270 27 152 C27 41 92 -11 208 -11 C314 -11 361 49 377 66 L378 61 C380 49 392 -9 471 -9 C506 -9 546 0 546 0 L546 121 L532 121 C498 121 487 123 487 162 L487 363 C487 475 425 539 285 539 C57 539 55 364 55 364 L212 364 C216 385 217 417 273 417 C310 417 322 391 322 356 L322 324 Z M318 217 C318 139 294 108 245 108 C199 108 190 137 190 163 C190 195 200 229 265 229 C297 229 318 225 318 225 L318 217 Z M296 737 L212 584 L360 584 L493 737 L296 737 Z " />
<glyph glyph-name="acircumflex" unicode="&#xe2;" horiz-adv-x="563" d="M322 324 C322 324 275 326 253 326 C93 326 27 270 27 152 C27 41 92 -11 208 -11 C314 -11 361 49 377 66 L378 61 C380 49 392 -9 471 -9 C506 -9 546 0 546 0 L546 121 L532 121 C498 121 487 123 487 162 L487 363 C487 475 425 539 285 539 C57 539 55 364 55 364 L212 364 C216 385 217 417 273 417 C310 417 322 391 322 356 L322 324 Z M318 217 C318 139 294 108 245 108 C199 108 190 137 190 163 C190 195 200 229 265 229 C297 229 318 225 318 225 L318 217 Z M179 737 L82 584 L243 584 L278 672 L314 584 L480 584 L383 737 L179 737 Z " />
<glyph glyph-name="atilde" unicode="&#xe3;" horiz-adv-x="563" d="M322 324 C322 324 275 326 253 326 C93 326 27 270 27 152 C27 41 92 -11 208 -11 C314 -11 361 49 377 66 L378 61 C380 49 392 -9 471 -9 C506 -9 546 0 546 0 L546 121 L532 121 C498 121 487 123 487 162 L487 363 C487 475 425 539 285 539 C57 539 55 364 55 364 L212 364 C216 385 217 417 273 417 C310 417 322 391 322 356 L322 324 Z M318 217 C318 139 294 108 245 108 C199 108 190 137 190 163 C190 195 200 229 265 229 C297 229 318 225 318 225 L318 217 Z M191 588 C191 600 196 624 219 624 C255 624 294 582 364 582 C462 582 462 688 462 732 L367 732 C367 722 363 690 342 690 C304 690 266 736 200 736 C83 736 91 602 91 588 L191 588 Z " />
<glyph glyph-name="adieresis" unicode="&#xe4;" horiz-adv-x="563" d="M322 324 C322 324 275 326 253 326 C93 326 27 270 27 152 C27 41 92 -11 208 -11 C314 -11 361 49 377 66 L378 61 C380 49 392 -9 471 -9 C506 -9 546 0 546 0 L546 121 L532 121 C498 121 487 123 487 162 L487 363 C487 475 425 539 285 539 C57 539 55 364 55 364 L212 364 C216 385 217 417 273 417 C310 417 322 391 322 356 L322 324 Z M318 217 C318 139 294 108 245 108 C199 108 190 137 190 163 C190 195 200 229 265 229 C297 229 318 225 318 225 L318 217 Z M87 578 L239 578 L239 719 L87 719 L87 578 Z M305 578 L457 578 L457 719 L305 719 L305 578 Z " />
<glyph glyph-name="aring" unicode="&#xe5;" horiz-adv-x="563" d="M322 324 C322 324 275 326 253 326 C93 326 27 270 27 152 C27 41 92 -11 208 -11 C314 -11 361 49 377 66 L378 61 C380 49 392 -9 471 -9 C506 -9 546 0 546 0 L546 121 L532 121 C498 121 487 123 487 162 L487 363 C487 475 425 539 285 539 C57 539 55 364 55 364 L212 364 C216 385 217 417 273 417 C310 417 322 391 322 356 L322 324 Z M318 217 C318 139 294 108 245 108 C199 108 190 137 190 163 C190 195 200 229 265 229 C297 229 318 225 318 225 L318 217 Z M149 679 C149 594 216 564 281 564 C345 564 413 594 413 679 C413 765 345 795 281 795 C216 795 149 765 149 679 L149 679 Z M238 679 C238 711 260 722 281 722 C302 722 324 711 324 679 C324 649 302 636 281 636 C260 636 238 648 238 679 L238 679 Z " />
<glyph glyph-name="ae" unicode="&#xe6;" horiz-adv-x="860" d="M832 210 C833 224 833 244 833 257 C833 418 768 539 597 539 C482 539 433 469 433 469 C433 469 393 539 275 539 C68 539 56 358 56 358 L213 358 C213 358 214 412 273 412 C316 412 326 391 326 351 L326 319 C326 319 283 321 260 321 C84 321 27 255 27 147 C27 57 71 -18 216 -18 C358 -18 410 77 410 77 C410 77 455 -18 606 -18 C822 -18 827 166 827 166 L674 166 C674 166 671 107 603 107 C516 107 515 178 515 210 L832 210 Z M516 316 C519 370 534 412 592 412 C662 412 665 352 665 316 L516 316 Z M322 211 C322 138 306 103 249 103 C197 103 190 139 190 157 C190 182 193 221 266 222 C294 222 322 219 322 219 L322 211 Z " />
<glyph glyph-name="ccedilla" unicode="&#xe7;" horiz-adv-x="523" d="M135 -204 C135 -204 184 -249 266 -249 C359 -249 399 -206 399 -134 C399 -101 378 -53 306 -53 C287 -53 277 -55 277 -55 L302 -17 C511 -1 506 192 506 209 L345 209 C345 195 349 114 277 114 C208 114 201 182 201 262 C201 344 217 405 275 405 C333 405 339 351 340 323 L500 323 C500 334 500 539 273 539 C92 539 26 403 26 262 C26 75 106 0 225 -15 L183 -82 L212 -108 C212 -108 230 -102 249 -102 C275 -102 288 -113 288 -134 C288 -153 277 -166 250 -166 C209 -166 175 -138 175 -138 L135 -204 Z " />
<glyph glyph-name="egrave" unicode="&#xe8;" horiz-adv-x="547" d="M516 210 C536 377 477 539 283 539 C113 539 26 429 26 263 C26 55 127 -18 286 -18 C504 -18 514 155 514 165 L360 165 C359 157 349 116 285 116 C204 116 202 185 202 210 L516 210 Z M203 315 C205 365 218 411 277 411 C340 411 349 361 351 315 L203 315 Z M90 737 L224 584 L371 584 L288 737 L90 737 Z " />
<glyph glyph-name="eacute" unicode="&#xe9;" horiz-adv-x="547" d="M266 737 L182 584 L330 584 L463 737 L266 737 Z M516 210 C536 377 477 539 283 539 C113 539 26 429 26 263 C26 55 127 -18 286 -18 C504 -18 514 155 514 165 L360 165 C359 157 349 116 285 116 C204 116 202 185 202 210 L516 210 Z M203 315 C205 365 218 411 277 411 C340 411 349 361 351 315 L203 315 Z " />
<glyph glyph-name="ecircumflex" unicode="&#xea;" horiz-adv-x="547" d="M175 737 L78 584 L239 584 L274 672 L310 584 L476 584 L379 737 L175 737 Z M516 210 C536 377 477 539 283 539 C113 539 26 429 26 263 C26 55 127 -18 286 -18 C504 -18 514 155 514 165 L360 165 C359 157 349 116 285 116 C204 116 202 185 202 210 L516 210 Z M203 315 C205 365 218 411 277 411 C340 411 349 361 351 315 L203 315 Z " />
<glyph glyph-name="edieresis" unicode="&#xeb;" horiz-adv-x="547" d="M91 578 L243 578 L243 719 L91 719 L91 578 Z M309 578 L461 578 L461 719 L309 719 L309 578 Z M516 210 C536 377 477 539 283 539 C113 539 26 429 26 263 C26 55 127 -18 286 -18 C504 -18 514 155 514 165 L360 165 C359 157 349 116 285 116 C204 116 202 185 202 210 L516 210 Z M203 315 C205 365 218 411 277 411 C340 411 349 361 351 315 L203 315 Z " />
<glyph glyph-name="igrave" unicode="&#xec;" horiz-adv-x="285" d="M54 0 L231 0 L231 520 L54 520 L54 0 Z M-66 737 L68 584 L215 584 L132 737 L-66 737 Z " />
<glyph glyph-name="iacute" unicode="&#xed;" horiz-adv-x="285" d="M154 737 L70 584 L218 584 L351 737 L154 737 Z M54 0 L231 0 L231 520 L54 520 L54 0 Z " />
<glyph glyph-name="icircumflex" unicode="&#xee;" horiz-adv-x="285" d="M42 737 L-55 584 L106 584 L141 672 L177 584 L343 584 L246 737 L42 737 Z M54 0 L231 0 L231 520 L54 520 L54 0 Z " />
<glyph glyph-name="idieresis" unicode="&#xef;" horiz-adv-x="285" d="M-41 578 L111 578 L111 719 L-41 719 L-41 578 Z M177 578 L329 578 L329 719 L177 719 L177 578 Z M54 0 L231 0 L231 520 L54 520 L54 0 Z " />
<glyph glyph-name="eth" unicode="&#xf0;" horiz-adv-x="566" d="M134 564 L237 564 L238 562 C253 535 276 509 277 507 C275 508 269 510 259 510 C138 514 27 422 27 248 C27 39 144 -18 283 -18 C423 -18 539 48 539 248 C539 323 531 368 491 442 L423 564 L456 564 L456 633 L385 633 L342 712 L147 712 L195 633 L134 633 L134 564 Z M202 248 C202 365 240 388 283 388 C326 388 362 365 362 248 C362 126 325 110 283 110 C241 110 202 125 202 248 L202 248 Z " />
<glyph glyph-name="ntilde" unicode="&#xf1;" horiz-adv-x="577" d="M54 0 L231 0 L231 303 C231 369 260 393 294 393 C339 393 348 362 348 303 L348 0 L525 0 L525 333 C525 489 463 533 372 533 C275 533 227 451 227 451 L224 520 L54 520 L54 0 Z M195 588 C195 600 200 624 223 624 C259 624 298 582 368 582 C466 582 466 688 466 732 L371 732 C371 722 367 690 346 690 C308 690 270 736 204 736 C87 736 95 602 95 588 L195 588 Z " />
<glyph glyph-name="ograve" unicode="&#xf2;" horiz-adv-x="563" d="M26 260 C26 45 142 -18 282 -18 C423 -18 538 53 538 260 C538 449 430 539 282 539 C140 539 26 452 26 260 L26 260 Z M202 260 C202 379 239 405 282 405 C324 405 361 378 361 260 C361 134 323 116 282 116 C240 116 202 134 202 260 L202 260 Z M71 737 L205 584 L352 584 L269 737 L71 737 Z " />
<glyph glyph-name="oacute" unicode="&#xf3;" horiz-adv-x="563" d="M284 737 L200 584 L348 584 L481 737 L284 737 Z M26 260 C26 45 142 -18 282 -18 C423 -18 538 53 538 260 C538 449 430 539 282 539 C140 539 26 452 26 260 L26 260 Z M202 260 C202 379 239 405 282 405 C324 405 361 378 361 260 C361 134 323 116 282 116 C240 116 202 134 202 260 L202 260 Z " />
<glyph glyph-name="ocircumflex" unicode="&#xf4;" horiz-adv-x="563" d="M179 737 L82 584 L243 584 L278 672 L314 584 L480 584 L383 737 L179 737 Z M26 260 C26 45 142 -18 282 -18 C423 -18 538 53 538 260 C538 449 430 539 282 539 C140 539 26 452 26 260 L26 260 Z M202 260 C202 379 239 405 282 405 C324 405 361 378 361 260 C361 134 323 116 282 116 C240 116 202 134 202 260 L202 260 Z " />
<glyph glyph-name="otilde" unicode="&#xf5;" horiz-adv-x="563" d="M26 260 C26 45 142 -18 282 -18 C423 -18 538 53 538 260 C538 449 430 539 282 539 C140 539 26 452 26 260 L26 260 Z M202 260 C202 379 239 405 282 405 C324 405 361 378 361 260 C361 134 323 116 282 116 C240 116 202 134 202 260 L202 260 Z M191 588 C191 600 196 624 219 624 C255 624 294 582 364 582 C462 582 462 688 462 732 L367 732 C367 722 363 690 342 690 C304 690 266 736 200 736 C83 736 91 602 91 588 L191 588 Z " />
<glyph glyph-name="odieresis" unicode="&#xf6;" horiz-adv-x="563" d="M96 578 L248 578 L248 719 L96 719 L96 578 Z M314 578 L466 578 L466 719 L314 719 L314 578 Z M26 260 C26 45 142 -18 282 -18 C423 -18 538 53 538 260 C538 449 430 539 282 539 C140 539 26 452 26 260 L26 260 Z M202 260 C202 379 239 405 282 405 C324 405 361 378 361 260 C361 134 323 116 282 116 C240 116 202 134 202 260 L202 260 Z " />
<glyph glyph-name="divide" unicode="&#xf7;" horiz-adv-x="643" d="M248 -20 L414 -20 L414 142 L248 142 L248 -20 Z M249 399 L412 399 L412 559 L249 559 L249 399 Z M83 201 L559 201 L559 342 L83 342 L83 201 Z " />
<glyph glyph-name="oslash" unicode="&#xf8;" horiz-adv-x="563" d="M26 260 C26 157 52 89 95 46 L18 -68 L91 -68 L144 11 C184 -9 231 -18 282 -18 C423 -18 538 53 538 260 C538 358 508 430 459 476 L533 584 L460 584 L410 510 C373 529 329 539 282 539 C140 539 26 452 26 260 L26 260 Z M361 260 C361 134 323 116 282 116 C262 116 244 120 229 136 L356 323 C359 306 361 285 361 260 L361 260 Z M202 260 C202 379 239 405 282 405 C298 405 314 401 327 388 L205 207 C203 222 202 239 202 260 L202 260 Z " />
<glyph glyph-name="ugrave" unicode="&#xf9;" horiz-adv-x="572" d="M518 520 L343 520 L343 219 C343 154 315 132 281 132 C243 132 229 159 229 219 L229 520 L52 520 L52 169 C52 15 126 -10 207 -10 C295 -10 344 66 344 66 L347 0 L518 0 L518 520 Z M94 737 L228 584 L375 584 L292 737 L94 737 Z " />
<glyph glyph-name="uacute" unicode="&#xfa;" horiz-adv-x="572" d="M279 737 L195 584 L343 584 L476 737 L279 737 Z M518 520 L343 520 L343 219 C343 154 315 132 281 132 C243 132 229 159 229 219 L229 520 L52 520 L52 169 C52 15 126 -10 207 -10 C295 -10 344 66 344 66 L347 0 L518 0 L518 520 Z " />
<glyph glyph-name="ucircumflex" unicode="&#xfb;" horiz-adv-x="572" d="M183 737 L86 584 L247 584 L282 672 L318 584 L484 584 L387 737 L183 737 Z M518 520 L343 520 L343 219 C343 154 315 132 281 132 C243 132 229 159 229 219 L229 520 L52 520 L52 169 C52 15 126 -10 207 -10 C295 -10 344 66 344 66 L347 0 L518 0 L518 520 Z " />
<glyph glyph-name="udieresis" unicode="&#xfc;" horiz-adv-x="572" d="M98 578 L250 578 L250 719 L98 719 L98 578 Z M316 578 L468 578 L468 719 L316 719 L316 578 Z M518 520 L343 520 L343 219 C343 154 315 132 281 132 C243 132 229 159 229 219 L229 520 L52 520 L52 169 C52 15 126 -10 207 -10 C295 -10 344 66 344 66 L347 0 L518 0 L518 520 Z " />
<glyph glyph-name="yacute" unicode="&#xfd;" horiz-adv-x="536" d="M183 40 C162 -30 138 -55 85 -55 C69 -55 60 -54 60 -54 L60 -181 C60 -181 101 -191 144 -191 C249 -191 289 -117 322 -35 L547 520 L365 520 L299 312 C284 265 275 210 275 210 C275 210 263 270 251 309 L187 520 L2 520 L184 51 L183 40 Z M265 737 L181 584 L329 584 L462 737 L265 737 Z " />
<glyph glyph-name="thorn" unicode="&#xfe;" horiz-adv-x="592" d="M54 -179 L228 -179 L228 52 C228 52 265 -13 365 -13 C519 -13 567 107 567 262 C567 420 523 535 382 535 C281 535 231 461 231 461 L231 712 L54 712 L54 -179 Z M230 258 C230 334 245 398 315 398 C359 398 390 366 390 258 C390 174 374 116 315 116 C238 116 230 195 230 258 L230 258 Z " />
<glyph glyph-name="ydieresis" unicode="&#xff;" horiz-adv-x="536" d="M183 40 C162 -30 138 -55 85 -55 C69 -55 60 -54 60 -54 L60 -181 C60 -181 101 -191 144 -191 C249 -191 289 -117 322 -35 L547 520 L365 520 L299 312 C285 267 276 216 275 211 C273 219 262 273 251 309 L187 520 L2 520 L184 51 L183 40 Z M297 578 L449 578 L449 719 L297 719 L297 578 Z M79 578 L231 578 L231 719 L79 719 L79 578 Z " />
<glyph glyph-name="Amacron" unicode="&#x100;" horiz-adv-x="716" d="M524 0 L727 0 L439 712 L280 712 L-10 0 L177 0 L230 145 L473 145 L524 0 Z M198 793 L518 793 L518 911 L198 911 L198 793 Z M309 362 C334 431 353 492 354 495 C355 490 371 435 397 363 L425 282 L280 282 L309 362 Z " />
<glyph glyph-name="amacron" unicode="&#x101;" horiz-adv-x="563" d="M322 324 C322 324 275 326 253 326 C93 326 27 270 27 152 C27 41 92 -11 208 -11 C314 -11 361 49 377 66 L378 61 C380 49 392 -9 471 -9 C506 -9 546 0 546 0 L546 121 L532 121 C498 121 487 123 487 162 L487 363 C487 475 425 539 285 539 C57 539 55 364 55 364 L212 364 C216 385 217 417 273 417 C310 417 322 391 322 356 L322 324 Z M318 217 C318 139 294 108 245 108 C199 108 190 137 190 163 C190 195 200 229 265 229 C297 229 318 225 318 225 L318 217 Z M128 604 L432 604 L432 717 L128 717 L128 604 Z " />
<glyph glyph-name="Abreve" unicode="&#x102;" horiz-adv-x="716" d="M524 0 L727 0 L439 712 L280 712 L-10 0 L177 0 L230 145 L473 145 L524 0 Z M168 934 C168 882 177 769 360 769 C539 769 546 881 546 934 L398 934 C398 891 394 861 359 861 C323 861 318 892 318 934 L168 934 Z M309 362 C334 431 353 492 354 495 C355 490 371 435 397 363 L425 282 L280 282 L309 362 Z " />
<glyph glyph-name="abreve" unicode="&#x103;" horiz-adv-x="563" d="M322 324 C322 324 275 326 253 326 C93 326 27 270 27 152 C27 41 92 -11 208 -11 C314 -11 361 49 377 66 L378 61 C380 49 392 -9 471 -9 C506 -9 546 0 546 0 L546 121 L532 121 C498 121 487 123 487 162 L487 363 C487 475 425 539 285 539 C57 539 55 364 55 364 L212 364 C216 385 217 417 273 417 C310 417 322 391 322 356 L322 324 Z M318 217 C318 139 294 108 245 108 C199 108 190 137 190 163 C190 195 200 229 265 229 C297 229 318 225 318 225 L318 217 Z M100 738 C100 688 109 581 283 581 C453 581 460 688 460 738 L319 738 C319 697 315 669 282 669 C248 669 243 698 243 738 L100 738 Z " />
<glyph glyph-name="Aogonek" unicode="&#x104;" horiz-adv-x="716" d="M748 -128 C748 -128 729 -131 712 -131 C692 -131 654 -130 654 -89 C654 -71 666 -39 722 0 L727 0 L439 712 L280 712 L-10 0 L177 0 L230 145 L473 145 L524 0 L637 0 C583 -29 522 -70 522 -132 C522 -203 581 -228 640 -228 C703 -228 748 -208 748 -208 L748 -128 Z M309 362 C334 431 353 492 354 495 C355 490 371 435 397 363 L425 282 L280 282 L309 362 Z " />
<glyph glyph-name="aogonek" unicode="&#x105;" horiz-adv-x="563" d="M567 -128 C567 -128 548 -131 531 -131 C511 -131 473 -130 473 -89 C473 -71 485 -40 539 -1 C542 -1 546 0 546 0 L546 121 L532 121 C498 121 487 123 487 162 L487 363 C487 475 425 539 285 539 C57 539 55 364 55 364 L212 364 C216 385 217 417 273 417 C310 417 322 391 322 356 L322 324 C322 324 275 326 253 326 C93 326 27 270 27 152 C27 41 92 -11 208 -11 C314 -11 361 49 377 66 L378 61 C379 50 389 5 444 -6 C393 -35 341 -74 341 -132 C341 -203 400 -228 459 -228 C522 -228 567 -208 567 -208 L567 -128 Z M318 217 C318 139 294 108 245 108 C199 108 190 137 190 163 C190 195 200 229 265 229 C297 229 318 225 318 225 L318 217 Z " />
<glyph glyph-name="Cacute" unicode="&#x106;" horiz-adv-x="674" d="M346 934 L259 773 L413 773 L552 934 L346 934 Z M467 265 C465 243 457 132 351 132 C230 132 219 238 219 363 C219 518 253 579 348 579 C449 579 459 474 461 454 L650 454 C649 486 636 729 351 729 C138 729 28 591 28 350 C28 139 90 -18 347 -18 C650 -18 656 244 656 265 L467 265 Z " />
<glyph glyph-name="cacute" unicode="&#x107;" horiz-adv-x="523" d="M266 737 L182 584 L330 584 L463 737 L266 737 Z M345 209 C345 195 349 114 277 114 C208 114 201 182 201 262 C201 344 217 405 275 405 C333 405 339 351 340 323 L500 323 C500 334 500 539 273 539 C92 539 26 403 26 262 C26 51 128 -18 274 -18 C512 -18 506 192 506 209 L345 209 Z " />
<glyph glyph-name="Ccircumflex" unicode="&#x108;" horiz-adv-x="674" d="M235 933 L133 772 L301 772 L338 866 L377 772 L550 772 L448 933 L235 933 Z M467 265 C465 243 457 132 351 132 C230 132 219 238 219 363 C219 518 253 579 348 579 C449 579 459 474 461 454 L650 454 C649 486 636 729 351 729 C138 729 28 591 28 350 C28 139 90 -18 347 -18 C650 -18 656 244 656 265 L467 265 Z " />
<glyph glyph-name="ccircumflex" unicode="&#x109;" horiz-adv-x="523" d="M165 737 L68 584 L229 584 L264 672 L300 584 L466 584 L369 737 L165 737 Z M345 209 C345 195 349 114 277 114 C208 114 201 182 201 262 C201 344 217 405 275 405 C333 405 339 351 340 323 L500 323 C500 334 500 539 273 539 C92 539 26 403 26 262 C26 51 128 -18 274 -18 C512 -18 506 192 506 209 L345 209 Z " />
<glyph glyph-name="Cdotaccent" unicode="&#x10a;" horiz-adv-x="674" d="M467 265 C465 243 457 132 351 132 C230 132 219 238 219 363 C219 518 253 579 348 579 C449 579 459 474 461 454 L650 454 C649 486 636 729 351 729 C138 729 28 591 28 350 C28 139 90 -18 347 -18 C650 -18 656 244 656 265 L467 265 Z M251 786 L417 786 L417 935 L251 935 L251 786 Z " />
<glyph glyph-name="cdotaccent" unicode="&#x10b;" horiz-adv-x="523" d="M345 209 C345 195 349 114 277 114 C208 114 201 182 201 262 C201 344 217 405 275 405 C333 405 339 351 340 323 L500 323 C500 334 500 539 273 539 C92 539 26 403 26 262 C26 51 128 -18 274 -18 C512 -18 506 192 506 209 L345 209 Z M179 597 L338 597 L338 738 L179 738 L179 597 Z " />
<glyph glyph-name="Ccaron" unicode="&#x10c;" horiz-adv-x="674" d="M450 771 L552 932 L385 932 L348 837 L309 932 L135 932 L237 771 L450 771 Z M467 265 C465 243 457 132 351 132 C230 132 219 238 219 363 C219 518 253 579 348 579 C449 579 459 474 461 454 L650 454 C649 486 636 729 351 729 C138 729 28 591 28 350 C28 139 90 -18 347 -18 C650 -18 656 244 656 265 L467 265 Z " />
<glyph glyph-name="ccaron" unicode="&#x10d;" horiz-adv-x="523" d="M359 584 L456 737 L297 737 L262 649 L226 737 L58 737 L155 584 L359 584 Z M345 209 C345 195 349 114 277 114 C208 114 201 182 201 262 C201 344 217 405 275 405 C333 405 339 351 340 323 L500 323 C500 334 500 539 273 539 C92 539 26 403 26 262 C26 51 128 -18 274 -18 C512 -18 506 192 506 209 L345 209 Z " />
<glyph glyph-name="Dcaron" unicode="&#x10e;" horiz-adv-x="702" d="M409 771 L511 932 L344 932 L307 837 L268 932 L94 932 L196 771 L409 771 Z M64 0 L285 0 C618 0 674 188 674 375 C674 551 596 712 271 712 L64 712 L64 0 Z M251 150 L251 562 L291 562 C478 562 483 424 483 376 C483 263 463 150 287 150 L251 150 Z " />
<glyph glyph-name="dcaron" unicode="&#x10f;" horiz-adv-x="757" d="M586 577 L656 577 C656 572 655 539 589 528 L589 434 C741 453 752 545 752 621 L752 712 L586 712 L586 577 Z M538 712 L362 712 L362 470 C362 470 331 539 227 539 C85 539 26 407 26 260 C26 112 69 -11 216 -11 C318 -11 363 58 363 58 L366 0 L538 0 L538 712 Z M363 260 C363 198 356 117 282 117 C223 117 202 166 202 259 C202 372 242 402 285 402 C352 402 363 336 363 260 L363 260 Z " />
<glyph glyph-name="Dcroat" unicode="&#x110;" horiz-adv-x="713" d="M-2 294 L75 294 L75 0 L296 0 C629 0 685 188 685 375 C685 551 607 712 282 712 L75 712 L75 433 L-2 433 L-2 294 Z M262 150 L262 294 L381 294 L381 433 L262 433 L262 562 L302 562 C489 562 494 424 494 376 C494 263 474 150 298 150 L262 150 Z " />
<glyph glyph-name="dcroat" unicode="&#x111;" horiz-adv-x="592" d="M538 712 L362 712 L362 657 L164 657 L164 575 L362 575 L362 470 C362 470 331 539 227 539 C85 539 26 407 26 260 C26 112 69 -11 216 -11 C318 -11 363 58 363 58 L366 0 L538 0 L538 575 L608 575 L608 657 L538 657 L538 712 Z M363 260 C363 198 356 117 282 117 C223 117 202 166 202 259 C202 372 242 402 285 402 C352 402 363 336 363 260 L363 260 Z " />
<glyph glyph-name="Emacron" unicode="&#x112;" horiz-adv-x="598" d="M64 0 L563 0 L563 151 L251 151 L251 285 L527 285 L527 436 L251 436 L251 561 L556 561 L556 712 L64 712 L64 0 Z M146 793 L466 793 L466 911 L146 911 L146 793 Z " />
<glyph glyph-name="emacron" unicode="&#x113;" horiz-adv-x="547" d="M516 210 C536 377 477 539 283 539 C113 539 26 429 26 263 C26 55 127 -18 286 -18 C504 -18 514 155 514 165 L360 165 C359 157 349 116 285 116 C204 116 202 185 202 210 L516 210 Z M203 315 C205 365 218 411 277 411 C340 411 349 361 351 315 L203 315 Z M118 604 L422 604 L422 717 L118 717 L118 604 Z " />
<glyph glyph-name="Ebreve" unicode="&#x114;" horiz-adv-x="598" d="M64 0 L563 0 L563 151 L251 151 L251 285 L527 285 L527 436 L251 436 L251 561 L556 561 L556 712 L64 712 L64 0 Z M116 934 C116 882 125 769 308 769 C487 769 494 881 494 934 L346 934 C346 891 342 861 307 861 C271 861 266 892 266 934 L116 934 Z " />
<glyph glyph-name="ebreve" unicode="&#x115;" horiz-adv-x="547" d="M516 210 C536 377 477 539 283 539 C113 539 26 429 26 263 C26 55 127 -18 286 -18 C504 -18 514 155 514 165 L360 165 C359 157 349 116 285 116 C204 116 202 185 202 210 L516 210 Z M203 315 C205 365 218 411 277 411 C340 411 349 361 351 315 L203 315 Z M90 738 C90 688 99 581 273 581 C443 581 450 688 450 738 L309 738 C309 697 305 669 272 669 C238 669 233 698 233 738 L90 738 Z " />
<glyph glyph-name="Edotaccent" unicode="&#x116;" horiz-adv-x="598" d="M64 0 L563 0 L563 151 L251 151 L251 285 L527 285 L527 436 L251 436 L251 561 L556 561 L556 712 L64 712 L64 0 Z M235 786 L401 786 L401 935 L235 935 L235 786 Z " />
<glyph glyph-name="edotaccent" unicode="&#x117;" horiz-adv-x="547" d="M516 210 C536 377 477 539 283 539 C113 539 26 429 26 263 C26 55 127 -18 286 -18 C504 -18 514 155 514 165 L360 165 C359 157 349 116 285 116 C204 116 202 185 202 210 L516 210 Z M203 315 C205 365 218 411 277 411 C340 411 349 361 351 315 L203 315 Z M191 597 L350 597 L350 738 L191 738 L191 597 Z " />
<glyph glyph-name="Eogonek" unicode="&#x118;" horiz-adv-x="598" d="M64 0 L473 0 C419 -29 358 -70 358 -132 C358 -203 417 -228 476 -228 C539 -228 584 -208 584 -208 L584 -128 C584 -128 565 -131 548 -131 C528 -131 490 -130 490 -89 C490 -71 502 -39 558 0 L563 0 L563 151 L251 151 L251 285 L527 285 L527 436 L251 436 L251 561 L556 561 L556 712 L64 712 L64 0 Z " />
<glyph glyph-name="eogonek" unicode="&#x119;" horiz-adv-x="547" d="M516 210 C536 377 477 539 283 539 C113 539 26 429 26 263 C26 64 118 -11 265 -17 C221 -45 181 -81 181 -132 C181 -203 240 -228 299 -228 C362 -228 407 -208 407 -208 L407 -128 C407 -128 388 -131 371 -131 C351 -131 313 -130 313 -89 C313 -72 323 -43 370 -7 C506 30 514 156 514 165 L360 165 C359 157 349 116 285 116 C204 116 202 185 202 210 L516 210 Z M203 315 C205 365 218 411 277 411 C340 411 349 361 351 315 L203 315 Z " />
<glyph glyph-name="Ecaron" unicode="&#x11a;" horiz-adv-x="598" d="M423 771 L525 932 L358 932 L321 837 L282 932 L108 932 L210 771 L423 771 Z M64 0 L563 0 L563 151 L251 151 L251 285 L527 285 L527 436 L251 436 L251 561 L556 561 L556 712 L64 712 L64 0 Z " />
<glyph glyph-name="ecaron" unicode="&#x11b;" horiz-adv-x="547" d="M374 584 L471 737 L312 737 L277 649 L241 737 L73 737 L170 584 L374 584 Z M516 210 C536 377 477 539 283 539 C113 539 26 429 26 263 C26 55 127 -18 286 -18 C504 -18 514 155 514 165 L360 165 C359 157 349 116 285 116 C204 116 202 185 202 210 L516 210 Z M203 315 C205 365 218 411 277 411 C340 411 349 361 351 315 L203 315 Z " />
<glyph glyph-name="Gcircumflex" unicode="&#x11c;" horiz-adv-x="696" d="M240 933 L138 772 L306 772 L343 866 L382 772 L555 772 L453 933 L240 933 Z M504 0 L653 0 L653 391 L376 391 L376 256 L484 256 L484 251 C484 195 442 140 359 140 C246 140 220 250 220 359 C220 550 289 578 348 578 C455 578 461 467 461 467 L649 467 C649 467 639 729 353 729 C128 729 28 565 28 351 C28 66 174 -10 315 -10 C456 -10 501 67 501 67 L504 0 Z " />
<glyph glyph-name="gcircumflex" unicode="&#x11d;" horiz-adv-x="592" d="M193 737 L96 584 L257 584 L292 672 L328 584 L494 584 L397 737 L193 737 Z M538 520 L364 520 L362 475 C362 475 329 534 227 534 C91 534 26 425 26 278 C26 139 66 27 216 27 C317 27 360 88 360 88 L360 36 C360 -38 346 -68 283 -68 C217 -68 215 -21 215 -21 L48 -21 C48 -21 49 -197 287 -197 C470 -197 538 -106 538 38 L538 520 Z M363 277 C363 231 360 155 282 155 C222 155 202 190 202 276 C202 371 238 398 285 398 C353 398 363 341 363 277 L363 277 Z " />
<glyph glyph-name="Gbreve" unicode="&#x11e;" horiz-adv-x="696" d="M504 0 L653 0 L653 391 L376 391 L376 256 L484 256 L484 251 C484 195 442 140 359 140 C246 140 220 250 220 359 C220 550 289 578 348 578 C455 578 461 467 461 467 L649 467 C649 467 639 729 353 729 C128 729 28 565 28 351 C28 66 174 -10 315 -10 C456 -10 501 67 501 67 L504 0 Z M158 934 C158 882 167 769 350 769 C529 769 536 881 536 934 L388 934 C388 891 384 861 349 861 C313 861 308 892 308 934 L158 934 Z " />
<glyph glyph-name="gbreve" unicode="&#x11f;" horiz-adv-x="592" d="M538 520 L364 520 L362 475 C362 475 329 534 227 534 C91 534 26 425 26 278 C26 139 66 27 216 27 C317 27 360 88 360 88 L360 36 C360 -38 346 -68 283 -68 C217 -68 215 -21 215 -21 L48 -21 C48 -21 49 -197 287 -197 C470 -197 538 -106 538 38 L538 520 Z M363 277 C363 231 360 155 282 155 C222 155 202 190 202 276 C202 371 238 398 285 398 C353 398 363 341 363 277 L363 277 Z M105 738 C105 688 114 581 288 581 C458 581 465 688 465 738 L324 738 C324 697 320 669 287 669 C253 669 248 698 248 738 L105 738 Z " />
<glyph glyph-name="Gdotaccent" unicode="&#x120;" horiz-adv-x="696" d="M504 0 L653 0 L653 391 L376 391 L376 256 L484 256 L484 251 C484 195 442 140 359 140 C246 140 220 250 220 359 C220 550 289 578 348 578 C455 578 461 467 461 467 L649 467 C649 467 639 729 353 729 C128 729 28 565 28 351 C28 66 174 -10 315 -10 C456 -10 501 67 501 67 L504 0 Z M265 786 L431 786 L431 935 L265 935 L265 786 Z " />
<glyph glyph-name="gdotaccent" unicode="&#x121;" horiz-adv-x="592" d="M538 520 L364 520 L362 475 C362 475 329 534 227 534 C91 534 26 425 26 278 C26 139 66 27 216 27 C317 27 360 88 360 88 L360 36 C360 -38 346 -68 283 -68 C217 -68 215 -21 215 -21 L48 -21 C48 -21 49 -197 287 -197 C470 -197 538 -106 538 38 L538 520 Z M363 277 C363 231 360 155 282 155 C222 155 202 190 202 276 C202 371 238 398 285 398 C353 398 363 341 363 277 L363 277 Z M221 597 L380 597 L380 738 L221 738 L221 597 Z " />
<glyph glyph-name="Gcommaaccent" unicode="&#x122;" horiz-adv-x="696" d="M267 -194 L337 -194 C337 -199 336 -232 270 -243 L270 -337 C422 -318 433 -226 433 -150 L433 -59 L267 -59 L267 -194 Z M504 0 L653 0 L653 391 L376 391 L376 256 L484 256 L484 251 C484 195 442 140 359 140 C246 140 220 250 220 359 C220 550 289 578 348 578 C455 578 461 467 461 467 L649 467 C649 467 639 729 353 729 C128 729 28 565 28 351 C28 66 174 -10 315 -10 C456 -10 501 67 501 67 L504 0 Z " />
<glyph glyph-name="gcommaaccent" unicode="&#x123;" horiz-adv-x="592" d="M379 738 L309 738 C309 743 310 776 376 787 L376 881 C224 862 213 770 213 694 L213 603 L379 603 L379 738 Z M538 520 L364 520 L362 475 C362 475 329 534 227 534 C91 534 26 425 26 278 C26 139 66 27 216 27 C317 27 360 88 360 88 L360 36 C360 -38 346 -68 283 -68 C217 -68 215 -21 215 -21 L48 -21 C48 -21 49 -197 287 -197 C470 -197 538 -106 538 38 L538 520 Z M363 277 C363 231 360 155 282 155 C222 155 202 190 202 276 C202 371 238 398 285 398 C353 398 363 341 363 277 L363 277 Z " />
<glyph glyph-name="Hcircumflex" unicode="&#x124;" horiz-adv-x="725" d="M255 933 L153 772 L321 772 L358 866 L397 772 L570 772 L468 933 L255 933 Z M64 0 L251 0 L251 289 L474 289 L474 0 L661 0 L661 712 L474 712 L474 440 L251 440 L251 712 L64 712 L64 0 Z " />
<glyph glyph-name="hcircumflex" unicode="&#x125;" horiz-adv-x="577" d="M33 895 L-64 742 L97 742 L132 830 L168 742 L334 742 L237 895 L33 895 Z M54 0 L231 0 L231 311 C231 377 260 401 294 401 C338 401 348 370 348 311 L348 0 L525 0 L525 342 C525 498 463 541 372 541 C275 541 231 460 231 460 L231 712 L54 712 L54 0 Z " />
<glyph glyph-name="Hbar" unicode="&#x126;" horiz-adv-x="725" d="M-6 523 L64 523 L64 0 L251 0 L251 289 L474 289 L474 0 L661 0 L661 523 L732 523 L732 621 L661 621 L661 712 L474 712 L474 621 L251 621 L251 712 L64 712 L64 621 L-6 621 L-6 523 Z M251 440 L251 523 L474 523 L474 440 L251 440 Z " />
<glyph glyph-name="hbar" unicode="&#x127;" horiz-adv-x="577" d="M-16 575 L54 575 L54 0 L231 0 L231 311 C231 377 260 401 294 401 C338 401 348 370 348 311 L348 0 L525 0 L525 342 C525 498 463 541 372 541 C275 541 231 460 231 460 L231 575 L428 575 L428 657 L231 657 L231 712 L54 712 L54 657 L-16 657 L-16 575 Z " />
<glyph glyph-name="Itilde" unicode="&#x128;" horiz-adv-x="315" d="M64 0 L251 0 L251 712 L64 712 L64 0 Z M65 775 C65 788 70 813 94 813 C132 813 173 769 247 769 C350 769 350 881 350 927 L250 927 C250 916 246 883 223 883 C184 883 144 931 74 931 C-49 931 -41 790 -41 775 L65 775 Z " />
<glyph glyph-name="itilde" unicode="&#x129;" horiz-adv-x="285" d="M54 0 L231 0 L231 520 L54 520 L54 0 Z M54 588 C54 600 59 624 82 624 C118 624 157 582 227 582 C325 582 325 688 325 732 L230 732 C230 722 226 690 205 690 C167 690 129 736 63 736 C-54 736 -46 602 -46 588 L54 588 Z " />
<glyph glyph-name="Imacron" unicode="&#x12a;" horiz-adv-x="315" d="M64 0 L251 0 L251 712 L64 712 L64 0 Z M-1 793 L319 793 L319 911 L-1 911 L-1 793 Z " />
<glyph glyph-name="imacron" unicode="&#x12b;" horiz-adv-x="285" d="M54 0 L231 0 L231 520 L54 520 L54 0 Z M-9 604 L295 604 L295 717 L-9 717 L-9 604 Z " />
<glyph glyph-name="Ibreve" unicode="&#x12c;" horiz-adv-x="315" d="M64 0 L251 0 L251 712 L64 712 L64 0 Z M-31 934 C-31 882 -22 769 161 769 C340 769 347 881 347 934 L199 934 C199 891 195 861 160 861 C124 861 119 892 119 934 L-31 934 Z " />
<glyph glyph-name="ibreve" unicode="&#x12d;" horiz-adv-x="285" d="M54 0 L231 0 L231 520 L54 520 L54 0 Z M-37 738 C-37 688 -28 581 146 581 C316 581 323 688 323 738 L182 738 C182 697 178 669 145 669 C111 669 106 698 106 738 L-37 738 Z " />
<glyph glyph-name="Iogonek" unicode="&#x12e;" horiz-adv-x="315" d="M64 0 L161 0 C107 -29 46 -70 46 -132 C46 -203 105 -228 164 -228 C227 -228 272 -208 272 -208 L272 -128 C272 -128 253 -131 236 -131 C216 -131 178 -130 178 -89 C178 -71 190 -39 246 0 L251 0 L251 712 L64 712 L64 0 Z " />
<glyph glyph-name="iogonek" unicode="&#x12f;" horiz-adv-x="285" d="M54 0 L141 0 C87 -29 26 -70 26 -132 C26 -203 85 -228 144 -228 C207 -228 252 -208 252 -208 L252 -128 C252 -128 233 -131 216 -131 C196 -131 158 -130 158 -89 C158 -71 170 -39 226 0 L231 0 L231 520 L54 520 L54 0 Z M51 584 L233 584 L233 740 L51 740 L51 584 Z " />
<glyph glyph-name="Idotaccent" unicode="&#x130;" horiz-adv-x="315" d="M64 0 L251 0 L251 712 L64 712 L64 0 Z M74 786 L240 786 L240 935 L74 935 L74 786 Z " />
<glyph glyph-name="dotlessi" unicode="&#x131;" horiz-adv-x="285" d="M54 0 L231 0 L231 520 L54 520 L54 0 Z " />
<glyph glyph-name="IJ" unicode="&#x132;" horiz-adv-x="877" d="M64 0 L251 0 L251 712 L64 712 L64 0 Z M333 234 C336 119 358 -18 570 -18 C775 -18 815 86 815 248 L815 712 L628 712 L628 250 C628 170 627 133 571 133 C513 133 510 186 507 234 L333 234 Z " />
<glyph glyph-name="ij" unicode="&#x133;" horiz-adv-x="577" d="M51 584 L233 584 L233 740 L51 740 L51 584 Z M54 0 L231 0 L231 520 L54 520 L54 0 Z M254 -179 C254 -179 289 -186 343 -186 C509 -186 523 -84 523 57 L523 520 L345 520 L345 33 C345 -4 341 -37 284 -37 L254 -37 L254 -179 Z M343 584 L525 584 L525 740 L343 740 L343 584 Z " />
<glyph glyph-name="Jcircumflex" unicode="&#x134;" horiz-adv-x="561" d="M290 933 L188 772 L356 772 L393 866 L432 772 L605 772 L503 933 L290 933 Z M18 234 C21 119 43 -18 255 -18 C460 -18 500 86 500 248 L500 712 L313 712 L313 250 C313 170 312 133 256 133 C198 133 195 186 192 234 L18 234 Z " />
<glyph glyph-name="jcircumflex" unicode="&#x135;" horiz-adv-x="292" d="M-31 -179 C-31 -179 4 -186 58 -186 C224 -186 238 -84 238 57 L238 520 L60 520 L60 33 C60 -4 56 -37 -1 -37 L-31 -37 L-31 -179 Z M44 737 L-53 584 L108 584 L143 672 L179 584 L345 584 L248 737 L44 737 Z " />
<glyph glyph-name="Kcommaaccent" unicode="&#x136;" horiz-adv-x="688" d="M264 -194 L334 -194 C334 -199 333 -232 267 -243 L267 -337 C419 -318 430 -226 430 -150 L430 -59 L264 -59 L264 -194 Z M471 0 L689 0 L411 431 L662 712 L448 712 L251 479 L251 712 L64 712 L64 0 L251 0 L251 254 L288 301 L471 0 Z " />
<glyph glyph-name="kcommaaccent" unicode="&#x137;" horiz-adv-x="581" d="M213 -194 L283 -194 C283 -199 282 -232 216 -243 L216 -337 C368 -318 379 -226 379 -150 L379 -59 L213 -59 L213 -194 Z M385 0 L581 0 L397 347 L579 520 L378 520 L231 373 L231 712 L54 712 L54 0 L231 0 L231 191 L278 240 L385 0 Z " />
<glyph glyph-name="kgreenlandic" unicode="&#x138;" horiz-adv-x="581" d="M579 520 L378 520 L231 363 L231 521 L54 521 L54 0 L231 0 L231 181 L283 231 L386 0 L581 0 L397 344 L579 520 Z " />
<glyph glyph-name="Lacute" unicode="&#x139;" horiz-adv-x="532" d="M161 934 L74 773 L228 773 L367 934 L161 934 Z M64 0 L520 0 L520 151 L251 151 L251 712 L64 712 L64 0 Z " />
<glyph glyph-name="lacute" unicode="&#x13a;" horiz-adv-x="285" d="M150 923 L66 770 L214 770 L347 923 L150 923 Z M54 0 L231 0 L231 712 L54 712 L54 0 Z " />
<glyph glyph-name="Lcommaaccent" unicode="&#x13b;" horiz-adv-x="532" d="M211 -194 L281 -194 C281 -199 280 -232 214 -243 L214 -337 C366 -318 377 -226 377 -150 L377 -59 L211 -59 L211 -194 Z M64 0 L520 0 L520 151 L251 151 L251 712 L64 712 L64 0 Z " />
<glyph glyph-name="lcommaaccent" unicode="&#x13c;" horiz-adv-x="285" d="M60 -194 L130 -194 C130 -199 129 -232 63 -243 L63 -337 C215 -318 226 -226 226 -150 L226 -59 L60 -59 L60 -194 Z M54 0 L231 0 L231 712 L54 712 L54 0 Z " />
<glyph glyph-name="Lcaron" unicode="&#x13d;" horiz-adv-x="532" d="M312 570 L385 570 C385 565 384 530 315 519 L315 420 C475 440 486 537 486 617 L486 712 L312 712 L312 570 Z M64 0 L520 0 L520 151 L251 151 L251 712 L64 712 L64 0 Z " />
<glyph glyph-name="lcaron" unicode="&#x13e;" horiz-adv-x="460" d="M289 577 L359 577 C359 572 358 539 292 528 L292 434 C444 453 455 545 455 621 L455 712 L289 712 L289 577 Z M64 0 L241 0 L241 712 L64 712 L64 0 Z " />
<glyph glyph-name="Ldot" unicode="&#x13f;" horiz-adv-x="532" d="M64 0 L520 0 L520 151 L251 151 L251 712 L64 712 L64 0 Z M334 326 L518 326 L518 494 L334 494 L334 326 Z " />
<glyph glyph-name="ldot" unicode="&#x140;" horiz-adv-x="454" d="M54 0 L231 0 L231 712 L54 712 L54 0 Z M278 291 L462 291 L462 459 L278 459 L278 291 Z " />
<glyph glyph-name="Lslash" unicode="&#x141;" horiz-adv-x="532" d="M64 0 L520 0 L520 151 L251 151 L251 336 L421 470 L421 640 L251 504 L251 712 L64 712 L64 386 L-7 331 L-7 164 L64 219 L64 0 Z " />
<glyph glyph-name="lslash" unicode="&#x142;" horiz-adv-x="285" d="M54 0 L231 0 L231 326 L302 382 L302 552 L231 496 L231 712 L54 712 L54 385 L-17 330 L-17 166 L54 220 L54 0 Z " />
<glyph glyph-name="Nacute" unicode="&#x143;" horiz-adv-x="726" d="M64 0 L240 0 L240 311 C240 389 236 449 236 450 C239 443 268 373 303 307 L463 0 L662 0 L662 712 L486 712 L486 475 C486 364 491 266 491 266 C491 266 449 355 409 435 L268 712 L64 712 L64 0 Z M358 934 L271 773 L425 773 L564 934 L358 934 Z " />
<glyph glyph-name="nacute" unicode="&#x144;" horiz-adv-x="577" d="M268 737 L184 584 L332 584 L465 737 L268 737 Z M54 0 L231 0 L231 303 C231 369 260 393 294 393 C339 393 348 362 348 303 L348 0 L525 0 L525 333 C525 489 463 533 372 533 C275 533 227 451 227 451 L224 520 L54 520 L54 0 Z " />
<glyph glyph-name="Ncommaaccent" unicode="&#x145;" horiz-adv-x="726" d="M64 0 L240 0 L240 311 C240 389 236 449 236 450 C239 443 268 373 303 307 L463 0 L662 0 L662 712 L486 712 L486 475 C486 364 491 266 491 266 C491 266 449 355 409 435 L268 712 L64 712 L64 0 Z M289 -194 L359 -194 C359 -199 358 -232 292 -243 L292 -337 C444 -318 455 -226 455 -150 L455 -59 L289 -59 L289 -194 Z " />
<glyph glyph-name="ncommaaccent" unicode="&#x146;" horiz-adv-x="577" d="M205 -194 L275 -194 C275 -199 274 -232 208 -243 L208 -337 C360 -318 371 -226 371 -150 L371 -59 L205 -59 L205 -194 Z M54 0 L231 0 L231 303 C231 369 260 393 294 393 C339 393 348 362 348 303 L348 0 L525 0 L525 333 C525 489 463 533 372 533 C275 533 227 451 227 451 L224 520 L54 520 L54 0 Z " />
<glyph glyph-name="Ncaron" unicode="&#x147;" horiz-adv-x="726" d="M64 0 L240 0 L240 311 C240 389 236 449 236 450 C239 443 268 373 303 307 L463 0 L662 0 L662 712 L486 712 L486 475 C486 364 491 266 491 266 C491 266 449 355 409 435 L268 712 L64 712 L64 0 Z M469 771 L571 932 L404 932 L367 837 L328 932 L154 932 L256 771 L469 771 Z " />
<glyph glyph-name="ncaron" unicode="&#x148;" horiz-adv-x="577" d="M387 584 L484 737 L325 737 L290 649 L254 737 L86 737 L183 584 L387 584 Z M54 0 L231 0 L231 303 C231 369 260 393 294 393 C339 393 348 362 348 303 L348 0 L525 0 L525 333 C525 489 463 533 372 533 C275 533 227 451 227 451 L224 520 L54 520 L54 0 Z " />
<glyph glyph-name="napostrophe" unicode="&#x149;" horiz-adv-x="651" d="M10 656 L80 656 C80 651 79 618 13 607 L13 513 C165 532 176 624 176 700 L176 791 L10 791 L10 656 Z M128 0 L305 0 L305 303 C305 369 334 393 368 393 C413 393 422 362 422 303 L422 0 L599 0 L599 333 C599 489 537 533 446 533 C349 533 301 451 301 451 L298 520 L128 520 L128 0 Z " />
<glyph glyph-name="Eng" unicode="&#x14a;" horiz-adv-x="726" d="M64 0 L240 0 L240 311 C240 390 235 453 235 453 C235 453 269 380 332 286 L486 56 L486 16 C486 -38 485 -68 447 -68 C413 -68 405 -49 405 -27 L243 -27 C243 -176 349 -197 455 -197 C621 -197 662 -112 662 54 L662 712 L486 712 L486 475 C486 364 491 336 491 336 C491 336 446 425 401 497 L268 712 L64 712 L64 0 Z " />
<glyph glyph-name="eng" unicode="&#x14b;" horiz-adv-x="577" d="M256 -179 C256 -179 291 -186 345 -186 C491 -186 525 -107 525 10 L525 333 C525 489 463 533 372 533 C275 533 227 451 227 451 L224 520 L54 520 L54 0 L231 0 L231 303 C231 369 260 393 294 393 C339 393 348 362 348 303 L348 33 C348 -4 343 -37 286 -37 L256 -37 L256 -179 Z " />
<glyph glyph-name="Omacron" unicode="&#x14c;" horiz-adv-x="735" d="M207 793 L527 793 L527 911 L207 911 L207 793 Z M28 356 C28 75 181 -18 367 -18 C554 -18 707 91 707 356 C707 611 564 729 367 729 C181 729 28 611 28 356 L28 356 Z M220 356 C220 536 289 578 367 578 C446 578 515 536 515 356 C515 170 445 133 367 133 C287 133 220 170 220 356 L220 356 Z " />
<glyph glyph-name="omacron" unicode="&#x14d;" horiz-adv-x="563" d="M128 604 L432 604 L432 717 L128 717 L128 604 Z M26 260 C26 45 142 -18 282 -18 C423 -18 538 53 538 260 C538 449 430 539 282 539 C140 539 26 452 26 260 L26 260 Z M202 260 C202 379 239 405 282 405 C324 405 361 378 361 260 C361 134 323 116 282 116 C240 116 202 134 202 260 L202 260 Z " />
<glyph glyph-name="Obreve" unicode="&#x14e;" horiz-adv-x="735" d="M28 356 C28 75 181 -18 367 -18 C554 -18 707 91 707 356 C707 611 564 729 367 729 C181 729 28 611 28 356 L28 356 Z M220 356 C220 536 289 578 367 578 C446 578 515 536 515 356 C515 170 445 133 367 133 C287 133 220 170 220 356 L220 356 Z M177 934 C177 882 186 769 369 769 C548 769 555 881 555 934 L407 934 C407 891 403 861 368 861 C332 861 327 892 327 934 L177 934 Z " />
<glyph glyph-name="obreve" unicode="&#x14f;" horiz-adv-x="563" d="M26 260 C26 45 142 -18 282 -18 C423 -18 538 53 538 260 C538 449 430 539 282 539 C140 539 26 452 26 260 L26 260 Z M202 260 C202 379 239 405 282 405 C324 405 361 378 361 260 C361 134 323 116 282 116 C240 116 202 134 202 260 L202 260 Z M100 738 C100 688 109 581 283 581 C453 581 460 688 460 738 L319 738 C319 697 315 669 282 669 C248 669 243 698 243 738 L100 738 Z " />
<glyph glyph-name="Ohungarumlaut" unicode="&#x150;" horiz-adv-x="735" d="M276 934 L189 773 L316 773 L455 934 L276 934 Z M475 934 L388 773 L515 773 L654 934 L475 934 Z M28 356 C28 75 181 -18 367 -18 C554 -18 707 91 707 356 C707 611 564 729 367 729 C181 729 28 611 28 356 L28 356 Z M220 356 C220 536 289 578 367 578 C446 578 515 536 515 356 C515 170 445 133 367 133 C287 133 220 170 220 356 L220 356 Z " />
<glyph glyph-name="ohungarumlaut" unicode="&#x151;" horiz-adv-x="563" d="M195 737 L112 584 L233 584 L366 737 L195 737 Z M384 737 L301 584 L422 584 L554 737 L384 737 Z M26 260 C26 45 142 -18 282 -18 C423 -18 538 53 538 260 C538 449 430 539 282 539 C140 539 26 452 26 260 L26 260 Z M202 260 C202 379 239 405 282 405 C324 405 361 378 361 260 C361 134 323 116 282 116 C240 116 202 134 202 260 L202 260 Z " />
<glyph glyph-name="OE" unicode="&#x152;" horiz-adv-x="983" d="M947 0 L947 151 L660 151 L660 293 L911 293 L911 444 L660 444 L660 561 L940 561 L940 712 L474 712 C474 712 425 729 352 729 C144 729 28 573 28 349 C28 93 150 -18 345 -18 C430 -18 474 0 474 0 L947 0 Z M218 367 C218 521 292 571 376 571 C426 571 474 553 474 553 L474 165 C474 165 448 142 391 142 C230 142 218 256 218 367 L218 367 Z " />
<glyph glyph-name="oe" unicode="&#x153;" horiz-adv-x="866" d="M26 259 C26 44 143 -18 269 -18 C407 -18 444 57 444 57 C444 57 495 -18 618 -18 C828 -18 838 169 838 169 L681 169 C681 169 679 111 613 111 C532 111 529 185 530 214 L837 214 C849 394 803 539 617 539 C501 539 452 464 452 464 C452 464 408 539 274 539 C146 539 26 454 26 259 L26 259 Z M202 259 C202 381 238 405 280 405 C320 405 357 382 357 259 C357 128 320 116 280 116 C238 116 202 128 202 259 L202 259 Z M531 316 C531 366 547 411 601 411 C665 411 669 362 670 316 L531 316 Z " />
<glyph glyph-name="Racute" unicode="&#x154;" horiz-adv-x="645" d="M288 934 L201 773 L355 773 L494 934 L288 934 Z M64 0 L251 0 L251 260 L295 260 L418 0 L625 0 L463 282 C554 315 602 381 602 494 C602 674 459 712 305 712 L64 712 L64 0 Z M251 408 L251 561 L321 561 C377 561 413 546 413 490 C413 414 363 408 303 408 L251 408 Z " />
<glyph glyph-name="racute" unicode="&#x155;" horiz-adv-x="380" d="M54 0 L232 0 L232 283 C232 361 290 376 354 376 C365 376 376 375 376 375 L376 533 L365 533 C288 533 250 489 227 438 L220 520 L54 520 L54 0 Z M216 737 L132 584 L280 584 L413 737 L216 737 Z " />
<glyph glyph-name="Rcommaaccent" unicode="&#x156;" horiz-adv-x="645" d="M251 -194 L321 -194 C321 -199 320 -232 254 -243 L254 -337 C406 -318 417 -226 417 -150 L417 -59 L251 -59 L251 -194 Z M64 0 L251 0 L251 260 L295 260 L418 0 L625 0 L463 282 C554 315 602 381 602 494 C602 674 459 712 305 712 L64 712 L64 0 Z M251 408 L251 561 L321 561 C377 561 413 546 413 490 C413 414 363 408 303 408 L251 408 Z " />
<glyph glyph-name="rcommaaccent" unicode="&#x157;" horiz-adv-x="380" d="M54 0 L232 0 L232 283 C232 361 290 376 354 376 C365 376 376 375 376 375 L376 533 L365 533 C288 533 250 489 227 438 L220 520 L54 520 L54 0 Z M61 -194 L131 -194 C131 -199 130 -232 64 -243 L64 -337 C216 -318 227 -226 227 -150 L227 -59 L61 -59 L61 -194 Z " />
<glyph glyph-name="Rcaron" unicode="&#x158;" horiz-adv-x="645" d="M406 771 L508 932 L341 932 L304 837 L265 932 L91 932 L193 771 L406 771 Z M64 0 L251 0 L251 260 L295 260 L418 0 L625 0 L463 282 C554 315 602 381 602 494 C602 674 459 712 305 712 L64 712 L64 0 Z M251 408 L251 561 L321 561 C377 561 413 546 413 490 C413 414 363 408 303 408 L251 408 Z " />
<glyph glyph-name="rcaron" unicode="&#x159;" horiz-adv-x="380" d="M54 0 L232 0 L232 283 C232 361 290 376 354 376 C365 376 376 375 376 375 L376 533 L365 533 C288 533 250 489 227 438 L220 520 L54 520 L54 0 Z M299 584 L396 737 L237 737 L202 649 L166 737 L-2 737 L95 584 L299 584 Z " />
<glyph glyph-name="Sacute" unicode="&#x15a;" horiz-adv-x="597" d="M290 934 L203 773 L357 773 L496 934 L290 934 Z M30 221 C30 111 99 -18 310 -18 C532 -18 571 114 571 216 C571 480 221 397 221 524 C221 571 253 586 290 586 C343 586 368 549 370 496 L552 496 C552 665 436 729 292 729 C140 729 45 649 45 502 C45 238 394 324 394 189 C394 136 357 125 321 125 C251 125 222 169 219 221 L30 221 Z " />
<glyph glyph-name="sacute" unicode="&#x15b;" horiz-adv-x="457" d="M212 737 L128 584 L276 584 L409 737 L212 737 Z M23 166 C23 127 25 -18 235 -18 C360 -18 433 34 433 156 C433 350 185 302 185 384 C185 404 195 421 228 421 C275 421 277 374 277 364 L425 364 C425 408 409 539 224 539 C119 539 30 488 30 368 C30 178 283 227 283 144 C283 119 271 99 233 99 C175 99 171 151 171 166 L23 166 Z " />
<glyph glyph-name="Scircumflex" unicode="&#x15c;" horiz-adv-x="597" d="M198 933 L96 772 L264 772 L301 866 L340 772 L513 772 L411 933 L198 933 Z M30 221 C30 111 99 -18 310 -18 C532 -18 571 114 571 216 C571 480 221 397 221 524 C221 571 253 586 290 586 C343 586 368 549 370 496 L552 496 C552 665 436 729 292 729 C140 729 45 649 45 502 C45 238 394 324 394 189 C394 136 357 125 321 125 C251 125 222 169 219 221 L30 221 Z " />
<glyph glyph-name="scircumflex" unicode="&#x15d;" horiz-adv-x="457" d="M124 737 L27 584 L188 584 L223 672 L259 584 L425 584 L328 737 L124 737 Z M23 166 C23 127 25 -18 235 -18 C360 -18 433 34 433 156 C433 350 185 302 185 384 C185 404 195 421 228 421 C275 421 277 374 277 364 L425 364 C425 408 409 539 224 539 C119 539 30 488 30 368 C30 178 283 227 283 144 C283 119 271 99 233 99 C175 99 171 151 171 166 L23 166 Z " />
<glyph glyph-name="Scedilla" unicode="&#x15e;" horiz-adv-x="597" d="M170 -204 C170 -204 219 -249 301 -249 C394 -249 434 -206 434 -134 C434 -101 413 -53 341 -53 C322 -53 312 -55 312 -55 L337 -17 C535 -7 571 118 571 216 C571 480 221 397 221 524 C221 571 253 586 290 586 C343 586 368 549 370 496 L552 496 C552 665 436 729 292 729 C140 729 45 649 45 502 C45 238 394 324 394 189 C394 136 357 125 321 125 C251 125 222 169 219 221 L30 221 C30 120 88 3 260 -15 L218 -82 L247 -108 C247 -108 265 -102 284 -102 C310 -102 323 -113 323 -134 C323 -153 312 -166 285 -166 C244 -166 210 -138 210 -138 L170 -204 Z " />
<glyph glyph-name="scedilla" unicode="&#x15f;" horiz-adv-x="457" d="M88 -204 C88 -204 137 -249 219 -249 C312 -249 352 -206 352 -134 C352 -101 331 -53 259 -53 C240 -53 230 -55 230 -55 L255 -17 C368 -12 433 41 433 156 C433 350 185 302 185 384 C185 404 195 421 228 421 C275 421 277 374 277 364 L425 364 C425 408 409 539 224 539 C119 539 30 488 30 368 C30 178 283 227 283 144 C283 119 271 99 233 99 C175 99 171 151 171 166 L23 166 C23 131 24 9 179 -14 L136 -82 L165 -108 C165 -108 183 -102 202 -102 C228 -102 241 -113 241 -134 C241 -153 230 -166 203 -166 C162 -166 128 -138 128 -138 L88 -204 Z " />
<glyph glyph-name="Scaron" unicode="&#x160;" horiz-adv-x="597" d="M399 771 L501 932 L334 932 L297 837 L258 932 L84 932 L186 771 L399 771 Z M30 221 C30 111 99 -18 310 -18 C532 -18 571 114 571 216 C571 480 221 397 221 524 C221 571 253 586 290 586 C343 586 368 549 370 496 L552 496 C552 665 436 729 292 729 C140 729 45 649 45 502 C45 238 394 324 394 189 C394 136 357 125 321 125 C251 125 222 169 219 221 L30 221 Z " />
<glyph glyph-name="scaron" unicode="&#x161;" horiz-adv-x="457" d="M330 584 L427 737 L268 737 L233 649 L197 737 L29 737 L126 584 L330 584 Z M23 166 C23 127 25 -18 235 -18 C360 -18 433 34 433 156 C433 350 185 302 185 384 C185 404 195 421 228 421 C275 421 277 374 277 364 L425 364 C425 408 409 539 224 539 C119 539 30 488 30 368 C30 178 283 227 283 144 C283 119 271 99 233 99 C175 99 171 151 171 166 L23 166 Z " />
<glyph glyph-name="Tcedilla" unicode="&#x162;" horiz-adv-x="580" d="M196 0 L251 0 L199 -82 L228 -108 C228 -108 246 -102 265 -102 C291 -102 304 -113 304 -134 C304 -153 293 -166 266 -166 C225 -166 191 -138 191 -138 L151 -204 C151 -204 200 -249 282 -249 C375 -249 415 -206 415 -134 C415 -101 394 -53 322 -53 C303 -53 293 -55 293 -55 L330 0 L383 0 L383 561 L575 561 L575 712 L6 712 L6 561 L196 561 L196 0 Z " />
<glyph glyph-name="tcommaaccent" unicode="&#x163;" horiz-adv-x="377" d="M80 194 C80 75 90 -13 243 -13 C286 -13 353 1 353 1 L353 119 L335 119 C263 119 257 126 257 185 L257 402 L358 402 L358 520 L257 520 L257 670 L80 629 L80 520 L-1 520 L-1 402 L80 402 L80 194 Z M124 -194 L194 -194 C194 -199 193 -232 127 -243 L127 -337 C279 -318 290 -226 290 -150 L290 -59 L124 -59 L124 -194 Z " />
<glyph glyph-name="Tcaron" unicode="&#x164;" horiz-adv-x="580" d="M396 771 L498 932 L331 932 L294 837 L255 932 L81 932 L183 771 L396 771 Z M196 0 L383 0 L383 561 L575 561 L575 712 L6 712 L6 561 L196 561 L196 0 Z " />
<glyph glyph-name="tcaron" unicode="&#x165;" horiz-adv-x="453" d="M80 194 C80 75 90 -13 243 -13 C286 -13 353 1 353 1 L353 119 L335 119 C263 119 257 126 257 185 L257 402 L358 402 L358 520 L257 520 L257 670 L80 629 L80 520 L-1 520 L-1 402 L80 402 L80 194 Z M292 698 L362 698 C362 693 361 660 295 649 L295 555 C447 574 458 666 458 742 L458 833 L292 833 L292 698 Z " />
<glyph glyph-name="Tbar" unicode="&#x166;" horiz-adv-x="580" d="M69 248 L196 248 L196 0 L383 0 L383 248 L510 248 L510 389 L383 389 L383 561 L575 561 L575 712 L6 712 L6 561 L196 561 L196 389 L69 389 L69 248 Z " />
<glyph glyph-name="tbar" unicode="&#x167;" horiz-adv-x="377" d="M-1 211 L80 211 L80 194 C80 75 90 -13 243 -13 C286 -13 353 1 353 1 L353 119 L335 119 C263 119 257 126 257 185 L257 211 L358 211 L358 329 L257 329 L257 402 L358 402 L358 520 L257 520 L257 670 L80 629 L80 520 L-1 520 L-1 402 L80 402 L80 329 L-1 329 L-1 211 Z " />
<glyph glyph-name="Utilde" unicode="&#x168;" horiz-adv-x="724" d="M63 256 C63 65 170 -18 362 -18 C547 -18 661 65 661 256 L661 712 L474 712 L474 257 C474 155 413 133 362 133 C310 133 251 152 251 255 L251 712 L63 712 L63 256 Z M268 775 C268 788 273 813 297 813 C335 813 376 769 450 769 C553 769 553 881 553 927 L453 927 C453 916 449 883 426 883 C387 883 347 931 277 931 C154 931 162 790 162 775 L268 775 Z " />
<glyph glyph-name="utilde" unicode="&#x169;" horiz-adv-x="572" d="M518 520 L343 520 L343 219 C343 154 315 132 281 132 C243 132 229 159 229 219 L229 520 L52 520 L52 169 C52 15 126 -10 207 -10 C295 -10 344 66 344 66 L347 0 L518 0 L518 520 Z M196 588 C196 600 201 624 224 624 C260 624 299 582 369 582 C467 582 467 688 467 732 L372 732 C372 722 368 690 347 690 C309 690 271 736 205 736 C88 736 96 602 96 588 L196 588 Z " />
<glyph glyph-name="Umacron" unicode="&#x16a;" horiz-adv-x="724" d="M63 256 C63 65 170 -18 362 -18 C547 -18 661 65 661 256 L661 712 L474 712 L474 257 C474 155 413 133 362 133 C310 133 251 152 251 255 L251 712 L63 712 L63 256 Z M201 793 L521 793 L521 911 L201 911 L201 793 Z " />
<glyph glyph-name="umacron" unicode="&#x16b;" horiz-adv-x="572" d="M518 520 L343 520 L343 219 C343 154 315 132 281 132 C243 132 229 159 229 219 L229 520 L52 520 L52 169 C52 15 126 -10 207 -10 C295 -10 344 66 344 66 L347 0 L518 0 L518 520 Z M134 604 L438 604 L438 717 L134 717 L134 604 Z " />
<glyph glyph-name="Ubreve" unicode="&#x16c;" horiz-adv-x="724" d="M63 256 C63 65 170 -18 362 -18 C547 -18 661 65 661 256 L661 712 L474 712 L474 257 C474 155 413 133 362 133 C310 133 251 152 251 255 L251 712 L63 712 L63 256 Z M172 934 C172 882 181 769 364 769 C543 769 550 881 550 934 L402 934 C402 891 398 861 363 861 C327 861 322 892 322 934 L172 934 Z " />
<glyph glyph-name="ubreve" unicode="&#x16d;" horiz-adv-x="572" d="M518 520 L343 520 L343 219 C343 154 315 132 281 132 C243 132 229 159 229 219 L229 520 L52 520 L52 169 C52 15 126 -10 207 -10 C295 -10 344 66 344 66 L347 0 L518 0 L518 520 Z M105 738 C105 688 114 581 288 581 C458 581 465 688 465 738 L324 738 C324 697 320 669 287 669 C253 669 248 698 248 738 L105 738 Z " />
<glyph glyph-name="Uring" unicode="&#x16e;" horiz-adv-x="724" d="M223 851 C223 761 294 730 362 730 C429 730 501 761 501 851 C501 942 429 973 362 973 C294 973 223 942 223 851 L223 851 Z M317 851 C317 885 340 896 362 896 C384 896 407 885 407 851 C407 819 384 806 362 806 C340 806 317 818 317 851 L317 851 Z M63 256 C63 65 170 -18 362 -18 C547 -18 661 65 661 256 L661 712 L474 712 L474 257 C474 155 413 133 362 133 C310 133 251 152 251 255 L251 712 L63 712 L63 256 Z " />
<glyph glyph-name="uring" unicode="&#x16f;" horiz-adv-x="572" d="M153 679 C153 594 220 564 285 564 C349 564 417 594 417 679 C417 765 349 795 285 795 C220 795 153 765 153 679 L153 679 Z M242 679 C242 711 264 722 285 722 C306 722 328 711 328 679 C328 649 306 636 285 636 C264 636 242 648 242 679 L242 679 Z M518 520 L343 520 L343 219 C343 154 315 132 281 132 C243 132 229 159 229 219 L229 520 L52 520 L52 169 C52 15 126 -10 207 -10 C295 -10 344 66 344 66 L347 0 L518 0 L518 520 Z " />
<glyph glyph-name="Uhungarumlaut" unicode="&#x170;" horiz-adv-x="724" d="M63 256 C63 65 170 -18 362 -18 C547 -18 661 65 661 256 L661 712 L474 712 L474 257 C474 155 413 133 362 133 C310 133 251 152 251 255 L251 712 L63 712 L63 256 Z M264 934 L177 773 L304 773 L443 934 L264 934 Z M463 934 L376 773 L503 773 L642 934 L463 934 Z " />
<glyph glyph-name="uhungarumlaut" unicode="&#x171;" horiz-adv-x="572" d="M518 520 L343 520 L343 219 C343 154 315 132 281 132 C243 132 229 159 229 219 L229 520 L52 520 L52 169 C52 15 126 -10 207 -10 C295 -10 344 66 344 66 L347 0 L518 0 L518 520 Z M199 737 L116 584 L237 584 L370 737 L199 737 Z M388 737 L305 584 L426 584 L558 737 L388 737 Z " />
<glyph glyph-name="Uogonek" unicode="&#x172;" horiz-adv-x="724" d="M63 256 C63 65 170 -18 362 -18 L368 -18 C324 -45 284 -82 284 -132 C284 -203 343 -228 402 -228 C465 -228 510 -208 510 -208 L510 -128 C510 -128 491 -131 474 -131 C454 -131 416 -130 416 -89 C416 -71 427 -41 478 -4 C593 26 661 109 661 256 L661 712 L474 712 L474 257 C474 155 413 133 362 133 C310 133 251 152 251 255 L251 712 L63 712 L63 256 Z " />
<glyph glyph-name="uogonek" unicode="&#x173;" horiz-adv-x="572" d="M518 520 L343 520 L343 219 C343 154 315 132 281 132 C243 132 229 159 229 219 L229 520 L52 520 L52 169 C52 15 126 -10 207 -10 C295 -10 344 66 344 66 L347 0 L428 0 C374 -29 313 -70 313 -132 C313 -203 372 -228 431 -228 C494 -228 539 -208 539 -208 L539 -128 C539 -128 520 -131 503 -131 C483 -131 445 -130 445 -89 C445 -71 457 -39 513 0 L518 0 L518 520 Z " />
<glyph glyph-name="Wcircumflex" unicode="&#x174;" horiz-adv-x="979" d="M382 933 L280 772 L448 772 L485 866 L524 772 L697 772 L595 933 L382 933 Z M393 0 L430 198 C455 334 486 486 486 486 C486 486 521 333 548 198 L588 0 L780 0 L970 712 L773 712 L728 491 C706 382 682 236 682 236 C682 236 655 385 633 489 L585 712 L401 712 L356 490 C332 373 307 237 307 237 C307 237 282 379 257 490 L207 712 L9 712 L207 0 L393 0 Z " />
<glyph glyph-name="wcircumflex" unicode="&#x175;" horiz-adv-x="811" d="M342 0 L378 177 C389 232 401 320 402 323 C403 315 421 231 435 177 L479 0 L639 0 L811 520 L630 520 L587 350 C570 283 553 185 553 185 C553 185 534 287 519 349 L478 520 L324 520 L288 351 C274 288 263 192 262 186 C260 195 242 294 228 349 L185 520 L0 520 L169 0 L342 0 Z M302 737 L205 584 L366 584 L401 672 L437 584 L603 584 L506 737 L302 737 Z " />
<glyph glyph-name="Ycircumflex" unicode="&#x176;" horiz-adv-x="665" d="M238 0 L424 0 L424 291 L669 712 L462 712 L414 615 C380 546 336 452 336 452 C336 452 289 547 257 614 L210 712 L-4 712 L238 294 L238 0 Z M225 933 L123 772 L291 772 L328 866 L367 772 L540 772 L438 933 L225 933 Z " />
<glyph glyph-name="ycircumflex" unicode="&#x177;" horiz-adv-x="536" d="M183 40 C162 -30 138 -55 85 -55 C69 -55 60 -54 60 -54 L60 -181 C60 -181 101 -191 144 -191 C249 -191 289 -117 322 -35 L547 520 L365 520 L299 312 C284 265 275 210 275 210 C275 210 263 270 251 309 L187 520 L2 520 L184 51 L183 40 Z M162 737 L65 584 L226 584 L261 672 L297 584 L463 584 L366 737 L162 737 Z " />
<glyph glyph-name="Ydieresis" unicode="&#x178;" horiz-adv-x="665" d="M238 0 L424 0 L424 291 L669 712 L462 712 L414 615 C380 546 336 452 336 452 C336 452 289 547 257 614 L210 712 L-4 712 L238 294 L238 0 Z M136 778 L295 778 L295 926 L136 926 L136 778 Z M366 778 L526 778 L526 926 L366 926 L366 778 Z " />
<glyph glyph-name="Zacute" unicode="&#x179;" horiz-adv-x="610" d="M288 934 L201 773 L355 773 L494 934 L288 934 Z M36 0 L580 0 L580 149 L259 149 L574 596 L574 712 L48 712 L48 564 L355 564 L36 114 L36 0 Z " />
<glyph glyph-name="zacute" unicode="&#x17a;" horiz-adv-x="502" d="M260 737 L176 584 L324 584 L457 737 L260 737 Z M23 0 L469 0 L469 134 L230 134 L463 418 L463 520 L62 520 L62 388 L250 388 L23 99 L23 0 Z " />
<glyph glyph-name="Zdotaccent" unicode="&#x17b;" horiz-adv-x="610" d="M36 0 L580 0 L580 149 L259 149 L574 596 L574 712 L48 712 L48 564 L355 564 L36 114 L36 0 Z M224 786 L390 786 L390 935 L224 935 L224 786 Z " />
<glyph glyph-name="zdotaccent" unicode="&#x17c;" horiz-adv-x="502" d="M23 0 L469 0 L469 134 L230 134 L463 418 L463 520 L62 520 L62 388 L250 388 L23 99 L23 0 Z M176 597 L335 597 L335 738 L176 738 L176 597 Z " />
<glyph glyph-name="Zcaron" unicode="&#x17d;" horiz-adv-x="610" d="M413 771 L515 932 L348 932 L311 837 L272 932 L98 932 L200 771 L413 771 Z M36 0 L580 0 L580 149 L259 149 L574 596 L574 712 L48 712 L48 564 L355 564 L36 114 L36 0 Z " />
<glyph glyph-name="zcaron" unicode="&#x17e;" horiz-adv-x="502" d="M343 584 L440 737 L281 737 L246 649 L210 737 L42 737 L139 584 L343 584 Z M23 0 L469 0 L469 134 L230 134 L463 418 L463 520 L62 520 L62 388 L250 388 L23 99 L23 0 Z " />
<glyph glyph-name="florin" unicode="&#x192;" horiz-adv-x="643" d="M593 676 C593 676 553 687 497 687 C371 687 311 623 288 532 L262 425 L147 425 L147 291 L233 291 L185 90 C174 46 162 15 97 15 C70 15 49 19 49 19 L49 -114 C49 -114 113 -127 177 -127 C314 -127 345 -23 361 49 L415 291 L544 291 L544 425 L445 425 L455 468 C464 505 476 544 537 544 C562 544 593 541 593 541 L593 676 Z " />
<glyph glyph-name="Acaron" unicode="&#x1cd;" horiz-adv-x="716" d="M524 0 L727 0 L439 712 L280 712 L-10 0 L177 0 L230 145 L473 145 L524 0 Z M464 771 L566 932 L399 932 L362 837 L323 932 L149 932 L251 771 L464 771 Z M309 362 C334 431 353 492 354 495 C355 490 371 435 397 363 L425 282 L280 282 L309 362 Z " />
<glyph glyph-name="acaron" unicode="&#x1ce;" horiz-adv-x="563" d="M322 324 C322 324 275 326 253 326 C93 326 27 270 27 152 C27 41 92 -11 208 -11 C314 -11 361 49 377 66 L378 61 C380 49 392 -9 471 -9 C506 -9 546 0 546 0 L546 121 L532 121 C498 121 487 123 487 162 L487 363 C487 475 425 539 285 539 C57 539 55 364 55 364 L212 364 C216 385 217 417 273 417 C310 417 322 391 322 356 L322 324 Z M318 217 C318 139 294 108 245 108 C199 108 190 137 190 163 C190 195 200 229 265 229 C297 229 318 225 318 225 L318 217 Z M383 584 L480 737 L321 737 L286 649 L250 737 L82 737 L179 584 L383 584 Z " />
<glyph glyph-name="Scommaaccent" unicode="&#x218;" horiz-adv-x="597" d="M211 -194 L281 -194 C281 -199 280 -232 214 -243 L214 -337 C366 -318 377 -226 377 -150 L377 -59 L211 -59 L211 -194 Z M30 221 C30 111 99 -18 310 -18 C532 -18 571 114 571 216 C571 480 221 397 221 524 C221 571 253 586 290 586 C343 586 368 549 370 496 L552 496 C552 665 436 729 292 729 C140 729 45 649 45 502 C45 238 394 324 394 189 C394 136 357 125 321 125 C251 125 222 169 219 221 L30 221 Z " />
<glyph glyph-name="scommaaccent" unicode="&#x219;" horiz-adv-x="457" d="M142 -194 L212 -194 C212 -199 211 -232 145 -243 L145 -337 C297 -318 308 -226 308 -150 L308 -59 L142 -59 L142 -194 Z M23 166 C23 127 25 -18 235 -18 C360 -18 433 34 433 156 C433 350 185 302 185 384 C185 404 195 421 228 421 C275 421 277 374 277 364 L425 364 C425 408 409 539 224 539 C119 539 30 488 30 368 C30 178 283 227 283 144 C283 119 271 99 233 99 C175 99 171 151 171 166 L23 166 Z " />
<glyph glyph-name="Tcommaaccent" unicode="&#x21a;" horiz-adv-x="580" d="M206 -194 L276 -194 C276 -199 275 -232 209 -243 L209 -337 C361 -318 372 -226 372 -150 L372 -59 L206 -59 L206 -194 Z M196 0 L383 0 L383 561 L575 561 L575 712 L6 712 L6 561 L196 561 L196 0 Z " />
<glyph glyph-name="tcedilla" unicode="&#x21b;" horiz-adv-x="377" d="M71 -204 C71 -204 120 -249 202 -249 C295 -249 335 -206 335 -134 C335 -101 314 -53 242 -53 C223 -53 213 -55 213 -55 L241 -13 L243 -13 C286 -13 353 1 353 1 L353 119 L335 119 C263 119 257 126 257 185 L257 402 L358 402 L358 520 L257 520 L257 670 L80 629 L80 520 L-1 520 L-1 402 L80 402 L80 194 C80 98 86 22 169 -3 L119 -82 L148 -108 C148 -108 166 -102 185 -102 C211 -102 224 -113 224 -134 C224 -153 213 -166 186 -166 C145 -166 111 -138 111 -138 L71 -204 Z " />
<glyph glyph-name="Adotaccent" unicode="&#x226;" horiz-adv-x="716" d="M524 0 L727 0 L439 712 L280 712 L-10 0 L177 0 L230 145 L473 145 L524 0 Z M275 786 L441 786 L441 935 L275 935 L275 786 Z M309 362 C334 431 353 492 354 495 C355 490 371 435 397 363 L425 282 L280 282 L309 362 Z " />
<glyph glyph-name="adotaccent" unicode="&#x227;" horiz-adv-x="563" d="M322 324 C322 324 275 326 253 326 C93 326 27 270 27 152 C27 41 92 -11 208 -11 C314 -11 361 49 377 66 L378 61 C380 49 392 -9 471 -9 C506 -9 546 0 546 0 L546 121 L532 121 C498 121 487 123 487 162 L487 363 C487 475 425 539 285 539 C57 539 55 364 55 364 L212 364 C216 385 217 417 273 417 C310 417 322 391 322 356 L322 324 Z M318 217 C318 139 294 108 245 108 C199 108 190 137 190 163 C190 195 200 229 265 229 C297 229 318 225 318 225 L318 217 Z M201 597 L360 597 L360 738 L201 738 L201 597 Z " />
<glyph glyph-name="Odotaccent" unicode="&#x22e;" horiz-adv-x="735" d="M28 356 C28 75 181 -18 367 -18 C554 -18 707 91 707 356 C707 611 564 729 367 729 C181 729 28 611 28 356 L28 356 Z M220 356 C220 536 289 578 367 578 C446 578 515 536 515 356 C515 170 445 133 367 133 C287 133 220 170 220 356 L220 356 Z M284 786 L450 786 L450 935 L284 935 L284 786 Z " />
<glyph glyph-name="odotaccent" unicode="&#x22f;" horiz-adv-x="563" d="M26 260 C26 45 142 -18 282 -18 C423 -18 538 53 538 260 C538 449 430 539 282 539 C140 539 26 452 26 260 L26 260 Z M202 260 C202 379 239 405 282 405 C324 405 361 378 361 260 C361 134 323 116 282 116 C240 116 202 134 202 260 L202 260 Z M201 597 L360 597 L360 738 L201 738 L201 597 Z " />
<glyph glyph-name="Ymacron" unicode="&#x232;" horiz-adv-x="665" d="M238 0 L424 0 L424 291 L669 712 L462 712 L414 615 C380 546 336 452 336 452 C336 452 289 547 257 614 L210 712 L-4 712 L238 294 L238 0 Z M172 793 L492 793 L492 911 L172 911 L172 793 Z " />
<glyph glyph-name="ymacron" unicode="&#x233;" horiz-adv-x="536" d="M183 40 C162 -30 138 -55 85 -55 C69 -55 60 -54 60 -54 L60 -181 C60 -181 101 -191 144 -191 C249 -191 289 -117 322 -35 L547 520 L365 520 L299 312 C285 267 276 216 275 211 C273 219 262 273 251 309 L187 520 L2 520 L184 51 L183 40 Z M114 604 L418 604 L418 717 L114 717 L114 604 Z " />
<glyph glyph-name="dotlessj" unicode="&#x237;" horiz-adv-x="292" d="M-31 -179 C-31 -179 4 -186 58 -186 C224 -186 238 -84 238 57 L238 520 L60 520 L60 33 C60 -4 56 -37 -1 -37 L-31 -37 L-31 -179 Z " />
<glyph glyph-name="circumflex" unicode="&#x2c6;" horiz-adv-x="418" d="M107 737 L10 584 L171 584 L206 672 L242 584 L408 584 L311 737 L107 737 Z " />
<glyph glyph-name="caron" unicode="&#x2c7;" horiz-adv-x="418" d="M311 584 L408 737 L249 737 L214 649 L178 737 L10 737 L107 584 L311 584 Z " />
<glyph glyph-name="breve" unicode="&#x2d8;" horiz-adv-x="381" d="M10 738 C10 688 19 581 193 581 C363 581 370 688 370 738 L229 738 C229 697 225 669 192 669 C158 669 153 698 153 738 L10 738 Z " />
<glyph glyph-name="dotaccent" unicode="&#x2d9;" horiz-adv-x="167" d="M4 597 L163 597 L163 738 L4 738 L4 597 Z " />
<glyph glyph-name="ring" unicode="&#x2da;" horiz-adv-x="284" d="M10 679 C10 594 77 564 142 564 C206 564 274 594 274 679 C274 765 206 795 142 795 C77 795 10 765 10 679 L10 679 Z M99 679 C99 711 121 722 142 722 C163 722 185 711 185 679 C185 649 163 636 142 636 C121 636 99 648 99 679 L99 679 Z " />
<glyph glyph-name="ogonek" unicode="&#x2db;" horiz-adv-x="236" d="M236 -128 C236 -128 217 -131 200 -131 C180 -131 142 -130 142 -89 C142 -71 154 -39 210 0 L125 0 C71 -29 10 -70 10 -132 C10 -203 69 -228 128 -228 C191 -228 236 -208 236 -208 L236 -128 Z " />
<glyph glyph-name="tilde" unicode="&#x2dc;" horiz-adv-x="393" d="M111 588 C111 600 116 624 139 624 C175 624 214 582 284 582 C382 582 382 688 382 732 L287 732 C287 722 283 690 262 690 C224 690 186 736 120 736 C3 736 11 602 11 588 L111 588 Z " />
<glyph glyph-name="hungarumlaut" unicode="&#x2dd;" horiz-adv-x="589" d="M95 737 L12 584 L133 584 L266 737 L95 737 Z M284 737 L201 584 L322 584 L454 737 L284 737 Z " />
<glyph glyph-name="&amp;#x394;" unicode="&#x394;" horiz-adv-x="643" d="M5 0 L637 0 L637 106 L397 712 L241 712 L5 104 L5 0 Z M183 142 L317 488 L449 142 L183 142 Z " />
<glyph glyph-name="&amp;#x2206;" unicode="&#x2206;" horiz-adv-x="643" d="M5 0 L637 0 L637 106 L397 712 L241 712 L5 104 L5 0 Z M183 142 L317 488 L449 142 L183 142 Z " />
<glyph glyph-name="&amp;#x3a9;" unicode="&#x3a9;" horiz-adv-x="643" d="M-19 138 L-19 0 L281 0 L281 141 C214 167 158 248 158 374 C158 503 225 577 324 577 C430 577 483 488 483 376 C483 241 429 169 362 141 L362 0 L660 0 L660 138 L541 138 C541 138 672 189 672 394 C672 602 523 736 324 736 C136 736 -30 621 -30 389 C-30 190 99 138 99 138 L-19 138 Z " />
<glyph glyph-name="&amp;#x2126;" unicode="&#x2126;" horiz-adv-x="643" d="M-19 138 L-19 0 L281 0 L281 141 C214 167 158 248 158 374 C158 503 225 577 324 577 C430 577 483 488 483 376 C483 241 429 169 362 141 L362 0 L660 0 L660 138 L541 138 C541 138 672 189 672 394 C672 602 523 736 324 736 C136 736 -30 621 -30 389 C-30 190 99 138 99 138 L-19 138 Z " />
<glyph glyph-name="pi" unicode="&#x3c0;" horiz-adv-x="643" d="M599 138 L563 138 C533 138 517 144 517 216 L517 376 L588 376 L588 520 L44 520 L44 376 L114 376 L114 -1 L292 -1 L292 376 L338 376 L338 142 C338 67 368 -4 491 -4 C559 -4 599 13 599 13 L599 138 Z " />
<glyph glyph-name="Wgrave" unicode="&#x1e80;" horiz-adv-x="979" d="M393 0 L430 198 C455 334 486 486 486 486 C486 486 521 333 548 198 L588 0 L780 0 L970 712 L773 712 L728 491 C706 382 682 236 682 236 C682 236 655 385 633 489 L585 712 L401 712 L356 490 C332 373 307 237 307 237 C307 237 282 379 257 490 L207 712 L9 712 L207 0 L393 0 Z M275 934 L415 773 L568 773 L482 934 L275 934 Z " />
<glyph glyph-name="wgrave" unicode="&#x1e81;" horiz-adv-x="811" d="M342 0 L378 177 C389 232 401 320 402 323 C403 315 421 231 435 177 L479 0 L639 0 L811 520 L630 520 L587 350 C570 284 554 190 553 185 C551 195 533 290 519 349 L478 520 L324 520 L288 351 C274 288 263 192 262 186 C260 195 242 294 228 349 L185 520 L0 520 L169 0 L342 0 Z M186 737 L320 584 L467 584 L384 737 L186 737 Z " />
<glyph glyph-name="Wacute" unicode="&#x1e82;" horiz-adv-x="979" d="M393 0 L430 198 C455 334 486 486 486 486 C486 486 521 333 548 198 L588 0 L780 0 L970 712 L773 712 L728 491 C706 382 682 236 682 236 C682 236 655 385 633 489 L585 712 L401 712 L356 490 C333 379 309 250 307 238 C304 251 280 384 257 490 L207 712 L9 712 L207 0 L393 0 Z M500 934 L413 773 L567 773 L706 934 L500 934 Z " />
<glyph glyph-name="wacute" unicode="&#x1e83;" horiz-adv-x="811" d="M342 0 L378 177 C389 232 401 320 402 323 C403 315 421 231 435 177 L479 0 L639 0 L811 520 L630 520 L587 350 C570 283 553 185 553 185 C553 185 534 287 519 349 L478 520 L324 520 L288 351 C274 288 263 192 262 186 C260 195 242 294 228 349 L185 520 L0 520 L169 0 L342 0 Z M431 737 L347 584 L495 584 L628 737 L431 737 Z " />
<glyph glyph-name="Wdieresis" unicode="&#x1e84;" horiz-adv-x="979" d="M393 0 L430 198 C455 334 486 486 486 486 C486 486 521 333 548 198 L588 0 L780 0 L970 712 L773 712 L728 491 C706 382 682 236 682 236 C682 236 655 385 633 489 L585 712 L401 712 L356 490 C333 379 309 250 307 238 C304 251 280 384 257 490 L207 712 L9 712 L207 0 L393 0 Z M524 778 L684 778 L684 926 L524 926 L524 778 Z M294 778 L453 778 L453 926 L294 926 L294 778 Z " />
<glyph glyph-name="wdieresis" unicode="&#x1e85;" horiz-adv-x="811" d="M342 0 L378 177 C389 232 401 320 402 323 C403 315 421 231 435 177 L479 0 L639 0 L811 520 L630 520 L587 350 C570 283 553 185 553 185 C553 185 534 287 519 349 L478 520 L324 520 L288 351 C274 286 262 185 262 185 C262 185 243 291 228 349 L185 520 L0 520 L169 0 L342 0 Z M219 578 L371 578 L371 719 L219 719 L219 578 Z M437 578 L589 578 L589 719 L437 719 L437 578 Z " />
<glyph glyph-name="Ygrave" unicode="&#x1ef2;" horiz-adv-x="665" d="M238 0 L424 0 L424 291 L669 712 L462 712 L414 615 C380 546 336 452 336 452 C336 452 289 547 257 614 L210 712 L-4 712 L238 294 L238 0 Z M138 934 L278 773 L431 773 L345 934 L138 934 Z " />
<glyph glyph-name="ygrave" unicode="&#x1ef3;" horiz-adv-x="536" d="M183 40 C162 -30 138 -55 85 -55 C69 -55 60 -54 60 -54 L60 -181 C60 -181 101 -191 144 -191 C249 -191 289 -117 322 -35 L547 520 L365 520 L299 312 C284 265 275 210 275 210 C275 210 263 270 251 309 L187 520 L2 520 L184 51 L183 40 Z M74 737 L208 584 L355 584 L272 737 L74 737 Z " />
<glyph glyph-name="endash" unicode="&#x2013;" horiz-adv-x="470" d="M0 203 L470 203 L470 344 L0 344 L0 203 Z " />
<glyph glyph-name="emdash" unicode="&#x2014;" horiz-adv-x="678" d="M0 203 L678 203 L678 344 L0 344 L0 203 Z " />
<glyph glyph-name="quoteleft" unicode="&#x2018;" horiz-adv-x="299" d="M244 523 L171 523 C171 532 173 589 241 602 L241 713 C77 701 58 570 58 491 L58 356 L244 356 L244 523 Z " />
<glyph glyph-name="quoteright" unicode="&#x2019;" horiz-adv-x="299" d="M62 546 L135 546 C135 537 133 480 65 467 L65 356 C229 368 248 499 248 578 L248 713 L62 713 L62 546 Z " />
<glyph glyph-name="quotesinglbase" unicode="&#x201a;" horiz-adv-x="299" d="M62 0 L135 0 C135 -9 133 -66 65 -79 L65 -190 C229 -178 248 -47 248 32 L248 167 L62 167 L62 0 Z " />
<glyph glyph-name="quotedblleft" unicode="&#x201c;" horiz-adv-x="523" d="M470 523 L397 523 C397 532 399 589 467 602 L467 713 C303 701 284 570 284 491 L284 356 L470 356 L470 523 Z M240 523 L167 523 C167 532 169 589 237 602 L237 713 C73 701 54 570 54 491 L54 356 L240 356 L240 523 Z " />
<glyph glyph-name="quotedblright" unicode="&#x201d;" horiz-adv-x="523" d="M59 546 L132 546 C132 537 130 480 62 467 L62 356 C226 368 245 499 245 578 L245 713 L59 713 L59 546 Z M289 546 L362 546 C362 537 360 480 292 467 L292 356 C456 368 475 499 475 578 L475 713 L289 713 L289 546 Z " />
<glyph glyph-name="quotedblbase" unicode="&#x201e;" horiz-adv-x="523" d="M59 0 L132 0 C132 -9 130 -66 62 -79 L62 -190 C226 -178 245 -47 245 32 L245 167 L59 167 L59 0 Z M289 0 L362 0 C362 -9 360 -66 292 -79 L292 -190 C456 -178 475 -47 475 32 L475 167 L289 167 L289 0 Z " />
<glyph glyph-name="dagger" unicode="&#x2020;" horiz-adv-x="643" d="M93 343 L234 343 L234 0 L409 0 L409 343 L550 343 L550 488 L409 488 L409 694 L234 694 L234 488 L93 488 L93 343 Z " />
<glyph glyph-name="daggerdbl" unicode="&#x2021;" horiz-adv-x="643" d="M234 291 L93 291 L93 145 L234 145 L234 0 L409 0 L409 145 L550 145 L550 291 L409 291 L409 403 L550 403 L550 548 L409 548 L409 694 L234 694 L234 548 L93 548 L93 403 L234 403 L234 291 Z " />
<glyph glyph-name="bullet" unicode="&#x2022;" horiz-adv-x="416" d="M30 339 C30 229 110 161 208 161 C305 161 386 229 386 339 C386 449 305 518 208 518 C110 518 30 449 30 339 L30 339 Z " />
<glyph glyph-name="ellipsis" unicode="&#x2026;" horiz-adv-x="840" d="M47 0 L231 0 L231 168 L47 168 L47 0 Z M327 0 L511 0 L511 168 L327 168 L327 0 Z M607 0 L791 0 L791 168 L607 168 L607 0 Z " />
<glyph glyph-name="perthousand" unicode="&#x2030;" horiz-adv-x="1224" d="M218 462 C184 462 177 489 177 536 C177 585 183 613 218 613 C253 613 259 585 259 536 C259 489 252 462 218 462 L218 462 Z M276 -16 L698 712 L569 712 L136 -16 L276 -16 Z M33 536 C33 423 111 364 218 364 C326 364 402 433 402 536 C402 643 336 712 218 712 C109 712 33 643 33 536 L33 536 Z M583 154 C583 204 589 231 624 231 C659 231 665 204 665 154 C665 107 658 81 624 81 C590 81 583 107 583 154 L583 154 Z M439 155 C439 41 517 -18 624 -18 C732 -18 808 51 808 155 C808 261 743 330 624 330 C515 330 439 261 439 155 L439 155 Z M966 154 C966 204 972 231 1007 231 C1042 231 1048 204 1048 154 C1048 107 1041 81 1007 81 C973 81 966 107 966 154 L966 154 Z M822 155 C822 41 901 -18 1007 -18 C1115 -18 1191 51 1191 155 C1191 261 1126 330 1007 330 C898 330 822 261 822 155 L822 155 Z " />
<glyph glyph-name="guilsinglleft" unicode="&#x2039;" horiz-adv-x="340" d="M137 459 L23 256 L137 53 L317 53 L204 259 L317 459 L137 459 Z " />
<glyph glyph-name="guilsinglright" unicode="&#x203a;" horiz-adv-x="340" d="M26 459 L138 259 L25 53 L205 53 L319 256 L205 459 L26 459 Z " />
<glyph glyph-name="fraction" unicode="&#x2044;" horiz-adv-x="135" d="M-234 -10 L-94 -10 L378 721 L237 721 L-234 -10 Z " />
<glyph glyph-name="zero.superior" unicode="&#x2070;" horiz-adv-x="446" d="M25 592 C25 404 132 375 224 375 C314 375 421 411 421 592 C421 767 314 813 224 813 C132 813 25 770 25 592 L25 592 Z M166 592 C166 679 191 700 224 700 C255 700 280 670 280 592 C280 506 255 489 224 489 C191 489 166 506 166 592 L166 592 Z " />
<glyph glyph-name="four.superior" unicode="&#x2074;" horiz-adv-x="446" d="M42 470 L223 470 L223 386 L360 386 L360 470 L404 470 L404 562 L360 562 L360 801 L217 801 L42 549 L42 470 Z M136 562 L223 685 L223 562 L136 562 Z " />
<glyph glyph-name="five.superior" unicode="&#x2075;" horiz-adv-x="446" d="M70 510 C70 455 100 375 230 375 C357 375 393 453 393 529 C393 597 361 663 269 663 C210 663 191 641 191 641 L202 699 L364 699 L364 801 L114 801 L76 562 L181 549 C181 549 191 579 223 579 C254 579 262 556 262 534 C262 509 256 477 223 477 C185 477 182 510 182 510 L70 510 Z " />
<glyph glyph-name="six.superior" unicode="&#x2076;" horiz-adv-x="446" d="M397 687 C397 703 384 812 243 812 C86 812 51 672 51 565 C51 451 97 375 239 375 C345 375 412 426 412 529 C412 623 354 666 267 666 C204 666 178 632 178 632 C180 669 189 717 236 717 C272 717 277 687 277 687 L397 687 Z M235 468 C200 468 188 488 188 524 C188 557 208 573 236 573 C267 573 282 552 282 520 C282 486 267 468 235 468 L235 468 Z " />
<glyph glyph-name="seven.superior" unicode="&#x2077;" horiz-adv-x="385" d="M210 386 C216 495 356 713 356 713 L356 801 L40 801 L40 695 L230 695 C165 624 80 482 66 386 L210 386 Z " />
<glyph glyph-name="eight.superior" unicode="&#x2078;" horiz-adv-x="446" d="M49 502 C49 403 137 376 228 376 C320 376 406 403 406 502 C406 591 324 607 320 608 C327 610 391 634 391 697 C391 785 311 813 228 813 C139 813 63 785 63 697 C63 628 127 609 130 608 C123 606 49 584 49 502 L49 502 Z M174 510 C174 545 197 557 228 557 C258 557 281 545 281 510 C281 475 255 463 228 463 C199 463 174 474 174 510 L174 510 Z M186 691 C186 721 205 732 228 732 C250 732 269 721 269 691 C269 663 250 652 228 652 C205 652 186 663 186 691 L186 691 Z " />
<glyph glyph-name="nine.superior" unicode="&#x2079;" horiz-adv-x="446" d="M54 500 C54 500 52 373 224 373 C384 373 407 509 407 620 C407 729 362 813 222 813 C115 813 41 765 41 660 C41 570 96 525 194 525 C253 525 279 551 279 551 C279 501 272 463 223 463 C173 463 170 501 170 501 L54 500 Z M172 670 C172 708 196 721 219 721 C243 721 267 709 267 669 C267 628 249 615 221 615 C195 615 172 623 172 670 L172 670 Z " />
<glyph glyph-name="n.superior" unicode="&#x207f;" horiz-adv-x="398" d="M42 330 L177 330 L177 515 C177 543 183 555 202 555 C219 555 222 544 222 515 L222 330 L358 330 L358 532 C358 641 321 658 265 658 C207 658 173 609 173 609 L173 651 L42 651 L42 330 Z " />
<glyph glyph-name="zero.inferior" unicode="&#x2080;" horiz-adv-x="446" d="M25 50 C25 -138 132 -167 224 -167 C314 -167 421 -131 421 50 C421 225 314 271 224 271 C132 271 25 228 25 50 L25 50 Z M166 50 C166 137 191 158 224 158 C255 158 280 128 280 50 C280 -36 255 -53 224 -53 C191 -53 166 -36 166 50 L166 50 Z " />
<glyph glyph-name="one.inferior" unicode="&#x2081;" horiz-adv-x="360" d="M279 -156 L279 259 L167 259 C150 208 85 197 57 194 L57 68 C81 70 111 74 144 96 L144 -156 L279 -156 Z " />
<glyph glyph-name="two.inferior" unicode="&#x2082;" horiz-adv-x="446" d="M62 -156 L398 -156 L398 -39 L222 -39 C336 10 391 78 391 143 C391 238 323 272 231 272 C53 272 49 112 49 107 L178 107 C178 107 179 161 221 161 C246 161 251 146 251 134 C251 86 209 57 62 -54 L62 -156 Z " />
<glyph glyph-name="three.inferior" unicode="&#x2083;" horiz-adv-x="446" d="M46 -10 C47 -139 136 -167 236 -167 C371 -167 410 -106 410 -29 C410 56 316 62 308 63 C320 65 398 81 398 160 C398 212 360 271 242 271 C146 271 73 236 59 127 L182 127 C184 158 205 165 225 165 C252 165 259 149 259 134 C259 117 257 91 192 91 L165 91 L165 17 L199 17 C258 17 269 0 269 -24 C269 -44 261 -61 225 -61 C178 -61 171 -28 171 -10 L46 -10 Z " />
<glyph glyph-name="four.inferior" unicode="&#x2084;" horiz-adv-x="446" d="M42 -72 L223 -72 L223 -156 L360 -156 L360 -72 L404 -72 L404 20 L360 20 L360 259 L217 259 L42 7 L42 -72 Z M136 20 L223 143 L223 20 L136 20 Z " />
<glyph glyph-name="five.inferior" unicode="&#x2085;" horiz-adv-x="446" d="M70 -32 C70 -87 100 -167 230 -167 C357 -167 393 -89 393 -13 C393 55 361 121 269 121 C210 121 191 99 191 99 L202 157 L364 157 L364 259 L114 259 L76 20 L181 7 C181 7 191 37 223 37 C254 37 262 14 262 -8 C262 -33 256 -65 223 -65 C185 -65 182 -32 182 -32 L70 -32 Z " />
<glyph glyph-name="six.inferior" unicode="&#x2086;" horiz-adv-x="446" d="M397 145 C397 161 384 270 243 270 C86 270 51 130 51 23 C51 -91 97 -167 239 -167 C345 -167 412 -116 412 -13 C412 81 354 124 267 124 C204 124 178 90 178 90 C180 127 189 175 236 175 C272 175 277 145 277 145 L397 145 Z M235 -74 C200 -74 188 -54 188 -18 C188 15 208 31 236 31 C267 31 282 10 282 -22 C282 -56 267 -74 235 -74 L235 -74 Z " />
<glyph glyph-name="seven.inferior" unicode="&#x2087;" horiz-adv-x="385" d="M210 -156 C216 -47 356 171 356 171 L356 259 L40 259 L40 153 L230 153 C165 82 80 -60 66 -156 L210 -156 Z " />
<glyph glyph-name="eight.inferior" unicode="&#x2088;" horiz-adv-x="446" d="M49 -40 C49 -139 137 -166 228 -166 C320 -166 406 -139 406 -40 C406 49 324 65 320 66 C327 68 391 92 391 155 C391 243 311 271 228 271 C139 271 63 243 63 155 C63 86 127 67 130 66 C123 64 49 42 49 -40 L49 -40 Z M174 -32 C174 3 197 15 228 15 C258 15 281 3 281 -32 C281 -67 255 -79 228 -79 C199 -79 174 -68 174 -32 L174 -32 Z M186 149 C186 179 205 190 228 190 C250 190 269 179 269 149 C269 121 250 110 228 110 C205 110 186 121 186 149 L186 149 Z " />
<glyph glyph-name="nine.inferior" unicode="&#x2089;" horiz-adv-x="446" d="M54 -42 C54 -42 52 -169 224 -169 C384 -169 407 -33 407 78 C407 187 362 271 222 271 C115 271 41 223 41 118 C41 28 96 -17 194 -17 C253 -17 279 9 279 9 C279 -41 272 -79 223 -79 C173 -79 170 -41 170 -41 L54 -42 Z M172 128 C172 166 196 179 219 179 C243 179 267 167 267 127 C267 86 249 73 221 73 C195 73 172 81 172 128 L172 128 Z " />
<glyph glyph-name="Euro" unicode="&#x20ac;" horiz-adv-x="643" d="M54 229 L114 229 C141 34 237 -18 364 -18 C579 -18 589 183 589 233 L421 233 C420 192 411 132 361 132 C317 132 299 159 293 229 L395 229 L395 318 L289 318 L289 354 L289 358 L395 358 L395 448 L292 448 C301 556 327 564 359 564 C412 564 419 496 423 457 L591 457 C591 514 572 712 363 712 C269 712 138 677 111 448 L54 448 L54 358 L106 358 L106 355 L106 318 L54 318 L54 229 Z " />
<glyph glyph-name="trademark" unicode="&#x2122;" horiz-adv-x="536" d="M245 460 L325 460 L325 511 C325 539 323 584 323 585 C325 581 338 551 346 536 L362 503 L402 503 L417 535 C426 552 439 584 440 585 C440 584 439 539 439 511 L439 460 L517 460 L517 712 L442 712 L407 641 L382 587 L357 640 L321 712 L245 712 L245 460 Z M68 460 L155 460 L155 642 L218 642 L218 712 L4 712 L4 642 L68 642 L68 460 Z " />
<glyph glyph-name="onethird" unicode="&#x2153;" horiz-adv-x="1027" d="M626 146 C627 17 716 -11 816 -11 C951 -11 990 50 990 127 C990 212 896 218 888 219 C900 221 978 237 978 316 C978 368 940 427 822 427 C726 427 653 392 639 283 L762 283 C764 314 785 321 805 321 C832 321 839 305 839 290 C839 273 837 247 772 247 L745 247 L745 173 L779 173 C838 173 849 156 849 132 C849 112 841 95 805 95 C758 95 751 128 751 146 L626 146 Z M212 -10 L352 -10 L824 721 L683 721 L212 -10 Z M329 285 L329 700 L217 700 C200 649 135 638 107 635 L107 509 C131 511 161 515 194 537 L194 285 L329 285 Z " />
<glyph glyph-name="twothirds" unicode="&#x2154;" horiz-adv-x="1027" d="M626 146 C627 17 716 -11 816 -11 C951 -11 990 50 990 127 C990 212 896 218 888 219 C900 221 978 237 978 316 C978 368 940 427 822 427 C726 427 653 392 639 283 L762 283 C764 314 785 321 805 321 C832 321 839 305 839 290 C839 273 837 247 772 247 L745 247 L745 173 L779 173 C838 173 849 156 849 132 C849 112 841 95 805 95 C758 95 751 128 751 146 L626 146 Z M58 285 L394 285 L394 402 L218 402 C332 451 387 519 387 584 C387 679 319 713 227 713 C49 713 45 553 45 548 L174 548 C174 548 175 602 217 602 C242 602 247 587 247 575 C247 527 205 498 58 387 L58 285 Z M212 -10 L352 -10 L824 721 L683 721 L212 -10 Z " />
<glyph glyph-name="onefifth" unicode="&#x2155;" horiz-adv-x="1027" d="M212 -10 L352 -10 L824 721 L683 721 L212 -10 Z M329 285 L329 700 L217 700 C200 649 135 638 107 635 L107 509 C131 511 161 515 194 537 L194 285 L329 285 Z M642 124 C642 69 672 -11 802 -11 C929 -11 965 67 965 143 C965 211 933 277 841 277 C782 277 763 255 763 255 L774 313 L936 313 L936 415 L686 415 L648 176 L753 163 C753 163 763 193 795 193 C826 193 834 170 834 148 C834 123 828 91 795 91 C757 91 754 124 754 124 L642 124 Z " />
<glyph glyph-name="twofifths" unicode="&#x2156;" horiz-adv-x="1027" d="M58 285 L394 285 L394 402 L218 402 C332 451 387 519 387 584 C387 679 319 713 227 713 C49 713 45 553 45 548 L174 548 C174 548 175 602 217 602 C242 602 247 587 247 575 C247 527 205 498 58 387 L58 285 Z M212 -10 L352 -10 L824 721 L683 721 L212 -10 Z M642 124 C642 69 672 -11 802 -11 C929 -11 965 67 965 143 C965 211 933 277 841 277 C782 277 763 255 763 255 L774 313 L936 313 L936 415 L686 415 L648 176 L753 163 C753 163 763 193 795 193 C826 193 834 170 834 148 C834 123 828 91 795 91 C757 91 754 124 754 124 L642 124 Z " />
<glyph glyph-name="threefifths" unicode="&#x2157;" horiz-adv-x="1027" d="M46 431 C47 302 136 274 236 274 C371 274 410 335 410 412 C410 497 316 503 308 504 C320 506 398 522 398 601 C398 653 360 712 242 712 C146 712 73 677 59 568 L182 568 C184 599 205 606 225 606 C252 606 259 590 259 575 C259 558 257 532 192 532 L165 532 L165 458 L199 458 C258 458 269 441 269 417 C269 397 261 380 225 380 C178 380 171 413 171 431 L46 431 Z M212 -10 L352 -10 L824 721 L683 721 L212 -10 Z M642 124 C642 69 672 -11 802 -11 C929 -11 965 67 965 143 C965 211 933 277 841 277 C782 277 763 255 763 255 L774 313 L936 313 L936 415 L686 415 L648 176 L753 163 C753 163 763 193 795 193 C826 193 834 170 834 148 C834 123 828 91 795 91 C757 91 754 124 754 124 L642 124 Z " />
<glyph glyph-name="fourfifths" unicode="&#x2158;" horiz-adv-x="1027" d="M42 369 L223 369 L223 285 L360 285 L360 369 L404 369 L404 461 L360 461 L360 700 L217 700 L42 448 L42 369 Z M136 461 L223 584 L223 461 L136 461 Z M212 -10 L352 -10 L824 721 L683 721 L212 -10 Z M642 124 C642 69 672 -11 802 -11 C929 -11 965 67 965 143 C965 211 933 277 841 277 C782 277 763 255 763 255 L774 313 L936 313 L936 415 L686 415 L648 176 L753 163 C753 163 763 193 795 193 C826 193 834 170 834 148 C834 123 828 91 795 91 C757 91 754 124 754 124 L642 124 Z " />
<glyph glyph-name="onesixth" unicode="&#x2159;" horiz-adv-x="1027" d="M968 301 C968 317 955 426 814 426 C657 426 622 286 622 179 C622 65 668 -11 810 -11 C916 -11 983 40 983 143 C983 237 925 280 838 280 C775 280 749 246 749 246 C751 283 760 331 807 331 C843 331 848 301 848 301 L968 301 Z M806 82 C771 82 759 102 759 138 C759 171 779 187 807 187 C838 187 853 166 853 134 C853 100 838 82 806 82 L806 82 Z M329 285 L329 700 L217 700 C200 649 135 638 107 635 L107 509 C131 511 161 515 194 537 L194 285 L329 285 Z M212 -10 L352 -10 L824 721 L683 721 L212 -10 Z " />
<glyph glyph-name="fivesixths" unicode="&#x215a;" horiz-adv-x="1027" d="M968 301 C968 317 955 426 814 426 C657 426 622 286 622 179 C622 65 668 -11 810 -11 C916 -11 983 40 983 143 C983 237 925 280 838 280 C775 280 749 246 749 246 C751 283 760 331 807 331 C843 331 848 301 848 301 L968 301 Z M806 82 C771 82 759 102 759 138 C759 171 779 187 807 187 C838 187 853 166 853 134 C853 100 838 82 806 82 L806 82 Z M62 409 C62 354 92 274 222 274 C349 274 385 352 385 428 C385 496 353 562 261 562 C202 562 183 540 183 540 L194 598 L356 598 L356 700 L106 700 L68 461 L173 448 C173 448 183 478 215 478 C246 478 254 455 254 433 C254 408 248 376 215 376 C177 376 174 409 174 409 L62 409 Z M212 -10 L352 -10 L824 721 L683 721 L212 -10 Z " />
<glyph glyph-name="oneeighth" unicode="&#x215b;" horiz-adv-x="1027" d="M624 116 C624 17 712 -10 803 -10 C895 -10 981 17 981 116 C981 205 899 221 895 222 C902 224 966 248 966 311 C966 399 886 427 803 427 C714 427 638 399 638 311 C638 242 702 223 705 222 C698 220 624 198 624 116 L624 116 Z M212 -10 L352 -10 L824 721 L683 721 L212 -10 Z M329 285 L329 700 L217 700 C200 649 135 638 107 635 L107 509 C131 511 161 515 194 537 L194 285 L329 285 Z M749 124 C749 159 772 171 803 171 C833 171 856 159 856 124 C856 89 830 77 803 77 C774 77 749 88 749 124 L749 124 Z M761 305 C761 335 780 346 803 346 C825 346 844 335 844 305 C844 277 825 266 803 266 C780 266 761 277 761 305 L761 305 Z " />
<glyph glyph-name="threeeighths" unicode="&#x215c;" horiz-adv-x="1027" d="M624 116 C624 17 712 -10 803 -10 C895 -10 981 17 981 116 C981 205 899 221 895 222 C902 224 966 248 966 311 C966 399 886 427 803 427 C714 427 638 399 638 311 C638 242 702 223 705 222 C698 220 624 198 624 116 L624 116 Z M46 431 C47 302 136 274 236 274 C371 274 410 335 410 412 C410 497 316 503 308 504 C320 506 398 522 398 601 C398 653 360 712 242 712 C146 712 73 677 59 568 L182 568 C184 599 205 606 225 606 C252 606 259 590 259 575 C259 558 257 532 192 532 L165 532 L165 458 L199 458 C258 458 269 441 269 417 C269 397 261 380 225 380 C178 380 171 413 171 431 L46 431 Z M212 -10 L352 -10 L824 721 L683 721 L212 -10 Z M749 124 C749 159 772 171 803 171 C833 171 856 159 856 124 C856 89 830 77 803 77 C774 77 749 88 749 124 L749 124 Z M761 305 C761 335 780 346 803 346 C825 346 844 335 844 305 C844 277 825 266 803 266 C780 266 761 277 761 305 L761 305 Z " />
<glyph glyph-name="fiveeighths" unicode="&#x215d;" horiz-adv-x="1027" d="M624 116 C624 17 712 -10 803 -10 C895 -10 981 17 981 116 C981 205 899 221 895 222 C902 224 966 248 966 311 C966 399 886 427 803 427 C714 427 638 399 638 311 C638 242 702 223 705 222 C698 220 624 198 624 116 L624 116 Z M212 -10 L352 -10 L824 721 L683 721 L212 -10 Z M62 409 C62 354 92 274 222 274 C349 274 385 352 385 428 C385 496 353 562 261 562 C202 562 183 540 183 540 L194 598 L356 598 L356 700 L106 700 L68 461 L173 448 C173 448 183 478 215 478 C246 478 254 455 254 433 C254 408 248 376 215 376 C177 376 174 409 174 409 L62 409 Z M749 124 C749 159 772 171 803 171 C833 171 856 159 856 124 C856 89 830 77 803 77 C774 77 749 88 749 124 L749 124 Z M761 305 C761 335 780 346 803 346 C825 346 844 335 844 305 C844 277 825 266 803 266 C780 266 761 277 761 305 L761 305 Z " />
<glyph glyph-name="seveneighths" unicode="&#x215e;" horiz-adv-x="1027" d="M624 116 C624 17 712 -10 803 -10 C895 -10 981 17 981 116 C981 205 899 221 895 222 C902 224 966 248 966 311 C966 399 886 427 803 427 C714 427 638 399 638 311 C638 242 702 223 705 222 C698 220 624 198 624 116 L624 116 Z M212 -10 L352 -10 L824 721 L683 721 L212 -10 Z M235 285 C241 394 381 612 381 612 L381 700 L65 700 L65 594 L255 594 C190 523 105 381 91 285 L235 285 Z M749 124 C749 159 772 171 803 171 C833 171 856 159 856 124 C856 89 830 77 803 77 C774 77 749 88 749 124 L749 124 Z M761 305 C761 335 780 346 803 346 C825 346 844 335 844 305 C844 277 825 266 803 266 C780 266 761 277 761 305 L761 305 Z " />
<glyph glyph-name="onefraction" unicode="&#x215f;" horiz-adv-x="581" d="M329 285 L329 700 L217 700 C200 649 135 638 107 635 L107 509 C131 511 161 515 194 537 L194 285 L329 285 Z M212 -10 L352 -10 L824 721 L683 721 L212 -10 Z " />
<glyph glyph-name="partialdiff" unicode="&#x2202;" horiz-adv-x="643" d="M148 570 C148 571 218 624 283 624 C343 624 404 583 417 466 C419 452 419 437 419 420 C419 420 377 483 287 483 C163 483 67 397 67 229 C67 84 152 -7 301 -7 C483 -7 574 155 574 375 C574 617 489 767 298 767 C192 767 87 698 87 698 L148 570 Z M304 137 C263 137 242 164 242 227 C242 300 263 339 311 339 C343 339 375 314 388 290 C382 182 355 137 304 137 L304 137 Z " />
<glyph glyph-name="product" unicode="&#x220f;" horiz-adv-x="643" d="M657 549 L657 694 L-13 694 L-13 549 L85 549 L85 0 L263 0 L263 549 L383 549 L383 0 L563 0 L563 549 L657 549 Z " />
<glyph glyph-name="summation" unicode="&#x2211;" horiz-adv-x="643" d="M596 -147 L596 -3 L255 -3 L455 275 L269 549 L582 549 L582 694 L57 694 L57 554 L254 271 L47 -28 L47 -147 L596 -147 Z " />
<glyph glyph-name="minus" unicode="&#x2212;" horiz-adv-x="643" d="M83 203 L559 203 L559 344 L83 344 L83 203 Z " />
<glyph glyph-name="radical" unicode="&#x221a;" horiz-adv-x="643" d="M661 673 L661 817 L418 817 L242 247 L173 505 L-18 505 L169 -7 L318 -7 L554 673 L661 673 Z " />
<glyph glyph-name="infinity" unicode="&#x221e;" horiz-adv-x="643" d="M665 282 C665 385 606 457 483 457 C381 457 327 382 327 382 C327 382 269 457 161 457 C52 457 -23 389 -23 278 C-23 152 65 101 165 101 C271 101 325 177 325 177 C325 177 376 101 490 101 C605 101 665 175 665 282 L665 282 Z M172 237 C150 237 131 253 131 278 C131 310 149 323 170 323 C197 323 218 305 236 277 C218 251 200 237 172 237 L172 237 Z M474 237 C444 237 421 259 408 278 C423 301 439 323 472 323 C501 323 514 303 514 279 C514 248 495 237 474 237 L474 237 Z " />
<glyph glyph-name="integral" unicode="&#x222b;" horiz-adv-x="643" d="M409 642 C409 679 415 703 451 703 C481 703 518 693 518 693 L518 838 C518 838 470 849 411 849 C272 849 231 764 231 644 L231 42 C231 -1 225 -14 182 -14 C153 -14 125 -5 125 -5 L125 -150 C125 -150 176 -162 231 -162 C369 -162 409 -77 409 45 L409 642 Z " />
<glyph glyph-name="approxequal" unicode="&#x2248;" horiz-adv-x="643" d="M209 277 C209 277 207 337 251 337 C307 337 352 279 433 279 C555 279 560 396 560 470 L443 470 C443 470 444 409 403 409 C343 409 291 467 216 467 C85 467 82 333 82 277 L209 277 Z M209 57 C209 57 207 117 251 117 C307 117 352 59 433 59 C555 59 560 176 560 250 L443 250 C443 250 444 189 403 189 C343 189 291 247 216 247 C85 247 82 113 82 57 L209 57 Z " />
<glyph glyph-name="notequal" unicode="&#x2260;" horiz-adv-x="643" d="M83 315 L259 315 L235 246 L83 246 L83 105 L188 105 L157 14 L310 14 L340 105 L559 105 L559 246 L388 246 L411 315 L559 315 L559 456 L458 456 L489 548 L338 548 L307 456 L83 456 L83 315 Z " />
<glyph glyph-name="lessequal" unicode="&#x2264;" horiz-adv-x="643" d="M82 401 L82 282 L559 140 L559 280 L285 342 L559 405 L559 541 L82 401 Z M83 0 L559 0 L559 133 L83 133 L83 0 Z " />
<glyph glyph-name="greaterequal" unicode="&#x2265;" horiz-adv-x="643" d="M558 133 L82 133 L82 0 L558 0 L558 133 Z M82 541 L82 405 L356 341 L82 281 L82 140 L559 282 L559 401 L82 541 Z " />
<glyph glyph-name="lozenge" unicode="&#x25ca;" horiz-adv-x="643" d="M584 345 L390 739 L256 739 L59 345 L253 -46 L387 -46 L584 345 Z M408 344 L324 153 L234 347 L322 538 L408 344 Z " />
<glyph glyph-name="Dotaccent" unicode="&#xefed;" horiz-adv-x="166" d="M0 786 L166 786 L166 935 L0 935 L0 786 Z " />
<glyph glyph-name="Breve" unicode="&#xefee;" horiz-adv-x="381" d="M1 934 C1 882 10 769 193 769 C372 769 379 881 379 934 L231 934 C231 891 227 861 192 861 C156 861 151 892 151 934 L1 934 Z " />
<glyph glyph-name="Ogonek" unicode="&#xeff1;" horiz-adv-x="236" d="M236 -128 C236 -128 217 -131 200 -131 C180 -131 142 -130 142 -89 C142 -71 154 -39 210 0 L125 0 C71 -29 10 -70 10 -132 C10 -203 69 -228 128 -228 C191 -228 236 -208 236 -208 L236 -128 Z " />
<glyph glyph-name="Cedilla" unicode="&#xeff2;" horiz-adv-x="264" d="M-1 -204 C-1 -204 48 -249 130 -249 C223 -249 263 -206 263 -134 C263 -101 242 -53 170 -53 C151 -53 141 -55 141 -55 L178 0 L99 0 L47 -82 L76 -108 C76 -108 94 -102 113 -102 C139 -102 152 -113 152 -134 C152 -153 141 -166 114 -166 C73 -166 39 -138 39 -138 L-1 -204 Z " />
<glyph glyph-name="Ring" unicode="&#xeff3;" horiz-adv-x="283" d="M3 851 C3 761 74 730 142 730 C209 730 281 761 281 851 C281 942 209 973 142 973 C74 973 3 942 3 851 L3 851 Z M97 851 C97 885 120 896 142 896 C164 896 187 885 187 851 C187 819 164 806 142 806 C120 806 97 818 97 851 L97 851 Z " />
<glyph glyph-name="Tilde" unicode="&#xeff5;" horiz-adv-x="393" d="M107 775 C107 788 112 813 136 813 C174 813 215 769 289 769 C392 769 392 881 392 927 L292 927 C292 916 288 883 265 883 C226 883 186 931 116 931 C-7 931 1 790 1 775 L107 775 Z " />
<glyph glyph-name="Circumflex" unicode="&#xeff7;" horiz-adv-x="417" d="M102 933 L0 772 L168 772 L205 866 L244 772 L417 772 L315 933 L102 933 Z " />
<glyph glyph-name="one.superior" unicode="&#xf06d;" horiz-adv-x="360" d="M279 386 L279 801 L167 801 C150 750 85 739 57 736 L57 610 C81 612 111 616 144 638 L144 386 L279 386 Z " />
<glyph glyph-name="two.superior" unicode="&#xf06e;" horiz-adv-x="446" d="M62 386 L398 386 L398 503 L222 503 C336 552 391 620 391 685 C391 780 323 814 231 814 C53 814 49 654 49 649 L178 649 C178 649 179 703 221 703 C246 703 251 688 251 676 C251 628 209 599 62 488 L62 386 Z " />
<glyph glyph-name="three.superior" unicode="&#xf06f;" horiz-adv-x="446" d="M46 532 C47 403 136 375 236 375 C371 375 410 436 410 513 C410 598 316 604 308 605 C320 607 398 623 398 702 C398 754 360 813 242 813 C146 813 73 778 59 669 L182 669 C184 700 205 707 225 707 C252 707 259 691 259 676 C259 659 257 633 192 633 L165 633 L165 559 L199 559 C258 559 269 542 269 518 C269 498 261 481 225 481 C178 481 171 514 171 532 L46 532 Z " />
<glyph glyph-name="Mcircumflex" unicode="&#xf116;" horiz-adv-x="817" d="M64 0 L240 0 L240 243 C240 344 235 404 235 408 C237 401 259 344 276 302 L355 112 L462 112 L539 302 C557 346 578 403 580 408 C579 403 575 343 575 241 L575 0 L752 0 L752 712 L561 712 L463 480 C431 405 409 346 409 346 C409 346 389 401 355 480 L256 712 L64 712 L64 0 Z M300 933 L198 772 L366 772 L403 866 L442 772 L615 772 L513 933 L300 933 Z " />
<glyph glyph-name="mcircumflex" unicode="&#xf117;" horiz-adv-x="875" d="M335 737 L238 584 L399 584 L434 672 L470 584 L636 584 L539 737 L335 737 Z M54 0 L231 0 L231 303 C231 369 258 393 294 393 C335 393 350 361 350 303 L350 0 L528 0 L528 310 C528 371 558 393 590 393 C635 393 646 361 646 303 L646 0 L823 0 L823 333 C823 486 760 533 662 533 C557 533 506 436 506 436 C506 436 486 533 371 533 C271 533 227 453 227 453 L224 520 L54 520 L54 0 Z " />
<glyph glyph-name="Gtilde" unicode="&#xf11b;" horiz-adv-x="696" d="M504 0 L653 0 L653 391 L376 391 L376 256 L484 256 L484 251 C484 195 442 140 359 140 C246 140 220 250 220 359 C220 550 289 578 348 578 C455 578 461 467 461 467 L649 467 C649 467 639 729 353 729 C128 729 28 565 28 351 C28 66 174 -10 315 -10 C456 -10 501 67 501 67 L504 0 Z M254 775 C254 788 259 813 283 813 C321 813 362 769 436 769 C539 769 539 881 539 927 L439 927 C439 916 435 883 412 883 C373 883 333 931 263 931 C140 931 148 790 148 775 L254 775 Z " />
<glyph glyph-name="gtilde" unicode="&#xf11c;" horiz-adv-x="592" d="M538 520 L364 520 L362 475 C362 475 329 534 227 534 C91 534 26 425 26 278 C26 139 66 27 216 27 C317 27 360 88 360 88 L360 36 C360 -38 346 -68 283 -68 C217 -68 215 -21 215 -21 L48 -21 C48 -21 49 -197 287 -197 C470 -197 538 -106 538 38 L538 520 Z M363 277 C363 231 360 155 282 155 C222 155 202 190 202 276 C202 371 238 398 285 398 C353 398 363 341 363 277 L363 277 Z M210 588 C210 600 215 624 238 624 C274 624 313 582 383 582 C481 582 481 688 481 732 L386 732 C386 722 382 690 361 690 C323 690 285 736 219 736 C102 736 110 602 110 588 L210 588 Z " />
<glyph glyph-name="Ncircumflex" unicode="&#xf127;" horiz-adv-x="726" d="M64 0 L240 0 L240 311 C240 389 236 449 236 450 C239 443 268 373 303 307 L463 0 L662 0 L662 712 L486 712 L486 475 C486 364 491 266 491 266 C491 266 449 355 409 435 L268 712 L64 712 L64 0 Z M256 933 L154 772 L322 772 L359 866 L398 772 L571 772 L469 933 L256 933 Z " />
<glyph glyph-name="ncircumflex" unicode="&#xf128;" horiz-adv-x="577" d="M183 737 L86 584 L247 584 L282 672 L318 584 L484 584 L387 737 L183 737 Z M54 0 L231 0 L231 303 C231 369 260 393 294 393 C339 393 348 362 348 303 L348 0 L525 0 L525 333 C525 489 463 533 372 533 C275 533 227 451 227 451 L224 520 L54 520 L54 0 Z " />
<glyph glyph-name="Commaaccent" unicode="&#xf12a;" horiz-adv-x="174" d="M4 -194 L74 -194 C74 -199 73 -232 7 -243 L7 -337 C159 -318 170 -226 170 -150 L170 -59 L4 -59 L4 -194 Z " />
<glyph glyph-name="Ndieresis" unicode="&#xf12c;" horiz-adv-x="726" d="M64 0 L240 0 L240 311 C240 389 236 449 236 450 C239 443 268 373 303 307 L463 0 L662 0 L662 712 L486 712 L486 475 C486 364 491 266 491 266 C491 266 449 355 409 435 L268 712 L64 712 L64 0 Z M398 778 L558 778 L558 926 L398 926 L398 778 Z M168 778 L327 778 L327 926 L168 926 L168 778 Z " />
<glyph glyph-name="ndieresis" unicode="&#xf12d;" horiz-adv-x="577" d="M87 578 L239 578 L239 719 L87 719 L87 578 Z M305 578 L457 578 L457 719 L305 719 L305 578 Z M54 0 L231 0 L231 303 C231 369 260 393 294 393 C339 393 348 362 348 303 L348 0 L525 0 L525 333 C525 489 463 533 372 533 C275 533 227 451 227 451 L224 520 L54 520 L54 0 Z " />
<glyph glyph-name="zeroone" unicode="&#xf150;" horiz-adv-x="1027" d="M25 491 C25 303 132 274 224 274 C314 274 421 310 421 491 C421 666 314 712 224 712 C132 712 25 669 25 491 L25 491 Z M166 491 C166 578 191 599 224 599 C255 599 280 569 280 491 C280 405 255 388 224 388 C191 388 166 405 166 491 L166 491 Z M909 0 L909 415 L797 415 C780 364 715 353 687 350 L687 224 C711 226 741 230 774 252 L774 0 L909 0 Z M212 -10 L352 -10 L824 721 L683 721 L212 -10 Z " />
<glyph glyph-name="oneone" unicode="&#xf151;" horiz-adv-x="1027" d="M329 285 L329 700 L217 700 C200 649 135 638 107 635 L107 509 C131 511 161 515 194 537 L194 285 L329 285 Z M909 0 L909 415 L797 415 C780 364 715 353 687 350 L687 224 C711 226 741 230 774 252 L774 0 L909 0 Z M212 -10 L352 -10 L824 721 L683 721 L212 -10 Z " />
<glyph glyph-name="Euro.fitted" unicode="&#xf176;" horiz-adv-x="762" d="M47 374 L109 374 C108 364 108 353 108 343 L108 323 L47 323 L47 233 L116 233 C140 83 222 -18 416 -18 C612 -18 710 91 717 259 L539 259 C539 259 538 129 426 129 C348 129 315 171 301 233 L477 233 L477 323 L292 323 L292 354 L292 374 L477 374 L477 463 L302 463 C318 533 355 562 420 562 C528 562 532 443 532 443 L710 443 C710 443 706 712 424 712 C254 712 152 622 119 463 L47 463 L47 374 Z " />
<glyph glyph-name="commaascender" unicode="&#xf206;" horiz-adv-x="174" d="M4 570 L74 570 C74 565 73 532 7 521 L7 427 C159 446 170 538 170 614 L170 705 L4 705 L4 570 Z " />
<glyph glyph-name="Germandbls" unicode="&#xf211;" horiz-adv-x="1193" d="M30 221 C30 111 99 -18 310 -18 C532 -18 571 114 571 216 C571 480 221 397 221 524 C221 571 253 586 290 586 C343 586 368 549 370 496 L552 496 C552 665 436 729 292 729 C140 729 45 649 45 502 C45 238 394 324 394 189 C394 136 357 125 321 125 C251 125 222 169 219 221 L30 221 Z M626 221 C626 111 695 -18 906 -18 C1128 -18 1167 114 1167 216 C1167 480 817 397 817 524 C817 571 849 586 886 586 C939 586 964 549 966 496 L1148 496 C1148 665 1032 729 888 729 C736 729 641 649 641 502 C641 238 990 324 990 189 C990 136 953 125 917 125 C847 125 818 169 815 221 L626 221 Z " />
<glyph glyph-name="Commaascender" unicode="&#xf237;" horiz-adv-x="174" d="M0 570 L73 570 C73 565 72 530 3 519 L3 420 C163 440 174 537 174 617 L174 712 L0 712 L0 570 Z " />
<glyph glyph-name="zerozero" unicode="&#xf303;" horiz-adv-x="1027" d="M25 491 C25 303 132 274 224 274 C314 274 421 310 421 491 C421 666 314 712 224 712 C132 712 25 669 25 491 L25 491 Z M166 491 C166 578 191 599 224 599 C255 599 280 569 280 491 C280 405 255 388 224 388 C191 388 166 405 166 491 L166 491 Z M605 206 C605 18 712 -11 804 -11 C894 -11 1001 25 1001 206 C1001 381 894 427 804 427 C712 427 605 384 605 206 L605 206 Z M746 206 C746 293 771 314 804 314 C835 314 860 284 860 206 C860 120 835 103 804 103 C771 103 746 120 746 206 L746 206 Z M212 -10 L352 -10 L824 721 L683 721 L212 -10 Z " />
<glyph glyph-name="cedillatog" unicode="&#xf30f;" horiz-adv-x="174" d="M170 701 L100 701 C100 706 101 739 167 750 L167 844 C15 825 4 733 4 657 L4 566 L170 566 L170 701 Z " />
<glyph glyph-name="h.superior" unicode="&#xf637;" horiz-adv-x="398" d="M42 330 L177 330 L177 515 C177 543 183 555 202 555 C219 555 222 543 222 515 L222 330 L358 330 L358 533 C358 640 318 659 267 659 C210 659 178 619 177 617 L177 757 L42 757 L42 330 Z " />
<glyph glyph-name="zero.fitted" unicode="&#xf639;" horiz-adv-x="658" d="M36 346 C36 39 188 -18 329 -18 C471 -18 622 48 622 346 C622 632 471 712 329 712 C188 712 36 635 36 346 L36 346 Z M220 346 C220 517 268 561 329 561 C390 561 438 507 438 346 C438 171 390 133 329 133 C268 133 220 171 220 346 L220 346 Z " />
<glyph glyph-name="two.fitted" unicode="&#xf63a;" horiz-adv-x="584" d="M48 0 L557 0 L557 158 L258 158 C448 272 548 382 548 510 C548 634 467 713 310 713 C36 713 37 449 37 449 L204 449 C204 449 207 563 298 563 C355 563 365 527 365 496 C365 410 263 317 48 139 L48 0 Z " />
<glyph glyph-name="three.fitted" unicode="&#xf63b;" horiz-adv-x="592" d="M33 234 C33 210 20 -18 308 -18 C499 -18 578 73 578 206 C578 355 443 367 435 368 C446 371 558 403 558 524 C558 621 492 712 316 712 C69 712 56 518 56 481 L217 481 C217 495 219 562 304 562 C355 562 376 539 376 497 C376 434 335 418 241 418 L217 418 L217 294 L244 294 C348 294 395 277 395 217 C395 158 368 132 305 132 C200 132 197 218 197 234 L33 234 Z " />
<glyph glyph-name="four.fitted" unicode="&#xf63c;" horiz-adv-x="622" d="M39 143 L337 143 L337 0 L514 0 L514 143 L587 143 L587 278 L514 278 L514 694 L327 694 L39 262 L39 143 Z M184 278 L337 502 L337 278 L184 278 Z " />
<glyph glyph-name="five.fitted" unicode="&#xf63d;" horiz-adv-x="561" d="M29 201 C29 188 27 -18 271 -18 C466 -18 525 117 525 244 C525 358 468 461 316 461 C230 461 201 430 201 430 L220 556 L480 556 L480 694 L102 694 L42 299 L188 281 C188 281 204 330 264 330 C319 330 341 287 341 238 C341 185 326 133 264 133 C187 133 188 201 188 201 L29 201 Z " />
<glyph glyph-name="six.fitted" unicode="&#xf63e;" horiz-adv-x="615" d="M561 503 C561 529 536 712 327 712 C90 712 39 479 39 299 C39 109 116 -18 322 -18 C480 -18 582 68 582 238 C582 397 495 464 364 464 C268 464 218 411 218 411 C222 482 238 572 318 572 C389 572 396 503 396 503 L561 503 Z M318 121 C252 121 234 166 234 232 C234 295 267 326 318 326 C372 326 398 287 398 223 C398 158 374 121 318 121 L318 121 Z " />
<glyph glyph-name="seven.fitted" unicode="&#xf63f;" horiz-adv-x="527" d="M264 0 C291 244 509 568 509 568 L509 694 L25 694 L25 549 L342 549 C268 466 118 238 73 0 L264 0 Z " />
<glyph glyph-name="eight.fitted" unicode="&#xf640;" horiz-adv-x="612" d="M37 196 C37 34 173 -17 306 -17 C442 -17 577 37 577 196 C577 343 437 370 437 370 C437 370 551 405 551 522 C551 660 424 712 306 712 C184 712 61 660 61 522 C61 400 169 370 169 370 C169 370 37 335 37 196 L37 196 Z M216 207 C216 257 246 293 306 293 C366 293 396 257 396 207 C396 155 366 121 306 121 C246 121 216 155 216 207 L216 207 Z M238 511 C238 557 266 579 306 579 C346 579 374 557 374 511 C374 467 346 442 306 442 C266 442 238 467 238 511 L238 511 Z " />
<glyph glyph-name="nine.fitted" unicode="&#xf641;" horiz-adv-x="615" d="M49 192 C49 192 47 -19 303 -19 C543 -19 577 208 577 392 C577 573 502 712 301 712 C141 712 30 626 30 459 C30 309 126 235 259 235 C347 235 397 288 397 288 C397 192 385 122 302 122 C216 122 211 192 211 192 L49 192 Z M215 475 C215 549 257 573 296 573 C337 573 378 550 378 473 C378 395 347 371 299 371 C254 371 215 386 215 475 L215 475 Z " />
<glyph glyph-name="zero.numerator" unicode="&#xf655;" horiz-adv-x="446" d="M25 491 C25 303 132 274 224 274 C314 274 421 310 421 491 C421 666 314 712 224 712 C132 712 25 669 25 491 L25 491 Z M166 491 C166 578 191 599 224 599 C255 599 280 569 280 491 C280 405 255 388 224 388 C191 388 166 405 166 491 L166 491 Z " />
<glyph glyph-name="one.numerator" unicode="&#xf656;" horiz-adv-x="446" d="M329 285 L329 700 L217 700 C200 649 135 638 107 635 L107 509 C131 511 161 515 194 537 L194 285 L329 285 Z " />
<glyph glyph-name="two.numerator" unicode="&#xf657;" horiz-adv-x="446" d="M58 285 L394 285 L394 402 L218 402 C332 451 387 519 387 584 C387 679 319 713 227 713 C49 713 45 553 45 548 L174 548 C174 548 175 602 217 602 C242 602 247 587 247 575 C247 527 205 498 58 387 L58 285 Z " />
<glyph glyph-name="three.numerator" unicode="&#xf658;" horiz-adv-x="446" d="M46 431 C47 302 136 274 236 274 C371 274 410 335 410 412 C410 497 316 503 308 504 C320 506 398 522 398 601 C398 653 360 712 242 712 C146 712 73 677 59 568 L182 568 C184 599 205 606 225 606 C252 606 259 590 259 575 C259 558 257 532 192 532 L165 532 L165 458 L199 458 C258 458 269 441 269 417 C269 397 261 380 225 380 C178 380 171 413 171 431 L46 431 Z " />
<glyph glyph-name="four.numerator" unicode="&#xf659;" horiz-adv-x="446" d="M42 369 L223 369 L223 285 L360 285 L360 369 L404 369 L404 461 L360 461 L360 700 L217 700 L42 448 L42 369 Z M136 461 L223 584 L223 461 L136 461 Z " />
<glyph glyph-name="five.numerator" unicode="&#xf65a;" horiz-adv-x="446" d="M62 409 C62 354 92 274 222 274 C349 274 385 352 385 428 C385 496 353 562 261 562 C202 562 183 540 183 540 L194 598 L356 598 L356 700 L106 700 L68 461 L173 448 C173 448 183 478 215 478 C246 478 254 455 254 433 C254 408 248 376 215 376 C177 376 174 409 174 409 L62 409 Z " />
<glyph glyph-name="six.numerator" unicode="&#xf65b;" horiz-adv-x="446" d="M388 586 C388 602 375 711 234 711 C77 711 42 571 42 464 C42 350 88 274 230 274 C336 274 403 325 403 428 C403 522 345 565 258 565 C195 565 169 531 169 531 C171 568 180 616 227 616 C263 616 268 586 268 586 L388 586 Z M226 367 C191 367 179 387 179 423 C179 456 199 472 227 472 C258 472 273 451 273 419 C273 385 258 367 226 367 L226 367 Z " />
<glyph glyph-name="seven.numerator" unicode="&#xf65c;" horiz-adv-x="446" d="M235 285 C241 394 381 612 381 612 L381 700 L65 700 L65 594 L255 594 C190 523 105 381 91 285 L235 285 Z " />
<glyph glyph-name="eight.numerator" unicode="&#xf65d;" horiz-adv-x="446" d="M44 401 C44 302 132 275 223 275 C315 275 401 302 401 401 C401 490 319 506 315 507 C322 509 386 533 386 596 C386 684 306 712 223 712 C134 712 58 684 58 596 C58 527 122 508 125 507 C118 505 44 483 44 401 L44 401 Z M169 409 C169 444 192 456 223 456 C253 456 276 444 276 409 C276 374 250 362 223 362 C194 362 169 373 169 409 L169 409 Z M181 590 C181 620 200 631 223 631 C245 631 264 620 264 590 C264 562 245 551 223 551 C200 551 181 562 181 590 L181 590 Z " />
<glyph glyph-name="nine.numerator" unicode="&#xf65e;" horiz-adv-x="446" d="M54 399 C54 399 52 272 224 272 C384 272 407 408 407 519 C407 628 362 712 222 712 C115 712 41 664 41 559 C41 469 96 424 194 424 C253 424 279 450 279 450 C279 400 272 362 223 362 C173 362 170 400 170 400 L54 399 Z M172 569 C172 607 196 620 219 620 C243 620 267 608 267 568 C267 527 249 514 221 514 C195 514 172 522 172 569 L172 569 Z " />
<glyph glyph-name="zero.denominator" unicode="&#xf661;" horiz-adv-x="446" d="M25 206 C25 18 132 -11 224 -11 C314 -11 421 25 421 206 C421 381 314 427 224 427 C132 427 25 384 25 206 L25 206 Z M166 206 C166 293 191 314 224 314 C255 314 280 284 280 206 C280 120 255 103 224 103 C191 103 166 120 166 206 L166 206 Z " />
<glyph glyph-name="one.denominator" unicode="&#xf662;" horiz-adv-x="446" d="M329 0 L329 415 L217 415 C200 364 135 353 107 350 L107 224 C131 226 161 230 194 252 L194 0 L329 0 Z " />
<glyph glyph-name="two.denominator" unicode="&#xf663;" horiz-adv-x="446" d="M58 0 L394 0 L394 117 L218 117 C332 166 387 234 387 299 C387 394 319 428 227 428 C49 428 45 268 45 263 L174 263 C174 263 175 317 217 317 C242 317 247 302 247 290 C247 242 205 213 58 102 L58 0 Z " />
<glyph glyph-name="three.denominator" unicode="&#xf664;" horiz-adv-x="446" d="M46 146 C47 17 136 -11 236 -11 C371 -11 410 50 410 127 C410 212 316 218 308 219 C320 221 398 237 398 316 C398 368 360 427 242 427 C146 427 73 392 59 283 L182 283 C184 314 205 321 225 321 C252 321 259 305 259 290 C259 273 257 247 192 247 L165 247 L165 173 L199 173 C258 173 269 156 269 132 C269 112 261 95 225 95 C178 95 171 128 171 146 L46 146 Z " />
<glyph glyph-name="four.denominator" unicode="&#xf665;" horiz-adv-x="446" d="M42 84 L223 84 L223 0 L360 0 L360 84 L404 84 L404 176 L360 176 L360 415 L217 415 L42 163 L42 84 Z M136 176 L223 299 L223 176 L136 176 Z " />
<glyph glyph-name="five.denominator" unicode="&#xf666;" horiz-adv-x="446" d="M62 124 C62 69 92 -11 222 -11 C349 -11 385 67 385 143 C385 211 353 277 261 277 C202 277 183 255 183 255 L194 313 L356 313 L356 415 L106 415 L68 176 L173 163 C173 163 183 193 215 193 C246 193 254 170 254 148 C254 123 248 91 215 91 C177 91 174 124 174 124 L62 124 Z " />
<glyph glyph-name="six.denominator" unicode="&#xf667;" horiz-adv-x="446" d="M388 301 C388 317 375 426 234 426 C77 426 42 286 42 179 C42 65 88 -11 230 -11 C336 -11 403 40 403 143 C403 237 345 280 258 280 C195 280 169 246 169 246 C171 283 180 331 227 331 C263 331 268 301 268 301 L388 301 Z M226 82 C191 82 179 102 179 138 C179 171 199 187 227 187 C258 187 273 166 273 134 C273 100 258 82 226 82 L226 82 Z " />
<glyph glyph-name="seven.denominator" unicode="&#xf668;" horiz-adv-x="446" d="M235 0 C241 109 381 327 381 327 L381 415 L65 415 L65 309 L255 309 C190 238 105 96 91 0 L235 0 Z " />
<glyph glyph-name="eight.denominator" unicode="&#xf669;" horiz-adv-x="446" d="M44 116 C44 17 132 -10 223 -10 C315 -10 401 17 401 116 C401 205 319 221 315 222 C322 224 386 248 386 311 C386 399 306 427 223 427 C134 427 58 399 58 311 C58 242 122 223 125 222 C118 220 44 198 44 116 L44 116 Z M169 124 C169 159 192 171 223 171 C253 171 276 159 276 124 C276 89 250 77 223 77 C194 77 169 88 169 124 L169 124 Z M181 305 C181 335 200 346 223 346 C245 346 264 335 264 305 C264 277 245 266 223 266 C200 266 181 277 181 305 L181 305 Z " />
<glyph glyph-name="nine.denominator" unicode="&#xf66a;" horiz-adv-x="446" d="M54 114 C54 114 52 -13 224 -13 C384 -13 407 123 407 234 C407 343 362 427 222 427 C115 427 41 379 41 274 C41 184 96 139 194 139 C253 139 279 165 279 165 C279 115 272 77 223 77 C173 77 170 115 170 115 L54 114 Z M172 284 C172 322 196 335 219 335 C243 335 267 323 267 283 C267 242 249 229 221 229 C195 229 172 237 172 284 L172 284 Z " />
<glyph glyph-name="commaaccent" unicode="&#xf6c3;" horiz-adv-x="174" d="M4 -194 L74 -194 C74 -199 73 -232 7 -243 L7 -337 C159 -318 170 -226 170 -150 L170 -59 L4 -59 L4 -194 Z " />
<glyph glyph-name="Acute" unicode="&#xf6c9;" horiz-adv-x="293" d="M168 934 L81 773 L235 773 L374 934 L168 934 Z " />
<glyph glyph-name="Caron" unicode="&#xf6ca;" horiz-adv-x="417" d="M315 771 L417 932 L250 932 L213 837 L174 932 L0 932 L102 771 L315 771 Z " />
<glyph glyph-name="Dieresis" unicode="&#xf6cb;" horiz-adv-x="390" d="M0 778 L159 778 L159 926 L0 926 L0 778 Z M230 778 L390 778 L390 926 L230 926 L230 778 Z " />
<glyph glyph-name="Grave" unicode="&#xf6ce;" horiz-adv-x="293" d="M-1 934 L139 773 L292 773 L206 934 L-1 934 Z " />
<glyph glyph-name="Hungarumlaut" unicode="&#xf6cf;" horiz-adv-x="588" d="M87 934 L0 773 L127 773 L266 934 L87 934 Z M286 934 L199 773 L326 773 L465 934 L286 934 Z " />
<glyph glyph-name="Macron" unicode="&#xf6d0;" horiz-adv-x="320" d="M0 793 L320 793 L320 911 L0 911 L0 793 Z " />
<glyph glyph-name="one.fitted" unicode="&#xf6dc;" horiz-adv-x="430" d="M364 0 L364 694 L216 694 C190 625 87 591 42 581 L42 411 C79 420 142 438 188 481 L188 0 L364 0 Z " />
<glyph glyph-name="b.superior" unicode="&#xf6ea;" horiz-adv-x="412" d="M42 330 L175 330 L176 359 C178 356 202 323 262 323 C359 323 386 400 386 491 C386 592 359 662 268 662 C209 662 178 628 177 626 L177 757 L42 757 L42 330 Z M176 486 C176 527 179 561 215 561 C249 561 252 519 252 487 C252 455 251 416 217 416 C179 416 176 459 176 486 L176 486 Z " />
<glyph glyph-name="d.superior" unicode="&#xf6eb;" horiz-adv-x="412" d="M371 757 L235 757 L235 624 C235 624 218 662 155 662 C62 662 25 575 25 490 C25 400 52 323 145 323 C208 323 236 359 236 359 L238 330 L371 330 L371 757 Z M236 486 C236 459 236 416 199 416 C162 416 161 452 161 489 C161 559 186 561 202 561 C233 561 236 528 236 486 L236 486 Z " />
<glyph glyph-name="e.superior" unicode="&#xf6ec;" horiz-adv-x="384" d="M352 448 C367 563 325 662 193 662 C84 662 25 596 25 495 C25 363 91 319 194 319 C325 319 348 407 351 424 L232 424 C226 407 212 402 193 402 C160 402 149 422 149 448 L352 448 Z M149 532 C151 567 170 575 191 575 C221 575 229 556 231 532 L149 532 Z " />
<glyph glyph-name="i.superior" unicode="&#xf6ed;" horiz-adv-x="219" d="M41 683 L177 683 L177 781 L41 781 L41 683 Z M42 330 L177 330 L177 651 L42 651 L42 330 Z " />
<glyph glyph-name="l.superior" unicode="&#xf6ee;" horiz-adv-x="219" d="M42 330 L177 330 L177 757 L42 757 L42 330 Z " />
<glyph glyph-name="m.superior" unicode="&#xf6ef;" horiz-adv-x="592" d="M42 330 L177 330 L177 515 C177 543 186 555 205 555 C221 555 228 542 228 515 L228 330 L366 330 L366 521 C366 544 378 555 392 555 C411 555 416 542 416 515 L416 330 L552 330 L552 532 C552 635 508 658 449 658 C384 658 350 602 350 602 C350 602 340 658 267 658 C207 658 174 615 173 613 L173 651 L42 651 L42 330 Z " />
<glyph glyph-name="r.superior" unicode="&#xf6f1;" horiz-adv-x="276" d="M42 330 L178 330 L178 490 C178 530 200 542 237 542 C244 542 266 541 266 541 L266 659 C266 659 263 660 254 660 C242 660 200 653 174 605 L169 651 L42 651 L42 330 Z " />
<glyph glyph-name="s.superior" unicode="&#xf6f2;" horiz-adv-x="318" d="M23 433 C23 413 24 319 162 319 C242 319 294 347 294 431 C294 545 138 516 138 563 C138 577 148 582 160 582 C185 582 187 559 187 553 L291 553 C291 575 281 661 157 662 C91 662 26 634 26 555 C26 439 185 467 185 419 C185 404 177 399 159 399 C134 399 127 416 126 433 L23 433 Z " />
<glyph glyph-name="t.superior" unicode="&#xf6f3;" horiz-adv-x="276" d="M58 460 C58 384 61 322 173 322 C200 322 250 331 250 331 L250 419 L225 419 C200 419 192 421 192 446 L192 565 L254 565 L254 651 L192 651 L192 741 L58 709 L58 651 L8 651 L8 565 L58 565 L58 460 Z " />
<glyph glyph-name="fi" unicode="&#xfb01;" horiz-adv-x="650" d="M415 584 L597 584 L597 740 L415 740 L415 584 Z M418 0 L595 0 L595 520 L418 520 L418 0 Z M75 0 L249 0 L249 402 L355 402 L355 520 L249 520 L249 536 C249 565 257 587 308 587 C332 587 366 586 366 586 L366 708 C366 708 305 717 250 717 C120 717 75 665 75 537 L75 520 L3 520 L3 402 L75 402 L75 0 Z " />
<glyph glyph-name="fl" unicode="&#xfb02;" horiz-adv-x="650" d="M418 0 L595 0 L595 712 L418 712 L418 0 Z M75 0 L249 0 L249 402 L355 402 L355 520 L249 520 L249 536 C249 565 257 587 308 587 C332 587 366 586 366 586 L366 708 C366 708 305 717 250 717 C120 717 75 665 75 537 L75 520 L3 520 L3 402 L75 402 L75 0 Z " />
</font>
</svg>
