<?xml version="1.0" standalone="no"?>
<!DOCTYPE svg PUBLIC "-//W3C//DTD SVG 20010904//EN"
 "http://www.w3.org/TR/2001/REC-SVG-20010904/DTD/svg10.dtd">
<svg version="1.0" xmlns="http://www.w3.org/2000/svg"
 width="328.000000pt" height="328.000000pt" viewBox="0 0 328.000000 328.000000"
 preserveAspectRatio="xMidYMid meet">
<metadata>
Created by potrace 1.11, written by Peter Selinger 2001-2013
</metadata>
<g transform="translate(0.000000,328.000000) scale(0.100000,-0.100000)"
fill="#000000" stroke="none">
<path d="M472 3260 c-173 -46 -326 -168 -401 -322 -74 -152 -71 -84 -68 -1323
l2 -1110 27 -73 c67 -184 198 -321 370 -385 89 -34 126 -39 266 -42 l123 -3
1243 1244 1244 1244 -3 137 c-2 76 -8 150 -14 166 -6 15 -9 27 -6 27 2 0 -8
28 -22 62 -70 172 -204 300 -385 366 l-73 27 -1115 2 c-1073 2 -1118 1 -1188
-17z m1796 -375 c59 -44 173 -167 189 -205 20 -45 20 -116 1 -161 -9 -20 -67
-88 -130 -152 l-115 -116 -204 205 -204 204 95 96 c96 96 159 147 195 157 11
3 46 4 78 2 43 -2 67 -10 95 -30z m-438 -615 l200 -201 -487 -487 c-553 -552
-509 -517 -870 -696 -304 -151 -314 -155 -353 -116 -35 35 -30 50 116 344 103
205 134 262 187 341 37 55 982 1015 999 1015 5 0 98 -90 208 -200z"/>
<path d="M2122 1167 c-633 -633 -1152 -1155 -1152 -1158 0 -3 74 -5 165 -5
l165 1 988 988 989 989 0 169 c0 93 -1 169 -1 169 -1 0 -520 -519 -1154 -1153z"/>
<path d="M2568 722 c-390 -390 -708 -711 -708 -714 0 -8 893 -4 906 4 6 4 23
9 38 12 143 26 318 160 393 301 32 60 56 124 69 180 5 22 15 926 10 925 -1 0
-319 -319 -708 -708z"/>
</g>
</svg>
